<svg id="Layer_1" data-name="Layer 1" xmlns="http://www.w3.org/2000/svg" viewBox="0 0 586.511 483.822"><title>Amazon_dark</title><path d="M432.192,176.745c0,19.962.717,39.8-.239,59.766-.956,22.711,5.977,42.194,20.32,59.406a76.263,76.263,0,0,1,4.661,6.216c5.141,7.77,4.184,13.148-2.868,19.125-15.062,12.671-30,25.46-45.063,38.131-8.965,7.53-14.583,7.411-23.667,0-12.192-9.921-21.755-22.113-30.241-35.143-2.032-3.107-3.108-2.988-5.618-.6-15.062,14.7-30.959,28.329-51.159,35.143-31.2,10.638-62.874,12.312-94.191,1.195-30.122-10.758-48.171-32.991-54.865-63.949-7.411-34.545-3.586-67.416,17.69-96.7,16.137-22.113,38.489-35.142,64.188-43.15,26.536-8.128,53.908-11.236,81.4-13.985,7.77-.837,15.42-1.554,23.189-2.271,1.912-.12,3.586-.359,3.466-2.869-.238-12.67,1.076-25.58-1.912-38.011-3.825-15.9-14.225-25.221-30.122-28.688a61.761,61.761,0,0,0-33.588,1.913c-16.734,5.737-27.134,17.332-31.317,34.544-2.271,9.443-6.694,12.79-15.9,11.833-19.6-2.032-39.206-4.064-58.689-6.1-8.009-.837-12.192-6.933-10.519-14.7,10.16-49.6,42.673-77.456,89.529-90.246,35.979-9.8,72.436-10.4,108.534-.239,29.046,8.128,53.431,22.472,67.057,50.92,7.77,16.137,9.563,33.588,9.8,51.04.239,22.354,0,44.945.12,67.417Zm-93,37.294c0-5.977-.238-11.953.12-17.93.239-3.706-1.076-5.021-4.781-4.662-9.085.836-18.288.956-27.373,2.151-15.9,2.032-31.437,5.977-44.346,16.017-18.767,14.7-22.711,34.784-19.6,57.375,3.706,26.535,27.373,41.238,52.714,32.393,17.212-5.977,27.73-18.646,35.022-34.545C338.6,248.7,339.2,231.371,339.2,214.039Z" transform="translate(0 0.001)" fill="#333"/><path d="M294.969,483.821c-91.2-.6-173.081-24.025-247.071-73.392a395.938,395.938,0,0,1-43.031-33.11,22.922,22.922,0,0,1-3.347-3.467c-1.315-1.793-2.271-3.944-.717-6.1,1.554-2.391,4.184-2.63,6.455-1.554,5.259,2.51,10.28,5.259,15.419,7.889a583.664,583.664,0,0,0,148.7,54.147,591.983,591.983,0,0,0,142.959,13.746,573.166,573.166,0,0,0,199.378-41.478,56.965,56.965,0,0,1,9.563-3.347c4.543-.837,9.085-.239,11.117,4.662,1.912,4.542-.6,8.128-3.945,11a77.126,77.126,0,0,1-7.889,5.5c-41.238,26.775-86.421,43.987-134.233,54.626A441.87,441.87,0,0,1,294.969,483.821Z" transform="translate(0 0.001)" fill="#f6a61f"/><path d="M525.067,377.319c-13.746-.12-27.372,1.673-41,3.107-2.63.239-5.618.956-6.813-1.912-1.434-3.228,1.315-5.14,3.586-6.694,16.974-11.235,35.979-15.658,55.941-16.734,13.746-.836,27.372-.238,40.76,3.825,6.1,1.793,9.084,5.379,8.965,11.595-.717,33.229-11.834,62.156-35.859,85.7a25.213,25.213,0,0,1-2.749,2.271c-2.151,1.555-4.781,2.988-7.053,1.076-2.151-1.793-.956-4.423,0-6.574,7.053-17.571,14.225-35.022,17.69-53.789a48.6,48.6,0,0,0,.718-7.053c.119-7.77-2.63-11.116-10.28-13.028C540.965,376.96,532.956,377.319,525.067,377.319Z" transform="translate(0 0.001)" fill="#f6a61f"/></svg>