<svg id="Layer_1" data-name="Layer 1" xmlns="http://www.w3.org/2000/svg" viewBox="0 0 455 455"><title>Amazon_dark</title><path d="M366.437,176.746c0,19.962.717,39.8-.239,59.766-.956,22.711,5.977,42.194,20.32,59.406a76.263,76.263,0,0,1,4.661,6.216c5.141,7.77,4.184,13.148-2.868,19.125-15.062,12.671-30,25.46-45.063,38.131-8.965,7.53-14.583,7.411-23.667,0-12.192-9.921-21.755-22.113-30.241-35.143-2.032-3.107-3.108-2.988-5.618-.6-15.062,14.7-30.959,28.329-51.159,35.143-31.2,10.638-62.874,12.312-94.191,1.2C108.25,349.229,90.2,327,83.507,296.038c-7.411-34.545-3.586-67.416,17.69-96.7,16.137-22.113,38.489-35.142,64.188-43.15,26.536-8.128,53.908-11.236,81.4-13.985,7.77-.837,15.42-1.554,23.189-2.271,1.912-.12,3.586-.359,3.466-2.869-.238-12.67,1.076-25.58-1.912-38.011C267.7,83.154,257.3,73.83,241.406,70.363a61.761,61.761,0,0,0-33.588,1.913c-16.734,5.737-27.134,17.332-31.317,34.544-2.271,9.443-6.694,12.79-15.9,11.833-19.6-2.032-39.206-4.064-58.689-6.1-8.009-.837-12.192-6.933-10.519-14.7,10.16-49.6,42.673-77.456,89.529-90.246,35.979-9.8,72.436-10.4,108.534-.239,29.046,8.128,53.431,22.472,67.057,50.92,7.77,16.137,9.563,33.588,9.8,51.04.239,22.354,0,44.945.12,67.417Zm-93,37.294c0-5.977-.238-11.953.12-17.93.239-3.706-1.076-5.021-4.781-4.662-9.085.836-18.288.956-27.373,2.151-15.9,2.032-31.437,5.977-44.346,16.017-18.767,14.7-22.711,34.784-19.6,57.375,3.706,26.535,27.373,41.238,52.714,32.393,17.212-5.977,27.73-18.646,35.022-34.545C272.843,248.7,273.441,231.372,273.441,214.04Z" fill="#333"/><path d="M228.83,455c-70.753-.464-134.272-18.638-191.672-56.935A307.157,307.157,0,0,1,3.776,372.379a17.817,17.817,0,0,1-2.6-2.69c-1.02-1.391-1.762-3.06-.556-4.729a3.737,3.737,0,0,1,5.008-1.206c4.079,1.948,7.975,4.08,11.961,6.12A452.764,452.764,0,0,0,132.948,411.88a459.239,459.239,0,0,0,110.9,10.664,444.627,444.627,0,0,0,154.672-32.178,44.2,44.2,0,0,1,7.419-2.6c3.524-.649,7.048-.185,8.624,3.617,1.483,3.523-.464,6.305-3.06,8.531a60.011,60.011,0,0,1-6.12,4.265c-31.992,20.771-67.044,34.124-104.135,42.377A342.738,342.738,0,0,1,228.83,455Z" fill="#f6a61f"/><path d="M407.334,372.379c-10.664-.094-21.235,1.3-31.806,2.41-2.041.185-4.359.742-5.286-1.483-1.112-2.5,1.021-3.988,2.782-5.193,13.168-8.716,27.912-12.147,43.4-12.982,10.664-.649,21.234-.185,31.621,2.967,4.729,1.391,7.047,4.173,6.954,9-.556,25.778-9.18,48.219-27.818,66.487a19.4,19.4,0,0,1-2.133,1.762c-1.668,1.206-3.709,2.318-5.471.835-1.669-1.391-.742-3.432,0-5.1,5.471-13.631,11.035-27.169,13.723-41.728a37.634,37.634,0,0,0,.557-5.472c.093-6.028-2.04-8.623-7.975-10.107C419.667,372.1,413.454,372.379,407.334,372.379Z" fill="#f6a61f"/></svg>