<svg id="Layer_1" data-name="Layer 1" xmlns="http://www.w3.org/2000/svg" viewBox="0 0 325.076 363.399"><title>Desura</title><path d="M140.338,63.139c-8.25-15.75-21.5-40.5-26-52.5s-23-15-30.5-3-16.5,32.25-15.5,79.5c-33.333,7.667-81.667,41.167-43.5,62.834,0,0-10.833,12.666-5,28.5-19.5,32.666-29.5,58.333-6.833,74.5-.917,40.666,3.458,78.666,36.208,66.541,40.125,44.625,152.625,70.959,224.958-.041,32.834,11,39.5-18.334,37.834-66.5,22.833-14.667,12.5-44.834-6.167-73.5,5-27-12.167-43.334-43-62.667,22-60.5,12.5-99.833,1-104.667s-18.667-1.333-29.667,13.334-32.833,38.166-32.833,38.166c-18.333-13.833-31.167-8.833-38,5.667A127.91,127.91,0,0,0,140.338,63.139Z" fill="#681715"/><path d="M190.463,96.764c-97.5-40-117.625-12.125-70.5,0-84.25,2-135.5,60.25-39.5,29-51.923,31.25-51.25,52.25-38.625,48.75-37.375,52.5-22,78.125-11.25,57.5l.25,41.375c.25,37,15,38.875,17.875,18.125,48.375,71.625,177.875,74.625,226.625-1.125,2.5,16.584,24.5,38.417,18.75-59.25,8.25,17.917,30.75,3.417-11.083-55.916,17.583,1.666,1.833-28.334-39.167-48.834C180.005,62.806,168.588,59.723,190.463,96.764Z" fill="#cb2127"/><path d="M275.338,290.389c2.307,15.3,21.216,35.07,19.607-38.7.756,50.7-15.983,50.941-18.357,27.7-31.917,56.75-163.917,88.75-228,1.75.723,11.076-17.217,32.375-17.832-21.26l.082,13.51c.25,37,15,38.875,17.875,18.125C97.088,363.139,226.588,366.139,275.338,290.389Z" fill="#9a1c1f"/><path d="M190.463,96.764C146.555,78.751,118.346,74.506,104.9,76.385,107.506,80.425,130.3,87.7,190.463,96.764Z" fill="#ee4749"/><path d="M35.963,125.889c-7.375,7,3.375,1.875,14.75-4.625s30.625-13.791,63.122-24.254l-6.983.526C66.24,100.683,43.338,118.889,35.963,125.889Z" fill="#ee4749"/><path d="M270.005,171.473c8-1.167,11.384-19.935-40.834-44.334-14.666-19.666-20-26.166-26.666-33s-8-8.5-7.834-2.666,4.667,23.75,4.667,23.75c-70.5-42.417-75.333-19.917-46.5-5.667-68.15-5.75-83.333,3.083-50.5,14.417-16.833,11.166-25.188,16.416-36.875,23.791s-19.813,16.125-5.75,17a110.523,110.523,0,0,0-5.625,13c-15.25,17.875-21.25,24.25-22.625,33.625s4.875,17.875,15.375,2c.375,8.125-6,27-8,51.5s17.25,10.25,21.625-5.5c58.875,90.5,173.125,80,212.375-18.75.667,40.667,13.038,49.167,13,21.167-1.667-30.5-4.833-44.833-7.833-57.667C282.171,215.306,312.505,221.473,270.005,171.473ZM53.838,237.014c0-6.7,4.7-12.125,10.5-12.125s10.5,5.429,10.5,12.125-4.7,12.125-10.5,12.125S53.838,243.711,53.838,237.014ZM80.821,262.23c-2.6,3.633-7.155,4.826-10.176,2.665s-3.363-6.859-.764-10.492,7.154-4.826,10.176-2.664S83.42,258.6,80.821,262.23Z" fill="#ee3434"/><path d="M138.975,301.639a13.813,13.813,0,0,0,13.446,12.334c7.5,0,13.584-6.38,13.584-14.25a14.79,14.79,0,0,0-1.023-5.417Z" fill="#cb2127"/><path d="M132.671,291.973c-4,13.833,27.75,27,29.417,3Z" fill="#f6f7f8"/><path d="M89.838,273.473c55.833,45.5,142.833,31.166,168-46.667C214.005,292.973,153.174,298.933,89.838,273.473Z" fill="#791414"/><path d="M228.54,230.478c51.465-131-184.869-125.005-137.92-4.645C116.338,254.139,228.54,230.478,228.54,230.478Z" fill="#791414"/><path d="M233.838,202.639c1.581,37.632-29.883,67.709-73.875,67.25-40.8-.426-73.875-30.109-73.875-67.25s33.085-66.361,73.875-67.25C202.141,134.47,232.247,164.777,233.838,202.639Z" fill="#3c3c3b"/><path d="M233.338,203.056c1.168,36.04-31.169,59.7-71.667,61.25-41.409,1.584-74.373-23.032-71.666-61.25,2.42-34.176,31.427-61.642,71.666-61.25C204.019,142.218,232.263,169.874,233.338,203.056Z" fill="#f6f7f8"/><path d="M162.463,162.139a24.222,24.222,0,0,0-15.324,5.678,20.631,20.631,0,0,1,4.449,13.239c0,9.711-5.8,17.583-12.958,17.583a10.005,10.005,0,0,1-4.767-1.244c-.011.414-.025.827-.025,1.244,0,20.159,12.816,36.5,28.625,36.5s28.625-16.341,28.625-36.5S178.272,162.139,162.463,162.139Z" fill="#1e1f1e"/><path d="M88.338,94.639l-4.583.417c-1.189-37.765,3.847-59.786,9.514-72.4,5.319-13.681,6.894-3.512,8.428-.572,9.456,18.139,25.974,50.224,25.974,50.224l-4.666-.5L100.338,59.473l-12,13.166.833,18.667Z" fill="#7c7d7d"/><path d="M97.171,93.806l-8.833.833c-2.333-43,2.167-57.666,9.5-72,12.833,27.834,25.167,49.167,25.167,49.167C90.505,63.973,83.505,82.306,97.171,93.806Z" fill="#f6f7f8"/><path d="M100.131,71.048v-.007l-9.794-13.4a147.157,147.157,0,0,0-2.492,25.128c.1,3.7.263,7.647.492,11.872l8.833-.833C87.706,85.841,88.163,74.6,100.131,71.048Z" fill="#e0e2e2"/><path d="M240.963,118.514l3.375,3.25c16.5-39.625,17.5-70,14.125-88.375-1.875-10.625-3-11.375-9.625-1.25s-44.375,50.625-44.375,50.625l2.75,2.375,22,4Z" fill="#7c7d7d"/><path d="M207.213,85.139c30.75-32.75,47.5-53.75,47.5-53.75,1.875,28.125,1.208,53.167-13.75,87.125C218.838,95.764,207.213,85.139,207.213,85.139Z" fill="#f6f7f8"/><path d="M252.088,41.514c2.625,32.375-2.25,47-12.6,75.482L207.213,85.139l2.326-2.483C224.421,87.556,243.838,83.723,252.088,41.514Z" fill="#e0e2e2"/></svg>