<svg xmlns="http://www.w3.org/2000/svg" x="0px" y="0px" viewBox="0 0 485.8 563.5">
<style type="text/css">	.st0{fill:#323232;} .st1{fill:#F5F5F5;}</style>
<path class="st0" d="M21.1,472.3l208.3,88.5c4.3,1.8,8.9,2.8,13.5,2.8c4.6,0,9.2-0.9,13.5-2.8l208.3-88.5 c12.8-5.4,21.1-18,21.1-31.8V34.6c0-19.1-15.5-34.6-34.6-34.6H34.6C15.5,0,0,15.5,0,34.6v405.9C0,454.3,8.3,466.8,21.1,472.3z"/><polygon class="st1" points="104.8,260.8 104.8,195.8 143.5,195.8 143.5,165.5 104.8,165.5 104.8,105.1 145,105.1 145,74.9 71.9,74.9 71.9,291 145.6,291 145.6,260.8 "/><rect x="267.8" y="74.9" class="st1" width="32.9" height="216.1"/><path class="st1" d="M220,74.9h-58.6V291h32.9v-78.6H220c18.2,0,33-14.8,33-33v-71.5C253,89.7,238.2,74.9,220,74.9z M220,172.9 c0,5.9-4.8,10.8-10.8,10.8h-15.1v-79.7h15.1c5.9,0,10.8,4.8,10.8,10.8V172.9z"/><path class="st1" d="M381.8,202.4v50.7c0,5.8-4.7,10.5-10.5,10.5h-10c-5.8,0-10.5-4.7-10.5-10.5V112.5c0-5.8,4.7-10.5,10.5-10.5h9.3 c5.8,0,10.5,4.7,10.5,10.5v44.6h32.3v-50.4c0-18.7-15.1-33.8-33.8-33.8h-27.9c-18.7,0-33.8,15.1-33.8,33.8V259 c0,18.7,15.1,33.8,33.8,33.8H380c18.7,0,33.8-15.1,33.8-33.8v-56.6H381.8z"/><path class="st1" d="M133.9,375.8v-5.1h-29.2v13.2h12.9v8.2c-3.4,2-7.4,2.9-11.6,2.9c-9.6,0-17.4-8.3-17.4-18.6s7.8-18.6,17.4-18.6 c5.5,0,11.4,2.5,15.4,6.6l10.5-12.6c-6.8-6.8-16.7-9.7-27.2-9.7c-18.8,0-34.1,15.3-34.1,34.1s15.3,34.1,34.1,34.1 c10.4,0,21.6-3.4,29.4-10.3v-24L133.9,375.8z"/><path class="st1" d="M194.1,408.8h18.5l-27.8-66h-16.5l-27.7,66h18.1l4.9-12.4h25.6L194.1,408.8z M169,382.6l7.4-18.8l7.4,18.8H169z"/><polygon class="st1" points="269.3,343.5 253.7,368.9 237.9,343.5 219.5,343.5 219.5,408.8 236.7,408.8 236.7,370.8 253.7,396.5 270.7,370.8 270.7,408.8 287.9,408.8 287.9,343.5 "/><polygon class="st1" points="318.3,393.9 318.3,382.9 349.3,382.9 349.3,368.9 318.3,368.9 318.3,358.4 352.9,358.4 352.9,343.5 301.1,343.5 301.1,408.8 353.4,408.8 353.4,393.9 "/><path class="st1" d="M359.1,399.2c23.3,18.5,56.1,12.5,56.1-10.3c0-24.5-35.4-16.8-35.4-27.6c0-6.8,15.6-5.3,24.7,2.2l8.9-12.5 c0,0-8.2-8.5-26.2-8.6s-24.9,10.8-24.9,20.7c0,24.2,35.2,17.5,35.2,27.1c0,7.3-15.1,7.1-28.5-2.8L359.1,399.2z"/><polygon class="st1" points="242.9,518 149.4,485.9 336.4,485.9 "/></svg>