<svg id="Layer_1" data-name="Layer 1" xmlns="http://www.w3.org/2000/svg" viewBox="0 0 980 970.6"><title>GamesWebsite2</title><path d="M506.4,123.3a18.231,18.231,0,0,0-4.4.7,17.5,17.5,0,0,1-4.2.7,2.209,2.209,0,0,1-2-.8c3.8-3.5,3.9-5,4.7-9,4.4,1.6,7.5,6.6,12.7,6.6a10.8,10.8,0,0,0,5.4-1.7c-.4-8.4-11.6-5.6-13.5-12.4,14.6-.6,31-11.1,34.5-20.6.8-1.9-2.1-5.4-1.1-7.2,7-11.8,18.6-6.6,28.5-15.8a23.418,23.418,0,0,1-8.8,1.8c-7.4,0-12.9-3.7-17.4-5a61.085,61.085,0,0,0-16.3-1.8c-12.8,0-27.8,2.1-39,3.5-16.4,2-33.9,9.9-49.1,10.7-23.3,1.3-44.7-1.4-62.1,15.4,1.3,1.8,2.4,3.5,3.7,5.3-1.6,2-3.1,4.1-4.8,6.1h.3c12.5,0,10.7,13.4,14.6,21.3,2.7,5.6,8.7,4.8,7.5,10.8-2.2,10.9-14.8,8.4-19.6,17.1-2.9,5.2-2.7,26.7-.8,29.7,2.1,3.4,10.8,7.6,18.1,7.6a18.406,18.406,0,0,0,4.1-.5c10.9-3.2,14.5-20.1,24.4-27.3,7.7-5.6,18.6-4.9,30.4-10.5,7.8-3.7,13.4-12.2,20.6-14.2,11.4-3.1,22.7.1,37-6.2C510,124.2,508.5,123.3,506.4,123.3Z" fill="#fff"/><path d="M238.2,126.7c-6.5,0-16.2,4.7-16.1,10.2,7.6-1.9,14-4.9,21.6-6.7C243.5,127.7,241.2,126.7,238.2,126.7Z" fill="#fff"/><path d="M319.5,136.9a11.094,11.094,0,0,1-3.4.6c-7.1,0-10.5-8-16.6-9.6H299c-2.1,0-4.8,3.6-6.8,3.6h0c-2.2,0-4-1.7-5.9-3.4-2-1.7-4.1-3.4-7.1-3.4h-.1c-9.6.2-11.9,4.9-20.5,9.2,1.3-3.8,6.3-4.1,6.6-8.9-9.7.4-27,10.2-25.6,16.6.4,2,7.7,3,16.1,3a94.211,94.211,0,0,0,14.3-1.1c3.1-.6,6.7-3.9,9.7-3.9h.5c15.3,2.1,7.6,18.6,19,18.7a5.613,5.613,0,0,1-4.7,2.6,18.008,18.008,0,0,1-3.8-.7,13.364,13.364,0,0,0-3.9-.7,5.663,5.663,0,0,0-1.8.3c-5.1,1.6-7.9,7.5-13.6,9.6a8.731,8.731,0,0,1-3.1.5,19.341,19.341,0,0,1-4.2-.6,18.489,18.489,0,0,0-3.9-.6c-2.3,0-4.4,1.1-6.2,5.2a9.151,9.151,0,0,0,3.8.9,12.783,12.783,0,0,0,6.3-2.1c2-1,3.9-2.1,6-2.1a4.1,4.1,0,0,1,1.1.1c7.1,1.4,8.5,14.2,19.5,14.2a19.467,19.467,0,0,0,7.5-1.6c1.8-6.3-9.5-4-4.8-9.3h.5a9.275,9.275,0,0,1,5,1.6,9.275,9.275,0,0,0,5,1.6,12.366,12.366,0,0,0,1.8-.2c3.6-5.8,1.2-10.6,0-15.3a19.891,19.891,0,0,1,4.9-.5,54.588,54.588,0,0,1,5.7.4,51.326,51.326,0,0,0,5.2.4c4.3,0,7.4-1.4,7.4-7.9C329.1,148.7,311.3,148.8,319.5,136.9Z" fill="#fff"/><path d="M228.1,172.6c-6.5,0-14.4,4.1-14.6,10.8a29.626,29.626,0,0,1,11.5-2.1c1.2,0,2.2,0,3.3.1s2.1.1,3.1.1a16.072,16.072,0,0,0,4.9-.6C237.4,175.1,233.3,172.6,228.1,172.6Z" fill="#fff"/><path d="M571.8,240.9c15.9-4,34.7-1.5,36.4-16.8a10.433,10.433,0,0,1-3.2.5c-5.3,0-5.5-5.1-8.2-7.7-1.5,1.4-3.1,2.8-4.6,4.2-1.8-.9-3.7-1.7-5.5-2.6a20.819,20.819,0,0,0-11.8,12c1.8,2.5,8.6-.2,8.6,4.2C580.3,237.5,573.3,236.4,571.8,240.9Z" fill="#fff"/><path d="M550.2,234c14.1-1.2,20-10.7,22.2-24-1.2-.1-2.4-.2-3.5-.2C552.7,209.9,547.7,221.4,550.2,234Z" fill="#fff"/><path d="M307.3,247.9c-11.8,3.6-16.7,13.8-24.5,21.1a31.278,31.278,0,0,1,4.9-.5c5.3,0,8.5,2,9.1,6.6.6-8.9,14.3-5.1,19.4-9.5C317.2,255.1,297.2,259.4,307.3,247.9Z" fill="#fff"/><path d="M156.9,446.4c-3.2,0-6.7.2-10,.3,6.1,8.4-7.5,5.4-12,8.2a122.46,122.46,0,0,0,16.1,1.3,83.68,83.68,0,0,0,22.3-3.2C171.6,447.4,164.8,446.4,156.9,446.4Z" fill="#fff"/><path d="M341.9,83.4c-9.8,4.6-19.6,9.3-29.4,14C322.6,93.8,334.6,93.8,341.9,83.4Z" fill="#fff"/><path d="M315.6,84.2c8.8-.3,17.5-.6,26.3-.8a12.193,12.193,0,0,0-7.5-2.1C328.5,81.3,321.7,83.8,315.6,84.2Z" fill="#fff"/><path d="M341.9,83.4c15.4-3.7,30.9-6.1,45.7-13.3C372.5,74.5,357.2,78.9,341.9,83.4Z" fill="#fff"/><path d="M377.9,93.6a60.273,60.273,0,0,0-13.2,2C369.1,94.9,373.5,94.2,377.9,93.6Z" fill="#fff"/><path d="M269.7,116.8c1.9.1,3.9.1,5.8.1a56.679,56.679,0,0,0,17.9-2.4c-11.8.7-23.6,1.5-35.5,2.4,2-.2,4-.2,6-.2C265.8,116.7,267.7,116.8,269.7,116.8Z" fill="#fff"/><path d="M515.9,154.7a47.7,47.7,0,0,0,20.5-4.2c-8.8,1.3-17.6,2.6-26.4,4C511.9,154.6,513.9,154.7,515.9,154.7Z" fill="#fff"/><path d="M588.5,211.3c-1.4-3.9-2.9-7.8-4.3-11.8C577.9,204.7,583.9,207.3,588.5,211.3Z" fill="#fff"/><path d="M588.5,211.3c1.2,3.3,2.4,6.6,3.7,9.9C593.8,216.7,591.4,213.7,588.5,211.3Z" fill="#fff"/><path d="M84.5,432.3c12.7,2.4,25.4,4.9,38.2,7.5-6.4-5.8-16.1-10.3-25.8-10.3A29.065,29.065,0,0,0,84.5,432.3Z" fill="#fff"/><path d="M86.6,513.3a61.119,61.119,0,0,0,8.4-.8c-7.6-2.8-15.3-5.5-22.9-8.3C75.7,511.5,80.9,513.3,86.6,513.3Z" fill="#fff"/><path d="M102.8,511.7a72.791,72.791,0,0,0-7.8.7c6.9,2.5,13.9,5.1,20.8,7.7C112.8,513.4,108.1,511.7,102.8,511.7Z" fill="#fff"/><path d="M250,153.1c-9.2,3.9-18.4,7.9-27.6,11.9h.3C232.5,165,242.2,160.2,250,153.1Z" fill="#fff"/><path d="M107.5,398c0,2.7.1,5.4,1.4,7.9C108.5,403.2,108,400.6,107.5,398Z" fill="#fff"/><path d="M105.4,385.1c.7,4.2,1.4,8.5,2.1,12.8C107.6,393.5,108.2,389,105.4,385.1Z" fill="#fff"/><path d="M490,0C219.8,0,0,217.7,0,485.3S219.8,970.6,490,970.6,980,752.9,980,485.3,760.2,0,490,0ZM905.4,414.1c-3.6,0-6-2.5-5.6-9.6a26.839,26.839,0,0,1-6.9,1.5c-4.3,0-3.3-4.2-8-13.3-1.8-3.5-17.6-18.8-4.7-19h.2c14.8,0,10.1,21.7,32.6,23.7h.4a28.8,28.8,0,0,0,6.4-1.4,30.209,30.209,0,0,1,6-1.4h.4a7.6,7.6,0,0,1,3.1,2.5c1.1,5.2,1.6,10.5,2.4,15.8-4.3-2.7-7.3-6.2-5.5-12.5C923,404.9,912.2,414.1,905.4,414.1Zm-47.3-124c-2.2-2.9-6.1-9.1-6.1-10.4.1-7,11.9-15.9,22-15.9a14.213,14.213,0,0,1,4.2.6c2,3.3,4.2,6.5,6.1,10a10.323,10.323,0,0,1-3,.4,14.769,14.769,0,0,1-2.1-.1c-.7,0-1.3-.1-1.9-.1a4.541,4.541,0,0,0-3.6,1.2c-10.6,10.4,14.7,18,23,24.1.6,1.3,1.3,2.5,1.9,3.9q-1.05,1.8-3.9,1.8c-1.3,0-2.8-.2-4.2-.2,1.3,12.3,14,12.4,10.8,22-1.2,3.7-4.7,5.1-9,5.1-8.5,0-19.9-5.5-21.8-10.1-2.6-6,4.6-7.2,4.1-13.1C874.1,303,862.2,295.5,858.1,290.1ZM138,292.3c-6.1,0-11.1,6.2-15.3,12.4s-7.7,12.4-11,12.4a3.014,3.014,0,0,1-2-.9c-5-4.4,17.9-28.6,29.9-28.6h.1a45.165,45.165,0,0,0-11.7-1.3c-6.7,0-13.8,1-21.5,1.6,8-6.7,21.9-14.2,27.1-14.2h.2c13.1.6,4.8,11.8,11.4,16.1a4.854,4.854,0,0,0,2.8.6,29.046,29.046,0,0,0,5.6-.8,31.1,31.1,0,0,1,5.3-.8c2.7,0,4,1.3,1.7,6.4h-.3c-4.1,0-6.9,2.2-9.5,4.5-2.6,2.2-5,4.5-8.1,4.5a6.23,6.23,0,0,1-3.1-.8c-4.1-3.9,3.8-4.9,3.7-9.5A9.637,9.637,0,0,0,138,292.3ZM881.3,701.2c7.9-17.3,17.3-35.6,5.6-46.6-1.5,15.4-25.8,21.3-29.9,29.7-2.1,4.4,1.3,11.2-.4,19-2,9.5-18.3,27.3-5.2,36.6a11.429,11.429,0,0,0,3.7,1.8C773.8,855,640.6,929.2,490,929.2a450.617,450.617,0,0,1-179.4-37.3c0-.1.1-.2.1-.3-.4,0-.7-.1-1-.1a447.585,447.585,0,0,1-50.5-26.3v-.1c-1.5-5.3-10.4-9.4-11.3-13.5-1.1-4.8,7.9-14.5,6.2-18.3-4.8-2.4-9.2-5.4-9.8-11.9h.5a8.5,8.5,0,0,1,5.3,2,8.5,8.5,0,0,0,5.3,2h.5c5.8-.2-2.4-11.9,1.2-14.9a9.194,9.194,0,0,1,6.1-1.8,35.731,35.731,0,0,1,4.7.4,37.468,37.468,0,0,0,4.5.4c3.7,0,6.5-1.4,6.5-7.9,0-8.1-7.3-10-13.1-19h.5c2.6,0,5.4,1.5,8.5,3.1s6.5,3.2,10.1,3.2a12.413,12.413,0,0,0,2.7-.3c2.9-.6,13.8-13.9,18-23.6.9-2-1.3-5.7-.6-8.4,1.9-7.2,6.4-11.3,6.2-14.9-.1-1.8-4-8.8-3.6-10.1.7-2.2,16.1-13.2,23.8-14h.5a10.726,10.726,0,0,1,4,1.2,10.933,10.933,0,0,0,4.1,1.1,4.146,4.146,0,0,0,1.6-.3c9.8-4.5,17.1-35.5,15-53.1-1.4-11.1.1-9.3,4.2-14a17.1,17.1,0,0,0,1.1-1.4c6.2-8.3,17-25.9,16.5-35.1-.5-12.7-6.4-10.3-16.4-14.7-6-2.6-8.8-10.8-13.6-13.1-4.6-2.1-10.6-2.7-16.6-2.7-5.7,0-11.5.5-15.9.6.1-8-8.2-12.6-15.7-12.6a14.465,14.465,0,0,0-8.1,2.2c.4-6.7-4.1-8.7-10.8-8.7a26.232,26.232,0,0,0-2.7.1c3.8-4.8-.1-19.1-3.3-23.7-6.7-9.5-19.6-7.5-31.1-10.1-17.7-3.8-19.4-22.5-34.2-26.3.3,0,.6.1.9.1,3.1,0,3.9-2.2,3.5-5.5-6.7,1.7-10.9,3.3-17.4,3.3a58.745,58.745,0,0,1-7.7-.6c-12.6-1.8-21.6-10.8-27.5-10.8h-.6c-9.1,1-9.2,8.5-11.8,16-1-7.6,1.3-12.2,2.9-17.4-18.4,2.1-25.3,14.6-36.9,22.5.1,1.9.3,3.7.5,5.6-2.1-.1-4.2-.3-6.3-.4,20.5,27.4-33.7,45-11.8,61.4-14.4,10.2-1.5,18.5,5.7,27.7,3.7,4.6,6.1,11.5,9.8,17.5,4.2,6.8,9.3,11.7,12.7,16.5,3.8,5.2,5.8,12.7,8.4,15,4.8,4.2,13.2,5.9,18.1,9.1,12.5,8.1,18,17.4,21.1,28.5,2.3,8.3,3.4,17.6,5.2,28.1,4.5,25.9,5.8,52.1,10.9,75.7,2.6,12.3,11,18.6,17.6,28.7.2.4.8,1.4,1.3,2.4C107,749,41.8,624.6,41.8,485.3c0-.5.1-.9.1-1.4,3.6.2,7.1.4,9.9,1.9,8.6,4.4,8.4,19.1,17.8,21.9.8-1.2,1.7-2.3,2.5-3.5,1.1-1,2.2-1.9,3.4-2.9-3.2-11.2,11.6-25.1,4.6-31.2A8.9,8.9,0,0,0,74,468a34.928,34.928,0,0,0-8.1,1.3,42.4,42.4,0,0,1-8.7,1.2,15.686,15.686,0,0,1-6.6-1.4c3.3-11,11.2-18.1,14-29.9a38.047,38.047,0,0,0-9.4-1.4c-7.3,0-9,3.8-11.3,7.8a441.456,441.456,0,0,1,8.3-54.3,17.6,17.6,0,0,0,7.4,1.9,12.216,12.216,0,0,0,2.6-.3c4.7-1,6.7-8.9,15.2-9.8H78c5.8,0,16.6,6.3,22.4,6.7,1.7-1.6,3.4-3.2,5-4.8,2.3.1,4.6.2,7,.3,1.4-3.2,2.9-7.3,4.9-9.4,9.6-10.3,31.4-13.4,38-24.5,2.4-4-.2-11.8,2.5-16.2.6-1.1,1.2-1.5,1.7-1.5.6,0,1.1.7,1.6,1.3.5.7,1,1.4,1.7,1.4a1.445,1.445,0,0,0,.7-.2c.6-.3,2.2-6.4,8-9.8,6.5-4,8.3-6.9,13.8-10.3,7-4.3,15.1-4.5,17.9-6.6,3-2.2,2.1-7,5-9.8,6.8-6.4,28.9-13.8,37.8-13.8a7.117,7.117,0,0,1,2.3.3c-4.5,3.1-12.6,2.8-13.7,9.1,10.1-.4,26-7.6,34.3-14.6a28.883,28.883,0,0,1-8.8,1.6c-11.6,0-12.5-11.2-2.9-20.1a21.589,21.589,0,0,0-3.5-.3c-5.5,0-10.1,2-14.2,3.9-4.1,2-7.5,4-10.7,4a3.083,3.083,0,0,1-1-.1c7.5-11.7,31.1-13.3,48.8-15.9,20.6-2.9,52.2-24.6,30.5-24.6a61.8,61.8,0,0,0-10,1c7.6-9.6-1.9-20.9.1-36.1-11.6,2.2-13.4,13.3-20.3,13.3a8.918,8.918,0,0,1-2.2-.3c-9.7-2.9,3.1-6.3-1.4-15-2.4-4.5-10.1-7.4-17.9-7.4a24.422,24.422,0,0,0-9.8,1.8c-4.9,2.1-18.2,20.3-19.3,22.3-1.8,3.3,1.6,5.1.6,8.1-3.4,10-20.3,12.5-26.1,18.6-6.8,7.2-7.6,20.5-14.7,20.5a9.971,9.971,0,0,1-1.6-.2c-11.8-2.9,4.6-20.6,2.3-22.9-13.6-3.7-42.6-4.5-39-18.4,2.8-10.9,31.5-17.9,38.2-24.1,1.9-1.8-.7-4.2,2.1-5.5,7.1-3.5,18.1-1.8,23.3-6.7,2.1-4.2-6.2-4.3-2-6.5a10.187,10.187,0,0,0,4,.7c4.5,0,9.4-2.1,11.9-5.2-1-.8-1.9-1.6-2.9-2.4,1.2-1,2.3-2,3.5-3-.9-4.9,4-4.3,3.9-8.5a2.966,2.966,0,0,0-2.6-.9c-.6,0-1.4.1-2,.1a14.769,14.769,0,0,1-2.1.1c-1.7,0-3-.4-2.8-2.2-.1-4.2,3.2-5.1,2.7-9.7-9,0-11.8,6-19,7.7-1.4,4.9,4.6,2.7,3.1,7.6-8.1,8.3-17.9,9.8-27.9,10,8.7-8.3,17.5-16.5,26.9-24.1a18.645,18.645,0,0,0,12.9-9.5,458.246,458.246,0,0,1,51.8-34.1c1.2,0,2.3.1,3.5.1,8.2,0,16.5-1.2,20-8.5-1-1-2.7-1.2-4.4-1.4A447.335,447.335,0,0,1,656.5,73.3a2.2,2.2,0,0,1-.8-.1c-3.3,8,5.3,3.8,9.7,7.3,1.6,1.3.1,4.1,1.3,5.9,3,4,5.9,5.6,8.7,5.6,3.6,0,6.8-2.7,9.7-5.9A458.452,458.452,0,0,1,760.5,132a32.721,32.721,0,0,0-6.2-.7,21.322,21.322,0,0,0-7,1.1c5.7.8,11.5,1.7,17.2,2.6,6.2,4.8,12.3,9.6,18.2,14.7a12.194,12.194,0,0,1-5.6,1.4,15.532,15.532,0,0,1-4-.6c2.5,1.5,7.6,2.7,4.4,6h-.7c-13.7,0-20.6-13.8-23.7-19.6l-5.7-4.5c1.4-1.9,2.8-3.9,4.1-5.8-7.8-7.7-21.4-11.3-34-11.3a59.681,59.681,0,0,0-8.5.6c-24.4,3.5-33.9,18.9-46.8,32.5-3.1,3.3-9.8,7.1-15.7,10.4-3.1,1.8-16.1,7.2-17.3,10.5-2.8,7.9,1.6,18.3,6.9,20.5a9.1,9.1,0,0,0,3.5.7c3,0,5.7-1.4,8.3-2.8,2.5-1.4,4.9-2.8,6.9-2.8a3.194,3.194,0,0,1,1.4.3c3.2,1.3,3.6,18,9.9,20.6a11.9,11.9,0,0,0,4.5,1c8.5,0,9.9-12.5,12.7-17.2,4.5-7.4,10-2.5,10-10.3.1-6.1-8.9-5.3-8.5-11.8.5-10.2,6.9-5.1,12.8-10.3,2.4-2.2,10.8-14.3,14.9-14.3,1.2,0,2.1,1.1,2.2,4,.8,15.7-15.4,11.6-9.9,25,1.7,4.1,5.7,5.2,10.4,5.2a53.394,53.394,0,0,0,9.7-1.1,62.307,62.307,0,0,1,7.8-1.1h.7c23.2,1.7-4,9.3-14,9.3-1.6,0-2.7-.2-3.1-.6-1.6,6.6,7.5,6.6,2.9,11.8h-.7a10.425,10.425,0,0,1-4.2-.9,13.055,13.055,0,0,0-4.3-.9,10.377,10.377,0,0,0-2.3.3c.5,17.9-5.4,16.5-20.1,17.7-4.5.3-9.3,4.1-12.9,4.4h-.1c-1.7,0-5.2-2.9-8.5-3h-.6a35.092,35.092,0,0,0-5.7.5c-1.4.2-2.2.5-3,.5-1.4,0-1.9-1-3.6-5.3a.349.349,0,0,0,.1.2c1.2,0,6.2-14.2-2.9-14.9h-1.3c-14.1,0-3.2,20.5-3.2,20.7-1.3,2.7-2.9,3.1-5,3.1h-2.7a14.141,14.141,0,0,0-6.7,1.5c-8,3.9-19,19.7-33.6,26.9-8.2,4.1-16.1,1.8-23.3,7.8,16.1,1.3,21.2,26.2,8.2,32.1a13.648,13.648,0,0,1-5.8,1.1,55.565,55.565,0,0,1-11.6-1.8c-3.9-.9-7.8-1.8-11.2-1.8-3.2,0-6,.8-7.9,3.2-1.1,1.3,1.5,6.8,1.3,10.2-.7,10.7-7.5,20.4-4.9,29.3,9.3,2.1,18.9,4.1,27.5,4.1,10.5,0,19.7-3,25.3-12.2,1-1.6-1.8-7-1.3-8.8,1.9-7.7,16-10.5,19.2-14.9,3.2-4.6-2.4-6.1,3-8.9a7.418,7.418,0,0,1,3.2-.5c1.3,0,2.9.2,4.5.3a36.712,36.712,0,0,0,4.6.3,16.413,16.413,0,0,0,2.3-.2c6.7-1.3,11.5-5.6,15.3-6.7l7.5,6.3.6,1.7.8-.5c4,3.3,8,6.6,11.8,10.1h0c-5.8,1.9-7.2,12,.2,14.3a34.2,34.2,0,0,0,10.1,2,12.441,12.441,0,0,0,5.7-1.2c4.7-2.3,6-7.8,4.2-12.4-4.1-10.6-14.9-18.4-24.2-25.7a5.069,5.069,0,0,1,4.5-3.5,3.006,3.006,0,0,1,2.9,2.1c3.3,7.8,21.7,12.4,26.2,16.2,7.1,5.9,4.1,16.3,8.8,22.1,4.5,5.5,12.8,2.6,14.6,7.4-11.1,1.4-2.3,12.1,3,12.1a3.194,3.194,0,0,0,1.4-.3,4.389,4.389,0,0,0,1.6-1.4c.3-.5.5-1,.8-1.5,2-5.9-4.4-17.1-5.4-19.2,5.2-4.2,10.9-5,17.7-5.5a149.515,149.515,0,0,0,15.9-1.7c-13.7-7.9,4.2-36.6,13.7-36.6h.5c8.5.8,4.7,10.5,7.4,11.8a12.572,12.572,0,0,0,5.7,1.4c4.2,0,7.6-2.5,10.2-5.6a6.151,6.151,0,0,1-1.3.1c-3.5,0-4.8-2.3-6-4.6,6.4-2.3,11.2-6.1,18.8-7,.6,9.2-5.8,11.2-4.1,16.1,3,8.7,24.5,7.7,25,18,.4,6.7-3.3,8.9-8.9,8.9-5.4,0-12.5-2.1-19.4-4.1s-13.7-4.1-18.4-4.1a5.7,5.7,0,0,0-1.3.1c-2.2.2-6,5.5-10.2,5.7-9.3.6-14,5.8-24.8,7.2,7.5,5.8,3.5,17.5,11.9,22.1a9.258,9.258,0,0,0,4.8,1.2,20.877,20.877,0,0,0,6.5-1.3,18,18,0,0,1,5.6-1.3h.7c5.9.8,7.6,4.5,11.5,4.5h.2c5.4-.2,10.3-4.6,13.3-4.6a2.01,2.01,0,0,1,1.3.4c3.4,2.1,2,13.2,1.6,16.2-2,18.4-6.2,20.6-16,20.6-2.5,0-5.4-.1-8.8-.2h-.7c-2.8,0-5.7.2-9,.4-3.2.2-6.6.4-10,.4a51.818,51.818,0,0,1-17-2.4c-2.3-.8-12.8-10.2-21.6-10.2a9.836,9.836,0,0,0-4.7,1.1c-.1.1-.2.1-.3.2-2.6,1.5-3.1,3.6-3.2,5.8-.1,4.1,1.4,8.6-5.6,10.3h-.7a142.758,142.758,0,0,1-15.5-4.4c-2.3-1.3-2.6-7.5-7.3-10.3-12.7-7.6-21.6-1.8-24.9-13.2-2-6.9,3.5-12.8,0-16.2a14.1,14.1,0,0,0-3.2-.2c-9.1,0-34.1,1.5-39.2,1.9-14.4,1.3-26.1,13.2-33.9,13.6h-.4c-3.1,0-5.9-1.4-8.3-2.9-2.4-1.4-4.6-2.9-6.6-2.9a1.7,1.7,0,0,0-.7.1c.1,0-21.5,17-22.2,17.9-3.9,5-1.8,13.7-4.6,19.1-3.3,6.2-11.2,7.4-16.4,11.9-7.3,6.2-25.9,33-28.4,39.7-4.3,11.1,4.8,20.4,4.2,29-.5,6.1-7.8,10.6-9,19-.4,2.1,4.6,5.7,4.4,10.1-.2,5.7-6.6-.5-3,7.3,1.7,3.6,8.2,5.2,10.4,7.3,7.4,7.1,7.3,15.8,13.3,24.8,7.1,10.5,23.7,20.5,34.1,20.6h0c3.1,0,6-1.1,8.9-2.3.4-.2.9-.4,1.3-.6,3.4-1.5,6.7-2.9,10.2-2.9h.2c3.8,0,7.3,3,11.1,3a1.952,1.952,0,0,0,.7-.1c10.7-1,24-10.8,34-10.8,5.9,0,10.7,3.4,13.2,13.9a46.413,46.413,0,0,1,8.6-1c8.9,0,14.7,3.9,16.5,12.8,1.9,9.1-5.9,18.6-4.3,28,1.6,9.9,12.8,14.3,16.3,20.6,2.3,4.3,1.7,10,4.4,16.2,2,4.5,9.4,23.8,8.9,29.5-.9,8.3-12.6,21.9-13.1,30.9C660,703.6,677,716.5,680.5,739c1.1,6.7-.5,13.8,1.5,19.2,2.3,6.7,16.1,19.1,18.8,29.5,1.5,6-2.8,11.4,1.4,14.7a7.457,7.457,0,0,0,4.9,1.8c2.6,0,5.3-1.3,8.4-2.5a29.035,29.035,0,0,1,10.7-2.4h.4c3.3.1,6.2.2,8.7.2,9.1,0,14.2-1.3,23-9.3,6.8-6.2,23.6-25.5,26.4-32.8,1.6-3.9-2.2-8.5-1.3-11.7,2.6-8.4,13.3-5,17.5-12,6.7-10.7-5-16.6-4-23.4.4-2.7,11.8-16,17.8-20.8,4.3-3.4,11.1-4.1,14.7-7.6,19.9-18.9-5.3-51-3.5-68.8,1.3-12.1,21.3-35,28.4-42.7,7-7.6,18.8-11.4,25.2-19.2,9.2-11,23.1-41.2,20.9-56.8-11.1,1.9-22.9,10.6-33.3,10.6a14.723,14.723,0,0,1-3.6-.4c-7.5-1.6-8.2-10.8-11.9-17.5-5-9.4-19-15-23.7-22-1.5-2.3.1-5.4-1.5-8.8-3.2-6.5-11-11.9-13.4-17.6-1.2-3,.9-7.5,0-10.3-1.2-3.5-6.6-6.3-8.9-10.3-8.2-14.5-13.8-30.1-20.9-41.2,5.8,1.6,4.9,9.8,11.8,10.4-.2-3.6-.3-7.1,2.9-7.3,2.2,19.1,19.6,28,26.8,42.7,2.3,4.7,1.7,11.3,4.5,16.2,5.4,9.3,16.3,14.9,20.8,26.4,4.2,10.9-.6,19.8,6,23.4a7.483,7.483,0,0,0,3.3.6c9.9,0,33-10.2,41-15.1,5.3-3.2,7.3-9.1,11.8-11.6,3.3-1.8,8.2-.8,11.8-2.8,2.5-1.4,7.5-6.8,12.3-12.9,1.1,12.7,2,25.4,2,38.3A437.958,437.958,0,0,1,881.3,701.2Z" fill="#fff"/></svg>