<svg id="Layer_1" data-name="Layer 1" xmlns="http://www.w3.org/2000/svg" viewBox="0 0 201.751 201.751"><title>GameFAQs</title><circle cx="100.876" cy="100.876" r="100.876" fill="#3951c6"/><path d="M40.015,75.792h7.5L46.064,83H28.98l4.535-22.459h-12L15.6,89.818a4.5,4.5,0,0,0,4.411,5.391H49.462a7.5,7.5,0,0,0,7.351-6.016l4.911-24.317H35.015Z" fill="#f8f8f8"/><path d="M58.265,46.376H30.442a8.01,8.01,0,0,0-8.01,8.01v2.656H62.849Z" fill="#f8f8f8"/><path d="M96.424,53.813H74.453L64.765,63.876h23.8L84.649,83.688H70.075l.786-4H83.015L78.7,68.737H68.85A8,8,0,0,0,61,75.194L58.122,89.841a4.5,4.5,0,0,0,4.416,5.368H86.959a7.5,7.5,0,0,0,7.359-6.054l6.03-30.568A4,4,0,0,0,96.424,53.813Z" fill="#f8f8f8"/><polygon points="95.01 95.209 105.754 95.209 110.969 68.666 100.226 68.666 95.01 95.209" fill="#f8f8f8"/><path d="M143.4,53.813H102.99L101.2,63.876h34.336l-6.154,31.333h10.744l7.193-36.625A4,4,0,0,0,143.4,53.813Z" fill="#f8f8f8"/><polygon points="111.973 95.209 122.717 95.209 127.932 68.666 117.189 68.666 111.973 95.209" fill="#f8f8f8"/><path d="M183.031,73.7l1.085-5.511H160.2l5.5,11.563h9.969A7.5,7.5,0,0,0,183.031,73.7Z" fill="#f8f8f8"/><path d="M158.39,83.376h-2.827l3.839-19.5h25.563l1.21-6.145a3.284,3.284,0,0,0-3.222-3.918H157.219a8,8,0,0,0-7.85,6.454l-5.822,29.572a4.5,4.5,0,0,0,4.415,5.37h24.666a7.5,7.5,0,0,0,7.359-6.051l1.138-5.782H158.39Z" fill="#f8f8f8"/><polygon points="75.219 110.042 70.073 99.376 48.657 99.376 40.198 99.376 36.657 99.376 26.844 148.209 38.844 148.209 46.513 110.042 75.219 110.042" fill="#f8f8f8"/><polygon points="47.196 117.792 44.952 128.959 57.615 128.959 67.407 117.792 47.196 117.792" fill="#f8f8f8"/><path d="M93.46,99.376h-2.3a11,11,0,0,0-8.382,3.876L44.573,148.209H58.99l7.861-9.25H81.443l-1.859,9.25h12l4.052-20.167H76.128l9.833-11.57-1.525,7.591h12l3.4-16.907A6.5,6.5,0,0,0,93.46,99.376Z" fill="#f8f8f8"/><path d="M137.929,99.376h-28.4a7.39,7.39,0,0,0-7.245,5.933l-.951,4.733H140.67l1.181-5.878A4,4,0,0,0,137.929,99.376Z" fill="#f8f8f8"/><path d="M133.889,143.787l6.195-30.828h-12L123.454,136H108.12l4.63-23.042h-12l-6,29.863a4.5,4.5,0,0,0,4.411,5.387h20.671l3.289,7.167h13.473l-4.093-8.92A5.475,5.475,0,0,0,133.889,143.787Z" fill="#f8f8f8"/><path d="M160.282,121.742H144.157l14.106,15.2H136.344L141.407,148h23.762a8.5,8.5,0,0,0,6.229-14.283Z" fill="#f8f8f8"/><path d="M170.407,106.709H148.49a7.5,7.5,0,0,0-7.5,7.5v2.667h33.917Z" fill="#f8f8f8"/></svg>