<svg xmlns="http://www.w3.org/2000/svg" viewBox="0 0 89.443 100"><title>Giantbomb_new</title><path d="M83.184,2.836a13.763,13.763,0,0,1-2.012,7.411A13.451,13.451,0,0,1,72,16.389a4.623,4.623,0,0,1,.373.507c.448.682.112,1.89-.895,1.719-1.685-.284-2.793-2.159-3.251-3.677a6.814,6.814,0,0,1-.269-1.492,15.207,15.207,0,0,0-3.218,8.111c-.018.212-.051.589-.062.813L75.623,32.945a26.417,26.417,0,0,0,4.665-2.566q.732-.527,1.425-1.111S89.184,18.5,87.91,13.71A57.505,57.505,0,0,0,83.184,2.836Z" fill="#f7961d"/><path d="M71.622,27.519c.817.8,1.607,1.626,2.36,2.491A14.52,14.52,0,0,0,80.4,24.79a8.516,8.516,0,0,0,.589-8.39.521.521,0,0,0-.7-.242.555.555,0,0,0-.108.07,20.781,20.781,0,0,1-5.713,4.318,6.226,6.226,0,0,1-3.956.8A6.867,6.867,0,0,1,67.345,19.3c-.242-.22-.746-.171-.746.235a15.336,15.336,0,0,0,.418,4.15A37.64,37.64,0,0,1,71.622,27.519Z" fill="#fff"/><path d="M70.9,28.174a21.927,21.927,0,0,0-27.1-2.216A35.831,35.831,0,1,0,74.1,56.5,21.927,21.927,0,0,0,70.9,28.174Z" fill="#888"/><polygon points="57.565 72.088 36.482 75.036 22.444 72.596 20.075 66.567 38.581 68.37 57.869 63.087 57.565 72.088" fill="#fff"/><path d="M82.839,0a14.057,14.057,0,0,1,.328,3.658c.764,1.63,1.629,3.222,2.293,4.9a16.468,16.468,0,0,1,1.32,8.163A22.486,22.486,0,0,1,84.412,24.1c-.578,1.156-1.219,2.278-1.887,3.386-.451.745-1,1.491-1.439,2.3,4.922-3.871,8.357-9.722,8.357-16.094A17.7,17.7,0,0,0,82.839,0Z" fill="#ec2024"/><path d="M21.688,78.55a34.963,34.963,0,0,1-3.259-45.68,34.955,34.955,0,1,0,48.14,49.517A34.959,34.959,0,0,1,21.688,78.55Z" fill="#666"/><path d="M68.188,55.747a1.815,1.815,0,0,1-1.76-1.361,28.747,28.747,0,0,0-7.492-13.051,1.821,1.821,0,0,1,2.573-2.577,32.4,32.4,0,0,1,8.442,14.7,1.818,1.818,0,0,1-1.282,2.231l-.023.006A1.726,1.726,0,0,1,68.188,55.747Z" fill="#fff"/><ellipse cx="25.18" cy="45.791" rx="11.642" ry="5.821" transform="matrix(0.258, -0.966, 0.966, 0.258, -25.564, 58.28)"/><ellipse cx="46.986" cy="49.234" rx="12.924" ry="6.462" transform="translate(-7.77 89.65) rotate(-82.77)"/><ellipse cx="47.738" cy="45.614" rx="6.765" ry="4.338" transform="translate(-3.704 87.007) rotate(-82.519)" fill="#fff"/><ellipse cx="26.193" cy="41.513" rx="5.616" ry="3.602" transform="translate(-20.404 56.942) rotate(-76.07)" fill="#fff"/><path d="M69.731,24c.679.835,1.716,1.39,2.465,2.185a30.2,30.2,0,0,1,1.98,2.681c.552.746,1.54-.06,1.264-.817a8.875,8.875,0,0,0-2.267-3.091,6.187,6.187,0,0,0-2.964-1.865.564.564,0,0,0-.594.531A.572.572,0,0,0,69.731,24Z"/><path d="M71.372,22.556a26.624,26.624,0,0,1,2.868,2.271c.783.817,1.29,1.909,2.118,2.651.443.4,1.118-.138,1.025-.652a6.748,6.748,0,0,0-2.215-3.192,8.2,8.2,0,0,0-3.263-2.092.582.582,0,0,0-.533,1.014Z"/><path d="M73.55,20.983l-.019-.045-.373.317c.69.485,1.492.8,2.144,1.357A20.43,20.43,0,0,1,77.6,25.2a.351.351,0,0,0,.578-.373,7.214,7.214,0,0,0-2.193-2.681c-.582-.484-1.835-1.6-2.662-1.461a.338.338,0,0,0-.269.372.423.423,0,0,0,.09.187c.167.246.5,0,.41-.265Z"/><path d="M74.747,20.33c.664.455,1.35.873,1.98,1.38a9.5,9.5,0,0,1,1.7,1.864.125.125,0,0,0,.209-.134,9.231,9.231,0,0,0-3.759-3.3.115.115,0,0,0-.13.19Z"/><path d="M36.939,82.7c2.391-3.233,5.967-4.5,9.867-4.493.164,0,.164-.9-.022-.948-4.05-1-8.226,1.779-9.86,5.363V82.7Z"/><path d="M30.1,85.8l.078.019h0Z"/><path d="M59.939,61.628a1.3,1.3,0,0,0-.7-1.145,1.118,1.118,0,0,0-.925-.153,1,1,0,0,0-.683.451,19.152,19.152,0,0,1-4.239,2.611,36.628,36.628,0,0,1-5.109,1.644,58.4,58.4,0,0,1-11.03,1.782,56.8,56.8,0,0,1-11.235-.4,25.955,25.955,0,0,1-4.826-1.059,22.45,22.45,0,0,1-2.207-.868,11.024,11.024,0,0,0-2.267-1.026.626.626,0,0,0-.675.574.617.617,0,0,0,.056.314,4.714,4.714,0,0,0,1.819,1.67.643.643,0,0,0,.25.157c.19.242.4.693.515.88.257.4.511.8.746,1.215a21.841,21.841,0,0,1,1.118,2.152,31.642,31.642,0,0,1,1.831,4.892c.44,1.581.78,3.189,1.078,4.8s.265,3.546.932,5.019a.543.543,0,0,0,.131.332c1,1.2,3.028,1.719,4.474,2.133a26.962,26.962,0,0,0,5.292.985A28.537,28.537,0,0,0,45.1,87.406a22.7,22.7,0,0,0,9.042-5.1,18.046,18.046,0,0,0,4.889-8.875A45.427,45.427,0,0,0,59.939,61.628ZM57.1,69.46a73.531,73.531,0,0,1-7.737,2.676,50.817,50.817,0,0,1-18.007,1.238c-1.465-.164-2.931-.373-4.381-.638q-1.174-.213-2.338-.488c-.451-.105-.9-.246-1.469-.373l.008.024a27.414,27.414,0,0,0-1.869-3.861c-.112-.194-.257-.459-.422-.746a28.814,28.814,0,0,0,4.542,1.078,55.849,55.849,0,0,0,11.966.551,56.873,56.873,0,0,0,12.127-1.983,25.918,25.918,0,0,0,7.909-3.252A57.054,57.054,0,0,1,57.1,69.46Z"/><path d="M37.458,86.347a25.806,25.806,0,0,0,11.824-3.52,16.59,16.59,0,0,0,1.865-1.317,1.007,1.007,0,0,0-.2-.257,10.579,10.579,0,0,0-9.322-2.133,10.524,10.524,0,0,0-4.665,3.58s-.019-.064,0-.078A9.752,9.752,0,0,1,38.651,80.1a6.9,6.9,0,0,0-5.877.772c-1.566.988-3.128,2.9-3.091,4.848.522.111,1.048.212,1.574.294A29.589,29.589,0,0,0,37.458,86.347Z" fill="#ec2024"/><path d="M76.38,53.506c.619-.619,1.242-1.238,1.865-1.864a8.422,8.422,0,0,0,1.722-2.525c1.514-3.412.724-7.376-.652-10.694a33.174,33.174,0,0,0-7.689-10.907,31.9,31.9,0,0,0-10.657-7.085c-3.39-1.287-7.458-1.865-10.77-.041a13.9,13.9,0,0,0-2.983,2.539l-.552.552a.689.689,0,0,1-.126.127c-.109.052-.433-.067-.563-.093q-1.836-.352-3.7-.53A39.084,39.084,0,0,0,28.993,24.01a38.279,38.279,0,0,0-11.627,5.158,39.153,39.153,0,0,0-9.587,9A38.323,38.323,0,0,0,2.04,48.979a39,39,0,0,0-.171,24.376A38.4,38.4,0,0,0,7.462,84.266a39.077,39.077,0,0,0,9.8,9.322,38.262,38.262,0,0,0,13.6,5.646,39.147,39.147,0,0,0,14.916.1,38.314,38.314,0,0,0,13.678-5.459A39.211,39.211,0,0,0,69.6,84.363a38.319,38.319,0,0,0,7.592-23.772A39.62,39.62,0,0,0,76.38,53.506ZM50.953,24.368c2.036-2.036,5.339-1.607,7.83-.8a25.563,25.563,0,0,1,8.152,4.665,33.566,33.566,0,0,1,6.954,7.7,19.441,19.441,0,0,1,3.14,7.667,6.368,6.368,0,0,1-1.369,5.47c-.119.123-.238.242-.372.373a38.346,38.346,0,0,0-6.713-12.3A39,39,0,0,0,57.8,27.93a38.1,38.1,0,0,0-7.216-3.207ZM25.443,93.819A34.969,34.969,0,1,1,72.435,52.663,35.385,35.385,0,0,1,73.46,64.107,34.666,34.666,0,0,1,70.585,75.57a35.62,35.62,0,0,1-6.339,9.617,34.965,34.965,0,0,1-38.78,8.632Z"/></svg>