<svg id="Layer_1" data-name="Layer 1" xmlns="http://www.w3.org/2000/svg" xmlns:xlink="http://www.w3.org/1999/xlink" viewBox="0 0 326.021 363.098"><defs><linearGradient id="linear-gradient" x1="18.573" y1="169.216" x2="84.329" y2="169.216" gradientUnits="userSpaceOnUse"><stop offset="0" stop-color="#f6f6f6"/><stop offset="1" stop-color="#393939"/></linearGradient></defs><title>Giantbomb</title><circle cx="163.01" cy="163.01" r="163.01"/><path d="M132.74,283.309c-57.905-14.439-101-69.378-101-134.955,0-45.3,20.565-85.521,52.368-110.826A145.3,145.3,0,0,0,132.74,300.9Z" fill="url(#linear-gradient)"/><ellipse cx="115.621" cy="122.96" rx="92.657" ry="62.293" transform="translate(-38.401 191.986) rotate(-70.902)" fill="#fff"/><path d="M93.881,198.065C64.529,187.9,53.413,143.047,69.053,97.878a125.844,125.844,0,0,1,17.871-34.1,116.649,116.649,0,0,0-23.99,40.943c-15.306,44.207-3.874,88.3,25.535,98.481,19.3,6.682,41.54-2.9,58.879-22.763C130.85,196.682,111.137,204.04,93.881,198.065Z" fill="#d9d9da"/><ellipse cx="152.197" cy="128.591" rx="19.185" ry="9.149" transform="translate(-6.463 249.118) rotate(-77.417)" fill="#df0424"/><ellipse cx="152.197" cy="128.591" rx="14.832" ry="7.073" transform="translate(-6.463 249.118) rotate(-77.417)"/><path d="M159.7,121.54c-.417-4-1.934-6.9-4.27-7.424-2.5-.559-5.315,1.757-7.459,5.67.222,5.312,2.8,9.506,5.947,9.506C156.71,129.292,159.049,125.991,159.7,121.54Z" fill="#fff"/><circle cx="148.948" cy="113.604" r="5.25" fill="#fff"/><path d="M221.823,85.1a59.226,59.226,0,0,0-36.067,12.188,136.829,136.829,0,0,1-7.771,47.261,143.64,143.64,0,0,1-10.721,23.8A59.5,59.5,0,1,0,221.823,85.1Z" fill="#fff"/><path d="M227.26,92.6c24.2,5.169,42.313,26.037,42.313,51.009,0,27.8-22.449,50.528-50.764,52.149,1.08.061,2.167.1,3.264.1,29.961,0,54.25-23.169,54.25-51.75C276.323,117.193,254.787,95.087,227.26,92.6Z" fill="#d9d9da"/><ellipse cx="199.74" cy="137.979" rx="9.083" ry="12.625" fill="#df0424"/><ellipse cx="199.74" cy="137.979" rx="6.745" ry="9.375"/><path d="M193.941,133.207c-.021.24-.035.483-.035.73,0,3.36,2,6.084,4.459,6.084s4.458-2.724,4.458-6.084a6.728,6.728,0,0,0-2.208-5.245,4.907,4.907,0,0,0-.875-.088C197.27,128.6,195.117,130.455,193.941,133.207Z" fill="#fff"/><circle cx="195.094" cy="129.458" r="4.396" fill="#fff"/><ellipse cx="225.323" cy="50.667" rx="25.75" ry="20.813" fill="#fff"/><ellipse cx="255.198" cy="69.042" rx="14.5" ry="11.72" fill="#fff"/><path d="M188.323,317.6c1.917,12.25,12.417,29.084,9,32.417,0,0-13.917,15.167-43.5,12.833s-50.25-1.833-64.417-57.166S76.24,180.521,76.24,180.521c0-7.667,1.5-26.5,11.666,7s59.5,52,59.5,52,48,23.667,42.167,35.167S188.323,317.6,188.323,317.6Z"/><path d="M182.148,318.213c1.669,10.674,10.808,25.342,7.834,28.246,0,0-12.113,13.216-37.864,11.183s-44.964-5.073-57.295-53.288S82.535,193.292,82.535,193.292l4.6,5c.938,1.979-15.729,56.166,48.771,77.281,28.088,8.268,47.33,5.245,47.33,5.245C177.448,294.979,182.148,318.213,182.148,318.213Z" fill="#df0424"/><path d="M88.573,200.521s-3.167,19.167,4,34.167,17,43.5,102.667,43c42.666-17.167,66.5-55.167,66.5-55.167S157.073,280.354,88.573,200.521Z" fill="#fff"/><path d="M94.135,211.417s-3.437,17.937,7,27.5c0,0-5.75-16.688,5.625-15.063A47.661,47.661,0,0,1,94.135,211.417Z" fill="#d9d9da"/><ellipse cx="145.381" cy="334.082" rx="14.7" ry="36.166" transform="translate(-197.178 458.179) rotate(-86.397)" fill="#ea6360"/></svg>