<svg id="svg2" xmlns="http://www.w3.org/2000/svg" viewBox="0 0 135.709 128.999"><title>GOG</title><path d="M128.414,0H7.294A7.293,7.293,0,0,0,0,7.294V121.7A7.293,7.293,0,0,0,7.294,129h121.12a7.293,7.293,0,0,0,7.3-7.3V7.294A7.293,7.293,0,0,0,128.414,0ZM39.829,83.247H23.693a2.281,2.281,0,0,0-2.284,2.291l.005.016h-.005V97.07h.005l-.005.006a2.292,2.292,0,0,0,2.284,2.3H39.829v7.683H19.69v-.02a5.952,5.952,0,0,1-5.957-5.949V81.51a5.95,5.95,0,0,1,5.957-5.936H39.829Zm-.217-15.339h-25.9V60.119H35.55a2.32,2.32,0,0,0,2.316-2.326V32.06a2.317,2.317,0,0,0-2.316-2.325H23.814A2.318,2.318,0,0,0,21.5,32.06V43.769A2.319,2.319,0,0,0,23.814,46.1H33.19v7.786H19.751a6.032,6.032,0,0,1-6.037-6.038V27.987a6.038,6.038,0,0,1,6.037-6.041H39.612a6.045,6.045,0,0,1,6.042,6.041V61.865h0A6.038,6.038,0,0,1,39.612,67.908Zm37.833,33.183a5.949,5.949,0,0,1-5.949,5.948H51.927a5.946,5.946,0,0,1-5.954-5.948V81.511a5.945,5.945,0,0,1,5.954-5.937H71.5a5.948,5.948,0,0,1,5.949,5.937Zm.342-47.206H57.918a6.033,6.033,0,0,1-6.034-6.038V27.988a6.038,6.038,0,0,1,6.034-6.041H77.787a6.043,6.043,0,0,1,6.035,6.041V47.847A6.038,6.038,0,0,1,77.787,53.885Zm44.185,53.155H114.3V83.249H108.9a2.278,2.278,0,0,0-2.283,2.291v21.5H98.946V83.249h-5.4a2.281,2.281,0,0,0-2.285,2.291v21.521H83.591V81.512a5.945,5.945,0,0,1,5.952-5.937h32.429Zm-6.015-39.132h-25.9V60.119h21.838a2.323,2.323,0,0,0,2.324-2.326V32.06a2.322,2.322,0,0,0-2.324-2.325H100.155a2.321,2.321,0,0,0-2.308,2.325V43.769a2.322,2.322,0,0,0,2.308,2.329h9.37v7.786H96.094a6.036,6.036,0,0,1-6.042-6.038V27.987a6.042,6.042,0,0,1,6.042-6.041h19.862a6.046,6.046,0,0,1,6.037,6.041V61.865h0A6.038,6.038,0,0,1,115.957,67.908Z" fill="#fff"/><path d="M67.494,83.248a2.279,2.279,0,0,1,2.277,2.291V97.07a2.291,2.291,0,0,1-2.277,2.3l-.027-.014v.014H55.956v-.014l-.025.014a2.292,2.292,0,0,1-2.282-2.3V85.539a2.281,2.281,0,0,1,2.282-2.291H67.494" fill="#fff"/><path d="M73.724,29.736a2.3,2.3,0,0,1,2.3,2.323v11.71a2.3,2.3,0,0,1-2.3,2.329H61.993a2.32,2.32,0,0,1-2.318-2.329V32.059a2.317,2.317,0,0,1,2.318-2.323H73.724" fill="#fff"/></svg>