<svg xmlns="http://www.w3.org/2000/svg" viewBox="0 0 1000 1000"><defs><linearGradient gradientUnits="userSpaceOnUse" x1="500" y1="0" x2="500" y2="1000" id="gradient-0"><stop offset="0" style="stop-color: #e9e8dd;"/><stop offset="0.126" style="stop-color: #e0ded0;"/><stop offset="0.501" style="stop-color: #dcd9c7;"/><stop offset="0.875" style="stop-color: #d8d3b9;"/><stop offset="1" style="stop-color: #d3cfb8;"/></linearGradient><linearGradient gradientUnits="userSpaceOnUse" x1="500" y1="5" x2="500" y2="994" id="gradient-1" gradientTransform="matrix(0.999589, 0, 0, 0.999589, -0.794329, 0.284857)"><stop offset="0" style="stop-color: #efedde;"/><stop offset="0.42" style="stop-color: #edebd9;"/><stop offset="0.501" style="stop-color: #ece9d5;"/><stop offset="1" style="stop-color: #e6e1c3;"/></linearGradient><filter id="inner-shadow-filter-0" color-interpolation-filters="sRGB" x="-50%" y="-50%" width="200%" height="200%"><feOffset dx="0" dy="5"/><feGaussianBlur stdDeviation="3"/><feComposite operator="out" in="SourceGraphic"/><feComponentTransfer result="choke"><feFuncA type="linear" slope="1"/></feComponentTransfer><feFlood flood-color="#926538" result="color"/><feComposite operator="in" in="color" in2="choke" result="shadow"/><feComposite operator="over" in="shadow" in2="SourceGraphic"/></filter><radialGradient gradientUnits="userSpaceOnUse" cx="500.192" cy="499.991" r="233.561" id="gradient-2" gradientTransform="matrix(1.150362, 0, 0, 1.688781, -75.209346, -344.383851)"><stop offset="0" style="stop-color: #814910;"/><stop offset="0.65" style="stop-color: #814910;"/><stop offset="1" style="stop-color: #5c330a;"/></radialGradient><linearGradient gradientUnits="userSpaceOnUse" x1="500" y1="120" x2="500" y2="416.5" id="gradient-4"><stop offset="0" style="stop-color: #fff; stop-opacity: 0;"/><stop offset="1" style="stop-color: #fff; stop-opacity: 0.17;"/></linearGradient><clipPath id="clip-0"><path d="M 672.248 143.286 L 736.502 143.286 L 736.502 631.604 L 501.026 658.473 C 357.902 658.473 263.881 569.256 263.881 393.377 C 263.881 230.364 360.702 128.281 502.33 128.281 C 594.134 128.281 649.66 188.912 669.031 231.456 C 670.245 234.123 672.248 233.994 672.248 231.73 L 672.248 143.286 Z M 502.191 181.091 C 395.361 181.091 328.086 269.056 328.086 396.099 C 328.086 521.981 395.619 605.659 502.69 605.659 C 597.795 605.659 672.271 523.3 672.271 397.081 C 672.271 284.994 616.45 181.091 502.191 181.091 Z" style="stroke-linecap: square; paint-order: fill; stroke-width: 5.5px; filter: none;"/></clipPath><filter id="drop-shadow-filter-0" color-interpolation-filters="sRGB" x="-50%" y="-50%" width="200%" height="200%"><feGaussianBlur in="SourceAlpha" stdDeviation="2"/><feOffset dx="0" dy="2"/><feComponentTransfer result="offsetblur"><feFuncA id="spread-ctrl" type="linear" slope="1"/></feComponentTransfer><feFlood flood-color="#b5b29c"/><feComposite in2="offsetblur" operator="in"/><feMerge><feMergeNode/><feMergeNode in="SourceGraphic"/></feMerge></filter><radialGradient gradientUnits="userSpaceOnUse" cx="500.072" cy="-1635.036" r="487.5" id="gradient-6" gradientTransform="matrix(0, 4.213282, -4.212178, 0, -6386.991319, -3741.980913)"><stop offset="0" style="stop-color: #fff; stop-opacity: 0;"/><stop offset="0.887" style="stop-color: #fff; stop-opacity: 0;"/><stop offset="1" style="stop-opacity: 0.65; stop-color: #fff;"/></radialGradient><clipPath id="clip-1"><rect style="" x="0" y="0" width="1000" height="1000" rx="125" ry="125"/></clipPath></defs><g style="clip-path: url(&quot;#clip-1&quot;);"><rect width="1000" height="1000" style="fill: url(&quot;#gradient-0&quot;);"/><path d="M 125 5 L 875 5 C 908.496 4.782 937.862 18.157 959.853 40.147 C 981.49 61.785 994.786 90.562 995 123.388 L 995 876.612 C 994.786 909.438 981.49 938.215 959.853 959.853 C 938.215 981.49 909.4 993.8 876.6 994 L 123.4 994 C 90.6 993.8 61.785 981.49 40.147 959.853 C 18.157 937.862 4.782 908.496 5 875 L 5 125 C 4.782 91.504 18.157 62.138 40.147 40.147 C 62.138 18.157 91.504 4.782 125 5 Z" style="fill: url(&quot;#gradient-1&quot;); filter: url(&quot;#drop-shadow-filter-0&quot;);"/><path d="M 12.5 120 L 987.5 120 L 987.5 360 C 987.5 360 775.731 420 500 420 C 224.269 420 12.5 360 12.5 360 L 12.5 120 Z" style="fill: url(&quot;#gradient-6&quot;);"/><path d="M 672.248 143.286 L 736.502 143.286 L 736.502 631.604 C 736.502 855.118 581.812 871.7 503 871.7 C 339.967 871.7 283.164 775.672 283.164 714 L 347.607 714 C 348.491 731.182 369.283 818.4 503 818.4 C 547.819 818.4 672.248 815.164 672.248 624.922 L 672.248 552.473 C 672.248 550.884 670.376 550.481 669.405 552.518 C 637.76 618.867 580.961 658.473 501.026 658.473 C 357.902 658.473 263.881 569.256 263.881 393.377 C 263.881 230.364 360.702 128.281 502.33 128.281 C 594.134 128.281 649.66 188.912 669.031 231.456 C 670.245 234.123 672.248 233.994 672.248 231.73 L 672.248 143.286 Z M 502.191 181.091 C 395.361 181.091 328.086 269.056 328.086 396.099 C 328.086 521.981 395.619 605.659 502.69 605.659 C 597.795 605.659 672.271 523.3 672.271 397.081 C 672.271 284.994 616.45 181.091 502.191 181.091 Z" style="stroke-linecap: square; paint-order: fill; stroke-width: 5.5px; filter: none; fill: #fff;"/><path d="M 672.248 143.286 L 736.502 143.286 L 736.502 631.604 C 736.502 855.118 581.812 871.7 503 871.7 C 339.967 871.7 283.164 775.672 283.164 714 L 347.607 714 C 348.491 731.182 369.283 818.4 503 818.4 C 547.819 818.4 672.248 815.164 672.248 624.922 L 672.248 552.473 C 672.248 550.884 670.376 550.481 669.405 552.518 C 637.76 618.867 580.961 658.473 501.026 658.473 C 357.902 658.473 263.881 569.256 263.881 393.377 C 263.881 230.364 360.702 128.281 502.33 128.281 C 594.134 128.281 649.66 188.912 669.031 231.456 C 670.245 234.123 672.248 233.994 672.248 231.73 L 672.248 143.286 Z M 502.191 181.091 C 395.361 181.091 328.086 269.056 328.086 396.099 C 328.086 521.981 395.619 605.659 502.69 605.659 C 597.795 605.659 672.271 523.3 672.271 397.081 C 672.271 284.994 616.45 181.091 502.191 181.091 Z" style="stroke-linecap: square; paint-order: fill; stroke-width: 5.5px; fill: #683b0c; filter: url(&quot;#inner-shadow-filter-0&quot;);"/><path d="M 674.998 231.73 C 674.944 232.678 674.625 233.957 674.152 234.618 C 673.573 235.427 671.996 236.218 671.018 236.191 C 669.545 236.15 667.535 234.439 666.528 232.595 C 656.981 211.561 638.654 186.357 611.211 166.128 C 583.701 145.85 547.709 131.031 502.33 131.031 C 432.057 131.031 373.551 156.076 332.026 201.553 C 290.469 247.065 266.631 312.342 266.631 393.377 C 266.631 480.857 289.77 546.114 330.791 590.002 C 371.771 633.846 429.948 655.723 501.026 655.723 C 580.175 655.723 635.732 617.148 666.923 551.335 C 667.353 550.534 668.067 549.616 668.656 549.194 C 669.351 548.695 670.636 548.336 671.399 548.394 C 672.225 548.456 673.52 549.121 674.055 549.765 C 674.544 550.354 674.916 551.608 674.998 552.473 L 674.998 624.922 C 674.779 720.787 643.126 770.393 605.962 795.287 C 568.634 820.289 525.436 821.15 503 821.15 C 435.466 821.15 395.777 798.769 373.467 774.505 C 350.966 750.033 346.425 727.483 345.1 716.75 L 285.944 716.75 C 286.681 746.658 299.694 782.666 333.803 813.95 C 368.055 845.365 422.034 868.95 503 868.95 C 542.309 868.95 599.828 864.888 647.789 833.176 C 695.851 801.396 733.971 742.616 733.752 631.604 L 733.752 146.036 L 674.998 146.036 Z M 675.021 397.081 C 675.021 460.653 656.066 513.736 625.252 550.47 C 594.384 587.267 550.843 608.409 502.69 608.409 C 448.56 608.409 403.751 586.936 373.116 549.836 C 342.525 512.789 325.336 459.462 325.336 396.099 C 325.336 332.167 342.444 277.5 372.926 239.24 C 403.456 200.92 448.156 178.341 502.191 178.341 C 560.037 178.341 603.772 205.035 632.324 245.467 C 660.843 285.851 675.021 340.693 675.021 397.081 Z" style="stroke-linecap: square; paint-order: fill; stroke-width: 5.5px; fill: url(&quot;#gradient-2&quot;);"/><path d="M 12.5 120 L 987.5 120 L 987.5 356.5 C 987.5 356.5 775.731 416.5 500 416.5 C 224.269 416.5 12.5 356.5 12.5 356.5 L 12.5 120 Z" style="fill: url(&quot;#gradient-4&quot;); fill-rule: nonzero; paint-order: fill; clip-path: url(&quot;#clip-0&quot;);"/></g></svg>