<svg id="svg2" xmlns="http://www.w3.org/2000/svg" xmlns:xlink="http://www.w3.org/1999/xlink" viewBox="0 0 23.147 25.482"><defs><linearGradient id="linear-gradient" x1="20.845" y1="-149.251" x2="4.063" y2="-132.469" gradientTransform="matrix(1.002, 0, 0, -0.991, -9.039, -123.942)" gradientUnits="userSpaceOnUse"><stop offset="0" stop-color="#00a0ff"/><stop offset="0.007" stop-color="#00a1ff"/><stop offset="0.26" stop-color="#00beff"/><stop offset="0.512" stop-color="#00d2ff"/><stop offset="0.76" stop-color="#00dfff"/><stop offset="1" stop-color="#00e3ff"/></linearGradient><linearGradient id="linear-gradient-2" x1="32.881" y1="-137.96" x2="8.684" y2="-137.96" gradientTransform="matrix(1.002, 0, 0, -0.991, -9.039, -123.942)" gradientUnits="userSpaceOnUse"><stop offset="0" stop-color="#ffe000"/><stop offset="0.409" stop-color="#ffbd00"/><stop offset="0.775" stop-color="orange"/><stop offset="1" stop-color="#ff9c00"/></linearGradient><linearGradient id="linear-gradient-3" x1="15.529" y1="-144.008" x2="-7.23" y2="-121.25" gradientTransform="matrix(1.002, 0, 0, -0.991, -9.039, -123.942)" gradientUnits="userSpaceOnUse"><stop offset="0" stop-color="#ff3a44"/><stop offset="1" stop-color="#c31162"/></linearGradient><linearGradient id="linear-gradient-4" x1="-1.999" y1="-149.441" x2="8.164" y2="-139.279" gradientTransform="matrix(1.002, 0, 0, -0.991, -9.039, -123.942)" gradientUnits="userSpaceOnUse"><stop offset="0" stop-color="#32a071"/><stop offset="0.068" stop-color="#2da771"/><stop offset="0.476" stop-color="#15cf74"/><stop offset="0.801" stop-color="#06e775"/><stop offset="1" stop-color="#00f076"/></linearGradient></defs><title>GooglePlay</title><g id="g48"><path id="path64" d="M.465.393A1.957,1.957,0,0,0,0,1.787V23.7A1.956,1.956,0,0,0,.465,25.09l.073.067L12.96,12.884v-.29L.538.322Z" fill="url(#linear-gradient)"/></g><g id="g66"><path id="path78" d="M17.1,16.977,12.96,12.884v-.29L17.1,8.5l.093.054,4.9,2.757c1.4.783,1.4,2.071,0,2.859l-4.9,2.753Z" fill="url(#linear-gradient-2)"/></g><g id="g80"><path id="path88" d="M17.194,16.924,12.96,12.739.465,25.09a1.648,1.648,0,0,0,2.085.058l14.644-8.224" fill="url(#linear-gradient-3)"/></g><g id="g90"><path id="path104" d="M17.194,8.555,2.55.33A1.653,1.653,0,0,0,.465.393l12.5,12.346Z" fill="url(#linear-gradient-4)"/></g></svg>