<svg xmlns="http://www.w3.org/2000/svg" viewBox="0 0 478.633 540.068" enable-background="new 0 0 478.633 540.068"><g><path fill="#1C51A4" d="M 449.059 218.231 L 246.254 99.967 L 164.3 200 L 82.146 4.732 L 82.116 4.718 C 43.973 -11.638 0 16.409 0 59.891 L 0 480.197 C 0 526.226 49.312 554.979 88.775 531.964 L 449.06 321.826 C 488.491 298.782 488.491 241.246 449.059 218.231 Z"/><path fill="#80D7FB" d="M 88.805 8.124 C 86.626 6.835 84.386 5.714 82.146 4.732 L 82.269 293.442 C 82.269 294.884 82.699 296.296 83.466 297.523 C 84.233 298.72 85.338 299.671 86.627 300.254 C 87.916 300.837 89.327 300.99 90.708 300.745 C 92.089 300.499 93.347 299.824 94.36 298.842 L 164.109 229.154 L 233.92 298.903 C 234.933 299.977 236.221 300.713 237.633 301.02 C 239.045 301.327 240.517 301.173 241.837 300.621 C 243.156 300.069 244.292 299.056 245.09 297.829 C 245.888 296.571 246.287 295.098 246.256 293.625 L 246.256 99.968 L 88.805 8.124 Z"/></g></svg>