<svg id="Layer_1" data-name="Layer 1" xmlns="http://www.w3.org/2000/svg" xmlns:xlink="http://www.w3.org/1999/xlink" viewBox="0 0 1026.24 1013.361"><defs><linearGradient id="linear-gradient" x1="513.12" x2="513.12" y2="1013.361" gradientUnits="userSpaceOnUse"><stop offset="0" stop-color="#e65c60"/><stop offset="1" stop-color="#cb272c"/></linearGradient></defs><title>HumbleBundle</title><g id="Page-1"><path id="H-Red" d="M765.2,820.59c-144.726,0,78.082-820.4,78.082-820.4L694.143,0S633.09,193.091,592.811,407.653H464.271c3.369-44.12,4.991-88.775,4.252-133.162-5.792-353.229-212.681-287.8-305.3-206.733C75.171,144.824,1.424,291.24,0,404c14.027-.683,69.445-.922,69.445-.922s46.083-210.236,190.809-210.236c144.7,0-78.443,820.412-78.443,820.412l149.205.111S408.132,793.725,446.48,548.455l122.745-.705c-7.148,63.469-9.422,133.559-8.374,198.651,5.813,353.228,211.893,277.426,304.508,196.374,92.616-81.072,161.727-252.257,160.873-334.453.114-.093-70.349.571-71.195.553C955.279,615.365,909.906,820.59,765.2,820.59Z" fill="url(#linear-gradient)"/></g></svg>