<svg id="Layer_1" data-name="Layer 1" xmlns="http://www.w3.org/2000/svg" viewBox="0 0 177 158.051"><title>Itch</title><path id="path3298" d="M23,.051l-23,27v7.688c0,9.747,8.959,18.312,17.094,18.312A18.146,18.146,0,0,0,35,35.051a17.905,17.905,0,0,0,17.625,18c9.767,0,17.375-8.232,17.375-18a18.335,18.335,0,0,0,18.125,18,18.12,18.12,0,0,0,17.875-18,17.932,17.932,0,0,0,17.656,18c9.768,0,17.344-8.232,17.344-18a18.364,18.364,0,0,0,18.156,18,18.092,18.092,0,0,0,17.844-18v-8l-25-27c-43.647-.115-129,0-129,0Z" fill="#fa5c5c"/><path id="path3116" d="M35,48.546a20.6,20.6,0,0,1-3.562,4.412A20.323,20.323,0,0,1,17.094,58.9,36.361,36.361,0,0,1,12,58.051v100H166V57.489a17.338,17.338,0,0,1-6.844,1.406,20.349,20.349,0,0,1-17.75-10.437,20.575,20.575,0,0,1-3.437,4.5,20.259,20.259,0,0,1-28.657,0,20.646,20.646,0,0,1-3.437-4.5,20.322,20.322,0,0,1-35.5,0,20.456,20.456,0,0,1-3.438,4.5,20.258,20.258,0,0,1-28.656,0A19.442,19.442,0,0,1,35,48.546ZM57.156,67.02c6.718,0,11.495,4.349,13.188,10.906h37.125c1.691-6.557,6.438-10.906,13.156-10.906,10.67,0,22.4,10.956,26.062,24.344l8.75,31.969c3.663,13.387-2.078,24.343-12.749,24.343-9.368,0-19.55-8.442-24.375-19.562H59.469c-4.825,11.12-15.006,19.562-24.375,19.562-10.671,0-16.413-10.956-12.75-24.343l8.75-31.969C34.756,77.976,46.485,67.02,57.156,67.02Z" fill="#fa5c5c"/><path id="path3286" d="M75.738,95.351,63.2,108.8H75.552v13.867h24.625V108.8h13.174l-12.539-13.45L88.274,81.9Z" fill="#fa5c5c"/></svg>