<svg id="svg8" xmlns="http://www.w3.org/2000/svg" xmlns:xlink="http://www.w3.org/1999/xlink" viewBox="0 0 187.5 187.5"><defs><linearGradient id="linear-gradient" x1="117.445" y1="28.081" x2="155.072" y2="-20.756" gradientTransform="matrix(2.835, 0, 0, -2.835, -291.902, 104.902)" gradientUnits="userSpaceOnUse"><stop offset="0" stop-color="#ff5e50"/><stop offset="0.249" stop-color="#fe5c6c"/><stop offset="0.377" stop-color="#e3658a"/><stop offset="0.497" stop-color="#b87eb0"/><stop offset="0.627" stop-color="#916cff"/><stop offset="0.763" stop-color="#70bcfb" stop-opacity="0.919"/><stop offset="1" stop-color="#21c7fe"/></linearGradient><linearGradient id="linear-gradient-2" x1="93.75" y1="179.625" x2="93.75" y2="7.875" gradientUnits="userSpaceOnUse"><stop offset="0" stop-color="#dee2e7"/><stop offset="1" stop-color="#fdfcfc"/></linearGradient></defs><title>iTunes</title><g id="layer1"><g id="g1233"><circle id="path1093" cx="93.75" cy="93.75" r="93.75" fill="url(#linear-gradient)"/><path id="circle1107" d="M94.455,17.486a76.859,76.859,0,1,0,76.858,76.859A76.859,76.859,0,0,0,94.455,17.486Zm38.521,15.253a3.634,3.634,0,0,1,3.67,2.807c.181.623.226,12.035.179,45.45l-.061,44.617-.469,1.664A15.857,15.857,0,0,1,125.314,138.6c-3.889,1.168-9.573,1.6-12.364.943a12.124,12.124,0,0,1-6.257-3.606,12.8,12.8,0,0,1-4.144-9.6,12.388,12.388,0,0,1,1.37-5.813,12.716,12.716,0,0,1,6.532-6.443c2.635-1.317,4.991-2,11.874-3.438,4.523-.945,5.625-1.35,6.506-2.4,1.213-1.441,1.186-.905,1.124-23.736-.054-19.836-.076-20.925-.436-21.476a2.862,2.862,0,0,0-2.829-1.07c-1.252.179-45.76,9.185-46.871,9.484a3.368,3.368,0,0,0-2.414,2.651c-.169.79-.236,9.542-.237,31.093,0,33.1.025,32.349-1.3,35.867a19.188,19.188,0,0,1-1.5,3.073,17.938,17.938,0,0,1-5.022,4.852c-4.064,2.4-12.012,3.641-16.257,2.529a13.155,13.155,0,0,1-9.344-8.56,16.467,16.467,0,0,1-.385-7.752,13.137,13.137,0,0,1,3.41-6.312c2.914-2.928,6.358-4.289,15.633-6.177,2-.408,4.067-.882,4.589-1.054a5.311,5.311,0,0,0,2.836-2.7c.354-.787.381-2.71.479-35.777l.1-34.946.486-.987A5.924,5.924,0,0,1,73.9,44.521c.789-.3,47.013-9.721,54.854-11.181a37.472,37.472,0,0,1,4.221-.6Z" opacity="0.192" style="isolation:isolate"/><path id="circle1095" d="M93.75,7.875A85.875,85.875,0,1,0,179.625,93.75,85.876,85.876,0,0,0,93.75,7.875Zm38.521,24.27a3.634,3.634,0,0,1,3.671,2.806c.181.623.225,12.036.179,45.45l-.062,44.618-.469,1.664A15.852,15.852,0,0,1,124.61,138c-3.89,1.168-9.573,1.6-12.365.943a12.111,12.111,0,0,1-6.256-3.606,12.789,12.789,0,0,1-4.144-9.6,12.391,12.391,0,0,1,1.369-5.814,12.727,12.727,0,0,1,6.532-6.443c2.635-1.317,4.991-2,11.874-3.438,4.524-.944,5.625-1.35,6.507-2.4,1.212-1.441,1.186-.906,1.123-23.737-.053-19.835-.075-20.925-.436-21.476a2.86,2.86,0,0,0-2.829-1.069c-1.251.179-45.76,9.184-46.87,9.483A3.369,3.369,0,0,0,76.7,73.5c-.17.789-.236,9.541-.238,31.092,0,33.1.026,32.349-1.3,35.867a19.1,19.1,0,0,1-1.5,3.073,17.934,17.934,0,0,1-5.021,4.852c-4.065,2.405-12.012,3.642-16.257,2.53a13.156,13.156,0,0,1-9.344-8.561,16.466,16.466,0,0,1-.386-7.752,13.141,13.141,0,0,1,3.41-6.312c2.915-2.927,6.359-4.288,15.633-6.177,2-.408,4.067-.882,4.59-1.053a5.317,5.317,0,0,0,2.836-2.7c.354-.787.38-2.71.479-35.777l.1-34.945.486-.988A5.92,5.92,0,0,1,73.2,43.926c.789-.3,47.012-9.72,54.854-11.181A37.359,37.359,0,0,1,132.271,32.145Z" fill="url(#linear-gradient-2)"/></g></g></svg>