<svg id="Layer_1" data-name="Layer 1" xmlns="http://www.w3.org/2000/svg" xmlns:xlink="http://www.w3.org/1999/xlink" viewBox="0 0 230.993 301.245"><defs><linearGradient id="linear-gradient" x1="31.137" y1="182.528" x2="48.219" y2="135.595" gradientUnits="userSpaceOnUse"><stop offset="0.01" stop-color="#07576d" stop-opacity="0"/><stop offset="0.074" stop-color="#07576d" stop-opacity="0.201"/><stop offset="0.184" stop-color="#07576d" stop-opacity="0.488"/><stop offset="0.298" stop-color="#07576d" stop-opacity="0.714"/><stop offset="0.418" stop-color="#07576d" stop-opacity="0.874"/><stop offset="0.547" stop-color="#07576d" stop-opacity="0.969"/><stop offset="0.7" stop-color="#07576d"/></linearGradient></defs><title>MobyGames</title><path d="M70.5,156.888C59.128,135.32,19.375,130.57,5.125,172.445L0,171.2c15.875-46.75,64.5-41.875,75.75-14.307" fill="url(#linear-gradient)"/><path d="M62.375,153.07c-11.167-4.334-16.333.666-20.167,6.5s-19,28-9.5,37,23.5-2,28-4L74.875,194.2s23.5,22.861,30.75,5.868,4.375-15.368,0-26.368S98.75,151.2,82.25,155.57C72,158.257,62.375,153.07,62.375,153.07Z" fill="#07576d"/><path d="M95.993,170.423c-1.639-4.68,3.548-13.127-16.18-9.968a2.025,2.025,0,0,0-1.694,2.439,6.2,6.2,0,0,1,.033,2.893,6.093,6.093,0,1,1-11.415-4.048,1.979,1.979,0,0,0-1.187-2.734c-6.016-1.968-12.845-4.231-17.175,1.69C42.25,169.07,17.5,212.2,59.75,186.32L78.125,188.2s22.25,24.625,22.75,5.75S97.736,175.4,95.993,170.423Z" fill="#fff"/><path d="M78.125,188.2C74,179.164,54.5,181.57,54.5,181.57a34.934,34.934,0,0,1-18.865,8.57c.481,5.747,6.42,7.017,24.115-3.82Z" fill="#d1d3d4"/><path d="M40.25,136.135v4.631c12.656-.781,24.76,5.71,30.25,16.122h5.25C70.2,143.293,55.566,135.224,40.25,136.135Z" fill="#07576d"/><path d="M130.875,10.7C94.125.32,62.375-5.93,49.375,8.32s-61,124.75,25.25,129.25c0,0,1.75,16.25,31.25,17.375,11,.25,10.125,2.875,10.125,2.875-66.875,4.5-39.375,45.5,16.125,48.25,0,0,.75,34.25-28.625,54.625,0,0-2.178-26.125-25.276-28.75,0,0,3.026,18.375-3.974,24.5-4,3-3,8.5-3,8.5s-11.125,3-14.75,9-23.458,3.291-23.458,3.291,10.333,36,50.166,19.834c153.167,19.5,201.167-216.5,77.417-277.25C151.875,16.07,130.875,10.7,130.875,10.7Z" fill="#07576d"/><path d="M123.208,20.07C95.542,12.57,65.542,5.57,57.375,15.9s-23,37.833-20.833,79.333,61.333,33.334,92.166,25.5c0,0-18,9.584-35.166,10.667s-7.167,12.5,12.5,12.5,24.833,13.167,24.833,13.167,13.167-1.667,29.333,6.666c0,0-70.833.834-72.5,12.5s37.167,25.167,71.5,29.334l-15.666.833c1,25-24.834,77-51.667,62.833,0,0,4-22.666-8.75-30.916.125.875,1,15.375-3.5,19.25s-4.25,7.875-2.125,13.125c0,0-12.75-.625-18.25,7.375S44.375,284.2,44.375,284.2a39.447,39.447,0,0,0,38.125,1.75C224.042,304.736,270.042,86.736,156.708,30.07,152.664,28.163,123.208,20.07,123.208,20.07Z" fill="#00bdff"/><path d="M80,278.2c-14.625,14.125-35.625,6-35.625,6a39.447,39.447,0,0,0,38.125,1.75c84.076,11.162,134.441-61.226,137.725-133.72C214.173,215.489,153.4,303.942,80,278.2Z" fill="#00a1cc"/><path d="M150.375,211.07l8.833-5.5-15.666.833c.593,14.823-8.248,39.137-21.137,53.524C131.608,252.272,144.461,237.382,150.375,211.07Z" fill="#00a1cc"/><circle cx="135.167" cy="76.028" r="27.708" fill="#07576d"/><circle cx="135.167" cy="76.028" r="20.833" fill="#fff"/><circle cx="135.167" cy="76.028" r="10.708" fill="#07576d"/><circle cx="130.479" cy="71.716" r="3.26" fill="#fff"/><path d="M72.542,34.07c-14.167,6-21.584,13.083-21.584,13.083,1.25-13.5,6.334-22.333,13.334-28.25Z" fill="#48d8ff"/><path d="M80.708,31.9c14.667-4.167,36-7.25,36-7.25-9.166-3.333-29.916-9.417-44.666-8.417Z" fill="#48d8ff"/></svg>