<svg id="Layer_7" data-name="Layer 7" xmlns="http://www.w3.org/2000/svg" viewBox="0 0 164 164"><title>NexusMods</title><g id="g5"><g id="g7"><g id="g9"><path id="path11" d="M44.745,164a12.172,12.172,0,0,1-1.915-.1,26.391,26.391,0,0,1-4.536-1.009,34.834,34.834,0,0,1-6.956-3.23,86.378,86.378,0,0,1-11.895-8.376c-1.815-1.514-3.629-3.129-5.343-4.744l-1.411-1.413a14.858,14.858,0,0,1-2.621-3.027,15.309,15.309,0,0,1-2.52-8.074c-.1-1.11-.2-2.22-.2-3.432a48.578,48.578,0,0,1,.5-7.569A61.882,61.882,0,0,1,11.58,109.6l.3-.908c-.4-.908-.7-1.917-1.109-2.927A75.636,75.636,0,0,1,7.648,70.242c.2-1.312.4-2.624.706-3.835A58.036,58.036,0,0,1,1,51.975v-.1A16.691,16.691,0,0,1,.189,43.8,24.334,24.334,0,0,1,1.2,39.461,33.758,33.758,0,0,1,4.423,32.6,94.086,94.086,0,0,1,12.689,20.79c1.512-1.816,3.024-3.633,4.637-5.248l1.411-1.413a12.175,12.175,0,0,1,2.419-2.119,14.756,14.756,0,0,1,8.67-2.927c1.209-.1,2.52-.2,3.83-.2h.1a52.544,52.544,0,0,1,7.863.606,53.3,53.3,0,0,1,10.887,2.927c2.117-.909,4.335-1.716,6.654-2.524A69.827,69.827,0,0,1,76.3,6.459a74.178,74.178,0,0,1,18.347.807c1.411.2,2.822.5,4.233.808A51.228,51.228,0,0,1,112.487,1.11h.1A16.957,16.957,0,0,1,118.737,0a12.185,12.185,0,0,1,1.916.1,26.411,26.411,0,0,1,4.536,1.009,34.834,34.834,0,0,1,6.956,3.23,86.438,86.438,0,0,1,11.895,8.376c1.814,1.514,3.629,3.129,5.343,4.744l1.411,1.413a9.584,9.584,0,0,1,1.915,2.119,16.863,16.863,0,0,1,3.327,10.294,42.045,42.045,0,0,1,0,5.046,48.7,48.7,0,0,1-1.613,10.5Q153.364,50.461,152,54.1a74.4,74.4,0,0,1,3.427,44.1c1.311,1.918,2.52,3.734,3.528,5.551a48.323,48.323,0,0,1,4.133,9.386,17.6,17.6,0,0,1,.706,8.275,24.033,24.033,0,0,1-1.109,4.239,52.03,52.03,0,0,1-7.157,12.918,105.065,105.065,0,0,1-9.073,11l-1.209,1.211a17.128,17.128,0,0,1-2.42,2.22,15.481,15.481,0,0,1-8.669,2.927c-1.21.1-2.52.2-3.831.2h-.1a46.573,46.573,0,0,1-8.266-.706,57.849,57.849,0,0,1-12.2-3.533c-1.916.808-3.932,1.514-5.847,2.12a73.593,73.593,0,0,1-17.541,3.128,75.362,75.362,0,0,1-18.447-1.211c-.706-.1-1.512-.3-2.218-.4A54.87,54.87,0,0,1,51,163.294h-.1c-1.008-.1-3.225.706-6.149.706Zm-19.96-28.662,10.686,3.734a14.708,14.708,0,0,0,.4-8.074,1.719,1.719,0,0,0,.1.707c0,.3.1.706.1,1.11a13.071,13.071,0,0,0-2.621-7.065,13.732,13.732,0,0,0-2.42-2.422l.5.4.907.908a20.611,20.611,0,0,0-2.722-2.321l-4.94,13.019Zm99.9-4.744a15.73,15.73,0,0,0-2.319,2.725l12,4.643v-11.2h0a11.3,11.3,0,0,0-3.225.4h.6c.3,0,.706-.1,1.109-.1a13.824,13.824,0,0,0-6.451,2.12,12.262,12.262,0,0,0-3.125,2.926l.4-.5,1.008-1.01ZM36.076,127.97a17.69,17.69,0,0,1,1.512,1.312,53.247,53.247,0,0,0,7.258,5.248,30.2,30.2,0,0,0,4.738-3.027A13.675,13.675,0,0,0,51,130.393c.3-.2.5-.5.807-.707l.4-.4,6.25-6.358,8.468,2.927a6.914,6.914,0,0,1,.806.3,54.233,54.233,0,0,0,5.444,1.413,43.8,43.8,0,0,0,11.492.706,48.359,48.359,0,0,0,10.786-1.917,30.436,30.436,0,0,0,5.04-1.918,16.378,16.378,0,0,0,2.319-1.11,15.051,15.051,0,0,1,6.653-1.615,16.046,16.046,0,0,1,7.661,2.019,5.072,5.072,0,0,0,1.311.5,39.516,39.516,0,0,0,8.065,2.624c.4.1.907.1,1.31.2,1.512-1.716,2.923-3.532,4.234-5.349.806-1.11,1.613-2.22,2.318-3.33a5.634,5.634,0,0,0-.4-.707c-.705-1.211-1.512-2.422-2.52-3.936a13.648,13.648,0,0,0-1.109-1.413c-.2-.2-.3-.4-.5-.605a14.337,14.337,0,0,1-3.629-15.24,7.006,7.006,0,0,1,.3-.807,46.335,46.335,0,0,0-1.815-32.9c-.1-.3-.3-.605-.4-.908a15.155,15.155,0,0,1-.706-13.928c.5-1.009.907-2.119,1.311-3.128.806-1.918,1.411-3.936,2.016-5.753a22.087,22.087,0,0,0,.5-2.927,17.343,17.343,0,0,1-1.512-1.312,60.492,60.492,0,0,0-7.258-5.248q-2.118,1.212-4.839,3.028l-1.512,1.211c-.1.1-.3.2-.4.4A14.512,14.512,0,0,1,101.8,38.25a13.468,13.468,0,0,1-5.242-1.009c-.4-.1-.807-.3-1.21-.4a49.255,49.255,0,0,0-5.544-1.312,48.557,48.557,0,0,0-11.492-.5,47.781,47.781,0,0,0-10.686,2.12,41.718,41.718,0,0,0-4.939,1.917,24.44,24.44,0,0,0-2.319,1.11l-.4.2a14.413,14.413,0,0,1-7.056,1.817,15.176,15.176,0,0,1-6.553-1.514c-.5-.2-.907-.4-1.411-.606a32.173,32.173,0,0,0-7.863-2.422c-.4-.1-.807-.1-1.109-.2a17.187,17.187,0,0,1-1.21,1.413,53.9,53.9,0,0,0-5.242,7.368,47.3,47.3,0,0,0,2.924,4.743,7.569,7.569,0,0,0,1.109,1.413c.2.3.5.505.705.807l5.847,6.157-2.52,8.074c-.2.5-.3,1.009-.5,1.513a51.245,51.245,0,0,0-1.21,5.652,44.661,44.661,0,0,0-.3,11.606,43.148,43.148,0,0,0,2.318,10.7c.6,1.716,1.311,3.331,2.016,4.945l.3.606a14.878,14.878,0,0,1-.1,13.524,6.14,6.14,0,0,0-.5,1.211c-.4,1.009-.907,2.018-1.31,3.027a36.4,36.4,0,0,0-2.117,7.166c0,.1-.1.4-.1.605Zm94.859-88.812a23.273,23.273,0,0,0,2.823,2.422L138.7,28.561l-10.685-3.734a14.708,14.708,0,0,0-.4,8.074V31.185a12.286,12.286,0,0,0,2.117,6.459,15.994,15.994,0,0,0,2.823,3.028l-.5-.4-1.109-1.11ZM29.523,26.543v11.2a11.341,11.341,0,0,0,3.226-.4h-.605c-.3,0-.7.1-1.109.1a13.813,13.813,0,0,0,6.452-2.119A12.266,12.266,0,0,0,40.612,32.4l-.4.505L39.3,33.91a20.561,20.561,0,0,0,2.318-2.725l-12.1-4.642Z"/></g></g><g id="g13"><g id="g15"><g id="g17"><path id="path19" d="M56.741,89.216l.706,28.561-7.057-5.752c-7.863,12.817-10.383,25.23-6.653,34.414l1.311,3.23-3.226-1.413a59.963,59.963,0,0,1-19.557-13.625l-.3-.3-.1-.5a33.522,33.522,0,0,1,.706-11.3v-.1a81.172,81.172,0,0,1,5.645-14.836A78.6,78.6,0,0,1,33.556,98.3l-6.15-5.046,29.335-4.037Z" fill="#be7f31"/></g></g><g id="g21"><g id="g23"><path id="path25" d="M106.741,74.784l-.7-28.561,7.056,5.752c7.863-12.817,10.383-25.23,6.653-34.414l-1.31-3.23,3.226,1.413a59.949,59.949,0,0,1,19.556,13.625l.3.3.1.5a33.548,33.548,0,0,1-.706,11.3v.1a81.245,81.245,0,0,1-5.645,14.836,78.6,78.6,0,0,1-5.343,9.285l6.149,5.046Z" fill="#be7f31"/></g></g><g id="g27"><g id="g29"><path id="path31" d="M89.2,106.373l28.528-.707-5.746,7.065c12.8,7.872,25.2,10.4,34.375,6.661l3.226-1.312-1.411,3.23a60.032,60.032,0,0,1-13.609,19.579l-.3.3-.5.1a33.425,33.425,0,0,1-11.291-.706h-.1a81.005,81.005,0,0,1-14.818-5.652,78.386,78.386,0,0,1-9.274-5.349l-5.041,6.157L89.2,106.373Z" fill="#be7f31"/></g></g><g id="g33"><g id="g35"><path id="path37" d="M74.685,58.132l-28.528.706L51.9,51.774c-12.8-7.872-25.2-10.4-34.375-6.661L14.4,46.425l1.412-3.23A60.017,60.017,0,0,1,29.423,23.616l.3-.3.5-.1a33.421,33.421,0,0,1,11.29.707h.1A81.009,81.009,0,0,1,56.439,29.57a78.526,78.526,0,0,1,9.274,5.349l5.04-6.156Z" fill="#be7f31"/></g></g><g id="g39"><g id="g41"><ellipse id="circle43" cx="82.044" cy="81.546" rx="60.988" ry="61.058" fill="#faa431"/></g></g><g id="g45"><path id="path47" d="M59.765,60.049A47.878,47.878,0,0,1,51,54.9a70.312,70.312,0,0,1-10.887-9.285c-7.661-7.771-11.693-15.744-10.585-22.3l-2.318,2.523c-5.545,5.854-12.9,16.148-13,20.589l.1.5a35.15,35.15,0,0,0,4.939,10.193v.1c3.024,4.845,8.972,12.818,30.141,22.1l-3.73,7.064,28.529-7.67L64,51.975Z" fill="#fff"/></g><g id="g49"><path id="path51" d="M104.12,104.455a47.912,47.912,0,0,1,8.771,5.147,70.366,70.366,0,0,1,10.887,9.285c7.661,7.771,11.693,15.744,10.584,22.3l2.319-2.422c5.544-5.853,12.9-16.147,13-20.588l-.1-.5a35.175,35.175,0,0,0-4.939-10.193v-.1c-3.024-4.844-8.972-12.817-30.141-22.1l3.729-7.065L89.705,85.886l10.282,26.441Z" fill="#fff"/></g><g id="g53"><path id="path55" d="M104.826,59.847a48,48,0,0,1,5.141-8.78,70.432,70.432,0,0,1,9.274-10.9C127,32.5,134.967,28.46,141.52,29.57l-2.42-2.321c-5.846-5.551-16.129-12.918-20.564-13.019l-.5.1a35.079,35.079,0,0,0-10.182,4.945h-.1c-4.838,3.028-12.8,8.982-22.076,30.176l-7.057-3.734,7.662,28.561,26.613-10.092Z" fill="#fff"/></g><g id="g57"><path id="path59" d="M58.657,104.153a47.94,47.94,0,0,1-5.142,8.78,70.323,70.323,0,0,1-9.274,10.9c-7.762,7.67-15.726,11.707-22.278,10.6l2.419,2.321c5.847,5.551,16.129,12.918,20.565,13.019l.5-.1a35.073,35.073,0,0,0,10.181-4.945h.1c4.839-3.028,12.8-8.982,22.077-30.176l7.056,3.734L77.205,89.721,50.693,99.813Z" fill="#fff"/></g></g></g></svg>