<svg xmlns="http://www.w3.org/2000/svg" x="0px" y="0px" viewBox="0 0 1447.1 1368.4">
<style type="text/css"> .st0{fill:#FF7F00;}</style>
<path class="st0" d="M1026.2,305v-97.3C1026.2,93,932.8,0,817.6,0h-188C514.3,0,421,93,421,207.7V305H68.9L0,1368.4h1447.1 L1378.2,305H1026.2z M525.1,207.7c0-57.5,46.8-104,104.5-104h187.9c57.7,0,104.5,46.6,104.5,104V305h-397V207.7z M111,1264.8 l55.5-856.2H421v197.1c0,4.1,3.3,7.4,7.5,7.4h89.2c4.1,0,7.5-3.2,7.5-7.4V408.6h397v197.1c0,4.1,3.3,7.4,7.5,7.4h89.2 c4.1,0,7.5-3.2,7.5-7.4V408.6h254.4v0l55.5,856.2H111z"/></svg>