<svg xmlns="http://www.w3.org/2000/svg" viewBox="0 0 404.42428 244.11829"><path d="M359.05807,27.667A122.81977,122.81977,0,0,0,310.8447,4.06791,156.784,156.784,0,0,0,280.12624.20346C272.39545,0,264.66571,0,256.93513,0H147.4881c-7.72953,0-15.46033,0-23.19112.20346A156.80419,156.80419,0,0,0,93.57852,4.06791,122.81967,122.81967,0,0,0,45.36516,27.667a120.88566,120.88566,0,0,0,0,188.78556,122.83213,122.83213,0,0,0,48.21336,23.598,156.72582,156.72582,0,0,0,30.71846,3.86529c7.73079.2024,15.46159.2024,23.19112.2024h109.447c7.73058,0,15.46032,0,23.19111-.2024a156.70564,156.70564,0,0,0,30.71846-3.86529,122.83223,122.83223,0,0,0,48.21337-23.598,120.88391,120.88391,0,0,0,0-188.78556ZM305.75866,154.81219a43.85574,43.85574,0,0,1-17.90162,6.917c-6.51022,1.01708-12.81684.81362-19.32583.81362H135.892c-6.509,0-12.81557.20346-19.32583-.81362a43.86141,43.86141,0,0,1-17.90161-6.917,40.05858,40.05858,0,0,1-17.29146-32.753A39.51134,39.51134,0,0,1,98.66457,89.30631a43.85687,43.85687,0,0,1,17.90161-6.9159c6.51026-1.01835,12.81687-.81383,19.32583-.81383h132.6392c6.509,0,12.81561-.20452,19.32583.81383a43.85577,43.85577,0,0,1,17.90162,6.9159,40.061,40.061,0,0,1,17.2925,32.75284A39.511,39.511,0,0,1,305.75866,154.81219Z" fill="#fff"/></svg>