<svg id="Layer_1" data-name="Layer 1" xmlns="http://www.w3.org/2000/svg" viewBox="0 0 350.931 471.46"><title>Origin</title><g id="_f15a23ff" data-name="#f15a23ff"><path d="M167.629.634c2.59-1.44,6.42-.37,7.31,2.62.96,2.47-.7,4.73-2.06,6.64a116.339,116.339,0,0,0-19.04,45.92,3.5,3.5,0,0,0-1.79,4.51c.9.33,1.81.62,2.73.9,18.69-1.64,37.65-1.3,56.05,2.63A175.542,175.542,0,0,1,335.5,307.8a364.648,364.648,0,0,1-152.05,163c-2.13.99-5.2,1.03-6.66-1.09-1.72-2.22-1.01-5.38.69-7.4a115.329,115.329,0,0,0,18.51-41.62c.65-3.09,1.54-6.22,1.27-9.4-1.09-1.42-2.89-.99-4.42-.94a175.315,175.315,0,0,1-168.79-85.78,173.656,173.656,0,0,1-24.02-90.91c.11-29.14,8.06-58.04,22.06-83.55,32.59-62.57,83.76-115.37,145.54-149.48m-1.8,167.21a68.838,68.838,0,0,0-47.34,29.72c-7.23,10.96-11.61,23.98-11.52,37.16a67.462,67.462,0,0,0,18.7,48.07A68.515,68.515,0,0,0,241,255.724c8.71-26.82-1.73-58.24-24.45-74.81A68.349,68.349,0,0,0,165.829,167.844Z" fill="#f15a23"/></g></svg>