<svg id="Layer_1" data-name="Layer 1" xmlns="http://www.w3.org/2000/svg" viewBox="0 0 827.5 1160"><title>PCGamingWiki</title><path d="M0,167.3,448.9,0,827.4,57.2V1081.1l.1,28.9-375.4,50L0,1009.5Z" fill="#365798"/><path d="M25.3,986.6l-1.2-795L413,47.9l-1,1060.8Zm452.8,123.1.2-1056.3,309.8,42v975.8Z" fill="#a5b6d9"/><path d="M215.5,738.1l-174-10L40.3,421.6l175.6-16.4Zm16.7-334.5,156.1-19.4L387.1,744l-155.2-4.8ZM39.3,401V206.6l176-57.4,1.2,232.1ZM390.1,83.8l.9,274.5L232.3,378.7v-238Zm-253,909.7V758.4l141.7,9.3v268.4Zm247,80.8-17.3-6.4c3.8-22.5-18.9-31.9-19.1-5.7l-18.7-5.5c-.9-22.1-13.9-31.7-21.2-6.8l-9.7-3-.6-277.7,12.3.9c-4.3,27.5,23.5,28.2,20.3,1.7l20.3,1.3c-4.4,28.6,23.2,28.9,20.4,1.3l12.7.8ZM42.8,752.2l82.2,5.9-.5,108L42.6,854.9Zm83.1,129.3L125,991.9,42.3,971.7V869.3ZM494.3,71.1l278.6,36.6v950l-278.3,35.1Z" fill="#365798"/><path d="M279,508.6c-.1-5.1,0-10,3.2-14.2,6,.2,4.9,9.7,5,14.3,10.3,5.1,4.9-10.8,10.2-15.3,7.6-.8-.6,16,6.9,15.8,4.9-.1,3.9-2.4,3.8-6.7-.1-3.9.4-7.8,3.8-10.3,8.2,3.1.8,18.2,11.2,15.8,0-6.4-1-14.2,5.8-17.6,2.6,5.2-.1,14.8,5.4,16.1,7.4,1.7,8.4,3.6,10.2,10.5.8,3.1-.4,4.6,2.8,6.4,3.5,2,7.6,1.4,7.7,6.1.1,6.4-2.7,5.5-7.6,5.5-1.8,0-2.4,3.4-2.5,4.7-.4,4.7.4,5.7,5,7,5.9,1.7,4.9,3.3,4.9,8.7,0,2.7.5,1.2-3.1,1.9-5.7,1.1-7,.3-6.7,6.8.4,7.8,13.4,1.4,9.7,12.6-1.6,4.8-9.5,1.1-9.5,5.3,0,5.3-1.1,7.7,5.4,8.2,6.4.5,6,9.1.4,11-3.4,1.2-4.6-.1-5.8,4s-1.1,8.4-2.6,12.5c-6.1,4.5-11.6-1.7-11.6,8.4a35.764,35.764,0,0,1-1.1,7.3c-.9,5-2.2.7-5.8,1.8-1-1.2,0-7.9,0-9.5,0-4.7-1.6-5.8-7-5.4-.3,5.8-.2,12-4.9,16.2-2.9-1.9-4-4.8-4.2-8.1-.3-6.5.2-6.7-6.5-8.3-1.2,2.9-2,11.4-1.5,14.5-5.2,2.6-6-5.4-6-8.6,0-2.7,1.1-5.7-2.3-6.7-3.4-.9-4.6.8-4.7,3.9-.2,6.1-.5,8.8-5.3,12.2-1.9-5.4-.3-14.7-6.6-16.4-7-1.8-7.9-6.9-8-13.6-.1-7.3-8.9-.3-8.9-8.2,0-.8-.6-4.9,0-5.5,2.9-2.1,5.8,1.2,8.5.1,1.3-3.6,1.8-9-2.1-9.9-4-.9-7.8-1.4-6.9-6,1.1-5.7.1-5.4,6.3-5.8,4.7-.3,3-5.2,3.1-8.4-6.2-2.9-8.8.8-8.8-7.4,0-5.6-.4-5.1,5.2-5.1,4.8,0,3.4-1.7,3.4-6.3,0-5.1-9.2-.6-9.6-7.6-.2-3,1-5.6,3.9-6.7,5.1-2,5.7-2.3,5.9-7.8.3-8,5.6-8.9,12-12.1h0ZM88.3,369.4l24.3-92.2-15.7,7.5,21.6-79,25.5-7.3-19.1,53.1,19.2-10.3L88.4,369.5h0Z" fill="#a5b6d9"/><path d="M278.8,319c1.2-3.2,2.5-6.5,3.8-9.9,13.8,5.9,26.4,10.2,40.6,1.9,13.7-8,22.8-24.3,28-38.8,10.2-28.4,10.2-66.8-8.3-91.8-22.5-30.5-54.5-14.5-69.8,13.9-4.7,8.8-11.2,31.3-12.1,45.3a102.061,102.061,0,0,0,.8,21.3c1,8.1,5.2,16.5,4.2,24.7-.3,2.5-1.8,4.1-4.6,4.6-16.7-28-7.6-72.9,4.9-100.6,12.5-27.6,47.9-55.5,75.9-29,25.7,24.2,28.2,68.1,21.3,100.3-6.2,28.8-26,71.4-61.9,68.2-6.4-.6-19.1-3.8-22.7-10h0Zm20.5-45.9c-3.2-11.6,11.5-19.5,14.8-28.4,1.9-5.2-.1-9.6-2.2-14-4.9-2.6-9-1.1-10.8,4a64.809,64.809,0,0,1-12.6,22.1c-3.3-13.7-1.4-29.1,6.6-40.9,4.3-6.3,12.9-9.4,19.4-6.9,20.5,7.8,14.2,42.7,5.3,56.4-4.7,7.3-12.7,7.6-20.5,7.6Zm3.4-25.8a1.854,1.854,0,0,1,.2,2c-9.4,21.3-18.7,42.6-28.2,64-.9-.4-1.4-.4-1.7-.7-3.3-3.9-5.6-8.5-7.8-13.1-.9-1.8.1-3.6,1.2-5.1l32.8-43.7a11.031,11.031,0,0,1,3.4-3.4h.1Z" fill="#a5b6d8"/><path d="M188.7,922.8c-6.1,11.9-4.4,25.1-6,38-9.7-2.4-16.7-21.7-18.6-30,1.7-9.9,6.9-17.2,12.9-24.9,2.8-3.6,3.7-7.2,1.9-11.4-.7-1.6-.6-3.6-2-4.9-8.7,1.5-13.9,8.2-19.9,14-6.7-7-5.2-33.4.2-41.1,8.4-1.5,15.8,1,22.6,5.8,5.3-5.2,5.6-10.3.9-15.7-3.6-4.1-14.7-8.9-16.7-13.1-1.6-6.3,10.2-27.5,17.3-27.2,7.8,11.5,12.4,24.5,15,38.1,2.7,1.1,5.1,2.1,8.2,1.5,1.6-15.5-1.9-30.3-6.8-44.8.5-.5.8-.9,1-.9,8.6.6,16.8,2.3,23.4,8.6,14.9,14.2-11.5,41.7.4,58.4,10.7-10.3,10.5-23.1,18.6-34,8,10.3,15,31,13.7,44.1-6.9,8.3-12.4,13-28.9,14.2.5,3.7-1.8,7.2-.8,11.5,8.8,9.4,18.5,7.9,30.1,7.2,1.6,8.2-6.7,33.6-12.9,39.7-12.6-5.7-19.1-17.9-26.1-29.1a30.993,30.993,0,0,0-6.4,6.1c1.7,12.9,18,29.3,15.9,40.7-5.5,2.6-11.4,4.3-17.7,3.4-6.2-.9-8.7-4.3-10.2-10.9-3.3-14.7,3.2-32.8-9.2-43.3Zm118.5,22.1V881.1L375,892v67.4Zm-.1-139.6,67.9,7.1v66.8l-67.9-9.9Zm67.7,165.5v66.8L307.2,1019V955.4ZM54.3,939.1V910.2l13.7,2,16.5-16.6.7,67.6L68.9,942.3Z" fill="#a5b6d9"/><path d="M89.1,915.5a4.53,4.53,0,0,1,3.4-.2,46.332,46.332,0,0,1,3.6,20.5c-.1,2.7-1.1,5.1-1.7,7.6a6.282,6.282,0,0,1-3.4,3.9c-1.3-1.3-.9-2.5-.6-3.8a59.58,59.58,0,0,0,1.7-11.1c.2-5.8-1.6-11.2-2.9-16.9h-.1Zm7,42.4c-.3-3.3.9-6.2,1.6-9.1,1-4.4,2.5-8.8,3.1-13.2.8-5.6-1-11-2.4-16.4-.7-2.5-1.5-5-2.2-7.5-.4-1.6-.7-3.1.2-4.5a1.89,1.89,0,0,1,2.1,1.3,52.189,52.189,0,0,1,4.5,13.3c1,5.5.5,10.9.9,16.3.3,3.5-.8,6.9-1.3,10.2a12.879,12.879,0,0,1-6.6,9.6h.1Zm7.6,10.4c-1.9-3.7-1.4-6.5-.1-9.8,3.1-8.1,5.9-16.4,5.3-25.2a74.5,74.5,0,0,0-4.6-22.4c-1.2-3-2.3-6.1-3.3-9,.8-1.2,1.7-2,3.4-1.6,1.8,4.1,3.9,8.3,5.1,12.8,5,19,5,37.4-5.7,55.3h0Z" fill="#a5b6d9"/><path d="M598.7,1048.2l-70.3,8.4-.2-378.8,70.5-3.8Zm89.8-514c-11,50.3-65.8,45.6-78.3,2.8l-92.4,3.1-.2-67.9,89.4-3.3c22.8-54,64.5-46.2,81.8.2l66.2.4,1.6,61.8ZM516.1,297.1v-24l241.7,7.5.1,19.4Z" fill="#a5b6d9"/><path d="M52.3,828.6l62.6,9.7L95.7,794.9l-8.2,15L74.1,780.6,52.3,828.7Zm64.1-39.5a7.9,7.9,0,1,1-7.9-7.9A7.853,7.853,0,0,1,116.4,789.1Z" fill="#a5b6d9"/><ellipse cx="649.4" cy="502.9" rx="31" ry="51.8" fill="#365798"/><path d="M177.7,628.2a8.286,8.286,0,0,0,.4,9.3l-26.3,40,6.6-.1,25-36.7a8.452,8.452,0,0,0,8.5-3.8,8.279,8.279,0,0,0-2.7-11.4A8.418,8.418,0,0,0,177.7,628.2ZM66.9,657.9l-9.7,12.9,4.6,4.3,7.9-11,7.1.3a9.51,9.51,0,0,0,1.5,2,8.344,8.344,0,1,0,0-11.8,8.774,8.774,0,0,0-2.1,3.6ZM87,589.2a8,8,0,0,0,0,16,7.927,7.927,0,0,0,7.7-6l44.5,1.3L156.6,622a10.039,10.039,0,0,0-.4,2.4,8.4,8.4,0,1,0,8.4-8.4,8.107,8.107,0,0,0-4.1,1.1l-18.9-22.9-48-1.3a8.033,8.033,0,0,0-6.8-3.7Zm13.5,27a8.354,8.354,0,1,0,7.8,11.8l22.2-.5a8.368,8.368,0,1,0,7.3-12,8.434,8.434,0,0,0-7.7,5.7l-21.5.5a8.453,8.453,0,0,0-8.1-5.6Zm-26,16.7a8,8,0,1,1-8-8A8.024,8.024,0,0,1,74.5,632.9ZM87.6,477.6a8.471,8.471,0,0,0-7.5,5.6l-22.6,1,.3,6.2,22.6-1a8.4,8.4,0,0,0,7.9,4.9,8.36,8.36,0,0,0-.8-16.7Zm56.3,20a8.354,8.354,0,1,0,7.8,11.8l25.3-.7a8.368,8.368,0,1,0,7.3-12,8.434,8.434,0,0,0-7.7,5.7l-24.6.7a8.453,8.453,0,0,0-8.1-5.6ZM99.5,467.2l-4.1,4.7L115.2,489l80.9-3-.5-6.2-78.3,2.8ZM57.9,518.9l-.2-6,68.2-4,71.4,103.9-5.3,3.3L121.9,515Zm132.6,25.4a8.368,8.368,0,0,0,1.1-9.3l6.6-9.5.4-9-11.7,14.4a8.356,8.356,0,0,0-9,2.4,8.255,8.255,0,0,0,.8,11.7,8.381,8.381,0,0,0,11.8-.8Zm-32.3.4a8.155,8.155,0,0,0,8.7,3.3l30.7,44.3-.1-9.8-25.5-38a8.336,8.336,0,1,0-13.9.3Zm-34.8-9.6a8.471,8.471,0,0,0-7.5,5.6l-57.2,2.9.3,6.2,57.2-2.9a8.4,8.4,0,0,0,7.9,4.9,8.36,8.36,0,0,0-.8-16.7Zm17.5,33-81.3,2,.2,6.3,78.7-2L156,596.7a10.039,10.039,0,0,0-.4,2.4,8.4,8.4,0,1,0,8.4-8.4,8.107,8.107,0,0,0-4.1,1.1Zm38.3,105.5c1.2,2.6,5,.2,5.7,3.6-1,4.1-8.9.5-11.6.9-1.4-4.3,8.4-15.3,10.9-18.8,2.8-1.4,9.4,0,12.6,0,.3,2.8.5,5.3-1.5,7.8-3.4.1-6.7-1.4-10.1-1.7-2,2.7-4,5.5-6,8.2ZM67.3,606H59.2v-6.7c6.2,0,9.7-1.6,13.2,3.9,6.6,10.3,12.8,20.9,19.1,31.4,3.1,5.2,6.3,10.4,9.5,15.5,4.6,7.4,5.8,8,14.6,8.6,6.3.4,12.7.4,19.1.4,6.6,0,6.4-5.5,12.7-4.9,5.4,5.1,5.4,11.7,0,16.8-6,.4-5.3-5.8-9.8-5.8H118.4c-9.5,0-12.4,2.1-17.3-5.6C89.9,641.7,78.7,623.9,67.5,606Z" fill="#a5b6d9"/><path d="M297.6,233.572c0,2.991-1.546,5.514-3.509,5.514-1.9,0-3.509-2.43-3.509-5.514,0-2.991,1.546-5.515,3.509-5.515C295.993,228.057,297.6,230.488,297.6,233.572Zm8.565-12.805c0,2.991-1.546,5.515-3.509,5.515-1.9,0-3.509-2.431-3.509-5.515,0-2.991,1.546-5.514,3.509-5.514C304.558,215.253,306.164,217.683,306.164,220.767Zm13.68,0c0,2.991-1.546,5.515-3.509,5.515-1.9,0-3.509-2.431-3.509-5.515,0-2.991,1.546-5.514,3.509-5.514C318.238,215.253,319.844,217.683,319.844,220.767Zm-7.673,43.555c0,2.991-1.546,5.515-3.509,5.515-1.9,0-3.509-2.43-3.509-5.515,0-2.991,1.546-5.514,3.509-5.514C310.565,258.808,312.171,261.238,312.171,264.322Zm8.744-10.748c0,2.991-1.547,5.514-3.509,5.514-1.9,0-3.51-2.43-3.51-5.514,0-2.991,1.547-5.515,3.51-5.515C319.309,248.059,320.915,250.489,320.915,253.574Zm4.4-17.105c0,2.991-1.546,5.515-3.509,5.515-1.9,0-3.509-2.43-3.509-5.515,0-2.991,1.546-5.514,3.509-5.514C323.71,230.955,325.316,233.385,325.316,236.469Z" fill="#365798"/></svg>