<svg id="Layer_1" data-name="Layer 1" xmlns="http://www.w3.org/2000/svg" xmlns:xlink="http://www.w3.org/1999/xlink" viewBox="0 0 293.99 293.99"><defs><radialGradient id="radial-gradient" cx="146.995" cy="146.995" fx="111.02825486161842" fy="85.78730249520315" r="146.995" gradientUnits="userSpaceOnUse"><stop offset="0" stop-color="#5fccf5"/><stop offset="0.25" stop-color="#01c0f3"/><stop offset="0.7" stop-color="#0182c6"/><stop offset="1" stop-color="#0367b2"/></radialGradient><linearGradient id="linear-gradient" x1="140.814" y1="231.252" x2="140.814" y2="5.512" gradientUnits="userSpaceOnUse"><stop offset="0.3" stop-color="#7bc2f6" stop-opacity="0"/><stop offset="1" stop-color="#0291d0" stop-opacity="0.6"/></linearGradient><linearGradient id="linear-gradient-2" x1="227.129" y1="65.095" x2="62.292" y2="261.54" gradientUnits="userSpaceOnUse"><stop offset="0.3" stop-color="#7bc2f6" stop-opacity="0"/><stop offset="1" stop-color="#0ea6e1" stop-opacity="0.6"/></linearGradient><radialGradient id="radial-gradient-2" cx="146.995" cy="146.995" fx="119.02411518542878" fy="99.28973237457764" r="146.995" gradientUnits="userSpaceOnUse"><stop offset="0" stop-color="#5bcef6" stop-opacity="0.5"/><stop offset="0.5" stop-color="#7bc2f6" stop-opacity="0"/></radialGradient><linearGradient id="linear-gradient-3" x1="77.725" y1="235.657" x2="234.628" y2="34.83" gradientUnits="userSpaceOnUse"><stop offset="0.93" stop-color="#7bc2f6" stop-opacity="0"/><stop offset="1" stop-color="#7bc2f6"/></linearGradient><linearGradient id="linear-gradient-4" x1="165.065" y1="111.296" x2="172.76" y2="23.343" gradientUnits="userSpaceOnUse"><stop offset="0.9" stop-color="#7bc2f6" stop-opacity="0"/><stop offset="1" stop-color="#63d5ff"/></linearGradient><linearGradient id="linear-gradient-5" x1="153.746" y1="168.424" x2="117.932" y2="34.767" gradientUnits="userSpaceOnUse"><stop offset="0.93" stop-color="#7bc2f6" stop-opacity="0"/><stop offset="1" stop-color="#44dcff"/></linearGradient><linearGradient id="linear-gradient-6" x1="164.49" y1="219.916" x2="171.914" y2="252.074" gradientUnits="userSpaceOnUse"><stop offset="0.85" stop-color="#7bc2f6" stop-opacity="0"/><stop offset="1" stop-color="#00b0e8"/></linearGradient></defs><title>PSN</title><circle cx="146.995" cy="146.995" r="146.995" fill="url(#radial-gradient)"/><path d="M268.12,71.976C206-19.024,64-24.024,11.5,103.726-32.672,221.31,100.328,260.31,191.328,209.31,321.245,143.226,268.12,71.976,268.12,71.976Z" fill="url(#linear-gradient)"/><path d="M190.245,39.226C111,5.643-28.338,91.643,13.662,197.31c56,130.333,216.666,109.666,261.666,11S190.245,39.226,190.245,39.226Z" fill="url(#linear-gradient-2)"/><circle cx="146.995" cy="146.995" r="146.995" fill="url(#radial-gradient-2)"/><path d="M147,4.662A142.333,142.333,0,0,0,4.662,147c0,.11,0,.219,0,.328C4.844,69.229,67.974,5.976,145.828,5.976,223.793,5.976,287,69.407,287,147.652c0,78.051-62.888,141.353-140.584,141.669.195,0,.389.007.584.007A142.333,142.333,0,0,0,147,4.662Z" fill="url(#linear-gradient-3)"/><path d="M287.142,121.976h2.126A175.11,175.11,0,0,0,46,41.942v2.207a173.17,173.17,0,0,1,241.147,77.827Z" fill="url(#linear-gradient-4)"/><path d="M6.107,150.976A145.565,145.565,0,0,1,286.984,132.31h1.541A147.027,147.027,0,0,0,4.615,150.976Z" fill="url(#linear-gradient-5)"/><path d="M283,192.557a251,251,0,0,1-166,62.419c-23.71,0-48.414-1.045-70.167-7.166v3.123C68.6,256.981,93.3,257.99,117,257.99a253.981,253.981,0,0,0,166-61.441Z" fill="url(#linear-gradient-6)"/><path d="M147,0a147,147,0,1,0,147,147A147,147,0,0,0,147,0Zm0,289.328A142.333,142.333,0,1,1,289.328,147,142.333,142.333,0,0,1,147,289.328Z" fill="#0160aa"/><path id="path-1" d="M235.865,180.205c-3.534,4.46-12.2,7.641-12.2,7.641l-64.424,23.141V193.921l47.412-16.893c5.38-1.928,6.206-4.653,1.833-6.083s-12.269-1.024-17.654.912l-31.591,11.127V165.273l1.821-.617A108.441,108.441,0,0,1,183.032,160c12.836-1.414,28.554.194,40.893,4.871C237.83,169.268,239.4,175.746,235.865,180.205Zm-70.487-29.059V107.5c0-5.125-.945-9.844-5.754-11.18-3.683-1.179-5.968,2.24-5.968,7.362V212.976l-29.475-9.354V73.31c12.533,2.326,30.79,7.826,40.606,11.135,24.961,8.569,33.424,19.236,33.424,43.268C198.211,151.138,183.751,160.016,165.378,151.146ZM70.1,192.137c-14.275-4.019-16.651-12.4-10.145-17.222,6.014-4.455,16.24-7.809,16.24-7.809l42.262-15.027V169.21L88.044,180.094c-5.372,1.928-6.2,4.657-1.833,6.088s12.277,1.023,17.657-.909l14.588-5.294v15.327c-.925.165-1.957.329-2.91.49A95.612,95.612,0,0,1,70.1,192.137Z" fill="#fff"/></svg>