<svg id="Layer_1" data-name="Layer 1" xmlns="http://www.w3.org/2000/svg" xmlns:xlink="http://www.w3.org/1999/xlink" viewBox="0 0 293.99 293.99"><defs><radialGradient id="radial-gradient" cx="146.995" cy="146.995" fx="111.02825486161831" fy="85.78730249520322" r="146.995" gradientUnits="userSpaceOnUse"><stop offset="0" stop-color="#5fccf5"/><stop offset="0.25" stop-color="#01c0f3"/><stop offset="0.7" stop-color="#0182c6"/><stop offset="1" stop-color="#0367b2"/></radialGradient></defs><title>PSN</title><circle cx="146.995" cy="146.995" r="146.995" fill="url(#radial-gradient)"/><path id="path-1" d="M235.865,180.205c-3.534,4.46-12.2,7.641-12.2,7.641l-64.424,23.141V193.921l47.412-16.893c5.38-1.928,6.206-4.653,1.833-6.083s-12.269-1.024-17.654.912l-31.591,11.127V165.273l1.821-.617A108.441,108.441,0,0,1,183.032,160c12.836-1.414,28.554.194,40.893,4.871C237.83,169.268,239.4,175.746,235.865,180.205Zm-70.487-29.059V107.5c0-5.125-.945-9.844-5.754-11.18-3.683-1.179-5.968,2.24-5.968,7.362V212.976l-29.475-9.354V73.31c12.533,2.326,30.79,7.826,40.606,11.135,24.961,8.569,33.424,19.236,33.424,43.268C198.211,151.138,183.751,160.016,165.378,151.146ZM70.1,192.137c-14.275-4.019-16.651-12.4-10.145-17.222,6.014-4.455,16.24-7.809,16.24-7.809l42.262-15.027V169.21L88.044,180.094c-5.372,1.928-6.2,4.657-1.833,6.088s12.277,1.023,17.657-.909l14.588-5.294v15.327c-.925.165-1.957.329-2.91.49A95.612,95.612,0,0,1,70.1,192.137Z" fill="#fff"/></svg>