<svg id="Layer_1" data-name="Layer 1" xmlns="http://www.w3.org/2000/svg" xmlns:xlink="http://www.w3.org/1999/xlink" viewBox="0 0 298.709 232.656"><defs><linearGradient id="linear-gradient" x1="22.165" y1="101.155" x2="181.154" y2="234.563" gradientUnits="userSpaceOnUse"><stop offset="0" stop-color="#621992"/><stop offset="1" stop-color="#bb4dfe"/></linearGradient><linearGradient id="linear-gradient-2" x1="135.792" y1="135.875" x2="204.289" y2="-11.018" xlink:href="#linear-gradient"/><linearGradient id="linear-gradient-3" x1="219.167" y1="52.499" x2="219.167" y2="180.705" gradientUnits="userSpaceOnUse"><stop offset="0" stop-color="#dcddde"/><stop offset="1" stop-color="#ffffce"/></linearGradient><linearGradient id="linear-gradient-4" x1="144.295" y1="53.613" x2="144.295" y2="179.238" xlink:href="#linear-gradient-3"/><linearGradient id="linear-gradient-5" x1="64.396" y1="54.804" x2="64.396" y2="179.244" xlink:href="#linear-gradient-3"/></defs><title>RPGdotNet666</title><polygon points="61.917 53.781 61.917 232.656 227.917 178.833 227.917 175.656 63.046 53.781 61.917 53.781" fill="url(#linear-gradient)"/><polygon points="61.917 53.781 227.917 0 227.917 178.833 61.917 53.781" fill="url(#linear-gradient-2)"/><g opacity="0.56"><path d="M293.71,181.912a2.5,2.5,0,0,1-.533-.057C264.4,175.6,255.7,158.548,253.4,152.176a135.587,135.587,0,0,1-27.6,3.014c-30.331,0-45.2-11.577-50.276-16.693-14.243,4.441-28.528,14.824-28.676,14.932a2.5,2.5,0,0,1-3.481-3.512c6.56-8.793,19.468-17.913,24.342-21.192a33.661,33.661,0,0,1,1.725-32.074C178.716,80.905,199.19,71.5,224.207,71.5a131.928,131.928,0,0,1,32.1,4.291,9.213,9.213,0,0,0,5.867-3.24,2.5,2.5,0,0,1,2.037-1.051l3.327.075a2.5,2.5,0,0,1,2.441,2.39l1.063,24.25a2.5,2.5,0,0,1-2.5,2.61h-3.75a2.5,2.5,0,0,1-2.338-1.616c-3.152-8.325-18.044-14.6-34.643-14.6-13.793,0-25.411,4.342-31.878,11.911-4.739,5.548-6.746,12.739-5.982,21.406,24.383-9.722,47.89-9.723,56.966-9.723h35.292a2.5,2.5,0,0,1,2.5,2.5V113a2.5,2.5,0,0,1-2.5,2.5c-9.334,0-9.334,1.7-9.334,7.333v19.333c0,15.443,7.209,26.912,22.038,35.059a2.5,2.5,0,0,1-1.2,4.691Zm-96.13-49.745c6.778,4.976,17.659,7.871,30.061,7.871,12.587,0,21.256-3,23.318-5.39v-7.727C224.116,127.116,205.612,130.405,197.58,132.167Z"/><path d="M224.206,74.005a129.375,129.375,0,0,1,31.919,4.324,11.663,11.663,0,0,0,8.083-4.324l3.271.074,1.063,24.25h-3.75c-3.715-9.816-20.176-16.219-36.981-16.219-21.93,0-44.442,10.912-39.936,39.385,24.5-10.583,48.417-10.791,59.042-10.791h35.291V113c-11.416,0-11.833,3.417-11.833,9.834v19.333c0,18.25,9.833,29.833,23.333,37.25-33.75-7.333-38.583-30.167-38.583-30.167A134.271,134.271,0,0,1,225.8,152.69c-25.55,0-42.185-8.769-49.512-17.028-15.334,4.333-30.917,15.75-30.917,15.75,7.833-10.5,25.583-21.833,25.583-21.833C157.81,105.842,177.527,74,224.206,74.005m3.435,68.532c12.48,0,23.558-2.96,25.817-7.125v-11c-38.916,0-61.083,6.448-61.083,6.448l.51.531c7.779,8.056,22,11.146,34.756,11.146M264.184,69a4.652,4.652,0,0,0-4.025,2.064,6.73,6.73,0,0,1-3.743,2.177,134.033,134.033,0,0,0-32.21-4.24H224.2c-13.5,0-25.469,2.5-35.573,7.427-9.344,4.558-16.724,11.109-21.342,18.947a36.134,36.134,0,0,0-2.695,32.452c-5.833,4.041-17.123,12.415-23.223,20.591a5,5,0,0,0,6.963,7.023c.138-.1,13.2-9.584,26.546-14.107,6.227,5.756,21.674,16.352,50.928,16.352a136.455,136.455,0,0,0,26.066-2.654c3.453,7.892,13.533,23.343,40.777,29.262a5,5,0,0,0,3.469-9.268c-13.957-7.668-20.741-18.419-20.741-32.868V122.829c0-.932,0-3.408.33-3.959h0c.011,0,1.044-.875,6.5-.875a5,5,0,0,0,5-5V110.7a5,5,0,0,0-5-5H246.917c-8.806,0-30.993,0-54.621,8.65.018-6.481,1.871-11.915,5.539-16.209,5.99-7.013,16.916-11.035,29.976-11.035,15.358,0,29.548,5.7,32.3,12.988a5,5,0,0,0,4.677,3.231h3.75a5,5,0,0,0,5-5.219l-1.063-24.25a5,5,0,0,0-4.882-4.78l-3.27-.074-.138,0Zm-59.549,64.325a277.232,277.232,0,0,1,43.823-3.88v4.1c-2.4,1.667-10.08,3.991-20.817,3.991-8.87,0-16.882-1.508-23.006-4.208Z"/></g><g opacity="0.56"><path d="M130.917,169.208a2.5,2.5,0,0,1-1.78-.743L111.45,150.549a2.5,2.5,0,0,1-.721-1.757v-108c0-4.784,0-8.563-11.625-8.563a2.5,2.5,0,0,1-2.5-2.5V25.917a2.5,2.5,0,0,1,2.5-2.5h46.729c31.883,0,46.153,17,46.153,33.848,0,17.126-14.794,34.464-43.069,34.464h-15.5v74.979a2.5,2.5,0,0,1-2.5,2.5Zm2.67-129.459a4.629,4.629,0,0,0-.171,1.307v35.2l11.369-.025c6.731,0,12.415-2.021,16.441-5.847a17.433,17.433,0,0,0,5.493-12.547c0-9.085-7.514-18.252-24.3-18.252h-6.834A7.54,7.54,0,0,0,133.587,39.749Z"/><path d="M145.833,25.917c59.959,0,55.417,63.312,3.084,63.312h-18v77.479l-17.688-17.916v-108c0-5-.062-11.063-14.125-11.063V25.917h46.729M130.917,78.76l13.875-.031c31.625,0,34.31-41.646-2.375-41.646h-6.834c-2.75,0-4.583.167-4.666,3.917V78.76m14.916-57.843H99.1a5,5,0,0,0-5,5v3.812a5,5,0,0,0,5,5c6.455,0,8.127,1.413,8.486,1.846.639.772.639,2.523.639,4.217v108a5,5,0,0,0,1.442,3.512l17.687,17.917a5,5,0,0,0,8.559-3.513V94.229h13c13.485,0,25.054-3.889,33.455-11.247a34.443,34.443,0,0,0,12.114-25.717c0-9.828-4.437-18.864-12.495-25.444-8.736-7.134-21.239-10.9-36.158-10.9Zm-9.916,21.166h6.5c15.062,0,21.8,7.912,21.8,15.752,0,7.9-6.674,15.894-19.429,15.894l-8.875.02V42.083Z"/></g><g opacity="0.56"><path d="M100.667,185.083a2.5,2.5,0,0,1-1.853-.822L45,124.833H39.667v26.875c0,5.759,0,9.563,12.937,9.563a2.5,2.5,0,0,1,2.5,2.5v3.406a2.5,2.5,0,0,1-2.5,2.5H5a2.5,2.5,0,0,1-2.5-2.5V164.25a2.5,2.5,0,0,1,2.5-2.5c12.083,0,12.083-2.242,12.083-10.583V87.7c.008-4.335-.058-6.859-1.52-8.323C14.027,77.832,10.571,77.083,5,77.083a2.5,2.5,0,0,1-2.5-2.5V71.5A2.5,2.5,0,0,1,5,69H56.167c13.317,0,24.311,2.843,31.8,8.222,6.77,4.866,10.5,11.636,10.5,19.062,0,12.1-10.547,24.57-28.5,26.724l55.637,57.842a2.5,2.5,0,0,1-1.8,4.233Zm-59.125-103c-1.875,0-1.875.519-1.875,1.459v29.284c11.751-.13,21.138-1.957,27.207-5.3,4.858-2.679,7.425-6.193,7.425-10.161,0-7.226-8.713-15.277-21.216-15.277Z"/><path d="M56.167,71.5c55.5,0,47.875,49.333,8.229,49.333l59.4,61.75H100.667L46.1,122.333H37.167v29.375c0,6.875.812,12.063,15.437,12.063v3.406H5V164.25c14.083,0,14.583-4.083,14.583-13.083V88.5c0-8.583.5-13.917-14.583-13.917V71.5H56.167m-19,43.833h1.14c55.943,0,41.776-35.75,14.776-35.75H41.542c-1.542,0-4.375.292-4.375,3.959v31.791m19-48.833H5a5,5,0,0,0-5,5v3.083a5,5,0,0,0,5,5c6.721,0,8.431,1.19,8.8,1.555.8.8.8,3.595.789,6.552v63.477c0,2.287,0,5.744-.766,6.616-.3.344-1.832,1.467-8.817,1.467a5,5,0,0,0-5,5v2.927a5,5,0,0,0,5,5H52.6a5,5,0,0,0,5-5v-3.406a5,5,0,0,0-5-5c-7.032,0-9.031-1.316-9.564-1.882-.727-.772-.873-2.555-.873-5.181V127.333h1.72L96.961,185.94a5,5,0,0,0,3.706,1.643h23.125a5,5,0,0,0,3.6-8.466l-52.36-54.435a36.769,36.769,0,0,0,15.789-7.7c6.442-5.467,10.137-13.011,10.137-20.7,0-8.252-4.1-15.743-11.54-21.092C81.51,69.506,70.01,66.5,56.167,66.5Zm-14,18.083H53.083C63.8,84.583,71.8,91.329,71.8,97.36c0,3.793-3.335,6.429-6.133,7.972-3.769,2.079-10.834,4.522-23.5,4.939V84.583Z"/></g><path d="M293.335,176.333a1.52,1.52,0,0,1-.32-.034c-29.75-6.464-37.628-24.543-39.33-29.863a135.25,135.25,0,0,1-28.256,3.176c-25.147,0-42.152-8.562-49.987-16.828-14.619,4.392-29.4,15.149-29.556,15.259a1.5,1.5,0,0,1-2.088-2.106c6.83-9.156,20.7-18.71,24.821-21.445a32.682,32.682,0,0,1,1.305-31.912c9.1-15.438,29.249-24.654,53.907-24.654a131.147,131.147,0,0,1,32.035,4.3,10.082,10.082,0,0,0,6.75-3.681,1.515,1.515,0,0,1,1.219-.624l3.3.074a1.5,1.5,0,0,1,1.465,1.435l1.063,24.25a1.5,1.5,0,0,1-1.5,1.565h-3.75a1.5,1.5,0,0,1-1.4-.969c-3.29-8.694-18.585-15.249-35.577-15.249-14.086,0-25.981,4.469-32.637,12.261-5.166,6.047-7.208,13.94-6.082,23.482,24.641-10.15,48.65-10.15,57.825-10.15h35.292a1.5,1.5,0,0,1,1.5,1.5v2.292a1.5,1.5,0,0,1-1.5,1.5c-10.334,0-10.334,2.439-10.334,8.333v19.333c0,15.623,7.589,27.713,22.556,35.936a1.5,1.5,0,0,1-.721,2.814Zm-98.37-49.258c6.775,5.9,18.652,9.384,32.3,9.384,12.771,0,22.2-3.026,24.318-6.049v-9.074C221.591,121.467,201.709,125.478,194.965,127.075Z" fill="url(#linear-gradient-3)"/><path d="M223.831,69.426A129.423,129.423,0,0,1,255.75,73.75a11.659,11.659,0,0,0,8.083-4.324l3.271.074,1.063,24.25h-3.75c-3.715-9.816-20.176-16.219-36.981-16.219-21.93,0-44.442,10.912-39.936,39.386,24.5-10.584,48.417-10.792,59.042-10.792h35.291v2.292c-11.416,0-11.833,3.416-11.833,9.833v19.333c0,18.25,9.833,29.834,23.333,37.25-33.75-7.333-38.583-30.166-38.583-30.166a134.333,134.333,0,0,1-29.321,3.445c-25.55,0-42.185-8.77-49.512-17.029C160.583,135.417,145,146.833,145,146.833c7.833-10.5,25.583-21.833,25.583-21.833-13.148-23.737,6.569-55.577,53.248-55.574m3.435,68.533c12.48,0,23.558-2.961,25.817-7.126v-11c-38.916,0-61.083,6.448-61.083,6.448l.51.532c7.779,8.055,22,11.146,34.756,11.146m36.567-71.533a3,3,0,0,0-2.444,1.261,8.632,8.632,0,0,1-5.429,3.021,132.4,132.4,0,0,0-32.129-4.282v0h-.006c-13.2,0-24.868,2.43-34.7,7.225-8.99,4.385-16.078,10.666-20.5,18.164A34.155,34.155,0,0,0,166.7,123.97c-5.142,3.482-17.658,12.423-24.109,21.069a3,3,0,0,0,4.177,4.215c.146-.107,14.179-10.306,28.243-14.768,5.331,5.27,20.327,16.626,50.414,16.626a135.8,135.8,0,0,0,27.282-2.938c2.553,6.768,11.593,23.422,39.985,29.591a3.04,3.04,0,0,0,.639.069,3,3,0,0,0,1.443-5.63C280.124,164.153,273,152.829,273,137.583V118.25c0-2.481.062-4.446.838-5.286.653-.706,2.569-1.547,8-1.547a3,3,0,0,0,3-3v-2.292a3,3,0,0,0-3-3H246.542c-9.025,0-32.275,0-56.522,9.51-.591-8.23,1.393-15.069,5.919-20.367,6.371-7.459,17.851-11.737,31.5-11.737,16.4,0,31.094,6.14,34.175,14.281a3,3,0,0,0,2.806,1.938h3.75a3,3,0,0,0,3-3.131L270.1,69.369a3,3,0,0,0-2.929-2.868l-3.271-.074Zm-65.4,61.413c8.483-1.786,26.335-4.771,51.651-4.993v7.046c-2.117,2.266-10.557,5.067-22.817,5.067-11.744,0-22.1-2.607-28.834-7.12Z" fill="#3f056a"/><path d="M130.917,164.042a1.5,1.5,0,0,1-1.068-.446l-17.687-17.917a1.5,1.5,0,0,1-.433-1.054v-108c0-4.917,0-9.562-12.625-9.562a1.5,1.5,0,0,1-1.5-1.5V21.75a1.5,1.5,0,0,1,1.5-1.5h46.729c31.191,0,45.153,16.5,45.153,32.848,0,16.63-14.45,33.465-42.069,33.465h-16.5v75.979a1.5,1.5,0,0,1-1.5,1.5Zm4.666-129.625c-2.619,0-3.114.075-3.167,2.45V73.09l12.371-.027c6.99,0,12.912-2.117,17.129-6.122a18.441,18.441,0,0,0,5.8-13.273c0-9.582-7.824-19.251-25.3-19.251Z" fill="url(#linear-gradient-4)"/><path d="M145.833,21.75c59.959,0,55.417,63.313,3.084,63.313h-18v77.479l-17.688-17.917v-108c0-5-.062-11.062-14.125-11.062V21.75h46.729M130.917,74.594l13.875-.031c31.625,0,34.31-41.646-2.375-41.646h-6.834c-2.75,0-4.583.166-4.666,3.916V74.594M145.833,18.75H99.1a3,3,0,0,0-3,3v3.813a3,3,0,0,0,3,3c5.166,0,8.633.888,10.026,2.57,1.1,1.327,1.1,3.444,1.1,5.492v108a3,3,0,0,0,.865,2.108l17.688,17.916a3,3,0,0,0,5.135-2.107V88.063h15c12.993,0,24.106-3.718,32.137-10.752A32.448,32.448,0,0,0,192.486,53.1c0-9.216-4.176-17.7-11.759-23.894-8.375-6.839-20.441-10.454-34.894-10.454ZM134.007,35.986a12.814,12.814,0,0,1,1.576-.069h6.834c16.443,0,23.8,8.916,23.8,17.752,0,8.892-7.361,17.894-21.429,17.894l-10.875.024V36.869a4.683,4.683,0,0,1,.09-.883Z" fill="#3f056a"/><path d="M100.667,179.5a1.5,1.5,0,0,1-1.112-.493L45.439,119.25H38.667v27.875c0,5.9,0,10.563,13.937,10.563a1.5,1.5,0,0,1,1.5,1.5v3.406a1.5,1.5,0,0,1-1.5,1.5H5a1.5,1.5,0,0,1-1.5-1.5v-2.927a1.5,1.5,0,0,1,1.5-1.5c13.083,0,13.083-3.154,13.083-11.584V83.113c.008-4.181.013-7.2-1.812-9.031C14.513,72.32,10.932,71.5,5,71.5A1.5,1.5,0,0,1,3.5,70V66.917a1.5,1.5,0,0,1,1.5-1.5H56.167c13.106,0,23.9,2.778,31.212,8.034,6.5,4.673,10.082,11.154,10.082,18.25,0,12.086-11.019,24.563-29.66,25.926l57.072,59.333a1.5,1.5,0,0,1-1.081,2.54ZM41.542,76.5c-2.1,0-2.875.667-2.875,2.458V109.25c12.388-.036,22.3-1.914,28.69-5.437,5.2-2.865,7.942-6.682,7.942-11.037,0-7.7-9.124-16.276-22.216-16.276Z" fill="url(#linear-gradient-5)"/><path d="M56.167,66.917c55.5,0,47.875,49.333,8.229,49.333l59.4,61.75H100.667L46.1,117.75H37.167v29.375c0,6.875.812,12.063,15.437,12.063v3.406H5v-2.927c14.083,0,14.583-4.084,14.583-13.084V83.917C19.583,75.333,20.083,70,5,70V66.917H56.167m-19,43.833h1.14C94.25,110.75,80.083,75,53.083,75H41.542c-1.542,0-4.375.292-4.375,3.958V110.75m19-46.833H5a3,3,0,0,0-3,3V70a3,3,0,0,0,3,3c5.357,0,8.792.72,10.21,2.141,1.322,1.325,1.382,3.767,1.374,7.969v63.473c0,3.805-.09,6.6-1.264,7.937-1.269,1.444-4.644,2.147-10.319,2.147a3,3,0,0,0-3,3v2.927a3,3,0,0,0,3,3H52.6a3,3,0,0,0,3-3v-3.406a3,3,0,0,0-3-3c-12.437,0-12.437-3.412-12.437-9.063V120.75h4.607l53.669,59.264a3,3,0,0,0,2.224.986h23.125a3,3,0,0,0,2.162-5.08L71.015,118.8a35.771,35.771,0,0,0,18.515-7.931c5.994-5.086,9.431-12.074,9.431-19.172,0-7.591-3.8-14.5-10.707-19.468-7.569-5.441-18.665-8.316-32.087-8.316Zm-16,43.819V78.958a1.675,1.675,0,0,1,.12-.764S40.529,78,41.542,78H53.083C64.94,78,73.8,85.8,73.8,92.776c0,3.776-2.478,7.138-7.167,9.724-5.91,3.26-15.033,5.061-26.465,5.236Z" fill="#3f056a"/><g opacity="0.56"><path d="M231.354,197.467a2.55,2.55,0,0,1-2.55-2.55V176.57h-5.616a2.544,2.544,0,0,1,.528,1.555v5.708a2.547,2.547,0,0,1-1.127,2.117h.2a2.55,2.55,0,0,1,2.549,2.55v6.417a2.55,2.55,0,0,1-2.549,2.55H192.209a2.55,2.55,0,0,1-2.55-2.55V167.625a2.55,2.55,0,0,1,2.55-2.55h57.4a2.552,2.552,0,0,1,2.049,1.031l5.281,7.125a2.551,2.551,0,0,1-2.049,4.069H243.508v17.617a2.55,2.55,0,0,1-2.549,2.55Z"/><path d="M249.6,167.625l5.281,7.125H240.958v20.167h-9.6v-20.9H201.125v4.1h20.042v5.708H201.125V188.5h21.667v6.417H192.208V167.625h57.4m0-5.1h-57.4a5.1,5.1,0,0,0-5.1,5.1v27.292a5.1,5.1,0,0,0,5.1,5.1h30.584a5.1,5.1,0,0,0,4.281-2.328,5.1,5.1,0,0,0,4.281,2.328h9.6a5.1,5.1,0,0,0,5.1-5.1V179.85h8.827a5.1,5.1,0,0,0,4.1-8.137l-5.282-7.125a5.1,5.1,0,0,0-4.1-2.063ZM226.193,184.7a4.943,4.943,0,0,0,.061-.507v.562l-.061-.055Z"/><path d="M137.188,197.717a6.9,6.9,0,1,1,6.9-6.9A6.913,6.913,0,0,1,137.188,197.717Z"/><path d="M137.188,186.458a4.355,4.355,0,1,1-4.355,4.355,4.355,4.355,0,0,1,4.355-4.355m0-5.1a9.455,9.455,0,1,0,9.454,9.455,9.465,9.465,0,0,0-9.454-9.455Z"/><path d="M171.875,197.467a2.55,2.55,0,0,1-2.01-.981l-12.149-15.554v13.985a2.55,2.55,0,0,1-2.549,2.55h-9a2.55,2.55,0,0,1-2.55-2.55V167.625a2.55,2.55,0,0,1,2.55-2.55H161.75a2.552,2.552,0,0,1,2,.971l12.2,15.459v-13.88a2.55,2.55,0,0,1,2.55-2.55h9a2.55,2.55,0,0,1,2.549,2.55v27.292a2.55,2.55,0,0,1-2.549,2.55Z"/><path d="M187.5,167.625v27.292H171.875l-15.75-20.167h-.958v20.167h-9V167.625H161.75l15.583,19.75H178.5v-19.75h9m0-5.1h-9a5.1,5.1,0,0,0-5.1,5.1v6.532l-7.646-9.691a5.1,5.1,0,0,0-4-1.941H146.167a5.1,5.1,0,0,0-5.1,5.1v27.292a5.1,5.1,0,0,0,5.1,5.1h9a5.1,5.1,0,0,0,5.1-5.1v-6.578l7.589,9.717a5.1,5.1,0,0,0,4.019,1.961H187.5a5.1,5.1,0,0,0,5.1-5.1V167.625a5.1,5.1,0,0,0-5.1-5.1Z"/></g><path d="M171.875,192.542a1.5,1.5,0,0,1-1.183-.577l-14.025-17.959v17.036a1.5,1.5,0,0,1-1.5,1.5h-9a1.5,1.5,0,0,1-1.5-1.5V163.75a1.5,1.5,0,0,1,1.5-1.5H161.75a1.5,1.5,0,0,1,1.177.571L177,180.655v-16.9a1.5,1.5,0,0,1,1.5-1.5h9a1.5,1.5,0,0,1,1.5,1.5v27.292a1.5,1.5,0,0,1-1.5,1.5Z" fill="#fff200"/><path d="M187.5,163.75v27.292H171.875l-15.75-20.167h-.958v20.167h-9V163.75H161.75l15.583,19.75H178.5V163.75h9m0-3h-9a3,3,0,0,0-3,3v12.583l-11.4-14.441a3,3,0,0,0-2.355-1.142H146.167a3,3,0,0,0-3,3v27.292a3,3,0,0,0,3,3h9a3,3,0,0,0,3-3V178.363l11.344,14.525a3,3,0,0,0,2.364,1.154H187.5a3,3,0,0,0,3-3V163.75a3,3,0,0,0-3-3Z" fill="#3f056a"/><path d="M231.354,192.542a1.5,1.5,0,0,1-1.5-1.5v-19.4H202.625v1.1h18.542a1.5,1.5,0,0,1,1.5,1.5v5.708a1.5,1.5,0,0,1-1.5,1.5H202.625v1.667h20.167a1.5,1.5,0,0,1,1.5,1.5v6.417a1.5,1.5,0,0,1-1.5,1.5H192.209a1.5,1.5,0,0,1-1.5-1.5V163.75a1.5,1.5,0,0,1,1.5-1.5h57.4a1.5,1.5,0,0,1,1.2.606l5.282,7.125a1.5,1.5,0,0,1-1.206,2.394H242.459v18.667a1.5,1.5,0,0,1-1.5,1.5Z" fill="#fff200"/><path d="M249.6,163.75l5.281,7.125H240.958v20.167h-9.6v-20.9H201.125v4.1h20.042v5.708H201.125v4.667h21.667v6.417H192.208V163.75h57.4m0-3h-57.4a3,3,0,0,0-3,3v27.292a3,3,0,0,0,3,3h30.584a3,3,0,0,0,3-3v-6.417a3,3,0,0,0-2.205-2.893,2.992,2.992,0,0,0,.58-1.774V174.25a3,3,0,0,0-.21-1.1h4.4v17.9a3,3,0,0,0,3,3h9.6a3,3,0,0,0,3-3V173.875h10.927a3,3,0,0,0,2.411-4.786l-5.282-7.125a3,3,0,0,0-2.41-1.214Z" fill="#3f056a"/><path d="M137.188,192.792a5.855,5.855,0,1,1,5.854-5.854A5.861,5.861,0,0,1,137.188,192.792Z" fill="#fff200"/><path d="M137.188,182.583a4.355,4.355,0,1,1-4.355,4.355,4.355,4.355,0,0,1,4.355-4.355m0-3a7.355,7.355,0,1,0,7.354,7.355,7.363,7.363,0,0,0-7.354-7.355Z" fill="#3f056a"/></svg>