<svg id="Layer_2" data-name="Layer 2" xmlns="http://www.w3.org/2000/svg" viewBox="0 0 877.3 280"><title>sharpx1</title><path d="M275.644,18,417.513,262H250.156L108.287,18H275.644M286,0H77L239.8,280h209L286,0ZM125.754,179.348,173.81,262H43.36l82.394-82.652m3.788-29.3L0,280H205.1L129.542,150.052ZM481.712,18l-81.864,82.312L351.99,18H481.712M525,0H320.7l75.371,129.632L525,0ZM846.013,18,704.144,262H536.787L644.905,76.048,660.631,49h-66.9l28.224-31H846.013M877.3,0H614L553,67h76.344L505.5,280h209L877.3,0Z" fill="#fff"/><rect x="387.5" y="262" width="182.5" height="18" fill="#fff"/></svg>