<svg id="Layer_1" data-name="Layer 1" xmlns="http://www.w3.org/2000/svg" xmlns:xlink="http://www.w3.org/1999/xlink" viewBox="0 0 232.75 233"><defs><linearGradient id="linear-gradient" x1="81.66" y1="186.608" x2="81.66" y2="136.689" gradientUnits="userSpaceOnUse"><stop offset="0" stop-color="#ebebeb"/><stop offset="1" stop-color="#fff"/></linearGradient><linearGradient id="linear-gradient-2" x1="154.504" y1="116.86" x2="154.504" y2="57.793" xlink:href="#linear-gradient"/><linearGradient id="linear-gradient-3" x1="116.375" y1="233" x2="116.375" y2="0" xlink:href="#linear-gradient"/></defs><title>Steam</title><path d="M72.388,178.42l-14.405-5.97a24.857,24.857,0,0,0,45.426-1.21h0a24.9,24.9,0,0,0-31.8-32.92L86.5,144.49a18.374,18.374,0,0,1-14.114,33.93Z" fill="url(#linear-gradient)"/><path d="M183.989,87.322A29.485,29.485,0,1,0,154.5,116.86,29.548,29.548,0,0,0,183.989,87.322Zm-51.58-.045a22.145,22.145,0,1,1,22.14,22.183A22.172,22.172,0,0,1,132.409,87.277Z" fill="url(#linear-gradient-2)"/><path d="M116.25,0A116.515,116.515,0,0,0,0,108.76l.05.085v-.015l62.6,25.77a32.389,32.389,0,0,1,19.1-5.29L110.259,87.9c-.01-.184-.01-.38-.01-.576A44.25,44.25,0,1,1,154.5,131.66c-.33,0-.67-.01-1-.02l-40.79,29.15a32.295,32.295,0,0,1-63.816,7.89l-44.1-18.2A116.51,116.51,0,1,0,116.25,0Z" fill="url(#linear-gradient-3)"/></svg>