<svg id="Layer_1" data-name="Layer 1" xmlns="http://www.w3.org/2000/svg" viewBox="0 0 54.833 72.56"><title>vgmdb</title><path d="M9.083,24.5C3,36.334,0,42.918,0,53.168S5.75,66.751,9.083,66.751,22.628,62.205,26.5,56.918c1.246-1.7.75-7.917.75-7.917.1-2.833-1.667-1.333-5.917,1.5s-8.75,6.667-10.583,1.333S7.25,44.168,10.917,41s24.576-31.162,9.5-26.917C13,16.172,9.083,24.5,9.083,24.5Z" fill="#d40000"/><path d="M24.083,38.334c3.6-2.391,5.167-4.833,3.667-8s-2.333-3.25-4.667,0S13.167,45.584,24.083,38.334Z" fill="#d40000"/><path d="M26.167,6.084A23.4,23.4,0,0,1,42.083,0c10.167-.083,12.75,4.833,12.75,12.75V26.668L37.583,31c-8.25,1.917-7.25-8.917-7.25-8.917.146-5.031,8.084-8.437,8.084-8.437C44.323,10.834,45,.084,26.167,6.084Z" fill="#d40000"/><path d="M54.833,54.334S48.6,49.9,34.417,51.959V41.209C40.792,34.276,52,29.647,54.833,29.647Z" fill="#d40000"/><path d="M34.417,71.9v-17C45.6,47.084,54.479,70.022,34.417,71.9Z" fill="#d40000"/><path d="M26.729,61.272c-3,.875-6.625,7.812,0,4.562A4.157,4.157,0,0,0,26.729,61.272Z" fill="#d40000"/><path d="M18.343,71.647a5.441,5.441,0,0,1,3.824-4.25c2.312-.375,4.562,4.5,4.562,4.5A11.781,11.781,0,0,1,18.343,71.647Z" fill="#d40000"/></svg>