<svg id="Layer_1" data-name="Layer 1" xmlns="http://www.w3.org/2000/svg" viewBox="0 0 275.917 313.348"><title>XboxStore</title><rect x="39.255" y="100.181" width="154.5" height="154.5" fill="#fff"/><path d="M246.917,61.265,223.042,44.64,192.75,50.791c-10.135-27.6-27.638-36.789-38.641-39.7A58.777,58.777,0,0,1,164.77,25.371c8.283,5.606,17.314,17.147,19.376,27.167l-17.594,3.573c-9.635-80.846-123.135-75.6-118.192,24h0L0,89.931v178.4l222.75,45.021,53.167-20.4V65.265Zm-88.7-3.462L85.949,72.478c.327-7.654,3.637-39.109,35.68-53.133a44.229,44.229,0,0,0-13.036-2.66c-1.481.923-31.373,20.03-31.24,57.539L57.3,78.3C52.093-1.19,147.055-17.944,158.219,57.8Zm-12.052,60.962c-13.75,1.5-20.125,2.75-34.875,13.375,0,0-11.875-9.125-30.125-7.375C98.167,109.39,125.792,108.64,146.167,118.765ZM72.083,133.6c12.167,2,23.167,16.167,23.167,16.167-32.667,40.333-29,65-29,65C42.917,176.765,63.867,139.765,72.083,133.6Zm85,95.5c-11.166,15.833-58.666,27.333-85.166-7.167-.039-14.5,11.5-30.666,39.166-57.333C111.083,164.6,157.917,204.511,157.083,229.1Zm8.017-6.964c3.125-28.125-37.017-74.536-37.017-74.536,7.584-8.708,22.459-21.833,29.9-20.333C202.667,171.765,168.6,218.384,165.1,222.134Z" fill="#107c10"/></svg>