<svg xmlns="http://www.w3.org/2000/svg" viewBox="0 0 16 16"><polygon points="16 16 0 16 0 15 1.5 1.5 15 1 16 1 16 16"/><rect y="1" width="1.5" height="14" fill="#ac4c00"/><rect x="1" width="14" height="1.5" fill="#ac4c00"/><path d="M1,1V15H15V1ZM3,14H2V13H3ZM3,3H2V2H3Zm7,11H8V12h2Zm2-5H10v2H8V8.5l2-2L9,5H7V8H5V6.5l.5-3h4L10,5h2Zm2,5H13V13h1ZM14,3H13V2h1Z" fill="#fd9b00"/><polygon points="10 4 10 3 5 3 5 4 4 4 4 7 6 7 6 4 9 4 9 7 8 7 8 8 7 8 7 10 8 10 9 10 9 8 11 8 11 4 10 4" fill="#ac4c00"/><rect x="7" y="11" width="2" height="2" fill="#ac4c00"/></svg>