<svg xmlns="http://www.w3.org/2000/svg" viewBox="0 0 486.92239 486.84703"><path d="M163.08876,304.30643l19.517,19.49853L55.38305,451.054a13.80308,13.80308,0,1,1-19.53589-19.50511l127.2416-127.24245m-.01071-44.96144L13.36105,409.063a45.6031,45.6031,0,0,0,64.508,64.477l149.717-149.748-64.508-64.447Z" transform="translate(-0.00055 -0.03796)" fill="rgb(51, 51, 51)"/><path d="M446.82053,40.121,429.15988,74.26334,394.99228,91.929l17.69247-34.12665L446.82053,40.121M455.065.038,389.098,34.207l-33.774,65.146-79.312,79.403,32.163,32.224,79.373-79.403,65.207-33.714,34.138-65.997L455.065.038Z" transform="translate(-0.00055 -0.03796)" fill="rgb(51, 51, 51)"/><path d="M140.45717,129.86618l-.35724.96445,14.41229,14.41458,187.17,187.2,14.415,14.4173.97485-.3611a60.57076,60.57076,0,0,0-5.35779,4.78606,61.18033,61.18033,0,0,0-5.02533,5.68983l.519-1.42494-14.326-14.32843-187.13913-187.17-14.371-14.37329-1.15551.42435a63.26066,63.26066,0,0,0,5.49179-4.88992l.01943-.01944.01942-.01941a61.14446,61.14446,0,0,0,4.71024-5.31M91.73008.03806a90.24,90.24,0,0,0-39.094,9.12l60.58586,60.586a29.74233,29.74233,0,0,1,6.84014,10.944,30.37545,30.37545,0,0,1-49.825,32.011L9.65194,52.14307a90.23988,90.23988,0,0,0-9.12,39.094c0,48.274,37.604,87.36786,85.058,90.59l6.141.608a91.15109,91.15109,0,0,0,31.524-5.897l187.13913,187.17a91.83338,91.83338,0,0,0-5.86712,31.524l.63812,6.141c3.16186,47.484,42.286,85.05786,90.55988,85.05786a89.28234,89.28234,0,0,0,39.094-9.12l-60.586-60.586a31.03794,31.03794,0,0,1-6.901-10.913,30.30244,30.30244,0,0,1,28.393-40.978,29.89869,29.89869,0,0,1,10.57913,2.067,29.16185,29.16185,0,0,1,10.913,6.84l60.586,60.586a89.92106,89.92106,0,0,0,9.11987-39.094c-.03-48.27586-37.634-87.36986-85.088-90.59186l-6.141-.608a90.45407,90.45407,0,0,0-31.52387,5.928l-187.17-187.2a90.45474,90.45474,0,0,0,5.928-31.524l-.60816-6.141c-3.222-47.454-42.316-85.058-90.58985-85.058Z" transform="translate(-0.00055 -0.03796)" fill="rgb(51, 51, 51)"/></svg>