<svg xmlns="http://www.w3.org/2000/svg" viewBox="0 0 486.392 486.392"><path d="M196.496,153.098v28.198H31.5V168.098a15,15,0,0,1,15-15H196.496m31.5-31.5H30.399A30.4104,30.4104,0,0,0,0,151.997v60.799H227.996V121.598Z" transform="translate(0)" fill="rgb(51, 51, 51)"/><path d="M425.593,45.599C425.593,20.428,406.775,0,364.794,0c-39.307,0-70.253,17.692-91.198,38.212a60.02094,60.02094,0,0,0-61.407-.608C191.273,17.328,160.509,0,121.598,0,79.616,0,60.799,20.428,60.799,45.599s18.817,45.599,60.799,45.599H243.196l-.03-.243h.091l-.061.243H364.794C406.775,91.198,425.593,70.77,425.593,45.599Zm-236.721,15.2H121.598c-13.862,0-30.399-2.645-30.399-15.2s16.537-15.2,30.399-15.2c30.217,0,53.138,13.528,68.581,28.028Zm106.185-1.277c15.443-15.017,38.851-29.123,69.736-29.123,13.862,0,30.399,2.645,30.399,15.2s-16.537,15.2-30.399,15.2H295.756Z" transform="translate(0)" fill="rgb(51, 51, 51)"/><path d="M196.49605,274.696v180.1949H76.89905a15,15,0,0,1-15-15V274.696h134.597m31.5-31.5H30.39905v212.796a30.40967,30.40967,0,0,0,30.399,30.39889h167.198V243.196Z" transform="translate(0)" fill="rgb(51, 51, 51)"/><path d="M424.492,274.696V439.892a15,15,0,0,1-15,15H289.896V274.696H424.492m31.5-31.5H258.396V486.392H425.593a30.40978,30.40978,0,0,0,30.399-30.399V243.196Z" transform="translate(0)" fill="rgb(51, 51, 51)"/><path d="M289.896,153.098H439.892a15,15,0,0,1,15,15v13.198H289.896V153.098m-31.5-31.5v91.198H486.392V151.997a30.4104,30.4104,0,0,0-30.399-30.399Z" transform="translate(0)" fill="rgb(51, 51, 51)"/></svg>