<svg xmlns="http://www.w3.org/2000/svg" viewBox="0 0 488.29257 488.27944"><path d="M163.56958,36.98067,198.91773,76.18l10.99972,12.19812,16.32327-1.82641a163.5724,163.5724,0,0,1,18.12073-1.0203,153.56287,153.56287,0,0,1,17.42543.98444L278.138,88.39113,289.1736,76.18072l35.31461-39.07425q4.58811,1.784,9.09405,3.76657l-2.68268,52.49954-.84027,16.44385,12.89127,10.24313a159.646,159.646,0,0,1,25.25787,25.23786l10.24042,12.797,16.36886-.83188,52.75327-2.68084q1.00617,2.26149,1.92215,4.47329.91059,2.19819,1.79681,4.50385l-39.17224,35.38272-12.135,10.961,1.77329,16.25613a163.71617,163.71617,0,0,1,.02826,35.80858l-1.81528,16.299L412.14015,289.258l39.04639,35.26305q-1.7806,4.576-3.76611,9.08273l-52.54114-2.67493-16.44028-.837-10.24084,12.88843a157.63943,157.63943,0,0,1-25.19388,25.11614L330.14958,378.34l.839,16.41558,2.69864,52.80481q-2.25832,1.00464-4.46792,1.91975-2.1964.90981-4.50058,1.79553L289.323,412.07857l-10.98629-12.16629-16.2927,1.80786a166.0263,166.0263,0,0,1-18.239,1.02044,155.41246,155.41246,0,0,1-17.47057-.97858l-16.34271-1.85629-11.02158,12.20872-35.23339,39.02829q-4.57463-1.78014-9.07882-3.7646l2.67493-52.54112.837-16.44014L145.28159,368.156a157.64359,157.64359,0,0,1-25.11614-25.19371l-10.24172-12.85271-16.41286.83643L40.728,333.63582q-.99279-2.2399-1.91665-4.47082-.924-2.23057-1.81-4.52684l39.20038-35.39745L88.4003,278.22558,86.553,261.89387a158.43917,158.43917,0,0,1-.06386-35.62987l1.85628-16.34271L76.13673,198.89971l-39.02-35.22592q1.78254-4.58351,3.76351-9.08569l52.53407,2.67434,16.44443.83713,10.24057-12.89371A157.47608,157.47608,0,0,1,145.28888,120.095l12.85042-10.23984-.834-16.4103-2.68106-52.75739q2.24138-.99353,4.47378-1.918,2.2122-.91635,4.47156-1.78876M244.15888,361.834a117.724,117.724,0,1,0-117.724-117.724,117.85725,117.85725,0,0,0,117.724,117.724M173.3113,0a242.36509,242.36509,0,0,0-51.70757,21.418l3.74286,73.651a189.25033,189.25033,0,0,0-30.30543,30.23486L21.52273,121.5613A256.8019,256.8019,0,0,0,.0743,173.344l54.61929,49.30841a190.16713,190.16713,0,0,0,.06214,42.83815L0,314.93429A262.41271,262.41271,0,0,0,9.24716,341.411a254.25677,254.25677,0,0,0,12.21271,25.24829l73.67957-3.75471A188.94914,188.94914,0,0,0,125.3743,393.21l-3.74286,73.51757a255.40133,255.40133,0,0,0,51.783,21.44929l49.30843-54.61929a186.79908,186.79908,0,0,0,21.08211,1.183,197.36509,197.36509,0,0,0,21.76831-1.21556l49.4443,54.75443a269.953,269.953,0,0,0,26.448-9.23529,262.37143,262.37143,0,0,0,25.24829-12.21271l-3.767-73.70914a188.94915,188.94915,0,0,0,30.30542-30.23486l73.51758,3.74286a255.40114,255.40114,0,0,0,21.44928-51.783l-54.63144-49.338a195.46409,195.46409,0,0,0-.02041-42.82084l54.72528-49.43116a269.97972,269.97972,0,0,0-9.23514-26.448A262.40338,262.40338,0,0,0,466.84459,121.561l-73.651,3.74285a191.1756,191.1756,0,0,0-30.33572-30.29827l3.75515-73.488A256.81735,256.81735,0,0,0,314.83.06829l-49.39712,54.656a184.992,184.992,0,0,0-21.07138-1.19291,194.98215,194.98215,0,0,0-21.67905,1.21875L173.3113,0Zm70.84758,329.834a85.724,85.724,0,1,1,85.724-85.724,85.72746,85.72746,0,0,1-85.724,85.724Z" transform="translate(-0.00002 0.00001)" fill="rgb(196, 196, 196)"/></svg>