<svg xmlns="http://www.w3.org/2000/svg" viewBox="0 0 476.73687 476.73703"><path d="M429.06708,31.78a15.89,15.89,0,0,1,0,31.78H47.66993a15.89,15.89,0,0,1,0-31.78H429.06708m0-31.78H47.66993a47.67,47.67,0,0,0,0,95.34H429.06708a47.67,47.67,0,0,0,0-95.34Z" transform="translate(-0.00007 0.00003)" fill="rgb(51, 51, 51)"/><path d="M429.06708,222.4785a15.89,15.89,0,0,1,0,31.78H47.66993a15.89,15.89,0,0,1,0-31.78H429.06708m0-31.78H47.66993a47.67,47.67,0,0,0,0,95.34H429.06708a47.67,47.67,0,0,0,0-95.34Z" transform="translate(-0.00007 0.00003)" fill="rgb(51, 51, 51)"/><path d="M429.06708,413.177a15.89,15.89,0,0,1,0,31.78H47.66993a15.89,15.89,0,0,1,0-31.78H429.06708m0-31.78H47.66993a47.67,47.67,0,0,0,0,95.34H429.06708a47.67,47.67,0,0,0,0-95.34Z" transform="translate(-0.00007 0.00003)" fill="rgb(51, 51, 51)"/></svg>