<svg xmlns="http://www.w3.org/2000/svg" viewBox="0 0 476.83069 476.82654"><path d="M283.51773.00013c-106.712,0-193.21912,86.50708-193.21912,193.21911a192.31914,192.31914,0,0,0,27.08625,98.7132L13.86832,395.449a47.67,47.67,0,0,0,0,67.41541l.00012.00012a47.67,47.67,0,0,0,67.41547,0L184.80417,359.34424a192.31029,192.31029,0,0,0,98.71356,27.09412c106.712,0,193.21912-86.50714,193.21912-193.21912S390.22977.00013,283.51773.00013ZM397.67252,307.374a161.01353,161.01353,0,0,1-216.53131,10.68945L158.588,340.61652h0L58.812,440.39258a15.88992,15.88992,0,0,1-22.47174-22.47174l99.78052-99.78051,10.84509-10.8451,11.70288-11.70288q-5.11276-6.21213-9.5498-12.843A161.47018,161.47018,0,1,1,397.67252,307.374Z" transform="translate(0.09384 -0.00013)" fill="rgb(196, 196, 196)"/><path d="M283.51773,95.34a97.87922,97.87922,0,1,1-97.87923,97.87921A97.87934,97.87934,0,0,1,283.51773,95.34m0-31.78a129.65927,129.65927,0,1,0,91.68289,37.97632A128.81031,128.81031,0,0,0,283.51773,63.56Z" transform="translate(0.09384 -0.00013)" fill="rgb(196, 196, 196)"/></svg>