<svg xmlns="http://www.w3.org/2000/svg" viewBox="0 0 303.99506 486.37623"><path d="M151.997,31.78c14.89419,0,29.9935,6.55557,41.42609,17.98578C204.85718,61.19751,211.415,76.29932,211.415,91.199c0,14.8995-6.55771,30.00109-17.9917,41.43252-11.43259,11.43-26.53189,17.98547-41.4263,17.98547-14.904,0-30.00639-6.55468-41.43491-17.98327S92.579,106.1022,92.579,91.198s6.5544-30.00681,17.9827-41.43512S137.09258,31.78,151.997,31.78m0-31.78C103.175,0,60.799,42.377,60.799,91.198s42.377,91.199,91.198,91.199c48.791,0,91.198-42.377,91.198-91.198S200.788,0,151.997,0Z" transform="translate(0.00003 -0.00003)" fill="rgb(51, 51, 51)"/><path d="M151.997,244.576c28.862,0,58.44542,16.24894,81.16494,44.58046a173.07233,173.07233,0,0,1,28.28555,51.93166A198.20688,198.20688,0,0,1,272.215,406.076c0,5.39482-1.8299,10.11718-5.75894,14.86164-4.94364,5.96977-13.05906,11.70907-23.46882,16.59742-23.08895,10.84259-56.25354,17.06117-90.98977,17.06117S84.09679,448.37762,61.00774,437.535c-10.40966-4.88835-18.52506-10.62765-23.46883-16.59753C33.60985,416.19315,31.78,411.47079,31.78,406.076a198.21254,198.21254,0,0,1,10.76741-64.98848A173.07163,173.07163,0,0,1,70.83255,289.156c22.71918-28.33118,52.30248-44.58,81.16447-44.58m0-31.78C72.107,212.796,0,298.978,0,406.076c0,53.53353,75.99876,80.30029,151.99753,80.30029S303.995,459.6095,303.995,406.076c0-107.09694-72.108-193.28-151.998-193.28Z" transform="translate(0.00003 -0.00003)" fill="rgb(51, 51, 51)"/></svg>