<svg xmlns="http://www.w3.org/2000/svg" viewBox="0 0 476.73703 95.34001"><path d="M47.67,243.37172a15.89,15.89,0,1,1-15.89,15.89,15.90793,15.90793,0,0,1,15.89-15.89m0-31.78a47.67,47.67,0,1,0,47.67,47.67,47.67,47.67,0,0,0-47.67-47.67Z" transform="translate(0 -211.59171)" fill="rgb(196, 196, 196)"/><path d="M238.3685,243.37172a15.89,15.89,0,1,1-15.89,15.89,15.90793,15.90793,0,0,1,15.89-15.89m0-31.78a47.67,47.67,0,1,0,47.67,47.67,47.67008,47.67008,0,0,0-47.67-47.67Z" transform="translate(0 -211.59171)" fill="rgb(196, 196, 196)"/><path d="M429.067,243.37172a15.89,15.89,0,1,1-15.89,15.89,15.90795,15.90795,0,0,1,15.89-15.89m0-31.78a47.67,47.67,0,1,0,47.67,47.67,47.67,47.67,0,0,0-47.67-47.67Z" transform="translate(0 -211.59171)" fill="rgb(196, 196, 196)"/></svg>