<svg xmlns="http://www.w3.org/2000/svg" viewBox="0 0 432.63709 476.73701"><path d="M228.63853,34.19469V253.99791l12.379,9.54129L402.48914,387.99762a208.70614,208.70614,0,0,1-49.61175,35.032A206.56012,206.56012,0,0,1,180.019,428.73449a206.72575,206.72575,0,0,1,0-380.73185,204.36519,204.36519,0,0,1,48.61957-13.80795m31.78-34.19464C128.77953.00005,22.05,106.72963,22.05,238.36848S128.77953,476.73706,260.41852,476.73706c76.84388,0,145.017-36.55972,188.60886-92.99343L260.41852,238.36848V.00005Z" transform="translate(-22.04996 -0.00005)" fill="rgb(196, 196, 196)"/><path d="M333.16816,94.1888a154.054,154.054,0,0,1,53.32745,40.20709,152.73149,152.73149,0,0,1,32.55423,133.08556l-85.88168-66.185V94.1888m-31.78-42.82468V216.92723L433.561,318.78679a182.99284,182.99284,0,0,0,21.126-85.40765c0-91.35447-66.24878-166.90491-153.29889-182.015Z" transform="translate(-22.04996 -0.00005)" fill="rgb(196, 196, 196)"/></svg>