<svg id="Layer_1" data-name="Layer 1" xmlns="http://www.w3.org/2000/svg" viewBox="0 0 203.64673 203.64673"><title>pattern4</title><polygon points="84.146 115.258 12.021 43.133 0 55.154 0 97.581 12.021 85.56 41.719 115.258 0 156.978 0 199.404 0 199.404 84.146 115.258" fill="#e6e6e6"/><polygon points="118.087 191.626 106.066 203.647 148.492 203.647 160.513 191.626 88.388 119.501 4.243 203.647 4.243 203.647 46.669 203.647 88.388 161.927 118.087 191.626" fill="#e6e6e6"/><polygon points="190.212 161.927 203.647 148.492 203.647 106.066 190.212 119.501 160.513 89.803 203.647 46.669 203.647 4.243 118.087 89.803 190.212 161.927" fill="#e6e6e6"/><polygon points="84.146 13.435 97.581 0 55.154 0 41.719 13.435 113.844 85.56 199.404 0 156.978 0 113.844 43.133 84.146 13.435" fill="#e6e6e6"/><polygon points="190.212 111.016 203.647 97.581 203.647 55.154 168.999 89.803 190.212 111.016" fill="#e6e6e6"/><polygon points="33.234 115.258 12.021 94.045 0 106.066 0 148.492 33.234 115.258" fill="#e6e6e6"/><polygon points="190.212 170.413 33.234 13.435 46.669 0 4.243 0 0 4.243 0 46.669 12.021 34.648 168.999 191.626 156.978 203.647 199.404 203.647 203.647 199.404 203.647 156.978 190.212 170.413" fill="#e6e6e6"/><polygon points="109.602 191.626 88.388 170.413 55.154 203.647 97.581 203.647 109.602 191.626" fill="#e6e6e6"/><polygon points="92.631 13.435 113.844 34.648 148.492 0 106.066 0 92.631 13.435" fill="#e6e6e6"/></svg>