<svg id="Layer_1" data-name="Layer 1" xmlns="http://www.w3.org/2000/svg" viewBox="0 0 100 100.00013"><title>pattern2</title><rect width="100" height="100.00013" fill="#f0f0f0"/><polygon points="41.319 56.597 5.903 21.181 0 27.083 0 47.917 5.903 42.014 20.486 56.597 0 77.083 0 97.917 0 97.917 41.319 56.597" fill="#dcdcdc"/><polygon points="57.986 94.097 52.083 100 72.917 100 78.819 94.097 43.403 58.681 2.083 100 2.083 100 22.917 100 43.403 79.514 57.986 94.097" fill="#dcdcdc"/><polygon points="93.403 79.514 100 72.917 100 52.083 93.403 58.681 78.819 44.097 100 22.917 100 2.083 57.986 44.097 93.403 79.514" fill="#dcdcdc"/><polygon points="41.319 6.597 47.917 0 27.083 0 20.486 6.597 55.903 42.014 97.917 0 77.083 0 55.903 21.181 41.319 6.597" fill="#dcdcdc"/><polygon points="93.403 54.514 100 47.917 100 27.083 82.986 44.097 93.403 54.514" fill="#dcdcdc"/><polygon points="16.319 56.597 5.903 46.181 0 52.083 0 72.917 16.319 56.597" fill="#dcdcdc"/><polygon points="93.403 83.681 16.319 6.597 22.917 0 2.083 0 0 2.083 0 22.917 5.903 17.014 82.986 94.097 77.083 100 97.917 100 100 97.917 100 77.083 93.403 83.681" fill="#dcdcdc"/><polygon points="53.819 94.097 43.403 83.681 27.083 100 47.917 100 53.819 94.097" fill="#dcdcdc"/><polygon points="45.486 6.597 55.903 17.014 72.917 0 52.083 0 45.486 6.597" fill="#dcdcdc"/></svg>