<svg id="Layer_1" data-name="Layer 1" xmlns="http://www.w3.org/2000/svg" viewBox="0 0 121 38"><title>zebra2</title><polygon points="62 38 62 36.334 0 20.019 0 27.552 39.706 38 62 38" fill="#ebebeb"/><polygon points="0 29.103 0 38 33.812 38 0 29.103" fill="#ebebeb"/><polygon points="62 0 39.39 0 62 5.95 62 0" fill="#ebebeb"/><polygon points="62 17.168 0 0.853 0 8.635 62 24.95 62 17.168" fill="#ebebeb"/><polygon points="62 7.501 33.495 0 2.654 0 62 15.617 62 7.501" fill="#ebebeb"/><polygon points="62 26.501 0 10.186 0 18.468 62 34.783 62 26.501" fill="#ebebeb"/><polygon points="62 15.617 2.654 0 0 0 0 0.853 62 17.168 62 15.617" fill="#f0f0f0"/><polygon points="62 5.95 39.39 0 33.495 0 62 7.501 62 5.95" fill="#f0f0f0"/><polygon points="62 24.95 0 8.635 0 10.186 62 26.501 62 24.95" fill="#f0f0f0"/><polygon points="62 34.783 0 18.468 0 20.019 62 36.334 62 34.783" fill="#f0f0f0"/><polygon points="39.706 38 0 27.552 0 29.103 33.812 38 39.706 38" fill="#f0f0f0"/><polygon points="61 0 61 5.189 80.721 0 61 0" fill="#e9e9e9"/><polygon points="121 9.952 61 25.74 61 34.023 121 18.234 121 9.952" fill="#e9e9e9"/><polygon points="86.615 0 61 6.74 61 14.856 117.456 0 86.615 0" fill="#e9e9e9"/><polygon points="121 19.785 61 35.574 61 38 80.404 38 121 27.317 121 19.785" fill="#e9e9e9"/><polygon points="86.298 38 121 38 121 28.868 86.298 38" fill="#e9e9e9"/><polygon points="121 0.618 61 16.407 61 24.189 121 8.401 121 0.618" fill="#e9e9e9"/><polygon points="121 0 117.456 0 61 14.856 61 16.407 121 0.618 121 0" fill="#eee"/><polygon points="121 8.401 61 24.189 61 25.74 121 9.952 121 8.401" fill="#eee"/><polygon points="80.721 0 61 5.189 61 6.74 86.615 0 80.721 0" fill="#eee"/><polygon points="121 18.234 61 34.023 61 35.574 121 19.785 121 18.234" fill="#eee"/><polygon points="121 27.317 80.404 38 86.298 38 121 28.868 121 27.317" fill="#eee"/></svg>