<svg xmlns="http://www.w3.org/2000/svg" viewBox="0 0 121 38"><polygon points="121 38 61 38 51 19 61 0 121 0 121 38" fill="#e9e9e9"/><polygon points="55.498 27.547 121 9.996 121 7.925 54.543 25.732 55.498 27.547" fill="#efefef"/><polygon points="87.395 38 121 28.996 121 26.925 79.668 38 87.395 38" fill="#efefef"/><polygon points="59.88 35.873 121 19.496 121 17.425 58.925 34.058 59.88 35.873" fill="#efefef"/><polygon points="56.666 8.234 87.395 0 79.668 0 57.935 5.823 56.666 8.234" fill="#efefef"/><polygon points="121 0 115.122 0 52.88 16.678 53.398 18.61 121 0.496 121 0" fill="#efefef"/><polygon points="121 38 121 36.425 115.122 38 121 38" fill="#efefef"/><rect width="61" height="38" fill="#ebebeb"/><polygon points="0 10.424 61 26.769 61 24.699 0 8.354 0 10.424" fill="#f1f1f1"/><polygon points="0 29.424 32.005 38 39.732 38 0 27.354 0 29.424" fill="#f1f1f1"/><polygon points="0 19.924 61 36.269 61 34.199 0 17.854 0 19.924" fill="#f1f1f1"/><polygon points="61 17.269 61 15.199 4.278 0 0 0 0 0.924 61 17.269" fill="#f1f1f1"/><polygon points="61 7.769 61 5.699 39.732 0 32.005 0 61 7.769" fill="#f1f1f1"/><polygon points="0 36.854 0 38 4.278 38 0 36.854" fill="#f1f1f1"/></svg>