<svg id="Layer_1" data-name="Layer 1" xmlns="http://www.w3.org/2000/svg" xmlns:xlink="http://www.w3.org/1999/xlink" viewBox="0 0 162.305 61.627"><defs><clipPath id="clip-path" transform="translate(21.097 15.816)"><rect x="61" width="60" height="38" fill="none"/></clipPath><clipPath id="clip-path-2" transform="translate(21.097 15.816)"><rect width="61" height="38" fill="none"/></clipPath></defs><title>zebra</title><g clip-path="url(#clip-path)"><rect x="82.097" y="15.816" width="60" height="38" fill="#e9e9e9"/><rect x="54.987" y="4.955" width="87.469" height="1.5" transform="translate(22.895 41.127) rotate(-14.743)" fill="#eee"/><rect x="54.987" y="14.289" width="87.469" height="1.5" transform="translate(20.52 41.434) rotate(-14.743)" fill="#eee"/><rect x="54.987" y="-4.711" width="87.469" height="1.5" transform="translate(25.355 40.809) rotate(-14.743)" fill="#eee"/><rect x="54.987" y="24.122" width="87.469" height="1.5" transform="translate(18.018 41.758) rotate(-14.743)" fill="#eee"/><rect x="54.987" y="33.205" width="87.469" height="1.5" transform="translate(15.706 42.057) rotate(-14.743)" fill="#eee"/></g><g clip-path="url(#clip-path-2)"><rect x="21.097" y="15.816" width="61" height="38" fill="#ebebeb"/><rect x="-22.346" y="4.955" width="87.469" height="1.5" transform="matrix(0.967, 0.254, -0.254, 0.967, 23.253, 10.561)" fill="#f0f0f0"/><rect x="-22.346" y="-4.711" width="87.469" height="1.5" transform="matrix(0.967, 0.254, -0.254, 0.967, 20.793, 10.243)" fill="#f0f0f0"/><rect x="-22.346" y="14.289" width="87.469" height="1.5" transform="translate(25.628 10.868) rotate(14.743)" fill="#f0f0f0"/><rect x="-22.346" y="24.122" width="87.469" height="1.5" transform="matrix(0.967, 0.254, -0.254, 0.967, 28.131, 11.192)" fill="#f0f0f0"/><rect x="-22.346" y="33.205" width="87.469" height="1.5" transform="matrix(0.967, 0.254, -0.254, 0.967, 30.442, 11.491)" fill="#f0f0f0"/></g></svg>