<svg id="Layer_1" data-name="Layer 1" xmlns="http://www.w3.org/2000/svg" xmlns:xlink="http://www.w3.org/1999/xlink" viewBox="0 0 164 164"><defs><style>.cls-1{fill:url(#linear-gradient);}.cls-2{fill:#ff4e66;}.cls-3{fill:url(#linear-gradient-2);}.cls-4{fill:url(#linear-gradient-3);}.cls-5{fill:url(#linear-gradient-4);}.cls-6{fill:url(#linear-gradient-5);}.cls-7{fill:url(#linear-gradient-6);}.cls-8{fill:url(#linear-gradient-7);}.cls-9{fill:url(#linear-gradient-8);}.cls-10{fill:url(#linear-gradient-9);}.cls-11{fill:url(#linear-gradient-10);}.cls-12{fill:url(#linear-gradient-11);}.cls-13{fill:url(#linear-gradient-12);}.cls-14{fill:url(#linear-gradient-13);}</style><linearGradient id="linear-gradient" x1="20.01" y1="101.08" x2="20.01" y2="126.69" gradientUnits="userSpaceOnUse"><stop offset="0" stop-color="#4b5366"/><stop offset="1" stop-color="#195164"/></linearGradient><linearGradient id="linear-gradient-2" x1="31.44" y1="101.31" x2="31.44" y2="126.45" xlink:href="#linear-gradient"/><linearGradient id="linear-gradient-3" x1="43.11" y1="101.32" x2="43.11" y2="126.45" xlink:href="#linear-gradient"/><linearGradient id="linear-gradient-4" x1="52.86" y1="101.32" x2="52.86" y2="126.45" xlink:href="#linear-gradient"/><linearGradient id="linear-gradient-5" x1="62.1" y1="101.32" x2="62.1" y2="126.45" xlink:href="#linear-gradient"/><linearGradient id="linear-gradient-6" x1="71.18" y1="101.32" x2="71.18" y2="126.45" xlink:href="#linear-gradient"/><linearGradient id="linear-gradient-7" x1="80.02" y1="101.32" x2="80.02" y2="126.45" xlink:href="#linear-gradient"/><linearGradient id="linear-gradient-8" x1="94.37" y1="101.08" x2="94.37" y2="126.69" xlink:href="#linear-gradient"/><linearGradient id="linear-gradient-9" x1="106.38" y1="101.31" x2="106.38" y2="126.45" xlink:href="#linear-gradient"/><linearGradient id="linear-gradient-10" x1="121.3" y1="101.32" x2="121.3" y2="126.45" xlink:href="#linear-gradient"/><linearGradient id="linear-gradient-11" x1="134.28" y1="101.32" x2="134.28" y2="126.45" xlink:href="#linear-gradient"/><linearGradient id="linear-gradient-12" x1="144.11" y1="101.11" x2="144.11" y2="126.63" xlink:href="#linear-gradient"/><linearGradient id="linear-gradient-13" x1="81.96" y1="69.55" x2="81.96" y2="159.2" gradientTransform="matrix(1, 0, 0, -1, 0, 164)" gradientUnits="userSpaceOnUse"><stop offset="0" stop-color="#585366"/><stop offset="1" stop-color="#e15365"/></linearGradient></defs><title>Logo_Text_CMYKlike_SVG</title><path class="cls-1" d="M20,126.68c-3.77,0-5.85-2-5.85-5.65V106.74c0-3.65,2.06-5.65,5.8-5.65a6.49,6.49,0,0,1,4.27,1.29,5.44,5.44,0,0,1,1.63,4.36v3.33a1,1,0,0,1-1,1H21.21a1,1,0,0,1-1-1v-3.3a1,1,0,0,0-.09-.55H20a.49.49,0,0,0-.17,0,1.42,1.42,0,0,0-.08.54v4.69H24.8a1,1,0,0,1,1,1V121a5.41,5.41,0,0,1-1.63,4.35A6.41,6.41,0,0,1,20,126.68Zm-.16-5.16a.89.89,0,0,0,.23,0,.57.57,0,0,0,.26,0,.9.9,0,0,0,.09-.51v-4.55h-.67V121A.93.93,0,0,0,19.84,121.52Z"/><path class="cls-2" d="M23.54,103.16A5.41,5.41,0,0,0,20,102.1c-3.23,0-4.85,1.55-4.84,4.64V121q0,4.64,4.84,4.64a5.41,5.41,0,0,0,3.58-1.06A4.42,4.42,0,0,0,24.8,121v-8.58H19.86v3h1.53V121c0,1-.45,1.56-1.36,1.56S18.71,122,18.71,121V106.77c0-1,.41-1.57,1.25-1.57s1.25.52,1.25,1.57v3.3H24.8v-3.33A4.45,4.45,0,0,0,23.54,103.16Z"/><path class="cls-3" d="M33.63,126.45a1,1,0,0,1-1-.9l-.34-3.44H30.61l-.34,3.44a1,1,0,0,1-1,.9H25.68a1,1,0,0,1-1-1.11l2.51-23.13a1,1,0,0,1,1-.9h6.5a1,1,0,0,1,1,.9l2.51,23.13a1,1,0,0,1-1,1.11ZM31.78,117l-.33-3.38L31.12,117Z"/><path class="cls-2" d="M28.19,102.32l-2.51,23.13h3.58l.43-4.35H33.2l.43,4.35H37.2l-2.51-23.13ZM30,118l1.2-12.35h.46L32.89,118Z"/><path class="cls-4" d="M38.55,126.45a1,1,0,0,1-1-1v-3.13a1.06,1.06,0,0,1,.05-.31l5.15-15.58H38.81a1,1,0,0,1-1-1v-3.11a1,1,0,0,1,1-1h8.85a1,1,0,0,1,1,1v3.11a1.71,1.71,0,0,1,0,.32l-5.3,15.57h4.18a1,1,0,0,1,1,1v3.13a1,1,0,0,1-1,1Z"/><polygon class="cls-2" points="38.81 105.42 44.04 105.42 44.04 105.7 38.55 122.33 38.55 125.45 47.49 125.45 47.49 122.33 42 122.33 42 122.06 47.66 105.42 47.66 102.32 38.81 102.32 38.81 105.42"/><path class="cls-5" d="M49.25,126.45a1,1,0,0,1-1-1V102.32a1,1,0,0,1,1-1h7.22a1,1,0,0,1,1,1v3.11a1,1,0,0,1-1,1H53.94v4.88H56.4a1,1,0,0,1,1,1v3.07a1,1,0,0,1-1,1H53.94v4.93h2.53a1,1,0,0,1,1,1v3.13a1,1,0,0,1-1,1Z"/><polygon class="cls-2" points="49.25 125.45 56.47 125.45 56.47 122.33 52.94 122.33 52.94 115.39 56.4 115.39 56.4 112.32 52.94 112.32 52.94 105.42 56.47 105.42 56.47 102.32 49.25 102.32 49.25 125.45"/><path class="cls-6" d="M58.29,126.45a1,1,0,0,1-1-1V102.32a1,1,0,0,1,1-1H62a1,1,0,0,1,1,1v19h2.9a1,1,0,0,1,1,1v3.13a1,1,0,0,1-1,1Z"/><polygon class="cls-2" points="61.98 102.32 58.3 102.32 58.3 125.45 65.88 125.45 65.88 122.33 61.98 122.33 61.98 102.32"/><path class="cls-7" d="M67.36,126.45a1,1,0,0,1-1-1V102.32a1,1,0,0,1,1-1h3.71a1,1,0,0,1,1,1v19H75a1,1,0,0,1,1,1v3.13a1,1,0,0,1-1,1Z"/><polygon class="cls-2" points="71.07 102.32 67.36 102.32 67.36 125.45 75 125.45 75 122.33 71.07 122.33 71.07 102.32"/><path class="cls-8" d="M76.4,126.45a1,1,0,0,1-1-1V102.32a1,1,0,0,1,1-1h7.23a1,1,0,0,1,1,1v3.11a1,1,0,0,1-1,1H81.1v4.88h2.45a1,1,0,0,1,1,1v3.07a1,1,0,0,1-1,1H81.1v4.93h2.53a1,1,0,0,1,1,1v3.13a1,1,0,0,1-1,1Z"/><polygon class="cls-2" points="76.4 125.45 83.63 125.45 83.63 122.33 80.09 122.33 80.09 115.39 83.55 115.39 83.55 112.32 80.09 112.32 80.09 105.42 83.63 105.42 83.63 102.32 76.4 102.32 76.4 125.45"/><path class="cls-9" d="M94.36,126.68c-3.79,0-5.88-2-5.88-5.65V106.74c0-3.65,2.07-5.65,5.83-5.65h0a6.52,6.52,0,0,1,4.24,1.29,5.39,5.39,0,0,1,1.64,4.36v3.33a1,1,0,0,1-1,1H95.62a1,1,0,0,1-1-1v-3.3c0-.43-.09-.54-.09-.54h0a.43.43,0,0,0-.16,0,.49.49,0,0,0-.17,0,1,1,0,0,0-.09.54v4.69h5.13a1,1,0,0,1,1,1V121a5.34,5.34,0,0,1-1.64,4.35A6.47,6.47,0,0,1,94.36,126.68ZM94.1,121a.94.94,0,0,0,.1.52.45.45,0,0,0,.23,0c.28,0,.36,0,.36-.55v-4.55H94.1Z"/><path class="cls-2" d="M98,103.16a5.46,5.46,0,0,0-3.6-1.06q-4.87,0-4.87,4.64V121q0,4.64,4.87,4.64a5.46,5.46,0,0,0,3.6-1.06A4.43,4.43,0,0,0,99.23,121v-8.58h-5v3H95.8V121c0,1-.45,1.56-1.37,1.56S93.1,122,93.1,121V106.77c0-1,.42-1.57,1.26-1.57s1.26.52,1.26,1.57v3.3h3.61v-3.33A4.46,4.46,0,0,0,98,103.16Z"/><path class="cls-10" d="M108.55,126.45a1,1,0,0,1-1-.9l-.34-3.44H105.6l-.34,3.44a1,1,0,0,1-1,.9h-3.51a1,1,0,0,1-1-1.11l2.46-23.13a1,1,0,0,1,1-.9h6.37a1,1,0,0,1,1,.9L113,125.34a1,1,0,0,1-1,1.11ZM106.71,117l-.31-3.18-.3,3.18Z"/><path class="cls-2" d="M103.21,102.32l-2.46,23.13h3.51l.43-4.35h3.44l.42,4.35H112l-2.46-23.13ZM105,118l1.18-12.35h.45l1.2,12.35Z"/><path class="cls-11" d="M125.53,126.45a1,1,0,0,1-1-1v-2.13l-.24,2.24a1,1,0,0,1-1,.89h-4a1,1,0,0,1-1-.89l-.24-2.23v2.12a1,1,0,0,1-1,1h-3.38a1,1,0,0,1-1-1V102.32a1,1,0,0,1,1-1h5.63a1,1,0,0,1,1,.9l1,9.77,1-9.77a1,1,0,0,1,1-.9h5.63a1,1,0,0,1,1,1v23.13a1,1,0,0,1-1,1Z"/><polygon class="cls-2" points="121.39 120.54 121.14 120.54 119.26 102.32 113.63 102.32 113.63 125.45 117.01 125.45 117.01 107.31 117.31 107.31 119.26 125.45 123.28 125.45 125.22 107.31 125.53 107.31 125.53 125.45 128.91 125.45 128.91 102.32 123.28 102.32 121.39 120.54"/><path class="cls-12" d="M130.75,126.45a1,1,0,0,1-1-1V102.32a1,1,0,0,1,1-1h7.05a1,1,0,0,1,1,1v3.11a1,1,0,0,1-1,1h-2.44v4.88h2.37a1,1,0,0,1,1,1v3.07a1,1,0,0,1-1,1h-2.37v4.93h2.44a1,1,0,0,1,1,1v3.13a1,1,0,0,1-1,1Z"/><polygon class="cls-2" points="130.75 125.45 137.81 125.45 137.81 122.33 134.35 122.33 134.35 115.39 137.73 115.39 137.73 112.32 134.35 112.32 134.35 105.42 137.81 105.42 137.81 102.32 130.75 102.32 130.75 125.45"/><path class="cls-13" d="M144.12,126.63c-4.82,0-5.83-3.06-5.83-5.63v-3.32a1,1,0,0,1,1-1h3.52a1,1,0,0,1,1,1V121a1,1,0,0,0,.09.53h0a.54.54,0,0,0,.18,0,.22.22,0,0,0,.16,0,1,1,0,0,0,.09-.55v-2.82a1.9,1.9,0,0,0-1.07-1.59,12.44,12.44,0,0,1-1.53-1c-.53-.4-1-.74-1.53-1.12a5,5,0,0,1-1.41-1.92,6.36,6.36,0,0,1-.54-2.72v-3.06c0-3.64,2.07-5.64,5.83-5.64s5.81,1.9,5.81,5.64v3.31a1,1,0,0,1-1,1h-3.54a1,1,0,0,1-1-1V106.8a1,1,0,0,0-.09-.55h-.15a.49.49,0,0,0-.17,0,1.64,1.64,0,0,0-.07.54v2.84a1.92,1.92,0,0,0,1,1.57,13.82,13.82,0,0,1,1.54,1c.61.45,1,.69,1.55,1.1a5.18,5.18,0,0,1,1.42,1.92A6.85,6.85,0,0,1,150,118v3C150,124.63,147.9,126.63,144.12,126.63Z"/><path class="cls-2" d="M148.53,115.61a4.14,4.14,0,0,0-1.13-1.55c-.45-.35-.94-.71-1.48-1.06s-1-.66-1.48-.92a2.85,2.85,0,0,1-1.57-2.44V106.8c0-1,.41-1.57,1.25-1.57s1.24.52,1.24,1.57v3.28h3.54v-3.31c0-3.32-1.7-4.63-4.81-4.63s-4.83,1.55-4.83,4.63v3.06a5.42,5.42,0,0,0,.46,2.31,4,4,0,0,0,1.13,1.55c.45.37.94.72,1.46,1.08s1,.64,1.46.9a2.88,2.88,0,0,1,1.58,2.46V121c0,1-.43,1.56-1.26,1.56s-1.28-.51-1.28-1.56v-3.29h-3.52V121c0,3.31,1.72,4.63,4.83,4.63S149,124.08,149,121v-3.07A5.94,5.94,0,0,0,148.53,115.61Z"/><path class="cls-14" d="M81.83,94.41a10.53,10.53,0,0,1-3.48-.47c-1.09-.45-2.25-1.06-2.48-2.1a2.66,2.66,0,0,1,.9-2.26,2.32,2.32,0,0,1,1.93-.94,9.38,9.38,0,0,1,1.3.12A13.48,13.48,0,0,0,82,89a13.46,13.46,0,0,0,2-.23,9.45,9.45,0,0,1,1.07-.09,2.7,2.7,0,0,1,2.09,1c.71.71,1.29,1.43.71,2.54a4.42,4.42,0,0,1-1.55,1.49,10.91,10.91,0,0,1-4.52.73Zm-7-10.06a.88.88,0,0,0,.64-.28c.21-.23.48-.51.32-3.64-.47-8.18-2.65-15.44-7.07-23.54-1.88-3.47-2.46-5.36-2.29-7.48.12-1.7-.16-2-.29-2.14L65.9,47h-.36c-.58,0-1.13.26-1.92,3.37A21.36,21.36,0,0,0,62.9,55c0,3.91,1.87,9.21,5.56,15.75C71.41,76,73,79.59,73.51,82c.29,1.42.48,2.36,1.35,2.36Zm14.23,0c.8,0,1-.76,1.46-2.61.5-2.12,1.9-5.28,4.71-10.55,5.81-10.74,6.87-15.39,4.91-21.6-.57-1.84-1-2.47-1.7-2.47a.91.91,0,0,0-.69.31c-.27.3-.41.76-.28,2.11.17,2-.51,4.15-2.35,7.43a53,53,0,0,0-7,23.7c-.17,2.72,0,3.09.27,3.4a.88.88,0,0,0,.64.28ZM87.62,72.77l.25-.27c.33-.35.38-.55-.34-3a16.11,16.11,0,0,1-.67-4.36A7.39,7.39,0,0,1,89.35,59c3.19-3.17,4.49-6.62,5-13.18.61-8,1-9.72,4.52-20,3.82-11.1,4-16.09.85-19.79-.73-.84-1.27-1.2-1.78-1.2a1,1,0,0,0-.84.46c-.3.46-.21,1.09.27,2.13a8.94,8.94,0,0,1,.75,2.67c.13,1.23,0,1.69-2,6.78-1.27,3.19-2.68,6.58-3.21,7.73a50.4,50.4,0,0,0-3.46,11A46.34,46.34,0,0,1,88,40.73a11.57,11.57,0,0,1-3.53,4.57,6,6,0,0,1-2.33.35,6.93,6.93,0,0,1-2.51-.38c-2-.93-4-4.5-4.93-9.11a61.78,61.78,0,0,0-4.44-13.57c-4.1-9.72-4.55-11-4.39-12.57a9.88,9.88,0,0,1,.76-2.66c.48-1,.56-1.65.27-2.11a1,1,0,0,0-.84-.45c-.37,0-.87.14-1.82,1.22A10,10,0,0,0,62,12.48c0,2.79,1.55,8.87,4.15,16.29a56.35,56.35,0,0,1,3.5,16.63c.54,7.05,1.82,10.56,4.93,13.43a9.55,9.55,0,0,1,1.92,2.55c1,2.22.78,5.95-.58,10h0a.93.93,0,0,0,.14.82l.27.34h.42c.41,0,.71-.19,1.69-1.34C79.61,69.81,81,68.92,82,68.92a5.58,5.58,0,0,1,3.54,2.32c1.16,1.54,1.45,1.54,1.75,1.54Z"/><path class="cls-2" d="M84.16,89.58a9.57,9.57,0,0,1-4.26,0c-1.6-.21-1.84-.17-2.52.57-1.23,1.33-.92,2.11,1.29,3,1.5.64,6,.5,7.27-.21a3.79,3.79,0,0,0,1.23-1.16c.27-.53.18-.81-.56-1.55S85.54,89.41,84.16,89.58Z"/><path class="cls-2" d="M68,57.29c-2-3.62-2.57-5.65-2.39-7.94a3.31,3.31,0,0,0-.09-1.53c-.55,0-1.81,4.92-1.81,7.15,0,3.75,1.84,8.93,5.46,15.34,3.07,5.51,4.62,9.06,5.13,11.51.71,3.43.79,1,.67-1.35C74.53,72.4,72.41,65.33,68,57.29Z"/><path class="cls-2" d="M98.33,49.45c.19,2.19-.52,4.45-2.45,7.91A52.48,52.48,0,0,0,89,80.71c-.22,3.38.09,3.72.73.83.53-2.26,2-5.58,4.79-10.76,5.67-10.5,6.72-15,4.85-21C98.64,47.46,98.12,47.29,98.33,49.45Z"/><path class="cls-2" d="M98.06,25.5c3.71-10.79,4-15.54,1-19-1.23-1.4-1.75-1.16-1,.46a10.37,10.37,0,0,1,.83,3c.15,1.46,0,2.09-2.06,7.17-1.23,3.09-2.67,6.58-3.22,7.78A49,49,0,0,0,90.23,35.7a43.22,43.22,0,0,1-1.47,5.35,12.32,12.32,0,0,1-3.89,5,8.91,8.91,0,0,1-5.59,0c-2.28-1-4.38-4.83-5.4-9.72A61.45,61.45,0,0,0,69.5,22.91c-4.21-10-4.64-11.22-4.45-13A10.11,10.11,0,0,1,65.88,7c.76-1.62.24-1.86-1-.43a9.12,9.12,0,0,0-2,5.91c0,2.66,1.53,8.67,4.11,16a57.16,57.16,0,0,1,3.56,16.84c.45,6.86,1.65,10.18,4.59,12.9A10.26,10.26,0,0,1,77.26,61c1.07,2.4.89,6.31-.55,10.6-.1.33.36-.1,1.07-.93C79.16,69,80.69,68.05,82,68.05s3.1,1.16,4.2,2.65c.56.73,1,1.26,1.11,1.2a11.29,11.29,0,0,0-.52-2.23A16.48,16.48,0,0,1,86,65.1a8.17,8.17,0,0,1,2.73-6.75c3-3,4.27-6.27,4.73-12.65C94.1,37.63,94.5,35.83,98.06,25.5Z"/></svg>