<svg id="svg4173" xmlns="http://www.w3.org/2000/svg" viewBox="0 0 112 48"><title>3DS_dark_SVG</title><g id="layer1"><g id="g3361"><g id="g3363"><g id="g3405"><path id="path3407" d="M81.36,38.475c2.81,1.7,8.72,3.069,13.34,3.069,5,0,7.15-2.66,7.15-5.994,0-3-1.95-4.757-7.53-7.887-7.46-4.234-12.93-7.569-12.93-15.087C81.39,4.782,88,.21,98,.21a31.46,31.46,0,0,1,10.67,1.483v7.4c-3.37-1.023-6.35-2.669-11-2.669-5,0-7.08,2.413-7.08,4.9,0,3.621,3.26,5.35,9,8.469,8,4.368,12.41,7.733,12.41,15.1,0,7.569-5.54,13.041-18,13.041a48.721,48.721,0,0,1-12.64-1.483Z" fill="#333"/></g><g id="g3409"><path id="path3411" d="M54.77,6.736h-6V41.268h6c9.13,0,14.88-5.984,14.88-17.205S63.9,6.736,54.77,6.736m16,37.754c-2.94,2.045-8.5,3.334-13.37,3.334H38.77V.312H57.36c4.87,0,10.43,1.309,13.37,3.345,7.16,4.961,9.5,12.888,9.5,20.457s-2.32,15.456-9.5,20.457" fill="#333"/></g><g id="g3413"><path id="path3415" d="M25.75,21.823s8.67-2.117,8.67-10.4c0-8.1-9.24-11.415-19.06-11.415A58.791,58.791,0,0,0,.67,1.672V9.027A35.13,35.13,0,0,1,13.79,6.255c5.62,0,9.92,2.577,9.92,6.229,0,4.378-4.24,6.894-13.39,6.894H6.11v6.608H10c9.63,0,15.11,2.23,15.11,7.661,0,4.828-4.89,7.774-11,7.774C8.82,41.421,4,39.682,0,38.005v7.937a56.653,56.653,0,0,0,16.3,2.046c10.38,0,19.41-5.115,19.41-14.146,0-7.58-6.26-12.019-10-12.019" fill="#c80c0f"/></g></g></g></g></svg>