<svg id="svg4173" xmlns="http://www.w3.org/2000/svg" xmlns:xlink="http://www.w3.org/1999/xlink" viewBox="0 0 112 46.91"><defs><style>.cls-1{clip-path:url(#clip-path);}.cls-2{fill:#333;}.cls-3{fill:#c80c0f;}</style><clipPath id="clip-path"/></defs><title>3DS_dark_SVG</title><g id="layer1"><g id="g3361"><g class="cls-1"><g id="g3363"><g id="g3405"><path id="path3407" class="cls-2" d="M81.36,37.61c2.81,1.66,8.72,3,13.34,3,5,0,7.15-2.6,7.15-5.86,0-2.93-1.95-4.65-7.53-7.71-7.46-4.14-12.93-7.4-12.93-14.75C81.39,4.67,88,.2,98,.2a32,32,0,0,1,10.67,1.45l0,7.23c-3.37-1-6.35-2.61-11-2.61-5,0-7.08,2.36-7.08,4.79,0,3.54,3.26,5.23,9,8.28C107.57,23.61,112,26.9,112,34.1c0,7.4-5.54,12.75-18,12.75A50.09,50.09,0,0,1,81.36,45.4Z"/></g><g id="g3409"><path id="path3411" class="cls-2" d="M54.77,6.58h-6V40.34h6c9.13,0,14.88-5.85,14.88-16.82S63.9,6.58,54.77,6.58m16,36.91c-2.94,2-8.5,3.26-13.37,3.26H38.77V.3H57.36c4.87,0,10.43,1.28,13.37,3.27,7.16,4.85,9.5,12.6,9.5,20s-2.32,15.11-9.5,20"/></g><g id="g3413"><path id="path3415" class="cls-3" d="M25.75,21.33s8.67-2.07,8.67-10.17C34.42,3.24,25.18,0,15.36,0A59.92,59.92,0,0,0,.67,1.63V8.82A35.86,35.86,0,0,1,13.79,6.11c5.62,0,9.92,2.52,9.92,6.09,0,4.28-4.24,6.74-13.39,6.74H6.11V25.4H10c9.63,0,15.11,2.18,15.11,7.49,0,4.72-4.89,7.6-11,7.6C8.82,40.49,4,38.79,0,37.15v7.76a57.86,57.86,0,0,0,16.3,2c10.38,0,19.41-5,19.41-13.83,0-7.41-6.26-11.75-10-11.75"/></g></g></g></g></g></svg>