<svg id="svg2" xmlns="http://www.w3.org/2000/svg" viewBox="0 0 102.864 112"><title>Atari_Jaguar_SVG</title><g id="g10"><g id="g12"><path id="path18" d="M49.34,11.38c.26.07.38-.2.56-.31S53,10,53.05,10c.29-.29-.14-1,.11-1.13s.81-.09,1-.22C55.28,8,56.91,8,58,7.29c.33-.21.64-.74,1-.88.69-.27,1.54-.26,2.28-.56.39-.16.49-.77.72-1a7.011,7.011,0,0,1,1.44-1c.74-.6-2.84.11-1.53-1.19s6.33-.77,6.82-1.26l.09-.15C69.1.85,70,1.26,70,.31V0s-3.26.32-3.5.38c-2.11.52-4.82.28-6.79.87-.85.26-5.25,1-5.57,1.27l-.78.55c-3.65.73-7.35,1.14-11,1.75-1.81.3-4.46.38-6,.91s-3.77.59-5.21,1c-1.13.32-4.32-.36-5.32.07a1.778,1.778,0,0,0-.31,1.37c.14.14.55.1.72.22s.41.23.31.47-1.41-.06-1.75.5,1,1.62,1.28,2c.38.64-1.11.92-.78,1.75h.63a.869.869,0,0,1,.78.41l.27.22c.6.84,14.52-1.5,14.52-1.5S37.33,47,20.89,48.78c-3.76.42-7.74-4.4-8-4.5a1.285,1.285,0,0,0-.89,0,1.2,1.2,0,0,0,.16,1.44c1.87,2.13,7.44,6.7,13,6.56,17.26-.41,24.2-40.9,24.2-40.9" transform="translate(-0.042)" fill="#eb222c"/><path id="path20" d="M57.16,26.59h0c0-.94,2.12-3.94,2.47-5.32h0c.23-.11.3-.88.37-.94.62-.46,1.61-2.63,2.54-3.56l1-1c.07-.07.21-.13.28-.06A18,18,0,0,1,63.7,19c-.18.89.11,3.69-.07,4.1s-1,.66-1.76,1.1a15.866,15.866,0,0,1-3,1.5c-.42.08-.35.93-1.63.93Zm-9,3.37v.09c0,1.75,1.22.53,1.63.94a2.524,2.524,0,0,1-.1,1,77.786,77.786,0,0,1-4.53,8.66c-.11.16-.1.39-.19.56-.64,1.3-1.66,2.73-2.19,3.79-.2.4-.24.85-.47,1.31,0,0-.12.87-.18.75,0,1.11-1.16,3.07-.75,3.88.12.24,0-.19.18-.28.3-.2.74-.36.94-.66s.54-2,.66-2.06c.43-.29.69-.89.69-.1a2.49,2.49,0,0,1-.1.94v.47l-.12.28V50l.12-.19.1-.18a.655.655,0,0,1,.09-.38c.09-.15,0-.21,0-.22l.16-.15c.23-.23,0-.71.28-.94a12.837,12.837,0,0,0,.75-1.25l.56-1c.09-.18.15-.5.28-.37.68.67.51,2.44.19,3.41a2.835,2.835,0,0,0-.19.65c.07.07.11-.14.19-.18.88-.44.24-1.4.47-1.63.9-.9,1-2.54,2-3.47,1.57-1.56,4.49-11.65,6-13.13,1.18-1.18,7.55-2.55,8.76-3.76.79-.78.75,1.42.75,1.69v6.88c.2.61.56,1,.75,1.53.3.9-.27,4.42.69,5.38.14.14.08-.18.09-.18a3.722,3.722,0,0,0,.47-1.16c0-.2.05-.71.19-.57s.94,3,1,3.13,0,.59.09.85.26.24.29.28.06.25.09.19c.2-.41.13-1,.37-1.51s.2-1.35.47-1.62c.43-.43,1.06,1.08,1.13,1.16s.4.35.47.28V41.56c0-3,0-19.42.09-19.61s.79-10.26.79-11.41c0-1.42-.24-1.08-1-1.82A7.654,7.654,0,0,1,70,7.13l-.75-.66c-.29-.29-2.35.94-3.19.94-1.82,0-1.37.59-2.28,1.5,0,.05-.14,0-.19-.09-.19-.2-.19-.21-.19-.56V8c-.14-.07-.85.23-.94.29a6.222,6.222,0,0,0-1.21,2.09c-.53,1.06-1.35,1.88-1.91,3a19.667,19.667,0,0,1-.75,2.38,39.244,39.244,0,0,0-4.72,7.16c-.1.19-.47,1.5-.47,1.5A30.629,30.629,0,0,0,51,28.55c-.08.24-1.5.82-1.79.94s-.65.06-.87.28-.06.14-.06.14l-.13.05" transform="translate(-0.042)" fill="#eb222c"/><path id="path22" d="M88.88,7.36h.05a2.573,2.573,0,0,1,.56.15c.16.11,0-.11.19,0a7.706,7.706,0,0,0,1,.82,1.83,1.83,0,0,0,.66,0h.25a7.906,7.906,0,0,0,1.5,2.31c.22.14.73.13,1,.29h.44c0,.49-1.23.84-.88,1.18.52.53.64,1.15-.53,1.44-.87.22-1.85-.11-2.69.22a26.648,26.648,0,0,1-3,1.44h0c-4.91,1.64-10,8.59-10,13.82v.19c0,3.46,2,7.4,5.19,8.66.43.18.78.66,1.32.75a8.61,8.61,0,0,0,1.53.35,15.572,15.572,0,0,0,2.78.15c.71-.41,1.51-.65,2.22-1.12.38-.25.09-1.49-.06-1.57-.81-.4-.1-5.34.22-6.28.26-.78.81-2,.37-2.44l-.12-.13a1.676,1.676,0,0,0-.6-.09c-.66.44-2.51.16-2.78.31-1,.55-1.92,1-2.88,1.5-.25.15-1.85,1.12-2,.75,0-.08.2-.23.25-.28a6.582,6.582,0,0,1,.88-.78c.55-.33,1-1.85,1.53-2.31A20.278,20.278,0,0,1,92,23.52h.16l.06-.13,1.19-.53c.41-.2.64-.78,1.06-.85s.5.41.75.54c.93.46,1.94-.55,1.94.53v.84c-.5.51-.13,1.81-.43,2.41-.15.29-1.29,4.72-1.29,4.85s-.42,2-.44,2.06c-.15.19-.21,5.29-.21,6A8.613,8.613,0,0,0,95.31,42a3.21,3.21,0,0,1,.19.68c0,.11.1.12.06.16-.2.2-.46-.29-.53-.31-1.65-.47-3.23-3.2-3.29-3.22-.83-.34-.78,1.08-1.43,1.4a7.126,7.126,0,0,0-2,1.72c-.5.67-5.7.62-6.17.16-.67-.68-2-.58-2.68-1.13a62.14,62.14,0,0,1-4.66-4.28,17.194,17.194,0,0,0-1-2.44,56.055,56.055,0,0,1-.88-5.6c-.52-7,3.36-13.91,8.14-18,.68-.58,1.43-1.67,2.25-2,1-.39,1.82-.56,2.85-.91a17.252,17.252,0,0,0,2.28-.69c.11,0,.29-.19.44-.15h0" transform="translate(-0.042)" fill="#eb222c"/><path id="path24" d="M36.92,69.88a10.573,10.573,0,0,1,.47-1.22c.66-1.1,1.35-2.47,2.09-3.47s3.85-4.93,3.1-1.19a8.024,8.024,0,0,0-.5,2c0,1.6-.38,1.42-1.56,1.72S38,69.88,36.92,69.88ZM11.09,53.05H11c.16.17-.13.13-.13.13a2.72,2.72,0,0,0-.63.75c-.14.44-1.77,2.31-1.5,3.13a3.459,3.459,0,0,0-.37.25,15.18,15.18,0,0,0-.88,1.62c-.25.39-1.76,4.42-2,5.13a2.689,2.689,0,0,1,0,.75c-.49,1-1.13,2-1.63,3-.72,1.44-1.24,4-2.12,5.75a30.141,30.141,0,0,0-1.63,6.5,31.621,31.621,0,0,0,0,4.13A7.418,7.418,0,0,0,.21,86c.05.11.29.58.37.5-.13.4.61.6.75.75s.3.67.38.75.36.14.25.25c1.19-.39,2.91.57,4.5-.5.34-.22,2.83-1.77,2.88-1.75l.37-.5c.36-.54,1.06-.87,1.38-1.5s1.63-2.75,2.25-2.75c-1,.15-.25,6-.25,6.75h.25c0,.28.17,1.3.5,1.13-.09.28.64.72.88.87,1.45,1,3.57-1.43,4.13-.87.09.09-.55,1.17-.63,1.5A47.407,47.407,0,0,1,16,95.33a5.239,5.239,0,0,0-1.25,2c0,.35-.06.45.12.63,0,0,0,.29.13.12v.25c.15-.14.49.62.5.63.23.24,1.66-.39,1.5-.88.15.15.22-.45.37-.5.58-.19.72.46.88.38.59-.29,1.75-2.13,1.75-.75h.25V97a2.6,2.6,0,0,0,.5-.25,18.252,18.252,0,0,0,2.38-3.63c.08-.25.73-1.07.87-1v-.25c.12.11.25-.24.26-.25s.41-.23.62-.38.11-.19.25-.12c-.1-.3.15-.65.38-.88,1.53-1.53,4.9-8.69,6.12-11.13a24.663,24.663,0,0,1,2-2.62L35,76.32c.09,0,.49-.14.38-.25.21.07,3.2-2.38,4.25-2.38-.08-.07.41-.35.5-.37a5.833,5.833,0,0,1,1.37-.38v-.25c.16,0,1.05-.46,1.26-.25.49.49-.51,4.46-.51,4.51a13.571,13.571,0,0,0,.38,1.75h.25c0,1.74.25,3.46.25,5.25v.5h.75c.69.69.12,3.74,1.13,4.75v.13c0,.28.13.37.37.37,0,.46,0,.53-.25.75a2.773,2.773,0,0,1,.13.63c.31-.16.23.36.25.37.4.41,0,1.28-.25,1.76,0,0-.09.83.12.62-.14.44.25.17.25.63h.25c0,.05.32.32.38.5a3.266,3.266,0,0,1,.25,1h.12v.37h.25l.13.25v.25c.27.27.29-.78.12-1.12-.25-.51.13-1.77.13-2.38a46.711,46.711,0,0,1,.5-4.88c.54-1.62.33-10.44.5-11.13a57.045,57.045,0,0,0,1-10.76,31.5,31.5,0,0,1,.87-7,13.443,13.443,0,0,1,.51-2.25c.08-.16.29-.22.37-.38,0,0,.08-.7-.12-.5v-.62h-.25s.07-.57-.13-.38v-.25c-.47,0-1.09-.25-1.63-.25-.06,0-1.11-.13-1-.25h-.25c.14-.13-.33-.33-.5-.25v-.25L47,54.05h-.38c.11-.1-.34-.34-.37-.37-.2-.2-.11-.66-.38-.75s-.57.3-.75.12c.23.68-.68.5-.87.88-.36.73.11,1.78-.25,2.5l-1.25,1.13a.07.07,0,0,0-.024.1.069.069,0,0,0,.024.024c-.42,0-1.18.8-1.26.75.07.07,0,.19-.12.25-.23.24-.82.51-1,.88-.38.75-1.48,1.46-1.88,2.25-.65,1.3-2.17,3.59-3.5,4.25-.23.12-.68,1.41-1,1.25.07.22-.95,1.15-1.13,1.51-.42.84-1.76,3.39-2.25,4.12-.26.39-1.1.69-1,1,0,0-1.34.84-1.25,1.13A10.739,10.739,0,0,0,26.1,76.7c-.37.37-1.84.29-2,.62s.68,1.39.38,2c-.2.4-.88.56-.88,1h.63c.62,0,1-.37,1.5-.37.08,0,.2,0,.12.12a66.186,66.186,0,0,1-4,5.88,10.181,10.181,0,0,1-1.5-.12c-.15-.15-.23-.65-.38-.5V82.82c.64-1.27.61-3,1.25-4.25.86-1.71,2.61-6.6,3.38-7.75.2-.3.48-.44.38-.88h.12c.55-2,1.84-4,2.5-6a15.425,15.425,0,0,1,1.13-2.75l.5-.38c-.07-.2.5-1.12.25-1.38,0,0-.47-.4-.38-.5h-.25l-.12-.12v-.25c-.42.41.35-2.35-.13-1.88,0-1-2.05-.87-2.87-.87l-.13-.13v-.25c-.09.1-.24-.12-.37-.12a6.485,6.485,0,0,0-1.51.12c-.82.55-2.6,5.11-3.37,5.88l-.38,1c-.11.22-.52.4-.37.63h-.13c.37,1.09-.66,1.92-1.12,2.62a47.536,47.536,0,0,0-.75,4.76h-.26c0,.11-.13.62-.25.5.14.54-.71,1.64-.87,2.12-1.71,5.12-1.15,3.28-4.75,6.88-.67.66-1.18,1.71-2,2.25a6.44,6.44,0,0,0-1.12.75.09.09,0,0,0,0,.127l0,0H8.09c.18.18-.91.46-.75.63-.06,0-1.59,1.58-2.75,1C3,83.8,6,78.1,5.84,77.57a2.238,2.238,0,0,0,.5-.62c.34-.68.21-1.88.62-2.5,1-1.45,2-2,2-4.13l.13-.25h.25a3.534,3.534,0,0,0,.25-.75.089.089,0,0,0,.12,0l.63-.63c.67-.66.71-1.92,1.13-2.75.21-.43.93-.74,1.12-1.13s-.15-1.44.13-2c0-.08.26-.61.37-.5-.08-.25,2.26-3.36,2.13-3.63h.25c-.15-.29,1.12-2.53,1.12-2.62h-.25v-.25c-.18.18-.65-.66-.75-.75a.08.08,0,0,0-.113-.007l-.007.007v-.25h-.25c.16-.17-.13-.13-.13-.13s-.09-.79-.25-.63a12.893,12.893,0,0,0-.37-1.25h-.25c.47-.94-1.48-.67-2-.5-.29.1-.94.88-1.13.75" transform="translate(-0.042)" fill="#eb222c"/><path id="path26" d="M50,99.32v-.74c0-.46.53-1.28.41-1.4-1.18-1.18,1.33-4.64,1.94-6.07a11.5,11.5,0,0,0,0-1.44c0-.05.47-.19.4-.31a1.742,1.742,0,0,1-.21-1.19c.11-.27.52-.39.62-.62a9.173,9.173,0,0,1,.59-1.63c.07-.1.07-.58.22-.81s.1-.35.19-.5c.29-.49.76-.51.91-1,.26-.88-.22-2,0-2.54.39-1,1.85-5.83,2.13-6.19l.31-.4c.56-.74,0-1.66.31-2.35A18.551,18.551,0,0,1,58.93,70a18.16,18.16,0,0,1,.82-2.72,7.787,7.787,0,0,0,.31-2c-.15-.15-.63.5-.81.63s-.68.17-1,.5c-.1.1-3.17.76-2.94-.22a3.266,3.266,0,0,1-.41-.28c-.28-.12-.17.06-.5-.13,0,0-1-.06-1-.09-.68-.68-.68-.94-1.5-1.41-.21-.12,0-.24-.41-.13.09-.06-.31-.18-.31-.18-.16-.16.1-1.44.19-1.53.62-.63,2.85-2,2.53-3,.23-.1,0,0,.22-.19a4.153,4.153,0,0,1,.72-.4A11.493,11.493,0,0,0,56.93,58a3.134,3.134,0,0,1,.82-.4,41.29,41.29,0,0,1,4.53-1.63c.34-.1.44-.47.81-.62S64,55.2,64.22,55l.31-.22c1.62-1.14,5.87-.63,6.69-1.1.52-.29,1-.94,1.41-1.12.62-.31,7.35.73,7.82,1,.79.45,1.23.45,1.81,1,0,0,.64.91.81.81,0,.54,1.34.75,1.41.91a2.913,2.913,0,0,0,1.22,1.31,4.7,4.7,0,0,1,.31.81,3.456,3.456,0,0,0,.82,1c.36.37,0,1.08.18,1.54.12.23-.13,1.07-.09,1.31-.24.57.11,1.7-.09,2.35a14.147,14.147,0,0,1-2.25,4.25c-.65.92-1.73,1.11-2.23,1.81-.08.13-.28.84-.5.91a11.389,11.389,0,0,0-2.62,1.44A4,4,0,0,1,78,74l-.41.1h-.22c0,.06,2.19,2.06,2.35,2.22,1.21,1.21,1.83,3.15,2.84,4.16A18.809,18.809,0,0,1,85,83h.13c2.81,1.12,5.7,5.24,8.28,6.38-.06.11.55.56.63.63a10.788,10.788,0,0,1,1.62,1.62c.43.63,5.44,5.32,6.59,6.47a3.131,3.131,0,0,1,.2,1.44c.25-.82-4.09-2.75-4.38-3.47s-4.25-3.8-5.25-4.16c0,0-2.65-2.55-2.94-2.72-.73-.44-2-.87-2.75-1.4C86,87,85.57,85.81,84.89,85c-.45-.52-1.2-.39-1.91-1.62-.07-.12-.69-.42-.81-.6l-.17-.3c-.31-.44-.75-.62-1.13-1,0,0-.11-.44-.28-.53s-.76-.49-.62-.69h-.28c.06-.11-.37-.36-.41-.5a5.851,5.851,0,0,0-.81-1h-.82l-.5-.32c-.06,0-.4-.18-.31-.28-.42,0-1.31-.9-1.63-1.22s-1.39-.14-1.72-.9c-.17-.4-.67-.56-1-.81-.21-.15-.49-.27-.59-.5l-.19-.41c-.06-.14,0-.16,0-.16l-.18-.06c-.18-.06-.09-.08-.09-.19V74l.19.19.12.32a1.062,1.062,0,0,1,.09.5,1.127,1.127,0,0,0,.32.81,17,17,0,0,1,1.5,1.44c.45.52,1.49,1.27,2,1.81,1.06,1.06,2.76,2,4.07,3.35a10.216,10.216,0,0,1,1.09,1.5v.12l1.12.28c1,1.15,2.67,1.82,3.35,3.35.11-.07.14.09.19.13.47.32,1.46,1.15,1.53,1.59.29-.12.38.32.59.41,2.37,1,5.09,3.55,6.92,5.38.16.16,1,1.51,1.31,1.62A6.463,6.463,0,0,1,97.87,98a4.652,4.652,0,0,1,.31.91s3.53,3.61,3.84,3.75v.09c.13.43.82.41.82.82,0,.16.15.43,0,.5s-.28-.12-.32-.19-2.37-2.32-2.43-2.34c-1.7-.68-6.51-5.42-8.82-6.57-1.8-.9-4.29-3.73-5.76-5.19-.72-.73-1.14-1.33-1.62-1.82-.2-.19-1-.33-1.22-.59L82.45,87c-1.88-.83-2.88-2.37-4.44-2.84L77.7,84h-.1c-.1-.24-5.16-6-5.38-6.1-.4-.2-4.6-2.88-4.75-3s0-.69.19-1c.83-1.93,1.54.36,2.94-1,.21-.21-1-1.32-1.32-1.41s-.45-.3-.31-.4l-.28-.1c0-.57,0-.85.41-1.12.15-.12.14-.37.28-.5s.8.26.81.28A3.37,3.37,0,0,0,73.44,71c.28,0,.65.12.82-.1,1.12-1.49,2.81-4.56,3.94-5.88a1.872,1.872,0,0,0,.09-.81,5.6,5.6,0,0,1-.69-1.13l-1.43-.5c-.23-.06-.13-.16-.19-.31s-.06,0-.1,0a5.437,5.437,0,0,1-1.44-.9h-.28a7.371,7.371,0,0,0-.94,0c-.15.13-.08.17-.08.18H73c-3.4,0-3.92.38-5.16,3.07-.13.26-.39.48-.41.81-.24.14-.18-.88-1-.63-.18.06-.8,3-1,3.26L64,69.91c-1.36,2-2,9.39-3,10.44-.08.08,0,.21,0,.32a7.335,7.335,0,0,1-.69,3.22c-.16.37-.41,4-.72,4.88a16.116,16.116,0,0,1-.91,1.81c-.62,1.44.44,2.55-1,3.66v.09c0,.46,0,1.4-.28,1.53a4.386,4.386,0,0,1-1-.21c-.16-.07-.1-.37,0-.5a13.53,13.53,0,0,1,1-1.1c.18-.18,0-1.22.09-1.44a10.769,10.769,0,0,1,.91-1c.19-.18.17-.5.31-.72s-.28-.69-.31-.72,0-1,0-1c-.21-.21-.72.62-.81.82-.24.46-1.53,3.83-1.54,3.84-.62.63-1.36,3-1.72,3.16s-.65-2.24-1.62-.53a5.8,5.8,0,0,1-.09,1.22,15.334,15.334,0,0,0-.69,1.44v.59c-.18.13-.31-.59-.72-.31-1.16.77-.45.45-.91,0h-.13" transform="translate(-0.042)" fill="#eb222c"/><path id="path28" d="M64.54,75.24h0c.33.19.6,0,.85.09.87.35,1.66.24,2.5.66,1.16.58,2.51,2.34,4,2.84.08,0,0,.18.06.25a7.033,7.033,0,0,0,.75,1,43.429,43.429,0,0,0,3,3.26c.18.09.69.4.75.56s.38.93.44,1c.65.65,1,.62,1.82,1.09a3.413,3.413,0,0,1,.68,1.1c.06.15.28.16.41.25.52.33,3,2.58,3.25,2.75s.45.81.91,1c.28.11.23.62.5.75,1.21.61,4.75,2.41,5.85,3.5.22.23.24.63.5.82.6.43,1.92.93,2.34,1.5.82,1.08,3.25,4.21,4.41,4.84.25.14.4.06.41.41a.06.06,0,0,1,.085,0l0,0a3.385,3.385,0,0,0,.6.59,16.714,16.714,0,0,1,1.56,1.6.263.263,0,0,1,.19.06c.29.07,2.95,1.64,2.41,2.19-.1.1-.34.11-.41,0a3.861,3.861,0,0,0-1.19-1.19c-.12-.07-.48-.06-.56-.25-.61-1.51-5.57-3.92-6.26-5.06,0-.08-.48-.09-.5-.1-.21-.12-1.08-.49-1.09-.5a10.93,10.93,0,0,0-1.25-1.34c-.93-.56-3.18-3.07-3.41-3.16-1.4-.53-2.5-1.8-4.1-2.6-.21-.11-.5-.12-.65-.31-1-1.2-7.45-6-7.51-6.69h-.25a3.015,3.015,0,0,0-.34-.25c-.1-.05-.12,0-.16,0l-.84-.5c-.06,0-1.25-1.9-1.66-2.31l-.19-.19a14.33,14.33,0,0,0-3.66-3.07,13.507,13.507,0,0,0-.9-1.44h-.1c-1.19-.3-2.23-.17-3.09-.75-.31-.2-.5-1.29-.5-1.9v-.25c0-.05.42-.1.34-.16v-.08" transform="translate(-0.042)" fill="#eb222c"/><path id="path30" d="M99.55,108.9c.1-.09.33,0,.41.1.24.36.61.52.75.9s1,.22,1.19.6c.11.19.2.22.31.41s.19.19.19.43v.41l-.1.25s.09,0-.09-.16.08,0-.06-.18l-.1-.07v-.09a1.739,1.739,0,0,0-.25-.34c-.12-.13-.42-.21-.59-.41s-.58-.33-.75-.5a11.6,11.6,0,0,0-1.41-1,6.439,6.439,0,0,1-2.4-1.6c-.62-.62-3.2-2-3.44-2.66h-.16a2.256,2.256,0,0,0-.91-.59c-.22-.09-5.07-3.87-5.09-3.91a.273.273,0,0,1,0-.07h-.07c-1.25-.83-2.43-2.16-3.75-2.82a6.659,6.659,0,0,1-1.06-1.68v-.07c-1.71-1.13-2.78-.75-4.94-3.34,0,0,0-.14-.07-.16-1-.33-6.15-5.88-6.44-6.6-.17-.42-.92-.35-1.16-.75s-.19-.9-.59-1.5a14.06,14.06,0,0,0-2-.66c-.51-.51-.75-1.37-1.06-1.68s-1.43-.58-1.75-1.07a2.783,2.783,0,0,1,0-.5c.06,0,.27-.17.31-.19h1.19c.39.24,1.76,1.43,2.06,1.51a7.235,7.235,0,0,1,3.1,1.25c1.3,1.08.76,1.8,1.4,3.09.52,1,5.68,5.68,6.76,6.76.41.41.68,1.29,1.19,1.59.19.12,1.48.33,1.56.41.46.46,1.23.89,1.59,1.25.14.13.22.92.35,1s2.08,1.7,2.16,1.84.33,0,.4.07c.2.3,1,.57,1.25.75s.73,1.06,1,1.25,1.25,1.08,1.25,1.09c.12.31.46.18.69.41.58.58,1.94.78,2.5,1.34,2.56,2.56,5.36,4.3,7.16,6.1" transform="translate(-0.042)" fill="#eb222c"/></g></g></svg>