<svg id="Layer_1" data-name="Layer 1" xmlns="http://www.w3.org/2000/svg" viewBox="0 0 112 107.78"><defs><style>.cls-1{fill:#3b6fc6;}.cls-2{fill:#c4c4c4;}</style></defs><title>Atari_ST_light_SVG</title><rect id="rect3" class="cls-1" x="106.18" y="0.95" width="5.82" height="36.55"/><path id="path5" class="cls-1" d="M14.36,0a4.25,4.25,0,0,0-4,2.76v0L0,37.51H6.21l2.4-9.42H20.15l2.51,9.42H29L18.39,2.79h0A4.25,4.25,0,0,0,14.36,0ZM14.3,8l4,15.21H10.39Z"/><path id="path7" class="cls-1" d="M25.66.82v4.9h9V37.51h5.82V5.72h9.06V.82Z"/><path id="path9" class="cls-1" d="M94.08,24.24a2,2,0,0,1,0-2,2.47,2.47,0,0,1,.86-.69,11.88,11.88,0,0,0,5.18-10.2c0-6-3.78-10.93-8.48-11.31C91,0,89.69,0,89.69,0H83.08c-2.3,0-4.17,2.49-4.17,5.55h0V37.5h5.65V7.84h0c0-.93.57-1.69,1.26-1.69h3.82c.34,0,1.38,0,1.58.07h0c1.69.18,3.06,1.78,3.46,3.9,0,.09,0,.18,0,.26v0c0,.13,0,.26,0,.38s0,.4,0,.6a5.66,5.66,0,0,1-2,4.55,5.15,5.15,0,0,1-.75.5,6.36,6.36,0,0,1-.64.32,6.66,6.66,0,0,0-2.81,2,6.7,6.7,0,0,0-1.18,3.83,6.82,6.82,0,0,0,1,3.66l7.18,11.31h6.72L94.08,24.24"/><path id="path2852" class="cls-1" d="M61.36,0a4.25,4.25,0,0,0-4,2.76v0L47,37.51h6.21l2.4-9.42H67.15l2.52,9.42H76L65.39,2.79h0a4.25,4.25,0,0,0-4-2.76ZM61.3,8l4,15.21H57.39Z"/><polygon class="cls-2" points="105.35 46.73 53.48 46.73 53.48 60.84 70.35 60.84 70.35 106.65 88.42 106.65 88.42 60.84 105.35 60.84 105.35 46.73"/><path class="cls-2" d="M47.54,48.4S42.29,45.9,31,45.9,7.29,50.15,6.67,64.4,22,83.15,22,83.15s8.69,2.19,8.69,6.88-6.19,4.25-6.19,4.25-7.38.37-17.06-5.82v16s6.12,3.32,17.43,3.32,26.33-3.32,25.88-19.19C50.35,75.36,38.31,71.9,31.94,68.94c-6.12-2.84-6.09-4.5-6.09-5.21S26,59,32.64,59s10.88,2.42,14.92,4.13Z"/></svg>