<svg id="Layer_1" data-name="Layer 1" xmlns="http://www.w3.org/2000/svg" viewBox="0 0 112 75.41"><defs><style>.cls-1{fill:#ed1c24;}</style></defs><title>Atari_2600_SVG</title><rect id="rect3" class="cls-1" x="106.18" y="0.95" width="5.82" height="36.55"/><path id="path5" class="cls-1" d="M14.36,0a4.25,4.25,0,0,0-4,2.76v0L0,37.51H6.21l2.4-9.42H20.15l2.51,9.42H29L18.39,2.79h0A4.25,4.25,0,0,0,14.36,0ZM14.3,8l4,15.21H10.39Z"/><path id="path7" class="cls-1" d="M25.66.82v4.9h9V37.51h5.82V5.72h9.06V.82Z"/><path id="path9" class="cls-1" d="M94.08,24.24a2,2,0,0,1,0-2,2.47,2.47,0,0,1,.86-.69,11.88,11.88,0,0,0,5.18-10.2c0-6-3.78-10.93-8.48-11.31C91,0,89.69,0,89.69,0H83.08c-2.3,0-4.17,2.49-4.17,5.55h0V37.5h5.65V7.84h0c0-.93.57-1.69,1.26-1.69h3.82c.34,0,1.38,0,1.58.07h0c1.69.18,3.06,1.78,3.46,3.9,0,.09,0,.18,0,.26v0c0,.13,0,.26,0,.38s0,.4,0,.6a5.66,5.66,0,0,1-2,4.55,5.15,5.15,0,0,1-.75.5,6.36,6.36,0,0,1-.64.32,6.66,6.66,0,0,0-2.81,2,6.7,6.7,0,0,0-1.18,3.83,6.82,6.82,0,0,0,1,3.66l7.18,11.31h6.72L94.08,24.24"/><path id="path2852" class="cls-1" d="M61.36,0a4.25,4.25,0,0,0-4,2.76v0L47,37.51h6.21l2.4-9.42H67.15l2.52,9.42H76L65.39,2.79h0a4.25,4.25,0,0,0-4-2.76ZM61.3,8l4,15.21H57.39Z"/><path class="cls-1" d="M0,72c0-.64.38-2.12,2.89-4.84q3.23-3.48,6.48-6.93c2.46-2.6,3.6-4.61,3.6-6.32A4.09,4.09,0,0,0,11.74,51,4.25,4.25,0,0,0,8.6,49.69,4.54,4.54,0,0,0,5.3,51a4.48,4.48,0,0,0-1.2,2.11h-4A8,8,0,0,1,2.59,48.4a8.41,8.41,0,0,1,6.1-2.53,7.73,7.73,0,0,1,5.86,2.52A8.2,8.2,0,0,1,17,54.29c0,2.38-1.16,4.8-3.45,7.18Q9.73,65.41,6.19,69l-2,2.08,12.82.1v3.69H1.68c-.26,0-.61-.3-1-.83A3.75,3.75,0,0,1,0,72"/><path class="cls-1" d="M23.39,65.33c0-.54.26-2,2-6.07,1.39-3.2,2.89-6.38,4.43-9.44,1.15-2.28,1.74-3.4,2-3.94H36.5l-5.44,11.4h2a9.65,9.65,0,0,1,6.82,2.43,7.86,7.86,0,0,1,2.63,6.12,8.8,8.8,0,0,1-3,6.81,10.16,10.16,0,0,1-7.2,2.77,7.88,7.88,0,0,1-6.31-3,10.61,10.61,0,0,1-2.6-7.09m15,.72a5.49,5.49,0,0,0-1.59-3.93,5.14,5.14,0,0,0-3.82-1.65,4.91,4.91,0,0,0-3.81,1.81A5.56,5.56,0,0,0,27.61,66a5.14,5.14,0,0,0,1.5,3.9A5.37,5.37,0,0,0,33,71.28a5.14,5.14,0,0,0,3.94-1.58,5.22,5.22,0,0,0,1.43-3.65"/><path class="cls-1" d="M47.4,60.85a14.49,14.49,0,0,1,4.46-10.78,14.31,14.31,0,0,1,10.47-4.42,14.15,14.15,0,0,1,10.33,4.42,13.88,13.88,0,0,1,4.46,10.24,15,15,0,0,1-4,10.31A13,13,0,0,1,62.78,75.1a16,16,0,0,1-10.85-4A12.77,12.77,0,0,1,47.4,60.85M73,60.31A10.18,10.18,0,0,0,69.83,53a10,10,0,0,0-7.32-3.22,10.43,10.43,0,0,0-7.88,3.37,11,11,0,0,0-3.14,7.7,9.73,9.73,0,0,0,3.28,7.54,11.18,11.18,0,0,0,7.69,2.89,10.21,10.21,0,0,0,7.42-3A10.67,10.67,0,0,0,73,60.31"/><path class="cls-1" d="M82.28,60.85a14.49,14.49,0,0,1,4.46-10.78,14.31,14.31,0,0,1,10.47-4.42,14.17,14.17,0,0,1,10.33,4.42A13.9,13.9,0,0,1,112,60.31a15,15,0,0,1-4,10.31A13,13,0,0,1,97.66,75.1a16,16,0,0,1-10.85-4,12.77,12.77,0,0,1-4.53-10.28m25.59-.54A10.22,10.22,0,0,0,104.71,53a10,10,0,0,0-7.32-3.22,10.43,10.43,0,0,0-7.88,3.37,10.94,10.94,0,0,0-3.14,7.7,9.73,9.73,0,0,0,3.28,7.54,11.18,11.18,0,0,0,7.69,2.89,10.21,10.21,0,0,0,7.42-3,10.67,10.67,0,0,0,3.11-7.92"/></svg>