<svg id="Layer_1" data-name="Layer 1" xmlns="http://www.w3.org/2000/svg" viewBox="0 0 112 81.63"><defs><style>.cls-1{fill:#982025;}</style></defs><title>Atari_7800_SVG</title><rect id="rect3" class="cls-1" x="106.18" y="0.95" width="5.82" height="36.55"/><path id="path5" class="cls-1" d="M14.36,0a4.25,4.25,0,0,0-4,2.76v0L0,37.51H6.21l2.4-9.42H20.15l2.51,9.42H29L18.39,2.79h0A4.25,4.25,0,0,0,14.36,0ZM14.3,8l4,15.21H10.39Z"/><path id="path7" class="cls-1" d="M25.66.82v4.9h9V37.51h5.82V5.72h9.06V.82Z"/><path id="path9" class="cls-1" d="M94.08,24.24a2,2,0,0,1,0-2,2.47,2.47,0,0,1,.86-.69,11.88,11.88,0,0,0,5.18-10.2c0-6-3.78-10.93-8.48-11.31C91,0,89.69,0,89.69,0H83.08c-2.3,0-4.17,2.49-4.17,5.55h0V37.5h5.65V7.84h0c0-.93.57-1.69,1.26-1.69h3.82c.34,0,1.38,0,1.58.07h0c1.69.18,3.06,1.78,3.46,3.9,0,.09,0,.18,0,.26v0c0,.13,0,.26,0,.38s0,.4,0,.6a5.66,5.66,0,0,1-2,4.55,5.15,5.15,0,0,1-.75.5,6.36,6.36,0,0,1-.64.32,6.66,6.66,0,0,0-2.81,2,6.7,6.7,0,0,0-1.18,3.83,6.82,6.82,0,0,0,1,3.66l7.18,11.31h6.72L94.08,24.24"/><path id="path2852" class="cls-1" d="M61.36,0a4.25,4.25,0,0,0-4,2.76v0L47,37.51h6.21l2.4-9.42H67.15l2.52,9.42H76L65.39,2.79h0a4.25,4.25,0,0,0-4-2.76ZM61.3,8l4,15.21H57.39Z"/><polyline class="cls-1" points="0.09 46.88 0.09 57.44 14.38 57.44 2.64 80.91 15.39 80.91 29.44 46.88"/><path class="cls-1" d="M47,62.57c4.12-1.55,6.89-4.42,6.89-7.72,0-4.94-6.2-9-13.86-9s-13.85,4-13.85,9c0,3.16,2.54,5.93,6.37,7.52-4.29,1.66-7.14,4.87-7,8.66.14,5.45,6.44,9.7,14.38,9.88,8.23.17,14.66-4.26,14.38-9.88C54,67.38,51.2,64.28,47,62.57Zm-7-9.84A3.29,3.29,0,1,1,36.71,56,3.29,3.29,0,0,1,40,52.73Zm0,20.46a3.7,3.7,0,1,1,3.7-3.7A3.7,3.7,0,0,1,40,73.19Z"/><path class="cls-1" d="M68.1,46.06C60,46.06,53.36,54,53.36,63.8S60,81.54,68.1,81.54,82.83,73.6,82.83,63.8,76.23,46.06,68.1,46.06Zm0,24.84c-2.47,0-4.19-3.09-4.07-7.07s1.73-7,4.07-7.07c2.58,0,4,2.89,4.08,7.07C72.2,67.76,70.78,70.84,68.08,70.9Z"/><path class="cls-1" d="M97.17,46.15c-8.13,0-14.73,7.94-14.73,17.74S89,81.63,97.17,81.63s14.74-7.94,14.74-17.74S105.31,46.15,97.17,46.15Zm0,24.84C94.68,71,93,67.9,93.08,63.92s1.74-7,4.08-7.07c2.58,0,4,2.9,4.07,7.07C101.28,67.85,99.86,70.93,97.16,71Z"/></svg>