<svg id="Layer_1" data-name="Layer 1" xmlns="http://www.w3.org/2000/svg" viewBox="0 0 112 76"><title>Atari_2600_SVG</title><rect id="rect3" x="106.18" y="0.95" width="5.82" height="36.55" fill="#ed1c24"/><path id="path5" d="M14.36,0a4.25,4.25,0,0,0-4,2.76h0L0,37.51H6.21l2.4-9.42H20.15l2.51,9.42H29L18.39,2.79h0A4.251,4.251,0,0,0,14.36,0ZM14.3,8l4,15.21H10.39Z" fill="#ed1c24"/><path id="path7" d="M25.66.82v4.9h9V37.51h5.82V5.72h9.06V.82Z" fill="#ed1c24"/><path id="path9" d="M94.08,24.24a2,2,0,0,1,0-2,2.465,2.465,0,0,1,.86-.69,11.879,11.879,0,0,0,5.18-10.2c0-6-3.78-10.93-8.48-11.31C91,0,89.69,0,89.69,0H83.08c-2.3,0-4.17,2.49-4.17,5.55h0V37.5h5.65V7.84h0c0-.93.57-1.69,1.26-1.69h3.82a10.921,10.921,0,0,1,1.58.07h0c1.69.18,3.06,1.78,3.46,3.9v.26h0v.98a5.657,5.657,0,0,1-2,4.55,5.149,5.149,0,0,1-.75.5,6.16,6.16,0,0,1-.64.32,6.666,6.666,0,0,0-2.81,2,6.7,6.7,0,0,0-1.18,3.83,6.815,6.815,0,0,0,1,3.66l7.18,11.31h6.72L94.08,24.24" fill="#ed1c24"/><path id="path2852" d="M61.36,0a4.25,4.25,0,0,0-4,2.76h0L47,37.51h6.21l2.4-9.42H67.15l2.52,9.42H76L65.39,2.79h0a4.25,4.25,0,0,0-4-2.76ZM61.3,8l4,15.21H57.39Z" fill="#ed1c24"/><path d="M0,72.587c0-.64.38-2.12,2.89-4.84q3.23-3.48,6.48-6.93c2.46-2.6,3.6-4.61,3.6-6.32a4.093,4.093,0,0,0-1.23-2.91,4.253,4.253,0,0,0-3.14-1.31,4.545,4.545,0,0,0-3.3,1.31A4.479,4.479,0,0,0,4.1,53.7H.1a8,8,0,0,1,2.49-4.71,8.412,8.412,0,0,1,6.1-2.53,7.734,7.734,0,0,1,5.86,2.52,8.2,8.2,0,0,1,2.45,5.9c0,2.38-1.16,4.8-3.45,7.18Q9.73,66,6.19,69.587l-2,2.08,12.82.1v3.69H1.68c-.26,0-.61-.3-1-.83A3.752,3.752,0,0,1,0,72.587" fill="#ed1c24"/><path d="M23.39,65.917c0-.54.26-2,2-6.07,1.39-3.2,2.89-6.38,4.43-9.44,1.15-2.28,1.74-3.4,2-3.94H36.5l-5.44,11.4h2a9.651,9.651,0,0,1,6.82,2.43,7.862,7.862,0,0,1,2.63,6.12,8.8,8.8,0,0,1-3,6.81A10.16,10.16,0,0,1,32.31,76,7.88,7.88,0,0,1,26,73a10.61,10.61,0,0,1-2.6-7.09m15,.72a5.487,5.487,0,0,0-1.59-3.93,5.14,5.14,0,0,0-3.82-1.65,4.912,4.912,0,0,0-3.81,1.81,5.561,5.561,0,0,0-1.57,3.73,5.138,5.138,0,0,0,1.5,3.9A5.367,5.367,0,0,0,33,71.867a5.137,5.137,0,0,0,3.94-1.58,5.217,5.217,0,0,0,1.43-3.65" fill="#ed1c24"/><path d="M47.4,61.437a14.494,14.494,0,0,1,4.46-10.78,14.311,14.311,0,0,1,10.47-4.42,14.152,14.152,0,0,1,10.33,4.42A13.88,13.88,0,0,1,77.12,60.9a15,15,0,0,1-4,10.31,13,13,0,0,1-10.34,4.48,16,16,0,0,1-10.85-4,12.768,12.768,0,0,1-4.53-10.25M73,60.9a10.182,10.182,0,0,0-3.17-7.31,10,10,0,0,0-7.32-3.22,10.435,10.435,0,0,0-7.88,3.37,11,11,0,0,0-3.14,7.7,9.727,9.727,0,0,0,3.28,7.54,11.175,11.175,0,0,0,7.69,2.89,10.208,10.208,0,0,0,7.42-3A10.667,10.667,0,0,0,73,60.9" fill="#ed1c24"/><path d="M82.28,61.437a14.494,14.494,0,0,1,4.46-10.78,14.445,14.445,0,0,1,20.8,0A13.9,13.9,0,0,1,112,60.9a15,15,0,0,1-4,10.31,13,13,0,0,1-10.34,4.48,16,16,0,0,1-10.85-4,12.771,12.771,0,0,1-4.53-10.28m25.59-.54a10.222,10.222,0,0,0-3.16-7.28,10,10,0,0,0-7.32-3.22,10.435,10.435,0,0,0-7.88,3.37,10.941,10.941,0,0,0-3.14,7.7,9.727,9.727,0,0,0,3.28,7.54,11.175,11.175,0,0,0,7.69,2.89,10.208,10.208,0,0,0,7.42-3,10.67,10.67,0,0,0,3.11-7.92" fill="#ed1c24"/></svg>