<svg id="Layer_1" data-name="Layer 1" xmlns="http://www.w3.org/2000/svg" viewBox="0 0 112 75.21"><defs><style>.cls-1{fill:#3b6fc6;}.cls-2{isolation:isolate;}</style></defs><title>Atari_5200_SVG</title><rect id="rect3" class="cls-1" x="106.18" y="0.95" width="5.82" height="36.55"/><path id="path5" class="cls-1" d="M14.36,0a4.25,4.25,0,0,0-4,2.76v0L0,37.51H6.21l2.4-9.42H20.15l2.51,9.42H29L18.39,2.79h0A4.25,4.25,0,0,0,14.36,0ZM14.3,8l4,15.21H10.39Z" transform="translate(0)"/><path id="path7" class="cls-1" d="M25.66.82v4.9h9V37.51h5.82V5.72h9.06V.82Z" transform="translate(0)"/><path id="path9" class="cls-1" d="M94.08,24.24a2,2,0,0,1,0-2,2.47,2.47,0,0,1,.86-.69,11.88,11.88,0,0,0,5.18-10.2c0-6-3.78-10.93-8.48-11.31C91,0,89.69,0,89.69,0H83.08c-2.3,0-4.17,2.49-4.17,5.55h0V37.5h5.65V7.84h0c0-.93.57-1.69,1.26-1.69h3.82c.34,0,1.38,0,1.58.07h0c1.69.18,3.06,1.78,3.46,3.9,0,.09,0,.18,0,.26v0c0,.13,0,.26,0,.38s0,.4,0,.6a5.66,5.66,0,0,1-2,4.55,5.15,5.15,0,0,1-.75.5,6.36,6.36,0,0,1-.64.32,6.66,6.66,0,0,0-2.81,2,6.7,6.7,0,0,0-1.18,3.83,6.82,6.82,0,0,0,1,3.66l7.18,11.31h6.72L94.08,24.24" transform="translate(0)"/><path id="path2852" class="cls-1" d="M61.36,0a4.25,4.25,0,0,0-4,2.76v0L47,37.51h6.21l2.4-9.42H67.15l2.52,9.42H76L65.39,2.79h0a4.25,4.25,0,0,0-4-2.76ZM61.3,8l4,15.21H57.39Z" transform="translate(0)"/><path class="cls-1" d="M48.28,60.85a14.49,14.49,0,0,1,4.46-10.78,14.45,14.45,0,0,1,20.8,0A13.88,13.88,0,0,1,78,60.31a15,15,0,0,1-4,10.31A13,13,0,0,1,63.65,75.1a16,16,0,0,1-10.84-4,12.77,12.77,0,0,1-4.53-10.28m25.58-.54A10.18,10.18,0,0,0,70.7,53a10,10,0,0,0-7.32-3.22,10.46,10.46,0,0,0-7.88,3.37,11,11,0,0,0-3.14,7.7,9.74,9.74,0,0,0,3.29,7.54,11.16,11.16,0,0,0,7.69,2.89,10.23,10.23,0,0,0,7.42-3,10.67,10.67,0,0,0,3.1-7.92" transform="translate(0)"/><path class="cls-1" d="M82.28,60.85a14.49,14.49,0,0,1,4.46-10.78,14.31,14.31,0,0,1,10.47-4.42,14.17,14.17,0,0,1,10.33,4.42A13.9,13.9,0,0,1,112,60.31a15,15,0,0,1-4,10.31A13,13,0,0,1,97.66,75.1a16,16,0,0,1-10.85-4,12.77,12.77,0,0,1-4.53-10.28m25.59-.54A10.22,10.22,0,0,0,104.71,53a10,10,0,0,0-7.32-3.22,10.43,10.43,0,0,0-7.88,3.37,10.94,10.94,0,0,0-3.14,7.7,9.73,9.73,0,0,0,3.28,7.54,11.18,11.18,0,0,0,7.69,2.89,10.21,10.21,0,0,0,7.42-3,10.67,10.67,0,0,0,3.11-7.92" transform="translate(0)"/><g id="text2901" class="cls-2"><g class="cls-2"><path class="cls-1" d="M0,67l4-.28a6.36,6.36,0,0,0,1.92,4.14,5.69,5.69,0,0,0,3.85,1.42,6.41,6.41,0,0,0,4.71-1.91,7.23,7.23,0,0,0,2.08-5.16,6.24,6.24,0,0,0-1.66-4.84,6.45,6.45,0,0,0-4.72-1.82,7.15,7.15,0,0,0-3.35.76,6.63,6.63,0,0,0-2.4,2L.89,60.85l3.51-15L19.81,46l-.12,3.42L7.33,49.35,5.39,57.17a10.74,10.74,0,0,1,5.92-1.78,9.35,9.35,0,0,1,6.76,2.71,8.74,8.74,0,0,1,2.55,6.82,10.47,10.47,0,0,1-2.68,6.82,10.34,10.34,0,0,1-8.26,3.47,10.18,10.18,0,0,1-6.83-2.29A8.28,8.28,0,0,1,0,67Z" transform="translate(0)"/><path class="cls-1" d="M43.93,71.57,43.81,75l-20.48-.18a5.92,5.92,0,0,1,.53-2.48,13.46,13.46,0,0,1,2.63-3.86,41.05,41.05,0,0,1,5.13-4.37,42.34,42.34,0,0,0,7-6.11,7.36,7.36,0,0,0,1.93-4.29,4.57,4.57,0,0,0-1.5-3.61,5.94,5.94,0,0,0-4.17-1.5,6.28,6.28,0,0,0-4.44,1.52,5.81,5.81,0,0,0-1.82,4.28L24.76,54A9.07,9.07,0,0,1,28,47.75a11,11,0,0,1,7.11-2.1,10,10,0,0,1,7,2.39,7.24,7.24,0,0,1,2.4,5.79,8.35,8.35,0,0,1-.88,3.43A13.39,13.39,0,0,1,41,60.8a62.1,62.1,0,0,1-6,5.08q-3.51,2.69-4.52,3.63a12,12,0,0,0-1.67,1.93Z" transform="translate(0)"/></g></g></svg>