<svg xmlns="http://www.w3.org/2000/svg" xmlns:xlink="http://www.w3.org/1999/xlink" viewBox="0 0 150 128.30357"><defs><linearGradient id="a" x1="75" x2="75" y2="128.30357" gradientUnits="userSpaceOnUse"><stop offset="0" stop-color="#b2b2b2"/><stop offset="1" stop-color="#777"/></linearGradient><linearGradient id="b" x1="74.2391" y1="79.52783" x2="74.2391" y2="9.99999" gradientUnits="userSpaceOnUse"><stop offset="0.5" stop-color="#e9e9e9"/><stop offset="1" stop-color="#f3f3f3"/></linearGradient><linearGradient id="c" x1="81.4953" y1="104.64196" x2="81.4953" y2="44.29296" gradientUnits="userSpaceOnUse"><stop offset="0" stop-color="#dadada"/><stop offset="1" stop-color="#b6b6b6"/></linearGradient></defs><title>b1</title><path d="M150,53.57143C150,23.98472,116.42133,0,75,0S0,23.98472,0,53.57143s33.57867,53.57143,75,53.57143A104.01732,104.01732,0,0,0,92.08315,105.73l23.22935,22.57357V98.73583C136.163,89.22062,150,72.55554,150,53.57143Z" fill="url(#a)"/><path d="M138.4782,44.293c-2.51062-7.55959-8.07095-14.61738-16.25756-20.46492C109.73657,14.91088,92.96667,10,75,10S40.26343,14.91088,27.77936,23.82806C16.31421,32.01745,10,42.58056,10,53.5714c0,9.34921,4.56884,18.38891,12.99056,25.92135C24.46935,80.81538,138.4782,44.293,138.4782,44.293Z" fill="url(#b)"/><path d="M138.46014,44.293c-33.41394.17023-64.55066,5.84875-87.8161,16.05585C37.92816,65.92754,28.56665,72.45476,22.9906,79.47356a55.79934,55.79934,0,0,0,4.78882,3.84119C40.26343,92.23192,57.03339,97.14287,75,97.14287a94.3045,94.3045,0,0,0,15.44092-1.2771l4.9862-.83013,3.62513,3.52276,6.26025,6.08356V92.30724l5.84839-2.66888C129.219,81.39745,140,67.91448,140,53.5714A29.34223,29.34223,0,0,0,138.46014,44.293Z" fill="url(#c)"/></svg>