<svg xmlns="http://www.w3.org/2000/svg" xmlns:xlink="http://www.w3.org/1999/xlink" viewBox="0 0 150 128.30354"><defs><linearGradient id="a" x1="75" y1="128.30354" x2="75" gradientUnits="userSpaceOnUse"><stop offset="0" stop-color="#777"/><stop offset="1" stop-color="#b2b2b2"/></linearGradient><linearGradient id="b" x1="74.29092" y1="80.51053" x2="74.29092" y2="8" gradientUnits="userSpaceOnUse"><stop offset="0.5" stop-color="#e9e9e9"/><stop offset="1" stop-color="#f3f3f3"/></linearGradient><linearGradient id="c" x1="81.57077" y1="109.37425" x2="81.57077" y2="44.29625" gradientUnits="userSpaceOnUse"><stop offset="0" stop-color="#dadada"/><stop offset="1" stop-color="#b6b6b6"/></linearGradient></defs><title>b2</title><path d="M75,0C33.57866,0,0,23.98469,0,53.57142s33.57866,53.57142,75,53.57142A104.02026,104.02026,0,0,0,92.08315,105.73l23.22935,22.57354V98.73581C136.163,89.22062,150,72.55554,150,53.57142,150,23.98469,116.42135,0,75,0Z" fill="url(#a)"/><path d="M75,8c18.38,0,35.56277,5.04319,48.38312,14.20054,8.76824,6.26306,14.65933,13.89482,17.19872,22.09571L21.13483,80.51053C12.615,72.6872,8,63.30854,8,53.57142c0-11.65461,6.61162-22.79565,18.61688-31.37088C39.43723,13.04319,56.62,8,75,8" fill="url(#b)"/><path d="M140.56512,44.29625C85.6297,44.40562,38.89368,59.45506,21.14154,80.49669a57.381,57.381,0,0,0,5.47534,4.44555C39.43726,94.09965,56.62006,99.1428,75,99.1428a96.31251,96.31251,0,0,0,15.76941-1.30419l3.989-.66407,2.90009,2.81818,9.654,9.38153V93.59294l4.67865-2.13513C130.78174,82.88267,142,68.71953,142,53.57139A31.2613,31.2613,0,0,0,140.56512,44.29625Z" fill="url(#c)"/></svg>