<svg xmlns="http://www.w3.org/2000/svg" xmlns:xlink="http://www.w3.org/1999/xlink" viewBox="0 0 136 118.5455"><defs><linearGradient id="a" x1="68" y1="118.5455" x2="68" gradientUnits="userSpaceOnUse"><stop offset="0" stop-color="#5a697a"/><stop offset="1" stop-color="#96a4b5"/></linearGradient><linearGradient id="b" x1="67.05487" y1="71.38649" x2="67.05487" y2="8" gradientUnits="userSpaceOnUse"><stop offset="0.5" stop-color="#6f9ccf"/><stop offset="1" stop-color="#89aed7"/></linearGradient><linearGradient id="c" x1="73.66132" y1="103" x2="73.66132" y2="38" gradientUnits="userSpaceOnUse"><stop offset="0" stop-color="#6f9ccf"/><stop offset="1" stop-color="#417dbf"/></linearGradient></defs><title>b3b</title><path d="M68,0C50.41143,0,33.76814,4.63789,21.136,13.05932,7.50625,22.14582,0,34.55464,0,48S7.50625,73.85414,21.136,82.94064C33.76814,91.36211,50.41146,96,68,96a97.73454,97.73454,0,0,0,10.623-.58092l19.72711,14.09078L111,118.5455V85.31083C126.75014,76.295,136,62.62593,136,48c0-13.44536-7.50626-25.85418-21.136-34.94068C102.23186,4.63789,85.58857,0,68,0Z" fill="url(#a)"/><path d="M126.10973,38C119.44908,20.74769,95.95758,8,68,8,34.86292,8,8,25.90857,8,48c0,8.73139,4.19638,16.80937,11.31794,23.38649Z" fill="url(#b)"/><path d="M19.32263,71.37274C30.21875,81.44055,47.95514,88,68,88a89.28559,89.28559,0,0,0,12.72577-.91016L103,103V80.47961C118.13507,73.218,128,61.38055,128,48a27.63157,27.63157,0,0,0-1.89032-9.99976L126.07062,38C76.71277,38,34.74908,51.93982,19.32263,71.37274Z" fill="url(#c)"/></svg>