<svg id="Layer_1" data-name="Layer 1" xmlns="http://www.w3.org/2000/svg" viewBox="0 0 112 95.103"><title>bandaiwonderswan</title><path d="M112,46.355C107.13,32.845,96.264,19.16,79.872,9.363,53.713-6.273,23.3-1.3,14.051,16.684,5.985,32.364,15.4,55.643,36.773,68.645,23.771,70.768,8.3,63.132,0,48.143,4.761,61.85,15.683,75.8,32.319,85.74,58.478,101.375,88.888,96.4,98.14,78.419c8.036-15.621-1.282-38.778-22.49-51.808C88.432,24.52,103.6,31.867,112,46.355ZM82.361,68.4c-.105.133-.255.213-.365.341,3.652-5.2.917-13.861-6.365-19.666-7.475-5.958-16.856-6.621-20.954-1.48s-1.361,14.139,6.114,20.1c6.341,5.055,14.024,6.254,18.72,3.375-8.234,6.081-22.719,4.129-34.56-5.31C31.607,55.123,26.72,39.06,34.036,29.882s24.065-8,37.409,2.643S89.677,59.226,82.361,68.4Z" fill="#ff0038"/></svg>