<svg id="Layer_1" data-name="Layer 1" xmlns="http://www.w3.org/2000/svg" viewBox="0 0 112 123.829"><title>bandaiwonderswancolor</title><path d="M112,46.355C107.13,32.845,96.264,19.16,79.872,9.363,53.713-6.273,23.3-1.3,14.051,16.684,5.985,32.364,15.4,55.643,36.773,68.645,23.771,70.768,8.3,63.132,0,48.143,4.761,61.85,15.683,75.8,32.319,85.74,58.478,101.375,88.888,96.4,98.14,78.419c8.036-15.621-1.282-38.778-22.49-51.808C88.432,24.52,103.6,31.867,112,46.355ZM82.361,68.4c-.105.133-.255.213-.365.341,3.652-5.2.917-13.861-6.365-19.666-7.475-5.958-16.856-6.621-20.954-1.48s-1.361,14.139,6.114,20.1c6.341,5.055,14.024,6.254,18.72,3.375-8.234,6.081-22.719,4.129-34.56-5.31C31.607,55.123,26.72,39.06,34.036,29.882s24.065-8,37.409,2.643S89.677,59.226,82.361,68.4Z" fill="#ff0038"/><path d="M28.229,98.408C-2.258,92.329-9.166,123.15,12.985,123.15a17.332,17.332,0,0,0,11.7-4.294c1.7-1.578-.576-4.479-2.878-2.533-9.925,9.452-20.045-1.29-8.474-12.895,6.608-5.389,9.9-.265,9.257,2.642-.507,2.516,2.763,4.128,3.9-.829C27.8,100.371,28.229,98.408,28.229,98.408Z" fill="#0d8eec"/><path d="M30.854,108.816c-6.493,6.447-4.237,15.013,5.619,15.013s19.48-9.21,13.125-16.3c-5.3-2.532-9.717,1.8-9.717,1.8,5.756-1.244,4.973,11.513-1.29,11.513-6.4-.921-2.993-9.441-.046-12.711S35.367,104.441,30.854,108.816Z" fill="#fdc923"/><path d="M57.1,101.579,53.42,114.342c-2.487,8.336,5.527,12.02,14.783,5.435l-1.75-2.764c-4.605,4.329-8.335,4.767-5.664-4.167.806-3.247,2.993-11.514,2.993-11.514C65.256,96.22,58.256,96.543,57.1,101.579Z" fill="#ff2d10"/><path d="M69.263,108.816c-6.494,6.447-4.237,15.013,5.618,15.013s19.481-9.21,13.125-16.3c-5.3-2.532-9.717,1.8-9.717,1.8,5.757-1.244,4.974,11.513-1.29,11.513-6.4-.921-2.993-9.441-.046-12.711S73.776,104.441,69.263,108.816Z" fill="#7989ca"/><path d="M98.829,112.984l1.105-3.708c.783-3.569-6.01-3.269-6.977.714-1.151,4.56-2.372,9.441-2.372,9.441-1.266,3.961,3.109,3.684,3.109,3.684l2.51.005c1.128-4.84,8.4-13.613,10.546-8.166,1.036,2.428,2.893.831,3.293-.8L112,106.191C103.549,105.5,98.829,112.984,98.829,112.984Z" fill="#ff7db2"/></svg>