<svg id="Layer_1" data-name="Layer 1" xmlns="http://www.w3.org/2000/svg" viewBox="0 0 474.999 464.27"><title>cardgame</title><path d="M368.188,462.8,248.952,407.377a15.8,15.8,0,0,1-7.66-20.976l84.374-181.523a15.792,15.792,0,0,1,20.963-7.667l119.24,55.434a15.786,15.786,0,0,1,7.656,20.964l-84.37,181.524a15.8,15.8,0,0,1-20.968,7.667ZM80.45,443,1.29,259.14A15.794,15.794,0,0,1,9.54,238.4l39.2-16.872L97.711,405.568a33,33,0,0,0,40.36,23.39L177.1,418.572,101.2,451.258A15.8,15.8,0,0,1,80.452,443Zm33.89-41.86L62.862,207.688a15.792,15.792,0,0,1,11.19-19.312l34.033-9.052-4.1,30.465a32.992,32.992,0,0,0,28.285,37.087L212.1,257.634,179.6,367.1a32.973,32.973,0,0,0,6.866,31.18l-52.82,14.05a15.784,15.784,0,0,1-19.31-11.2Zm108.428-4.76-16.02-4.76A15.794,15.794,0,0,1,196.1,371.988l56.97-191.9a15.8,15.8,0,0,1,19.622-10.65l49.073,14.583.008,0,.12.044-.133-.034a32.8,32.8,0,0,0-11.7,13.6l-84.38,181.53a33.024,33.024,0,0,0-2.915,17.218Zm-5.707-155.43-82.486-11.117a15.8,15.8,0,0,1-13.538-17.758l26.73-198.39A15.8,15.8,0,0,1,165.507.142L295.834,17.7a15.8,15.8,0,0,1,13.532,17.752L292.92,157.51l-15.33-4.552a32.978,32.978,0,0,0-41,22.232l-19.525,65.755Zm-5.19-31.46a18.643,18.643,0,0,0,8.42-13.145,18.023,18.023,0,0,0-3.866-14.945q-5.265-6.621-14.656-8.178-9.516-1.586-16.75,2.956a18.075,18.075,0,0,0-8.615,12.87,18.927,18.927,0,0,0,3.97,15.082q5.347,6.756,14.863,8.34T211.871,209.485Zm25.978-81.243q7.04-4.089,12.6-8.117a56.637,56.637,0,0,0,9.635-8.725,44.961,44.961,0,0,0,6.733-10.307,48.965,48.965,0,0,0,3.85-12.865q1.893-11.43-.735-20.234a36.562,36.562,0,0,0-8.833-15.22,47.908,47.908,0,0,0-15.318-10.43,83.756,83.756,0,0,0-20.174-5.86,92.045,92.045,0,0,0-22.815-.977,74.85,74.85,0,0,0-21.346,4.88l-5.95,35.8a63.651,63.651,0,0,1,20.855-8.567,53.849,53.849,0,0,1,19.913-.668c21.467,4.092,19.44,24.9,8.76,34.03-5.652,4.473-11.334,8.8-15.942,11.345-10.48,5.914-27.69,23.125-22.542,45.145l31.284,5.2c-7.11-17.757,11.663-29.462,20.028-34.434Z" fill="#fff"/></svg>