<svg id="Layer_1" data-name="Layer 1" xmlns="http://www.w3.org/2000/svg" viewBox="0 0 295.623 178.593"><title>casioloopy</title><path d="M180.9,73.758C171.8,48,143.978,34.646,118.756,43.933l-17.112,6.3-6.2-17.5A49.125,49.125,0,0,0,2.835,65.548l39.336,111,109.54-39.33C176.934,127.927,190,99.516,180.9,73.758Zm-38.432,40.361-85.1,30.45L26.5,58.311A30.167,30.167,0,0,1,83.3,37.979L93.888,67.557,121.874,57.41a30.167,30.167,0,1,1,20.6,56.709Z" fill="#f570ba"/><path d="M265.238,43.087,155.029,1.6,114.474,112.337c-9.161,25.268,4.132,53.575,29.69,63.225s53.7-4.656,62.865-29.925l6.217-17.141,15.7,7.067A49.124,49.124,0,0,0,292.232,106.9C301.79,81.5,290.63,52.646,265.238,43.087Zm11.256,50.856a30.167,30.167,0,0,1-38.81,17.715L198.5,97.055,183.786,137a30.167,30.167,0,0,1-56.641-20.783L163.025,19.4,258.78,55.133A30.165,30.165,0,0,1,276.494,93.943Z" fill="#47a6dd"/><path d="M153.855,64.793,160.1,48A47.787,47.787,0,0,0,132.035,41.1l-5.593,15.042A30.2,30.2,0,0,1,153.855,64.793Z" fill="#f570ba"/></svg>