<svg id="Layer_1" data-name="Layer 1" xmlns="http://www.w3.org/2000/svg" viewBox="0 0 112 112"><title>casiopv-1000</title><path d="M8.7,91.215v15.354c0,5.384,8.416,7.545,8.416,0V82.583c0-3.463-2.312-3.437-3.222-3.437H11.8c-1.567,0-8.113,4.9-8.113,4.9C1.193,85.894-.159,91.215,8.7,91.215Z"/><path d="M33.419,78.182A16.909,16.909,0,1,0,50.328,95.091,16.909,16.909,0,0,0,33.419,78.182Zm0,25.667a8.758,8.758,0,1,1,8.758-8.758A8.758,8.758,0,0,1,33.419,103.849Z"/><path d="M64.255,78.182A16.909,16.909,0,1,0,81.164,95.091,16.909,16.909,0,0,0,64.255,78.182Zm0,25.667a8.758,8.758,0,1,1,8.758-8.758A8.758,8.758,0,0,1,64.255,103.849Z"/><path d="M95.091,78.182A16.909,16.909,0,1,0,112,95.091,16.909,16.909,0,0,0,95.091,78.182Zm0,25.667a8.758,8.758,0,1,1,8.758-8.758A8.758,8.758,0,0,1,95.091,103.849Z"/><path d="M6.881,89.4V104.75c0,5.383,8.416,7.544,8.416,0V80.763c0-3.462-2.312-3.437-3.222-3.437h-2.1c-1.567,0-8.114,4.9-8.114,4.9C-.626,84.074-1.978,89.4,6.881,89.4Z" fill="#ffd836"/><path d="M31.6,76.362a16.91,16.91,0,1,0,16.909,16.91A16.909,16.909,0,0,0,31.6,76.362Zm0,25.667a8.758,8.758,0,1,1,8.758-8.757A8.758,8.758,0,0,1,31.6,102.029Z" fill="#ffd836"/><path d="M62.436,76.362a16.91,16.91,0,1,0,16.909,16.91A16.909,16.909,0,0,0,62.436,76.362Zm0,25.667a8.758,8.758,0,1,1,8.758-8.757A8.758,8.758,0,0,1,62.436,102.029Z" fill="#ffd836"/><path d="M93.272,76.362a16.91,16.91,0,1,0,16.909,16.91A16.91,16.91,0,0,0,93.272,76.362Zm0,25.667a8.758,8.758,0,1,1,8.757-8.757A8.758,8.758,0,0,1,93.272,102.029Z" fill="#ffd836"/><path d="M34.144,1.85H8.064c-6.215,0-6.215,6.52-6.215,6.52V59.307c0,10.321,17.115,14.466,17.115,0V46.573c0-5.094,3.668-5.2,3.668-5.2H34.144C56.148,41.377,56.352,1.85,34.144,1.85Zm-4.33,24.933H23.7a4.966,4.966,0,0,1,0-9.932h6.113a4.966,4.966,0,0,1,0,9.932Z"/><path d="M95.808,7.758C86.334,25.943,79.391,38.9,79.391,38.9S72.448,25.943,62.974,7.758c-7.182-12.53-18.608-2.177-15.74,4.432L73.06,64.757c2.445,4.852,10.009,4.776,12.662,0L111.548,12.19C114.416,5.581,102.99-4.772,95.808,7.758Z"/><path d="M32.294,0H6.214C0,0,0,6.52,0,6.52V57.457c0,10.322,17.115,14.467,17.115,0V44.723c0-5.094,3.667-5.2,3.667-5.2H32.294C54.3,39.527,54.5,0,32.294,0ZM27.965,24.934H21.852a4.967,4.967,0,0,1,0-9.933h6.113a4.967,4.967,0,0,1,0,9.933Z" fill="#ffd836"/><path d="M93.959,5.909C84.484,24.093,77.542,37.054,77.542,37.054S70.6,24.093,61.125,5.909C53.943-6.622,42.517,3.731,45.385,10.34L71.21,62.908c2.445,4.851,10.01,4.775,12.663,0L109.7,10.34C112.566,3.731,101.141-6.622,93.959,5.909Z" fill="#ffd836"/></svg>