<svg id="Layer_2" data-name="Layer 2" xmlns="http://www.w3.org/2000/svg" viewBox="0 0 107.274 112"><title>commodore128</title><g id="g4387"><path id="path1922" d="M59.268,13.689H79.277l-8.76,9.133H59.268Z" fill="#18357b"/><path id="path3805" d="M59.249,34.312H79.257L70.5,25.179H59.249Z" fill="#db1821"/><path id="path4382" d="M58.832.942V12.449a12.7,12.7,0,0,0-6.825-1.891,12.855,12.855,0,0,0-6.656,1.807,13.026,13.026,0,0,0-4.832,4.919,13.282,13.282,0,0,0-1.765,6.665,13.278,13.278,0,0,0,13.253,13.3,13.328,13.328,0,0,0,6.825-1.807V47a23.747,23.747,0,0,1-18.8-2.237,24.1,24.1,0,0,1-8.792-8.795,23.764,23.764,0,0,1-1.362-21.238A24.222,24.222,0,0,1,42.753,1.836,23.4,23.4,0,0,1,52.007,0a25.793,25.793,0,0,1,6.825.942" fill="#18357b"/></g><path d="M100.7,78.709a16.23,16.23,0,1,0-24.767,0,18.954,18.954,0,1,0,24.767,0ZM88.32,61.988a6.242,6.242,0,1,1-6.242,6.242A6.241,6.241,0,0,1,88.32,61.988Zm0,39.577a8.518,8.518,0,1,1,8.518-8.518A8.518,8.518,0,0,1,88.32,101.565Z" fill="#fff"/><path d="M88.32,54.724A13.5,13.5,0,0,1,98.626,76.948l-1.744,2.058,2.04,1.764a16.23,16.23,0,1,1-21.2,0l2.04-1.765-1.744-2.057a13.5,13.5,0,0,1,10.3-22.224m0,22.472a8.966,8.966,0,1,0-8.966-8.966A8.976,8.976,0,0,0,88.32,77.2m0,27.093A11.242,11.242,0,1,0,77.079,93.047,11.255,11.255,0,0,0,88.32,104.289M88.32,52A16.222,16.222,0,0,0,75.937,78.709a18.954,18.954,0,1,0,24.767,0A16.222,16.222,0,0,0,88.32,52Zm0,22.472a6.242,6.242,0,1,1,6.242-6.242,6.242,6.242,0,0,1-6.242,6.242Zm0,27.093a8.518,8.518,0,1,1,8.518-8.518,8.518,8.518,0,0,1-8.518,8.518Z" fill="#b9bfc0"/><path d="M8.02,52.908s.341,2.459-2.648,5.448A13.689,13.689,0,0,1,0,61.988v9.931H5.372v38.568H18.083V52.908Z" fill="#fff"/><path d="M15.359,55.632v52.131H8.1V69.195H2.724V63.761A19.731,19.731,0,0,0,7.3,60.282a12,12,0,0,0,3.012-4.65h5.049m2.724-2.724H8.02s.341,2.459-2.648,5.448A13.689,13.689,0,0,1,0,61.988v9.931H5.372v38.568H18.083V52.908Z" fill="#b9bfc0"/><path d="M36.62,71.919H25.2C25.2,60.665,31.929,52,46.381,52c10.063,0,18.84,6.81,18.84,18.462S57.367,87.38,49.5,92s-8.943,7.445-8.943,7.445H65.221v11.047H22.85a26.722,26.722,0,0,1,3.4-12.181c3.405-5.751,11.122-11.652,18.083-15.965s8.171-9.534,8.171-12.333a7.584,7.584,0,0,0-7.944-7.037C38.588,62.971,36.62,68.458,36.62,71.919Z" fill="#fff"/><path d="M46.381,54.724c7.762,0,16.116,4.925,16.116,15.738,0,9.942-6.511,14.57-14.377,19.184-8.069,4.733-9.78,7.953-10.112,8.828l-1.4,3.69H62.5v5.6H25.837a23.027,23.027,0,0,1,2.762-8.07c2.613-4.413,8.872-9.893,17.174-15.037,8.538-5.29,9.46-12.006,9.46-14.648a10.255,10.255,0,0,0-10.668-9.76c-5.9,0-9.431,4.167-10.4,8.947h-6.1c1.049-9.238,7.592-14.471,18.312-14.471m0-2.724C31.929,52,25.2,60.665,25.2,71.919H36.62c0-3.461,1.968-8.948,7.945-8.948a7.584,7.584,0,0,1,7.944,7.037c0,2.8-1.21,8.02-8.171,12.333S29.66,92.555,26.255,98.306a26.722,26.722,0,0,0-3.4,12.181H65.221V99.44H40.555S41.629,96.611,49.5,92s15.723-9.881,15.723-21.533S56.444,52,46.381,52Z" fill="#b9bfc0"/><path d="M88.32,52.908a15.313,15.313,0,0,1,11.691,25.214l-.581.686.68.588a18.046,18.046,0,1,1-23.579,0l.68-.588-.581-.686A15.313,15.313,0,0,1,88.32,52.908m0,22.472a7.15,7.15,0,1,0-7.15-7.15,7.158,7.158,0,0,0,7.15,7.15m0,27.093A9.426,9.426,0,1,0,78.9,93.047a9.437,9.437,0,0,0,9.425,9.426M88.32,52A16.222,16.222,0,0,0,75.937,78.709a18.954,18.954,0,1,0,24.767,0A16.222,16.222,0,0,0,88.32,52Zm0,22.472a6.242,6.242,0,1,1,6.242-6.242,6.242,6.242,0,0,1-6.242,6.242Zm0,27.093a8.518,8.518,0,1,1,8.518-8.518,8.518,8.518,0,0,1-8.518,8.518Z" fill="#18357b"/><path d="M17.175,53.816v55.763H6.28V71.011H.908v-8.39A16.444,16.444,0,0,0,6.014,59a9.212,9.212,0,0,0,2.874-5.182h8.287m.908-.908H8.02s.341,2.459-2.648,5.448A13.689,13.689,0,0,1,0,61.988v9.931H5.372v38.568H18.083V52.908Z" fill="#18357b"/><path d="M46.381,52.908a18.5,18.5,0,0,1,12.58,4.623,16.982,16.982,0,0,1,5.352,12.931,18.564,18.564,0,0,1-4.684,12.806c-2.908,3.3-6.826,5.736-10.59,7.944-7.916,4.643-9.211,7.586-9.333,7.906l-.467,1.23H64.313v9.231H23.8a25.791,25.791,0,0,1,3.235-10.811c3.775-6.376,12.76-12.545,17.78-15.655,7.763-4.81,8.6-10.767,8.6-13.105a8.538,8.538,0,0,0-8.852-7.945c-6.015,0-8.481,5.054-8.813,8.948H26.119c.175-5.171,1.86-9.526,4.9-12.637,3.543-3.627,8.711-5.466,15.363-5.466m0-.908C31.929,52,25.2,60.665,25.2,71.919H36.62c0-3.461,1.968-8.948,7.945-8.948a7.584,7.584,0,0,1,7.944,7.037c0,2.8-1.21,8.02-8.171,12.333S29.66,92.555,26.255,98.306a26.722,26.722,0,0,0-3.4,12.181H65.221V99.44H40.555S41.629,96.611,49.5,92s15.723-9.881,15.723-21.533S56.444,52,46.381,52Z" fill="#18357b"/><path d="M40.8,96.043l-2.705,4.37.983.889,23.872.492-.133.348H36.6a15.019,15.019,0,0,1,1.834-4.51A3.659,3.659,0,0,1,40.8,96.043Z" fill="#b9bfc0"/><path d="M40.574,100.356h-1.4a11.62,11.62,0,0,1,.7-1.608c.359-.624.7-.643.7-.643l-.341,1.513Z" fill="#18357b"/></svg>