<svg id="Layer_1" data-name="Layer 1" xmlns="http://www.w3.org/2000/svg" viewBox="0 0 112 112"><title>commodore64</title><rect width="112" height="112" rx="18" ry="18" fill="#5d594f"/><polygon id="polygon7" points="66 12 104 12 104 16 66 16 66 12" fill="red"/><polygon id="polygon9" points="66 22 103.993 22 103.993 26 66 26 66 22" fill="#fd4120"/><polygon id="polygon11" points="66 32 103.993 32 103.993 36 66 36 66 32" fill="#fc0"/><polygon id="polygon13" points="66 42 103.993 42 103.993 46 66 46 66 42" fill="#4dac26"/><polygon id="polygon15" points="66 52 103.987 52 103.987 56 66 56 66 52" fill="#00a0c6"/><polygon points="52.14 33.87 40.27 33.87 40.27 43.605 61.605 43.605 52.14 33.87 52.14 33.87" fill="#fff"/><polygon points="61.605 22.136 40.27 22.136 40.27 31.87 52.006 31.87 61.605 22.136 61.605 22.136" fill="#fff"/><path d="M39.6,21.47V8.936A23.893,23.893,0,0,0,32.805,8,25.1,25.1,0,0,0,8,32.8,24.837,24.837,0,0,0,32.936,57.476,21.58,21.58,0,0,0,39.6,56.407v-12.8c-2.934,1.466-4.4,1.866-6.8,1.866A13.033,13.033,0,0,1,19.867,32.536a12.865,12.865,0,0,1,12.8-13.068,13.05,13.05,0,0,1,6.933,2Z" fill="#fff"/><path d="M97.754,87.747V64.908H77.634L56.64,85.783,56.566,96.3H83.082v7.224H97.754V96.3H104V87.747Zm-14.672,0H70.371l12.711-12.8Z" fill="#fff"/><path d="M47.264,82.039Q43.673,79.413,35.9,79.411H30.738a16.288,16.288,0,0,0-7.916,1.75V75.745q0-1.806.833-2.283a9.35,9.35,0,0,1,3.814-.48h3.488a7.9,7.9,0,0,1,3.2.426,1.864,1.864,0,0,1,.8,1.808v1.008H49.627V73.408q0-4.407-4.288-6.691T32.554,64.433H26.307q-10.315,0-14.309,3.558T8,80.26v7.859q0,8.764,4,12.325T26.307,104h6.247q18.3,0,18.307-10.41h0V90.138Q50.862,84.669,47.264,82.039ZM36.186,93.005q0,1.6-.945,1.991a13.924,13.924,0,0,1-4.284.4H28.123a14.407,14.407,0,0,1-4.288-.4q-1.014-.394-1.013-1.991V90.192q0-1.542,1.013-1.911a15.282,15.282,0,0,1,4.288-.374h2.834a14.016,14.016,0,0,1,4.249.4c.652.265.98.892.98,1.886Z" fill="#fff"/></svg>