<svg id="Layer_1" data-name="Layer 1" xmlns="http://www.w3.org/2000/svg" xmlns:xlink="http://www.w3.org/1999/xlink" viewBox="0 0 210.17 170.927"><defs><linearGradient id="linear-gradient" x1="33.099" y1="4.561" x2="33.099" y2="73.595" gradientTransform="matrix(1, 0, 0, -1, 0, 172)" gradientUnits="userSpaceOnUse"><stop offset="0" stop-color="#00fd8b"/><stop offset="0.214" stop-color="#00f9cb"/><stop offset="0.535" stop-color="#00c3ce"/><stop offset="0.781" stop-color="#0066ce"/><stop offset="1" stop-color="#002ffe"/></linearGradient><linearGradient id="linear-gradient-2" x1="58.39" y1="4.561" x2="58.39" y2="73.595" xlink:href="#linear-gradient"/><linearGradient id="linear-gradient-3" x1="114.01" y1="4.561" x2="114.01" y2="172" gradientTransform="matrix(1, 0, 0, -1, 0, 172)" gradientUnits="userSpaceOnUse"><stop offset="0" stop-color="#41962f"/><stop offset="0.134" stop-color="#54aa45"/><stop offset="0.422" stop-color="#ffcc27"/><stop offset="0.535" stop-color="#ffcc27"/><stop offset="0.781" stop-color="#f9661c"/><stop offset="1" stop-color="#dc421e"/></linearGradient><linearGradient id="linear-gradient-4" x1="139.011" y1="4.561" x2="139.011" y2="172" xlink:href="#linear-gradient-3"/></defs><title>commodoreamiga</title><polygon id="polygon3" points="30.49 101.895 52.553 101.895 80.782 146.057 74.617 170.927 30.49 101.895"/><g id="g5"><polygon id="polygon7" points="5.232 101.895 27.296 101.895 71.432 170.927 49.368 170.927 5.232 101.895"/><polygon id="polygon9" points="210.17 3.488 188.107 3.488 70.412 170.927 92.484 170.927 210.17 3.488"/><polygon id="polygon11" points="189.119 3.488 167.055 3.488 49.368 170.927 71.432 170.927 189.119 3.488"/></g><polygon id="polygon13" points="0 98.405 22.063 98.405 66.199 167.439 44.135 167.439 0 98.405" opacity="0.9" style="isolation:isolate"/><polygon id="polygon15" points="25.291 98.405 47.354 98.405 91.49 167.439 69.426 167.439 25.291 98.405" opacity="0.9" style="isolation:isolate"/><g id="g17" opacity="0.85"><polygon id="polygon30" points="0 98.405 22.063 98.405 66.199 167.439 44.135 167.439 0 98.405" fill="url(#linear-gradient)"/><polygon id="polygon43" points="25.291 98.405 47.354 98.405 91.49 167.439 69.426 167.439 25.291 98.405" fill="url(#linear-gradient-2)"/></g><polygon id="polygon58" points="183.886 0 161.823 0 44.135 167.439 66.199 167.439 183.886 0" fill="url(#linear-gradient-3)"/><polygon id="polygon73" points="208.886 0 186.823 0 69.135 167.439 91.199 167.439 208.886 0" fill="url(#linear-gradient-4)"/></svg>