<svg id="Layer_1" data-name="Layer 1" xmlns="http://www.w3.org/2000/svg" xmlns:xlink="http://www.w3.org/1999/xlink" viewBox="0 0 112 112"><defs><linearGradient id="linear-gradient" x1="66" y1="34" x2="104" y2="34" gradientUnits="userSpaceOnUse"><stop offset="0" stop-color="#0187fb"/><stop offset="0.2" stop-color="#10b24c"/><stop offset="0.4" stop-color="#95d429"/><stop offset="0.5" stop-color="#f5e910"/><stop offset="1" stop-color="#fc0103"/></linearGradient></defs><title>commodoreplus-4</title><rect width="112" height="112" rx="18" ry="18" fill="#5d594f"/><polygon id="polygon7" points="66 12 104 12 104 56 66 56 66 12" fill="url(#linear-gradient)"/><polygon points="52.14 33.87 40.27 33.87 40.27 43.605 61.605 43.605 52.14 33.87 52.14 33.87" fill="#fff"/><polygon points="61.605 22.136 40.27 22.136 40.27 31.87 52.006 31.87 61.605 22.136 61.605 22.136" fill="#fff"/><path d="M39.6,21.47V8.936A23.893,23.893,0,0,0,32.805,8,25.1,25.1,0,0,0,8,32.8,24.837,24.837,0,0,0,32.936,57.476,21.58,21.58,0,0,0,39.6,56.407v-12.8c-2.934,1.466-4.4,1.866-6.8,1.866A13.033,13.033,0,0,1,19.867,32.536a12.865,12.865,0,0,1,12.8-13.068,13.05,13.05,0,0,1,6.933,2Z" fill="#fff"/><path d="M109.02,95.6h-6.694v6.629H92.387V95.6h-27.4V81.975L85.383,67.144h16.943V87.382h6.694ZM92.387,75.126H90.275L74.363,86.043v1.339H92.387Z" fill="#fff"/><rect x="54.241" y="62.827" width="4.796" height="42.347" transform="translate(43.689 -16.48) rotate(26.647)" fill="#fff"/><polygon points="46 79.5 28.5 79.5 28.5 66 21.5 66 21.5 79.5 4 79.5 4 88.5 21.5 88.5 21.5 102 28.5 102 28.5 88.5 46 88.5 46 79.5" fill="#fff"/></svg>