<svg id="svg2" xmlns="http://www.w3.org/2000/svg" viewBox="0 0 112 69.78"><defs><style>.cls-1{fill:#a00;}.cls-2{fill:#672178;}.cls-3{fill:#fc0;}</style></defs><title>DOS_SVG</title><g id="layer1"><path id="flowRoot3165" class="cls-1" d="M0,3H24.66Q33,3,37.38,4.22a22.43,22.43,0,0,1,10.08,6.16A29.2,29.2,0,0,1,53.84,21.2,49.31,49.31,0,0,1,56,37,43.82,43.82,0,0,1,54,51.22,29.41,29.41,0,0,1,46.82,63a23.63,23.63,0,0,1-9.48,5.33,40.55,40.55,0,0,1-12,1.42H0Zm13.49,11.3V58.52H23.57a37.06,37.06,0,0,0,8.16-.64,12.59,12.59,0,0,0,5.45-2.78,14.2,14.2,0,0,0,3.53-6.45,43.71,43.71,0,0,0,1.37-12.24q0-7.75-1.37-11.9A15.25,15.25,0,0,0,36.88,18a12.85,12.85,0,0,0-6.25-3.15q-2.82-.64-11.07-.64Z"/><path id="text3173" class="cls-2" d="M26,35.44Q26,25.24,29,18.3a31.6,31.6,0,0,1,6.22-9.16,26.16,26.16,0,0,1,8.64-6A36.78,36.78,0,0,1,58.31.48q14.76,0,23.63,9.16t8.87,25.48q0,16.18-8.8,25.33T58.49,69.59q-14.91,0-23.7-9.1T26,35.44ZM39.89,35q0,11.35,5.24,17.21a17.11,17.11,0,0,0,13.31,5.85,16.93,16.93,0,0,0,13.25-5.81q5.18-5.81,5.17-17.43t-5-17.15Q66.8,12,58.44,12A17.15,17.15,0,0,0,45,17.73Q39.89,23.46,39.89,35Z"/><path id="text3177" class="cls-3" d="M57.66,46.23,70.79,45Q72,51.57,75.6,54.66t9.78,3.1q6.51,0,9.82-2.76a8.22,8.22,0,0,0,3.31-6.45,6.09,6.09,0,0,0-1.39-4,11.14,11.14,0,0,0-4.86-2.9q-2.37-.82-10.8-2.92Q70.6,36,66.23,32.09a17.38,17.38,0,0,1-6.15-13.44A17.21,17.21,0,0,1,63,9.09a18.15,18.15,0,0,1,8.34-6.77A33.68,33.68,0,0,1,84.47,0Q97,0,103.41,5.52t6.68,14.72l-13.5.59c-.58-3.43-1.81-5.9-3.71-7.4s-4.75-2.26-8.55-2.26-7,.8-9.21,2.41A4.88,4.88,0,0,0,73,17.73a5.15,5.15,0,0,0,2,4.06q2.56,2.14,12.4,4.47T102,31.07a18.7,18.7,0,0,1,7.38,6.79A19.84,19.84,0,0,1,112,48.5a19.65,19.65,0,0,1-3.19,10.76,19.14,19.14,0,0,1-9,7.46,37.93,37.93,0,0,1-14.54,2.44q-12.67,0-19.47-5.86T57.66,46.23Z"/><path id="path3190" class="cls-1" d="M32.29,57.76c4.27-2.71,8.35-7.11,9.17-12.22L51.55,56.78c-2,3-3,4.82-9.14,9.49C37.1,64.57,34.59,61.18,32.29,57.76Z"/><path id="path3192" class="cls-2" d="M76.79,37.63a45,45,0,0,0-2.87-16.94l16.29,6.19a89.12,89.12,0,0,1,.32,14.3Z"/></g></svg>