<svg id="svg2" xmlns="http://www.w3.org/2000/svg" viewBox="0 0 112 69.771"><title>DOS_SVG</title><g id="layer1"><path id="flowRoot3165" d="M0,3.01H24.657A50.333,50.333,0,0,1,37.375,4.229a22.43,22.43,0,0,1,10.079,6.16,29.185,29.185,0,0,1,6.379,10.818,49.314,49.314,0,0,1,2.16,15.8,43.832,43.832,0,0,1-2,14.218A29.408,29.408,0,0,1,46.814,63a23.625,23.625,0,0,1-9.479,5.329,40.525,40.525,0,0,1-12,1.42H0Zm13.488,11.3V58.522H23.567a37.027,37.027,0,0,0,8.159-.64A12.588,12.588,0,0,0,37.175,55.1a14.206,14.206,0,0,0,3.53-6.449,43.719,43.719,0,0,0,1.37-12.239q0-7.749-1.37-11.9a15.25,15.25,0,0,0-3.83-6.509,12.843,12.843,0,0,0-6.249-3.15q-2.82-.641-11.069-.64Z" fill="#a00"/><path id="text3173" d="M26,35.445q0-10.2,3-17.137a31.584,31.584,0,0,1,6.219-9.159,26.158,26.158,0,0,1,8.639-6A36.768,36.768,0,0,1,58.3.49q14.759,0,23.627,9.159T90.8,35.125Q90.8,51.3,82,60.452T58.482,69.591q-14.907,0-23.7-9.1T26,35.445Zm13.888-.44q0,11.349,5.239,17.208a17.107,17.107,0,0,0,13.308,5.849,16.929,16.929,0,0,0,13.249-5.809q5.18-5.809,5.169-17.428t-5-17.147q-5.06-5.67-13.419-5.67a17.148,17.148,0,0,0-13.438,5.73Q39.885,23.466,39.885,35.005Z" fill="#672178"/><path id="text3177" d="M57.652,46.234,70.781,45q1.209,6.57,4.809,9.659t9.779,3.1q6.508,0,9.819-2.759A8.22,8.22,0,0,0,98.5,48.554a6.089,6.089,0,0,0-1.39-4,11.134,11.134,0,0,0-4.859-2.9q-2.37-.821-10.8-2.92Q70.59,36,66.221,32.1a17.377,17.377,0,0,1-6.149-13.438A17.2,17.2,0,0,1,62.992,9.1,18.146,18.146,0,0,1,71.331,2.33,33.667,33.667,0,0,1,84.459.01Q96.987.01,103.4,5.529t6.679,14.718l-13.5.59c-.58-3.429-1.809-5.9-3.709-7.4s-4.749-2.259-8.549-2.259-7,.8-9.209,2.409a4.881,4.881,0,0,0-2.12,4.15,5.152,5.152,0,0,0,2,4.059q2.561,2.14,12.4,4.47t14.6,4.809a18.7,18.7,0,0,1,7.379,6.789A19.842,19.842,0,0,1,111.985,48.5,19.643,19.643,0,0,1,108.8,59.262a19.14,19.14,0,0,1-9,7.459,37.921,37.921,0,0,1-14.538,2.44q-12.669,0-19.468-5.859T57.652,46.234Z" fill="#fc0"/><path id="path3190" d="M32.286,57.762c4.269-2.709,8.349-7.109,9.169-12.218L51.543,56.783c-2,3-3,4.819-9.139,9.488C37.1,64.572,34.585,61.182,32.286,57.762Z" fill="#a00"/><path id="path3192" d="M76.78,37.635A44.991,44.991,0,0,0,73.91,20.7L90.2,26.886a89.024,89.024,0,0,1,.32,14.3Z" fill="#672178"/></g></svg>