<svg id="Layer_1" data-name="Layer 1" xmlns="http://www.w3.org/2000/svg" viewBox="0 0 112 99.319"><title>Dreamcast_SVG</title><path id="path23" d="M68.163,1.365A73.213,73.213,0,0,1,78.79,4.124c4.469,1.36,11.717,5.609,14.277,7.638a39.429,39.429,0,0,1,4.738,4.749c1,1.24,2.8,3.919,4,5.559a98.513,98.513,0,0,1,5.919,10.507,24.713,24.713,0,0,1,2.849,8.858l1.37,6.148c.13,1.06.24,5-2,5.5a5,5,0,0,1-5.388-2c-1.38-2.129-1.19-5.158-2.75-8.627-1.219-2.8-1.749-6.879-3.689-9.8l-1.609-2.649c-2.69-4.149-5.5-7.438-7.178-9.588a34.657,34.657,0,0,0-6.839-6,46.759,46.759,0,0,0-9.137-4,54.241,54.241,0,0,0-7.129-1.74c-3.239-.37-5.368-.88-8.448-1.1a44.405,44.405,0,0,0-10.547,0c-1.869.51-4.829.71-7.488,1.73a67.286,67.286,0,0,0-8.078,4A62.607,62.607,0,0,0,20.555,21.59a35.45,35.45,0,0,0-7,9.587,82.92,82.92,0,0,0-3.629,7.808c-.52,2.38-1.51,6.809-1.35,9,.08,3.859-.26,4.659,0,7.808,0,2.84,1,4.809,1.33,7.128.329,1.61,1.869,7.159,2.829,8.448,4.329,9.328,10.137,13.367,16.606,16.276a74.8,74.8,0,0,0,9.187,2.9,67.548,67.548,0,0,0,10.1.91c3.749.08,8.928-.43,12.067-1.589,3.4-1.25,7.328-3,7.278-3a44.175,44.175,0,0,0,4.759-2.869,16.025,16.025,0,0,0,3.179-2.179,14.821,14.821,0,0,0,2.919-3c.53-.759,1.36-1.909,2.16-2.939A45.38,45.38,0,0,0,83.209,71c1-2.749.86-2.619,1-5.528a16.4,16.4,0,0,0-.17-4.169c-.46-2.629-.3-4.939-.9-7.478-.81-3.449-1.48-6-2.519-9.328-1-3.719-3.829-7.168-6-9.628a31.525,31.525,0,0,0-11.167-7.378,50.144,50.144,0,0,0-5.838-1.479c-3.57-.38-4.159-.14-7.579.11a48.462,48.462,0,0,0-4.908,1.119,29.869,29.869,0,0,0-7,3.53,18.564,18.564,0,0,0-3.879,2.769c-1.139,1.06-1.949,2.849-2.879,3.909A28.848,28.848,0,0,0,27.723,44a20.388,20.388,0,0,0-1.2,8.168,32.575,32.575,0,0,0,.65,5.489c.18.69.64,2.8.74,3.229s1.2,2.659,1.35,3A18.029,18.029,0,0,0,33.072,69a15.922,15.922,0,0,0,6.468,3.809c1.92,1,5.149,1.23,6.938,1.23a31.805,31.805,0,0,0,4.3-.47,22.838,22.838,0,0,0,5.269-1.65c2.2-1,3.689-1.389,5.219-2.519a24.258,24.258,0,0,0,3.059-2.849A11.888,11.888,0,0,0,65.544,61c-.08-2.569.3-4-.23-6.149a22.513,22.513,0,0,0-2.39-6.078c-1-1.53-3.1-3-5.5-4.2a24.832,24.832,0,0,0-5.9-1.45,7.326,7.326,0,0,0-6,2.2c-1.13,1.3-3.37,4-2.48,6.768.81,2.51,1.78,5.2,5.559,5,2.589.54,5.578-.25,6.578.21a3.35,3.35,0,0,1,1.51,4c-.37,2.489-2.76,2.789-5.319,3-2.279.38-8.078-.73-9.358-1.689A27.467,27.467,0,0,1,38.91,60a12,12,0,0,1-1.919-2.839,10.254,10.254,0,0,1-1.11-2.779A14.994,14.994,0,0,1,35.431,50c.1-1.16.42-1.66.73-3.359a16.245,16.245,0,0,1,2.609-5.059,21.532,21.532,0,0,1,5.639-4.479c1.759-.93,4.829-1.27,7.618-1.1a33.644,33.644,0,0,1,6.688,1.08,24.278,24.278,0,0,1,6.369,2.919,18.162,18.162,0,0,1,5.388,5.659,30.518,30.518,0,0,1,2.89,18.5,11.562,11.562,0,0,1-1.3,4.279,13.206,13.206,0,0,1-4,5,15.327,15.327,0,0,1-3,2.159c-1.44.88-2.41,1.33-3.909,2.09a30,30,0,0,1-4.869,1.889c-2.18.86-3.849.89-6.579,1.3-2.7.68-10.067.19-14.456-1.74a27.544,27.544,0,0,1-8.908-6.188,34.6,34.6,0,0,1-3.219-4.739,36.629,36.629,0,0,1-2.749-8.348,33.089,33.089,0,0,1-1-5A37.543,37.543,0,0,1,21,40.555,44.573,44.573,0,0,1,23.314,36c1.25-1.779,1.86-2.889,2.919-4.149a25.025,25.025,0,0,1,4.329-4.639A52.208,52.208,0,0,1,42.339,20.14c5.579-2.279,7.259-1.809,12.537-1.719A50.281,50.281,0,0,1,62.4,19.5a42.727,42.727,0,0,1,7.1,1.77,20.48,20.48,0,0,1,5.478,2.789,37.261,37.261,0,0,1,4.549,3.469c3.109,2.25,4.589,4.609,6.448,7.478a51.646,51.646,0,0,1,2.92,6.569c.17.66.679,2.569,1,3.679.42,1.759.62,3.329,1.08,5.319a87.09,87.09,0,0,1,1.43,9.547c.52,3.1-.31,9.438-.79,11.387a32.433,32.433,0,0,1-6.738,12.317,37.377,37.377,0,0,1-5.249,5,36.835,36.835,0,0,1-5.089,3.349,58.416,58.416,0,0,1-9.907,4.819,60.074,60.074,0,0,1-6.489,1.839,68.232,68.232,0,0,1-14.846.16,80.984,80.984,0,0,1-13.716-3.079c-1.72-.64-5.069-2.049-6.469-2.8a39.32,39.32,0,0,1-4.489-3.059c-2.1-1.3-6.788-5.709-9.817-9.828-.67-1.23-3.059-5.069-3.569-6.748a76.867,76.867,0,0,1-2.9-7.7c-.6-3.409-1.6-5.6-2-9A22.8,22.8,0,0,0,0,53c.27-2.339-.09-4.549.38-7.1.4-2.15.94-3,1.07-5,.13-.83,1.2-3.339,1.479-4.449.87-1.819,1.07-3.329,2.21-5.379,1.629-3.2,3.329-6.868,5.938-10.067.74-1,2.849-3.379,3.579-4.209,1.7-1.7,2.7-2,4.629-3.679a10.325,10.325,0,0,1,2.809-2.11c2.22-1.709,4.129-2.339,6.229-3.9,4.229-2.1,5.768-2.809,10-4.548,2.42-.87,5.8-1.34,7-1.82,2.289-.12,4.668-.86,7.068-.73a81.336,81.336,0,0,1,8.228.42,44.26,44.26,0,0,1,7.548.91Z" fill="#ed8432"/></svg>