<svg id="Layer_1" data-name="Layer 1" xmlns="http://www.w3.org/2000/svg" viewBox="0 0 112 99.33"><defs><style>.cls-1{fill:#ed8432;}</style></defs><title>Dreamcast_SVG</title><path id="path23" class="cls-1" d="M68.18,1.35A73.19,73.19,0,0,1,78.81,4.11c4.47,1.36,11.72,5.61,14.28,7.64a39.39,39.39,0,0,1,4.74,4.75c1,1.24,2.8,3.92,4,5.56a98.63,98.63,0,0,1,5.92,10.51,24.73,24.73,0,0,1,2.85,8.86l1.37,6.15c.13,1.06.24,5-2,5.5a5,5,0,0,1-5.39-2c-1.38-2.13-1.19-5.16-2.75-8.63-1.22-2.8-1.75-6.88-3.69-9.8L96.53,30c-2.69-4.15-5.5-7.44-7.18-9.59a34.64,34.64,0,0,0-6.84-6,46.83,46.83,0,0,0-9.14-4,54.24,54.24,0,0,0-7.13-1.74c-3.24-.37-5.37-.88-8.45-1.1a44.4,44.4,0,0,0-10.55,0c-1.87.51-4.83.71-7.49,1.73a67.37,67.37,0,0,0-8.08,4,62.67,62.67,0,0,0-11.11,8.28,35.45,35.45,0,0,0-7,9.59c-1,2.15-2.87,5.47-3.63,7.81-.52,2.38-1.51,6.81-1.35,9,.08,3.86-.26,4.66,0,7.81,0,2.84,1,4.81,1.33,7.13.33,1.61,1.87,7.16,2.83,8.45,4.33,9.33,10.14,13.37,16.61,16.28a75,75,0,0,0,9.19,2.9,67.72,67.72,0,0,0,10.1.91c3.75.08,8.93-.43,12.07-1.59,3.4-1.25,7.33-3,7.28-3A44.21,44.21,0,0,0,72.75,84a16,16,0,0,0,3.18-2.18,14.8,14.8,0,0,0,2.92-3c.53-.76,1.36-1.91,2.16-2.94A45.4,45.4,0,0,0,83.23,71c1-2.75.86-2.62,1-5.53a16.36,16.36,0,0,0-.17-4.17c-.46-2.63-.3-4.94-.9-7.48-.81-3.45-1.48-6-2.52-9.33-1-3.72-3.83-7.17-6-9.63a31.52,31.52,0,0,0-11.17-7.38A50.14,50.14,0,0,0,57.63,26c-3.57-.38-4.16-.14-7.58.11a48.52,48.52,0,0,0-4.91,1.12,29.87,29.87,0,0,0-7,3.53,18.59,18.59,0,0,0-3.88,2.77c-1.14,1.06-1.95,2.85-2.88,3.91A28.85,28.85,0,0,0,27.73,44a20.38,20.38,0,0,0-1.2,8.17,32.47,32.47,0,0,0,.65,5.49c.18.69.64,2.8.74,3.23s1.2,2.66,1.35,3A18.05,18.05,0,0,0,33.08,69a15.93,15.93,0,0,0,6.47,3.81c1.92,1,5.15,1.23,6.94,1.23a31.58,31.58,0,0,0,4.3-.47,22.82,22.82,0,0,0,5.27-1.65c2.2-1,3.69-1.39,5.22-2.52a24.15,24.15,0,0,0,3.06-2.85A11.88,11.88,0,0,0,65.56,61c-.08-2.57.3-4-.23-6.15a22.49,22.49,0,0,0-2.39-6.08c-1-1.53-3.1-3-5.5-4.2a24.81,24.81,0,0,0-5.9-1.45,7.33,7.33,0,0,0-6,2.2c-1.13,1.3-3.37,4-2.48,6.77.81,2.51,1.78,5.2,5.56,5,2.59.54,5.58-.25,6.58.21a3.35,3.35,0,0,1,1.51,4c-.37,2.49-2.76,2.79-5.32,3-2.28.38-8.08-.73-9.36-1.69A27.43,27.43,0,0,1,38.92,60,12,12,0,0,1,37,57.16a10.23,10.23,0,0,1-1.11-2.78A15,15,0,0,1,35.44,50c.1-1.16.42-1.66.73-3.36a16.25,16.25,0,0,1,2.61-5.06,21.55,21.55,0,0,1,5.64-4.48c1.76-.93,4.83-1.27,7.62-1.1a33.66,33.66,0,0,1,6.69,1.08A24.28,24.28,0,0,1,65.1,40a18.15,18.15,0,0,1,5.39,5.66,30.52,30.52,0,0,1,2.89,18.5,11.56,11.56,0,0,1-1.3,4.28,13.21,13.21,0,0,1-4,5,15.36,15.36,0,0,1-3,2.16c-1.44.88-2.41,1.33-3.91,2.09a30,30,0,0,1-4.87,1.89c-2.18.86-3.85.89-6.58,1.3-2.7.68-10.07.19-14.46-1.74a27.56,27.56,0,0,1-8.91-6.19,34.58,34.58,0,0,1-3.22-4.74,36.66,36.66,0,0,1-2.75-8.35,33.14,33.14,0,0,1-1-5A37.56,37.56,0,0,1,21,40.55c1-1.93,1.63-3.66,2.32-4.56,1.25-1.78,1.86-2.89,2.92-4.15a25,25,0,0,1,4.33-4.64,52.19,52.19,0,0,1,11.78-7.07c5.58-2.28,7.26-1.81,12.54-1.72a50.35,50.35,0,0,1,7.53,1.08,42.76,42.76,0,0,1,7.1,1.77A20.5,20.5,0,0,1,75,24.05a37.2,37.2,0,0,1,4.55,3.47C82.66,29.77,84.14,32.13,86,35a51.62,51.62,0,0,1,2.92,6.57c.17.66.68,2.57,1,3.68.42,1.76.62,3.33,1.08,5.32a86.94,86.94,0,0,1,1.43,9.55c.52,3.1-.31,9.44-.79,11.39a32.44,32.44,0,0,1-6.74,12.32,37.39,37.39,0,0,1-5.25,5,36.81,36.81,0,0,1-5.09,3.35A58.41,58.41,0,0,1,64.65,97a60.09,60.09,0,0,1-6.49,1.84A68.32,68.32,0,0,1,43.31,99a81.08,81.08,0,0,1-13.72-3.08c-1.72-.64-5.07-2.05-6.47-2.8a39.33,39.33,0,0,1-4.49-3.06c-2.1-1.3-6.79-5.71-9.82-9.83C8.14,79,5.75,75.16,5.24,73.48a76.81,76.81,0,0,1-2.9-7.7c-.6-3.41-1.6-5.6-2-9A22.86,22.86,0,0,0,0,53c.27-2.34-.09-4.55.38-7.1.4-2.15.94-3,1.07-5,.13-.83,1.2-3.34,1.48-4.45C3.8,34.63,4,33.12,5.14,31.07,6.77,27.87,8.47,24.2,11.08,21c.74-1,2.85-3.38,3.58-4.21,1.7-1.7,2.7-2,4.63-3.68A10.31,10.31,0,0,1,22.1,11c2.22-1.71,4.13-2.34,6.23-3.9,4.23-2.1,5.77-2.81,10-4.55,2.42-.87,5.8-1.34,7-1.82C47.62.61,50-.13,52.4,0a81.15,81.15,0,0,1,8.23.42,44.28,44.28,0,0,1,7.55.91Z"/></svg>