<svg id="svg101576" xmlns="http://www.w3.org/2000/svg" viewBox="0 0 112 55.31"><title>DS_SVG</title><path id="path100608" d="M18.21,49.71c0,.59-.32,1.11-.72,1.11H3.79c-.4,0-.72-.52-.72-1.11V34.86c0-.59.32-1.06.72-1.06h13.7c.4,0,.72.47.72,1.06Zm-.6-20.37H3.67c-2,0-3.67,2.47-3.67,5.52V49.77c0,3,1.65,5.51,3.67,5.51H17.61c2,0,3.67-2.52,3.67-5.51V34.86c0-3.05-1.64-5.52-3.67-5.52" transform="translate(0 0.02)" fill="#929497"/><path id="path100646" d="M18.21,20.72c0,.52-.32,1.05-.72,1.05H3.79c-.4,0-.72-.53-.72-1.05V5.81c0-.59.32-1.06.72-1.06h13.7c.4,0,.72.47.72,1.06ZM17.61.29H3.67C1.65.29,0,2.76,0,5.81V20.72c0,3.05,1.65,5.51,3.67,5.51H17.61c2,0,3.67-2.46,3.67-5.51V5.81c0-3-1.64-5.52-3.67-5.52" transform="translate(0 0.02)" fill="#fff"/><path id="path100656" d="M75.72,44.31C79,46.3,86,47.89,91.51,47.89c6,0,8.46-3,8.46-6.93,0-3.52-2.3-5.51-8.91-9.15-8.83-4.87-15.32-8.75-15.32-17.49,0-9,7.8-14.32,19.69-14.32a38,38,0,0,1,12.63,1.7v8.57c-4-1.11-7.52-3-13-3-5.87,0-8.38,2.82-8.38,5.69,0,4.17,3.86,6.16,10.62,9.8,9.46,5,14.7,8.87,14.7,17.38,0,8.81-6.56,15.14-21.36,15.14a56.41,56.41,0,0,1-14.92-1.76V44.31" transform="translate(0 0.02)" fill="#fff"/><path id="path100660" d="M44.22,7.57h-7v40h7c10.81,0,17.63-7,17.63-20S55,7.57,44.22,7.57Zm18.9,43.72c-3.48,2.35-10.07,3.88-15.83,3.88h-22V.12h22C53.05.12,59.64,1.64,63.13,4c8.48,5.75,11.24,15,11.24,23.65S71.63,45.55,63.12,51.3" transform="translate(0 0.02)" fill="#fff"/></svg>