<svg id="svg101576" xmlns="http://www.w3.org/2000/svg" viewBox="0 0 112 56"><title>DS_SVG</title><path id="path100608" d="M18.21,50.353c0,.6-.32,1.124-.72,1.124H3.79c-.4,0-.72-.527-.72-1.124V35.318c0-.6.32-1.073.72-1.073h13.7c.4,0,.72.476.72,1.073Zm-.6-20.624H3.67c-2,0-3.67,2.5-3.67,5.589v15.1c0,3.037,1.65,5.579,3.67,5.579H17.61c2,0,3.67-2.552,3.67-5.579v-15.1c0-3.088-1.64-5.589-3.67-5.589" fill="#929497"/><path id="path100646" d="M18.21,21c0,.526-.32,1.063-.72,1.063H3.79c-.4,0-.72-.537-.72-1.063V5.906c0-.6.32-1.074.72-1.074h13.7c.4,0,.72.476.72,1.074ZM17.61.317H3.67C1.65.317,0,2.818,0,5.906V21C0,24.09,1.65,26.58,3.67,26.58H17.61c2,0,3.67-2.49,3.67-5.578V5.906c0-3.038-1.64-5.589-3.67-5.589" fill="#fff"/><path id="path100656" d="M75.72,44.886C79,46.9,86,48.51,91.51,48.51c6,0,8.46-3.037,8.46-7.016,0-3.564-2.3-5.579-8.91-9.264C82.23,27.3,75.74,23.371,75.74,14.522c0-9.113,7.8-14.5,19.69-14.5a37.579,37.579,0,0,1,12.63,1.721v8.677c-4-1.124-7.52-3.037-13-3.037-5.87,0-8.38,2.855-8.38,5.761,0,4.222,3.86,6.237,10.62,9.922,9.46,5.062,14.7,8.981,14.7,17.6,0,8.92-6.56,15.329-21.36,15.329a55.792,55.792,0,0,1-14.92-1.782V44.886" fill="#fff"/><path id="path100660" d="M44.22,7.688h-7v40.5h7c10.81,0,17.63-7.087,17.63-20.249S55,7.688,44.22,7.688Zm18.9,44.265c-3.48,2.379-10.07,3.928-15.83,3.928h-22V.145h22c5.76,0,12.35,1.539,15.84,3.928C71.61,9.9,74.37,19.26,74.37,28.018S71.63,46.141,63.12,51.963" fill="#fff"/></svg>