<svg id="Layer_1" data-name="Layer 1" xmlns="http://www.w3.org/2000/svg" viewBox="0 0 18.156 18.156"><title>emersonarcadia2001</title><path d="M7.746.109A9.064,9.064,0,0,0,4.484,16.9Z" fill="#fe3d22"/><path d="M4.454,16.88a8.864,8.864,0,0,0,6.054,1.153L13.756,1.309A8.839,8.839,0,0,0,7.711.114Z" fill="#9ae456"/><path d="M10.467,18.039A9.064,9.064,0,0,0,13.721,1.287Z" fill="#2d5be8"/><path d="M13.641,9.727A3.292,3.292,0,0,0,9.564,6.5Q9.3,5.873,9.131,5.343C13.525,1.489,6.667-.924,8.6,5.08,6.328,6.616,4.281,8.088,4.281,9.727c0,1.562,1.294,4.131,4.9,3.413A1.386,1.386,0,0,1,9.4,15.582a1.423,1.423,0,0,0-.862-.445,1.137,1.137,0,0,0-1.377.774c-.076.526.418,1.032,1.1,1.13a1.461,1.461,0,0,0,.874-.137v.007c.008,0,.015-.011.023-.015s.033-.022.05-.033a3.281,3.281,0,0,0,1.308-3.837A3.311,3.311,0,0,0,13.641,9.727ZM8.969,4.8c-1.267-4.728,3.11-2.706,0,0Zm-.188.811q.177.47.424,1a3.3,3.3,0,0,0-.6,5.943C5.244,13.271,3.53,8.815,8.781,5.609Zm1.539,6.5A2.383,2.383,0,1,1,12.7,9.727,2.381,2.381,0,0,1,10.32,12.109Z"/><circle cx="10.32" cy="9.727" r="1.492"/></svg>