<svg id="Layer_1" data-name="Layer 1" xmlns="http://www.w3.org/2000/svg" viewBox="0 0 256.83 115"><title>entexadventurevision</title><polygon points="256.83 27.25 45.768 27.25 41.47 27.25 39.097 30.833 8.222 77.458 0 89.875 14.893 89.875 230.934 89.875 235.28 89.875 235.955 89.875 256.83 27.25" fill="#3e57b8"/><path d="M237.166,0H188.744l-3.875,11.624-6.29,18.869-7.235-19.426L167.223,0H118.358L126.9,22.933l30.167,81L161.187,115h37.646l3.875-11.624,27-81L237.166,0ZM213.585,0h0Z" fill="#3e57b8"/><path d="M131.58,0H88.5L83.47,7.707l-52.875,81L13.431,115H68.659l5.031-7.707L84.163,91.25h.917V115h46.5V0Z" fill="#3e57b8"/><path d="M127.58,4H90.666L86.819,9.894l-52.875,81L20.819,111H66.493l3.848-5.894L82,87.25H89.08V111h38.5V4Z" fill="#fff"/><path d="M231.617,4h-39.99l-2.963,8.889-9.876,29.627L167.6,12.463,164.444,4H124.116l6.531,17.537,30.167,81L163.966,111H195.95l2.963-8.889,27-81L231.617,4ZM213.585,4h0Zm0,26h0Z" fill="#fff"/><polygon points="233.288 85.875 251.497 31.25 45.768 31.25 43.619 31.25 42.432 33.042 11.557 79.667 7.446 85.875 14.893 85.875 230.934 85.875 233.107 85.875 233.288 85.875" fill="#fff"/><polygon points="246.163 35.25 45.768 35.25 14.893 81.875 230.622 81.875 246.163 35.25" fill="#ff1a11"/><path d="M123.58,8H92.832l-2.663,4.08-52.875,81L28.207,107H64.328l2.663-4.08,12.84-19.67H93.08V107h30.5V8Z" fill="#ff1a11"/><path d="M226.067,8H194.51l-2.051,6.154L179,54.538l-15.15-40.679L161.665,8H129.874L134.4,20.141l30.167,81L166.745,107h26.322l2.051-6.154,27-81L226.067,8ZM213.585,8h0Zm0,18h0Z" fill="#ff1a11"/><path d="M97.705,17,44.83,98H59.455l15.5-23.75H102.08V98h12.5V17ZM83.159,61.688,102.08,32.7V61.688Z" fill="#fff"/><polygon points="200.997 17 179.468 81.588 155.413 17 142.83 17 172.997 98 186.58 98 213.58 17 200.997 17" fill="#fff"/></svg>