<svg id="Layer_2" data-name="Layer 2" xmlns="http://www.w3.org/2000/svg" viewBox="0 0 250 185.667"><title>fairchildchannelf</title><path d="M240.1,31.833C237.626,23.5,235.466,15.5,223.74,12.5S171.593,2.5,125,2.5s-87.015,7-98.74,10S12.374,23.5,9.9,31.833s-7.4,36-7.4,61,4.937,52.667,7.4,61,4.629,16.333,16.355,19.333,52.147,10,98.74,10,87.015-7,98.74-10,13.886-11,16.355-19.333,7.405-36,7.405-61S242.564,40.166,240.1,31.833Z" fill="#fff"/><path d="M125,185.667c-48.952,0-89.141-7.464-99.36-10.078-12.882-3.3-15.481-12.083-17.994-20.581l-.138-.464C4.972,145.982,0,118.217,0,92.833s4.972-53.149,7.508-61.71l.138-.464c2.513-8.5,5.112-17.285,17.994-20.581C35.859,7.463,76.048,0,125,0s89.141,7.463,99.36,10.078c12.882,3.3,15.481,12.083,17.994,20.581l.138.464C245.028,39.684,250,67.447,250,92.833s-4.972,53.149-7.508,61.711l-.138.464c-2.513,8.5-5.112,17.285-17.994,20.581C214.141,178.2,173.952,185.667,125,185.667ZM125,5c-44.835,0-85.468,6.685-98.12,9.922C16.747,17.515,14.847,23.94,12.44,32.077l-.137.466C9.682,41.39,5,69.1,5,92.833s4.682,51.443,7.3,60.291l.137.466c2.407,8.137,4.307,14.562,14.44,17.155,12.652,3.237,53.285,9.922,98.12,9.922s85.468-6.685,98.12-9.922c10.133-2.593,12.033-9.018,14.44-17.155l.137-.466c2.621-8.848,7.3-36.561,7.3-60.291s-4.682-51.443-7.3-60.29l-.137-.466c-2.407-8.137-4.307-14.562-14.44-17.155C210.468,11.685,169.835,5,125,5Z"/><polygon points="167.875 56.332 167.875 19.832 118.625 19.832 96.375 19.832 82.125 19.832 82.125 165.834 118.625 165.834 118.625 109.332 167.875 109.332 167.875 76.332 118.625 76.332 118.625 56.332 167.875 56.332" fill="#ec0000"/></svg>