<svg id="Layer_2" data-name="Layer 2" xmlns="http://www.w3.org/2000/svg" viewBox="0 0 245 180.667"><title>fairchildchannelf_light</title><path d="M237.6,29.333C235.126,21,232.966,13,221.24,10S169.093,0,122.5,0,35.485,7,23.76,10,9.874,21,7.405,29.333s-7.4,36-7.4,61,4.937,52.667,7.405,61,4.629,16.333,16.355,19.333,52.147,10,98.74,10,87.015-7,98.74-10,13.886-11,16.355-19.333,7.405-36,7.405-61S240.064,37.666,237.6,29.333Z" fill="#c4c4c4"/><polygon points="165.375 53.832 165.375 17.332 116.125 17.332 93.875 17.332 79.625 17.332 79.625 163.334 116.125 163.334 116.125 106.832 165.375 106.832 165.375 73.832 116.125 73.832 116.125 53.832 165.375 53.832" fill="#ec0000"/></svg>