<svg id="Layer_1" data-name="Layer 1" xmlns="http://www.w3.org/2000/svg" xmlns:xlink="http://www.w3.org/1999/xlink" viewBox="0 0 97.19 112"><defs><linearGradient id="linear-gradient" x1="22.02" y1="640.58" x2="94.45" y2="652.63" gradientTransform="matrix(1, 0, 0, -1, 0, 723.04)" gradientUnits="userSpaceOnUse"><stop offset="0.04" stop-color="#fff"/><stop offset="0.9" stop-color="#898cbf"/></linearGradient><linearGradient id="linear-gradient-2" x1="48.32" y1="639.395" x2="82.7" y2="639.395" gradientTransform="matrix(1, 0, 0, -1, 0, 723.04)" gradientUnits="userSpaceOnUse"><stop offset="0" stop-color="#140f2d"/><stop offset="1" stop-color="#3b3c75"/></linearGradient><linearGradient id="linear-gradient-3" x1="57.791" y1="662.722" x2="98.041" y2="636.302" gradientTransform="matrix(1, 0, 0, -1, 0, 723.04)" gradientUnits="userSpaceOnUse"><stop offset="0" stop-color="#4c5284"/><stop offset="1" stop-color="#8789bc"/></linearGradient><linearGradient id="linear-gradient-4" x1="48.21" y1="611.62" x2="47.93" y2="629.57" gradientTransform="matrix(1, 0, 0, -1, 0, 723.04)" gradientUnits="userSpaceOnUse"><stop offset="0.11" stop-color="#4c407e"/><stop offset="0.89" stop-color="#669"/><stop offset="1" stop-color="#a7b3d9"/><stop offset="1" stop-color="#9ba5cd"/></linearGradient><linearGradient id="linear-gradient-5" x1="4.348" y1="651.185" x2="59.528" y2="666.515" gradientTransform="matrix(1, 0, 0, -1, 0, 723.04)" gradientUnits="userSpaceOnUse"><stop offset="0.23" stop-color="#669"/><stop offset="0.72" stop-color="#a7b3d9"/></linearGradient><linearGradient id="linear-gradient-6" x1="5.309" y1="647.752" x2="60.479" y2="663.082" gradientTransform="matrix(1, 0, 0, -1, 0, 723.04)" gradientUnits="userSpaceOnUse"><stop offset="0.23" stop-color="#669"/><stop offset="0.99" stop-color="#a7b3d9"/></linearGradient><linearGradient id="linear-gradient-7" x1="17.661" y1="645.153" x2="39.601" y2="633.413" gradientTransform="matrix(1, 0, 0, -1, 0, 723.04)" gradientUnits="userSpaceOnUse"><stop offset="0" stop-color="#6e70a9"/><stop offset="0.97" stop-color="#514a8e"/></linearGradient><linearGradient id="linear-gradient-8" x1="50.251" y1="702.993" x2="64.181" y2="696.223" gradientTransform="matrix(1, 0, 0, -1, 0, 723.04)" gradientUnits="userSpaceOnUse"><stop offset="0.04" stop-color="#9ea5d3"/><stop offset="0.9" stop-color="#7675ae"/></linearGradient><linearGradient id="linear-gradient-9" x1="0.21" y1="695.1" x2="0.21" y2="695.1" xlink:href="#linear-gradient-6"/><linearGradient id="linear-gradient-10" x1="44.544" y1="718.96" x2="41.254" y2="682.45" gradientTransform="matrix(1, 0, 0, -1, 0, 723.04)" gradientUnits="userSpaceOnUse"><stop offset="0" stop-color="#aaacd2"/><stop offset="0.63" stop-color="#fcfafb"/></linearGradient><linearGradient id="linear-gradient-11" x1="64.733" y1="723.18" x2="61.443" y2="686.67" gradientTransform="matrix(1, 0, 0, -1, 0, 723.04)" gradientUnits="userSpaceOnUse"><stop offset="0.67" stop-color="#aaacd2"/><stop offset="1" stop-color="#fcfafb"/></linearGradient></defs><title>Gamecube_SVG</title><g id="_3D_PART" data-name=" 3D PART"><polygon points="80.65 56.3 80.65 74.48 48.42 93.08 16.44 74.48 15.02 75.46 48.42 95.07 82.11 75.56 82.11 55.46 80.65 56.3" fill="url(#linear-gradient)"/></g><g id="black_line_thing" data-name="black line thing"><polygon points="80.65 74.41 82.11 75.46 82.11 75.56 82.01 75.63 80.54 74.55 80.65 74.48 80.65 74.41" fill="#7a7eae"/></g><g id="dark_purple_top_line" data-name="dark purple top line"><polygon points="48.7 56.09 25.99 42.78 25.64 43.13 48.42 56.68 48.7 56.09" fill="#639"/><polygon points="48.63 56.09 48.81 56.09 48.81 56.26 48.53 56.26 48.63 56.09" fill="#639"/></g><g id="top_black_line" data-name="top black line"><polygon points="48.7 56.68 48.7 56.09 97.06 28.15 97.19 28.53 48.7 56.68" fill="#120f22"/></g><g id="LOGO_DARK_LINES" data-name="LOGO DARK LINES"><polygon points="48.7 112 49.02 95.31 82.56 75.98 82.7 55.29 82.11 55.29 82.11 75.56 48.42 95.07 48.32 112 48.7 112" fill="url(#linear-gradient-2)"/></g><g id="LOGO"><polygon points="48.7 82.25 48.7 56.68 97.19 28.53 97.19 84.03 48.7 112 48.7 95.17 82.39 75.81 82.39 55.29 71.1 61.84 71.1 69.05 48.7 82.25" fill="url(#linear-gradient-3)"/></g><g id="BOTTOM_LAIN_LEFT_LIGHT_LINE" data-name="BOTTOM LAIN LEFT LIGHT LINE"><polyline points="48.14 112 48.42 112 48.42 95.07 47.48 94.48 48.14 112" fill="url(#linear-gradient-4)"/></g><g id="underneath-2"><polyline points="14.91 36.68 15.12 36.86 15.22 75.32 15.02 75.46 14.88 75.39 14.91 36.68" fill="#2d2868"/></g><g id="LEFT_3D_PURPLE_SHADOW" data-name="LEFT 3D PURPLE SHADOW"><polygon points="16.44 74.48 15.02 75.46 15.02 36.75 48.7 17.28 48.7 19.2 16.48 37.87 16.44 74.48" fill="#453d76"/></g><g id="MAIN_DARK_PURPLE_LINE" data-name="MAIN DARK PURPLE LINE"><polygon points="48.7 55.98 48.7 82.25 48.42 82.42 48.42 56.68 48.42 55.91 48.7 55.98" fill="#453d76"/></g><g id="logo_LEFT_side" data-name="logo LEFT side"><polygon points="25.64 43.13 25.64 69.25 48.42 82.42 48.42 56.68 25.64 43.13" fill="url(#linear-gradient-5)"/><polygon points="48.14 111.72 48.14 94.89 15.02 75.46 15.02 36.93 0 28.15 0 84.13 48.14 112 48.14 111.72" fill="url(#linear-gradient-6)"/></g><g id="left_purple_line" data-name="left purple line"><rect x="14.74" y="36.75" width="0.24" height="38.7" fill="#2d2868"/><polygon points="15.02 36.75 0.21 27.94 0 28.15 14.88 36.86 15.02 36.75" fill="#2d2868"/></g><g id="BOTTOM_PURPLE_LINE" data-name="BOTTOM PURPLE LINE"><polygon points="48.14 94.89 48.14 95.21 14.74 75.73 14.74 75.46 15.02 75.46 48.14 94.89" fill="url(#linear-gradient-7)"/></g><g id="top_middle_light_line" data-name="top middle light line"><polygon points="48.7 17.28 70.23 29.89 70.23 31.77 48.7 19.2 48.7 17.28" fill="url(#linear-gradient-8)"/></g><g id="top_right" data-name="top right"><polygon points="70.23 29.89 70.23 31.77 85.18 23.03 85.18 21.25 70.23 29.89" fill="#484592"/></g><g id="MAIN_TOP" data-name="MAIN TOP"><path d="M0,28.15" fill="none"/><path d="M.21,27.94" fill="url(#linear-gradient-9)"/><polygon points="48.53 0 85.18 21.25 70.23 29.89 48.7 17.28 15.02 36.75 0.21 27.94 48.53 0" fill="url(#linear-gradient-10)"/><polygon points="25.99 42.78 48.42 30.13 69.78 42.19 95.8 27.21 97.06 28.15 48.7 56.09 25.99 42.78" fill="url(#linear-gradient-11)"/></g></svg>