<svg id="svg2" xmlns="http://www.w3.org/2000/svg" viewBox="0 0 112 73.62"><title>Gameboy_SVG</title><g id="Camada_1"><g id="_42677040" data-name=" 42677040"><polygon points="110.88 7.56 112 0.21 92.7 0.21 88.11 33.29 107.3 33.29 108.33 25.93 96.69 25.93 97.4 20.22 107.51 20.22 108.53 12.87 98.53 12.87 99.24 7.56 110.88 7.56" fill="#fff"/><path d="M77,.21,70.14,17.66,67.49.21H59.63l-9,27.15L47.27.21h-9.8L26.55,27.67,28,17H14.7l-.91,6.53H19.6l-.4,2.25a10.86,10.86,0,0,1-4.29.71c-.92,0-7.76-.61-7.45-8S17.56,4.29,29.2,8.07l1.13-7C22.57-1.63,2.19-.15.1,18.07-1.12,28.79,8.68,33.9,15.21,33.79a21.55,21.55,0,0,0,9.6-2l-.51,1.53h7.76l3.78-9.8h6.94L44,33.28H56.56l5.82-18,2.86,18h6.64l7.35-19,1.22,19H87.8L85.76.21ZM38.59,17h0l2.56-6.84L42,17Z" fill="#fff"/><polygon points="86.74 40.44 80.62 49.84 76.53 40.44 68.26 40.44 75.92 56.98 73.67 73.52 81.33 73.52 83.27 59.02 95.21 40.44 86.74 40.44" fill="#fff"/><path d="M60,40.13c-5.31-.2-13,2.86-15.52,15.22S48.76,72.7,55.09,73.52s15.21-3.17,16.85-15S67.75,40.44,60,40.13Zm4.8,17c-1.12,8.58-6.43,9.6-8.37,9.4s-5.92-1.53-4.8-9.4,5.31-10.1,7.55-10S65.91,48.61,64.79,57.18Z" fill="#fff"/><path d="M36,40.44H21.91L17.32,73.52H31.91c6.64,0,10.42-4.49,11.13-9.09s-1-7-2.75-8.57c1.12-.82,2.75-1.13,3.37-6.33S39.37,40.44,36,40.44ZM35.69,62.9a3.73,3.73,0,0,1-4,3.27H25.89l.82-5.72h6.53A2.52,2.52,0,0,1,35.69,62.9Zm.21-12.66c-.11.82-.72,2.86-3.88,2.86H27.73l.71-5.31h5A2.53,2.53,0,0,1,35.9,50.24Z" fill="#fff"/><polygon points="17.32 73.52 17.32 73.52 17.32 73.52 17.32 73.52"/></g></g></svg>