<svg id="Layer_1" data-name="Layer 1" xmlns="http://www.w3.org/2000/svg" viewBox="0 0 112 112"><title>GameGear_dark_SVG</title><path d="M13.22,61.74l-.91,5.86h5.78C17.13,70.79,15.34,73,12,73S6.31,70.9,6.31,65.63,9,53.76,14.18,53.93c3.65.12,4.63,2,4.8,5.07h6.27C25.18,50.34,20.18,47.5,14,47.5,3.14,47.73,0,57.92,0,66.73s4.4,12.7,11.17,12.7c8.63-.26,13.44-8.89,13.45-17.69" fill="#333"/><path d="M32.88,48.34,20.69,78.89h6.1l2.15-6h7.69l.53,6H43L39.51,48.34M30.92,67.48l4.21-11.59,1,11.59Z" fill="#333"/><polyline points="48.73 48.32 43.52 78.89 49.28 78.89 52.43 56.19 54.66 78.89 59.13 78.89 67.91 57.2 64.26 78.89 69.77 78.89 74.88 48.34 71.22 48.35 66.98 48.34 58.27 69.16 56.42 48.34" fill="#333"/><polygon points="91.52 54.74 92.52 48.32 82.81 48.32 80.5 48.32 76.55 48.32 71.66 78.89 76.43 78.89 77.47 78.89 87.59 78.89 88.66 72.47 78.59 72.47 79.72 66.02 88.66 66.02 89.67 60.15 80.74 60.15 81.69 54.74 91.52 54.74" fill="#333"/><path d="M39.81,94.31l-.91,5.86h5.78c-1,3.2-2.76,5.42-6.08,5.42s-5.7-2.11-5.7-7.38,2.64-11.88,7.87-11.71c3.64.12,4.62,2,4.79,5.08h6.28c-.07-8.66-5.08-11.51-11.24-11.51-10.88.23-14,10.42-14,19.24S31,112,37.75,112c8.64-.26,13.44-8.89,13.46-17.69" fill="#333"/><polygon points="70.15 87.17 71.15 80.75 61.44 80.75 59.13 80.75 55.17 80.75 50.29 111.32 55.06 111.32 56.1 111.32 66.22 111.32 67.28 104.89 57.22 104.89 58.35 98.45 67.28 98.45 68.3 92.57 59.37 92.57 60.32 87.17 70.15 87.17" fill="#333"/><path d="M78.83,80.76,66.64,111.31h6.09l2.16-6h7.69l.52,6h5.81L85.46,80.76M76.87,99.9l4.2-11.59,1,11.59Z" fill="#333"/><path d="M112,88.92c0-6.27-3.1-7.79-7.19-8.1v-.06H94.42l-5,30.56h5.94l1.88-11.56h2.55l4.56,11.56h6.75l-5-12.88A10.24,10.24,0,0,0,112,88.92Zm-10.35,5.37H98.27l1.1-7.56h3.3c1.91,0,3.45.56,3.45,3.41A4.28,4.28,0,0,1,101.65,94.29Z" fill="#333"/><ellipse cx="19.18" cy="20.81" rx="26.15" ry="10.81" transform="translate(-9.12 21.29) rotate(-48.3)" fill="#fe0000"/><ellipse cx="56.39" cy="20.81" rx="26.15" ry="10.81" transform="translate(3.34 49.07) rotate(-48.3)" fill="#0c9"/><ellipse cx="92.82" cy="20.81" rx="26.15" ry="10.81" transform="translate(15.53 76.27) rotate(-48.3)" fill="#09f"/></svg>