<svg id="svg2" xmlns="http://www.w3.org/2000/svg" viewBox="0 0 112 112"><defs><style>.cls-1{fill:#333;}.cls-2{fill:#4e4ba8;}.cls-3{fill:#daac06;}.cls-4{fill:#00938a;}.cls-5{fill:#6eb122;}.cls-6{fill:#b80a41;}</style></defs><title>Gameboy_Color_dark_SVG</title><g id="Camada_1"><g id="_42677040" data-name=" 42677040"><polygon class="cls-1" points="110.88 7.56 112 0.21 92.7 0.21 88.11 33.29 107.3 33.29 108.33 25.93 96.69 25.93 97.4 20.22 107.51 20.22 108.53 12.87 98.53 12.87 99.24 7.56 110.88 7.56"/><path class="cls-1" d="M77,.21,70.14,17.66,67.49.21H59.63l-9,27.15L47.27.21h-9.8L26.55,27.67,28,17H14.7l-.91,6.53H19.6l-.4,2.25a10.86,10.86,0,0,1-4.29.71c-.92,0-7.76-.61-7.45-8S17.56,4.29,29.2,8.07l1.13-7C22.57-1.63,2.19-.15.1,18.07-1.12,28.79,8.68,33.9,15.21,33.79a21.55,21.55,0,0,0,9.6-2l-.51,1.53h7.76l3.78-9.8h6.94L44,33.28H56.56l5.82-18,2.86,18h6.64l7.35-19,1.22,19H87.8L85.76.21ZM38.59,17h0l2.56-6.84L42,17Z"/><polygon class="cls-1" points="86.74 39.5 80.62 48.89 76.53 39.5 68.26 39.5 75.92 56.04 73.67 72.58 81.33 72.58 83.27 58.08 95.21 39.5 86.74 39.5"/><path class="cls-1" d="M60,39.19c-5.31-.2-13,2.86-15.52,15.22s4.29,17.35,10.62,18.17,15.21-3.17,16.85-15S67.75,39.5,60,39.19Zm4.8,17.05c-1.12,8.58-6.43,9.6-8.37,9.39s-5.92-1.53-4.8-9.39,5.31-10.1,7.55-10S65.91,47.67,64.79,56.24Z"/><path class="cls-1" d="M36,39.5H21.91L17.32,72.58H31.91c6.64,0,10.42-4.49,11.13-9.09s-1-7-2.75-8.57c1.12-.82,2.75-1.13,3.37-6.33S39.37,39.5,36,39.5ZM35.69,62a3.73,3.73,0,0,1-4,3.27H25.89l.82-5.72h6.53A2.52,2.52,0,0,1,35.69,62ZM35.9,49.3c-.11.82-.72,2.86-3.88,2.86H27.73l.71-5.31h5A2.53,2.53,0,0,1,35.9,49.3Z"/><polygon points="17.32 72.58 17.32 72.58 17.32 72.58 17.32 72.58"/><path id="path14" class="cls-2" d="M39.94,101.13A6.22,6.22,0,0,1,34.06,104a5.7,5.7,0,0,1-5.31-4.66A6.44,6.44,0,0,1,31,93.56a8.53,8.53,0,0,1,6.05-2.11s2.08.2,3.15,3.63c1.37,4.37-.28,6-.28,6Zm7.17-8.65A11.47,11.47,0,0,0,45,89a13,13,0,0,0-7-4.12,11.09,11.09,0,0,0-7.1.92,15.3,15.3,0,0,0-5,3.49,17.37,17.37,0,0,0-4.37,8s-1.3,4.16.76,7.45l2.24,2.7A12.84,12.84,0,0,0,31,110.34a13.76,13.76,0,0,0,5.91-.21,14.45,14.45,0,0,0,4.8-1.94,13.13,13.13,0,0,0,5.87-7.74l-.51-8"/><path id="path16" class="cls-3" d="M79.23,102.07c-5.11,3.07-8.33-.29-8.33-.29s-1.43-.94-1.73-3.79c-.22-3.31,3.07-5,3.07-5a7.16,7.16,0,0,1,3.9-.91c2.17.17,2.85,0,4.6,1.32C82.4,94.88,82.3,96,82.3,96a6.4,6.4,0,0,1-3.07,6.09Zm8.65-10.55a13.27,13.27,0,0,0-8.73-5.94,13.77,13.77,0,0,0-5.56-.09A13.42,13.42,0,0,0,64,92.32a13,13,0,0,0-1.53,8.87l3.1,6.14c2.3,2.15,3.23,2.15,3.38,2.27a11.75,11.75,0,0,0,6.56.58,18.18,18.18,0,0,0,8.5-3.59,15.25,15.25,0,0,0,4.66-5.89l-.79-9.18"/><path id="path18" class="cls-4" d="M95.54,92.68,95.19,88a36.06,36.06,0,0,1,4.68.16c2.71.41,2.56,1.17,2.56,1.17s-.09,1-2.14,1.9a19.6,19.6,0,0,1-4.75,1.48Zm-6.87,8s.11,2.89-.34,3.59a5.73,5.73,0,0,0-.52,2.6s-.42,3.9,4.1,4.55c3.1,0,3.48-2.6,3.53-3.7a46,46,0,0,0,.11-4.89l4,3.28,4.64,3.89a24.16,24.16,0,0,0,2.24,1.66s.38.45,1.75.29a3.48,3.48,0,0,0,2.12-1,4.56,4.56,0,0,0,1.6-2.58,2.8,2.8,0,0,0-1.11-2.91s-5.6-4.51-9.4-7.62a30.36,30.36,0,0,0,3.78-2.35s3.54-2.34,4.3-5.94c1-4-1.94-5.51-1.94-5.51a24.79,24.79,0,0,0-3.43-2,15.38,15.38,0,0,0-7.64-1.53,11,11,0,0,0-8.65,3.84,5.38,5.38,0,0,0-.59,4.72,17.36,17.36,0,0,1,.63,2.45,47.73,47.73,0,0,1,.79,9.18"/><path id="path20" class="cls-5" d="M62.47,101.19a10.9,10.9,0,0,0-4,.28,31.42,31.42,0,0,1-3.92,1.23,46.87,46.87,0,0,1-.5-8,66,66,0,0,0-.26-7.12s-.16-3.77-2.18-6c-2.39-2.4-4-1.38-5-.8a4.12,4.12,0,0,0-1.22,4.57l1.19,3.38a10.16,10.16,0,0,1,.5,3.81l.51,8c0,1.06.87,8.23.87,8.23a3,3,0,0,0,2.33,2.75c2.29.38,4.55-.76,5.51-1.21a18.67,18.67,0,0,1,2.22-.85,17.19,17.19,0,0,1,2.09-.33,10.68,10.68,0,0,0,3.34-.67,2.6,2.6,0,0,0,1.59-1,4.17,4.17,0,0,0-3.1-6.14"/><path id="path22" class="cls-6" d="M22.26,104.72a8.79,8.79,0,0,0-3.47-.16s-5.23.51-8-.07c-4.23-.74-4.08-5.29-4.08-5.29s-.15-3,2.4-7.1c3.14-5,6.61-5.94,6.61-5.94a2.2,2.2,0,0,1,1.68.11,3.42,3.42,0,0,0,3.34,2.9s4.08.28,3.88-4.67c-.47-4.07-4.38-4.63-6-5a10.51,10.51,0,0,0-8.13,1.76s-3.3,1.78-7.26,8a16.41,16.41,0,0,0-3,6.89s-.33.73-.2,3.94a9.77,9.77,0,0,0,.87,4.34,10.73,10.73,0,0,0,5.94,6.08,20.92,20.92,0,0,0,6.75,1.12s3.89,0,6.87-.21a3,3,0,0,0,2.4-.73,3.8,3.8,0,0,0,1.64-3.27,3.56,3.56,0,0,0-2.24-2.71"/></g></g></svg>