<svg xmlns="http://www.w3.org/2000/svg" xmlns:xlink="http://www.w3.org/1999/xlink" viewBox="0 0 247.472 247.502"><defs><linearGradient id="linear-gradient" x1="14.822" y1="147.893" x2="182.185" y2="147.893" gradientUnits="userSpaceOnUse"><stop offset="0.2"/><stop offset="0.9" stop-color="#fff"/></linearGradient><linearGradient id="linear-gradient-2" x1="138.303" y1="2.888" x2="-3.64" y2="144.831" xlink:href="#linear-gradient"/><linearGradient id="linear-gradient-3" x1="145.261" y1="142.883" x2="145.261" y2="0.383" xlink:href="#linear-gradient"/><mask id="mask" x="68.652" y="155.488" width="167.363" height="92.402" maskUnits="userSpaceOnUse"><g transform="translate(53.831 53.797)"><g id="_Group_" data-name="&lt;Group&gt;"><rect id="_Path_" data-name="&lt;Path&gt;" x="14.822" y="101.691" width="167.363" height="92.402" fill="url(#linear-gradient)"/></g></g></mask><mask id="mask-2" x="53.437" y="53.437" width="136.357" height="148.437" maskUnits="userSpaceOnUse"><g transform="translate(53.831 53.797)"><g id="_Group_2" data-name="&lt;Group&gt;"><rect id="_Path_2" data-name="&lt;Path&gt;" x="-0.393" y="-0.359" width="135.449" height="148.437" fill="url(#linear-gradient-2)"/></g></g></mask><mask id="mask-3" x="149.551" y="54.108" width="99.082" height="142.572" maskUnits="userSpaceOnUse"><g transform="translate(53.831 53.797)"><g id="_Group_3" data-name="&lt;Group&gt;"><rect id="_Path_3" data-name="&lt;Path&gt;" x="95.72" y="0.383" width="99.082" height="142.5" fill="url(#linear-gradient-3)"/></g></g></mask><clipPath id="clip-path" transform="translate(53.831 53.797)"><path id="_Clipping_Path_" data-name="&lt;Clipping Path&gt;" d="M26.017,96.275a71.384,71.384,0,0,0,142.767,0v-.846h-65.64v19.682h25.6A37.692,37.692,0,1,1,129.73,77.4h36.514A71.392,71.392,0,0,0,26.017,96.275Z" fill="none"/></clipPath><radialGradient id="radial-gradient" cx="35.747" cy="75.664" r="140.272" gradientTransform="translate(88.765 55.891) scale(0.849 0.865)" gradientUnits="userSpaceOnUse"><stop offset="0.005" stop-color="#fff"/><stop offset="0.198" stop-color="#c3cce9"/><stop offset="0.353" stop-color="#7a8dc7"/><stop offset="0.492" stop-color="#4f5faf"/><stop offset="0.711" stop-color="#064ea3"/><stop offset="0.829" stop-color="#2a58a6"/><stop offset="0.936" stop-color="#6876a3"/></radialGradient></defs><title>gameparkgp32</title><g id="Layer_2" data-name="Layer 2"><path id="_Path_4" data-name="&lt;Path&gt;" d="M17.021,97.12a79.8,79.8,0,1,1,79.821,79.534A79.643,79.643,0,0,1,17.021,97.12Z" transform="translate(53.831 53.797)" stroke="#fff" stroke-width="34.043"/></g><g id="Layer_1" data-name="Layer 1"><g mask="url(#mask)"><path id="_Path_5" data-name="&lt;Path&gt;" d="M50.2,181.641A97.032,97.032,0,0,0,181.92,143.657L84.958,102.063,15.6,149.535A96.566,96.566,0,0,0,50.2,181.641Z" transform="translate(53.831 53.797)" fill="#022c7f"/></g><g mask="url(#mask-2)"><path id="_Path_6" data-name="&lt;Path&gt;" d="M90.809,0A96.921,96.921,0,0,0,14.66,147.842l.046.089L135.964,72.674Z" transform="translate(53.831 53.797)" fill="#46ab22"/></g><g mask="url(#mask-3)"><path id="_Path_7" data-name="&lt;Path&gt;" d="M182.144,142.143A96.433,96.433,0,0,0,97.042.311V142.143Z" transform="translate(53.831 53.797)" fill="#f60000"/></g><path id="_Path_8" data-name="&lt;Path&gt;" d="M17.421,96.72a79.6,79.6,0,1,1,79.621,79.534A79.543,79.543,0,0,1,17.421,96.72Z" transform="translate(53.831 53.797)"/><g id="_Clip_Group_" data-name="&lt;Clip Group&gt;"><g clip-path="url(#clip-path)"><ellipse id="_Path_9" data-name="&lt;Path&gt;" cx="119.121" cy="121.348" rx="119.121" ry="121.348" fill="url(#radial-gradient)"/></g></g><path id="_Path_10" data-name="&lt;Path&gt;" d="M58.48,72.14A16.409,16.409,0,1,1,74.866,88.527,16.41,16.41,0,0,1,58.48,72.14Z" transform="translate(53.831 53.797)" fill="#fff" stroke="#fff" stroke-linecap="round" stroke-linejoin="round" stroke-width="0.48"/></g></svg>