<svg id="svg2" xmlns="http://www.w3.org/2000/svg" viewBox="0 0 112 74"><title>Gameboy_SVG</title><polygon points="110.88 7.538 112 0.188 92.701 0.188 88.111 33.267 107.3 33.267 108.33 25.907 96.691 25.907 97.401 20.197 107.51 20.197 108.53 12.848 98.53 12.848 99.24 7.538 110.88 7.538" fill="#fff"/><path d="M77,.188l-6.86,17.45L67.492.188h-7.86l-9,27.149L47.272.188h-9.8L26.553,27.647,28,16.978H14.7l-.91,6.529H19.6l-.4,2.25a10.846,10.846,0,0,1-4.29.71c-.92,0-7.759-.61-7.449-8s10.1-14.2,21.739-10.42l1.13-7c-7.76-2.7-28.139-1.22-30.229,17-1.22,10.719,8.58,15.829,15.109,15.719a21.544,21.544,0,0,0,9.6-2L24.3,33.3h7.76l3.78-9.8h6.939L44,33.257h12.56l5.82-18,2.86,18h6.639l7.35-19,1.22,19H87.8L85.761.188ZM38.593,16.978h0l2.559-6.84.85,6.84Z" fill="#fff"/><polygon points="86.741 40.818 80.621 50.218 76.531 40.818 68.262 40.818 75.921 57.358 73.671 73.897 81.331 73.897 83.271 59.398 95.211 40.818 86.741 40.818" fill="#fff"/><path d="M60,40.508c-5.31-.2-13,2.86-15.52,15.22s4.28,17.349,10.61,18.169,15.209-3.17,16.849-15S67.752,40.818,60,40.508Zm4.8,17c-1.12,8.58-6.43,9.6-8.37,9.4s-5.92-1.53-4.8-9.4,5.31-10.1,7.55-10,6.73,1.48,5.61,10.05Z" fill="#fff"/><path d="M36,40.818H21.913L17.323,73.9h14.59c6.64,0,10.419-4.49,11.129-9.089s-1-7-2.75-8.57c1.12-.82,2.75-1.13,3.37-6.33S39.373,40.818,36,40.818Zm-.31,22.46a3.731,3.731,0,0,1-4,3.27h-5.8l.82-5.72h6.53A2.52,2.52,0,0,1,35.693,63.278Zm.21-12.66c-.11.82-.72,2.86-3.88,2.86h-4.29l.71-5.31h5A2.531,2.531,0,0,1,35.9,50.618Z" fill="#fff"/><polygon points="17.323 73.496 17.323 73.496 17.323 73.496 17.323 73.496"/></svg>