<svg id="svg2" xmlns="http://www.w3.org/2000/svg" viewBox="0 0 88.11 112"><title>GBA_SVG</title><g id="Camada_1"><g id="_42677040" data-name=" 42677040"><path d="M43,26.06H22.61L21.2,36.11h9l-.63,3.45c-1.57.94-5.18,1.1-6.6,1.1S11,39.72,11.46,28.42,27,6.6,44.9,12.4L46.63,1.57C34.7-2.51,3.36-.23.16,27.79-1.72,44.27,13.35,52.12,23.39,52a33.18,33.18,0,0,0,14.76-3.14l2-1Z" fill="#fff"/><path d="M76.26,1.13H54.6L47.53,52H70c10.2,0,16-6.9,17.11-14s-1.57-10.83-4.24-13.18c1.73-1.26,4.24-1.73,5.18-9.74S81.44,1.13,76.26,1.13Zm-.47,34.54a5.75,5.75,0,0,1-6.12,5h-9L62,31.9H72A3.88,3.88,0,0,1,75.79,35.67ZM76.1,16.2c-.15,1.26-1.1,4.4-6,4.4h-6.6l1.1-8.17h7.69A3.88,3.88,0,0,1,76.1,16.2Z" fill="#fff"/><polygon points="36.88 60.01 6 112 42.78 112 42.78 100.44 27.81 100.44 42.78 73.56 64.47 112 81.21 112 49.97 60.01 36.88 60.01" fill="#fff"/></g></g></svg>