<svg id="Layer_1" data-name="Layer 1" xmlns="http://www.w3.org/2000/svg" viewBox="0 0 95.238 72.491"><title>interactivedvd</title><path d="M54.236,7.415s-6.545,8.058-6.21,8.572c.464-.514-2.349-8.66-2.349-8.66S45.09,5.614,43.247,0H8.179L6.96,5.27H18.33c5.912,0,9.521,2.444,8.513,6.774-1.089,4.715-6.249,6.728-11.745,6.728H13.043L15.687,7.244H6.5L2.6,24.086H15.644c9.816,0,19.127-5.27,20.806-12.042a13.107,13.107,0,0,0-.5-6.215,1.622,1.622,0,0,0-.085-.256c-.041-.044-.084-.344.085-.388.082-.044.25.129.25.171,0,0,.085.217.167.387L44.67,29.7,65.815,5.314l8.934-.044h2.18c5.916,0,9.567,2.444,8.557,6.774C84.4,16.759,79.2,18.771,73.7,18.771H71.6L74.286,7.244H65.1L61.2,24.086H74.244c9.815,0,19.211-5.27,20.764-12.042C96.6,5.27,89.722,0,79.822,0H60.36C55.2,6.214,54.236,7.415,54.236,7.415Z" fill="#fff"/><path d="M44.964,29.788C20.134,29.788,0,32.7,0,36.3s20.134,6.513,44.964,6.513c24.876,0,45.011-2.914,45.011-6.513S69.84,29.788,44.964,29.788ZM43.37,38.619c-5.7,0-10.276-.987-10.276-2.189s4.571-2.185,10.276-2.185c5.661,0,10.238.984,10.238,2.185S49.031,38.619,43.37,38.619Z" fill="#fff"/><path d="M12.251,63.259V59.215H22.914v9.56a13.47,13.47,0,0,1-4.5,2.595,16.713,16.713,0,0,1-5.975,1.121,13.625,13.625,0,0,1-6.7-1.58,10.126,10.126,0,0,1-4.3-4.518A14.354,14.354,0,0,1,0,60a13.591,13.591,0,0,1,1.6-6.663,10.707,10.707,0,0,1,4.7-4.47,12.905,12.905,0,0,1,5.867-1.194A11.893,11.893,0,0,1,19.3,49.548a8.449,8.449,0,0,1,3.3,5.181l-4.914.9a5.082,5.082,0,0,0-1.947-2.791,5.97,5.97,0,0,0-3.568-1.024,6.777,6.777,0,0,0-5.157,2.014Q5.1,55.842,5.1,59.8q0,4.274,1.938,6.41a6.538,6.538,0,0,0,5.081,2.136,8.684,8.684,0,0,0,3.117-.6A10.762,10.762,0,0,0,17.917,66.3V63.259Z" fill="#fff"/><path d="M48.2,72.082H42.821l-2.139-5.451H30.888l-2.022,5.451H23.617l9.544-24h5.231Zm-9.11-9.495-3.376-8.906-3.309,8.906Z" fill="#fff"/><path d="M49.392,72.082v-24h7.4l4.446,16.37,4.4-16.37h7.421v24h-4.6V53.19L63.6,72.082H58.835L53.988,53.19V72.082Z" fill="#fff"/><path d="M76.6,72.082v-24H94.77v4.059H81.549v5.321h12.3v4.044h-12.3v6.531H95.238v4.044Z" fill="#fff"/></svg>