<svg id="Layer_1" data-name="Layer 1" xmlns="http://www.w3.org/2000/svg" viewBox="0 0 112 55.57"><title>iOS_SVG</title><path d="M.52,54.68H9.78V15.25H.52Zm4.61-44.6A5,5,0,1,0,5.13,0a5,5,0,1,0,0,10.08ZM40.62.11C25,.11,15.14,10.79,15.14,27.86S25,55.57,40.62,55.57,66.06,44.93,66.06,27.86,56.24.11,40.62.11Zm0,8.18c9.56,0,15.66,7.59,15.66,19.57s-6.1,19.53-15.66,19.53S25,39.8,25,27.86,31,8.29,40.62,8.29ZM70,39.58c.41,9.89,8.52,16,20.87,16,13,0,21.16-6.4,21.16-16.59,0-8-4.61-12.5-15.51-15l-6.18-1.41C83.73,21,81,18.93,81,15.36c0-4.46,4.09-7.44,10.15-7.44s10.34,3,10.79,8h9.15c-.23-9.45-8-15.85-19.87-15.85-11.67,0-20,6.44-20,16,0,7.66,4.69,12.42,14.58,14.69l7,1.64c6.77,1.6,9.52,3.83,9.52,7.7,0,4.46-4.5,7.66-11,7.66s-11.5-3.24-12.09-8.18Z" fill="#fff"/></svg>