<svg id="Layer_1" data-name="Layer 1" xmlns="http://www.w3.org/2000/svg" viewBox="0 0 112 55.61"><title>iOS_SVG</title><path d="M.43,54.709H9.7V15.258H.43ZM5.043,10.085A5.043,5.043,0,1,0,0,5.043,5.042,5.042,0,0,0,5.043,10.085ZM40.552.11C24.923.11,15.058,10.8,15.058,27.875S24.923,55.6,40.552,55.6,66.005,44.954,66.005,27.875,56.18.11,40.552.11Zm0,8.184c9.565,0,15.668,7.595,15.668,19.581s-6.1,19.54-15.668,19.54-15.629-7.594-15.629-19.54S30.927,8.294,40.552,8.294ZM69.947,39.6c.411,9.9,8.525,16.009,20.882,16.009,13.007,0,21.171-6.4,21.171-16.6,0-8-4.612-12.507-15.518-15.008L90.3,22.592c-6.613-1.581-9.345-3.652-9.345-7.224,0-4.462,4.093-7.444,10.156-7.444s10.345,3,10.8,8h9.155C110.829,6.473,103.055.07,91.179.07,79.5.07,71.168,6.513,71.168,16.079c0,7.664,4.693,12.426,14.588,14.7l7,1.641c6.773,1.6,9.525,3.832,9.525,7.7,0,4.463-4.5,7.665-11.006,7.665s-11.506-3.242-12.1-8.185Z" fill="#fff"/></svg>