<svg id="Layer_1" data-name="Layer 1" xmlns="http://www.w3.org/2000/svg" viewBox="0 0 112 55.57"><title>iOS_SVG</title><path d="M.52,82.89H9.78V43.47H.52Zm4.61-44.6a5,5,0,1,0,0-10.08,5,5,0,1,0,0,10.08Zm35.49-10C25,28.33,15.14,39,15.14,56.07S25,83.79,40.62,83.79,66.06,73.15,66.06,56.07,56.24,28.33,40.62,28.33Zm0,8.18c9.56,0,15.66,7.59,15.66,19.56S50.18,75.6,40.62,75.6,25,68,25,56.07,31,36.51,40.62,36.51ZM70,67.79c.41,9.9,8.52,16,20.87,16,13,0,21.16-6.4,21.16-16.59,0-8-4.61-12.5-15.51-15l-6.18-1.42C83.73,49.23,81,47.15,81,43.58c0-4.47,4.09-7.44,10.15-7.44s10.34,3,10.79,8h9.15c-.23-9.45-8-15.84-19.87-15.84-11.67,0-20,6.43-20,16C71.27,52,76,56.71,85.85,59l7,1.63c6.77,1.6,9.52,3.83,9.52,7.7,0,4.47-4.5,7.66-11,7.66s-11.5-3.23-12.09-8.18Z" transform="translate(0 -28.21)"/></svg>