<svg xmlns="http://www.w3.org/2000/svg" xmlns:xlink="http://www.w3.org/1999/xlink" viewBox="0 0 136 155"><defs><linearGradient id="a" x1="68" y1="155" x2="68" gradientUnits="userSpaceOnUse"><stop offset="0" stop-color="#294e7e"/><stop offset="1" stop-color="#315d94"/></linearGradient><linearGradient id="b" x1="68" y1="63" x2="68" y2="8" gradientUnits="userSpaceOnUse"><stop offset="0" stop-color="#2e578b"/><stop offset="1" stop-color="#274975"/></linearGradient><radialGradient id="c" cx="0.33333" cy="155" r="34" gradientUnits="userSpaceOnUse"><stop offset="0" stop-color="#1a314f"/><stop offset="1" stop-color="#315d94"/></radialGradient><linearGradient id="d" x1="68" y1="121" x2="136" y2="121" gradientUnits="userSpaceOnUse"><stop offset="0" stop-color="#1d3859"/><stop offset="1" stop-color="#294e7e"/></linearGradient><linearGradient id="e" x1="68" y1="75" x2="68" y2="8" gradientUnits="userSpaceOnUse"><stop offset="0.5" stop-color="#3e75bb"/><stop offset="1" stop-color="#6894cd"/></linearGradient><linearGradient id="f" x1="8" y1="105" x2="88" y2="105" gradientUnits="userSpaceOnUse"><stop offset="0" stop-color="#6894cd"/><stop offset="0.75" stop-color="#497ec2"/></linearGradient><linearGradient id="g" x1="68" y1="105" x2="128" y2="105" gradientUnits="userSpaceOnUse"><stop offset="0" stop-color="#3c71b5"/><stop offset="1" stop-color="#5788c7"/></linearGradient><linearGradient id="h" x1="8" y1="129" x2="88" y2="129" gradientUnits="userSpaceOnUse"><stop offset="0" stop-color="#3a6daf"/><stop offset="0.75" stop-color="#3b6fb2"/></linearGradient><linearGradient id="i" y1="105" y2="105" xlink:href="#h"/><linearGradient id="j" y1="81" y2="81" xlink:href="#h"/><linearGradient id="k" x1="68" y1="129" x2="128" y2="129" gradientUnits="userSpaceOnUse"><stop offset="0" stop-color="#3768a6"/><stop offset="1" stop-color="#3d74b9"/></linearGradient><linearGradient id="l" y1="105" y2="105" xlink:href="#k"/><linearGradient id="m" y1="81" y2="81" xlink:href="#k"/></defs><title>l50</title><g opacity="0.5"><path d="M128,55H111V42.99994a43,43,0,0,0-86,0V55H0V155H136V55ZM88.942,41.5,89,63,68,75,47,63l.05949-21.5L68.00006,22.07275Z" fill="url(#a)"/><path d="M68.00006,8h-.00012A34.99994,34.99994,0,0,0,33,42.99994V63H55V42.99994a13,13,0,0,1,26,0V63h22V42.99994A34.99994,34.99994,0,0,0,68.00006,8Z" fill="url(#b)"/><rect y="87" width="68" height="68" fill="url(#c)"/><polygon points="68 87 68 155 136 155 68 87" fill="url(#d)"/></g><path d="M68.00006,8h-.00012A34.99994,34.99994,0,0,0,33,42.99994V75H47V42.99994a21,21,0,0,1,42,0V75h14V42.99994A34.99991,34.99991,0,0,0,68.00006,8Z" fill="url(#e)"/><polygon points="68 147 8 147 8 135 18 129 8 123 8 111 18 105 8 99 8 87 18 81 8 75 8 63 68 63 88 105 68 147" fill="url(#f)"/><polygon points="128 147 68 147 68 63 128 63 128 75 118 81 128 87 128 99 118 105 128 111 128 123 118 129 128 135 128 147" fill="url(#g)"/><rect x="8" y="123" width="80" height="12" fill="url(#h)"/><rect x="8" y="99" width="80" height="12" fill="url(#i)"/><rect x="8" y="75" width="80" height="12" fill="url(#j)"/><rect x="68" y="123" width="60" height="12" fill="url(#k)"/><rect x="68" y="99" width="60" height="12" fill="url(#l)"/><rect x="68" y="75" width="60" height="12" fill="url(#m)"/></svg>