<svg id="Layer_1" data-name="Layer 1" xmlns="http://www.w3.org/2000/svg" viewBox="0 0 112 98"><title>Master_system_SVG</title><path d="M0,33.86h14.8a10.93,10.93,0,1,0,0-21.85L11,12a.56.56,0,0,1,0-1.11H25.73V6.28H11a5.17,5.17,0,1,0,0,10.34l3.86.05a6.26,6.26,0,1,1,0,12.51H0v4.68" fill="#0060a8"/><path d="M0,28.09H14.82a5.17,5.17,0,1,0,0-10.34l-3.86,0A6.26,6.26,0,1,1,11,5.2H25.74V.54H11a10.92,10.92,0,1,0,0,21.84h3.82a.54.54,0,1,1,0,1.07H0v4.62" fill="#0060a8"/><path d="M37.24,29.21a4.65,4.65,0,0,1-4.67-4.66V9.76a4.64,4.64,0,0,1,4.67-4.58H53V.54H37.24a9.28,9.28,0,0,0-9.3,9.27V24.55a9.29,9.29,0,0,0,9.3,9.28H53V29.2H37.24" fill="#0060a8"/><path d="M33.7,9.81a3.54,3.54,0,0,1,3.54-3.54H53v4.65H39.43A1.08,1.08,0,0,0,38.32,12H49.68v4.63h-16V9.81" fill="#0060a8"/><path d="M37.24,28.08a3.53,3.53,0,0,1-3.54-3.53V17.73h16v4.64H38.32a1.09,1.09,0,0,0,1.11,1.09H53v4.61H37.24" fill="#0060a8"/><path d="M64.11,29.19a4.65,4.65,0,0,1-4.65-4.64V9.81a4.63,4.63,0,0,1,4.63-4.63h15.3V.54H64.06a9.28,9.28,0,0,0-9.3,9.27V24.55a9.32,9.32,0,0,0,9.33,9.28h15.3V12H66.25v4.63h8.5V29.19H64.11" fill="#0060a8"/><path d="M60.55,24.55a3.56,3.56,0,0,0,3.54,3.56h9.56V17.72H66.26v4.65H69v1.09H66.28a1.1,1.1,0,0,1-1.09-1.09l0-10.37a1.1,1.1,0,0,1,1.1-1.11H79.4V6.26H64.09a3.54,3.54,0,0,0-3.54,3.54V24.55" fill="#0060a8"/><path d="M93.77,6.2a1.51,1.51,0,0,1,2.86,0l7.43,21.94H93.18V23h3.64l-1.64-4.86L89.86,33.83H84.38L93.77,6.2" fill="#0060a8"/><path d="M105.55,29.19H93.2v4.64H112L102.22,4.9a7.49,7.49,0,0,0-14,0L78.3,33.83h4.92L92.8,5.7a2.58,2.58,0,0,1,2.39-1.59,2.6,2.6,0,0,1,2.39,1.58l8,23.5" fill="#0060a8"/><g id="flowRoot6696"><path id="path6717" d="M69.22,96.86H44.54v-2.8c.89,0,2-.12,3.44-.27a8.62,8.62,0,0,0,2.89-.67,5.07,5.07,0,0,0,1.8-1.72A4.69,4.69,0,0,0,53.24,89V48.35h-.59L33.59,96h-2L13.47,47.36H13V80.71a32.69,32.69,0,0,0,.61,7.37,6.8,6.8,0,0,0,1.87,3.62A8.91,8.91,0,0,0,19,93.27a20.92,20.92,0,0,0,3.54.79v2.8H0v-2.8a28,28,0,0,0,3.72-.59,7.19,7.19,0,0,0,3-1.3,5.74,5.74,0,0,0,1.89-3.38,39.42,39.42,0,0,0,.52-7.64V52.56a11.6,11.6,0,0,0-.6-4.06,6.28,6.28,0,0,0-1.69-2.56,7.69,7.69,0,0,0-3-1.57,15,15,0,0,0-3.51-.59V41H19.41l16,41.9,13.66-35a33.27,33.27,0,0,0,1.28-4A17.55,17.55,0,0,0,50.91,41H69.15v2.8a19.11,19.11,0,0,0-2.82.35,18.83,18.83,0,0,0-2.5.59A2.88,2.88,0,0,0,62,46.3a5.91,5.91,0,0,0-.47,2.4V89A5.12,5.12,0,0,0,62,91.31,4,4,0,0,0,63.83,93a9.07,9.07,0,0,0,2.52.73,20.59,20.59,0,0,0,2.87.37Z" fill="red"/><path id="path6729" d="M108.53,71.22a12.85,12.85,0,0,1,2.62,4.32A15.87,15.87,0,0,1,112,81a15.55,15.55,0,0,1-5.47,12.21A19.87,19.87,0,0,1,92.94,98a25.24,25.24,0,0,1-7.48-1.16A28.86,28.86,0,0,1,79,94L77.31,96.9H74.16l-.55-19.14H76.8a41.45,41.45,0,0,0,2.3,6.4,22.15,22.15,0,0,0,3.49,5.33,15.8,15.8,0,0,0,4.78,3.71,14,14,0,0,0,6.36,1.37,14.43,14.43,0,0,0,4.74-.7,8.42,8.42,0,0,0,3.29-2,8.2,8.2,0,0,0,1.87-3,12.21,12.21,0,0,0,.61-4,11.2,11.2,0,0,0-1.89-6.24,11.62,11.62,0,0,0-5.63-4.39c-1.7-.69-3.66-1.44-5.87-2.27s-4.1-1.6-5.71-2.34A18.54,18.54,0,0,1,77.8,64a14.53,14.53,0,0,1-2.62-9A13.8,13.8,0,0,1,76.48,49a15.63,15.63,0,0,1,3.7-4.93,17,17,0,0,1,5.4-3.21,18.51,18.51,0,0,1,6.5-1.16A19.22,19.22,0,0,1,99,40.9a33.22,33.22,0,0,1,5.57,2.76L106.17,41h3.15l.32,18.55h-3.19q-.87-3.2-2-6.1a21.16,21.16,0,0,0-2.82-5.28,12.84,12.84,0,0,0-4.13-3.64,12.11,12.11,0,0,0-6-1.36,9.15,9.15,0,0,0-6.38,2.4,7.66,7.66,0,0,0-2.63,5.87,10.1,10.1,0,0,0,1.69,6,12.37,12.37,0,0,0,4.92,3.92q2.88,1.38,5.65,2.38t5.38,2.15a40.36,40.36,0,0,1,4.54,2.32,17.12,17.12,0,0,1,3.8,3Z" fill="red"/></g></svg>