<svg id="Layer_1" data-name="Layer 1" xmlns="http://www.w3.org/2000/svg" viewBox="0 0 83.149 74.821"><title>mattelintellivision</title><path d="M.041,74.872c0-3.96.133-70.309.133-70.309H18.551V74.834Z" transform="translate(0 -0.11)" fill="#fff" stroke="#000" stroke-width="0.082"/><path d="M74.134.2S60.125,54.089,59.75,55.311c-.49,1.592-2.021,2.126-2.816.289-.979-1.959-11.587-38.368-11.587-38.368L26,17.235s14.444,47.406,15.1,48.81c6.858,14.694,21.963,8.817,25.067-1.959C69.356,53,83.027.2,83.027.2Z" transform="translate(0 -0.11)" fill="#fff"/><path d="M74.134.2S60.125,54.089,59.75,55.311c-.49,1.592-2.021,2.126-2.816.289-.979-1.959-11.587-38.368-11.587-38.368L26,17.235s14.444,47.406,15.1,48.81c6.858,14.694,21.963,8.817,25.067-1.959C69.356,53,83.027.2,83.027.2Z" transform="translate(0 -0.11)" fill="none" stroke="#000" stroke-width="0.189"/></svg>