<svg id="Layer_1" data-name="Layer 1" xmlns="http://www.w3.org/2000/svg" viewBox="0 0 304.75 258.557"><title>milesgordonsamcoupe</title><path d="M65,31C65-12.248,0-9.123,0,33.377,0,72.377,41.25,64.252,41.25,83c0,15.375-20.375,12.75-20.375-4.75H0c0,35.375,17.5,38,31.875,38,27.25,0,34.625-21.5,34.625-36.5,0-34.5-41.25-28.5-41.25-47.625,0-10.875,18.125-12.25,18.125,3.125H65Z" fill="#000274"/><path d="M230.625,0h-26V62.877L164.875,0H139.25V67.752L96.375,0H70.625V116.252h29.5V98.627h25L136.5,116.252h31.625V58.877L204.5,116.252h29.375V58.877l36.75,57.375H304.75Zm-130.5,76.752V58.126L111.75,76.752Z" fill="#000274"/><path d="M46.66,170.774c6.892-24.919-38.194-3.539-45.524,22.962-5.415,19.579,10.082,28.975,13.84,30.014,12.261,3.391,29.145-19.935,37.179-19.735,5.8-.951,5.629-4.185.289-5.662-9.493-2.625-23.069,14.9-30.98,12.715s-11.4-8.05-9.977-13.192c2.352-8.5,20.946-19.541,19.415-14C28.55,192.377,42.229,186.793,46.66,170.774Z" fill="#ef0207"/><path d="M89.81,203.948a66.442,66.442,0,0,0,6.307-15.45c5.068-18.327-2.654-16.064-2.654-16.064,5.725-20.7-36.8-7.053-44.672,21.425-4.3,15.557,2.606,25.984,11.505,28.446,5.712,1.58,15.572-.968,24.005-10.586,10.285.589,19.158-11.227,25.077-9.59l1.612-5.828C103.376,194.2,97.448,201.945,89.81,203.948Zm-13.327,2.68c-2.115,7.647-21.341,9.425-16.985-6.324,4.838-17.492,25.847-25.714,24.643-21.364-1.057,3.824-4.928,6.018-7.445,15.115C75.639,197.878,78.2,200.431,76.483,206.628Z" fill="#ef0207"/><path d="M152.916,207.9c-5.933-1.641-3.588-6.528-3.588-6.528,2.589-9.361,16.343-20.6,18.932-29.962,5.039-16.019-11.977-15.7-26.392,18.965-14.7,4.413-16.191,17.922-23.259,15.842-6.329-1.751-3.574-7.092-3.574-7.092,2.844-10.283,19.891-16.5,23.064-27.968,3.646-13.184-25.578-.4-32.1,23.2-5.251,18.985,3.938,24.761,7.761,25.818,9.056,2.505,17.062-13.445,24.3-19.618-1.04,3.1-2.054,6.4-3.028,9.921-2.755,9.96,2.8,12.979,5.566,13.745,16.019,4.431,43.516-40.336,55.873-43.447l4.359-11.142C187.431,171.884,161.618,210.3,152.916,207.9Z" fill="#ef0207"/><path d="M211.909,211.156c2.626-9.492,15.307-10.185,20.9-30.411,3.9-14.107-5.476-18.688-9.815-3-12.789-3.538-18.3,7.145-21.2,6.342,3.647-13.184,19.207-26.338,20.994-32.8,2.443-8.834-17.547-8.4-31.536,28.321s-24.982,41.063-29.686,58.071c-5.152,18.626-.825,42.493,21.26-16.829,42.849,11.852,41.615-11.908,61.907-16.514l1.459-5.274C232.768,195.778,224.7,214.694,211.909,211.156Zm-2.267-9.249c-2.933,4.831-5.729,9.167-18.089,5.748,3.172-11.47,31.035-36.007,25.759-16.932C216.082,195.173,212.574,197.077,209.642,201.907Z" fill="#ef0207"/><path d="M261.429,209.666c-6.592-1.823-9.417-7-7.813-12.805,4.747,1.313,32.3-8.241,36.8-24.524,1.368-4.944,1.3-7.517-5.293-9.341-20.3-5.615-41.379,19.78-45.026,32.964-2.443,8.834-4.376,22.492,10.786,26.686,17.8,4.923,43.48-20.192,45.267-26.652C299.871,182.545,277.382,214.079,261.429,209.666ZM280,173.041c-2.954,10.679-21.855,17.054-24.822,16.234C257.753,179.98,282.957,162.362,280,173.041Z" fill="#ef0207"/><path d="M264.275,152.936c1.449-5.24-.253-4.86,11.146-11.819s15.827-9.887,20.437-13.082,10.223-2.708,8.609,3.126l-2.708,9.789c-1.394,5.043-1.489,3.846-6.21,5.521a240.2,240.2,0,0,0-22.939,10.581c-3.688,2.173-10.862,4.652-9.25-1.175S264.275,152.936,264.275,152.936Z" fill="#ef0207"/></svg>