<svg id="Layer_1" data-name="Layer 1" xmlns="http://www.w3.org/2000/svg" viewBox="0 0 526.542 645.75"><title>miniaturewargames</title><path d="M459.76,527.141c-2.565-10.37-17.437-33.2-18.135-44.016-5.125-14.25-2.375-35.875-11.375-49.875-12.75,0-14.375-.5-18-3.75-.375-16-12-15.625-15-12.25.25.125-3.75-4.25-3.75-4.25,0-6.625,1-16.625,1-16.625a16.013,16.013,0,0,1-2.5,1.375c.25-3.5,1.75-11.125,1.875-17.75a4.308,4.308,0,0,0-3.5,0,148.679,148.679,0,0,1,3.5-21.75c-2.75.5-6,3-6,3a122.552,122.552,0,0,1,2-21.375c-.375-.125-2.25,2-2.25,2l.625-8.375-5.125,3.75C382.5,328.125,384.25,317,384.25,317a8.733,8.733,0,0,0-3.25,3.25,9.515,9.515,0,0,1,.25-4.75c-2.75,1.375-7.25,6.875-7.25,6.875s.125-7.25-1.75-6c0,0,1-6.875-3.125-8.125.75-3.625.125-7.125-2.125-9.125l3-2.75c36.125,21.25,80.125,42.5,86.75,45.125s10.625,7.25,29-3.5,18.125-18.75,10.625-36.5-43.167-105.958-65.167-141.292c-18.578-29.726-28.833-50.166-42.833-45s-13.5,4.667-13.5,4.667c-8-6.833-19.167-10-19.167-10a58.973,58.973,0,0,0-10-16.667c-3.166-8.166-17-34.833-20,7.5a52.586,52.586,0,0,0-12.833,3.667c2-5.333,2-13.333-5.667-22.333.23-4.1-3.833-5.75-3.833-5.75a3.935,3.935,0,0,0,1.167-5.167c1.25-4.333-.417-6.833-3.834-9.333,3.667-7.25-2.916-13.75-8.5-11.584-7-5.083-14.333-9.166-21.333-15.75-3.958-3.166-6.208-7.333-10-5.958s-5,23.75-5,23.75S250.375,59.375,249,64c-6.75,0-5.625,5.875-3.75,9.25A9.756,9.756,0,0,0,247,80.625c-4.25,3.875-.5,7.875,2,9.625.5,16.375,2.875,25.125,3.875,26.75h4.5s-3.625,3.625-4.5,5.625c-7-7-18.5-10.75-18.5-10.75-9.75-9-19.5-12.5-21.125-11s-.125,4.625,1.875,7.375a179.051,179.051,0,0,0,6,21.625c-17.25-9.75-16-1.875-10.125,4.25a20.358,20.358,0,0,0,4.25,10.625c-6.5-3.125-15.875-5-14.625-1.875a8.619,8.619,0,0,0,3.25,4.25A60.568,60.568,0,0,0,216.5,163.75c2.375,4.125,7.25,11,7.25,11-1,1.75.125,5.25,1.25,6.75-2.875,2.5-1,6.875-1,6.875a3.576,3.576,0,0,0-3.5,1.25c0-4.375-6.75-6.375-19.25,6-9.25-1.25-8.5,2.5-20.5,3.625a17.644,17.644,0,0,0-1.25,4.5c-1.875.125-7.625.75-7.625.75a11.381,11.381,0,0,0-.625,4c-5.875-1.125-10.25-.25-15.875-2.125,4.25-2.25,10.125-7.875,10.125-7.875a158.122,158.122,0,0,0-14.125-20.375c-1.5,4.875-5.875,13.25-5.875,13.25C138.25,180.75,40.375,35.5,40.375,35.5,35.375,30.375,0,0,0,0,3.75,11.625,13.875,41.25,13.875,41.25c3.375,10.25,10.25,20,10.25,20l97.25,144.375-16-.125c3.375,5.375,14.75,21.875,14.75,21.875,7.875-3.375,10.313-5.25,10.313-5.25-1.313,3.625.187,8,3.812,8.875-2.5,3.75-2.25,4.75-.375,6.875s1.875,2.625,3.375,2.875c-.25,2.5,5.75,9.875,10.375,6.625C146.5,250.125,154.75,257,158.5,250.5a7.223,7.223,0,0,0,4.75,5.125c.25,3.875,1.875,6.125,4.875,7.375.375,4.125,2.25,5.5,3.625,6.25l-4.125,3.625,20.375,8s.375-22.5,0-22.5a49.36,49.36,0,0,0-4.625,3.25c-.25-5.75-4.75-6-4.75-6a7.951,7.951,0,0,0-4.875-6.875c-.625-5.125-3-6.625-5.375-8.375,4.625-5.125,10-10.625,10-10.625s-.25.875,1.25,1.75c2.125-2,5-4.5,5-4.5,2.125,3.5,3.875,6.125,3.875,6.125,3.25.25,9.875-.125,9.875-.125a8.189,8.189,0,0,0,1.875-2.5c14,3.375,22.125,2.5,22.125,2.5a16.112,16.112,0,0,0,6.875-9.875c5,.375,16.25-7,11.75-13a53.774,53.774,0,0,0,3.625-5.75c-.375,5.75.875,10.625,4.25,10.125a6.46,6.46,0,0,0,3.625,4.625c.5,8.375,5.625,10.625,8.375,5.5,1.375,4.75,7.125,4.75,7.125,4.75-.875,6.375,1,10.25,4.25,11.125-2,3.125-2.25,8.875,2.125,10.75-3.25,6.125-1.25,14.125-1.25,14.125a12.947,12.947,0,0,1-2.875,3c-4.5-4.125-12.75-4.25-3.375,23.25L260,306.375c-.25-9.75-4.375-9.5-14.625,18.625-2.5-7-5.125-8.375-9.75,18.75-3.25-2.125-4.375,4.5-4.375,4.5-4.875-1.375-3.875,9.125-4.125,13-3.625,0-4.125,9.625-4.125,9.625-12,1.875-18.5,0-25.75,1.875l5.625,22.75c-2.375,5.125,2.5,17.75,1.375,22.875-1.125,4.25-.125,21.25-.125,21.25a23.361,23.361,0,0,0,5.625,1.125l-.5,9.875a8.855,8.855,0,0,0,3.75,1l-1.625,12.125a17.718,17.718,0,0,0,2.5,1c0,.125-1.875,4.875,1.625,8.25-.75,7.75-5.625,8-2.25,14.125-4.375,11.25-11.125,16.5-11.125,16.5l-.375,5.125c-7.875.25-5.875,2.75-13.125,4-3.125,1.5.625,1.375-8,4s-19.625,7.875-19,18.625a2.708,2.708,0,0,0,.659,1.531c-20.076,7.43-31.742,16.289-31.742,25.8V598.25c0,26.234,88.647,47.5,198,47.5s198-21.266,198-47.5V562.708C526.542,548.551,500.716,535.843,459.76,527.141Zm-211.21-7.893c-2.31-4.9-4.48-11.777-4.675-23.373-.25.125,2.5-2.375,2.5-2.375a33.149,33.149,0,0,1,3-24.25c3.75-17.125,15.125-14.875,21.875-39.5L269,427.375l.25-6.25a42.671,42.671,0,0,0-9.375,2l-3.375-3s14.125-9.5-2.375-19.125C256,396.25,256,388.625,256,388.625c6-1.25,11.75-6.375,12.125-6.375,17.875,1,39.125,1,39.125,1,7.875-1.75,19.875-6.75,19.875-6.75L344,399.625v2.5l5.75,6.75c-3.875,4.5-14.125,12.875-14.125,12.875l22,17.875c1,4.25,1.5,5.5,5.25,9.375,5.375,5.75,23.75,26.75,23.75,26.75l4-1.5,7.25,9.375,2-1.125L407,493.625l2.875.5a10.618,10.618,0,0,0,4,4.75c.625,4.5,4,8.5,4,8.5.125,0,0,4.5,0,4.5l3.5,2.75a38.8,38.8,0,0,0,.129,6.137,742.836,742.836,0,0,0-92.962-5.554A764.648,764.648,0,0,0,248.55,519.248Z" fill="#fff"/></svg>