<svg id="svg2" xmlns="http://www.w3.org/2000/svg" viewBox="0 0 112 46.375"><title>MSX_SVG,svg</title><g id="layer1"><rect id="rect3604" width="112" height="46.375" fill="#2697e8" fill-opacity="0.941"/><path id="path2830" d="M7.347,39.8,15.855,6.313h7.888l4.1,14.617L32.1,6.313h7.425l6.96,24.671,16.983-.032c1.783-.017,1.892-3.7-.132-3.7l-9.89-.132c-4.247.041-8.726-4.553-8.508-10.673.046-5.612,4.94-10.033,11.2-10.031L81.361,6.39l6.42,8.74,6.264-8.817,10.441.077L93.04,22.477,105.414,39.92l-10.386-.032-7.2-10.009L80.975,39.888l-10.6-.01L82.444,22.632l-5.259-7.657-21.928.032c-2.394.022-2.306,3.787.018,3.716l9.24.142c3.905.025,9.4,4.083,9.267,10.418.06,7.365-6.574,10.73-9.767,10.55l-24.185.032L35.808,24.8,31.787,39.833H24.153l-4.2-14.958-3.69,14.981Z" fill="#fff"/></g></svg>