<svg id="Layer_1" data-name="Layer 1" xmlns="http://www.w3.org/2000/svg" viewBox="0 0 112 111.85"><defs><style>.cls-1{fill:#0222a9;}.cls-2{fill:#011da9;}.cls-3{fill:#069330;}.cls-4{fill:#fe2015;}.cls-5{fill:#ffc001;}</style></defs><title>N64_SVG</title><path class="cls-1" d="M68.39,35l3.28-3.72V6.1L56,12.13h0L43.09,35.2l12.95-5Z"/><path class="cls-2" d="M96.15,70V27.61L112,21.51V88.26L96.15,95h0L72.86,64.52v40.26L56,111.85V43.09l16.82-6.4Z"/><path class="cls-1" d="M30.81,88.33,15.93,59.46V95h0Z"/><path class="cls-3" d="M31.78,21.51h0l7.44,15.18,3.87-1.49L56,12.13,40.41,6Z"/><path class="cls-3" d="M68.39,35h0L80.3,21.51l15.85,6.1V70L72.86,36.69Z"/><path class="cls-3" d="M56,111.85V43.09l-16.82-6.4v34.9l-23.37-44h0L0,21.51V88.26L15.85,95V59.46l23.37,45.32Z"/><path class="cls-4" d="M15.93,27.61l15.85-6.1,7.44,15.18h0v34.9Z"/><path class="cls-4" d="M72.86,81.12l4.76,6.69L96.15,95h0L72.86,64.52Z"/><path class="cls-5" d="M39.29,36.69l16.82-6.4,16.82,6.4h0l-16.82,6.4Z"/><path class="cls-5" d="M96.15,15.4,112,21.51l-15.85,6.1L80.3,21.51h0Z"/><path class="cls-5" d="M15.93,15.4l15.85,6.11-15.85,6.1L.07,21.51h0Z"/><path class="cls-5" d="M56,0,40.41,6,56,12.13l15.63-6h0Z"/></svg>