<svg id="Layer_1" data-name="Layer 1" xmlns="http://www.w3.org/2000/svg" viewBox="0 0 217.919 330.771"><title>necpc-98</title><path d="M59.971,330.77h-36.5L53,271.249c-7.981,0-30.033-4.249-38.076-11.5-10.428-9.4-18.869-28.4-13-50.994,6.481-24.946,34.5-43.741,64.992-36,21.8,5.539,34.549,16.485,38.3,40.376,1.727,11,1.013,21.7-6.193,37.881ZM32.926,223.758c0,25.9,40,26.614,40,1C72.921,198.016,32.926,197.766,32.926,223.758Z" fill="#fff"/><path d="M156.91,172.765c35.151-4.551,65.75,23.1,54.993,58.993-1.682,5.614-11.307,17.615-11.307,17.615s14.7,13.6,16.307,22.38c6.706,36.626-20.935,58.2-48.994,58.992-29.72.838-62.426-19.279-55.993-56.992.87-5.1,4.273-9.96,6-13,1.74-3.063,9.931-11.381,9.931-11.381s-10.9-17.317-11.931-24.614C112.155,198.106,128.052,176.5,156.91,172.765Zm-7,44.026c0,19.225,29,18.975,29,.968C178.908,197.391,149.911,197.141,149.911,216.791ZM164.9,300.748c22.679,0,22.8-34-.388-34C141.251,266.753,141.856,300.748,164.9,300.748Z" fill="#fff"/><path d="M208.632,3.024V34c-84.938-22.833-84.368,114.5-1.14,91.754v31C78.642,189,78.072-26.667,208.632,3.024Z" fill="#fff"/><path d="M49.543,96l.108-30.918c15.01,0,24-5.2,24-16.088,0-9-1.487-17.866-31.862-17.866l.125,128.622H9.287L9.657,0,41.162,0c60.5.206,67.625,24.5,67.625,47.991C108.787,81.755,85.162,96,49.543,96Z" fill="#fff"/></svg>