<svg id="Layer_1" data-name="Layer 1" xmlns="http://www.w3.org/2000/svg" viewBox="0 0 104.234 128.078"><title>necpc-fx</title><circle cx="50.149" cy="8.794" r="4.039" fill="#ccc"/><path d="M50.149,102.378,22.324,86.54l7.535-4.062c.019.044.031.08.051.125,5.45,7.98,16.47,8.57,25.22,7.76,5.19-1.655-1.06,2.033-.73,3.49.94,2.7,4.047,1.088,5.482.668,3.77-2.16,7.5-4.563,9.838-8.747,1.287-3.878.724-1.814,3.75-5.09,2.77-2.86,3-7.33,6.24-9.84,3.47-3.12,5.02-7.55,6.87-11.67,6.24-5.78,11.96-13.38,11.74-22.31.34-6.76-3.84-12.78-8.83-16.93C81.27,13.224,70.82,9.794,60.45,8.2a2.712,2.712,0,0,0-3.14,4.12c4.75,1.95,10.08,1.89,14.83,3.92,7.63,2.8,15.48,7.04,19.62,14.34,3.53,7.16-.16,15.82-5.54,21l-.18.18c-2.04-3.3-4.2-6.63-7.38-8.95C70.5,36.632,60.1,34.408,50.09,33.8V14.583L0,41.583v56.99l.07-.038v1.038l50.079,28.505,50.08-28.505v-25.7ZM50.09,58.813h.06c5.65.33,11.49,1.21,16.37,4.26.644.494,1.383.8-.533,1.385a77.665,77.665,0,0,1-9.925,1.917s-3.3.208-4.452.158c-.194-.008-.737-.037-1.52-.087ZM46.542,73.486a27.835,27.835,0,0,1,9.058.538c1.72.49,3.84.49,4.94,2.11a73.044,73.044,0,0,1-16.97.7c-.789-.161-1.673-.244-2.56-.366ZM49.63,85.323c-5.02-.24-10.81-.67-14.48-4.57a58.1,58.1,0,0,0,30.52-.5C61.34,84.1,55.24,85.193,49.63,85.323ZM67.54,73.5a9.442,9.442,0,0,0-5.06-3.07c3-.8,6.01-1.61,8.99-2.49C73.15,71.043,70.195,72.763,67.54,73.5Zm9.53-25.2a15.171,15.171,0,0,1,4.41,7.89c-1.8,1.3-3.65,2.53-5.52,3.72-1.27.35-2.77,1.98-3.99.58C65.747,55.684,57.8,53.919,50.09,53.42V39.263C59.64,39.413,69.85,41.673,77.07,48.3Z" fill="#ccc"/><path d="M61.314,6.568a2.712,2.712,0,0,1,3.14-4.12c10.37,1.59,20.82,5.02,29.04,11.73,4.99,4.15,9.17,10.17,8.83,16.93.22,8.93-5.5,16.53-11.74,22.31-1.85,4.12-3.4,8.55-6.87,11.67-3.24,2.51-3.47,6.98-6.24,9.84-3.026,3.276-2.463,1.213-3.75,5.09-2.338,4.185-6.068,6.587-9.838,8.747-1.435.42-4.543,2.033-5.482-.668-.33-1.457,5.92-5.145.73-3.49-8.75.81-19.77.22-25.22-7.76a8.614,8.614,0,0,1-.91-4.56c-3.95-2.85-6.74-7.22-6.4-12.26-4.38-3.04-8.54-7.37-8.73-13.02-.75-5.54,3.55-10.02,7.92-12.68,8.43-5.05,18.55-6.31,28.21-6.29,10.04.6,20.48,2.82,28.66,9.02,3.18,2.32,5.34,5.65,7.38,8.95l.18-.18c5.38-5.18,9.07-13.84,5.54-21-4.14-7.3-11.99-11.54-19.62-14.34C71.394,8.458,66.064,8.518,61.314,6.568Zm-35.76,34.55c-4.98,3.99-1.3,12.13,3.84,13.72,6.86-5.61,15.97-7.23,24.6-7.18,7.74.49,15.73,2.25,21.98,7.08,1.22,1.4,2.72-.23,3.99-.58,1.87-1.19,3.72-2.42,5.52-3.72a15.171,15.171,0,0,0-4.41-7.89c-7.22-6.63-17.43-8.89-26.98-9.04C44.224,33.288,33.4,34.6,25.554,41.118Zm34.512,19.5A77.487,77.487,0,0,0,69.991,58.7c1.917-.583,1.177-.891.533-1.385-4.88-3.05-10.72-3.93-16.37-4.26-6.18-.02-12.67.63-18.14,3.72-.56.342-2.357.675.01,1.35,5.316,1.856,18.443,2.6,19.59,2.65S60.066,60.62,60.066,60.62ZM31.824,62.608a8.542,8.542,0,0,0,3.547,4.4c.859-.571,2.173-1.225,3.273-1.8.714-.289,1.477-.8,2.21-1.054-.358-.025-.895-.088-1.952-.134A59.081,59.081,0,0,1,31.824,62.608Zm34.66,2.07a9.445,9.445,0,0,1,5.06,3.07c2.655-.74,5.61-2.46,3.93-5.56C72.494,63.068,69.484,63.878,66.484,64.678ZM41.762,69.766c1.687,1,4,.942,5.812,1.312a73.044,73.044,0,0,0,16.97-.7c-1.1-1.62-3.22-1.62-4.94-2.11A31.564,31.564,0,0,0,41.762,69.766ZM39.154,75c3.67,3.9,9.46,4.33,14.48,4.57,5.61-.13,11.71-1.22,16.04-5.07A58.1,58.1,0,0,1,39.154,75Z" fill="#01015b"/><circle cx="54.154" cy="4.039" r="4.039" fill="#01015b"/><polygon points="54.154 122.323 4.074 93.818 4.074 68.118 54.154 96.623 54.154 122.323" fill="#01015b"/><polygon points="54.154 122.323 104.234 93.818 104.234 68.118 54.154 96.623 54.154 122.323" fill="#f00020"/><polygon points="4.004 92.818 54.094 65.818 54.094 8.828 4.004 35.828 4.004 92.818" fill="#fec101"/><path d="M61.314,6.568a2.712,2.712,0,0,1,3.14-4.12c10.37,1.59,20.82,5.02,29.04,11.73,4.99,4.15,9.17,10.17,8.83,16.93.22,8.93-5.5,16.53-11.74,22.31-1.85,4.12-3.4,8.55-6.87,11.67-3.24,2.51-3.47,6.98-6.24,9.84-3.026,3.276-2.463,1.213-3.75,5.09-2.338,4.185-6.068,6.587-9.838,8.747-1.435.42-4.543,2.033-5.482-.668-.33-1.457,5.92-5.145.73-3.49-8.75.81-19.77.22-25.22-7.76a8.614,8.614,0,0,1-.91-4.56c-3.95-2.85-6.74-7.22-6.4-12.26-4.38-3.04-8.54-7.37-8.73-13.02-.75-5.54,3.55-10.02,7.92-12.68,8.43-5.05,18.55-6.31,28.21-6.29,10.04.6,20.48,2.82,28.66,9.02,3.18,2.32,5.34,5.65,7.38,8.95l.18-.18c5.38-5.18,9.07-13.84,5.54-21-4.14-7.3-11.99-11.54-19.62-14.34C71.394,8.458,66.064,8.518,61.314,6.568Zm-35.76,34.55c-4.98,3.99-1.3,12.13,3.84,13.72,6.86-5.61,15.97-7.23,24.6-7.18,7.74.49,15.73,2.25,21.98,7.08,1.22,1.4,2.72-.23,3.99-.58,1.87-1.19,3.72-2.42,5.52-3.72a15.171,15.171,0,0,0-4.41-7.89c-7.22-6.63-17.43-8.89-26.98-9.04C44.224,33.288,33.4,34.6,25.554,41.118Zm34.512,19.5A77.487,77.487,0,0,0,69.991,58.7c1.917-.583,1.177-.891.533-1.385-4.88-3.05-10.72-3.93-16.37-4.26-6.18-.02-12.67.63-18.14,3.72-.56.342-2.357.675.01,1.35,5.316,1.856,18.443,2.6,19.59,2.65S60.066,60.62,60.066,60.62ZM31.824,62.608a8.542,8.542,0,0,0,3.547,4.4c.859-.571,2.173-1.225,3.273-1.8.714-.289,1.477-.8,2.21-1.054-.358-.025-.895-.088-1.952-.134A59.081,59.081,0,0,1,31.824,62.608Zm34.66,2.07a9.445,9.445,0,0,1,5.06,3.07c2.655-.74,5.61-2.46,3.93-5.56C72.494,63.068,69.484,63.878,66.484,64.678ZM41.762,69.766c1.687,1,4,.942,5.812,1.312a73.044,73.044,0,0,0,16.97-.7c-1.1-1.62-3.22-1.62-4.94-2.11A31.564,31.564,0,0,0,41.762,69.766ZM39.154,75c3.67,3.9,9.46,4.33,14.48,4.57,5.61-.13,11.71-1.22,16.04-5.07A58.1,58.1,0,0,1,39.154,75Z" fill="#01015b"/><circle cx="54.154" cy="4.039" r="4.039" fill="#01015b"/><polygon points="54.154 122.323 4.074 93.818 4.074 68.118 54.154 96.623 54.154 122.323" fill="#01015b"/><polygon points="54.154 122.323 104.234 93.818 104.234 68.118 54.154 96.623 54.154 122.323" fill="#f00020"/></svg>