<svg id="Layer_1" data-name="Layer 1" xmlns="http://www.w3.org/2000/svg" viewBox="0 0 500 400"><title>necpc-98</title><path id="path3003" d="M130.915,106.2,43.426,1.43,3.712,46.874,22.751,64.3,0,190.385l45.711-20.061-23.6-21.842L35.2,81.788l92.13,106.183,31.812-144.8L191.36,23.69,152.408,0,130.915,106.2Zm77.02-87.208c2.774,3.121,6.219,7.095,5.415,11.334h0L202.6,86.957h0c-.84,4.428-4.766,7.651-7.85,9.862s-6.868,2.8-10.652,3.394c3.271,1.28,6.539,2.56,8.736,4.931s5.225,5.748,4.431,9.3h0l-12.32,55.175h0c-1.133,5.08-6.329,8.266-10.012,11.038s-7.886,4.182-12.088,5.6H310.027l10.329-55.2h0c-5.663,11.455-11.329,22.912-20.974,30.256s-22.888,13.8-36.889,13.8H235.535L249,106.822h0a20.114,20.114,0,0,1,15.394.914c4.99,2.424,9.45,7.1,13.435,12.179a89.843,89.843,0,0,1,10.305,16.372h0l14.087-71.82h0a112.765,112.765,0,0,1-15.957,14.355c-5.773,4.3-11.96,8.124-17.754,10.035a26.6,26.6,0,0,1-16.209.43h0l13.956-67.23,21.693-.2h0c9.843-.088,19.646-1.28,27.581,5.211s13.993,20.117,20.049,33.741h0L346.32,11.6H196.711c4.225,2.135,8.45,4.27,11.224,7.392ZM384.249,36.226a112.407,112.407,0,0,0-27.543,35.457,99.76,99.76,0,0,0-10.113,41.844,81.044,81.044,0,0,0,8.325,37.1c5.508,11.281,13.542,21.533,23.465,28.471s21.725,10.565,32.562,12.235a98.958,98.958,0,0,0,28.516.281c7.812-1.091,13.569-2.988,18.8-5.9h0L489.328,121.2h0c-8.033,3.771-16.217,7.219-24.7,10.722s-17.28,7.066-26.605,8.186-19.183-.189-27.931-5.393a49.918,49.918,0,0,1-21.834-56.121c2.784-10.185,8.64-19.269,15.757-27.228a99.414,99.414,0,0,1,23.259-19.293,50.483,50.483,0,0,1,22.305-7.2h0l23.457,33.773L500,48.555,481.105,2.261h0a117.445,117.445,0,0,0-17.051.722,152.589,152.589,0,0,0-21.292,3.8A150.36,150.36,0,0,0,417.3,16c-9.98,4.527-22.049,10.837-33.049,20.228Z" fill="#fff"/><path d="M317.734,399.68h-42.12L309.694,331c-9.21,0-34.657-4.9-43.938-13.265-12.034-10.842-21.774-32.768-15-58.845,7.478-28.787,39.808-50.476,75-41.538,25.162,6.391,39.868,19.023,44.2,46.592,1.992,12.7,1.168,25.044-7.147,43.713ZM286.525,276.192c0,29.886,46.153,30.711,46.153,1.154C332.678,246.486,286.525,246.2,286.525,276.192Z" fill="#fff"/><path d="M429.6,217.348c40.563-5.252,75.873,26.65,63.46,68.075-1.941,6.479-13.048,20.327-13.048,20.327s16.962,15.694,18.817,25.826c7.739,42.265-24.158,67.164-56.537,68.075-34.3.967-72.037-22.248-64.614-65.767,1-5.885,4.931-11.493,6.924-15,2.008-3.535,11.46-13.134,11.46-13.134s-12.579-19.983-13.768-28.4C377.952,246.59,396.3,221.659,429.6,217.348Zm-8.077,50.8c0,22.185,33.462,21.9,33.462,1.117C454.983,245.765,421.521,245.477,421.521,268.152Zm17.3,96.883c26.171,0,26.31-39.229-.448-39.229C411.528,325.806,412.226,365.035,438.818,365.035Z" fill="#fff"/><path d="M230.037,218.8v35.745c-98.016-26.349-97.358,132.128-1.316,105.88V396.2C80.033,433.41,79.375,184.538,230.037,218.8Z" fill="#fff"/><path d="M46.454,326.091l.125-35.678c17.321,0,27.691-6,27.691-18.565,0-10.385-1.716-20.616-36.767-20.616l.144,148.424H0L.427,215.311l36.356,0c69.814.238,78.036,28.269,78.036,55.38C114.819,309.653,87.557,326.091,46.454,326.091Z" fill="#fff"/></svg>