<svg id="Layer_1" data-name="Layer 1" xmlns="http://www.w3.org/2000/svg" viewBox="0 0 112 78"><title>NES_dark_SVG</title><path d="M63.58,59.55V0H45.67V41.64L19.25,0H0V59.55H17.91v-43l27.76,43Z" fill="red"/><path id="_3181" data-name=" 3181" d="M108.87,36.27H79.31c-4.92,0-9.85-3.14-9.85-8.06V0h39.41V8.51H82.45a3.37,3.37,0,0,0-3.14,3.13,3.38,3.38,0,0,0,3.14,3.14h24.62v7.16H82.45a3.809,3.809,0,0,0-3.14,3.13c0,1.8,1.8,3.59,3.14,3.59h26.42Z" fill="#333"/><path id="_3187" data-name=" 3187" d="M79.31,42.18c-3.13,0-9.85,4.93-9.85,8.06v4.93c0,3.13,6.72,8.06,9.85,8.06H99c1.79,0,3.58,1.79,3.58,3.13A3.85,3.85,0,0,1,99,69.94H69.46V78H102.6c3.13,0,9.4-4.92,9.4-8.06V65.02c0-3.59-6.27-8.51-9.4-8.51H82.9a3.47,3.47,0,0,1-3.59-3.14c0-1.79,1.8-3.13,3.59-3.13H112V42.18Z" fill="#333"/></svg>