<svg id="svg4173" xmlns="http://www.w3.org/2000/svg" xmlns:xlink="http://www.w3.org/1999/xlink" viewBox="0 0 112 87.17"><defs><style>.cls-1{clip-path:url(#clip-path);}.cls-2{fill:#333;}.cls-3{fill:#c80c0f;}.cls-4{fill:#a6c613;}.cls-5{fill:#e30521;}.cls-6{fill:#00a6e6;}.cls-7{fill:#f6a500;}.cls-8{fill:#e73088;}.cls-9{fill:#009881;}</style><clipPath id="clip-path"/></defs><title>New_3DS_dark_SVG</title><g id="layer1"><g id="g3361"><g class="cls-1"><g id="g3363"><g id="g3405"><path id="path3407" class="cls-2" d="M81.36,77.87c2.81,1.66,8.72,3,13.34,3,5,0,7.15-2.6,7.15-5.86,0-2.93-1.95-4.65-7.53-7.71-7.46-4.14-12.93-7.4-12.93-14.75C81.39,44.93,88,40.46,98,40.46a32,32,0,0,1,10.67,1.45l0,7.23c-3.37-1-6.35-2.61-11-2.61-5,0-7.08,2.36-7.08,4.79,0,3.54,3.26,5.23,9,8.28C107.57,63.87,112,67.16,112,74.36c0,7.4-5.54,12.75-18,12.75a50.09,50.09,0,0,1-12.61-1.45Z"/></g><g id="g3409"><path id="path3411" class="cls-2" d="M54.77,46.84h-6V80.6h6c9.13,0,14.88-5.85,14.88-16.82S63.9,46.84,54.77,46.84m16,36.91c-2.94,2-8.5,3.26-13.37,3.26H38.77V40.56H57.36c4.87,0,10.43,1.28,13.37,3.27,7.16,4.85,9.5,12.6,9.5,20s-2.32,15.11-9.5,20"/></g><g id="g3413"><path id="path3415" class="cls-3" d="M25.75,61.59s8.67-2.07,8.67-10.17c0-7.92-9.24-11.16-19.06-11.16A59.92,59.92,0,0,0,.67,41.89v7.19a35.86,35.86,0,0,1,13.12-2.71c5.62,0,9.92,2.52,9.92,6.09,0,4.28-4.24,6.74-13.39,6.74H6.11v6.46H10c9.63,0,15.11,2.18,15.11,7.48,0,4.73-4.89,7.61-11,7.61C8.82,80.75,4,79.05,0,77.41v7.76a57.86,57.86,0,0,0,16.3,2c10.38,0,19.41-5,19.41-13.83,0-7.41-6.26-11.75-10-11.75"/></g><g id="g3425"><path id="path3427" class="cls-4" d="M7.71,13,.61,12a.38.38,0,0,0-.43.34,25.2,25.2,0,0,0,0,5.95.38.38,0,0,0,.43.34l7.1-.92A.38.38,0,0,0,8,17.32,17.72,17.72,0,0,1,8,13.4.39.39,0,0,0,7.71,13"/></g><g id="g3429"><path id="path3431" class="cls-5" d="M11.31,4.44,5.63.08a.38.38,0,0,0-.54.07,25.65,25.65,0,0,0-3,5.17.38.38,0,0,0,.2.5L8.92,8.57a.39.39,0,0,0,.5-.2,17.89,17.89,0,0,1,2-3.39.38.38,0,0,0-.07-.54"/></g><g id="g3433"><path id="path3435" class="cls-6" d="M8.86,22.17,2.24,24.91a.38.38,0,0,0-.21.5,26,26,0,0,0,3,5.17.39.39,0,0,0,.55.07l5.69-4.35a.37.37,0,0,0,.07-.53,17.62,17.62,0,0,1-2-3.4.39.39,0,0,0-.5-.2"/></g><g id="g3437"><path id="path3439" class="cls-2" d="M61.79,20.44H55.92a1.37,1.37,0,0,0-.68.14l-.07.05a0,0,0,0,0,0,0h0a6.93,6.93,0,0,1-3.86,1.15c-4.43,0-6.08-3.67-6.08-6.41C45.22,12.45,47,9,51.33,9a5.5,5.5,0,0,1,5.59,3.9c.06.22.12.44-.12.44H48.34a.45.45,0,0,0-.45.44v3.64a.45.45,0,0,0,.45.45H60c2.42,0,3.06-.76,3.06-3A11.38,11.38,0,0,0,51.42,3.52c-6.25,0-11.81,4.79-11.81,11.12,0,7,3.91,12.6,11.84,12.6,6.61,0,9.55-3.93,10.76-6.35,0-.1.17-.45-.42-.45"/></g><g id="g3441"><path id="path3443" class="cls-2" d="M15.51,26.65a.31.31,0,0,1-.32-.31v-13c0-4.91,4.11-9.83,10.78-9.83s10.78,4.92,10.78,9.83v13a.31.31,0,0,1-.31.31H31.13a.31.31,0,0,1-.32-.31V14.14A4.6,4.6,0,0,0,26,9.49a4.6,4.6,0,0,0-4.84,4.65v12.2a.31.31,0,0,1-.32.31Z"/></g><g id="g3445"><path id="path3447" class="cls-2" d="M83.74,4.11a.31.31,0,0,1,.31.32V17.86c0,2.32,1,3.41,2.65,3.41s2.83-1.09,2.83-3.41V4.43a.32.32,0,0,1,.32-.32h5.58a.32.32,0,0,1,.32.32V18.31c0,5.47-3.67,8.9-8.12,8.9A8.41,8.41,0,0,1,80.76,24a7.27,7.27,0,0,1-6.5,3.17c-4.45,0-8.12-3.43-8.12-8.9V4.43a.32.32,0,0,1,.32-.32H72a.32.32,0,0,1,.32.32V17.86c0,2.32,1.27,3.41,2.83,3.41s2.65-1.09,2.65-3.41V4.43a.32.32,0,0,1,.32-.32Z"/></g><g id="g3449"><path id="path3451" class="cls-7" d="M104.29,17.76l7.1.93a.38.38,0,0,0,.43-.33,25.28,25.28,0,0,0,0-6,.38.38,0,0,0-.43-.34l-7.1.92a.38.38,0,0,0-.33.43,17.72,17.72,0,0,1,0,3.92.39.39,0,0,0,.33.43"/></g><g id="g3453"><path id="path3455" class="cls-8" d="M100.69,26.29l5.68,4.36a.4.4,0,0,0,.55-.07,25.74,25.74,0,0,0,3-5.16.38.38,0,0,0-.21-.51l-6.61-2.75a.39.39,0,0,0-.5.2,18.12,18.12,0,0,1-2,3.39.38.38,0,0,0,.07.54"/></g><g id="g3457"><path id="path3459" class="cls-9" d="M103.14,8.56l6.62-2.73a.39.39,0,0,0,.21-.51,25.81,25.81,0,0,0-3-5.17.38.38,0,0,0-.54-.07l-5.69,4.35a.39.39,0,0,0-.07.54,17.54,17.54,0,0,1,2,3.39.37.37,0,0,0,.5.2"/></g></g></g></g></g></svg>