<svg id="svg4173" xmlns="http://www.w3.org/2000/svg" viewBox="0 0 112 88"><title>New_3DS_dark_SVG</title><g id="g3405"><path id="path3407" d="M81.36,78.688c2.81,1.66,8.72,3,13.34,3,5,0,7.15-2.6,7.15-5.86,0-2.93-1.95-4.65-7.53-7.71-7.46-4.14-12.93-7.4-12.93-14.75,0-7.62,6.61-12.09,16.61-12.09a31.984,31.984,0,0,1,10.67,1.45v7.23c-3.37-1-6.35-2.61-11-2.61-5,0-7.08,2.36-7.08,4.79,0,3.54,3.26,5.23,9,8.28,7.98,4.27,12.41,7.56,12.41,14.76,0,7.4-5.54,12.75-18,12.75a50.111,50.111,0,0,1-12.61-1.45Z" fill="#333"/></g><g id="g3409"><path id="path3411" d="M54.77,47.658h-6v33.76h6c9.13,0,14.88-5.85,14.88-16.82s-5.75-16.94-14.88-16.94m16,36.91c-2.94,2-8.5,3.26-13.37,3.26H38.77V41.378H57.36c4.87,0,10.43,1.28,13.37,3.27,7.16,4.85,9.5,12.6,9.5,20s-2.32,15.11-9.5,20" fill="#333"/></g><g id="g3413"><path id="path3415" d="M25.75,62.408s8.67-2.07,8.67-10.17c0-7.92-9.24-11.16-19.06-11.16A59.9,59.9,0,0,0,.67,42.708V49.9a35.844,35.844,0,0,1,13.12-2.71c5.62,0,9.92,2.52,9.92,6.09,0,4.28-4.24,6.74-13.39,6.74H6.11v6.46H10c9.63,0,15.11,2.18,15.11,7.48,0,4.73-4.89,7.61-11,7.61-5.29,0-10.11-1.7-14.11-3.34v7.76a57.9,57.9,0,0,0,16.3,2c10.38,0,19.41-5,19.41-13.83,0-7.41-6.26-11.75-10-11.75" fill="#c80c0f"/></g><g id="g3425"><path id="path3427" d="M7.71,13,.61,12a.38.38,0,0,0-.428.325l0,.015a25.2,25.2,0,0,0,0,5.95.38.38,0,0,0,.415.342l.015,0,7.1-.92a.38.38,0,0,0,.29-.39A17.717,17.717,0,0,1,8,13.4a.389.389,0,0,0-.29-.4" fill="#a6c613"/></g><g id="g3429"><path id="path3431" d="M11.31,4.442,5.63.082A.381.381,0,0,0,5.1.144L5.09.152a25.671,25.671,0,0,0-3,5.17.381.381,0,0,0,.2.5h0l6.63,2.75a.389.389,0,0,0,.5-.2,17.913,17.913,0,0,1,2-3.39.38.38,0,0,0-.062-.534l-.008-.006" fill="#e30521"/></g><g id="g3433"><path id="path3435" d="M8.86,22.172l-6.62,2.74a.381.381,0,0,0-.213.494l0,.006a26.015,26.015,0,0,0,3,5.17.39.39,0,0,0,.547.073l0,0,5.69-4.35a.37.37,0,0,0,.08-.517l-.01-.013a17.587,17.587,0,0,1-2-3.4.391.391,0,0,0-.5-.2" fill="#00a6e6"/></g><g id="g3437"><path id="path3439" d="M61.79,20.442H55.92a1.379,1.379,0,0,0-.68.14l-.07.05h0a6.932,6.932,0,0,1-3.86,1.15c-4.43,0-6.08-3.67-6.08-6.41C45.22,12.452,47,9,51.33,9a5.5,5.5,0,0,1,5.59,3.9c.06.22.12.44-.12.44H48.34a.45.45,0,0,0-.45.44v3.64a.449.449,0,0,0,.45.45H60c2.42,0,3.06-.76,3.06-3A11.38,11.38,0,0,0,51.653,3.519c-.078,0-.155,0-.233,0-6.25,0-11.81,4.79-11.81,11.12,0,7,3.91,12.6,11.84,12.6,6.61,0,9.55-3.93,10.76-6.35,0-.1.17-.45-.42-.45" fill="#333"/></g><g id="g3441"><path id="path3443" d="M15.51,26.652a.31.31,0,0,1-.32-.3V13.342c0-4.91,4.11-9.83,10.78-9.83s10.78,4.92,10.78,9.83v13a.31.31,0,0,1-.31.31H31.13a.31.31,0,0,1-.32-.3V14.142a4.6,4.6,0,0,0-4.545-4.654c-.088,0-.177,0-.265,0a4.6,4.6,0,0,0-4.834,4.353q-.007.149-.006.3v12.2a.31.31,0,0,1-.31.31H15.51Z" fill="#333"/></g><g id="g3445"><path id="path3447" d="M83.74,4.112a.31.31,0,0,1,.31.31v13.44c0,2.32,1,3.41,2.65,3.41s2.83-1.09,2.83-3.41V4.432a.32.32,0,0,1,.32-.32h5.58a.32.32,0,0,1,.32.32v13.88c0,5.47-3.67,8.9-8.12,8.9A8.409,8.409,0,0,1,80.76,24a7.27,7.27,0,0,1-6.5,3.17c-4.45,0-8.12-3.43-8.12-8.9V4.432a.32.32,0,0,1,.32-.32H72a.32.32,0,0,1,.32.32v13.43c0,2.32,1.27,3.41,2.83,3.41s2.65-1.09,2.65-3.41V4.432a.32.32,0,0,1,.32-.32Z" fill="#333"/></g><g id="g3449"><path id="path3451" d="M104.29,17.762l7.1.93a.38.38,0,0,0,.429-.323v-.007a25.3,25.3,0,0,0,0-6,.38.38,0,0,0-.415-.342l-.015,0-7.1.92a.381.381,0,0,0-.331.424v.006a17.717,17.717,0,0,1,0,3.92.39.39,0,0,0,.33.43" fill="#f6a500"/></g><g id="g3453"><path id="path3455" d="M100.69,26.292l5.68,4.36a.4.4,0,0,0,.55-.07,25.74,25.74,0,0,0,3-5.16.38.38,0,0,0-.191-.5l-.019-.008-6.61-2.75a.391.391,0,0,0-.5.2,18.138,18.138,0,0,1-2,3.39.38.38,0,0,0,.062.534l.008.006" fill="#e73088"/></g><g id="g3457"><path id="path3459" d="M103.14,8.562l6.62-2.73a.39.39,0,0,0,.21-.51,25.767,25.767,0,0,0-3-5.17.38.38,0,0,0-.532-.076l-.008.006-5.69,4.35a.39.39,0,0,0-.07.54,17.541,17.541,0,0,1,2,3.39.37.37,0,0,0,.48.209l.02-.009" fill="#009881"/></g></svg>