<svg id="Layer_1" data-name="Layer 1" xmlns="http://www.w3.org/2000/svg" viewBox="0 0 82.688 82.248"><title>nokian-gage_dark</title><path d="M3.5,0C2.176,0,0,1.71,0,3.344V24.625H7.375V6.875C9.3,8.736,28.5,23.594,28.5,23.594c1.323.932,1.841,1.469,2.813,1.469h2.281a3.517,3.517,0,0,0,3.75-3.25V.281H29.969V18.438L8.187.719A5.7,5.7,0,0,0,5.687,0ZM46.281,9.344c-2.44,0-4.437,1.41-4.437,3.187s2,3.25,4.437,3.25c2.461,0,4.438-1.471,4.438-3.25S48.742,9.344,46.281,9.344Z" fill="#ed1c24"/><path d="M3.656,29.061C1.568,29.061,0,30.223,0,32.311V50.374a3.689,3.689,0,0,0,3.094,3.094H37.875c1.055-.56,3.187-.741,3.062-5.063V38.874H15.312v4.719H33.625v4.781H7.312V34.155H69.406c.351.023.875.015.875.531v4.188H48.969v4.719H70.313v9.843h7.281V32.843c0-2.584-2.453-3.782-4.625-3.782Z" fill="#333"/><path d="M3.781,57.748A3.43,3.43,0,0,0,0,61.5V78.217a3.594,3.594,0,0,0,3.281,3.906H37.719a3.288,3.288,0,0,0,3.344-3.375V67.529H15.313v4.719H33.781v4.781H7.469V62.81H81.438V57.748Z" fill="#333"/><polygon points="45.375 67.529 45.375 82.248 82.688 82.248 82.688 77.029 52.969 77.029 52.969 72.436 74.406 72.436 74.406 67.529 45.375 67.529 45.375 67.529" fill="#333"/></svg>