<svg id="Layer_1" data-name="Layer 1" xmlns="http://www.w3.org/2000/svg" viewBox="0 0 112 80.094"><title>philipsvideopac+</title><path d="M81.341,0H62.565a2.1,2.1,0,0,0-2.1,2.1V28.558H34.007a2.1,2.1,0,0,0-2.1,2.1V49.435a2.1,2.1,0,0,0,2.1,2.1H60.464V77.993a2.1,2.1,0,0,0,2.1,2.1H81.341a2.1,2.1,0,0,0,2.1-2.1V51.536H109.9a2.1,2.1,0,0,0,2.1-2.1V30.659a2.1,2.1,0,0,0-2.1-2.1H83.442V2.1a2.1,2.1,0,0,0-2.1-2.1Z"/><polygon points="109.899 30.659 81.341 30.659 81.341 2.101 62.565 2.101 62.565 30.659 34.007 30.659 34.007 49.435 62.565 49.435 62.565 77.993 81.341 77.993 81.341 49.435 109.899 49.435 109.899 30.659" fill="#ff1e00"/><path d="M73.726,0H54.95a2.1,2.1,0,0,0-2.1,2.1V28.558H26.392a2.1,2.1,0,0,0-2.1,2.1V49.435a2.1,2.1,0,0,0,2.1,2.1H52.849V77.993a2.1,2.1,0,0,0,2.1,2.1H73.726a2.1,2.1,0,0,0,2.1-2.1V51.536h26.457a2.1,2.1,0,0,0,2.1-2.1V30.659a2.1,2.1,0,0,0-2.1-2.1H75.827V2.1a2.1,2.1,0,0,0-2.1-2.1Z"/><polygon points="102.284 30.659 73.726 30.659 73.726 2.101 54.95 2.101 54.95 30.659 26.392 30.659 26.392 49.435 54.95 49.435 54.95 77.993 73.726 77.993 73.726 49.435 102.284 49.435 102.284 30.659" fill="#fd137e"/><path d="M62.171,0H43.4a2.1,2.1,0,0,0-2.1,2.1V28.558H14.837a2.1,2.1,0,0,0-2.1,2.1V49.435a2.1,2.1,0,0,0,2.1,2.1H41.294V77.993a2.1,2.1,0,0,0,2.1,2.1H62.171a2.1,2.1,0,0,0,2.1-2.1V51.536H90.729a2.1,2.1,0,0,0,2.1-2.1V30.659a2.1,2.1,0,0,0-2.1-2.1H64.272V2.1a2.1,2.1,0,0,0-2.1-2.1Z"/><polygon points="90.729 30.659 62.171 30.659 62.171 2.101 43.395 2.101 43.395 30.659 14.837 30.659 14.837 49.435 43.395 49.435 43.395 77.993 62.171 77.993 62.171 49.435 90.729 49.435 90.729 30.659" fill="#fc8500"/><path d="M49.435,0H30.659a2.1,2.1,0,0,0-2.1,2.1V28.558H2.1a2.1,2.1,0,0,0-2.1,2.1V49.435a2.1,2.1,0,0,0,2.1,2.1H28.558V77.993a2.1,2.1,0,0,0,2.1,2.1H49.435a2.1,2.1,0,0,0,2.1-2.1V51.536H77.993a2.1,2.1,0,0,0,2.1-2.1V30.659a2.1,2.1,0,0,0-2.1-2.1H51.536V2.1a2.1,2.1,0,0,0-2.1-2.1Z"/><polygon points="77.993 30.659 49.435 30.659 49.435 2.101 30.659 2.101 30.659 30.659 2.101 30.659 2.101 49.435 30.659 49.435 30.659 77.993 49.435 77.993 49.435 49.435 77.993 49.435 77.993 30.659" fill="#ffe300"/></svg>