<svg id="Layer_1" data-name="Layer 1" xmlns="http://www.w3.org/2000/svg" viewBox="0 0 92 112"><title>Pico_SVG</title><path d="M66.13,0a5,5,0,0,0-5,5v45.1a5,5,0,0,0,9.91,0V5A5,5,0,0,0,66.13,0Zm0,8.12A3.28,3.28,0,1,1,69.4,4.85,3.27,3.27,0,0,1,66.13,8.12Z" fill="#27a75c"/><path d="M54.35,18.75A21.19,21.19,0,0,0,35.59.12C34.89,0,34.19,0,33.49,0H25.87a5,5,0,0,0-4.95,5v45.1a5,5,0,0,0,9.91,0V9.71a10.79,10.79,0,0,1,1.42-.19h1c5.77.25,10.38,5.33,10.38,11.57a11.5,11.5,0,0,1-7.86,11.14,3.43,3.43,0,0,0-2.43,3.28v2.68a3.73,3.73,0,0,0,4.52,3.65A21.17,21.17,0,0,0,54.35,18.75ZM25.73,8.12A3.28,3.28,0,1,1,29,4.85,3.26,3.26,0,0,1,25.73,8.12Z" fill="#f2fe32"/><path d="M29.18,67.41h.58a5,5,0,0,0,0-9.92h-.58C13.06,57.49,0,69.7,0,84.75S13.06,112,29.18,112h.62a4.85,4.85,0,1,0,0-9.69h-.95c-10.47,0-19-7.81-19-17.45s8.49-17.46,19-17.46m1-8.24a3.28,3.28,0,1,1-3.28,3.28A3.28,3.28,0,0,1,29.87,59.17Z" fill="#db2645"/><ellipse cx="63.03" cy="84.98" rx="28.97" ry="27.02" fill="#f7621e"/><ellipse cx="63.03" cy="85.18" rx="19.77" ry="18.52"/><path d="M48.22,76V91.69c0,4.06,4.18,4.06,4.18,4.06h8.18A2.15,2.15,0,0,0,63,93.42V92.11c0-2-2.31-2-2.31-2l-4.94,0A1.78,1.78,0,0,1,54,88.17v-2c0-1.86,2.93-1.68,2.93-1.68H61c2.81,0,2.69-2.21,2.69-2.21v-.59c0-1.44-1.56-1.56-1.56-1.56H59.56c-1.31,0-1.73-1.43-3.61-1.43a1.6,1.6,0,0,1-1.82-1.61v-.78c0-1.61-2.27-1.79-2.27-1.79H50.13A1.72,1.72,0,0,0,48.22,76Z" fill="#effc32"/><path d="M60.4,73.35a2.95,2.95,0,1,0,3.29,2.93A3.12,3.12,0,0,0,60.4,73.35Zm0,4.71a1.79,1.79,0,1,1,2-1.78A1.9,1.9,0,0,1,60.4,78.06Z" fill="#effc32"/><path d="M71.87,90.08H67a1.82,1.82,0,0,0-2,2v1.07c0,3,3.88,2.63,3.88,2.63s1,0,5.32,0,4.12-5.39,4.12-5.39V79.21a4.57,4.57,0,0,0-3.94-4.71H67.39a2.29,2.29,0,0,0-2.45,2.2v1.07c0,3.35,3.88,3.17,3.88,3.17h3Z" fill="#effc32"/></svg>