<svg id="Layer_1" data-name="Layer 1" xmlns="http://www.w3.org/2000/svg" viewBox="0 0 108 112"><title>PiPPiN_SVG</title><rect x="45.869" y="18.178" width="11.84" height="29.141" fill="#fdb539"/><circle cx="51.674" cy="6.562" r="6.56" fill="#fdb539"/><rect x="45.849" y="64.089" width="11.86" height="29.201" fill="#8c2e88"/><circle cx="51.769" cy="105.48" r="6.52" fill="#8c2e88"/><polygon points="96.419 64.089 96.419 89.14 81.079 64.229 81.079 64.089 71.579 64.089 71.579 69.959 71.579 72.259 71.579 109.55 82.459 109.55 82.459 86.86 96.419 109.55 107.31 109.55 107.31 64.089 96.419 64.089" fill="#0093d7"/><path d="M22.57,1.478H0V47.319H12V31.849H22.57c7.571,0,13.711-6.8,13.711-15.191S30.141,1.478,22.57,1.478ZM20,22.8H11.68V11.2h7.88a2.67,2.67,0,0,1,.4,0c2.8,0,5.08,2.6,5.08,5.8S22.76,22.8,20,22.8Z" fill="#54bb46"/><path d="M94.209,1.478H71.679V47.319h12V31.849h10.6c7.581,0,13.721-6.8,13.721-15.191S101.79,1.478,94.209,1.478Zm-2.83,21.28h-8.27v-11.6h7.87a2.67,2.67,0,0,1,.4,0c2.81,0,5.08,2.6,5.08,5.8S94.189,22.758,91.379,22.758Z" fill="#f57930"/><path d="M22.57,64.229H0V109.44H12V94.61H22.57c7.571,0,13.711-6.8,13.711-15.191S30.141,64.229,22.57,64.229ZM19.92,85.44H11.64v-11.6h8.28c2.8,0,5.08,2.6,5.08,5.8S22.72,85.44,19.92,85.44Z" fill="#e02a3f"/></svg>