<svg id="Layer_1" data-name="Layer 1" xmlns="http://www.w3.org/2000/svg" viewBox="0 0 107.25 112"><defs><style>.cls-1{fill:#fdb539;}.cls-2{fill:#8c2e88;}.cls-3{fill:#0093d7;}.cls-4{fill:#54bb46;}.cls-5{fill:#f57930;}.cls-6{fill:#e02a3f;}</style></defs><title>PiPPiN_SVG</title><rect class="cls-1" x="45.53" y="18.18" width="11.84" height="29.14"/><circle class="cls-1" cx="51.33" cy="6.56" r="6.56" transform="translate(-0.13 11.97) rotate(-13.28)"/><rect class="cls-2" x="45.51" y="64.09" width="11.86" height="29.2"/><circle class="cls-2" cx="51.43" cy="105.48" r="6.52"/><polygon class="cls-3" points="95.74 64.09 95.74 89.14 80.4 64.23 80.4 64.09 70.9 64.09 70.9 69.96 70.9 72.26 70.9 109.55 81.78 109.55 81.78 86.86 95.74 109.55 106.63 109.55 106.63 64.09 95.74 64.09"/><path class="cls-4" d="M22.57,1.48H0V47.32H12V31.85H22.57c7.57,0,13.71-6.8,13.71-15.19S30.14,1.48,22.57,1.48ZM20,22.8l-.4,0v0H11.68V11.2h7.88v0a2.6,2.6,0,0,1,.4,0c2.8,0,5.08,2.6,5.08,5.8S22.76,22.8,20,22.8Z"/><path class="cls-5" d="M93.53,1.48H71V47.32h12V31.85h10.6c7.58,0,13.72-6.8,13.72-15.19S101.11,1.48,93.53,1.48ZM90.7,22.76l-.4,0v0H82.43V11.16H90.3v0a2.69,2.69,0,0,1,.4,0c2.81,0,5.08,2.6,5.08,5.8S93.51,22.76,90.7,22.76Z"/><path class="cls-6" d="M22.57,64.23H0v45.21H12V94.61H22.57c7.57,0,13.71-6.8,13.71-15.19S30.14,64.23,22.57,64.23ZM19.92,85.44l-.4,0v0H11.64V73.84h7.88v0l.4,0c2.8,0,5.08,2.6,5.08,5.8S22.72,85.44,19.92,85.44Z"/></svg>