<svg id="svg2479" xmlns="http://www.w3.org/2000/svg" viewBox="0 0 112 64"><title>Playstation_3_SVG</title><path id="path3568" d="M84.26,38.31c-2.72-.48-5.71-.89-8.83-1.19-4.61-.45-9.52-.68-14.51-.68s-10.06.23-15,.68c-3.33.3-6.59.69-9.69,1.19l-.14,0-2.28,6.23.46-.07c3-.45,6.2-.84,9.6-1.12,4.79-.38,9.81-.57,14.94-.57s9.75.19,14.17.55l-1.41,3.88H42.07l-2.17,6H69.38c-.2.57-1.3,3.58-1.41,3.86-4.77.38-9.75.57-14.76.57s-10-.19-14.52-.6c-3.19-.27-6.16-.63-8.8-1.09l-.21,0-2.23,6.19.29,0c2.74.48,5.71.89,8.83,1.19,4.63.43,9.52.66,14.51.66s10.06-.23,15-.66c3.33-.3,6.59-.71,9.69-1.19l.16,0,8.6-23.75-.29-.07" fill="#fff"/><path id="path3586" d="M45.07,10.36c-4.37.27-9.78.43-16.08.43H16c.2-.57,1.3-3.58,1.4-3.85,4.73-.39,9.7-.57,14.76-.57s9.76.18,14.17.54C46.13,7.44,45.17,10.11,45.07,10.36ZM57.63,1.87C54.89,1.39,51.92,1,48.79.68,44.17.23,39.29,0,34.28,0S23.67.39,19.88.64l-.6,0c-3.05.21-8.91.73-12.47,1.21L4.68,7.78c1-.07,2.3-.14,2.66-.14L0,27.86H9.79s3.9-10.75,4-11.07H26.92C47.24,16.79,52.86,15,53.09,15l.11-.05,4.73-13-.3-.07" fill="#fff"/><path id="path3550" d="M102.85.68C98.24.23,93.36,0,88.34,0s-10.06.23-15,.68c-3.33.3-6.6.69-9.7,1.19l-.14,0-5.4,14.9H96.8c-.2.57-1.3,3.58-1.39,3.86-4.79.39-9.74.57-14.78.57s-9.95-.18-14.49-.59C63,20.35,60,20,57.31,19.53l-.2-.05-2.24,6.19.3,0c2.73.48,5.72.89,8.83,1.19,4.63.43,9.51.66,14.51.66s10.06-.23,15-.66c3.33-.3,6.59-.71,9.7-1.19l.16,0,5.4-14.9H70c.23-.57,1.33-3.58,1.42-3.85,4.72-.39,9.69-.57,14.76-.57s10,.18,14.51.57c3.19.27,6.16.66,8.81,1.11l.22,0L112,1.94l-.3-.07C108.94,1.39,106,1,102.85.68" fill="#fff"/></svg>