<svg id="Layer_1" data-name="Layer 1" xmlns="http://www.w3.org/2000/svg" viewBox="0 0 112 68"><title>PlayStation_Vita_SVG</title><path d="M112,67.975h-6.5a.548.548,0,0,1-.6-.4c-1-1.8-2-3.7-3-5.5a.569.569,0,0,0-.7-.4H83.1a.67.67,0,0,0-.7.4c-.9,1.8-1.9,3.6-2.8,5.4a.715.715,0,0,1-.9.5H75c.1-.2.1-.3.2-.4,4.5-8.6,9.1-17.1,13.7-25.7a11.526,11.526,0,0,1,1.9-2.6,3.72,3.72,0,0,1,5.4-.2l.4.4a13.029,13.029,0,0,1,1,1.5c4.7,8.8,9.4,17.7,14.1,26.5A1.332,1.332,0,0,1,112,67.975Zm-12.3-10c-.1-.2-.2-.3-.3-.5-1.9-3.6-3.9-7.2-5.8-10.8-.3-.6-.7-1.2-1.5-1.2s-1.1.6-1.4,1.2L85,57.475c-.1.1-.1.3-.2.5Z" fill="#fff"/><path d="M23.5,3.6V0H47.6a11.933,11.933,0,0,1,3.7.6A6.744,6.744,0,0,1,56,6.7a11.23,11.23,0,0,1-.2,4.1,6.8,6.8,0,0,1-6,5.4,19.419,19.419,0,0,1-2.4.2H33.5a3.361,3.361,0,0,0-3.7,3v.4c-.1,1.5,0,3.1-.1,4.7s0,3.3,0,5v.2H23.6v-.4c0-2.9-.1-5.7,0-8.6a9.191,9.191,0,0,1,.6-3.3A6.873,6.873,0,0,1,31,12.5H45.3a9.079,9.079,0,0,0,2.3-.3,2.869,2.869,0,0,0,2.2-2.5,6.171,6.171,0,0,0-.1-3.3,3.606,3.606,0,0,0-3.8-2.7h-22Z" fill="#fff"/><path d="M36.9,38.075l-.4.8c-4.4,8.3-8.9,16.7-13.3,25a15.352,15.352,0,0,1-2.1,2.9,3.775,3.775,0,0,1-5.3.2l-.3-.3a6.57,6.57,0,0,1-1.2-1.7L.2,38.575c-.1-.1-.1-.2-.2-.4H6.4a.891.891,0,0,1,.8.5c3.7,6.9,7.4,13.8,11.2,20.7l.1.1a1.77,1.77,0,0,0,1.4,1.1c.7,0,1.1-.5,1.4-1.1l7.7-14.6c1.1-2.1,2.3-4.3,3.4-6.4a.569.569,0,0,1,.7-.4Z" fill="#fff"/><path d="M88.6,0V3.7H88c-3.5,0-7,.1-10.5,0-3-.1-3.8,1.7-4,3.8a22.552,22.552,0,0,0,0,2.6V21.5a14.873,14.873,0,0,1-.5,3.6c-.8,2.7-2.8,4-5.5,4.4a19.419,19.419,0,0,1-2.4.2H51.8V26h11c2.8,0,4.4-1.5,4.4-4.4V7.3A7.754,7.754,0,0,1,69,2.2,6.712,6.712,0,0,1,73.6,0h15Z" fill="#fff"/><path d="M63,41.675H51.3v-3.6H81v3.6H69.2v26H63Z" fill="#fff"/><path d="M47.1,67.875H40.9v-29.6h6.2Z" fill="#fff"/><path d="M99.7,57.975H84.8c.1-.2.1-.3.2-.5l5.7-10.8c.3-.6.7-1.2,1.4-1.2a1.846,1.846,0,0,1,1.5,1.2c1.9,3.6,3.9,7.2,5.8,10.8A1.069,1.069,0,0,1,99.7,57.975Z" fill="none"/></svg>