<svg id="Layer_1" data-name="Layer 1" xmlns="http://www.w3.org/2000/svg" viewBox="0 0 112 80"><title>PlayStation_4_SVG</title><path d="M85.909,26.149V9.49c0-3.4,1.59-5.84,5-5.84h20.869A.26.26,0,0,0,112,3.4V.08A.268.268,0,0,0,112,0H86.459c-5.53.7-8.23,4.56-8.23,9.49V26.149c0,3.39-1.63,5.83-5,5.83h-22a.24.24,0,0,0-.25.229v3.34a.29.29,0,0,0,.19.27h25c6.52-.17,9.73-4.329,9.73-9.669ZM.172,35.818H7.5a.279.279,0,0,0,.18-.27V24.929c0-3.4,1.92-5.75,4.72-5.75H42.581c6.8,0,10.1-4.2,10.1-9.7C52.68,4.56,50,.7,44.45,0H0V3.4a.221.221,0,0,0,.186.25.229.229,0,0,0,.064,0H40c3.379,0,5,2.44,5,5.83s-1.59,5.839-5,5.839H8.562c-4.89,0-8.56,4.15-8.56,9.61V35.548A.261.261,0,0,0,.172,35.818Z" fill="#fff"/><path d="M36.281,72.316h33.6a.269.269,0,0,0,.25-.25V51.377a.381.381,0,0,0-.62-.34L36.071,71.726c-.21.13-.3.25-.25.42S36,72.316,36.281,72.316Z" fill="none"/><path d="M29.811,76.18H69.879a.19.19,0,0,1,.21.168v3.4a.24.24,0,0,0,.23.25h7.24a.24.24,0,0,0,.25-.229V76.43a.28.28,0,0,1,.25-.25h7.18a.24.24,0,0,0,.25-.229V72.57a.242.242,0,0,0-.23-.25h-7.2a.279.279,0,0,1-.25-.25V47.852c0-2-.73-3.23-2-3.65h-2.1a7.972,7.972,0,0,0-2.11.93L28.471,71.77c-1.67,1-2.25,2.23-1.83,3.11S27.931,76.18,29.811,76.18Zm6.26-4.45L69.509,51a.38.38,0,0,1,.63.34V72.07a.269.269,0,0,1-.25.25H36.281c-.29,0-.42-.08-.46-.17S35.821,71.86,36.071,71.73Z" fill="#fff"/></svg>