<svg id="Layer_1" data-name="Layer 1" xmlns="http://www.w3.org/2000/svg" viewBox="0 0 112 58"><title>PlayStation_2_SVG</title><g id="layer1"><path id="path3003" d="M0,8.66V56.39H7.45V13.24h6.9s5,0,6.72,2.24c1.46,1.9,1.73,5.35,1.73,7.68,0,2.5-.16,6.36-1,7.77-1.27,2.15-3.35,2.59-5.26,2.59H12v4.23h6.54S24.44,38,27,35.42c3.11-3.17,3.91-7.42,3.91-13.12,0-5.18-1.88-10.4-5.72-12.18C22,8.66,16.26,8.66,16.26,8.66H0" fill="#fff"/><path id="path3009" d="M38.67,56.11V51.6s7.88.31,9.52.31c3.63,0,5.45-.78,6.81-2.25.81-.87,1.54-4.77,1.54-6.15a19.2,19.2,0,0,0-.81-5.6A4.43,4.43,0,0,0,52,35.43c-1.36-.12-3.46-.4-5.91-.51a9.52,9.52,0,0,1-6.81-3.25c-1.08-1.29-2.54-3.23-2.54-9.18s1.54-9.3,3.09-10.85a10.38,10.38,0,0,1,5.54-2.55,42.12,42.12,0,0,1,5.27-.36L61.06,9v4.51s-7.6-.3-9.24-.3c-3.63,0-4.72.77-6.09,2.24a8.79,8.79,0,0,0-1.43,4.65,17.49,17.49,0,0,0,.71,5.4A4.4,4.4,0,0,0,48.73,28c1.36.11,3.46.38,5.91.5a9.47,9.47,0,0,1,6.81,3.24c1.09,1.3,2.55,4,2.55,10S62.45,52,60.91,53.5a10.45,10.45,0,0,1-5.54,2.55,43,43,0,0,1-5.27.37l-11.43-.31" fill="#fff"/><path id="path3031" d="M112,14.83c.1,5.49-.17,8.39-2,11.16-1.64,2.41-4.86,4.63-12,4.63l-8.85-.27c-1.39,0-5,.43-6.72,2.28-1.48,1.56-1.57,2.75-1.73,7V51.94h30.07V58H77.88l-1.57,0a4.3,4.3,0,0,1-4.44-4.55v-9.2c.15-10.77.93-12.32,3.27-15.14,1.62-1.94,5.41-4.13,10-4.36a48.76,48.76,0,0,1,5-.08c1.77.06,3.5.1,4.28.11,4.09,0,5.59-.7,6.71-2.17,1.28-1.66,1.95-3.61,1.95-6.8,0-3-.6-5.82-1.74-7.13-1.39-1.5-2.7-2.52-6.55-2.52-9.72,0-21.07.22-21.07.22V.65S84.86.17,96.18,0c7-.1,10.92,1.76,12.9,4.33s2.82,5.24,2.9,10.5" fill="#fff"/></g></svg>