<svg id="Layer_1" data-name="Layer 1" xmlns="http://www.w3.org/2000/svg" viewBox="0 0 112 84"><title>PlayStation_4_SVG</title><path d="M85.91,26.15V9.49c0-3.4,1.59-5.84,5-5.84h20.87A.26.26,0,0,0,112,3.4V.08A.31.31,0,0,0,112,0H86.46c-5.53.7-8.23,4.56-8.23,9.49V26.15c0,3.39-1.63,5.83-5,5.83h-22a.24.24,0,0,0-.25.25v3.32a.29.29,0,0,0,.19.27h25c6.52-.17,9.73-4.33,9.73-9.67ZM.17,35.82H7.5a.28.28,0,0,0,.18-.27V24.93c0-3.4,1.92-5.75,4.72-5.75H42.58c6.8,0,10.1-4.2,10.1-9.7C52.68,4.56,50,.7,44.45,0H0S0,.05,0,.08V3.4a.22.22,0,0,0,.25.25H40c3.38,0,5,2.44,5,5.83s-1.59,5.84-5,5.84H8.56C3.67,15.32,0,19.47,0,24.93V35.55a.26.26,0,0,0,.17.27Z" fill="#fff"/><path d="M36.28,76.32h33.6a.27.27,0,0,0,.25-.25V55.38a.38.38,0,0,0-.62-.34L36.07,75.73c-.21.13-.3.25-.25.42S36,76.32,36.28,76.32Z" fill="none"/><path d="M29.81,80.18H69.88a.19.19,0,0,1,.21.17v3.4a.24.24,0,0,0,.25.25h7.22a.24.24,0,0,0,.25-.25V80.43a.28.28,0,0,1,.25-.25h7.18a.24.24,0,0,0,.25-.25V76.57a.24.24,0,0,0-.25-.25H78.06a.28.28,0,0,1-.25-.25V51.85c0-2-.73-3.23-2-3.65h-2.1a8,8,0,0,0-2.11.93L28.47,75.77c-1.67,1-2.25,2.23-1.83,3.11s1.29,1.3,3.17,1.3Zm6.26-4.45L69.51,55a.38.38,0,0,1,.63.34V76.07a.27.27,0,0,1-.25.25H36.28c-.29,0-.42-.08-.46-.17s0-.29.25-.42Z" fill="#fff"/></svg>