<svg id="Layer_1" data-name="Layer 1" xmlns="http://www.w3.org/2000/svg" viewBox="0 0 112 58"><title>PlayStation_2_SVG</title><g id="layer1"><path id="path3003" d="M0,8.663V56.388H7.449V13.242h6.9s5,0,6.719,2.24c1.459,1.9,1.729,5.35,1.729,7.679,0,2.5-.16,6.36-1,7.769-1.269,2.15-3.349,2.59-5.259,2.59H12v4.23h6.539s5.9.25,8.459-2.33C30.105,32.25,30.905,28,30.905,22.3c0-5.179-1.88-10.4-5.719-12.178-3.19-1.46-8.929-1.46-8.929-1.46H0" fill="#fff"/><path id="path3009" d="M38.664,56.108V51.6s7.879.31,9.518.31c3.63,0,5.449-.78,6.809-2.25.81-.87,1.54-4.769,1.54-6.149a19.2,19.2,0,0,0-.81-5.6,4.428,4.428,0,0,0-3.729-2.48c-1.36-.12-3.46-.4-5.909-.51a9.517,9.517,0,0,1-6.809-3.25c-1.08-1.29-2.54-3.229-2.54-9.179s1.54-9.3,3.09-10.848a10.372,10.372,0,0,1,5.539-2.55,42.2,42.2,0,0,1,5.269-.36L61.05,9v4.509s-7.6-.3-9.238-.3c-3.63,0-4.72.77-6.089,2.24a8.79,8.79,0,0,0-1.43,4.65A17.487,17.487,0,0,0,45,25.5,4.4,4.4,0,0,0,48.722,28c1.36.11,3.46.38,5.909.5A9.466,9.466,0,0,1,61.44,31.74c1.09,1.3,2.55,4,2.55,10S62.44,52,60.9,53.5a10.453,10.453,0,0,1-5.539,2.55,43.19,43.19,0,0,1-5.269.37l-11.428-.31" fill="#fff"/><path id="path3031" d="M111.982,14.832c.1,5.49-.17,8.389-2,11.159-1.639,2.41-4.859,4.629-12,4.629l-8.848-.27c-1.39,0-5,.43-6.719,2.28-1.48,1.56-1.57,2.75-1.73,7V51.938h30.065V58H76.3a4.3,4.3,0,0,1-4.444-4.149c0-.133,0-.267,0-.4v-9.2c.15-10.769.93-12.319,3.27-15.138,1.62-1.94,5.409-4.13,10-4.36a48.755,48.755,0,0,1,5-.08c1.77.06,3.5.1,4.28.11,4.089,0,5.589-.7,6.709-2.17,1.28-1.659,1.949-3.609,1.949-6.8,0-3-.6-5.819-1.739-7.129-1.39-1.5-2.7-2.52-6.549-2.52-9.719,0-21.067.22-21.067.22V.654S84.846.174,96.165,0c7-.1,10.918,1.76,12.9,4.329s2.82,5.24,2.9,10.5" fill="#fff"/></g></svg>