<svg id="svg9591" xmlns="http://www.w3.org/2000/svg" viewBox="0 0 112 89.6"><defs><style>.cls-1{fill:#326db3;}.cls-2{fill:#1565c0;}.cls-3{fill:#f3c202;}.cls-4{fill:#00aa9e;}.cls-5{fill:#de0029;}</style></defs><title>PlayStation_SVG</title><g id="layer1"><g id="g9659"><path id="path9593" class="cls-1" d="M102.57,58.87a53.67,53.67,0,0,0-19.71-2.69,63.45,63.45,0,0,0-18,3.14l-2.16.78,16.36,5.11,4.4-1.58a25.83,25.83,0,0,1,4.18-1,16.61,16.61,0,0,1,5.54.3c1.55.37,2.38.74,2.69,1.48.28.9-.76,1.65-3,2.4l-4,1.52,15.58,4.87c5.37-2.15,7.81-4.44,7.53-7.29s-3.45-5.06-9.41-7Z"/><path id="path9595" class="cls-2" d="M50.4,56.26V47.6L36.74,52Z"/><path id="path9597" class="cls-3" d="M41.22,67.74,37.39,69.1,33.9,70.36l-3.74,1.48a33.24,33.24,0,0,1-6.27,1.21,19.55,19.55,0,0,1-6-.76c-1.25-.46-1.5-1.48-.74-2.23a19,19,0,0,1,3-1.51l4-1.47,7.17-2.42L15.2,59.6l-3,1.06L8.51,62.15C2.85,64.54-.15,67.08,0,69.32.3,72.59,4,75,10.76,76.79A64.26,64.26,0,0,0,37.4,78.25a178.84,178.84,0,0,0,19.87-5.49Z"/><path id="path9599" class="cls-3" d="M68.09,76.14,60.5,79V89.6l14.9-5.8,8-2.86Z"/><path id="path9601" class="cls-4" d="M50.4,56.26,36.74,52l-2.84.92L15.2,59.61l16.16,5,19-6.42Z"/><path id="path9603" class="cls-4" d="M79.05,65.22,62.69,60.1,41.22,67.74l16.06,5c2.34-.75,4.86-1.6,7.57-2.57,3-1,12.33-4.31,12.33-4.31Z"/><path id="path9605" class="cls-4" d="M88.87,68.29l-1.53.58L68.09,76.14l15.34,4.8,17.2-6.1,3-1.33c.3-.11.56-.23.84-.34Z"/><path id="path9607" class="cls-5" d="M84.57,17.71C81.42,13.46,75.91,10,67.73,7.16A261.48,261.48,0,0,0,42,0V83.93L60.5,89.6V19.76c0-1.89.15-3.16.94-4A1.93,1.93,0,0,1,64.12,15c2.67.77,3.92,3.15,3.92,7.07V50.76c6,2.83,11.35,3.14,15.27.16,4.09-2.84,6.29-7.87,6.29-15.42C89.6,27.63,88,21.66,84.57,17.71Z"/></g></g></svg>