<svg id="Layer_1" data-name="Layer 1" xmlns="http://www.w3.org/2000/svg" viewBox="0 0 112 68.32"><title>PlayStation_Vita_SVG</title><path d="M112,68.29l-.4,0h-6.06a.62.62,0,0,1-.64-.39c-1-1.84-2-3.67-3-5.51a.69.69,0,0,0-.72-.42H83.13a.67.67,0,0,0-.71.43c-.92,1.8-1.88,3.58-2.78,5.38a.81.81,0,0,1-.88.51c-1.21,0-2.42,0-3.69,0,.07-.17.12-.31.19-.44Q82.07,55,88.91,42.18A11.65,11.65,0,0,1,90.8,39.6a3.84,3.84,0,0,1,5.84.2,7.76,7.76,0,0,1,1,1.54q7.08,13.26,14.13,26.55C111.88,68,111.93,68.13,112,68.29Zm-12.3-10c-.11-.21-.17-.35-.25-.49Q96.56,52.4,93.65,47c-.34-.62-.73-1.18-1.5-1.18S91,46.42,90.72,47L85,57.81c-.07.13-.13.27-.21.45Z" fill="#fff"/><path d="M23.48,3.64V0L24,0C31.84,0,39.7,0,47.56,0a11.94,11.94,0,0,1,3.65.61A6.76,6.76,0,0,1,55.9,6.72a11.44,11.44,0,0,1-.23,4.12,6.83,6.83,0,0,1-6,5.43,15.11,15.11,0,0,1-2.42.21c-4.65,0-9.3,0-13.94,0a3.34,3.34,0,0,0-3.69,3.41c-.1,1.55-.05,3.11-.06,4.66s0,3.32,0,5c0,.05,0,.1,0,.19H23.46v-.41c0-2.87-.06-5.74,0-8.6a11.5,11.5,0,0,1,.59-3.34,7,7,0,0,1,6.84-4.9c4.75,0,9.5,0,14.26,0a8.92,8.92,0,0,0,2.29-.33A3,3,0,0,0,49.69,9.7a6.38,6.38,0,0,0-.07-3.33,3.65,3.65,0,0,0-3.76-2.72q-11,0-22,0Z" fill="#fff"/><path d="M36.91,38.42l-.41.79q-6.63,12.49-13.29,25a13.48,13.48,0,0,1-2.07,2.89,3.78,3.78,0,0,1-5.66-.1,8.07,8.07,0,0,1-1.22-1.73Q7.23,52.08.2,38.86c-.06-.12-.11-.24-.2-.44H.56c1.94,0,3.87,0,5.81,0a.77.77,0,0,1,.79.49q5.58,10.37,11.17,20.73l.07.14a1.64,1.64,0,0,0,1.41,1.07c.73,0,1.09-.5,1.39-1.07L29,45.24q1.71-3.19,3.41-6.4a.68.68,0,0,1,.72-.42C34.32,38.44,35.56,38.42,36.91,38.42Z" fill="#fff"/><path d="M88.56,0V3.67H88c-3.51,0-7,.06-10.52,0-3-.07-3.83,1.65-4,3.84-.06.86,0,1.73,0,2.59,0,3.8,0,7.6,0,11.4a14.25,14.25,0,0,1-.49,3.63c-.78,2.72-2.85,4-5.51,4.43a15.1,15.1,0,0,1-2.42.2c-4.27,0-8.54,0-12.81,0l-.49,0V26.05h11c2.84,0,4.37-1.49,4.4-4.37,0-2.62,0-5.25,0-7.87,0-2.13,0-4.26,0-6.38A7.62,7.62,0,0,1,69,2.34,7.23,7.23,0,0,1,73.6.12,14.4,14.4,0,0,1,75.46,0h13.1Z" fill="#fff"/><path d="M63,42H51.25V38.37H80.94V42H69.18V68H63Z" fill="#fff"/><path d="M47.14,68.19H40.91V38.56h6.23Z" fill="#fff"/><path d="M99.7,58.26H84.77c.08-.18.14-.32.21-.45L90.72,47c.31-.6.66-1.19,1.43-1.18s1.16.56,1.5,1.18q2.89,5.38,5.8,10.75C99.53,57.91,99.59,58.05,99.7,58.26Z" fill="#fff"/></svg>