<?xml version="1.0" encoding="utf-8"?>
<!-- Generator: Adobe Illustrator 22.1.0, SVG Export Plug-In . SVG Version: 6.00 Build 0)  -->
<svg version="1.1" id="Layer_1" xmlns="http://www.w3.org/2000/svg" xmlns:xlink="http://www.w3.org/1999/xlink" x="0px" y="0px"
	 viewBox="0 0 112 68.3" style="enable-background:new 0 0 112 68.3;" xml:space="preserve">
<style type="text/css">
	.st0{fill:#FFFFFF;}
	.st1{fill:none;}
</style>
<title>PlayStation_Vita_SVG</title>
<path class="st0" d="M112,68.3h-0.4h-6.1c-0.3,0-0.5-0.1-0.6-0.4c-1-1.8-2-3.7-3-5.5c-0.1-0.3-0.4-0.5-0.7-0.4H83.1
	c-0.3,0-0.6,0.1-0.7,0.4c-0.9,1.8-1.9,3.6-2.8,5.4c-0.1,0.4-0.5,0.6-0.9,0.5c-1.2,0-2.4,0-3.7,0c0.1-0.2,0.1-0.3,0.2-0.4
	c4.5-8.6,9.1-17.1,13.7-25.7c0.5-0.9,1.1-1.8,1.9-2.6c1.4-1.6,3.9-1.7,5.4-0.2c0.1,0.1,0.3,0.3,0.4,0.4c0.4,0.5,0.7,1,1,1.5
	c4.7,8.8,9.4,17.7,14.1,26.5C111.9,68,111.9,68.1,112,68.3z M99.7,58.3c-0.1-0.2-0.2-0.3-0.3-0.5c-1.9-3.6-3.9-7.2-5.8-10.8
	c-0.3-0.6-0.7-1.2-1.5-1.2S91,46.4,90.7,47L85,57.8c-0.1,0.1-0.1,0.3-0.2,0.5L99.7,58.3z"/>
<path class="st0" d="M23.5,3.6V0H24c7.8,0,15.7,0,23.6,0c1.2,0,2.5,0.2,3.7,0.6c2.7,0.9,4.6,3.3,4.7,6.1c0.2,1.4,0.1,2.8-0.2,4.1
	c-0.6,2.9-3,5.1-6,5.4c-0.8,0.1-1.6,0.2-2.4,0.2c-4.7,0-9.3,0-13.9,0c-1.8-0.2-3.5,1.1-3.7,3c0,0.1,0,0.3,0,0.4
	c-0.1,1.5,0,3.1-0.1,4.7s0,3.3,0,5c0,0,0,0.1,0,0.2h-6.1v-0.4c0-2.9-0.1-5.7,0-8.6c0-1.1,0.2-2.3,0.6-3.3c0.9-3,3.7-5,6.8-4.9
	c4.8,0,9.5,0,14.3,0c0.8,0,1.5-0.1,2.3-0.3c1.2-0.3,2.1-1.3,2.2-2.5c0.3-1.1,0.2-2.2-0.1-3.3c-0.4-1.7-2-2.8-3.8-2.7
	c-7.3,0-14.7,0-22,0L23.5,3.6z"/>
<path class="st0" d="M36.9,38.4l-0.4,0.8c-4.4,8.3-8.9,16.7-13.3,25c-0.6,1.1-1.3,2-2.1,2.9c-1.4,1.5-3.8,1.6-5.3,0.2
	c-0.1-0.1-0.2-0.2-0.3-0.3c-0.5-0.5-0.9-1.1-1.2-1.7C9.6,56.5,4.9,47.7,0.2,38.9c-0.1-0.1-0.1-0.2-0.2-0.4h0.6c1.9,0,3.9,0,5.8,0
	c0.3,0,0.7,0.2,0.8,0.5c3.7,6.9,7.4,13.8,11.2,20.7l0.1,0.1c0.2,0.6,0.8,1,1.4,1.1c0.7,0,1.1-0.5,1.4-1.1L29,45.2
	c1.1-2.1,2.3-4.3,3.4-6.4c0.1-0.3,0.4-0.5,0.7-0.4C34.3,38.4,35.6,38.4,36.9,38.4z"/>
<path class="st0" d="M88.6,0v3.7H88c-3.5,0-7,0.1-10.5,0c-3-0.1-3.8,1.7-4,3.8c-0.1,0.9,0,1.7,0,2.6c0,3.8,0,7.6,0,11.4
	c0,1.2-0.2,2.4-0.5,3.6c-0.8,2.7-2.8,4-5.5,4.4c-0.8,0.1-1.6,0.2-2.4,0.2c-4.3,0-8.5,0-12.8,0h-0.5V26h11c2.8,0,4.4-1.5,4.4-4.4
	c0-2.6,0-5.3,0-7.9c0-2.1,0-4.3,0-6.4c0-1.9,0.6-3.7,1.8-5.1c1.2-1.3,2.8-2.1,4.6-2.2C74.2,0,74.8,0,75.5,0H88.6z"/>
<path class="st0" d="M63,42H51.3v-3.6h29.7V42H69.2v26H63V42z"/>
<path class="st0" d="M47.1,68.2h-6.2V38.6h6.2V68.2z"/>
<path class="st1" d="M99.7,58.3H84.8c0.1-0.2,0.1-0.3,0.2-0.5L90.7,47c0.3-0.6,0.7-1.2,1.4-1.2s1.2,0.6,1.5,1.2
	c1.9,3.6,3.9,7.2,5.8,10.8C99.5,57.9,99.6,58,99.7,58.3z"/>
</svg>
