<svg id="svg2479" xmlns="http://www.w3.org/2000/svg" viewBox="0 0 112 94"><title>Playstation_3_SVG</title><path id="path3568" d="M84.26,55.48A78.663,78.663,0,0,0,75.43,53.7a100.857,100.857,0,0,0-14.51-1.02,111.449,111.449,0,0,0-15,1.02,96.157,96.157,0,0,0-9.69,1.785h-.14l-2.28,9.345.46-.105c3-.675,6.2-1.26,9.6-1.68a126.921,126.921,0,0,1,14.94-.855,115.677,115.677,0,0,1,14.17.825l-1.41,5.82H42.07l-2.17,9H69.38c-.2.855-1.3,5.37-1.41,5.79a125.091,125.091,0,0,1-14.76.855,109.583,109.583,0,0,1-14.52-.9,70.1,70.1,0,0,1-8.8-1.635h-.21l-2.23,9.285h.29a79.585,79.585,0,0,0,8.83,1.785A105.645,105.645,0,0,0,51.08,94a116.565,116.565,0,0,0,15-.99c3.33-.45,6.59-1.065,9.69-1.785h.16L84.53,55.6l-.29-.105" fill="#fff"/><path id="path3586" d="M45.07,15.54c-4.37.405-9.78.645-16.08.645H16c.2-.855,1.3-5.37,1.4-5.775a120.9,120.9,0,0,1,14.76-.855,116.517,116.517,0,0,1,14.17.81C46.13,11.16,45.17,15.165,45.07,15.54ZM57.63,2.805A86.761,86.761,0,0,0,48.79,1.02,100.754,100.754,0,0,0,34.28,0c-5.01,0-10.61.585-14.4.96h-.6c-3.05.315-8.91,1.1-12.47,1.815l-2.13,8.9c1-.105,2.3-.21,2.66-.21L0,41.79H9.79s3.9-16.125,4-16.6H26.92c20.32,0,25.94-2.685,26.17-2.685l.11-.075,4.73-19.5-.3-.1" fill="#fff"/><path id="path3550" d="M102.85,1.02A100.55,100.55,0,0,0,88.34,0a111.115,111.115,0,0,0-15,1.02,96.358,96.358,0,0,0-9.7,1.785H63.5l-5.4,22.35H96.8c-.2.855-1.3,5.37-1.39,5.79a122.177,122.177,0,0,1-14.78.855,109.082,109.082,0,0,1-14.49-.885,68.7,68.7,0,0,1-8.83-1.62l-.2-.075-2.24,9.285h.3A79.585,79.585,0,0,0,64,40.29a105.536,105.536,0,0,0,14.51.99,116.447,116.447,0,0,0,15-.99c3.33-.45,6.59-1.065,9.7-1.785h.16l5.4-22.35H70c.23-.855,1.33-5.37,1.42-5.775a120.664,120.664,0,0,1,14.76-.855,114.184,114.184,0,0,1,14.51.855,73.247,73.247,0,0,1,8.81,1.665h.22L112,2.91l-.3-.1a86.97,86.97,0,0,0-8.85-1.785" fill="#fff"/></svg>