<svg id="svg2" xmlns="http://www.w3.org/2000/svg" viewBox="0 0 112 112"><defs><style>.cls-1{fill:#fff;}.cls-2{fill:#dfdfdf;}.cls-3{fill:#ff1c1c;}.cls-4{fill:#df1818;}.cls-5{fill:#f1d941;}</style></defs><title>Pokemon_mini_SVG</title><g id="layer1"><path d="M22.76,112a7,7,0,0,1-3.36-.86A6.3,6.3,0,0,1,17,108.73,6.32,6.32,0,0,1,11.33,112H6a6.5,6.5,0,0,1-6-6.55V80.83A8.06,8.06,0,0,1,7.62,73l.18,0H42.24c4,0,8.12,2.75,8.12,8V105.4a6.77,6.77,0,0,1-1.8,4.67A6.37,6.37,0,0,1,43.91,112H38.84a6.62,6.62,0,0,1-5.68-3.46A6.35,6.35,0,0,1,27.48,112Z"/><path id="path3775" d="M8,77.83h34.2s3.3-.12,3.3,3.12v24.49a1.57,1.57,0,0,1-1.58,1.69H39a1.66,1.66,0,0,1-1.65-1.69V90.29s-.15-1.93-1.58-1.93H30.78s-1.65-.19-1.65,1.93v15.15s-.22,1.69-1.65,1.69H22.81A1.64,1.64,0,0,1,21,105.44V90.29s.5-1.93-1.73-1.93H14.63S13,88.17,13,90.29v15.15a1.64,1.64,0,0,1-1.65,1.69H6.38a1.64,1.64,0,0,1-1.51-1.69V81A3.25,3.25,0,0,1,8,77.83Z"/><path d="M55,112a6.46,6.46,0,0,1-6.39-6.56V93.76a6.47,6.47,0,0,1,6.56-6.22l1.81,0h.91l.34,0h.25A6.27,6.27,0,0,1,64.85,94v11.7l0,.23A6.49,6.49,0,0,1,58.45,112Z"/><path id="path3787" d="M58.4,92.42A1.45,1.45,0,0,1,60,94v11.46s-.16,1.69-1.53,1.69H55.1a1.67,1.67,0,0,1-1.65-1.69V94a1.64,1.64,0,0,1,1.7-1.56C56.77,92.42,58.3,92.47,58.4,92.42Z"/><path d="M55.14,92.37a7.08,7.08,0,0,1-3.09-.74,6.34,6.34,0,0,1-3.47-5.77V81a6.75,6.75,0,0,1,1.9-4.61,6.6,6.6,0,0,1,4.7-1.88h3.25a6.74,6.74,0,0,1,3.17.82A6.33,6.33,0,0,1,64.85,81v4.81a6.52,6.52,0,0,1-1.62,4.56,6.33,6.33,0,0,1-4.78,2.05H55.14Z"/><path id="path3789" d="M55.15,87.5a1.62,1.62,0,0,1-1.7-1.64V81a1.62,1.62,0,0,1,1.73-1.62h3.24A1.52,1.52,0,0,1,60,81v4.91a1.45,1.45,0,0,1-1.53,1.64C56.75,87.5,55.2,87.48,55.15,87.5Z"/><path d="M86,112a6.41,6.41,0,0,1-4.74-2,6.05,6.05,0,0,1-1-1.38A6.76,6.76,0,0,1,74.81,112h-5a6.48,6.48,0,0,1-6.54-6.42L62.8,91.65l.46.54c0-1.72,0-3.32,0-4.6,0-2.31,0-4.16,0-5a8,8,0,0,1,8.13-8.15H87.57a8,8,0,0,1,8.12,8.08v22.9A6.47,6.47,0,0,1,89.6,112H86Z"/><path id="path3807" d="M68.09,105.44a1.69,1.69,0,0,0,1.67,1.69h4.77a1.74,1.74,0,0,0,1.68-1.69V90.29s.05-1.93,1.62-1.93H82.7s1.68-.19,1.68,1.93v15.15A1.56,1.56,0,0,0,86,107.13h3.3a1.63,1.63,0,0,0,1.52-1.69V82.61s0-3.28-3.25-3.28H71.39s-3.3,0-3.3,3.28S68.24,105.62,68.09,105.44Z"/><path d="M102.11,112a6.46,6.46,0,0,1-6.38-6.56V93.76a6.47,6.47,0,0,1,6.56-6.22l1.81,0H105l.35,0h.25A6.28,6.28,0,0,1,112,94v11.69l0,.24a6.48,6.48,0,0,1-6.38,6.09Z"/><path id="path3787-7" d="M105.54,92.42A1.46,1.46,0,0,1,107.13,94v11.46s-.17,1.69-1.54,1.69h-3.35a1.66,1.66,0,0,1-1.64-1.69V94a1.63,1.63,0,0,1,1.69-1.56C103.92,92.42,105.44,92.47,105.54,92.42Z"/><path d="M102.29,92.37a7,7,0,0,1-3.09-.74,6.32,6.32,0,0,1-3.47-5.77V81a6.65,6.65,0,0,1,1.9-4.61,6.55,6.55,0,0,1,4.69-1.88h3.25a6.71,6.71,0,0,1,3.17.82A6.34,6.34,0,0,1,112,81v4.81a6.54,6.54,0,0,1-1.63,4.56,6.33,6.33,0,0,1-4.78,2.05h-3.3Z"/><path id="path3789-4" d="M102.29,87.5a1.62,1.62,0,0,1-1.69-1.64V81a1.61,1.61,0,0,1,1.72-1.62h3.25A1.52,1.52,0,0,1,107.13,81v4.91a1.46,1.46,0,0,1-1.54,1.64C103.89,87.5,102.34,87.48,102.29,87.5Z"/></g><circle cx="56" cy="34.66" r="34.66"/><path class="cls-1" d="M72.46,34.94l-6.28-2.45L64,28.37l-3.39-3.53-5.2-.94-4.83,1.3L46.54,29,45,34.22H25.69c0,.24,0,.48,0,.72a30.32,30.32,0,1,0,60.64,0v-.28Z"/><path class="cls-2" d="M86.32,34.66l-8.16.17c-.46,15.28-10,29.31-22.38,30.22l-1.58.16q.88.06,1.8.06A30.32,30.32,0,0,0,86.32,34.94Z"/><path class="cls-3" d="M46.54,29l4.05-3.75,4.83-1.3,5.2.94L64,28.37l2.17,4.12,6.28,2.45,13.86-.28a30.32,30.32,0,0,0-60.63-.44H45Z"/><path class="cls-4" d="M78.17,34.8v0l8.16-.17a30.32,30.32,0,0,0-28-29.95C70,6.29,78.61,19.6,78.17,34.8Z"/><path d="M68.39,32.27a12.75,12.75,0,0,0-25.08,0H23.54v4.58H43.3a12.75,12.75,0,0,0,25.1,0H89.06V32.27Zm-12.57,11a8.69,8.69,0,1,1,8.59-8.69A8.64,8.64,0,0,1,55.82,43.25Z"/><ellipse cx="56.07" cy="34.63" rx="4.56" ry="4.57"/><g id="layer1-2" data-name="layer1"><path id="path3775-2" data-name="path3775" class="cls-5" d="M8,77.83h34.2s3.3-.12,3.3,3.12v24.49a1.57,1.57,0,0,1-1.58,1.69H39a1.66,1.66,0,0,1-1.65-1.69V90.29s-.15-1.93-1.58-1.93H30.78s-1.65-.19-1.65,1.93v15.15s-.22,1.69-1.65,1.69H22.81A1.64,1.64,0,0,1,21,105.44V90.29s.5-1.93-1.73-1.93H14.63S13,88.17,13,90.29v15.15a1.64,1.64,0,0,1-1.65,1.69H6.38a1.64,1.64,0,0,1-1.51-1.69V81A3.25,3.25,0,0,1,8,77.83Z"/><path id="path3787-2" data-name="path3787" class="cls-5" d="M58.4,92.42A1.45,1.45,0,0,1,60,94v11.46s-.16,1.69-1.53,1.69H55.1a1.67,1.67,0,0,1-1.65-1.69V94a1.64,1.64,0,0,1,1.7-1.56C56.77,92.42,58.3,92.47,58.4,92.42Z"/><path id="path3789-2" data-name="path3789" class="cls-5" d="M55.15,87.5a1.62,1.62,0,0,1-1.7-1.64V81a1.62,1.62,0,0,1,1.73-1.62h3.24A1.52,1.52,0,0,1,60,81v4.91a1.45,1.45,0,0,1-1.53,1.64C56.75,87.5,55.2,87.48,55.15,87.5Z"/><path id="path3807-2" data-name="path3807" class="cls-5" d="M68.09,105.44a1.69,1.69,0,0,0,1.67,1.69h4.77a1.74,1.74,0,0,0,1.68-1.69V90.29s.05-1.93,1.62-1.93H82.7s1.68-.19,1.68,1.93v15.15A1.56,1.56,0,0,0,86,107.13h3.3a1.63,1.63,0,0,0,1.52-1.69V82.61s0-3.28-3.25-3.28H71.39s-3.3,0-3.3,3.28S68.24,105.62,68.09,105.44Z"/><path id="path3787-7-2" data-name="path3787-7" class="cls-5" d="M105.54,92.42A1.46,1.46,0,0,1,107.13,94v11.46s-.17,1.69-1.54,1.69h-3.35a1.66,1.66,0,0,1-1.64-1.69V94a1.63,1.63,0,0,1,1.69-1.56C103.92,92.42,105.44,92.47,105.54,92.42Z"/><path id="path3789-4-2" data-name="path3789-4" class="cls-5" d="M102.29,87.5a1.62,1.62,0,0,1-1.69-1.64V81a1.61,1.61,0,0,1,1.72-1.62h3.25A1.52,1.52,0,0,1,107.13,81v4.91a1.46,1.46,0,0,1-1.54,1.64C103.89,87.5,102.34,87.48,102.29,87.5Z"/></g></svg>