<svg id="svg2" xmlns="http://www.w3.org/2000/svg" viewBox="0 0 112 112"><title>Pokemon_mini_SVG</title><g id="layer1"><path d="M22.759,111.98a6.994,6.994,0,0,1-3.359-.86,6.3,6.3,0,0,1-2.4-2.41,6.321,6.321,0,0,1-5.67,3.27H6a6.5,6.5,0,0,1-6-6.55V80.811a8.06,8.06,0,0,1,7.62-7.829H42.239a7.829,7.829,0,0,1,8.119,8v24.4a6.764,6.764,0,0,1-1.8,4.67,6.364,6.364,0,0,1-4.649,1.93h-5.07a6.618,6.618,0,0,1-5.68-3.46,6.35,6.35,0,0,1-5.68,3.46Z"/><path id="path3775" d="M8,77.812H42.2s3.3-.12,3.3,3.119V105.42a1.57,1.57,0,0,1-1.446,1.686c-.045,0-.09.005-.134,0H39a1.658,1.658,0,0,1-1.65-1.669V90.271s-.15-1.93-1.58-1.93h-4.99s-1.65-.19-1.65,1.93V105.42s-.22,1.69-1.65,1.69h-4.67a1.64,1.64,0,0,1-1.8-1.46,1.6,1.6,0,0,1-.007-.23V90.271s.5-1.93-1.73-1.93H14.63S13,88.151,13,90.271V105.42a1.641,1.641,0,0,1-1.589,1.69c-.021,0-.041,0-.061,0H6.38a1.64,1.64,0,0,1-1.51-1.69V80.981A3.25,3.25,0,0,1,8,77.812Z"/><path d="M55,111.98a6.46,6.46,0,0,1-6.39-6.528V93.741a6.472,6.472,0,0,1,6.56-6.22h3.31a6.27,6.27,0,0,1,6.372,6.166c0,.1,0,.2,0,.294V105.91a6.49,6.49,0,0,1-6.4,6.07Z"/><path id="path3787" d="M58.4,92.4a1.451,1.451,0,0,1,1.6,1.58V105.44s-.16,1.69-1.53,1.69H55.1a1.67,1.67,0,0,1-1.65-1.689h0V93.981a1.64,1.64,0,0,1,1.7-1.56C56.768,92.4,58.3,92.451,58.4,92.4Z"/><path d="M55.138,92.351a7.07,7.07,0,0,1-3.09-.74,6.341,6.341,0,0,1-3.47-5.77v-4.86a6.751,6.751,0,0,1,1.9-4.609,6.6,6.6,0,0,1,4.7-1.88h3.25a6.729,6.729,0,0,1,3.17.82,6.331,6.331,0,0,1,3.25,5.669v4.81a6.519,6.519,0,0,1-1.62,4.56,6.329,6.329,0,0,1-4.78,2.05h-3.31Z"/><path id="path3789" d="M55.148,87.481a1.62,1.62,0,0,1-1.7-1.538c0-.034,0-.068,0-.1v-4.86a1.62,1.62,0,0,1,1.616-1.623c.038,0,.076,0,.114,0h3.24A1.519,1.519,0,0,1,60,80.817a1.493,1.493,0,0,1,0,.164v4.91a1.45,1.45,0,0,1-1.53,1.64C56.748,87.481,55.2,87.461,55.148,87.481Z"/><path d="M86,111.98a6.4,6.4,0,0,1-4.74-2,6.043,6.043,0,0,1-1-1.38,6.758,6.758,0,0,1-5.45,3.38h-5a6.479,6.479,0,0,1-6.54-6.419h0L62.8,91.631l.46.54v-9.6a8,8,0,0,1,7.847-8.149q.141,0,.282,0h16.18A8,8,0,0,1,95.686,82.3q0,.1,0,.2v22.9a6.468,6.468,0,0,1-6.089,6.58Z"/><path id="path3807" d="M68.088,105.42a1.69,1.69,0,0,0,1.67,1.69h4.769a1.739,1.739,0,0,0,1.68-1.69V90.271s.05-1.93,1.62-1.93H82.7s1.68-.19,1.68,1.93V105.42a1.559,1.559,0,0,0,1.423,1.686,1.437,1.437,0,0,0,.2,0h3.3a1.63,1.63,0,0,0,1.52-1.69V82.591a3.2,3.2,0,0,0-3.25-3.279H71.387a3.225,3.225,0,0,0-3.3,3.279C68.088,85.871,68.238,105.6,68.088,105.42Z"/><path d="M102.106,111.98a6.46,6.46,0,0,1-6.38-6.538v-11.7a6.472,6.472,0,0,1,6.56-6.22h3.31a6.28,6.28,0,0,1,6.4,6.156c0,.1,0,.2,0,.3V105.91a6.48,6.48,0,0,1-6.38,6.09Z"/><path id="path3787-7" d="M105.536,92.4a1.459,1.459,0,0,1,1.589,1.318,1.433,1.433,0,0,1,0,.262V105.44s-.17,1.69-1.54,1.69h-3.35a1.658,1.658,0,0,1-1.64-1.679V93.981a1.63,1.63,0,0,1,1.69-1.56C103.916,92.4,105.436,92.451,105.536,92.4Z"/><path d="M102.286,92.351a7.011,7.011,0,0,1-3.09-.74,6.321,6.321,0,0,1-3.47-5.77v-4.86a6.653,6.653,0,0,1,1.9-4.609,6.548,6.548,0,0,1,4.69-1.88h3.25a6.706,6.706,0,0,1,3.17.82A6.339,6.339,0,0,1,112,80.981v4.81a6.538,6.538,0,0,1-1.63,4.56,6.329,6.329,0,0,1-4.78,2.05h-3.3Z"/><path id="path3789-4" d="M102.286,87.481a1.618,1.618,0,0,1-1.688-1.548c0-.031,0-.061,0-.092v-4.86a1.609,1.609,0,0,1,1.6-1.623c.042,0,.083,0,.124,0h3.25a1.52,1.52,0,0,1,1.563,1.476c0,.048,0,.1,0,.143v4.91a1.457,1.457,0,0,1-1.54,1.64C103.886,87.481,102.336,87.461,102.286,87.481Z"/></g><circle cx="55.998" cy="34.66" r="34.66"/><path d="M72.458,34.94l-6.28-2.45L64,28.37l-3.39-3.53-5.2-.94-4.83,1.3L46.538,29,45,34.22H25.688v.72a30.32,30.32,0,0,0,60.64,0v-.28Z" fill="#fff"/><path d="M86.318,34.66l-8.16.17c-.46,15.28-10,29.31-22.38,30.22l-1.58.16q.88.06,1.8.06a30.32,30.32,0,0,0,30.32-30.32v-.29Z" fill="#dfdfdf"/><path d="M46.538,29l4.05-3.75,4.83-1.3,5.2.94L64,28.37l2.17,4.12,6.28,2.45,13.86-.28a30.32,30.32,0,0,0-60.63-.44H45Z" fill="#ff1c1c"/><path d="M78.168,34.8h0l8.16-.17a30.32,30.32,0,0,0-28-29.95C70,6.29,78.608,19.6,78.168,34.8Z" fill="#df1818"/><path d="M68.388,32.27a12.75,12.75,0,0,0-25.08,0H23.538v4.58H43.3a12.75,12.75,0,0,0,25.1,0h20.66V32.27Zm-12.57,11a8.69,8.69,0,1,1,8.59-8.789v.1a8.64,8.64,0,0,1-8.59,8.67Z"/><ellipse cx="56.068" cy="34.63" rx="4.56" ry="4.57"/><g id="layer1-2"><path id="path3775-2" d="M8,77.812H42.2s3.3-.12,3.3,3.119V105.42a1.57,1.57,0,0,1-1.446,1.686c-.045,0-.09.005-.134,0H39a1.658,1.658,0,0,1-1.65-1.669V90.271s-.15-1.93-1.58-1.93h-4.99s-1.65-.19-1.65,1.93V105.42s-.22,1.69-1.65,1.69h-4.67a1.64,1.64,0,0,1-1.8-1.46,1.6,1.6,0,0,1-.007-.23V90.271s.5-1.93-1.73-1.93H14.63S13,88.151,13,90.271V105.42a1.641,1.641,0,0,1-1.589,1.69c-.021,0-.041,0-.061,0H6.38a1.64,1.64,0,0,1-1.51-1.69V80.981A3.25,3.25,0,0,1,8,77.812Z" fill="#f1d941"/><path id="path3787-2" d="M58.4,92.4a1.451,1.451,0,0,1,1.6,1.58V105.44s-.16,1.69-1.53,1.69H55.1a1.67,1.67,0,0,1-1.65-1.689h0V93.981a1.64,1.64,0,0,1,1.7-1.56C56.768,92.4,58.3,92.451,58.4,92.4Z" fill="#f1d941"/><path id="path3789-2" d="M55.148,87.481a1.62,1.62,0,0,1-1.7-1.538c0-.034,0-.068,0-.1v-4.86a1.62,1.62,0,0,1,1.616-1.623c.038,0,.076,0,.114,0h3.24A1.519,1.519,0,0,1,60,80.817a1.493,1.493,0,0,1,0,.164v4.91a1.45,1.45,0,0,1-1.53,1.64C56.748,87.481,55.2,87.461,55.148,87.481Z" fill="#f1d941"/><path id="path3807-2" d="M68.088,105.42a1.69,1.69,0,0,0,1.67,1.69h4.769a1.739,1.739,0,0,0,1.68-1.69V90.271s.05-1.93,1.62-1.93H82.7s1.68-.19,1.68,1.93V105.42a1.559,1.559,0,0,0,1.423,1.686,1.437,1.437,0,0,0,.2,0h3.3a1.63,1.63,0,0,0,1.52-1.69V82.591a3.2,3.2,0,0,0-3.25-3.279H71.387a3.225,3.225,0,0,0-3.3,3.279C68.088,85.871,68.238,105.6,68.088,105.42Z" fill="#f1d941"/><path id="path3787-7-2" d="M105.536,92.4a1.459,1.459,0,0,1,1.589,1.318,1.433,1.433,0,0,1,0,.262V105.44s-.17,1.69-1.54,1.69h-3.35a1.658,1.658,0,0,1-1.64-1.679V93.981a1.63,1.63,0,0,1,1.69-1.56C103.916,92.4,105.436,92.451,105.536,92.4Z" fill="#f1d941"/><path id="path3789-4-2" d="M102.286,87.481a1.618,1.618,0,0,1-1.688-1.548c0-.031,0-.061,0-.092v-4.86a1.609,1.609,0,0,1,1.6-1.623c.042,0,.083,0,.124,0h3.25a1.52,1.52,0,0,1,1.563,1.476c0,.048,0,.1,0,.143v4.91a1.457,1.457,0,0,1-1.54,1.64C103.886,87.481,102.336,87.461,102.286,87.481Z" fill="#f1d941"/></g></svg>