<svg id="svg2" xmlns="http://www.w3.org/2000/svg" viewBox="0 0 112 112"><title>Pokemon_mini_SVG</title><circle cx="55.998" cy="34.66" r="34.66"/><path d="M72.458,34.94l-6.28-2.45L64,28.37l-3.39-3.53-5.2-.94-4.83,1.3L46.538,29,45,34.22H25.688v.72a30.32,30.32,0,0,0,60.64,0v-.28Z" fill="#fff"/><path d="M86.318,34.66l-8.16.17c-.46,15.28-10,29.31-22.38,30.22l-1.58.16q.88.06,1.8.06a30.32,30.32,0,0,0,30.32-30.32h0Z" fill="#dfdfdf"/><path d="M46.538,29l4.05-3.75,4.83-1.3,5.2.94L64,28.37l2.17,4.12,6.28,2.45,13.86-.28a30.32,30.32,0,0,0-60.63-.44H45Z" fill="#ff1c1c"/><path d="M78.168,34.8h0l8.16-.17a30.32,30.32,0,0,0-28-29.95C70,6.29,78.608,19.6,78.168,34.8Z" fill="#df1818"/><path d="M68.388,32.27a12.75,12.75,0,0,0-25.08,0H23.538v4.58H43.3a12.75,12.75,0,0,0,25.1,0H89.06V32.27Zm-12.57,11a8.69,8.69,0,1,1,8.59-8.789v.1a8.656,8.656,0,0,1-8.59,8.689Z"/><ellipse cx="55.718" cy="34.63" rx="4.56" ry="4.57"/><path d="M23.13,111.98a7.116,7.116,0,0,1-3.413-.874,6.409,6.409,0,0,1-2.44-2.45,6.424,6.424,0,0,1-5.762,3.324H6.1A6.607,6.607,0,0,1,0,105.323V80.3a8.192,8.192,0,0,1,7.745-7.957H42.928A7.955,7.955,0,0,1,51.175,80c.006.159.008.318,0,.477v24.8a6.876,6.876,0,0,1-1.829,4.746,6.469,6.469,0,0,1-4.725,1.962H39.472a6.725,6.725,0,0,1-5.772-3.517,6.455,6.455,0,0,1-5.773,3.517Z"/><path id="path3775" d="M8.131,77.255H42.888s3.354-.122,3.354,3.17v24.888a1.6,1.6,0,0,1-1.469,1.713h0a1.234,1.234,0,0,1-.136,0h-5a1.685,1.685,0,0,1-1.677-1.693V89.917s-.152-1.962-1.606-1.962H31.282s-1.677-.193-1.677,1.962v15.4s-.224,1.717-1.677,1.717H23.182a1.666,1.666,0,0,1-1.829-1.483,1.525,1.525,0,0,1-.007-.234v-15.4s.508-1.962-1.759-1.962H14.869s-1.657-.193-1.657,1.962v15.4A1.667,1.667,0,0,1,11.6,107.03H6.484a1.666,1.666,0,0,1-1.534-1.717V80.476A3.3,3.3,0,0,1,8.131,77.255Z"/><path d="M55.9,111.98a6.565,6.565,0,0,1-6.494-6.635v-11.9a6.577,6.577,0,0,1,6.666-6.321h3.364a6.372,6.372,0,0,1,6.476,6.267v12.422a6.6,6.6,0,0,1-6.5,6.169Z"/><path id="path3787" d="M59.352,92.081a1.473,1.473,0,0,1,1.624,1.308,1.4,1.4,0,0,1,0,.3v11.647s-.162,1.718-1.555,1.718H56a1.7,1.7,0,0,1-1.677-1.717h0V93.687A1.667,1.667,0,0,1,56.049,92.1C57.693,92.081,59.25,92.132,59.352,92.081Z"/><path d="M56.037,92.031a7.191,7.191,0,0,1-3.14-.752,6.445,6.445,0,0,1-3.527-5.864V80.476A6.859,6.859,0,0,1,51.3,75.791a6.707,6.707,0,0,1,4.777-1.91h3.3a6.831,6.831,0,0,1,3.221.833,6.433,6.433,0,0,1,3.3,5.762v4.888A6.624,6.624,0,0,1,64.259,90,6.434,6.434,0,0,1,59.4,92.082H56.037Z"/><path id="path3789" d="M56.047,87.081a1.646,1.646,0,0,1-1.728-1.561V80.478a1.648,1.648,0,0,1,1.643-1.65H59.37a1.544,1.544,0,0,1,1.608,1.477v0a1.55,1.55,0,0,1,0,.167v4.99a1.474,1.474,0,0,1-1.264,1.656,1.492,1.492,0,0,1-.291.01C57.673,87.081,56.1,87.061,56.047,87.081Z"/><path d="M87.4,111.98a6.5,6.5,0,0,1-4.817-2.033,6.127,6.127,0,0,1-1.017-1.4,6.869,6.869,0,0,1-5.539,3.435H70.948a6.586,6.586,0,0,1-6.647-6.522v0h0L63.824,91.3l.467.549V82.091a8.13,8.13,0,0,1,7.975-8.281H89a8.13,8.13,0,0,1,8.25,8.006v23.476a6.575,6.575,0,0,1-6.189,6.688Z"/><path id="path3807" d="M69.2,105.313a1.718,1.718,0,0,0,1.7,1.717h4.847a1.767,1.767,0,0,0,1.707-1.717v-15.4s.051-1.962,1.647-1.962h4.952s1.707-.193,1.707,1.962v15.4a1.585,1.585,0,0,0,1.444,1.713h0a1.375,1.375,0,0,0,.2,0h3.354a1.656,1.656,0,0,0,1.544-1.717v-23.2a3.251,3.251,0,0,0-3.17-3.332H72.551a3.279,3.279,0,0,0-3.354,3.2c0,.044,0,.089,0,.133C69.2,85.445,69.35,105.5,69.2,105.313Z"/><path id="path3775-2" d="M8.131,77.255H42.888s3.354-.122,3.354,3.17v24.888a1.6,1.6,0,0,1-1.469,1.713h0a1.234,1.234,0,0,1-.136,0h-5a1.685,1.685,0,0,1-1.677-1.693V89.917s-.152-1.962-1.606-1.962H31.282s-1.677-.193-1.677,1.962v15.4s-.224,1.717-1.677,1.717H23.182a1.666,1.666,0,0,1-1.829-1.483,1.525,1.525,0,0,1-.007-.234v-15.4s.508-1.962-1.759-1.962H14.869s-1.657-.193-1.657,1.962v15.4A1.667,1.667,0,0,1,11.6,107.03H6.484a1.666,1.666,0,0,1-1.534-1.717V80.476A3.3,3.3,0,0,1,8.131,77.255Z" fill="#f1d941"/><path id="path3787-2" d="M59.352,92.081a1.473,1.473,0,0,1,1.624,1.308,1.4,1.4,0,0,1,0,.3v11.647s-.162,1.718-1.555,1.718H56a1.7,1.7,0,0,1-1.677-1.717h0V93.687A1.667,1.667,0,0,1,56.049,92.1C57.693,92.081,59.25,92.132,59.352,92.081Z" fill="#f1d941"/><path id="path3789-2" d="M56.047,87.081a1.646,1.646,0,0,1-1.728-1.561V80.478a1.648,1.648,0,0,1,1.643-1.65H59.37a1.544,1.544,0,0,1,1.608,1.477v0a1.55,1.55,0,0,1,0,.167v4.99a1.474,1.474,0,0,1-1.264,1.656,1.492,1.492,0,0,1-.291.01C57.673,87.081,56.1,87.061,56.047,87.081Z" fill="#f1d941"/><path id="path3807-2" d="M69.2,105.313a1.718,1.718,0,0,0,1.7,1.717h4.847a1.767,1.767,0,0,0,1.707-1.717v-15.4s.051-1.962,1.647-1.962h4.952s1.707-.193,1.707,1.962v15.4a1.585,1.585,0,0,0,1.444,1.713h0a1.375,1.375,0,0,0,.2,0h3.354a1.656,1.656,0,0,0,1.544-1.717v-23.2a3.251,3.251,0,0,0-3.17-3.332H72.551a3.279,3.279,0,0,0-3.354,3.2c0,.044,0,.089,0,.133C69.2,85.445,69.35,105.5,69.2,105.313Z" fill="#f1d941"/><path d="M101.94,111.98a6.566,6.566,0,0,1-6.484-6.645V93.444a6.578,6.578,0,0,1,6.667-6.321h3.364a6.383,6.383,0,0,1,6.505,6.256v12.432A6.587,6.587,0,0,1,105.508,112Z"/><path id="path3787-7" d="M105.426,92.081a1.482,1.482,0,0,1,1.615,1.337v0a1.477,1.477,0,0,1,0,.266v11.647s-.173,1.718-1.565,1.718h-3.4a1.685,1.685,0,0,1-1.667-1.7V93.687a1.656,1.656,0,0,1,1.717-1.585C103.78,92.081,105.325,92.132,105.426,92.081Z"/><path d="M102.123,92.031a7.133,7.133,0,0,1-3.14-.752,6.427,6.427,0,0,1-3.527-5.864V80.476a6.77,6.77,0,0,1,1.931-4.685,6.653,6.653,0,0,1,4.767-1.91h3.3a6.8,6.8,0,0,1,3.221.833A6.444,6.444,0,0,1,112,80.476v4.888A6.646,6.646,0,0,1,110.339,90a6.434,6.434,0,0,1-4.858,2.084h-3.354Z"/><path id="path3789-4" d="M102.123,87.081a1.643,1.643,0,0,1-1.715-1.57V80.476a1.635,1.635,0,0,1,1.621-1.65h3.434a1.544,1.544,0,0,1,1.588,1.5h0v5.135a1.48,1.48,0,0,1-1.279,1.658,1.518,1.518,0,0,1-.286.009C103.749,87.081,102.174,87.061,102.123,87.081Z"/><path id="path3787-7-2" d="M105.426,92.081a1.482,1.482,0,0,1,1.615,1.337v0a1.477,1.477,0,0,1,0,.266v11.647s-.173,1.718-1.565,1.718h-3.4a1.685,1.685,0,0,1-1.667-1.7V93.687a1.656,1.656,0,0,1,1.717-1.585C103.78,92.081,105.325,92.132,105.426,92.081Z" fill="#f1d941"/><path id="path3789-4-2" d="M102.123,87.081a1.643,1.643,0,0,1-1.715-1.57V80.476a1.635,1.635,0,0,1,1.621-1.65h3.434a1.544,1.544,0,0,1,1.588,1.5h0v5.135a1.48,1.48,0,0,1-1.279,1.658,1.518,1.518,0,0,1-.286.009C103.749,87.081,102.174,87.061,102.123,87.081Z" fill="#f1d941"/></svg>