<svg id="Layer_1" data-name="Layer 1" xmlns="http://www.w3.org/2000/svg" viewBox="0 0 215.667 267.375"><title>retro-other</title><path d="M147.473,81.167H-43.8a12,12,0,0,0-9.265,4.373,12,12,0,0,0-2.511,9.933,152.292,152.292,0,0,0,5.085,18.467c5,14.478,10.987,24.18,18.293,29.66A12,12,0,0,0-25,146H129a12,12,0,0,0,7.429-2.576c16.924-13.34,22.108-43.233,22.86-48.164a12.01,12.01,0,0,0-11.816-14.093Zm-.005,24h0Z" transform="translate(56 121.375)"/><path d="M-43.8,93.167S-37.667,124.5-25,134H129c14.167-11.167,18.468-40.833,18.468-40.833Z" transform="translate(56 121.375)" fill="#646465"/><path d="M120.417-50H-16.5A24.029,24.029,0,0,0-40.482-26.924L-55.9,89.424A12.033,12.033,0,0,0-56,91a24.027,24.027,0,0,0,24,24H135.667a24.027,24.027,0,0,0,24-24,12,12,0,0,0-.1-1.551L144.4-26.909A24.03,24.03,0,0,0,120.417-50Z" transform="translate(56 121.375)"/><path d="M120.417-38H-16.5a12.035,12.035,0,0,0-12,12L-44,91a12.035,12.035,0,0,0,12,12H135.667a12.035,12.035,0,0,0,12-12L132.417-26A12.035,12.035,0,0,0,120.417-38Z" transform="translate(56 121.375)" fill="#646465"/><path d="M11.5-37.75H-17.167a5,5,0,0,0-5,5V-25c0,7.269,8.312,12.75,19.334,12.75S16.5-17.731,16.5-25v-7.75a5,5,0,0,0-5-5Z" transform="translate(56 121.375)"/><path d="M-17.167-32.75V-25c0,4.28,6.418,7.75,14.334,7.75S11.5-20.72,11.5-25v-7.75Z" transform="translate(56 121.375)" fill="#fb7355"/><path d="M-2.833-45.5c-11.022,0-19.334,5.481-19.334,12.75S-13.855-20-2.833-20,16.5-25.481,16.5-32.75,8.188-45.5-2.833-45.5Z" transform="translate(56 121.375)"/><ellipse cx="53.167" cy="88.625" rx="14.333" ry="7.75" fill="#fb7355"/><ellipse cx="108.083" cy="151.625" rx="76.917" ry="48.417" fill="#424341"/><path d="M129,30.164l-6.872-.851c0,24.53-31.071,44.562-70.042,44.562S-17.188,53.343-17.188,28.813l-7.637,1.222c0,.072-.008.143-.008.215,0,26.74,34.436,48.417,76.916,48.417S129,56.99,129,30.25C129,30.221,129,30.193,129,30.164Z" transform="translate(56 121.375)" fill="#a5a5a5"/><ellipse cx="108.083" cy="151.625" rx="70.562" ry="44.417" fill="#333132"/><ellipse cx="108.083" cy="147.794" rx="56.583" ry="35.747" fill="#424341"/><path d="M46.333,56.472c-25.6-1.687-45.5-14.5-45.5-30.053a36.7,36.7,0,0,1,.48-3.669l-5.65,1.083A23.149,23.149,0,0,0-4.5,26.419c0,18.517,22.284,33.744,50.833,35.565Z" transform="translate(56 121.375)" fill="#a5a5a5"/><path d="M4.333,21.833l7.72-2.691C17.387,30.642,20,38.833,51.5,42.167v10C12.833,46.333,9.667,38.5,4.333,21.833Z" transform="translate(56 121.375)" fill="#a5a5a5"/><path d="M26,34.667l4.833-8.334A32.755,32.755,0,0,1,21.5,15.667l-9.542,4.291C16.458,28.958,17.5,30.833,26,34.667Z" transform="translate(56 121.375)" fill="#a5a5a5"/><path d="M92.118,5.4c4.005,4.389,6.31,9.49,6.31,14.938C98.428,36.718,77.679,50,52.083,50S5.739,36.718,5.739,20.333c0-5.448,2.305-10.55,6.309-14.938C4.839,10.77.512,17.621.512,25.086c0,17.258,23.09,31.247,51.571,31.247s51.571-13.989,51.571-31.247C103.654,17.621,99.327,10.77,92.118,5.4Z" transform="translate(56 121.375)" fill="#333132"/><path d="M90.54,11.314a17.808,17.808,0,0,1,.127,2.019c0,14.36-17.275,26-38.584,26S13.5,27.693,13.5,13.333a17.808,17.808,0,0,1,.127-2.019A16.241,16.241,0,0,0,11,20c0,13.623,18.394,24.667,41.083,24.667S93.167,33.623,93.167,20A16.249,16.249,0,0,0,90.54,11.314Z" transform="translate(56 121.375)" fill="#333132"/><path d="M78.4,3.388a13.243,13.243,0,0,1,1.929,6.779c0,10.309-12.648,18.666-28.25,18.666s-28.25-8.357-28.25-18.666a13.244,13.244,0,0,1,1.93-6.779c-3.832,3.175-6.1,7.068-6.1,11.279C19.667,25.344,34.18,34,52.083,34S84.5,25.344,84.5,14.667C84.5,10.456,82.236,6.563,78.4,3.388Z" transform="translate(56 121.375)" fill="#333132"/><ellipse cx="108.083" cy="131.625" rx="23.75" ry="13.917" fill="#333132"/><path d="M64.333,4.125H39.875a5,5,0,0,0-5,5V12.75a5,5,0,0,0,1.983,3.987l4.625,3.5A5,5,0,0,0,44.5,21.25H59.333a5,5,0,0,0,2.852-.893l5.041-3.5a5,5,0,0,0,2.149-4.164l-.042-3.625a5,5,0,0,0-5-4.943Z" transform="translate(56 121.375)" fill="#2d2a2b"/><path d="M35.124-106.862a4.982,4.982,0,0,0-1.824.346,5,5,0,0,0-3.175,4.654V7.625a5,5,0,0,0,1.333,3.4l4.75,5.125a5,5,0,0,0,8.667-3.4V-96.737a5,5,0,0,0-1.333-3.4l-4.75-5.125a5,5,0,0,0-3.668-1.6Z" transform="translate(56 121.375)" fill="#2d2a2b"/><path d="M69.126-106.862a5,5,0,0,0-3.668,1.6l-4.75,5.125a5,5,0,0,0-1.333,3.4V12.75a5,5,0,0,0,8.667,3.4l4.75-5.125a5,5,0,0,0,1.333-3.4V-101.862a5,5,0,0,0-3.175-4.654,4.982,4.982,0,0,0-1.824-.346Z" transform="translate(56 121.375)" fill="#2d2a2b"/><path d="M59.333-100.917H44.5a5,5,0,0,0-5,5V16.25a5,5,0,0,0,5,5H59.333a5,5,0,0,0,5-5V-95.917a5,5,0,0,0-5-5Z" transform="translate(56 121.375)" fill="#2d2a2b"/><rect x="86.125" y="12" width="44" height="15.75" fill="#2d2a2b"/><polygon points="120.375 134.125 125.125 129 125.125 19.513 120.375 24.638 120.375 134.125" fill="#353435"/><polygon points="95.875 134.125 91.125 129 91.125 19.513 95.875 24.638 95.875 134.125" fill="#353435"/><rect x="100.5" y="25.458" width="14.833" height="112.167" fill="#353435"/><path d="M61.991-121.375H42.259l-.98.969-8.521,8.427-2.633,2.6,2.633,2.6,8.521,8.427.98.969H61.991l.98-.969,8.521-8.427,2.633-2.6-2.633-2.6-8.521-8.427-.98-.969Z" transform="translate(56 121.375)" fill="#333132"/><polygon points="97.279 0.969 88.758 9.396 86.125 12 88.758 14.604 97.279 23.031 98.259 24 99.604 24 116.646 24 117.991 24 116.646 20.427 99.417 3.573 98.259 0 97.279 0.969" fill="#a5a5a5"/><polygon points="116.646 3.573 99.604 3.573 91.082 12 99.604 20.427 116.646 20.427 125.168 12 116.646 3.573" fill="#424341"/></svg>