<svg id="Layer_1" data-name="Layer 1" xmlns="http://www.w3.org/2000/svg" xmlns:xlink="http://www.w3.org/1999/xlink" viewBox="0 0 173.556 113.28"><defs><radialGradient id="radial-gradient" cx="142.76" cy="186.96" r="23.31" gradientTransform="matrix(1, 0, 0, -1, 0, 238.16)" gradientUnits="userSpaceOnUse"><stop offset="0.43" stop-color="#fff"/><stop offset="0.64" stop-color="#7a7a7a"/><stop offset="0.99"/></radialGradient><radialGradient id="radial-gradient-2" cx="29.96" cy="152.36" r="24.06" gradientTransform="matrix(1, 0, 0, -1, 0, 238.16)" gradientUnits="userSpaceOnUse"><stop offset="0" stop-color="#fff"/><stop offset="1"/></radialGradient><radialGradient id="radial-gradient-3" cx="41.87" cy="202.99" r="55.14" gradientTransform="matrix(1, 0, 0, -1, 0, 238.16)" gradientUnits="userSpaceOnUse"><stop offset="0.81" stop-color="#fff"/><stop offset="1" stop-color="#575757"/></radialGradient><radialGradient id="radial-gradient-4" cx="148.41" cy="241.48" r="30.83" gradientTransform="matrix(1, 0, 0, -1, 0, 116)" xlink:href="#radial-gradient-2"/><linearGradient id="linear-gradient" x1="33.758" y1="195.387" x2="24.358" y2="202.527" gradientTransform="matrix(1, 0, 0, -1, 0, 238.16)" gradientUnits="userSpaceOnUse"><stop offset="0"/><stop offset="1" stop-color="#fff"/></linearGradient><radialGradient id="radial-gradient-5" cx="96.55" cy="205.16" r="50.01" gradientTransform="matrix(1, 0, 0, -1, -0.004, 238.16)" gradientUnits="userSpaceOnUse"><stop offset="0.04" stop-color="#fff"/><stop offset="0.23" stop-color="#6e93e1"/><stop offset="1" stop-color="#363499"/></radialGradient><linearGradient id="linear-gradient-2" x1="93.181" y1="175.86" x2="89.411" y2="188.16" gradientTransform="matrix(1, 0, 0, -1, 0, 238.16)" gradientUnits="userSpaceOnUse"><stop offset="0"/><stop offset="0.99" stop-color="#fff"/></linearGradient></defs><title>Saturn_SVG</title><path d="M152.75,44.34a11.261,11.261,0,0,1,3.7,0v.2c2.3,1.6,3.7,3,3.7,4.8-.9,2.6-3.5,5.8-7.9,9.2-5.1,3.9-12.3,7.9-21.2,12-4.1,1.8-8.1,3.5-12.5,5.3-5.1,1.9-4.2,15.5-.5,14.1,6.7-2.5,12.9-4.9,18.5-7.6,9.7-4.6,17.6-9,23.6-13.6,7.6-5.8,12-11.3,12.7-16.8,1.4-5.1.2-9.7-3.7-13.8C167.55,36.34,152.05,44.34,152.75,44.34Z" transform="translate(-0.004 0)" fill="url(#radial-gradient)"/><path d="M64.85,90.84c-3.9.7-7.6,1.4-11.1,1.9l.2-.2a173.734,173.734,0,0,1-19.2,1.8h-.2c-4.8,0-8.5-.4-10.8-1.2a6,6,0,0,0-4.9.2,6,6,0,0,0-3.5,3.5,5.942,5.942,0,0,0,.2,4.9,6.648,6.648,0,0,0,3.5,3.5c3.5,1.2,8.6,1.9,15.5,1.9a205.351,205.351,0,0,0,21-1.8h.2c4.1-.5,8.1-1.2,12.3-2.1C72.15,102.64,69,89.94,64.85,90.84Z" transform="translate(-0.004 0)" fill="url(#radial-gradient-2)"/><path d="M64.05,21c-3.7,1.2-7.2,2.5-10.8,3.7-8.1,3.2-15.3,6.3-21.9,9.7h.2a92.573,92.573,0,0,0-17.3,10.8V45c-5.4,4.2-9.1,8.3-11.1,12.1v.2c-3,5.5-3.2,10.6-.7,15.3,1.6,4.6,6.2,7.2,14.1,7.6,4.6.4,10.8-.4,18.5-1.8,3.9-.9,8.5-1.9,13.4-3.4,3-.9-.5-13.4-3.5-12.5-4.6,1.2-8.8,2.3-12.5,3-6.3,1.2-11.3,1.8-15.2,1.6-1.6,0-2.6-.2-3-.2l-.2-.2a4.593,4.593,0,0,1,.5-3.7v-.2c1.4-2.5,3.9-5.1,7.6-7.9a88.569,88.569,0,0,1,15-9.3,200.583,200.583,0,0,1,20.5-9.2v.2c2.1-.9,4.4-1.6,6.5-2.3C70.05,32.84,68.65,19.44,64.05,21Z" transform="translate(-0.004 0)" fill="url(#radial-gradient-3)"/><path d="M118,21.74c4.2-.5,8.3-.9,12.2-1.1a103.865,103.865,0,0,1,21,.2,6.828,6.828,0,0,0,4.8-1.4,7.544,7.544,0,0,0,2.5-4.4,6.689,6.689,0,0,0-1.4-4.8,5.691,5.691,0,0,0-4.4-2.3,148.93,148.93,0,0,0-23.3-.2c-5.5.4-11.1,1.1-17.1,1.9C109.55,9.94,114.25,22.24,118,21.74Z" transform="translate(-0.004 0)" fill="#ccc"/><path d="M118,21.74c4.2-.5,8.3-.9,12.2-1.1a103.865,103.865,0,0,1,21,.2,6.828,6.828,0,0,0,4.8-1.4,7.544,7.544,0,0,0,2.5-4.4,6.689,6.689,0,0,0-1.4-4.8,5.691,5.691,0,0,0-4.4-2.3,148.93,148.93,0,0,0-23.3-.2c-5.5.4-11.1,1.1-17.1,1.9C109.55,9.94,114.25,22.24,118,21.74Z" transform="translate(-0.004 0)" fill="url(#radial-gradient-4)"/><path d="M9.85,60.94c0,7.1,4.4,6.5,4.4,6.5h0l-.2-.2a4.593,4.593,0,0,1,.5-3.7v-.2c1.4-2.5,3.9-5.1,7.6-7.9a88.569,88.569,0,0,1,15-9.3,200.583,200.583,0,0,1,20.5-9.2v.2c2.1-.9,4.4-1.6,6.5-2.3,2.5-.9,3.5-3.9,3.5-6.9a62.988,62.988,0,0,0-8.8-.5A63.014,63.014,0,0,0,40.65,30c-3.4,1.6-6.5,3-9.7,4.6h.2c-2.1,1.1-4.2,2.3-6.2,3.4C17.65,43.74,9.85,51.94,9.85,60.94Z" transform="translate(-0.004 0)" fill="url(#linear-gradient)"/><path d="M158.35,15a6.689,6.689,0,0,0-1.4-4.8,5.691,5.691,0,0,0-4.4-2.3,148.93,148.93,0,0,0-23.3-.2,228.8,228.8,0,0,0-25.4,3.2c-8.6,1.6-17.3,3.5-25.9,6s-16.9,5.1-24.7,7.9c-8.1,3.2-15.3,6.3-21.9,9.7h.2a101.979,101.979,0,0,0-17.3,10.8v-.2c-5.4,4.3-9.1,8.3-11.1,12.2v.2c-3,5.5-3.2,10.6-.7,15.3,1.6,4.6,6.2,6.9,13.9,7.2a65.8,65.8,0,0,0,18.5-1.6c6.3-1.2,13.9-3.4,23.1-6,6.7-2.1,15.3-4.8,25.7-8.3l25.7-8.5c9.3-3.2,17.1-5.5,23.1-7.2a130.918,130.918,0,0,1,17.3-4.1,32.334,32.334,0,0,1,6.2-.4v.2c2.3,1.6,3.7,3,3.7,4.8-.9,2.6-3.5,5.8-7.9,9.2-5.1,3.9-12.3,7.9-21.2,12A295.4,295.4,0,0,1,102,81h-.2c-8.1,2.6-16.4,4.9-25,6.9-8.3,1.9-16.2,3.4-23.6,4.6l.2-.2a173.734,173.734,0,0,1-19.2,1.8H34c-4.8,0-8.5-.4-10.8-1.2a6,6,0,0,0-4.9.2,6,6,0,0,0-3.5,3.5,5.942,5.942,0,0,0,.2,4.9,7,7,0,0,0,3.5,3.5c3.5,1.2,8.6,1.9,15.5,1.9a205.351,205.351,0,0,0,21-1.8h.2c7.8-1.1,16-2.6,24.5-4.6h.2c8.8-2.1,17.5-4.6,25.9-7.2A266.056,266.056,0,0,0,136,81.84c9.7-4.6,17.6-9,23.6-13.6,7.6-5.8,12-11.3,12.7-16.8,1.9-7.2-1.2-13.2-9.5-18.5-2.6-2.1-7.4-2.6-14.8-1.6h-.2a145.149,145.149,0,0,0-19,4.4c-6,1.8-13.9,4.1-23.6,7.4l-25.7,8.5c-10.2,3.4-18.7,6-25.2,7.9-8.8,2.6-16,4.6-22,5.8-6.3,1.2-11.3,1.8-15.2,1.6-1.6,0-2.6-.2-3-.2l-.2-.2a4.593,4.593,0,0,1,.5-3.7v-.2c1.4-2.5,3.9-5.1,7.6-7.9a88.569,88.569,0,0,1,15-9.3,200.583,200.583,0,0,1,20.5-9.2v.2c7.4-2.8,15.3-5.5,23.6-7.8a203.653,203.653,0,0,1,24.9-5.8,176.753,176.753,0,0,1,24-3,103.865,103.865,0,0,1,21,.2,6.828,6.828,0,0,0,4.8-1.4A4,4,0,0,0,158.35,15Z" transform="translate(-0.004 0)" fill="none" stroke="#333" stroke-linecap="round" stroke-linejoin="round" stroke-width="1.44"/><circle cx="87.446" cy="56.64" r="55.2" stroke="#33317a" stroke-linecap="round" stroke-linejoin="round" stroke-width="2.88" fill="url(#radial-gradient-5)"/><path d="M32.15,65.84c-.7.2-17.3,3.7-20.1,1.1-.9-.9,1.8,1.2,4.4,4.6.4.5,0,1.2-.4,2.1-.2.2-.2.4-.4.5,0,.2-.2.5-.2.7,0,.4-.2.5-.4.9a13.836,13.836,0,0,1-.9,2.3c0,.2.4.4.4.7s-.4.2-.4.4-.5.2-.4.4v.2a9.536,9.536,0,0,1,1.2.2c.2,0,1.6.2,3.7.2s4.8,0,7.1-.2c1.4-.2,2.8-.4,4.2-.5,1.8-.4,3.5-.5,4.6-.7a4.7,4.7,0,0,1,1.8,0c6-1.2,13.2-3.2,21.7-5.6,6.7-2.1,15.3-4.8,25.7-8.3l25.7-8.5c5.1-1.8,9.9-3.2,13.9-4.6,3.4-1.1,6.3-1.9,9-2.6,3.4-1.1,6.2-1.8,9-2.5,3.2-.7,6-1.4,8.5-1.8a32.334,32.334,0,0,1,6.2-.4v.2c.9.5,4.9.2,6.9,3.2,3.2,4.9,4.8,13.8,6.2,12a17.572,17.572,0,0,0,3.4-7.6c1.9-7.2-1.2-12.9-9.5-18.2-2.6-2.1-7.4-2.6-14.8-1.6h-.2c-2.8.5-6.3,1.2-10.4,2.1-2.6.7-5.5,1.1-8.6,1.9s-6.5,1.9-10.4,3.2-8.3,2.6-13.2,4.2l-25.7,8.5c-7.2,2.3-13.6,4.4-19,6.2Z" transform="translate(-0.004 0)" fill="url(#linear-gradient-2)"/><path d="M138.75,33.54c-2.6.7-6.3,1.8-9.3,2.6-6,1.8-13.9,4.1-23.6,7.4L80.15,52c-7.8,2.6-14.5,4.6-20.1,6.3a51.6,51.6,0,0,0-5.3,1.2c-8.6,2.5-29.4,8.6-37.7,7.8" transform="translate(-0.004 0)" fill="none" stroke="#333" stroke-linecap="round" stroke-linejoin="round"/><path d="M35.05,78.54c6-1.2,14.8-3.5,23.3-6,6.7-2.1,15.3-4.8,25.7-8.3l25.7-8.5c9.3-3.2,17.1-5.5,23.1-7.2,3.4-1.1,7.1-1.9,9.7-2.6" transform="translate(-0.004 0)" fill="none" stroke="#333" stroke-linecap="round" stroke-linejoin="round"/></svg>