<svg id="svg4139" xmlns="http://www.w3.org/2000/svg" viewBox="0 0 112 104"><title>SG-1000_SVG</title><g id="text4145"><path id="path6759" d="M52.81,63.71a5.25,5.25,0,0,1-5.6,5.56H27.35V63.71H47.21V58.15H32.42a5.36,5.36,0,0,1-4-1.55,5.44,5.44,0,0,1-1.54-4V47a5.38,5.38,0,0,1,.45-2.2A5.47,5.47,0,0,1,28.56,43a5.56,5.56,0,0,1,1.76-1.16,5.19,5.19,0,0,1,2.1-.43H50.93V47H32.42v5.6H47.21a5.76,5.76,0,0,1,2.21.43,5.85,5.85,0,0,1,1.78,1.17,5.2,5.2,0,0,1,1.18,1.75,5.62,5.62,0,0,1,.43,2.21Z" fill="red"/><path id="path6761" d="M85.1,69.27H62.83c-3.71,0-5.56-1.86-5.56-5.56V47a5.38,5.38,0,0,1,.45-2.2A5.6,5.6,0,0,1,58.92,43a5.67,5.67,0,0,1,1.76-1.16,5.33,5.33,0,0,1,2.15-.43H84.16V47H62.83V63.71H79.5V58.15H68.42V52.59H85.1Z" fill="red"/><path id="path6765" d="M16.67,104H0V98.44H5.6V81.73H0V76.17H11.16V98.44h5.51Z" fill="red"/><path id="path6767" d="M48.15,98.44q0,5.57-5.56,5.56H25.92q-5.52,0-5.52-5.56V81.73a5.46,5.46,0,0,1,1.66-4,5.76,5.76,0,0,1,1.76-1.17,5.16,5.16,0,0,1,2.1-.43H42.59a5.46,5.46,0,0,1,2.17.43,5.46,5.46,0,0,1,3,3,5.49,5.49,0,0,1,.43,2.17Zm-5.56,0V81.73H25.92V98.44Z" fill="red"/><path id="path6769" d="M80.07,98.44q0,5.57-5.55,5.56H57.84q-5.51,0-5.51-5.56V81.73a5.42,5.42,0,0,1,.45-2.21A5.56,5.56,0,0,1,54,77.77a5.88,5.88,0,0,1,1.76-1.17,5.23,5.23,0,0,1,2.1-.43H74.52a5.56,5.56,0,0,1,3.94,1.62,5.57,5.57,0,0,1,1.19,1.77,5.67,5.67,0,0,1,.42,2.17Zm-5.55,0V81.73H57.84V98.44Z" fill="red"/><path id="path6771" d="M112,98.44q0,5.57-5.56,5.56H89.77q-5.52,0-5.52-5.56V81.73a5.46,5.46,0,0,1,1.66-4,5.76,5.76,0,0,1,1.76-1.17,5.16,5.16,0,0,1,2.1-.43h16.67a5.46,5.46,0,0,1,2.17.43,5.46,5.46,0,0,1,3,3,5.49,5.49,0,0,1,.43,2.17Zm-5.56,0V81.73H89.77V98.44Z" fill="red"/><path d="M0,33.86h14.8a10.93,10.93,0,1,0,0-21.85L11,12a.56.56,0,0,1,0-1.11H25.73V6.28H11a5.17,5.17,0,1,0,0,10.34l3.86.05a6.26,6.26,0,1,1,0,12.51H0v4.68" fill="#0060a8"/><path d="M0,28.09H14.82a5.17,5.17,0,1,0,0-10.34l-3.86,0A6.26,6.26,0,1,1,11,5.2H25.74V.54H11a10.92,10.92,0,1,0,0,21.84h3.82a.54.54,0,1,1,0,1.07H0v4.62" fill="#0060a8"/><path d="M37.24,29.21a4.65,4.65,0,0,1-4.67-4.66V9.76a4.64,4.64,0,0,1,4.67-4.58H53V.54H37.24a9.28,9.28,0,0,0-9.3,9.27V24.55a9.29,9.29,0,0,0,9.3,9.28H53V29.2H37.24" fill="#0060a8"/><path d="M33.7,9.81a3.54,3.54,0,0,1,3.54-3.54H53v4.65H39.43A1.08,1.08,0,0,0,38.32,12H49.68v4.63h-16V9.81" fill="#0060a8"/><path d="M37.24,28.08a3.53,3.53,0,0,1-3.54-3.53V17.73h16v4.64H38.32a1.09,1.09,0,0,0,1.11,1.09H53v4.61H37.24" fill="#0060a8"/><path d="M64.11,29.19a4.65,4.65,0,0,1-4.65-4.64V9.81a4.63,4.63,0,0,1,4.63-4.63h15.3V.54H64.06a9.28,9.28,0,0,0-9.3,9.27V24.55a9.32,9.32,0,0,0,9.33,9.28h15.3V12H66.25v4.63h8.5V29.19H64.11" fill="#0060a8"/><path d="M60.55,24.55a3.56,3.56,0,0,0,3.54,3.56h9.56V17.72H66.26v4.65H69v1.09H66.28a1.1,1.1,0,0,1-1.09-1.09l0-10.37a1.1,1.1,0,0,1,1.1-1.11H79.4V6.26H64.09a3.54,3.54,0,0,0-3.54,3.54V24.55" fill="#0060a8"/><path d="M93.77,6.2a1.51,1.51,0,0,1,2.86,0l7.43,21.94H93.18V23h3.64l-1.64-4.86L89.86,33.83H84.38L93.77,6.2" fill="#0060a8"/><path d="M105.55,29.19H93.2v4.64H112L102.22,4.9a7.49,7.49,0,0,0-14,0L78.3,33.83h4.92L92.8,5.7a2.58,2.58,0,0,1,2.39-1.59,2.6,2.6,0,0,1,2.39,1.58l8,23.5" fill="#0060a8"/></g></svg>