<svg id="svg4139" xmlns="http://www.w3.org/2000/svg" viewBox="0 0 112 88"><title>SG-1000_SVG</title><path id="path6759" d="M49.889,42.9a10.1,10.1,0,0,1-9.46,10.7,9.9,9.9,0,0,1-1.312,0H.916V42.9h38.2V32.209H10.667a10.306,10.306,0,0,1-7.7-2.98,10.471,10.471,0,0,1-2.964-7.7V10.757A10.364,10.364,0,0,1,.873,6.523,10.491,10.491,0,0,1,3.24,3.06,10.641,10.641,0,0,1,6.625.828,9.99,9.99,0,0,1,10.665,0h35.6V10.762h-35.6V21.538H39.117a11.1,11.1,0,0,1,4.25.827,11.257,11.257,0,0,1,3.425,2.252,9.978,9.978,0,0,1,2.269,3.365,10.818,10.818,0,0,1,.828,4.251Z" fill="red"/><path id="path6761" d="M112,53.6H69.161c-7.135,0-10.694-3.577-10.694-10.695V10.762a10.362,10.362,0,0,1,.866-4.233A10.35,10.35,0,0,1,65.026.835,10.255,10.255,0,0,1,69.161.008h41.03V10.762H69.161V42.9h32.067V32.209h-21.3V21.515H112Z" fill="red"/><path id="path6765" d="M16.665,88H0V82.442H5.6v-16.7H0V60.18H11.157V82.442h5.508Z" fill="red"/><path id="path6767" d="M48.134,82.442q0,5.568-5.558,5.558H25.912q-5.518,0-5.518-5.558v-16.7a5.454,5.454,0,0,1,1.659-4,5.758,5.758,0,0,1,1.759-1.169,5.144,5.144,0,0,1,2.1-.43H42.576a5.577,5.577,0,0,1,5.168,3.428,5.5,5.5,0,0,1,.43,2.17Zm-5.558,0v-16.7H25.912v16.7Z" fill="red"/><path id="path6769" d="M80.042,82.442q0,5.568-5.548,5.558H57.82q-5.508,0-5.508-5.558v-16.7a5.436,5.436,0,0,1,.45-2.21,5.56,5.56,0,0,1,1.22-1.749,5.856,5.856,0,0,1,1.759-1.173,5.214,5.214,0,0,1,2.1-.43H74.494a5.53,5.53,0,0,1,5.128,3.388,5.665,5.665,0,0,1,.42,2.17Zm-5.548,0v-16.7H57.82v16.7Z" fill="red"/><path id="path6771" d="M111.961,82.442q0,5.568-5.558,5.558H89.739q-5.519,0-5.518-5.558v-16.7a5.459,5.459,0,0,1,1.659-4,5.763,5.763,0,0,1,1.76-1.169,5.141,5.141,0,0,1,2.1-.43H106.4a5.577,5.577,0,0,1,5.168,3.428,5.5,5.5,0,0,1,.43,2.17Zm-5.558,0v-16.7H89.739v16.7Z" fill="red"/></svg>