<svg id="svg4139" xmlns="http://www.w3.org/2000/svg" viewBox="0 0 112 104"><title>SG-1000_SVG</title><path id="path6759" d="M52.791,63.724a5.249,5.249,0,0,1-4.916,5.561,5.174,5.174,0,0,1-.682,0H27.34V63.724H47.193V58.166H32.408a5.358,5.358,0,0,1-4-1.549,5.442,5.442,0,0,1-1.54-4v-5.6a5.384,5.384,0,0,1,.45-2.2,5.46,5.46,0,0,1,1.23-1.8,5.546,5.546,0,0,1,1.759-1.16,5.189,5.189,0,0,1,2.1-.43h18.5V47.02h-18.5v5.6H47.193a5.767,5.767,0,0,1,2.209.43,5.85,5.85,0,0,1,1.78,1.17,5.19,5.19,0,0,1,1.179,1.749,5.618,5.618,0,0,1,.43,2.209Z" fill="red"/><path id="path6761" d="M85.07,69.282H62.807c-3.708,0-5.558-1.859-5.558-5.558V47.02a5.384,5.384,0,0,1,.45-2.2,5.379,5.379,0,0,1,2.959-2.959,5.327,5.327,0,0,1,2.149-.43H84.13V47.02H62.807v16.7H79.472V58.166H68.4V52.608H85.07Z" fill="red"/><path id="path6765" d="M16.664,104H0V98.442H5.6v-16.7H0V76.18H11.156V98.442h5.508Z" fill="red"/><path id="path6767" d="M48.133,98.442q0,5.568-5.558,5.558H25.911q-5.519,0-5.518-5.558v-16.7a5.455,5.455,0,0,1,1.659-4,5.758,5.758,0,0,1,1.759-1.169,5.144,5.144,0,0,1,2.1-.43H42.575a5.577,5.577,0,0,1,5.168,3.428,5.5,5.5,0,0,1,.43,2.17Zm-5.558,0v-16.7H25.911v16.7Z" fill="red"/><path id="path6769" d="M80.041,98.442q0,5.568-5.548,5.558H57.819q-5.508,0-5.508-5.558v-16.7a5.436,5.436,0,0,1,.45-2.21,5.56,5.56,0,0,1,1.22-1.749A5.869,5.869,0,0,1,55.74,76.61a5.209,5.209,0,0,1,2.1-.43H74.493a5.531,5.531,0,0,1,5.128,3.388,5.665,5.665,0,0,1,.42,2.17Zm-5.548,0v-16.7H57.819v16.7Z" fill="red"/><path id="path6771" d="M111.96,98.442q0,5.568-5.558,5.558H89.738q-5.519,0-5.518-5.558v-16.7a5.459,5.459,0,0,1,1.659-4,5.763,5.763,0,0,1,1.76-1.169,5.14,5.14,0,0,1,2.1-.43H106.4a5.577,5.577,0,0,1,5.168,3.428,5.5,5.5,0,0,1,.43,2.17Zm-5.558,0v-16.7H89.738v16.7Z" fill="red"/><path d="M0,33.775H14.8a10.926,10.926,0,0,0,.661-21.842q-.332-.011-.661,0l-3.8-.01a.559.559,0,0,1,0-1.109H25.721V6.205H11a5.168,5.168,0,0,0,0,10.336l3.859.05a6.258,6.258,0,0,1,.5,12.506c-.167.007-.334.007-.5,0H0v4.678" fill="#0060a8"/><path d="M0,28.007H14.815a5.168,5.168,0,1,0,0-10.336H10.956A6.273,6.273,0,1,1,11,5.126H25.731V.467H11A10.916,10.916,0,0,0,11,22.3h3.819a.54.54,0,1,1,.146,1.07.51.51,0,0,1-.146,0H0v4.618" fill="#0060a8"/><path d="M37.227,29.127A4.648,4.648,0,0,1,32.558,24.5V9.684a4.639,4.639,0,0,1,4.669-4.578H52.981V.467H37.227a9.277,9.277,0,0,0-9.3,9.257V24.469a9.286,9.286,0,0,0,9.3,9.276H52.981V29.117H37.227" fill="#0060a8"/><path d="M33.688,9.734A3.539,3.539,0,0,1,37.227,6.2H52.981v4.649H39.416a1.079,1.079,0,0,0-1.109,1.049c0,.01,0,.02,0,.03H49.662v4.628H33.668V9.734" fill="#0060a8"/><path d="M37.227,28a3.528,3.528,0,0,1-3.539-3.518V17.651H49.682v4.638H38.306a1.09,1.09,0,0,0,1.09,1.09H52.981v4.608H37.227" fill="#0060a8"/><path d="M64.087,29.107a4.648,4.648,0,0,1-4.648-4.638V9.734a4.628,4.628,0,0,1,4.628-4.628h15.3V.467H64.037a9.278,9.278,0,0,0-9.3,9.257V24.469a9.316,9.316,0,0,0,9.327,9.276h15.3V11.923H66.226v4.628h8.5V29.107H64.087" fill="#0060a8"/><path d="M60.528,24.469a3.559,3.559,0,0,0,3.539,3.558h9.557V17.641H66.236v4.648h2.739v1.09H66.256a1.1,1.1,0,0,1-1.089-1.09V11.923a1.1,1.1,0,0,1,1.089-1.109H79.372V6.185H64.067a3.54,3.54,0,0,0-3.539,3.539h0V24.469" fill="#0060a8"/><path d="M93.736,6.125a1.51,1.51,0,0,1,2.859,0l7.428,21.932H93.147V22.919h3.638l-1.639-4.858L89.828,33.745H84.35l9.386-27.62" fill="#0060a8"/><path d="M105.512,29.107H93.167v4.638H111.96L102.183,4.826a7.487,7.487,0,0,0-14,0L78.272,33.745H83.19l9.577-28.12a2.594,2.594,0,0,1,4.778-.01l8,23.492" fill="#0060a8"/></svg>