<svg id="Layer_1" data-name="Layer 1" xmlns="http://www.w3.org/2000/svg" viewBox="0 0 312.285 375.637"><title>sharpx68000</title><path d="M69.7.035,144.12,127.61h101L170.7.035ZM85.648,8.009h77.076l63.558,108.97H149.205Z" fill="#fff"/><path d="M96.306,68.421l-58.5,59.189h93.024ZM93.178,85.085l21.706,34.552H59.07Z" fill="#fff"/><path d="M215.979,59.18,274.477,0H181.454Zm3.127-16.656L197.4,7.973h55.814Z" fill="#fff"/><path d="M70.85,215.1c-.142-.187-.444,1.445-.9,4.882s-.718,6-.763,7.663c.479,3.562,1.693,3.589,3.659,5.387,1.64,1.01,3.039.726,6.981,1.169s27.411.46,31.38.018,7.274-.975,9.436-2.4c4.217-2.649,7.079-6.46,8.576-16.753,1.071-5.555,1.541-6.983,1.417-9.6a7.3,7.3,0,0,0-5.369-7.053c-3.419-1.187-8.407-.611-13.953-.611h-10.95c-11.775,0-18.906.051-22.432,2.488C73.916,202.972,72.321,206.542,70.85,215.1Zm84.191-41.008H138.367a44.188,44.188,0,0,0,.293-9.153c-.115-2.5-.373-4.687-1.506-5.493-2.374-2.046-12.049-1.861-22.344-1.861h-9.63c-10.241,0-16.23-.062-19.34,2.242q-6.033,4.692-7.29,14.344l-2.712,11.063a8.281,8.281,0,0,1,5.864-3.143c7.124-.771,18.987-.054,23.443-.054,10.861.187,19.836-.451,25.675.5s12.19,2.224,15.228,5.52q4.028,4.131,4.421,12.676.265,5.636-2.224,18.4a84.358,84.358,0,0,1-3.25,11.09,34.884,34.884,0,0,1-5.113,9.171c-2.17,2.818-4.757,7.7-7.76,9.329-4.74,2.418-10.818,2.259-16.311,2.906s-14.3,0-23.025,0c-7.788,0-15.69.177-21.36-.5a30.017,30.017,0,0,1-14.033-4.917q-6.738-4.9-7.557-16.2a73.018,73.018,0,0,1,1.3-13.28l9.3-48.77c1.763-10.676,5.031-19,12.8-23.965a39.982,39.982,0,0,1,15.734-5.342,208.571,208.571,0,0,1,25.24-1.311h13.66c9.286,0,11.872,1.24,18.384,3.712s9.941,7.406,10.286,14.8A127.175,127.175,0,0,1,155.041,174.092Z" fill="#fff"/><path d="M219.1,152.943c-10.957,0-20.934.5-24.61,1.488-3.588,1-5.839.913-7.46,3.482A21.308,21.308,0,0,0,183.949,166q-.665,4.227-1.188,11.359c.346,2.853,1.259,4.819,2.739,5.881,2.834,1.79,12.765,1.95,25.664,1.95,11.553,0,20.174-.239,24.693-2.2q2.868-1.129,4.942-5.094a29.491,29.491,0,0,0,3.216-9.567,39.2,39.2,0,0,0,.746-7.673q-.094-4-2.474-5.325a21.228,21.228,0,0,0-8-1.913Q228.891,152.942,219.1,152.943Zm27.969,39.566c6.866,2.817,6.866,9.444,7.043,17.072.028,1.073.284,6.875-.07,8.887s-.239,3.544-.362,4.189c-1.517,7-2.012,10.083-4.378,14.219s-3.756,7.115-7.884,9.33a38.9,38.9,0,0,1-13.68,4.244A199.662,199.662,0,0,1,204,251.637H192.977a186.291,186.291,0,0,1-22.388-1.037c-5.378-.692-8.549-3.171-11.713-6.068-2.985-2.605-5.819-8.931-6.307-15.026.159-2.844.665-4.3,1.506-9.656,1.108-4.953,1.373-8.94,2.25-11.6a28.822,28.822,0,0,1,4.562-8.2c1.923-2.428,4.767-4.209,8.134-6.131,2.073-1.188,2.693-1.639.576-3.411-2.33-1.94-2.951-3.757-3.606-6.131-.337-.743-.514-7.973-.549-8.212,1.027-16.5,5.351-24.913,13.086-31.265,4.544-3.9,6.546-6.211,16.628-6.928,5.174-.416,19.357-.62,26.6-.62,9.994,0,19.712.213,23.85.638a45.477,45.477,0,0,1,9.479,2.33c2.695,1.027,2.419,2.773,4.474,5.244q2.7,3.417,2.872,10.835a65.05,65.05,0,0,1-.673,10.675,44.793,44.793,0,0,1-2.9,10.721,22.654,22.654,0,0,1-5.449,8.258c-2.8,3.048-2.409,5.181-6.114,6.4-.8.267-1.221.08-1.2-.044C246.106,192.306,246.425,192.243,247.071,192.509Zm-39.148,7.362c-7.044,0-14.246-.026-18.047.4a28.568,28.568,0,0,0-9.347,2.437,11.454,11.454,0,0,0-5.4,5.476,47.039,47.039,0,0,0-3.632,11.056,71.188,71.188,0,0,0-.948,8.159c.337,2.907.948,4.616,3.145,5.581s5.377,2.651,9.745,2.836c3.331.362,12.022.54,20.75.54,9.062,0,16.168.629,21.085-1.205,2.319-1.019,4.88-1.3,6.351-3.924s2.117-5.325,3.243-10.375a38.819,38.819,0,0,0,1.266-9.088c-.06-2.5-.761-7.063-2.118-8.366q-1.684-1.9-7.512-2.825C222.619,199.942,215.841,199.871,207.923,199.871Z" fill="#fff"/><path d="M104.967,286.121q-.281-12.13-6.5-17.78a22.739,22.739,0,0,0-8.362-4.4,57.175,57.175,0,0,0-11.465-2.029q-6.525-.558-14.715-.558-10.831,0-18.268.629a54.375,54.375,0,0,0-13.271,2.649,25.324,25.324,0,0,0-9.427,5.492,36.8,36.8,0,0,0-9.737,13.706,89.43,89.43,0,0,0-5.349,18.4l-6.017,31.61A128.037,128.037,0,0,0,0,350.892c.461,7.238-.148,12.527,3.146,16.231q4,4.743,12.747,6.627c5.84,1.257,16.383,1.887,26.322,1.887A227,227,0,0,0,65.578,374.6a39.751,39.751,0,0,0,14.556-4.384c9.922-5.654,13.892-17.5,17.215-35.545l6.138-31.752A124.512,124.512,0,0,0,104.967,286.121Zm-17.49,15.035L81.188,334.44c-2.393,11.368-4.731,16.826-8.789,20.475q-3.3,2.788-9.674,3.579a176.582,176.582,0,0,1-19.4.779q-10.721,0-15.387-.442a20.946,20.946,0,0,1-7.663-1.994,8.661,8.661,0,0,1-3.572-3.322,15.826,15.826,0,0,1-1.506-6.574c.187-3.341.674-5.023,1.453-10.365l6.8-36.1c1.063-5.476,2.314-7.187,3.738-10.428a22.279,22.279,0,0,1,4.3-6.929,15.525,15.525,0,0,1,4.873-3.171,29.836,29.836,0,0,1,8.426-1.807q4.892-.427,16.256-.425,12.374,0,17.488.583a16.11,16.11,0,0,1,7.967,2.739c1.975,1.4,2.134,3.773,2.24,8.318C88.806,292.634,88.391,294.8,87.477,301.156Z" fill="#fff"/><path d="M208.622,286.121q-.281-12.13-6.505-17.78a22.743,22.743,0,0,0-8.361-4.4,57.2,57.2,0,0,0-11.465-2.029q-6.525-.558-14.716-.558-10.831,0-18.267.629a54.384,54.384,0,0,0-13.272,2.649,25.32,25.32,0,0,0-9.426,5.492,36.809,36.809,0,0,0-9.737,13.706,89.43,89.43,0,0,0-5.35,18.4l-6.016,31.61a128.2,128.2,0,0,0-1.853,17.054c.462,7.238-.148,12.527,3.147,16.231q4,4.743,12.747,6.627c5.84,1.257,16.383,1.887,26.322,1.887a226.975,226.975,0,0,0,23.362-1.037,39.757,39.757,0,0,0,14.557-4.384c9.922-5.654,13.892-17.5,17.214-35.545l6.139-31.752Q208.735,291.011,208.622,286.121Zm-17.49,15.035-6.29,33.284c-2.393,11.368-4.731,16.826-8.787,20.475q-3.3,2.788-9.675,3.579a176.586,176.586,0,0,1-19.4.779q-10.724,0-15.389-.442a20.945,20.945,0,0,1-7.662-1.994,8.655,8.655,0,0,1-3.572-3.322,15.826,15.826,0,0,1-1.506-6.574c.186-3.341.673-5.023,1.453-10.365l6.8-36.1c1.063-5.476,2.314-7.187,3.738-10.428a22.26,22.26,0,0,1,4.3-6.929,15.487,15.487,0,0,1,4.872-3.171,29.829,29.829,0,0,1,8.425-1.807q4.891-.427,16.257-.425,12.372,0,17.488.583a16.1,16.1,0,0,1,7.966,2.739c1.975,1.4,2.134,3.773,2.241,8.318C192.461,292.634,192.045,294.8,191.132,301.156Z" fill="#fff"/><path d="M312.276,286.121q-.279-12.13-6.5-17.78a22.755,22.755,0,0,0-8.362-4.4,57.162,57.162,0,0,0-11.465-2.029q-6.523-.558-14.715-.558-10.832,0-18.267.629a54.384,54.384,0,0,0-13.272,2.649,25.32,25.32,0,0,0-9.426,5.492,36.811,36.811,0,0,0-9.738,13.706,89.43,89.43,0,0,0-5.349,18.4l-6.017,31.61a128.038,128.038,0,0,0-1.851,17.054c.461,7.238-.15,12.527,3.145,16.231q4,4.743,12.748,6.627c5.839,1.257,16.382,1.887,26.321,1.887a227.009,227.009,0,0,0,23.363-1.037,39.751,39.751,0,0,0,14.556-4.384c9.922-5.654,13.893-17.5,17.215-35.545l6.139-31.752A124.633,124.633,0,0,0,312.276,286.121Zm-17.49,15.035L288.5,334.44c-2.392,11.368-4.729,16.826-8.787,20.475q-3.3,2.788-9.675,3.579a176.574,176.574,0,0,1-19.4.779q-10.722,0-15.388-.442a20.957,20.957,0,0,1-7.663-1.994,8.658,8.658,0,0,1-3.571-3.322,15.826,15.826,0,0,1-1.506-6.574c.186-3.341.673-5.023,1.452-10.365l6.805-36.1c1.062-5.476,2.313-7.187,3.737-10.428a22.278,22.278,0,0,1,4.3-6.929,15.48,15.48,0,0,1,4.873-3.171,29.821,29.821,0,0,1,8.425-1.807q4.89-.427,16.257-.425,12.372,0,17.488.583a16.106,16.106,0,0,1,7.966,2.739c1.975,1.4,2.133,3.773,2.241,8.318C296.115,292.634,295.7,294.8,294.786,301.156Z" fill="#fff"/></svg>