<svg id="body" xmlns="http://www.w3.org/2000/svg" viewBox="0 0 112 112"><defs><style>.cls-1{fill:#fc0c18;}</style></defs><title>SNES_SVG</title><path id="polyline2177" class="cls-1" d="M38.62,0a6.15,6.15,0,0,0-5.78,5v.14l-.05,0v.15l0,.1v.09l0,.1v.15l-.05.1V6l0,.15-.05.15,0,.29-.1.34,0,.35-.09.34,0,.39-.1.39-.1.44-.1.4-.14.83-.1.44-.1.39-.05.39-.1.39-.1.4,0,.39-.05.34-.1.29-.05.35v.14l0,.1v.25l-.05.14v.2l-.05.1v.1c-.05,1.19.12,2.83.49,3.13.48,2.64,9.27,14.84,9,16.7s-1.27,7.34-1.27,7.34A3.63,3.63,0,0,1,35.73,45a2.74,2.74,0,0,1-2.79-3.33l1.67-9.11H28l-2.2,12.64a3.78,3.78,0,0,0,3.87,4.6h9.35a5.81,5.81,0,0,0,5.53-4.6S47,33.35,47,32.51s-.24-.93-.24-.93c0-1-7.82-13.86-8.62-14.34A3.9,3.9,0,0,1,37.49,15c0-.76,1-5.92,1-5.92a4.12,4.12,0,0,1,3.92-3.33c1.85,0,2.62,1.48,2.3,3.33l-1.42,8.18h6.61L52.23,5A3.94,3.94,0,0,0,48.32,0ZM65.45,0,56,49.75h7.2L69,20.91l2.3,28.84h6.26L87,0H79.85L75,26,71.72,0ZM0,54.65V112H112V54.65Zm67.45,4.08H78.16a3.9,3.9,0,0,1,3.94,4.81L79.69,75.78h-5.9l1.31-8.09a2.61,2.61,0,0,0-2.62-3.28,4.13,4.13,0,0,0-3.94,3.28L67.45,73.6a3.48,3.48,0,0,0,.66,2.18c.81.47,8.52,13.26,8.52,14.21.18.48.29.7.22.88-.23,1.6-2.41,12.46-2.41,12.46A5.82,5.82,0,0,1,69,107.92H59.8a3.71,3.71,0,0,1-3.72-4.59l2.19-12.46h6.34l-1.53,9a2.79,2.79,0,0,0,2.62,3.5,4.39,4.39,0,0,0,3.94-3.5L71,92.61c-1.18-3-8.91-14-9.4-16.61-.34-.29-.49-1.87-.44-3.06s1.75-9.4,1.75-9.4h.22v-.66l.22-.43v-.22l.21-.22v-.22l.22-.22v-.22l.22-.22.22-.21V60.7h.22l.22-.22.22-.22L65,60v-.22h.22l.22-.22.22-.21h.22l.22-.22h.22l.21-.22h.66Zm-31.89,0H48.41l-.88,6.09h-7L37.74,80.06h6.75l-.87,5.22h-7L34,101.82h6.75l-1.09,6.1H25.77Z"/></svg>