<svg id="Nintendo_Switch" data-name="Nintendo Switch" xmlns="http://www.w3.org/2000/svg" viewBox="0 0 112 112"><defs><style>.cls-1{fill:#e60012;}</style></defs><title>Switch_SVG</title><g id="logo"><path class="cls-1" d="M17.53,33.63A10.47,10.47,0,1,1,28,44.11,10.44,10.44,0,0,1,17.53,33.63ZM45,9H28.73A19.84,19.84,0,0,0,9,28.75v54.6a19.84,19.84,0,0,0,19.71,19.72H45ZM53.2,112H28.73A28.74,28.74,0,0,1,0,83.25V28.75A28.74,28.74,0,0,1,28.73,0H53.2A.9.9,0,0,1,54,.83h0V111.17a.82.82,0,0,1-.83.83ZM87.42,50.34A11.32,11.32,0,1,0,98.73,61.66,11.34,11.34,0,0,0,87.42,50.34ZM83.27,112H66.06a.89.89,0,0,1-.83-.83h0V.73A.71.71,0,0,1,66,0H83.27A28.74,28.74,0,0,1,112,28.75v54.6A28.65,28.65,0,0,1,83.27,112Z"/></g></svg>