<svg id="Nintendo_Switch" data-name="Nintendo Switch" xmlns="http://www.w3.org/2000/svg" viewBox="0 0 112 112"><title>Switch_SVG</title><g id="logo"><path d="M17.53,33.632a10.445,10.445,0,1,1,0,.07ZM45,9H28.73A19.841,19.841,0,0,0,9,28.752v54.6A19.839,19.839,0,0,0,28.71,103.07H45Zm8.2,103H28.73A28.739,28.739,0,0,1,0,83.251H0v-54.5A28.739,28.739,0,0,1,28.73,0H53.2a.9.9,0,0,1,.8.83h0V111.17a.82.82,0,0,1-.81.83h.01ZM87.42,50.341a11.32,11.32,0,1,0,11.31,11.33v-.01A11.341,11.341,0,0,0,87.42,50.341ZM83.27,112H66.06a.889.889,0,0,1-.83-.83h0V.733A.711.711,0,0,1,65.917,0,.576.576,0,0,1,66,0H83.27A28.739,28.739,0,0,1,112,28.752h0v54.6A28.65,28.65,0,0,1,83.35,112Z" fill="#e60012"/></g></svg>