<svg id="X" xmlns="http://www.w3.org/2000/svg" viewBox="0 0 362.61 422"><title>taitotypex</title><path d="M322.411,22,303.359,55H277.424L201.791,186h-43L234.424,55H209.959l19.053-33h93.4M360.517,0H216.31l-6.351,11L190.906,44,171.854,77h24.465l-56.58,98-19.053,33h93.807l6.351-11L290.126,77h25.935l6.35-11,19.053-33L360.517,0Z" fill="#58595b"/><path d="M203.633,22,184.58,55H158.832L83.2,186h-43L115.832,55H90.59l19.053-33h93.99m38.1-22H96.941L90.59,11,71.538,44,52.485,77H77.726l-56.58,98L2.093,208H95.9l6.351-11L171.533,77h25.749l6.351-11,19.052-33L241.738,0Z" fill="#58595b"/><polygon points="184.58 55 203.633 22 177.884 22 134.884 22 109.643 22 90.59 55 115.832 55 40.199 186 83.199 186 158.832 55 184.58 55" fill="#fff"/><polygon points="303.359 55 322.412 22 296.477 22 253.477 22 229.011 22 209.959 55 234.424 55 158.791 186 201.791 186 277.424 55 303.359 55" fill="#fff"/><path d="M362.61,208H249.667l-24.388,20.9-.861-20.9H136.781l2.232,94.846L0,422H112.943l28.3-24.259L141.817,422h91.412l-4.1-99.587L362.61,208Z" fill="#58595b"/><polygon points="303.138 230 257.805 230 205.163 275.122 203.305 230 159.305 230 161.252 312.76 59.472 400 104.805 400 162.148 350.848 163.305 400 210.305 400 206.708 312.654 303.138 230" fill="#007dc5"/></svg>