<svg id="Layer_1" data-name="Layer 1" xmlns="http://www.w3.org/2000/svg" xmlns:xlink="http://www.w3.org/1999/xlink" viewBox="0 0 39.289 41.898"><defs><linearGradient id="linear-gradient" x1="19.645" y1="41.898" x2="19.645" gradientUnits="userSpaceOnUse"><stop offset="0" stop-color="#035503"/><stop offset="1" stop-color="#64cf40"/></linearGradient><linearGradient id="linear-gradient-2" x1="19.645" y1="2" x2="19.645" y2="39.898" gradientUnits="userSpaceOnUse"><stop offset="0" stop-color="#c6fa86"/><stop offset="1" stop-color="#41c318"/></linearGradient></defs><title>upvote</title><path d="M27.072,0a4.179,4.179,0,0,0-3.634,2.784c-.194.457-.311.789-.4,1.031-.219.624-.259.737-3.6,4.637a19.012,19.012,0,0,1-4.058,3.591c-2.017,1.418-3.928,2.762-6.414,7.278a1.9,1.9,0,0,0-.346-.074A18.984,18.984,0,0,0,6.5,19.133a11.37,11.37,0,0,0-5.4,1.093A2,2,0,0,0,.059,21.787a28.474,28.474,0,0,0,6.2,19.384A2,2,0,0,0,7.8,41.9a2.017,2.017,0,0,0,.232-.013,17.159,17.159,0,0,0,6.116-2.222,1.994,1.994,0,0,0,.515-.434,68.038,68.038,0,0,0,13.884,1.749,10.215,10.215,0,0,0,1.153-.052,6.786,6.786,0,0,0,6.042-6.269,5.833,5.833,0,0,0,1.8-2.7,5.507,5.507,0,0,0-.017-3.22,4.9,4.9,0,0,0,1.124-2.644,4.493,4.493,0,0,0-.5-2.46,5.371,5.371,0,0,0,.978-4.581c-.449-1.709-2.042-3.535-5.161-3.535a9.7,9.7,0,0,0-1.847.19c-.2.017-.751.055-1.434.055a7.217,7.217,0,0,1-3.548-.59c-.024-.684.211-.973.969-1.8a9.029,9.029,0,0,0,2.736-6.93C30.842.627,28.205,0,27.072,0Z" fill="url(#linear-gradient)"/><path d="M10.342,21c4.062-7.75,6.187-6.062,10.625-11.25S24.4,5.627,25.279,3.565,28.842.627,28.842,6.44s-4,5.312-3.688,9.062c.313,2.875,7.25,2.188,7.25,2.188,5.75-1.188,5.938,4.062,3.063,5.687,2.875,2.75-.313,4.875-.313,4.875a3.692,3.692,0,0,1-1.437,5.375,4.729,4.729,0,0,1-4.25,5.313c-2.125.25-12.375-.75-14.938-1.875C12.317,32.588,9.967,27.065,10.342,21Zm-8.292.979A26.617,26.617,0,0,0,7.8,39.9a15.119,15.119,0,0,0,5.333-1.958c-2.708-4.875-4.75-11.417-4.75-16.709C8.383,21.231,4.342,20.731,2.05,21.981Z" fill="url(#linear-gradient-2)"/></svg>