<svg id="svg2" xmlns="http://www.w3.org/2000/svg" viewBox="0 0 112 53.56"><title>Wii_SVG</title><g id="Capa_1"><g id="_56610944" data-name=" 56610944"><path id="_56604928" data-name=" 56604928" d="M77.28,6.11a6.22,6.22,0,0,0,6.28,6.1,6.28,6.28,0,0,0,6.55-6.1A6.29,6.29,0,0,0,83.56,0,6.16,6.16,0,0,0,77.28,6.11Z" fill="#fff"/><polygon id="_56605920" data-name=" 56605920" points="89.15 53.21 89.15 18.23 78.33 18.23 78.33 53.21 89.15 53.21" fill="#fff"/><path id="_56605848" data-name=" 56605848" d="M99.18,6.11a6.42,6.42,0,0,0,12.82,0,6.42,6.42,0,0,0-12.82,0Z" fill="#fff"/><polygon id="_56607936" data-name=" 56607936" points="111.04 53.21 111.04 18.23 100.22 18.23 100.22 53.21 111.04 53.21" fill="#fff"/><path id="_56607472" data-name=" 56607472" d="M61.15,3,51.73,40S44.49,12.21,43.26,8.2s-3.57-5.67-7-5.67S30.44,4.27,29.22,8.2,20.85,40,20.85,40L11.34,3H0S10.9,42.48,12.39,47.1c1.13,3.58,3.92,6.46,7.93,6.46,4.71,0,6.9-3.4,7.85-6.46s8.12-29.22,8.12-29.22,7.06,26.08,8,29.22,3.23,6.46,7.85,6.46c4.1,0,6.81-2.88,8-6.46C61.67,42.48,72.57,3,72.57,3Z" fill="#fff"/></g></g></svg>