<svg id="svg2" xmlns="http://www.w3.org/2000/svg" viewBox="0 0 112 104"><title>WiiU_light_SVG</title><path id="_56666168" data-name=" 56666168" d="M48.73,81.4c0,12.29,14.54,10.54,14.54,1.94V62.99H48.73Z" fill="#009ac7"/><path id="_56603080" data-name=" 56603080" d="M28.72,94.31c0,6.07,4.19,9.69,10.33,9.69H73.92c5.18,0,9.36-3.58,9.36-8.72V69.77c0-3.1-2.3-6.46-5.16-6.46H70.05v21c0,15.94-27.77,15.82-27.77.32V62.99H36.14c-4,0-7.42,2.53-7.42,6.46Z" fill="#009ac7"/><path id="_56604928" data-name=" 56604928" d="M77.28,6.116a6.424,6.424,0,0,0,12.827.1l0-.1A6.291,6.291,0,0,0,83.648,0l-.088,0a6.159,6.159,0,0,0-6.279,6.038Z" fill="#c4c4c4"/><polygon id="_56605920" data-name=" 56605920" points="89.15 53.216 89.15 18.236 78.33 18.236 78.33 53.216 89.15 53.216" fill="#c4c4c4"/><path id="_56605848" data-name=" 56605848" d="M99.18,6.116a6.42,6.42,0,0,0,12.82,0,6.42,6.42,0,0,0-12.82,0Z" fill="#c4c4c4"/><polygon id="_56607936" data-name=" 56607936" points="111.04 53.216 111.04 18.236 100.22 18.236 100.22 53.216 111.04 53.216" fill="#c4c4c4"/><path id="_56607472" data-name=" 56607472" d="M61.15,3.006l-9.42,37s-7.24-27.79-8.47-31.8-3.57-5.67-7-5.67-5.82,1.74-7.04,5.67-8.37,31.8-8.37,31.8l-9.51-37H0s10.9,39.48,12.39,44.1c1.13,3.58,3.92,6.46,7.93,6.46,4.71,0,6.9-3.4,7.85-6.46s8.12-29.22,8.12-29.22,7.06,26.08,8,29.22,3.23,6.46,7.85,6.46c4.1,0,6.81-2.88,8-6.46,1.53-4.62,12.43-44.1,12.43-44.1Z" fill="#c4c4c4"/></svg>