<svg id="Layer_1" data-name="Layer 1" xmlns="http://www.w3.org/2000/svg" viewBox="0 0 112 112"><title>ZX_spectrum_SVG</title><polygon points="0 0 0 40.971 18.339 0 0 0" fill="none"/><polygon points="97.932 112 112 112 112 80.57 97.932 112" fill="none"/><polygon points="18.339 0 0 40.971 0 112 0.583 112 50.714 0 18.339 0" fill="red"/><polygon points="50.714 0 0.583 112 32.958 112 83.089 0 50.714 0" fill="#ff0"/><polygon points="112 0 83.089 0 32.958 112 65.22 112 112 7.486 112 0" fill="lime"/><polygon points="112 7.486 65.22 112 97.932 112 112 80.57 112 7.486" fill="aqua"/><path d="M6.456,83.71V73.5L35.892,37.148H9.782V27.667H50.8V36.46L20.1,74.268H51.986V83.71Z"/><path d="M53.439,83.71,72.591,54.465l-17.356-26.8H68.462L79.7,45.673l11.01-18.006h13.112L86.391,54.886,105.544,83.71H91.9L79.472,64.328,67.01,83.71Z"/></svg>