<svg xmlns="http://www.w3.org/2000/svg" viewBox="0 0 16 16"><polygon points="16 2 15 2 15 1 14 1 14 0 2 0 2 1 1 1 1 2 0 2 0 14 1 14 1 15 2 15 2 16 14 16 14 15 15 15 15 14 16 14 16 2"/><polygon points="15 2 14 2 14 1 13 1 1 13 1 14 2 14 2 15 14 15 14 14 15 14 15 2" fill="#8c5a18"/><polygon points="14 2 13 2 13 1 5 1 1 5 1 13 2 13 2 14 13 14 13 13 14 13 14 2" fill="#dea539"/><rect x="1" y="6" width="2" height="1" fill="#fff"/><polygon points="2 1 2 2 1 2 1 5 5 5 5 1 2 1" fill="#fff"/><polygon points="13 3 12 3 12 2 3 2 3 3 2 3 2 12 3 12 3 13 12 13 12 12 13 12 13 3" fill="#ffde73"/><polygon points="12 4 12 3 11 3 11 2 4 2 4 3 3 3 3 4 2 4 2 6 3 6 3 7 5 7 5 9 6 9 6 10 5 10 5 12 6 12 6 13 9 13 9 12 10 12 10 10 9 10 9 9 11 9 11 8 12 8 12 7 13 7 13 4 12 4"/><polygon points="11 4 11 3 4 3 4 4 3 4 3 6 6 6 6 5 9 5 9 7 6 7 6 9 9 9 9 8 11 8 11 7 12 7 12 4 11 4" fill="#fff"/><rect x="6" y="10" width="3" height="2" fill="#fff"/></svg>