<svg id="Layer_1" data-name="Layer 1" xmlns="http://www.w3.org/2000/svg" viewBox="0 0 1000 999.877"><title>discogs</title><path d="M359.333,499.66A141.751,141.751,0,0,1,501.075,357.9h0A141.684,141.684,0,0,1,642.817,499.66h0A141.715,141.715,0,0,1,501.075,641.381h0A141.716,141.716,0,0,1,359.333,499.66Zm6.206,0A135.712,135.712,0,0,0,501.075,635.175h0A135.546,135.546,0,0,0,636.632,499.66h0a135.722,135.722,0,0,0-135.557-135.6h0a135.625,135.625,0,0,0-135.536,135.6Z" transform="translate(-0.273 -0.543)" fill="#fff"/><path d="M523.514,499.68a22.377,22.377,0,1,1-22.4-22.356A22.389,22.389,0,0,1,523.514,499.68Z" transform="translate(-0.273 -0.543)" fill="#fff"/><path d="M501.116,314.787A184.764,184.764,0,0,0,372.675,632.513c-.208-.2-.435-.381-.642-.583l-48.2,52.138a257.339,257.339,0,0,0,56.554,41.258l34.831-61.995,0,0a184.062,184.062,0,0,0,85.939,21.244c102.084,0,184.872-82.81,184.852-184.893a184.188,184.188,0,0,0-51.034-127.345l48.488-52.184a257.589,257.589,0,0,0-55.732-42.887l-34.2,62.4A183.512,183.512,0,0,0,501.116,314.787Z" transform="translate(-0.273 -0.543)" fill="none"/><path d="M262.45,750.473l-49.2,53.217a421.188,421.188,0,0,0,87.295,63.743l35.506-63.195A348.266,348.266,0,0,1,262.45,750.473Z" transform="translate(-0.273 -0.543)" fill="none"/><path d="M745.081,253.837l49.328-53.087a421.392,421.392,0,0,0-88.349-66.39l-34.847,63.575A348.609,348.609,0,0,1,745.081,253.837Z" transform="translate(-0.273 -0.543)" fill="none"/><path d="M689.746,313.389l49.062-52.8a339.262,339.262,0,0,0-72.026-54.569L632.163,269.18A266.84,266.84,0,0,1,689.746,313.389Z" transform="translate(-0.273 -0.543)" fill="none"/><path d="M317.579,690.836,268.706,743.7a339.018,339.018,0,0,0,71.865,52.5l35.3-62.83A266.57,266.57,0,0,1,317.579,690.836Z" transform="translate(-0.273 -0.543)" fill="none"/><path d="M245.125,499.65a255.225,255.225,0,0,0,78.711,184.418l48.2-52.138c.207.2.434.382.642.583A184.753,184.753,0,0,1,593.529,339.662l34.2-62.4a254.349,254.349,0,0,0-126.592-33.628C359.971,243.636,245.125,358.483,245.125,499.65Z" transform="translate(-0.273 -0.543)" fill="#fff"/><path d="M686.009,499.68c.02,102.083-82.768,184.893-184.852,184.893a184.062,184.062,0,0,1-85.939-21.244l0,0-34.831,62a254.409,254.409,0,0,0,120.749,30.338c141.167,0,256.014-114.846,256.014-256.014a255.15,255.15,0,0,0-73.69-179.5l-48.488,52.184A184.188,184.188,0,0,1,686.009,499.68Z" transform="translate(-0.273 -0.543)" fill="#fff"/><path d="M163.857,499.65c0,95.938,40.332,182.58,104.849,244.054l48.873-52.868A264.423,264.423,0,0,1,235.9,499.65c0-146.25,118.98-265.234,265.235-265.234A263.519,263.519,0,0,1,632.163,269.18l34.619-63.161a335.1,335.1,0,0,0-165.643-43.65C315.164,162.369,163.857,313.671,163.857,499.65Z" transform="translate(-0.273 -0.543)" fill="#fff"/><path d="M766.374,499.65c0,146.256-118.98,265.235-265.235,265.235a263.577,263.577,0,0,1-125.267-31.516l-35.3,62.83a335.21,335.21,0,0,0,160.568,40.733c185.975,0,337.282-151.306,337.282-337.282a336.221,336.221,0,0,0-99.613-239.062l-49.062,52.8A264.349,264.349,0,0,1,766.374,499.65Z" transform="translate(-0.273 -0.543)" fill="#fff"/><path d="M847.642,499.65c0,191.063-155.44,346.5-346.5,346.5a344.377,344.377,0,0,1-165.084-41.915l-35.506,63.195a416.428,416.428,0,0,0,200.59,51.235c231.044,0,419.018-187.974,419.018-419.018,0-116.952-48.216-222.814-125.748-298.9l-49.328,53.087A345.417,345.417,0,0,1,847.642,499.65Z" transform="translate(-0.273 -0.543)" fill="#fff"/><path d="M82.112,499.65c0,119.625,50.472,227.619,131.142,304.04l49.2-53.217c-66.339-63.16-107.814-152.211-107.814-250.823,0-191.062,155.44-346.5,346.5-346.5a344.253,344.253,0,0,1,170.074,44.787L706.06,134.36A416.3,416.3,0,0,0,501.139,80.628C270.086,80.628,82.112,268.6,82.112,499.65Z" transform="translate(-0.273 -0.543)" fill="#fff"/><path d="M848.817,142.25,800.682,194c79.343,77.773,128.7,186.034,128.7,305.652,0,236.132-192.108,428.239-428.239,428.239a425.6,425.6,0,0,1-205.1-52.419l-35.628,63.414a498.885,498.885,0,0,0,239.806,61.536c276.148,0,500.061-223.914,500.061-499.959C1000.231,359.927,942.138,233.068,848.817,142.25Z" transform="translate(-0.273 -0.543)" fill="#fff"/><path d="M72.891,499.65C72.891,263.514,265,71.407,501.139,71.407a425.462,425.462,0,0,1,209.352,54.869l33.9-62.017A496.991,496.991,0,0,0,508.329.543h-8.117C225.728.974,3.294,221.745.273,495.653l.041.041v4.767C.592,643.78,61,772.788,157.558,863.89L207,810.458C124.506,732.351,72.891,621.949,72.891,499.65Z" transform="translate(-0.273 -0.543)" fill="#fff"/></svg>