<svg id="Layer_1" data-name="Layer 1" xmlns="http://www.w3.org/2000/svg" viewBox="0 0 127 144"><title>MusicBrainz</title><g id="g7663"><g id="g7689"><g id="g7691"><polygon id="polygon7693" points="127 109 127 35 66 0 66 144 127 109" fill="#eb743b"/><polygon id="polygon7695" points="0 109 61 144 61 60 60 59 60 54 61 53 61 41 60 41 60 20 61 19 61 0 0 35 0 109" fill="#ba478f"/><g id="g7697"><g id="g7699" opacity="0.07"><path id="path7701" d="M60.971,53.04,34,69V57.384l26.971-16.21V18.586L28.455,37.857c-.023.014-.04.032-.063.047a2.882,2.882,0,0,0-.263.195c-.07.057-.143.108-.207.169a2.834,2.834,0,0,0-.192.217c-.063.073-.128.144-.185.222a2.271,2.271,0,0,0-.146.248,2.7,2.7,0,0,0-.134.247c-.041.091-.067.184-.1.275s-.064.182-.085.274a2.539,2.539,0,0,0-.042.268,2.928,2.928,0,0,0-.031.321c0,.028-.008.052-.008.08V91a11.037,11.037,0,0,0-8,2c-4.843,3.218-6.477,9.276-4,13s8.192,3.9,13.036.68C30.8,104.843,33.414,102.606,34,100a10.615,10.615,0,0,0,0-2c.007-.144,0-.284,0-.424V76L60.971,59.851Z"/></g><g id="g7703"><g id="g7705"><path id="path7707" d="M61,56,34,72V60L61,44V21L28.484,40.683c-.023.014-.04.032-.063.047a2.882,2.882,0,0,0-.263.2c-.07.057-.143.108-.207.169a2.834,2.834,0,0,0-.192.217c-.063.073-.128.144-.185.222a2.271,2.271,0,0,0-.146.248,2.7,2.7,0,0,0-.134.247c-.041.091-.067.184-.1.275s-.064.182-.085.274a2.539,2.539,0,0,0-.042.268,2.928,2.928,0,0,0-.031.321c0,.028-.008.052-.008.08v50.58a11.037,11.037,0,0,0-8,2c-4.843,3.218-6.477,9.276-4,13s8.192,3.9,13.036.68c2.765-1.837,5.378-4.074,5.964-6.68a10.615,10.615,0,0,0,0-2c.007-.144,0-.284,0-.424L34,79,61,63Z" fill="#9d356d"/></g><g id="g7709"><path id="path7711" d="M61,53,34,69V57L61,41V18L28.455,37.857c-.023.014-.04.032-.063.047a2.882,2.882,0,0,0-.263.195c-.07.057-.143.108-.207.169a2.834,2.834,0,0,0-.192.217c-.063.073-.128.144-.185.222a2.271,2.271,0,0,0-.146.248,2.7,2.7,0,0,0-.134.247c-.041.091-.067.184-.1.275s-.064.182-.085.274a2.539,2.539,0,0,0-.042.268,2.928,2.928,0,0,0-.031.321c0,.028-.008.052-.008.08V91a11.037,11.037,0,0,0-8,2c-4.843,3.218-6.477,9.276-4,13s8.192,3.9,13.036.68C30.8,104.843,33.414,102.606,34,100a10.615,10.615,0,0,0,0-2c.007-.144,0-.284,0-.424V76L61,60Z" fill="#fffedb"/></g></g></g><g id="g7713"><g id="g7715" opacity="0.07"><path id="path7717" d="M83.3,91.734a2.113,2.113,0,1,1-.233,1.6A2.1,2.1,0,0,1,83.3,91.734Zm12.6,22.362a2.082,2.082,0,0,1-1.373.509,2.11,2.11,0,0,1-1.377-3.715,2.081,2.081,0,0,1,1.373-.512,2.113,2.113,0,0,1,1.377,3.718Z"/><path id="path7719" d="M75,45.611c.07.019.142.034.212.046C75.141,45.645,75.071,45.629,75,45.611Z"/><path id="path7721" d="M86.38,55.257a2.075,2.075,0,0,1,.673-.661,2.114,2.114,0,1,1,1.108,3.912,2.1,2.1,0,0,1-1.124-.327A2.128,2.128,0,0,1,86.38,55.257ZM92.759,35.07a2.143,2.143,0,0,1-2.912.653l-.1-.063a2.111,2.111,0,1,1,3.287-2.175A2.074,2.074,0,0,1,92.759,35.07Z"/><path id="path7723" d="M109.526,46.668a2.111,2.111,0,1,1,3.566,2.259,2.142,2.142,0,0,1-2.912.653l-.094-.063A2.1,2.1,0,0,1,109.526,46.668Zm0,23.463a2.111,2.111,0,1,1,3.566,2.26,2.142,2.142,0,0,1-2.912.652l-.094-.063A2.1,2.1,0,0,1,109.526,70.131Zm0,26.3a2.111,2.111,0,1,1,3.566,2.26,2.143,2.143,0,0,1-2.912.653l-.094-.063A2.1,2.1,0,0,1,109.526,96.434Z"/><path id="path7725" d="M99.176,106.1a6.118,6.118,0,0,0-10.718,4.735,19.88,19.88,0,0,1-5.328,1.332,4.038,4.038,0,0,1-2.224-.972,10.711,10.711,0,0,0-4.148-1.847,37.637,37.637,0,0,0,8.584-12.834,6.117,6.117,0,1,0-5.481-9.244,6.124,6.124,0,0,0,1.624,8.065c-4.053,9.218-9.219,13.081-12.565,14.685a1.975,1.975,0,0,0-.36.168A11.309,11.309,0,0,1,66,111v4a12.581,12.581,0,0,0,4.247-1.192c5.348-1.357,6.839-.354,8.407.709a7.873,7.873,0,0,0,4.263,1.656c.1,0,.2.008.309.008a23.592,23.592,0,0,0,7.021-1.723,6.134,6.134,0,0,0,4.285,1.75h0a6.119,6.119,0,0,0,4.643-10.1ZM83.3,89.328a2.113,2.113,0,1,1-.233,1.6A2.1,2.1,0,0,1,83.3,89.328Zm12.6,22.363a2.082,2.082,0,0,1-1.373.509,2.11,2.11,0,0,1-1.377-3.715,2.081,2.081,0,0,1,1.373-.512,2.113,2.113,0,0,1,1.377,3.718Z"/><path id="path7727" d="M75,43.205c.07.019.142.034.212.046A1.9,1.9,0,0,1,75,43.205Z"/><path id="path7729" d="M96.951,30.2a6.121,6.121,0,1,0-11,4.821,13.355,13.355,0,0,1-9.942,4.293A29.152,29.152,0,0,0,66,37v4a24.821,24.821,0,0,1,8.748,2.136.088.088,0,0,1,.015,0,21.591,21.591,0,0,1,8.607,7.041,6.309,6.309,0,0,0-.382.538,6.125,6.125,0,1,0,8.448-1.91,6.223,6.223,0,0,0-4.667-.755,25.983,25.983,0,0,0-5.345-5.566,16.344,16.344,0,0,0,7.78-5.1,6.141,6.141,0,0,0,1.77.267A6.125,6.125,0,0,0,96.951,30.2ZM86.38,52.852a2.075,2.075,0,0,1,.673-.661A2.114,2.114,0,1,1,88.161,56.1a2.1,2.1,0,0,1-1.124-.327A2.128,2.128,0,0,1,86.38,52.852Zm6.379-20.188a2.143,2.143,0,0,1-2.912.653l-.1-.063a2.111,2.111,0,1,1,3.287-2.175A2.072,2.072,0,0,1,92.759,32.664Z"/><path id="path7731" d="M105.646,71.188a6.04,6.04,0,0,0,2.109,2.649c.072.052.151.1.283.191a6.12,6.12,0,1,0,3.271-11.292c-.125,0-.25.008-.375.018a25.736,25.736,0,0,1,.035-11.265c.112.011.225.024.337.024a6.124,6.124,0,1,0-4.146-1.626c.021.02.048.037.071.059a28.635,28.635,0,0,0-.036,14.417c-.144.132-.294.254-.426.4a6.231,6.231,0,0,0-.634.824,6.166,6.166,0,0,0-.71,1.578A15.208,15.208,0,0,0,98.6,69.893c-2.035,1.324-3.961,2.572-9.636,2.665a32.655,32.655,0,0,0-5.29-.116c-1.431.052-2.91.106-4.849,0-1.335-.071-2.1-.882-3.458-2.424C73.565,67.966,71.149,65.373,66,65v4c3.3.3,4.8,1.888,6.356,3.667,1.487,1.694,3.175,3.615,6.256,3.782,2.118.114,3.76.052,5.208,0a24.2,24.2,0,0,1,7.855.684c2.607.643,12.1,9.673,14.773,14.322-.108.142-.219.282-.313.434a6.1,6.1,0,0,0,1.619,8.251c.072.052.151.1.283.191a6.12,6.12,0,1,0,3.271-11.293,6.179,6.179,0,0,0-1.543.2c-2.561-4.187-8.652-10.455-13.189-13.792a18.225,18.225,0,0,0,4.212-2.188,11.348,11.348,0,0,1,4.859-2.065Zm3.88-26.925a2.111,2.111,0,1,1,3.566,2.259,2.142,2.142,0,0,1-2.912.653l-.094-.063A2.1,2.1,0,0,1,109.526,44.263Zm0,23.463a2.111,2.111,0,1,1,3.566,2.26,2.142,2.142,0,0,1-2.912.652l-.094-.063A2.1,2.1,0,0,1,109.526,67.726Zm0,26.3a2.111,2.111,0,1,1,3.566,2.26,2.143,2.143,0,0,1-2.912.653l-.094-.063A2.1,2.1,0,0,1,109.526,94.029Z"/></g><g id="g7733"><g id="g7735"><path id="path7737" d="M99.176,109.1a6.118,6.118,0,0,0-10.718,4.735,19.88,19.88,0,0,1-5.328,1.332,4.038,4.038,0,0,1-2.224-.972,10.711,10.711,0,0,0-4.148-1.847,37.637,37.637,0,0,0,8.584-12.834,6.117,6.117,0,1,0-5.481-9.244,6.124,6.124,0,0,0,1.624,8.065c-4.053,9.218-9.219,13.081-12.565,14.685a1.975,1.975,0,0,0-.36.168A11.309,11.309,0,0,1,66,114v4a12.581,12.581,0,0,0,4.247-1.192c5.348-1.357,6.839-.354,8.407.709a7.873,7.873,0,0,0,4.263,1.656c.1,0,.2.008.309.008a23.592,23.592,0,0,0,7.021-1.723,6.134,6.134,0,0,0,4.285,1.75h0a6.119,6.119,0,0,0,4.643-10.1ZM83.3,92.328a2.113,2.113,0,1,1-.233,1.6A2.1,2.1,0,0,1,83.3,92.328Zm12.6,22.363a2.082,2.082,0,0,1-1.373.509,2.11,2.11,0,0,1-1.377-3.715,2.081,2.081,0,0,1,1.373-.512,2.113,2.113,0,0,1,1.377,3.718Z" fill="#d3562c"/><path id="path7739" d="M75,45.611c.07.019.142.034.212.046C75.141,45.645,75.071,45.629,75,45.611Z"/><path id="path7741" d="M96.951,33.208a6.121,6.121,0,1,0-11,4.821,13.355,13.355,0,0,1-9.942,4.293,29.152,29.152,0,0,0-10-2.317v4a24.821,24.821,0,0,1,8.748,2.136.088.088,0,0,1,.015.005,21.591,21.591,0,0,1,8.607,7.041,6.309,6.309,0,0,0-.382.538,6.125,6.125,0,1,0,8.448-1.91,6.223,6.223,0,0,0-4.667-.755,25.983,25.983,0,0,0-5.345-5.566,16.344,16.344,0,0,0,7.78-5.1,6.141,6.141,0,0,0,1.77.267,6.125,6.125,0,0,0,5.976-7.453ZM86.38,55.856a2.075,2.075,0,0,1,.673-.661,2.114,2.114,0,1,1,1.108,3.912,2.1,2.1,0,0,1-1.124-.327A2.128,2.128,0,0,1,86.38,55.856Zm6.379-20.188a2.143,2.143,0,0,1-2.912.653l-.1-.063a2.111,2.111,0,1,1,3.287-2.175A2.072,2.072,0,0,1,92.759,35.668Z" fill="#d3562c"/><path id="path7743" d="M105.646,74.188a6.04,6.04,0,0,0,2.109,2.649c.072.052.151.1.283.191a6.12,6.12,0,1,0,3.271-11.292c-.125,0-.25.008-.375.018a25.736,25.736,0,0,1,.035-11.265c.112.011.225.024.337.024a6.124,6.124,0,1,0-4.146-1.626c.021.02.048.037.071.059a28.635,28.635,0,0,0-.036,14.417c-.144.132-.294.254-.426.4a6.231,6.231,0,0,0-.634.824,6.166,6.166,0,0,0-.71,1.578A15.208,15.208,0,0,0,98.6,72.893c-2.035,1.324-3.961,2.572-9.636,2.665a32.655,32.655,0,0,0-5.29-.116c-1.431.052-2.91.106-4.849,0-1.335-.071-2.1-.882-3.458-2.424C73.565,70.966,71.149,68.373,66,68v4c3.3.3,4.8,1.888,6.356,3.667,1.487,1.694,3.175,3.615,6.256,3.782,2.118.114,3.76.052,5.208,0a24.2,24.2,0,0,1,7.855.684c2.607.643,12.1,9.673,14.773,14.322-.108.142-.219.282-.313.434a6.1,6.1,0,0,0,1.619,8.251c.072.052.151.1.283.191a6.12,6.12,0,1,0,3.271-11.293,6.179,6.179,0,0,0-1.543.2c-2.561-4.187-8.652-10.455-13.189-13.792a18.225,18.225,0,0,0,4.212-2.188,11.348,11.348,0,0,1,4.859-2.065Zm3.88-26.925a2.111,2.111,0,1,1,3.566,2.259,2.142,2.142,0,0,1-2.912.653l-.094-.063A2.1,2.1,0,0,1,109.526,47.263Zm0,23.463a2.111,2.111,0,1,1,3.566,2.26,2.142,2.142,0,0,1-2.912.652l-.094-.063A2.1,2.1,0,0,1,109.526,70.726Zm0,26.3a2.111,2.111,0,1,1,3.566,2.26,2.143,2.143,0,0,1-2.912.653l-.094-.063A2.1,2.1,0,0,1,109.526,97.029Z" fill="#d3562c"/></g><g id="g7745"><path id="path7747" d="M99.176,106.1a6.118,6.118,0,0,0-10.718,4.735,19.88,19.88,0,0,1-5.328,1.332,4.038,4.038,0,0,1-2.224-.972,10.711,10.711,0,0,0-4.148-1.847,37.637,37.637,0,0,0,8.584-12.834,6.117,6.117,0,1,0-5.481-9.244,6.124,6.124,0,0,0,1.624,8.065c-4.053,9.218-9.219,13.081-12.565,14.685a1.975,1.975,0,0,0-.36.168A11.309,11.309,0,0,1,66,111v4a12.581,12.581,0,0,0,4.247-1.192c5.348-1.357,6.839-.354,8.407.709a7.873,7.873,0,0,0,4.263,1.656c.1,0,.2.008.309.008a23.592,23.592,0,0,0,7.021-1.723,6.134,6.134,0,0,0,4.285,1.75h0a6.119,6.119,0,0,0,4.643-10.1ZM83.3,89.328a2.113,2.113,0,1,1-.233,1.6A2.1,2.1,0,0,1,83.3,89.328Zm12.6,22.363a2.082,2.082,0,0,1-1.373.509,2.11,2.11,0,0,1-1.377-3.715,2.081,2.081,0,0,1,1.373-.512,2.113,2.113,0,0,1,1.377,3.718Z" fill="#fffedb"/><path id="path7749" d="M75,43.205c.07.019.142.034.212.046A1.9,1.9,0,0,1,75,43.205Z" fill="#fffedb"/><path id="path7751" d="M96.951,30.2a6.121,6.121,0,1,0-11,4.821,13.355,13.355,0,0,1-9.942,4.293A29.152,29.152,0,0,0,66,37v4a24.821,24.821,0,0,1,8.748,2.136.088.088,0,0,1,.015,0,21.591,21.591,0,0,1,8.607,7.041,6.309,6.309,0,0,0-.382.538,6.125,6.125,0,1,0,8.448-1.91,6.223,6.223,0,0,0-4.667-.755,25.983,25.983,0,0,0-5.345-5.566,16.344,16.344,0,0,0,7.78-5.1,6.141,6.141,0,0,0,1.77.267A6.125,6.125,0,0,0,96.951,30.2ZM86.38,52.852a2.075,2.075,0,0,1,.673-.661A2.114,2.114,0,1,1,88.161,56.1a2.1,2.1,0,0,1-1.124-.327A2.128,2.128,0,0,1,86.38,52.852Zm6.379-20.188a2.143,2.143,0,0,1-2.912.653l-.1-.063a2.111,2.111,0,1,1,3.287-2.175A2.072,2.072,0,0,1,92.759,32.664Z" fill="#fffedb"/><path id="path7753" d="M105.646,71.188a6.04,6.04,0,0,0,2.109,2.649c.072.052.151.1.283.191a6.12,6.12,0,1,0,3.271-11.292c-.125,0-.25.008-.375.018a25.736,25.736,0,0,1,.035-11.265c.112.011.225.024.337.024a6.124,6.124,0,1,0-4.146-1.626c.021.02.048.037.071.059a28.635,28.635,0,0,0-.036,14.417c-.144.132-.294.254-.426.4a6.231,6.231,0,0,0-.634.824,6.166,6.166,0,0,0-.71,1.578A15.208,15.208,0,0,0,98.6,69.893c-2.035,1.324-3.961,2.572-9.636,2.665a32.655,32.655,0,0,0-5.29-.116c-1.431.052-2.91.106-4.849,0-1.335-.071-2.1-.882-3.458-2.424C73.565,67.966,71.149,65.373,66,65v4c3.3.3,4.8,1.888,6.356,3.667,1.487,1.694,3.175,3.615,6.256,3.782,2.118.114,3.76.052,5.208,0a24.2,24.2,0,0,1,7.855.684c2.607.643,12.1,9.673,14.773,14.322-.108.142-.219.282-.313.434a6.1,6.1,0,0,0,1.619,8.251c.072.052.151.1.283.191a6.12,6.12,0,1,0,3.271-11.293,6.179,6.179,0,0,0-1.543.2c-2.561-4.187-8.652-10.455-13.189-13.792a18.225,18.225,0,0,0,4.212-2.188,11.348,11.348,0,0,1,4.859-2.065Zm3.88-26.925a2.111,2.111,0,1,1,3.566,2.259,2.142,2.142,0,0,1-2.912.653l-.094-.063A2.1,2.1,0,0,1,109.526,44.263Zm0,23.463a2.111,2.111,0,1,1,3.566,2.26,2.142,2.142,0,0,1-2.912.652l-.094-.063A2.1,2.1,0,0,1,109.526,67.726Zm0,26.3a2.111,2.111,0,1,1,3.566,2.26,2.143,2.143,0,0,1-2.912.653l-.094-.063A2.1,2.1,0,0,1,109.526,94.029Z" fill="#fffedb"/></g></g></g></g></g></g></svg>