<svg id="Layer_1" data-name="Layer 1" xmlns="http://www.w3.org/2000/svg" xmlns:xlink="http://www.w3.org/1999/xlink" viewBox="0 0 171.59 200"><defs><style>.cls-1{fill:#888;}.cls-2{fill:#fff;}.cls-3{fill:url(#radial-gradient);}.cls-4{fill:#0000a0;}.cls-5{fill:red;}</style><radialGradient id="radial-gradient" cx="50.04" cy="257.33" r="32.92" gradientTransform="matrix(1, 0, 0, -1, 0, 393.27)" gradientUnits="userSpaceOnUse"><stop offset="0.52" stop-color="#ffe41b"/><stop offset="0.89" stop-color="#716a13"/><stop offset="1" stop-color="#49482e"/></radialGradient></defs><title>3DO_Logo</title><path class="cls-1" d="M14.2,194.37c0-3.1,14.36-5.62,32.07-5.62s32.07,2.52,32.07,5.62S64,200,46.27,200,14.2,197.48,14.2,194.37Z" transform="translate(-14.2)"/><rect x="89.24" width="82.35" height="200"/><path class="cls-2" d="M140.69,166.59h.13q.18-9,3.59-13.32a10.28,10.28,0,0,1,8.27-4.3q5.41,0,8.93,4.9t3.52,13q0,7-2.8,10.86t-6.39,3.83a4.79,4.79,0,0,1-3.84-1.72,6.54,6.54,0,0,1-.19-8,4.09,4.09,0,0,1,3.37-1.61q2.79,0,4.68,3.74c.25.49.53.75.84.75.57,0,1.07-.7,1.51-2.11a14.48,14.48,0,0,0,.64-4.29q0-7.22-10.59-7.21t-10.49,8.65l.19,4.8c0,1-.35,1.45-1.07,1.45s-1.23-.51-1.23-1.52l.13-3.49q0-5.34-2.37-7.16a10.94,10.94,0,0,0-6.76-1.82q-4.51,0-6.64,1.38c-1.42.91-2.12,2.49-2.12,4.71a9.38,9.38,0,0,0,.61,3.41c.41,1.06.81,1.6,1.21,1.6s.75-.35,1.15-1c1.17-1.83,2.43-2.75,3.8-2.75a3.83,3.83,0,0,1,3.2,1.54,5.55,5.55,0,0,1,1.19,3.47,6.3,6.3,0,0,1-1.36,4,4.15,4.15,0,0,1-3.38,1.75q-3.43,0-5.95-3.88a18,18,0,0,1-2.51-10,21.24,21.24,0,0,1,2.84-11.33c1.9-3.09,4.32-4.63,7.3-4.63Q138.86,150.26,140.69,166.59Z" transform="translate(-14.2)"/><path class="cls-2" d="M121.93,112.31h40.21v-3.94q0-9-4.74-10.91t-16.2-1.87q-9,0-12.89,1.15c-2.61.76-4.33,1.93-5.15,3.49a12.75,12.75,0,0,0-1.23,6v6.13Zm40.21,12.16H121.93v6.31h-2.18V105.5q0-10.95,6.22-17.35a21,21,0,0,1,15.69-6.39,22,22,0,0,1,9.23,1.95,23.06,23.06,0,0,1,7.86,6A19.73,19.73,0,0,1,163.3,98a45.8,45.8,0,0,1,1,10.47v22.3h-2.17v-6.31Z" transform="translate(-14.2)"/><path class="cls-2" d="M142.06,33.09a133.32,133.32,0,0,0-13.49.42,9.68,9.68,0,0,0-5.26,2.19c-1.32,1.17-2,3.11-2,5.8a8.51,8.51,0,0,0,1.61,5.44,7.66,7.66,0,0,0,5.17,2.52A123.15,123.15,0,0,0,142,50a131,131,0,0,0,13.53-.43,9.13,9.13,0,0,0,5.27-2.26q2-1.83,2-5.77a8.52,8.52,0,0,0-1.58-5.32A7.48,7.48,0,0,0,156,33.61,118.06,118.06,0,0,0,142.06,33.09Zm-.19,30.7q-10,0-16.37-6.6a22,22,0,0,1-6.35-15.83,22.51,22.51,0,0,1,6-15.34q6-6.76,17-6.76,10.34,0,16.57,6.39a21.59,21.59,0,0,1,6.23,15.63q0,10-6.62,16.24A22.94,22.94,0,0,1,141.87,63.79Z" transform="translate(-14.2)"/><path class="cls-3" d="M19,141.33a27.26,27.26,0,1,1,27.26,27.32A27.29,27.29,0,0,1,19,141.33Z" transform="translate(-14.2)"/><path class="cls-4" d="M20.88,70.06c-4,2.68-5.08,18.22-5.08,18.22s1.07,15.54,5.08,18.21,25.39,4.29,25.39,4.29,21.38-1.61,25.39-4.29,5.08-18.21,5.08-18.21-1.07-15.55-5.08-18.22-25.39-4.29-25.39-4.29S24.89,67.38,20.88,70.06Z" transform="translate(-14.2)"/><polygon class="cls-5" points="32.07 0 64 32.01 32.07 64.02 0.14 32.01 32.07 0"/></svg>