<svg id="Capa_1" data-name="Capa 1" xmlns="http://www.w3.org/2000/svg" viewBox="0 0 349.389 492.536"><title>bookmark</title><path d="M202.839,316.137a169.288,169.288,0,0,1-119.98-49.613c-66.137-66.142-66.137-173.759,0-239.9A169,169,0,0,1,117.388,0H39.91A39.918,39.918,0,0,0,0,39.905V483.19a9.358,9.358,0,0,0,15.388,7.149l98.756-83.246a9.351,9.351,0,0,1,12.064,0l98.76,83.246a9.358,9.358,0,0,0,15.383-7.149V311.974A170.173,170.173,0,0,1,202.839,316.137Z" fill="#fff"/><path d="M306.5,42.891c-57.157-57.183-150.183-57.193-207.381,0-57.157,57.157-57.157,150.209,0,207.37,57.2,57.158,150.224,57.178,207.381,0C363.683,193.078,363.683,100.039,306.5,42.891Zm-31.4,175.954a102.212,102.212,0,1,1,0-144.552A102.32,102.32,0,0,1,275.106,218.845Z" fill="#fff"/><path d="M229.481,119.913V86.575a26.648,26.648,0,1,0-53.3-.02V119.9H142.817a26.658,26.658,0,1,0,0,53.315h33.368v33.347a26.658,26.658,0,0,0,26.648,26.668,26.63,26.63,0,0,0,26.648-26.656V173.24h33.324a26.665,26.665,0,1,0,0-53.329H229.481Z" fill="#fff"/></svg>