<svg id="Layer_1" data-name="Layer 1" xmlns="http://www.w3.org/2000/svg" viewBox="0 0 112 104"><title>amigacd32_light</title><path d="M0,12.614V37.846A12.481,12.481,0,0,0,12.336,50.459H39.373A12.48,12.48,0,0,0,51.708,37.846l0-6.447H39.467v2.426a5.2,5.2,0,0,1-5.3,5.422H17.358a5.2,5.2,0,0,1-5.3-5.422V17.757a5.2,5.2,0,0,1,5.3-5.422H33.071a5.2,5.2,0,0,1,5.3,5.422v1.307H50.608l0-6.45A12.481,12.481,0,0,0,38.277,0H12.336A12.481,12.481,0,0,0,0,12.614Z" fill="#c4c4c4"/><path d="M59.2,50.459H98.569A13.743,13.743,0,0,0,112,36.723V13.737A13.743,13.743,0,0,0,98.569,0H59.2ZM71.258,39.247V11.212H92.909a6.934,6.934,0,0,1,6.85,7.012V32.239a6.933,6.933,0,0,1-6.85,7.008Z" fill="#c4c4c4"/><path d="M72.135,77.624c-6.868,0-13.866,3.625-13.866,10.555v6.409l.068.006v9.267H112V93.94H73.334c-4.982-1.269.478-5.328,3.01-5.622H99.566A12.5,12.5,0,0,0,112,75.77V69.355A12.494,12.494,0,0,0,99.566,56.808H72.235c-6.867,0-13.966,4.052-13.966,10.983V74.2H71.783V72.9a5.208,5.208,0,0,1,5.346-5.391H94.5a5.062,5.062,0,1,1,0,10.109Z" fill="#e60000"/><path d="M41.669,80.37c5.2-.39,9-2.011,9-7.735V66.22c0-6.924-5.572-9.412-12.434-9.412H13.967C7.107,56.808,0,60.86,0,67.791V74.2H13.521V72.9a5.2,5.2,0,0,1,5.341-5.391H33.167c2.973,0,5.179.553,5.336,3.487a5.184,5.184,0,0,1-5.336,5.051l-11.628.007v8.708H34.7a5.187,5.187,0,0,1,5.333,5.058C39.877,92.753,37.673,93.3,34.7,93.3H18.862a5.2,5.2,0,0,1-5.341-5.385V86.608H0v6.415C0,99.947,7.107,104,13.967,104H39.772c7.834-.139,12.433-4.053,12.433-10.977V88.179C52.205,81.9,47.632,80.565,41.669,80.37Z" fill="#e60000"/></svg>