<svg xmlns="http://www.w3.org/2000/svg" viewBox="0 0 112 104"><title>amstradcpc_light</title><g id="Layer_2" data-name="Layer 2"><rect y="66.192" width="112" height="37.808" rx="2.439" ry="2.439" fill="#c4c4c4"/><rect x="74.345" y="86.163" width="30.998" height="11.281" rx="2.439" ry="2.439" fill="#00007f"/><rect x="40.501" y="86.163" width="30.998" height="11.281" rx="2.439" ry="2.439" fill="#007f00"/><rect x="6.657" y="86.163" width="30.998" height="11.281" rx="2.439" ry="2.439" fill="#7f0000"/><rect x="74.345" y="72.748" width="30.998" height="11.281" rx="2.439" ry="2.439" fill="#00007f"/><rect x="40.501" y="72.748" width="30.998" height="11.281" rx="2.439" ry="2.439" fill="#007f00"/><rect x="6.657" y="72.748" width="30.998" height="11.281" rx="2.439" ry="2.439" fill="#7f0000"/></g><g id="Layer_3" data-name="Layer 3"><path d="M112,15.614V0L86.175.035a5.912,5.912,0,0,0-5.894,5.9v47.6a5.912,5.912,0,0,0,5.894,5.895L112,59.46V43.846h-5.754v9.859H87.719a1.689,1.689,0,0,1-1.684-1.684V7.439a1.689,1.689,0,0,1,1.684-1.685h18.527v9.86Z" fill="#c4c4c4"/><path d="M31.719,15.614V0L5.9.035A5.913,5.913,0,0,0,0,5.93v47.6a5.913,5.913,0,0,0,5.9,5.895l25.824.035V43.846H25.965v9.859H7.439a1.689,1.689,0,0,1-1.685-1.684V7.439A1.69,1.69,0,0,1,7.439,5.754H25.965v9.86Z" fill="#c4c4c4"/><path d="M68.211.035H38.316V5.754h4.007V53.705H37.818V59.46H52.582V53.705H48.077V31.368H68.211a5.911,5.911,0,0,0,5.894-5.894V5.93A5.912,5.912,0,0,0,68.211.035Zm.14,23.93a1.689,1.689,0,0,1-1.684,1.684H48.077V5.754h18.59a1.689,1.689,0,0,1,1.684,1.685Z" fill="#c4c4c4"/></g></svg>