<svg id="Layer_1" data-name="Layer 1" xmlns="http://www.w3.org/2000/svg" viewBox="0 0 112 112"><title>Amstrad_light_SVG</title><polygon points="112 0.36 112 0 45.73 0 0 93.67 0 112 57.5 112 112 0.36" fill="#820000"/><path d="M20.06,0H6.48L0,41.45H9.92l1.35-8.85h4.57l1.22,8.85H27.89ZM11.84,26.3,13.58,6.79,15.32,26.3Z" fill="#c4c4c4"/><polygon points="29.99 41.45 29.99 0 45.14 0 48.44 18.51 51.81 0 66.49 0 66.49 41.45 56.16 41.45 56.16 16.55 51.52 41.45 45.37 41.45 40.55 16.55 40.67 41.45 29.99 41.45" fill="#c4c4c4"/><path d="M95.44,14.25V9.16c0-9-5.23-8.62-5.23-8.62H73c-4.93,0-4.29,6.1-4.29,6.1v8.44c0,3.52,7,6.09,7,6.09s8.07,2.57,8.07,5.35v7.09a1.14,1.14,0,0,1-1.081,1.2,1.128,1.128,0,0,1-.259-.016H81.22c-1.68,0-1.33-1.92-1.33-1.92V24.61H68.72V37.05c0,4.48,7.51,4.4,7.51,4.4H89.29c6.2,0,6.15-5.44,6.15-5.44V23.1c0-3.06-7-5.67-8.5-6.3s-7.11-1.55-7.11-5.7V7.83c0-1.13,1.31-1.09,1.31-1.09H82.5a.94.94,0,0,1,1,1.18v6.37Z" fill="#c4c4c4"/><polygon points="23.41 44.99 0 44.99 0 51.37 5.74 51.37 5.74 85.89 17.41 85.89 17.41 51.37 23.41 51.37 23.41 44.99" fill="#c4c4c4"/><path d="M47.49,65.83S52,64.75,52,61V49.52S52.19,45,44.7,45H26.31V85.9H37.39V69.27s3.6,0,3.6,1.7V85.89H52V70.58S51.43,65.83,47.49,65.83ZM41,60.74c0,1.35-3.6,1.13-3.6,1.13V51.47c3.66,0,3.6,1.14,3.6,1.14Z" fill="#c4c4c4"/><path d="M75.32,45H61.74L55.26,86.43h9.92l1.35-8.84H71.1l1.22,8.84H83.15ZM67.1,71.29l1.74-19.51,1.74,19.51Z" fill="#c4c4c4"/><path d="M106.55,45.51H85.49V85.89h22s4.47.18,4.47-7.18V52.13S112,45.51,106.55,45.51ZM96.92,79.45v-28s3.36-.82,3.36,4.05V77.3S100.86,79.45,96.92,79.45Z" fill="#c4c4c4"/><path d="M112,95.78V90h-9.56a2.189,2.189,0,0,0-2.18,2.18V109.8a2.189,2.189,0,0,0,2.18,2.18H112V106.2h-2.13v3.65H103a.63.63,0,0,1-.63-.62V92.75a.63.63,0,0,1,.63-.62h6.85v3.65Z" fill="#c4c4c4"/><path d="M82.3,95.78V90H72.74a2.189,2.189,0,0,0-2.18,2.18V109.8a2.19,2.19,0,0,0,2.18,2.2H82.3v-5.78H80.17v3.65H73.31a.621.621,0,0,1-.62-.62h0V92.75a.621.621,0,0,1,.62-.62h6.86v3.65Z" fill="#c4c4c4"/><path d="M95.8,90H84.74v2.12h1.48v17.74H84.55V112H90v-2.13H88.35v-8.26H95.8A2.19,2.19,0,0,0,98,99.43h0V92.19A2.189,2.189,0,0,0,95.81,90Zm0,7.84v1a.621.621,0,0,1-.62.62H88.35V92.13h6.88a.621.621,0,0,1,.62.62h0v5.1Z" fill="#c4c4c4"/></svg>