<svg xmlns="http://www.w3.org/2000/svg" viewBox="0 0 508.51999 508.51999"><title>announce800</title><path d="M254.26,32a222.327,222.327,0,0,1,86.49929,427.06585A222.32319,222.32319,0,0,1,167.76071,49.45413,220.81417,220.81417,0,0,1,254.26,32m0-32C113.845,0,0,113.845,0,254.26S113.845,508.52,254.26,508.52,508.52,394.675,508.52,254.26,394.675,0,254.26,0Z" transform="translate(0.00001)" fill="#fff"/><path d="M286.042,381.39a31.782,31.782,0,1,1-63.564,0V222.477a31.782,31.782,0,1,1,63.564,0Z" transform="translate(0.00001)" fill="#fff"/><circle cx="254.26" cy="127.63901" r="31.782" fill="#fff"/></svg>