<svg xmlns="http://www.w3.org/2000/svg" viewBox="0 0 191.42912 226.4834"><path d="M177.11045,80.54365q2.92523-2.91618,6.31281-5.74385l.37841-.31591-.31054-.38282a55.58645,55.58645,0,0,0-43.542-21.15332c-9.19043-.10791-17.31348,1.55616-23.46778,4.79932a48.03581,48.03581,0,0,1-13.54248,4.98535c-.45019.064-6.13965.04053-6.61523-.02734L96.185,62.687a43.83646,43.83646,0,0,1-13.92627-4.09277,47.80883,47.80883,0,0,0-22.9458-5.67383c-20.39941.227-37.45923,10.1623-48.05405,27.6239L96.17374,93.2832Z" fill="#309e22"/><path d="M159.988,109.54087c2.00614-9.708,7.4477-19.12795,16.28243-28.14634l.83252-.8501H11.26554l-.146.2417A78.13979,78.13979,0,0,0,1.06062,109.541l95.11312,8.82554Z" fill="#fedc14"/><path d="M163.88407,138.18556a44.06367,44.06367,0,0,1-3.97351-28.04933l.11572-.59521H1.0883l-.0625.42724A102.934,102.934,0,0,0,.91674,138.185l98.99309,7.84821Z" fill="#fb7410"/><path d="M190.99259,165.7207a62.53228,62.53228,0,0,1-26.98144-27.25488l-.13721-.28027H.91837l.07569.5664A126.953,126.953,0,0,0,8.72533,168.2373l86.98431,9.53858,94.65617-9.53858,1.06331-2.30078Z" fill="#f01d1e"/><path d="M8.72533,168.2373l.27217.68838A148.54388,148.54388,0,0,0,24.461,197.63335l74.67256,6.89985,76.28113-6.9326c5.67036-9.24974,10.39551-19.47909,14.6331-28.65333l.32764-.71Z" fill="#8b1f8a"/><path d="M24.44132,197.60059l.54444.78515a171.88415,171.88415,0,0,0,16.69433,20.43555c5.22412,5.49121,13.397,7.66211,21.28223,7.66211,6.6958,0,13.18457-1.56641,17.479-3.99414,9.03272-5.10742,13.81934-5.11719,17.31446-5.12305.70214-.00195,1.35791-.00293,1.98925-.042l.56885-.03711c3.49512-.23047,8.28174-.54883,18.55957,5.25781,22.12988,9.26367,39.93213,1.57813,56.02686-24.17969l.478-.76464Z" fill="#004fee"/><path d="M139.2631.12744C109.63029,6.18994,94.32658,24.7627,93.77628,55.33008l-.01074.59472.58789-.09179c14.11719-2.21045,24.60694-7.26514,32.06934-15.45264,8.4375-9.25732,12.834-22.2583,13.43994-39.74609L139.88468,0Z" fill="#309e22"/></svg>