<svg id="Layer_1" data-name="Layer 1" xmlns="http://www.w3.org/2000/svg" viewBox="0 0 36 36"><title>applications</title><polygon points="18 22 0 29 0 14 18 7 18 22" fill="#891212"/><polygon points="36 14 18 7 18 22 36 29 36 14" fill="#891212"/><circle cx="17.5" cy="12.5" r="2.5" fill="#891212"/><path d="M17.5,0A12.5,12.5,0,1,0,30,12.5,12.5,12.5,0,0,0,17.5,0Zm0,14.8a2.3,2.3,0,1,1,2.3-2.3A2.3,2.3,0,0,1,17.5,14.8Z" fill="#90caf9"/><path d="M14.677,13.843,7,19.344a15.368,15.368,0,0,0,4.188,4l5.429-7.533A2.952,2.952,0,0,1,14.677,13.843Z" fill="#cfe8f9"/><path d="M24.27,2,18.3,10.164a2.954,2.954,0,0,1,1.99,1.895l8.118-5.648A12.56,12.56,0,0,0,24.27,2Z" fill="#cfe8f9"/><polygon points="18 21 0 14 0 29 18 36 18 21" fill="#f44336"/><polygon points="36 29 18 36 18 21 36 14 36 29" fill="#c62828"/><path d="M17.5,9A3.5,3.5,0,1,0,21,12.5,3.5,3.5,0,0,0,17.5,9Zm0,5A1.5,1.5,0,1,1,19,12.5,1.5,1.5,0,0,1,17.5,14Z" fill="#1e88e5"/></svg>