<svg id="Layer_1" data-name="Layer 1" xmlns="http://www.w3.org/2000/svg" xmlns:xlink="http://www.w3.org/1999/xlink" viewBox="0 0 46 42.0001"><defs><linearGradient id="linear-gradient" x1="23" y1="40" x2="23" y2="2" gradientUnits="userSpaceOnUse"><stop offset="0" stop-color="#7a2325"/><stop offset="1" stop-color="#c09a9a"/></linearGradient></defs><title>arrow_dark</title><path d="M24,0a2,2,0,0,0-2,2V12H2a2,2,0,0,0-2,2V28a2,2,0,0,0,2,2H22V40a2,2,0,0,0,3.3775,1.45l20-19a2,2,0,0,0,0-2.9l-20-19A2,2,0,0,0,24,0Z" fill="#5a2123"/><polygon points="44 21 24 2 24 14 2 14 2 28 24 28 24 40 44 21" fill="url(#linear-gradient)"/></svg>