<svg id="Layer_2" data-name="Layer 2" xmlns="http://www.w3.org/2000/svg" xmlns:xlink="http://www.w3.org/1999/xlink" viewBox="0 0 1574 523"><defs><linearGradient id="linear-gradient" x1="744.426" y1="-85.24" x2="829.574" y2="608.24" gradientUnits="userSpaceOnUse"><stop offset="0.35" stop-color="#a7a9ac"/><stop offset="0.57" stop-color="#231f20"/></linearGradient><linearGradient id="linear-gradient-2" x1="787" y1="8.5" x2="787" y2="514.5" gradientUnits="userSpaceOnUse"><stop offset="0" stop-color="#808285"/><stop offset="1" stop-color="#363436"/></linearGradient><linearGradient id="linear-gradient-3" x1="26.52" y1="131.195" x2="186.147" y2="265.138" gradientTransform="translate(-91.833 304.5) rotate(-90)" gradientUnits="userSpaceOnUse"><stop offset="0" stop-color="#feda00"/><stop offset="0.151" stop-color="#fdd601"/><stop offset="0.307" stop-color="#fcc904"/><stop offset="0.466" stop-color="#f9b509"/><stop offset="0.627" stop-color="#f69810"/><stop offset="0.788" stop-color="#f17219"/><stop offset="0.95" stop-color="#eb4524"/></linearGradient><linearGradient id="linear-gradient-4" x1="165.904" y1="328.265" x2="208.763" y2="452.737" gradientTransform="translate(-203.167 577.834) rotate(-90)" gradientUnits="userSpaceOnUse"><stop offset="0.299" stop-color="#feda00"/><stop offset="0.41" stop-color="#fdd601"/><stop offset="0.526" stop-color="#fcc904"/><stop offset="0.643" stop-color="#f9b509"/><stop offset="0.762" stop-color="#f69810"/><stop offset="0.881" stop-color="#f17219"/><stop offset="1" stop-color="#eb4524"/></linearGradient><linearGradient id="linear-gradient-5" x1="465.473" y1="176.941" x2="585.791" y2="342.545" gradientTransform="matrix(1, 0, 0, 1, 0, 0)" xlink:href="#linear-gradient-3"/><linearGradient id="linear-gradient-6" x1="239.957" y1="182.863" x2="433.738" y2="182.863" gradientUnits="userSpaceOnUse"><stop offset="0.216" stop-color="#feda00"/><stop offset="0.333" stop-color="#fdd601"/><stop offset="0.454" stop-color="#fcc904"/><stop offset="0.576" stop-color="#f9b509"/><stop offset="0.701" stop-color="#f69810"/><stop offset="0.825" stop-color="#f17219"/><stop offset="0.95" stop-color="#eb4524"/></linearGradient><linearGradient id="linear-gradient-7" x1="628.213" y1="219.084" x2="819.776" y2="379.824" gradientTransform="matrix(1, 0, 0, 1, 0, 0)" xlink:href="#linear-gradient-3"/><linearGradient id="linear-gradient-8" x1="757.087" y1="47.991" x2="1093.804" y2="330.53" gradientUnits="userSpaceOnUse"><stop offset="0.5" stop-color="#feda00"/><stop offset="0.579" stop-color="#fdd601"/><stop offset="0.662" stop-color="#fcc904"/><stop offset="0.745" stop-color="#f9b509"/><stop offset="0.83" stop-color="#f69810"/><stop offset="0.915" stop-color="#f17219"/><stop offset="1" stop-color="#eb4524"/></linearGradient><linearGradient id="linear-gradient-9" x1="1170.944" y1="225.185" x2="1431.612" y2="443.911" gradientUnits="userSpaceOnUse"><stop offset="0" stop-color="#feda00"/><stop offset="0.159" stop-color="#fdd601"/><stop offset="0.323" stop-color="#fcc904"/><stop offset="0.491" stop-color="#f9b509"/><stop offset="0.66" stop-color="#f69810"/><stop offset="0.83" stop-color="#f17219"/><stop offset="1" stop-color="#eb4524"/></linearGradient><linearGradient id="linear-gradient-10" x1="1363.053" y1="81.398" x2="1431.733" y2="139.028" xlink:href="#linear-gradient-9"/></defs><title>atarilynx -3</title><path d="M1520.5,0H53.5A53.561,53.561,0,0,0,0,53.5v416A53.561,53.561,0,0,0,53.5,523h1467a53.561,53.561,0,0,0,53.5-53.5V53.5A53.561,53.561,0,0,0,1520.5,0Z" fill="#231f20"/><path d="M1520.5,0H53.5A53.561,53.561,0,0,0,0,53.5v416A53.561,53.561,0,0,0,53.5,523h1467a53.561,53.561,0,0,0,53.5-53.5V53.5A53.561,53.561,0,0,0,1520.5,0Z" fill="url(#linear-gradient)"/><rect x="8.5" y="8.5" width="1557" height="506" rx="45" ry="45" fill="url(#linear-gradient-2)"/><path d="M166,335.833H60.667V92.5H166ZM328,366.5H60.667v80H328Zm261.333-274-198,243.333V446.5H498V309.833L682.667,92.5ZM381.667,307.833,453.333,222.5,366,92.5H224.333ZM803,254.5l-106-126v318H803Zm188.333-162V354.143L794.333,92.5H704l283.333,354h48.334V92.5Zm55,354h138l71-39.333-64.666-62Zm95-185.333L1337.667,446.5h156.666L1301,273.133l-40,30.7-75.667-74Zm-70-168.667L1261,273.5l44.667-33,80,72,40-28.667-204-191.333Zm242,49.333L1372,197.167,1520.333,92.5h-140Z" fill="#231f20"/><polygon points="1513.333 76.5 1365 181.167 1306.333 125.833 1373.333 76.5 1513.333 76.5" fill="#b42326"/><polygon points="1214.667 76.5 1064.333 76.5 1254 257.5 1298.667 224.5 1378.667 296.5 1418.667 267.833 1214.667 76.5" fill="#b42326"/><polygon points="1294 257.133 1254 287.833 1178.333 213.833 1134.333 245.167 1330.667 430.5 1487.333 430.5 1294 257.133" fill="#b42326"/><polygon points="1183.667 329.167 1039.333 430.5 1177.333 430.5 1248.333 391.167 1183.667 329.167" fill="#b42326"/><polygon points="690 112.5 690 430.5 796 430.5 796 238.5 690 112.5" fill="#b42326"/><polygon points="582.333 76.5 384.333 319.833 384.333 430.5 491 430.5 491 293.833 675.667 76.5 582.333 76.5" fill="#b42226"/><rect x="53.667" y="350.5" width="267.333" height="80" fill="#b42226"/><polygon points="53.667 76.5 53.198 319.833 158.531 319.833 158.531 76.5 53.667 76.5" fill="#b42125"/><polygon points="359 76.5 217.333 76.5 374.667 291.833 446.333 206.5 359 76.5" fill="#b42125"/><polygon points="60.667 416.501 60.667 364.501 314 364.501 321 350.5 53.667 350.5 53.667 430.5 60.667 416.501" fill="#edcacb"/><polygon points="314 416.501 314 364.501 321 350.5 321 430.5 314 416.501" fill="#8f1a1c"/><polygon points="53.667 319.833 60.667 305.833 60.667 90.5 152 90.5 159 76.5 53.667 76.5 53.667 319.833" fill="#edcacb"/><polygon points="239.957 90.5 217.333 76.5 359 76.5 356.681 90.5 239.957 90.5" fill="#edcacb"/><polygon points="374.929 275.227 374.667 291.833 446.333 206.5 433.738 205.204 374.929 275.227" fill="#8e191b"/><polygon points="391.333 416.501 384.333 430.5 384.333 319.833 582.333 76.5 675.667 76.5 650.86 90.5 584.449 90.5 391.333 327.663 391.333 416.501" fill="#edcacb"/><polygon points="484 285.973 491 293.833 491 430.5 484 416.501 484 285.973" fill="#8e191b"/><polygon points="789 246.465 789 416.501 796 430.5 796 238.5 789 246.465" fill="#8e191b"/><polygon points="690 112.5 697 137.106 697 416.501 690 430.5 690 112.5" fill="#edcacb"/><polygon points="697 76.5 721.417 90.5 785.221 90.5 787.333 76.5 697 76.5" fill="#edcacb"/><polygon points="984.333 76.5 984.333 338.143 787.333 76.5 697 76.5 980.333 430.5 1028.667 430.5 1028.667 76.5 984.333 76.5" fill="#b42326"/><polygon points="1021.666 90.5 1028.667 76.5 984.333 76.5 984.333 338.143 991.333 364.247 991.333 90.5 1021.666 90.5" fill="#edcacb"/><polygon points="982.34 416.501 980.333 430.5 1028.667 430.5 1021.666 416.501 982.34 416.501" fill="#8e191b"/><polygon points="1228.467 387.645 1248.333 391.167 1177.333 430.5 1176.382 416.501 1228.467 387.645" fill="#8e191b"/><polygon points="1183.252 344.296 1183.667 329.167 1039.333 430.5 1080.408 416.501 1183.252 344.296" fill="#edcacb"/><polygon points="1152.655 246.981 1134.333 245.167 1178.333 213.833 1177.906 229 1152.655 246.981" fill="#edcacb"/><polygon points="1253.663 303.087 1254 287.833 1294 257.133 1293.791 272.29 1253.663 303.087" fill="#edcacb"/><polygon points="1095.258 90.5 1064.333 76.5 1214.667 76.5 1213.107 90.5 1095.258 90.5" fill="#edcacb"/><polygon points="1324.432 127.425 1374.581 90.5 1472.453 90.5 1513.333 76.5 1373.333 76.5 1306.333 125.833 1324.432 127.425" fill="#edcacb"/><polygon points="1378.963 281.417 1378.667 296.5 1418.667 267.833 1400.333 266.1 1378.963 281.417" fill="#8e191b"/><polygon points="1254.347 242.32 1254 257.5 1298.667 224.5 1298.927 209.383 1254.347 242.32" fill="#8e191b"/><polygon points="1365.384 166.05 1365 181.167 1513.333 76.5 1472.453 90.5 1365.384 166.05" fill="#8e191b"/><polygon points="1332.236 416.501 1330.667 430.5 1487.333 430.5 1454.612 416.501 1332.236 416.501" fill="#8e191b"/><polygon points="1080.408 416.501 1183.252 344.296 1228.467 387.645 1176.382 416.501 1080.408 416.501" fill="#d12128"/><polygon points="1298.927 209.383 1254.347 242.32 1095.258 90.5 1213.107 90.5 1400.333 266.1 1378.963 281.417 1298.927 209.383" fill="#d12128"/><rect x="-1.333" y="152.5" width="215.333" height="91.333" transform="translate(304.5 91.833) rotate(90)" fill="url(#linear-gradient-3)"/><rect x="161.333" y="263.834" width="52" height="253.333" transform="translate(577.834 203.167) rotate(90)" fill="url(#linear-gradient-4)"/><polygon points="391.333 416.501 391.333 327.663 584.449 90.5 650.86 90.5 484 285.973 484 416.501 391.333 416.501" fill="url(#linear-gradient-5)"/><polygon points="239.957 90.5 356.681 90.5 433.738 205.204 374.929 275.227 239.957 90.5" fill="url(#linear-gradient-6)"/><polygon points="697 416.501 697 137.106 789 246.465 789 416.501 697 416.501" fill="url(#linear-gradient-7)"/><polygon points="982.34 416.501 721.417 90.5 785.221 90.5 991.333 364.247 991.333 90.5 1021.666 90.5 1021.666 416.501 982.34 416.501" fill="url(#linear-gradient-8)"/><polygon points="1332.236 416.501 1152.655 246.981 1177.906 229 1253.663 303.087 1293.791 272.29 1454.612 416.501 1332.236 416.501" fill="url(#linear-gradient-9)"/><polygon points="1324.432 127.425 1374.581 90.5 1472.453 90.5 1365.384 166.05 1324.432 127.425" fill="url(#linear-gradient-10)"/></svg>