<svg id="Layer_2" data-name="Layer 2" xmlns="http://www.w3.org/2000/svg" xmlns:xlink="http://www.w3.org/1999/xlink" viewBox="0 0 1081.865 930.031"><defs><linearGradient id="linear-gradient" x1="477.396" y1="982.448" x2="604.469" y2="-52.479" gradientTransform="matrix(1, 0, 0, -1, 0, 930)" gradientUnits="userSpaceOnUse"><stop offset="0.35" stop-color="#a7a9ac"/><stop offset="0.57" stop-color="#231f20"/></linearGradient><linearGradient id="linear-gradient-2" x1="540.933" y1="921.5" x2="540.933" y2="8.469" gradientTransform="matrix(1, 0, 0, -1, 0, 930)" gradientUnits="userSpaceOnUse"><stop offset="0" stop-color="#808285"/><stop offset="1" stop-color="#363436"/></linearGradient><linearGradient id="linear-gradient-3" x1="162.481" y1="605.214" x2="205.186" y2="481.192" gradientTransform="matrix(1, 0, 0, -1, 0, 930)" gradientUnits="userSpaceOnUse"><stop offset="0.299" stop-color="#feda00"/><stop offset="0.41" stop-color="#fdd601"/><stop offset="0.526" stop-color="#fcc904"/><stop offset="0.643" stop-color="#f9b509"/><stop offset="0.762" stop-color="#f69810"/><stop offset="0.881" stop-color="#f17219"/><stop offset="1" stop-color="#eb4524"/></linearGradient><linearGradient id="linear-gradient-4" x1="23.534" y1="800.213" x2="182.133" y2="667.131" gradientTransform="matrix(1, 0, 0, -1, 0, 930)" gradientUnits="userSpaceOnUse"><stop offset="0" stop-color="#feda00"/><stop offset="0.151" stop-color="#fdd601"/><stop offset="0.307" stop-color="#fcc904"/><stop offset="0.466" stop-color="#f9b509"/><stop offset="0.627" stop-color="#f69810"/><stop offset="0.788" stop-color="#f17219"/><stop offset="0.95" stop-color="#eb4524"/></linearGradient><linearGradient id="linear-gradient-5" x1="462.724" y1="754.4" x2="581.54" y2="590.865" xlink:href="#linear-gradient-4"/><linearGradient id="linear-gradient-6" x1="236.457" y1="748.826" x2="430.238" y2="748.826" gradientTransform="matrix(1, 0, 0, -1, 0, 930)" gradientUnits="userSpaceOnUse"><stop offset="0.216" stop-color="#feda00"/><stop offset="0.333" stop-color="#fdd601"/><stop offset="0.454" stop-color="#fcc904"/><stop offset="0.576" stop-color="#f9b509"/><stop offset="0.701" stop-color="#f69810"/><stop offset="0.825" stop-color="#f17219"/><stop offset="0.95" stop-color="#eb4524"/></linearGradient><linearGradient id="linear-gradient-7" x1="625.379" y1="712.957" x2="815.609" y2="553.336" xlink:href="#linear-gradient-4"/><linearGradient id="linear-gradient-8" x1="754.364" y1="883.731" x2="1089.526" y2="602.497" gradientTransform="matrix(1, 0, 0, -1, 0, 930)" gradientUnits="userSpaceOnUse"><stop offset="0.5" stop-color="#feda00"/><stop offset="0.579" stop-color="#fdd601"/><stop offset="0.662" stop-color="#fcc904"/><stop offset="0.745" stop-color="#f9b509"/><stop offset="0.83" stop-color="#f69810"/><stop offset="0.915" stop-color="#f17219"/><stop offset="1" stop-color="#eb4524"/></linearGradient><linearGradient id="linear-gradient-9" x1="432.508" y1="295.745" x2="692.367" y2="77.698" gradientTransform="matrix(1, 0, 0, -1, 0, 930)" gradientUnits="userSpaceOnUse"><stop offset="0" stop-color="#feda00"/><stop offset="0.159" stop-color="#fdd601"/><stop offset="0.323" stop-color="#fcc904"/><stop offset="0.491" stop-color="#f9b509"/><stop offset="0.66" stop-color="#f69810"/><stop offset="0.83" stop-color="#f17219"/><stop offset="1" stop-color="#eb4524"/></linearGradient><linearGradient id="linear-gradient-10" x1="624.156" y1="437.823" x2="693.014" y2="380.045" xlink:href="#linear-gradient-9"/></defs><title>atarilynx-7</title><path d="M1028.365,0H53.5A53.562,53.562,0,0,0,0,53.5V876.531a53.562,53.562,0,0,0,53.5,53.5h974.865a53.562,53.562,0,0,0,53.5-53.5V53.5A53.562,53.562,0,0,0,1028.365,0Z" fill="#231f20"/><path d="M1028.365,0H53.5A53.562,53.562,0,0,0,0,53.5V876.531a53.562,53.562,0,0,0,53.5,53.5h974.865a53.562,53.562,0,0,0,53.5-53.5V53.5A53.562,53.562,0,0,0,1028.365,0Z" fill="url(#linear-gradient)"/><rect x="8.5" y="8.5" width="1064.865" height="913.031" rx="45" ry="45" fill="url(#linear-gradient-2)"/><rect x="57.167" y="363.029" width="267.333" height="79.224" fill="#231f20"/><rect x="50.167" y="347.185" width="267.333" height="79.224" fill="#b42226"/><polygon points="57.167 412.545 57.167 361.05 310.5 361.05 317.5 347.185 50.167 347.185 50.167 426.409 57.167 412.545" fill="#edcacb"/><polygon points="310.5 412.545 310.5 361.05 317.5 347.185 317.5 426.409 310.5 412.545" fill="#8f1a1c"/><rect x="57.167" y="361.049" width="253.333" height="51.496" fill="url(#linear-gradient-3)"/><rect x="57.167" y="91.686" width="105.333" height="240.974" fill="#231f20"/><polygon points="585.833 91.686 387.833 332.66 387.833 442.254 494.5 442.254 494.5 306.912 679.167 91.686 585.833 91.686" fill="#231f20"/><polygon points="378.167 304.932 449.833 220.425 362.5 91.686 220.833 91.686 378.167 304.932" fill="#231f20"/><polygon points="578.833 75.841 380.833 316.815 380.833 426.409 487.5 426.409 487.5 291.067 672.167 75.841 578.833 75.841" fill="#b42226"/><polygon points="50.167 75.841 49.698 316.815 155.031 316.815 155.031 75.841 50.167 75.841" fill="#b42125"/><polygon points="355.5 75.841 213.833 75.841 371.167 289.087 442.833 204.58 355.5 75.841" fill="#b42125"/><polygon points="50.167 316.815 57.167 302.95 57.167 89.705 148.5 89.705 155.5 75.841 50.167 75.841 50.167 316.815" fill="#edcacb"/><polygon points="236.457 89.705 213.833 75.841 355.5 75.841 353.181 89.705 236.457 89.705" fill="#edcacb"/><polygon points="371.429 272.642 371.167 289.087 442.833 204.58 430.238 203.297 371.429 272.642" fill="#8e191b"/><polygon points="387.833 412.545 380.833 426.409 380.833 316.815 578.833 75.841 672.167 75.841 647.36 89.705 580.949 89.705 387.833 324.569 387.833 412.545" fill="#edcacb"/><polygon points="480.5 283.283 487.5 291.067 487.5 426.409 480.5 412.545 480.5 283.283" fill="#8e191b"/><rect x="57.167" y="89.705" width="91.333" height="213.246" fill="url(#linear-gradient-4)"/><polygon points="387.833 412.545 387.833 324.569 580.949 89.705 647.36 89.705 480.5 283.283 480.5 412.545 387.833 412.545" fill="url(#linear-gradient-5)"/><polygon points="236.457 89.705 353.181 89.705 430.238 203.297 371.429 272.642 236.457 89.705" fill="url(#linear-gradient-6)"/><polygon points="799.5 252.115 693.5 127.337 693.5 442.254 799.5 442.254 799.5 252.115" fill="#231f20"/><polygon points="987.833 91.686 987.833 350.792 790.833 91.686 700.5 91.686 983.833 442.254 987.833 442.254 1021.5 442.254 1032.167 442.254 1032.167 91.686 987.833 91.686" fill="#231f20"/><polygon points="686.5 111.492 686.5 426.409 792.5 426.409 792.5 236.27 686.5 111.492" fill="#b42326"/><polygon points="785.5 244.158 785.5 412.546 792.5 426.409 792.5 236.27 785.5 244.158" fill="#8e191b"/><polygon points="686.5 111.492 693.5 135.86 693.5 412.546 686.5 426.409 686.5 111.492" fill="#edcacb"/><polygon points="693.5 75.841 717.917 89.705 781.721 89.705 783.833 75.841 693.5 75.841" fill="#edcacb"/><polygon points="980.833 75.841 980.833 334.948 783.833 75.841 693.5 75.841 976.833 426.409 1025.167 426.409 1025.167 75.841 980.833 75.841" fill="#b42326"/><polygon points="1018.166 89.705 1025.167 75.841 980.833 75.841 980.833 334.948 987.833 360.798 987.833 89.705 1018.166 89.705" fill="#edcacb"/><polygon points="978.84 412.546 976.833 426.409 1025.167 426.409 1018.166 412.546 978.84 412.546" fill="#8e191b"/><polygon points="693.5 412.546 693.5 135.86 785.501 244.158 785.501 412.546 693.5 412.546" fill="url(#linear-gradient-7)"/><polygon points="978.84 412.546 717.917 89.705 781.721 89.705 987.833 360.798 987.833 89.705 1018.166 89.705 1018.166 412.546 978.84 412.546" fill="url(#linear-gradient-8)"/><polygon points="307.433 854.19 445.433 854.19 516.432 815.238 451.766 753.839 307.433 854.19" fill="#231f20"/><polygon points="402.433 670.654 598.766 854.19 755.432 854.19 562.099 682.504 522.099 712.907 446.433 639.624 402.433 670.654" fill="#231f20"/><polygon points="332.433 503.622 522.099 682.867 566.766 650.187 646.766 721.489 686.766 693.1 482.766 503.622 332.433 503.622" fill="#231f20"/><polygon points="574.432 552.477 633.099 607.274 781.432 503.622 641.432 503.622 574.432 552.477" fill="#231f20"/><polygon points="774.432 487.777 626.099 591.429 567.432 536.632 634.432 487.777 774.432 487.777" fill="#b42326"/><polygon points="475.766 487.777 325.433 487.777 515.099 667.022 559.766 634.342 639.766 705.644 679.766 677.255 475.766 487.777" fill="#b42326"/><polygon points="555.099 666.659 515.099 697.062 439.433 623.779 395.433 654.809 591.766 838.345 748.432 838.345 555.099 666.659" fill="#b42326"/><polygon points="444.766 737.994 300.433 838.345 438.433 838.345 509.432 799.393 444.766 737.994" fill="#b42326"/><polygon points="489.566 795.906 509.432 799.393 438.433 838.345 437.482 824.482 489.566 795.906" fill="#8e191b"/><polygon points="444.352 752.977 444.766 737.994 300.433 838.345 341.507 824.482 444.352 752.977" fill="#edcacb"/><polygon points="413.755 656.605 395.433 654.809 439.433 623.779 439.005 638.798 413.755 656.605" fill="#edcacb"/><polygon points="514.763 712.167 515.099 697.062 555.099 666.659 554.891 681.669 514.763 712.167" fill="#edcacb"/><polygon points="356.357 501.641 325.433 487.777 475.766 487.777 474.206 501.641 356.357 501.641" fill="#edcacb"/><polygon points="585.531 538.209 635.68 501.641 733.553 501.641 774.432 487.777 634.432 487.777 567.432 536.632 585.531 538.209" fill="#edcacb"/><polygon points="640.063 690.707 639.766 705.644 679.766 677.255 661.432 675.539 640.063 690.707" fill="#8e191b"/><polygon points="515.446 651.99 515.099 667.023 559.766 634.342 560.026 619.371 515.446 651.99" fill="#8e191b"/><polygon points="626.483 576.459 626.099 591.429 774.432 487.777 733.553 501.641 626.483 576.459" fill="#8e191b"/><polygon points="593.336 824.482 591.766 838.345 748.432 838.345 715.711 824.482 593.336 824.482" fill="#8e191b"/><polygon points="341.507 824.482 444.352 752.977 489.566 795.906 437.482 824.482 341.507 824.482" fill="#d12128"/><polygon points="560.026 619.371 515.446 651.99 356.357 501.641 474.206 501.641 661.432 675.539 640.063 690.707 560.026 619.371" fill="#d12128"/><polygon points="593.336 824.482 413.755 656.605 439.005 638.798 514.763 712.167 554.891 681.669 715.711 824.482 593.336 824.482" fill="url(#linear-gradient-9)"/><polygon points="585.531 538.209 635.68 501.641 733.553 501.641 626.483 576.459 585.531 538.209" fill="url(#linear-gradient-10)"/></svg>