<svg id="Layer_1" data-name="Layer 1" xmlns="http://www.w3.org/2000/svg" viewBox="0 0 112 82"><title>Atari_7800_SVG</title><rect id="rect3" x="106.18" y="0.95" width="5.82" height="36.55" fill="#982025"/><path id="path5" d="M14.36,0a4.25,4.25,0,0,0-4,2.76h0L0,37.51H6.21l2.4-9.42H20.15l2.51,9.42H29L18.39,2.79h0A4.251,4.251,0,0,0,14.36,0ZM14.3,8l4,15.21H10.39Z" fill="#982025"/><path id="path7" d="M25.66.82v4.9h9V37.51h5.82V5.72h9.06V.82Z" fill="#982025"/><path id="path9" d="M94.08,24.24a2,2,0,0,1,0-2,2.465,2.465,0,0,1,.86-.69,11.879,11.879,0,0,0,5.18-10.2c0-6-3.78-10.93-8.48-11.31C91,0,89.69,0,89.69,0H83.08c-2.3,0-4.17,2.49-4.17,5.55h0V37.5h5.65V7.84h0c0-.93.57-1.69,1.26-1.69h3.82a10.921,10.921,0,0,1,1.58.07h0c1.69.18,3.06,1.78,3.46,3.9v.26h0v.98a5.657,5.657,0,0,1-2,4.55,5.149,5.149,0,0,1-.75.5,6.16,6.16,0,0,1-.64.32,6.666,6.666,0,0,0-2.81,2,6.7,6.7,0,0,0-1.18,3.83,6.815,6.815,0,0,0,1,3.66l7.18,11.31h6.72L94.08,24.24" fill="#982025"/><path id="path2852" d="M61.36,0a4.25,4.25,0,0,0-4,2.76h0L47,37.51h6.21l2.4-9.42H67.15l2.52,9.42H76L65.39,2.79h0a4.25,4.25,0,0,0-4-2.76ZM61.3,8l4,15.21H57.39Z" fill="#982025"/><polyline points="0.09 47.25 0.09 57.81 14.38 57.81 2.64 81.28 15.39 81.28 29.44 47.25" fill="#982025"/><path d="M47,62.94c4.12-1.55,6.89-4.42,6.89-7.72,0-4.94-6.2-9-13.86-9s-13.85,4-13.85,9c0,3.16,2.54,5.93,6.37,7.52-4.29,1.66-7.14,4.87-7,8.66.14,5.45,6.44,9.7,14.38,9.88,8.23.17,14.66-4.26,14.38-9.88C54,67.75,51.2,64.65,47,62.94ZM40,53.1a3.29,3.29,0,1,1-3.29,3.29v-.02A3.29,3.29,0,0,1,40,53.1Zm0,20.46a3.7,3.7,0,1,1,3.7-3.7h0A3.7,3.7,0,0,1,40,73.56Z" fill="#982025"/><path d="M68.1,46.43c-8.1,0-14.74,7.94-14.74,17.74S60,81.91,68.1,81.91s14.73-7.94,14.73-17.74S76.23,46.43,68.1,46.43Zm0,24.84c-2.47,0-4.19-3.09-4.07-7.07s1.73-7,4.07-7.07c2.58,0,4,2.89,4.08,7.07.02,3.93-1.4,7.01-4.1,7.07Z" fill="#982025"/><path d="M97.17,46.52c-8.13,0-14.73,7.94-14.73,17.74S89,82,97.17,82s14.74-7.94,14.74-17.74S105.31,46.52,97.17,46.52Zm0,24.84c-2.49.01-4.17-3.09-4.09-7.07s1.74-7,4.08-7.07c2.58,0,4,2.9,4.07,7.07.05,3.93-1.37,7.01-4.07,7.08Z" fill="#982025"/></svg>