<svg xmlns="http://www.w3.org/2000/svg" viewBox="0 0 100 100"><title>atari5200</title><path d="M37.6.922,37.462,5.17,21.771,5.025l-2.6,12.149a18.529,18.529,0,0,1,5.212-.8A12.889,12.889,0,0,1,34.2,20.54a14.208,14.208,0,0,1,3.581,10.491,16.845,16.845,0,0,1-2.27,8.053,14.584,14.584,0,0,1-5.627,5.579,16.028,16.028,0,0,1-8,1.883,12.789,12.789,0,0,1-8.96-3.407,13.3,13.3,0,0,1-4.14-8.645l4.532.042a9.946,9.946,0,0,0,1.592,4.2,8.57,8.57,0,0,0,3.16,2.625,9.446,9.446,0,0,0,4.22,1.025,10.132,10.132,0,0,0,7.578-3.262,11.99,11.99,0,0,0,3.389-8.3,9.715,9.715,0,0,0-2.588-7.358,9.978,9.978,0,0,0-7.443-2.892,25.144,25.144,0,0,0-9.537,2.309L18.476.742Z" fill="#3b6fc6"/><path d="M67.766,14.981l-4.235-.038a15.8,15.8,0,0,1,4.712-10.8A14.28,14.28,0,0,1,78.722,0a12.66,12.66,0,0,1,9.734,4.067,12.93,12.93,0,0,1,3.469,9.417,15.08,15.08,0,0,1-2.023,7.1,53.315,53.315,0,0,1-7.264,8.935L71.258,41.391l20.369.189-.138,4.31L61.5,45.606,78.963,27.339A56.956,56.956,0,0,0,85.9,19.155a11.45,11.45,0,0,0,1.732-5.65A8.576,8.576,0,0,0,85.061,7a9.152,9.152,0,0,0-6.714-2.782A9.674,9.674,0,0,0,71.219,7,12.591,12.591,0,0,0,67.766,14.981Z" fill="#3b6fc6"/><path d="M23.747,52.612a22.492,22.492,0,0,1,22.8,23.645,23.315,23.315,0,0,1-7.274,16.569A22.759,22.759,0,0,1,22.609,99.5,21.976,21.976,0,0,1,6.247,92.546,21.982,21.982,0,0,1,.014,76.033,24.367,24.367,0,0,1,3.473,64.139a23.3,23.3,0,0,1,8.674-8.524A22.765,22.765,0,0,1,23.747,52.612Zm.062,4.341a18.406,18.406,0,0,0-9.376,2.494,19.1,19.1,0,0,0-7.076,6.889,19.862,19.862,0,0,0-2.78,9.726A17.933,17.933,0,0,0,9.6,89.553a17.491,17.491,0,0,0,12.984,5.6,19.034,19.034,0,0,0,9.593-2.432,18.582,18.582,0,0,0,7.05-6.831A19.9,19.9,0,0,0,41.988,76.2a18.817,18.817,0,0,0-2.141-9.635,17.842,17.842,0,0,0-6.686-6.944A18.213,18.213,0,0,0,23.809,56.953Z" fill="#3b6fc6"/><path d="M77.184,53.114a22.492,22.492,0,0,1,22.8,23.645,23.3,23.3,0,0,1-7.276,16.565A22.757,22.757,0,0,1,76.046,100a22.527,22.527,0,0,1-22.6-23.464,24.383,24.383,0,0,1,3.46-11.9,23.294,23.294,0,0,1,8.669-8.522A22.75,22.75,0,0,1,77.184,53.114Zm.056,4.341a18.37,18.37,0,0,0-9.376,2.494,19.121,19.121,0,0,0-7.077,6.889,19.879,19.879,0,0,0-2.777,9.726,17.936,17.936,0,0,0,5.03,13.491,17.5,17.5,0,0,0,12.978,5.6,19.065,19.065,0,0,0,9.6-2.432A18.549,18.549,0,0,0,92.661,86.4a19.828,19.828,0,0,0,2.76-9.694,18.767,18.767,0,0,0-2.143-9.634,17.8,17.8,0,0,0-6.68-6.943A18.219,18.219,0,0,0,77.24,57.455Z" fill="#3b6fc6"/></svg>