<svg id="Layer_1" data-name="Layer 1" xmlns="http://www.w3.org/2000/svg" viewBox="0 0 112 108"><title>Atari_ST_dark_SVG</title><rect id="rect3" x="106.18" y="0.95" width="5.82" height="36.55" fill="#3b6fc6"/><path id="path5" d="M14.36,0a4.25,4.25,0,0,0-4,2.76h0L0,37.51H6.21l2.4-9.42H20.15l2.51,9.42H29L18.39,2.79h0A4.251,4.251,0,0,0,14.36,0ZM14.3,8l4,15.21H10.39Z" fill="#3b6fc6"/><path id="path7" d="M25.66.82v4.9h9V37.51h5.82V5.72h9.06V.82Z" fill="#3b6fc6"/><path id="path9" d="M94.08,24.24a2,2,0,0,1,0-2,2.465,2.465,0,0,1,.86-.69,11.879,11.879,0,0,0,5.18-10.2c0-6-3.78-10.93-8.48-11.31C91,0,89.69,0,89.69,0H83.08c-2.3,0-4.17,2.49-4.17,5.55h0V37.5h5.65V7.84h0c0-.93.57-1.69,1.26-1.69h3.82a10.921,10.921,0,0,1,1.58.07h0c1.69.18,3.06,1.78,3.46,3.9v.26h0v.98a5.657,5.657,0,0,1-2,4.55,5.149,5.149,0,0,1-.75.5,6.16,6.16,0,0,1-.64.32,6.666,6.666,0,0,0-2.81,2,6.7,6.7,0,0,0-1.18,3.83,6.815,6.815,0,0,0,1,3.66l7.18,11.31h6.72L94.08,24.24" fill="#3b6fc6"/><path id="path2852" d="M61.36,0a4.25,4.25,0,0,0-4,2.76h0L47,37.51h6.21l2.4-9.42H67.15l2.52,9.42H76L65.39,2.79h0a4.25,4.25,0,0,0-4-2.76ZM61.3,8l4,15.21H57.39Z" fill="#3b6fc6"/><polygon points="105.35 46.95 53.48 46.95 53.48 61.06 70.35 61.06 70.35 106.87 88.42 106.87 88.42 61.06 105.35 61.06 105.35 46.95" fill="#333"/><path d="M47.54,48.62s-5.25-2.5-16.54-2.5S7.29,50.37,6.67,64.62,22,83.37,22,83.37s8.69,2.19,8.69,6.88S24.5,94.5,24.5,94.5s-7.38.37-17.06-5.82v16S13.56,108,24.87,108s26.33-3.32,25.88-19.19c-.4-13.23-12.44-16.69-18.81-19.65-6.12-2.84-6.09-4.5-6.09-5.21s.15-4.73,6.79-4.73,10.88,2.42,14.92,4.13Z" fill="#333"/></svg>