<svg xmlns="http://www.w3.org/2000/svg" viewBox="0 0 100 100"><title>atari2600</title><path d="M9.869,40.41c0-.99.583-3.286,4.478-7.492q4.979-5.38,10.027-10.726c3.805-4.024,5.576-7.133,5.576-9.786a6.339,6.339,0,0,0-1.915-4.444,6.548,6.548,0,0,0-4.859-2.051,7.139,7.139,0,0,0-6.964,5.35H10a12.416,12.416,0,0,1,3.879-7.353A13.03,13.03,0,0,1,23.316,0a11.954,11.954,0,0,1,9.077,3.89,12.721,12.721,0,0,1,3.746,9.141c0,3.688-1.8,7.425-5.348,11.114q-5.874,6.11-11.336,11.661L16.3,39.02l19.844.159v5.715H12.477c-.409,0-.955-.474-1.5-1.3A5.859,5.859,0,0,1,9.869,40.41" fill="#ed1c24"/><path d="M62.229,30.125c0-.839.408-3.174,3.142-9.411,2.164-4.95,4.474-9.863,6.87-14.6C74.02,2.579,74.921.85,75.375,0h7.147L74.112,17.65h3.025A14.951,14.951,0,0,1,87.7,21.425a12.13,12.13,0,0,1,4.067,9.464,13.626,13.626,0,0,1-4.595,10.548,15.755,15.755,0,0,1-11.146,4.291,12.157,12.157,0,0,1-9.762-4.638,16.367,16.367,0,0,1-4.034-10.965M85.37,31.238a8.481,8.481,0,0,0-2.447-6.084A7.975,7.975,0,0,0,77,22.587,7.572,7.572,0,0,0,71.109,25.4a8.6,8.6,0,0,0-2.344,5.7,8.007,8.007,0,0,0,2.325,6.035,8.317,8.317,0,0,0,5.978,2.2,7.933,7.933,0,0,0,6.09-2.451,8.066,8.066,0,0,0,2.212-5.641" fill="#ed1c24"/><path d="M0,77.934A22.4,22.4,0,0,1,6.9,61.256a22.1,22.1,0,0,1,16.2-6.847,21.873,21.873,0,0,1,16,6.847c4.646,4.605,6.906,9.786,6.906,15.843A23.241,23.241,0,0,1,39.779,93.07C35.649,97.734,30.422,100,23.8,100A24.7,24.7,0,0,1,7.015,93.857C2.294,89.8,0,84.6,0,77.934M39.608,77.1a15.777,15.777,0,0,0-4.89-11.311,15.509,15.509,0,0,0-11.333-4.982,16.135,16.135,0,0,0-12.2,5.22A16.966,16.966,0,0,0,6.326,77.934a15.055,15.055,0,0,0,5.081,11.671,17.293,17.293,0,0,0,11.907,4.482A15.868,15.868,0,0,0,34.8,89.372,16.532,16.532,0,0,0,39.608,77.1" fill="#ed1c24"/><path d="M54,77.934a22.391,22.391,0,0,1,6.9-16.678,22.1,22.1,0,0,1,16.2-6.847,21.877,21.877,0,0,1,16,6.847c4.646,4.605,6.9,9.788,6.9,15.843A23.234,23.234,0,0,1,93.774,93.07C89.643,97.734,84.416,100,77.8,100a24.712,24.712,0,0,1-16.789-6.143C56.288,89.8,54,84.6,54,77.934M93.6,77.1a15.774,15.774,0,0,0-4.892-11.311,15.506,15.506,0,0,0-11.332-4.982,16.132,16.132,0,0,0-12.2,5.22,16.965,16.965,0,0,0-4.86,11.908A15.057,15.057,0,0,0,65.4,89.605a17.3,17.3,0,0,0,11.908,4.482,15.872,15.872,0,0,0,11.485-4.715A16.536,16.536,0,0,0,93.6,77.1" fill="#ed1c24"/></svg>