<svg xmlns="http://www.w3.org/2000/svg" viewBox="0 0 100 124"><title>atari7800-2</title><polygon points="3.785 1.553 3.785 19.879 27.945 19.879 7.97 59.649 30.045 59.649 54.362 1.553 3.785 1.553" fill="#982125" fill-rule="evenodd"/><path d="M84.1,28.312c6.811-2.684,11.357-7.519,11.357-13.038C95.456,6.838,84.841,0,71.747,0S48.039,6.838,48.039,15.274c0,5.37,4.307,10.091,10.814,12.814C51.82,30.7,47.127,35.708,47.127,42.857c0,9.317,10.989,16.869,24.544,16.869,15.122,0,24.544-7.552,24.544-16.869C96.215,36.658,91.347,31.244,84.1,28.312ZM71.823,12.037A5.243,5.243,0,1,1,66.58,17.28,5.243,5.243,0,0,1,71.823,12.037Zm0,34.194a6,6,0,1,1,6-6A6,6,0,0,1,71.823,46.231Z" fill="#982125" fill-rule="evenodd"/><path d="M25.228,63.666C11.294,63.666,0,77.172,0,93.833S11.294,124,25.228,124s25.228-13.506,25.228-30.167S39.162,63.666,25.228,63.666Zm-.076,42.1c-4.939,0-6.763-5.273-6.763-11.778s2.28-11.778,6.763-11.778c5.243,0,6.763,5.273,6.763,11.778S29.939,105.763,25.152,105.763Z" fill="#982125" fill-rule="evenodd"/><path d="M74.772,63.666c-13.934,0-25.228,13.506-25.228,30.167S60.838,124,74.772,124,100,110.494,100,93.833,88.706,63.666,74.772,63.666Zm-.076,42.1c-4.939,0-6.763-5.273-6.763-11.778s2.28-11.778,6.763-11.778c5.243,0,6.763,5.273,6.763,11.778S79.483,105.763,74.7,105.763Z" fill="#982125" fill-rule="evenodd"/></svg>