<svg id="Layer_2" data-name="Layer 2" xmlns="http://www.w3.org/2000/svg" xmlns:xlink="http://www.w3.org/1999/xlink" viewBox="0 0 930.031 477.984"><defs><linearGradient id="linear-gradient" x1="429.946" y1="-46.627" x2="500.085" y2="524.611" gradientUnits="userSpaceOnUse"><stop offset="0.35" stop-color="#a7a9ac"/><stop offset="0.57" stop-color="#231f20"/></linearGradient><linearGradient id="linear-gradient-2" x1="465.016" y1="8.5" x2="465.016" y2="469.484" gradientUnits="userSpaceOnUse"><stop offset="0" stop-color="#808285"/><stop offset="1" stop-color="#363436"/></linearGradient><linearGradient id="linear-gradient-3" x1="53.027" y1="58.604" x2="159.639" y2="148.062" gradientTransform="translate(3 209.666) rotate(-90)" gradientUnits="userSpaceOnUse"><stop offset="0" stop-color="#feda00"/><stop offset="0.151" stop-color="#fdd601"/><stop offset="0.307" stop-color="#fcc904"/><stop offset="0.466" stop-color="#f9b509"/><stop offset="0.627" stop-color="#f69810"/><stop offset="0.788" stop-color="#f17219"/><stop offset="0.95" stop-color="#eb4524"/></linearGradient><linearGradient id="linear-gradient-4" x1="169.906" y1="148.886" x2="204.761" y2="250.114" gradientTransform="translate(-12.167 386.834) rotate(-90)" gradientUnits="userSpaceOnUse"><stop offset="0.299" stop-color="#feda00"/><stop offset="0.41" stop-color="#fdd601"/><stop offset="0.526" stop-color="#fcc904"/><stop offset="0.643" stop-color="#f9b509"/><stop offset="0.762" stop-color="#f69810"/><stop offset="0.881" stop-color="#f17219"/><stop offset="1" stop-color="#eb4524"/></linearGradient><linearGradient id="linear-gradient-5" x1="493.898" y1="93.564" x2="547.036" y2="166.702" gradientTransform="matrix(1, 0, 0, 1, 0, 0)" xlink:href="#linear-gradient-3"/><linearGradient id="linear-gradient-6" x1="239.957" y1="95.682" x2="433.738" y2="95.682" gradientUnits="userSpaceOnUse"><stop offset="0.216" stop-color="#feda00"/><stop offset="0.333" stop-color="#fdd601"/><stop offset="0.454" stop-color="#fcc904"/><stop offset="0.576" stop-color="#f9b509"/><stop offset="0.701" stop-color="#f69810"/><stop offset="0.825" stop-color="#f17219"/><stop offset="0.95" stop-color="#eb4524"/></linearGradient><linearGradient id="linear-gradient-7" x1="31.348" y1="315.169" x2="154.124" y2="418.19" gradientTransform="matrix(1, 0, 0, 1, 0, 0)" xlink:href="#linear-gradient-3"/><linearGradient id="linear-gradient-8" x1="146.643" y1="183.562" x2="403.099" y2="398.754" gradientUnits="userSpaceOnUse"><stop offset="0.5" stop-color="#feda00"/><stop offset="0.579" stop-color="#fdd601"/><stop offset="0.662" stop-color="#fcc904"/><stop offset="0.745" stop-color="#f9b509"/><stop offset="0.83" stop-color="#f69810"/><stop offset="0.915" stop-color="#f17219"/><stop offset="1" stop-color="#eb4524"/></linearGradient><linearGradient id="linear-gradient-9" x1="557.365" y1="286.252" x2="776.297" y2="469.958" gradientUnits="userSpaceOnUse"><stop offset="0" stop-color="#feda00"/><stop offset="0.159" stop-color="#fdd601"/><stop offset="0.323" stop-color="#fcc904"/><stop offset="0.491" stop-color="#f9b509"/><stop offset="0.66" stop-color="#f69810"/><stop offset="0.83" stop-color="#f17219"/><stop offset="1" stop-color="#eb4524"/></linearGradient><linearGradient id="linear-gradient-10" x1="722.755" y1="234.087" x2="800.526" y2="299.345" xlink:href="#linear-gradient-9"/></defs><title>atarilynx -4</title><path d="M876.531,0H53.5A53.561,53.561,0,0,0,0,53.5V424.484a53.561,53.561,0,0,0,53.5,53.5H876.531a53.561,53.561,0,0,0,53.5-53.5V53.5A53.561,53.561,0,0,0,876.531,0Z" fill="#231f20"/><path d="M876.531,0H53.5A53.561,53.561,0,0,0,0,53.5V424.484a53.561,53.561,0,0,0,53.5,53.5H876.531a53.561,53.561,0,0,0,53.5-53.5V53.5A53.561,53.561,0,0,0,876.531,0Z" fill="url(#linear-gradient)"/><rect x="8.5" y="8.5" width="913.031" height="460.984" rx="45" ry="45" fill="url(#linear-gradient-2)"/><rect x="60.667" y="50.5" width="105.333" height="121.667" fill="#231f20"/><rect x="60.667" y="187.5" width="267.333" height="40" fill="#231f20"/><polygon points="589.333 50.5 391.333 172.167 391.333 227.5 498 227.5 498 159.167 682.667 50.5 589.333 50.5" fill="#231f20"/><polygon points="381.667 158.167 453.333 115.5 366 50.5 224.333 50.5 381.667 158.167" fill="#231f20"/><polygon points="582.333 42.5 384.333 164.167 384.333 219.5 491 219.5 491 151.167 675.667 42.5 582.333 42.5" fill="#b42226"/><rect x="53.667" y="179.5" width="267.333" height="40" fill="#b42226"/><polygon points="53.667 42.5 53.198 164.167 158.531 164.167 158.531 42.5 53.667 42.5" fill="#b42125"/><polygon points="359 42.5 217.333 42.5 374.667 150.167 446.333 107.5 359 42.5" fill="#b42125"/><polygon points="60.667 212.5 60.667 186.5 314 186.5 321 179.5 53.667 179.5 53.667 219.5 60.667 212.5" fill="#edcacb"/><polygon points="314 212.5 314 186.5 321 179.5 321 219.5 314 212.5" fill="#8f1a1c"/><polygon points="53.667 164.167 60.667 157.166 60.667 49.5 152 49.5 159 42.5 53.667 42.5 53.667 164.167" fill="#edcacb"/><polygon points="239.957 49.5 217.333 42.5 359 42.5 356.681 49.5 239.957 49.5" fill="#edcacb"/><polygon points="374.929 141.864 374.667 150.167 446.333 107.5 433.738 106.852 374.929 141.864" fill="#8e191b"/><polygon points="391.333 212.5 384.333 219.5 384.333 164.167 582.333 42.5 675.667 42.5 650.86 49.5 584.449 49.5 391.333 168.081 391.333 212.5" fill="#edcacb"/><polygon points="484 147.237 491 151.167 491 219.5 484 212.5 484 147.237" fill="#8e191b"/><rect x="52.5" y="57.667" width="107.667" height="91.333" transform="translate(209.666 -3) rotate(90)" fill="url(#linear-gradient-3)"/><rect x="174.333" y="72.834" width="26" height="253.333" transform="translate(386.834 12.167) rotate(90)" fill="url(#linear-gradient-4)"/><polygon points="391.333 212.5 391.333 168.081 584.449 49.5 650.86 49.5 484 147.237 484 212.5 391.333 212.5" fill="url(#linear-gradient-5)"/><polygon points="239.957 49.5 356.681 49.5 433.738 106.852 374.929 141.864 239.957 49.5" fill="url(#linear-gradient-6)"/><polygon points="166.198 339.484 60.198 276.484 60.198 435.484 166.198 435.484 166.198 339.484" fill="#231f20"/><polygon points="354.531 258.484 354.531 389.306 157.531 258.484 67.198 258.484 350.531 435.484 354.531 435.484 388.198 435.484 398.865 435.484 398.865 258.484 354.531 258.484" fill="#231f20"/><polygon points="409.531 435.484 547.531 435.484 618.531 415.818 553.865 384.818 409.531 435.484" fill="#231f20"/><polygon points="504.531 342.818 700.865 435.484 857.531 435.484 664.198 348.801 624.198 364.151 548.531 327.151 504.531 342.818" fill="#231f20"/><polygon points="434.531 258.484 624.198 348.984 668.865 332.484 748.865 368.484 788.865 354.151 584.865 258.484 434.531 258.484" fill="#231f20"/><polygon points="676.531 283.151 735.198 310.818 883.531 258.484 743.531 258.484 676.531 283.151" fill="#231f20"/><polygon points="876.531 250.484 728.198 302.818 669.531 275.151 736.531 250.484 876.531 250.484" fill="#b42326"/><polygon points="577.865 250.484 427.531 250.484 617.198 340.984 661.865 324.484 741.865 360.484 781.865 346.151 577.865 250.484" fill="#b42326"/><polygon points="657.198 340.801 617.198 356.151 541.531 319.151 497.531 334.818 693.865 427.484 850.531 427.484 657.198 340.801" fill="#b42326"/><polygon points="546.865 376.818 402.531 427.484 540.531 427.484 611.531 407.818 546.865 376.818" fill="#b42326"/><polygon points="53.198 268.484 53.198 427.484 159.198 427.484 159.198 331.484 53.198 268.484" fill="#b42326"/><polygon points="152.198 335.467 152.198 420.485 159.198 427.484 159.198 331.484 152.198 335.467" fill="#8e191b"/><polygon points="53.198 268.484 60.198 280.787 60.198 420.485 53.198 427.484 53.198 268.484" fill="#edcacb"/><polygon points="60.198 250.484 84.615 257.484 148.419 257.484 150.531 250.484 60.198 250.484" fill="#edcacb"/><polygon points="347.531 250.484 347.531 381.306 150.531 250.484 60.198 250.484 343.531 427.484 391.865 427.484 391.865 250.484 347.531 250.484" fill="#b42326"/><polygon points="384.864 257.484 391.865 250.484 347.531 250.484 347.531 381.306 354.531 394.358 354.531 257.484 384.864 257.484" fill="#edcacb"/><polygon points="345.538 420.485 343.531 427.484 391.865 427.484 384.864 420.485 345.538 420.485" fill="#8e191b"/><polygon points="591.665 406.057 611.531 407.818 540.531 427.484 539.58 420.485 591.665 406.057" fill="#8e191b"/><polygon points="546.45 384.382 546.865 376.818 402.531 427.484 443.606 420.485 546.45 384.382" fill="#edcacb"/><polygon points="515.853 335.725 497.531 334.818 541.531 319.151 541.104 326.734 515.853 335.725" fill="#edcacb"/><polygon points="616.862 363.778 617.198 356.151 657.198 340.801 656.989 348.379 616.862 363.778" fill="#edcacb"/><polygon points="458.456 257.484 427.531 250.484 577.865 250.484 576.305 257.484 458.456 257.484" fill="#edcacb"/><polygon points="687.63 275.947 737.779 257.484 835.652 257.484 876.531 250.484 736.531 250.484 669.531 275.151 687.63 275.947" fill="#edcacb"/><polygon points="742.161 352.943 741.865 360.484 781.865 346.151 763.531 345.284 742.161 352.943" fill="#8e191b"/><polygon points="617.545 333.394 617.198 340.984 661.865 324.484 662.125 316.926 617.545 333.394" fill="#8e191b"/><polygon points="728.582 295.26 728.198 302.818 876.531 250.484 835.652 257.484 728.582 295.26" fill="#8e191b"/><polygon points="695.434 420.485 693.865 427.484 850.531 427.484 817.81 420.485 695.434 420.485" fill="#8e191b"/><polygon points="443.606 420.485 546.45 384.382 591.665 406.057 539.58 420.485 443.606 420.485" fill="#d12128"/><polygon points="662.125 316.926 617.545 333.394 458.456 257.484 576.305 257.484 763.531 345.284 742.161 352.943 662.125 316.926" fill="#d12128"/><polygon points="60.198 420.485 60.198 280.787 152.199 335.467 152.199 420.485 60.198 420.485" fill="url(#linear-gradient-7)"/><polygon points="345.538 420.485 84.615 257.484 148.419 257.484 354.531 394.358 354.531 257.484 384.864 257.484 384.864 420.485 345.538 420.485" fill="url(#linear-gradient-8)"/><polygon points="695.434 420.485 515.853 335.725 541.104 326.734 616.862 363.778 656.989 348.379 817.81 420.485 695.434 420.485" fill="url(#linear-gradient-9)"/><polygon points="687.63 275.947 737.779 257.484 835.652 257.484 728.582 295.26 687.63 275.947" fill="url(#linear-gradient-10)"/></svg>