<svg id="Layer_2" data-name="Layer 2" xmlns="http://www.w3.org/2000/svg" xmlns:xlink="http://www.w3.org/1999/xlink" viewBox="0 0 1574 1118.432"><defs><linearGradient id="linear-gradient" x1="744.426" y1="510.192" x2="829.574" y2="1203.673" gradientUnits="userSpaceOnUse"><stop offset="0.35" stop-color="#a7a9ac"/><stop offset="0.57" stop-color="#231f20"/></linearGradient><linearGradient id="linear-gradient-2" x1="787" y1="603.932" x2="787" y2="1109.932" gradientUnits="userSpaceOnUse"><stop offset="0" stop-color="#808285"/><stop offset="1" stop-color="#363436"/></linearGradient><linearGradient id="linear-gradient-3" x1="26.52" y1="726.627" x2="186.147" y2="860.57" gradientTransform="translate(-687.265 899.932) rotate(-90)" gradientUnits="userSpaceOnUse"><stop offset="0" stop-color="#feda00"/><stop offset="0.151" stop-color="#fdd601"/><stop offset="0.307" stop-color="#fcc904"/><stop offset="0.466" stop-color="#f9b509"/><stop offset="0.627" stop-color="#f69810"/><stop offset="0.788" stop-color="#f17219"/><stop offset="0.95" stop-color="#eb4524"/></linearGradient><linearGradient id="linear-gradient-4" x1="165.904" y1="923.697" x2="208.763" y2="1048.169" gradientTransform="translate(-798.6 1173.266) rotate(-90)" gradientUnits="userSpaceOnUse"><stop offset="0.299" stop-color="#feda00"/><stop offset="0.41" stop-color="#fdd601"/><stop offset="0.526" stop-color="#fcc904"/><stop offset="0.643" stop-color="#f9b509"/><stop offset="0.762" stop-color="#f69810"/><stop offset="0.881" stop-color="#f17219"/><stop offset="1" stop-color="#eb4524"/></linearGradient><linearGradient id="linear-gradient-5" x1="465.473" y1="772.373" x2="585.791" y2="937.977" gradientTransform="matrix(1, 0, 0, 1, 0, 0)" xlink:href="#linear-gradient-3"/><linearGradient id="linear-gradient-6" x1="239.957" y1="778.296" x2="433.738" y2="778.296" gradientUnits="userSpaceOnUse"><stop offset="0.216" stop-color="#feda00"/><stop offset="0.333" stop-color="#fdd601"/><stop offset="0.454" stop-color="#fcc904"/><stop offset="0.576" stop-color="#f9b509"/><stop offset="0.701" stop-color="#f69810"/><stop offset="0.825" stop-color="#f17219"/><stop offset="0.95" stop-color="#eb4524"/></linearGradient><linearGradient id="linear-gradient-7" x1="628.213" y1="814.516" x2="819.776" y2="975.257" gradientTransform="matrix(1, 0, 0, 1, 0, 0)" xlink:href="#linear-gradient-3"/><linearGradient id="linear-gradient-8" x1="757.087" y1="643.423" x2="1093.804" y2="925.963" gradientUnits="userSpaceOnUse"><stop offset="0.5" stop-color="#feda00"/><stop offset="0.579" stop-color="#fdd601"/><stop offset="0.662" stop-color="#fcc904"/><stop offset="0.745" stop-color="#f9b509"/><stop offset="0.83" stop-color="#f69810"/><stop offset="0.915" stop-color="#f17219"/><stop offset="1" stop-color="#eb4524"/></linearGradient><linearGradient id="linear-gradient-9" x1="1170.944" y1="820.617" x2="1431.612" y2="1039.343" gradientUnits="userSpaceOnUse"><stop offset="0" stop-color="#feda00"/><stop offset="0.159" stop-color="#fdd601"/><stop offset="0.323" stop-color="#fcc904"/><stop offset="0.491" stop-color="#f9b509"/><stop offset="0.66" stop-color="#f69810"/><stop offset="0.83" stop-color="#f17219"/><stop offset="1" stop-color="#eb4524"/></linearGradient><linearGradient id="linear-gradient-10" x1="1363.053" y1="676.831" x2="1431.733" y2="734.46" xlink:href="#linear-gradient-9"/></defs><title>atarilynx -6</title><path d="M1520.5,595.432H53.5A53.561,53.561,0,0,0,0,648.932v416a53.561,53.561,0,0,0,53.5,53.5h1467a53.561,53.561,0,0,0,53.5-53.5v-416a53.561,53.561,0,0,0-53.5-53.5Z" fill="#231f20"/><path d="M1520.5,595.432H53.5A53.561,53.561,0,0,0,0,648.932v416a53.561,53.561,0,0,0,53.5,53.5h1467a53.561,53.561,0,0,0,53.5-53.5v-416a53.561,53.561,0,0,0-53.5-53.5Z" fill="url(#linear-gradient)"/><rect x="8.5" y="603.932" width="1557" height="506" rx="45" ry="45" fill="url(#linear-gradient-2)"/><path d="M166,931.266H60.667V687.932H166Zm162,30.666H60.667v80H328Zm261.333-274-198,243.334v110.666H498V905.266L682.667,687.932ZM381.667,903.266l71.666-85.334L366,687.932H224.333ZM803,849.932l-106-126v318H803Zm188.333-162V949.575l-197-261.643H704l283.333,354h48.334v-354Zm55,354h138l71-39.333-64.666-62Zm95-185.333,196.334,185.333h156.666L1301,868.565l-40,30.7-75.667-74Zm-70-168.667,189.667,181,44.667-33,80,72,40-28.666-204-191.334Zm242,49.334L1372,792.6l148.333-104.667h-140Z" fill="#231f20"/><polygon points="1513.333 671.932 1365 776.599 1306.333 721.266 1373.333 671.932 1513.333 671.932" fill="#b42326"/><polygon points="1214.667 671.932 1064.333 671.932 1254 852.933 1298.667 819.932 1378.667 891.932 1418.667 863.266 1214.667 671.932" fill="#b42326"/><polygon points="1294 852.565 1254 883.266 1178.333 809.266 1134.333 840.599 1330.667 1025.932 1487.333 1025.932 1294 852.565" fill="#b42326"/><polygon points="1183.667 924.599 1039.333 1025.932 1177.333 1025.932 1248.333 986.599 1183.667 924.599" fill="#b42326"/><polygon points="690 707.932 690 1025.932 796 1025.932 796 833.932 690 707.932" fill="#b42326"/><polygon points="582.333 671.932 384.333 915.266 384.333 1025.932 491 1025.932 491 889.266 675.667 671.932 582.333 671.932" fill="#b42226"/><rect x="53.667" y="945.932" width="267.333" height="80" fill="#b42226"/><polygon points="53.667 671.932 53.198 915.266 158.531 915.266 158.531 671.932 53.667 671.932" fill="#b42125"/><polygon points="359 671.932 217.333 671.932 374.667 887.266 446.333 801.932 359 671.932" fill="#b42125"/><polygon points="60.667 1011.933 60.667 959.933 314 959.933 321 945.932 53.667 945.932 53.667 1025.932 60.667 1011.933" fill="#edcacb"/><polygon points="314 1011.933 314 959.933 321 945.932 321 1025.932 314 1011.933" fill="#8f1a1c"/><polygon points="53.667 915.266 60.667 901.265 60.667 685.932 152 685.932 159 671.932 53.667 671.932 53.667 915.266" fill="#edcacb"/><polygon points="239.957 685.932 217.333 671.932 359 671.932 356.681 685.932 239.957 685.932" fill="#edcacb"/><polygon points="374.929 870.66 374.667 887.266 446.333 801.932 433.738 800.636 374.929 870.66" fill="#8e191b"/><polygon points="391.333 1011.933 384.333 1025.932 384.333 915.266 582.333 671.932 675.667 671.932 650.86 685.932 584.449 685.932 391.333 923.095 391.333 1011.933" fill="#edcacb"/><polygon points="484 881.406 491 889.266 491 1025.932 484 1011.933 484 881.406" fill="#8e191b"/><polygon points="789 841.897 789 1011.933 796 1025.932 796 833.932 789 841.897" fill="#8e191b"/><polygon points="690 707.932 697 732.539 697 1011.933 690 1025.932 690 707.932" fill="#edcacb"/><polygon points="697 671.932 721.417 685.932 785.221 685.932 787.333 671.932 697 671.932" fill="#edcacb"/><polygon points="984.333 671.932 984.333 933.575 787.333 671.932 697 671.932 980.333 1025.932 1028.667 1025.932 1028.667 671.932 984.333 671.932" fill="#b42326"/><polygon points="1021.666 685.932 1028.667 671.932 984.333 671.932 984.333 933.575 991.333 959.679 991.333 685.932 1021.666 685.932" fill="#edcacb"/><polygon points="982.34 1011.933 980.333 1025.932 1028.667 1025.932 1021.666 1011.933 982.34 1011.933" fill="#8e191b"/><polygon points="1228.467 983.078 1248.333 986.599 1177.333 1025.932 1176.382 1011.933 1228.467 983.078" fill="#8e191b"/><polygon points="1183.252 939.728 1183.667 924.599 1039.333 1025.932 1080.408 1011.933 1183.252 939.728" fill="#edcacb"/><polygon points="1152.655 842.414 1134.333 840.599 1178.333 809.266 1177.906 824.432 1152.655 842.414" fill="#edcacb"/><polygon points="1253.663 898.519 1254 883.266 1294 852.565 1293.791 867.722 1253.663 898.519" fill="#edcacb"/><polygon points="1095.258 685.932 1064.333 671.932 1214.667 671.932 1213.107 685.932 1095.258 685.932" fill="#edcacb"/><polygon points="1324.432 722.858 1374.581 685.932 1472.453 685.932 1513.333 671.932 1373.333 671.932 1306.333 721.266 1324.432 722.858" fill="#edcacb"/><polygon points="1378.963 876.849 1378.667 891.932 1418.667 863.266 1400.333 861.533 1378.963 876.849" fill="#8e191b"/><polygon points="1254.347 837.752 1254 852.933 1298.667 819.932 1298.927 804.815 1254.347 837.752" fill="#8e191b"/><polygon points="1365.384 761.483 1365 776.599 1513.333 671.932 1472.453 685.932 1365.384 761.483" fill="#8e191b"/><polygon points="1332.236 1011.933 1330.667 1025.932 1487.333 1025.932 1454.612 1011.933 1332.236 1011.933" fill="#8e191b"/><polygon points="1080.408 1011.933 1183.252 939.728 1228.467 983.078 1176.382 1011.933 1080.408 1011.933" fill="#d12128"/><polygon points="1298.927 804.815 1254.347 837.752 1095.258 685.932 1213.107 685.932 1400.333 861.533 1378.963 876.849 1298.927 804.815" fill="#d12128"/><rect x="-1.333" y="747.932" width="215.333" height="91.333" transform="translate(899.932 687.265) rotate(90)" fill="url(#linear-gradient-3)"/><rect x="161.333" y="859.267" width="52" height="253.333" transform="translate(1173.266 798.6) rotate(90)" fill="url(#linear-gradient-4)"/><polygon points="391.333 1011.933 391.333 923.095 584.449 685.932 650.86 685.932 484 881.406 484 1011.933 391.333 1011.933" fill="url(#linear-gradient-5)"/><polygon points="239.957 685.932 356.681 685.932 433.738 800.636 374.929 870.66 239.957 685.932" fill="url(#linear-gradient-6)"/><polygon points="697 1011.933 697 732.539 789 841.897 789 1011.933 697 1011.933" fill="url(#linear-gradient-7)"/><polygon points="982.34 1011.933 721.417 685.932 785.221 685.932 991.333 959.679 991.333 685.932 1021.666 685.932 1021.666 1011.933 982.34 1011.933" fill="url(#linear-gradient-8)"/><polygon points="1332.236 1011.933 1152.655 842.414 1177.906 824.432 1253.663 898.519 1293.791 867.722 1454.612 1011.933 1332.236 1011.933" fill="url(#linear-gradient-9)"/><polygon points="1324.432 722.858 1374.581 685.932 1472.453 685.932 1365.384 761.483 1324.432 722.858" fill="url(#linear-gradient-10)"/><rect id="rect3" x="1492.208" y="13.353" width="81.792" height="513.658" fill="#333"/><path id="path5" d="M201.809,0A59.727,59.727,0,0,0,145.6,38.79h0L0,527.152H87.273L121,394.767H283.179l35.275,132.385h89.1L258.445,39.212h0A59.742,59.742,0,0,0,201.809,0Zm-.843,112.429L257.18,326.186H146.017Z" fill="#333"/><path id="path7" d="M360.615,11.526V80.389H487.1V527.152h81.792V80.389H696.214V11.526Z" fill="#333"/><path id="path9" d="M1322.16,340.661a28.106,28.106,0,0,1,0-28.107,34.635,34.635,0,0,1,12.086-9.7,166.944,166.944,0,0,0,72.8-143.347c0-84.321-53.123-153.6-119.175-158.945-8.994-.563-27.4-.563-27.4-.563h-92.894c-32.324,0-58.6,34.994-58.6,78h0V527.011h79.4V110.182h0c0-13.069,8.011-23.75,17.708-23.75h53.684a153.379,153.379,0,0,1,22.205.984h0c23.75,2.529,43,25.015,48.625,54.809v3.653h0v13.773a79.5,79.5,0,0,1-28.107,63.944,72.284,72.284,0,0,1-10.54,7.026,86.61,86.61,0,0,1-8.994,4.5,93.679,93.679,0,0,0-39.491,28.107,94.16,94.16,0,0,0-16.583,53.825,95.773,95.773,0,0,0,14.054,51.436l100.9,158.946h94.44L1322.16,340.661" fill="#333"/><path id="path2852" d="M862.327,0A59.727,59.727,0,0,0,806.113,38.79h0l-145.6,488.362h87.273l33.728-132.385H943.7l35.415,132.385h88.959L918.963,39.212h0A59.727,59.727,0,0,0,862.749.424Zm-.843,112.429L917.7,326.186H806.534Z" fill="#333"/></svg>