<svg id="Layer_2" data-name="Layer 2" xmlns="http://www.w3.org/2000/svg" xmlns:xlink="http://www.w3.org/1999/xlink" viewBox="0 0 1574 270"><defs><linearGradient id="linear-gradient" x1="787" y1="8.5" x2="787" y2="261.5" gradientUnits="userSpaceOnUse"><stop offset="0" stop-color="#808285"/><stop offset="1" stop-color="#363436"/></linearGradient><linearGradient id="linear-gradient-2" x1="759.727" y1="-87.119" x2="814.273" y2="357.119" gradientUnits="userSpaceOnUse"><stop offset="0.35" stop-color="#a7a9ac"/><stop offset="0.57" stop-color="#231f20"/></linearGradient><linearGradient id="linear-gradient-3" x1="53.027" y1="58.604" x2="159.639" y2="148.062" gradientTransform="translate(3 209.666) rotate(-90)" gradientUnits="userSpaceOnUse"><stop offset="0" stop-color="#feda00"/><stop offset="0.151" stop-color="#fdd601"/><stop offset="0.307" stop-color="#fcc904"/><stop offset="0.466" stop-color="#f9b509"/><stop offset="0.627" stop-color="#f69810"/><stop offset="0.788" stop-color="#f17219"/><stop offset="0.95" stop-color="#eb4524"/></linearGradient><linearGradient id="linear-gradient-4" x1="169.906" y1="148.886" x2="204.761" y2="250.114" gradientTransform="translate(-12.167 386.834) rotate(-90)" gradientUnits="userSpaceOnUse"><stop offset="0.299" stop-color="#feda00"/><stop offset="0.41" stop-color="#fdd601"/><stop offset="0.526" stop-color="#fcc904"/><stop offset="0.643" stop-color="#f9b509"/><stop offset="0.762" stop-color="#f69810"/><stop offset="0.881" stop-color="#f17219"/><stop offset="1" stop-color="#eb4524"/></linearGradient><linearGradient id="linear-gradient-5" x1="493.898" y1="93.564" x2="547.036" y2="166.702" gradientTransform="matrix(1, 0, 0, 1, 0, 0)" xlink:href="#linear-gradient-3"/><linearGradient id="linear-gradient-6" x1="239.957" y1="95.682" x2="433.738" y2="95.682" gradientUnits="userSpaceOnUse"><stop offset="0.216" stop-color="#feda00"/><stop offset="0.333" stop-color="#fdd601"/><stop offset="0.454" stop-color="#fcc904"/><stop offset="0.576" stop-color="#f9b509"/><stop offset="0.701" stop-color="#f69810"/><stop offset="0.825" stop-color="#f17219"/><stop offset="0.95" stop-color="#eb4524"/></linearGradient><linearGradient id="linear-gradient-7" x1="668.15" y1="107.185" x2="790.926" y2="210.206" gradientTransform="matrix(1, 0, 0, 1, 0, 0)" xlink:href="#linear-gradient-3"/><linearGradient id="linear-gradient-8" x1="783.445" y1="-24.422" x2="1039.901" y2="190.77" gradientUnits="userSpaceOnUse"><stop offset="0.5" stop-color="#feda00"/><stop offset="0.579" stop-color="#fdd601"/><stop offset="0.662" stop-color="#fcc904"/><stop offset="0.745" stop-color="#f9b509"/><stop offset="0.83" stop-color="#f69810"/><stop offset="0.915" stop-color="#f17219"/><stop offset="1" stop-color="#eb4524"/></linearGradient><linearGradient id="linear-gradient-9" x1="1194.167" y1="78.268" x2="1413.099" y2="261.973" gradientUnits="userSpaceOnUse"><stop offset="0" stop-color="#feda00"/><stop offset="0.159" stop-color="#fdd601"/><stop offset="0.323" stop-color="#fcc904"/><stop offset="0.491" stop-color="#f9b509"/><stop offset="0.66" stop-color="#f69810"/><stop offset="0.83" stop-color="#f17219"/><stop offset="1" stop-color="#eb4524"/></linearGradient><linearGradient id="linear-gradient-10" x1="1359.557" y1="26.102" x2="1437.328" y2="91.36" xlink:href="#linear-gradient-9"/></defs><title>atarilynx -22</title><rect width="1574" height="270" rx="53.5" ry="53.5" fill="#231f20"/><rect x="8.5" y="8.5" width="1557" height="253" rx="45" ry="45" fill="url(#linear-gradient)"/><path d="M1520.5,8.5a45.132,45.132,0,0,1,45,45v163a45.132,45.132,0,0,1-45,45H53.5a45.132,45.132,0,0,1-45-45V53.5a45.132,45.132,0,0,1,45-45h1467m0-8.5H53.5A53.561,53.561,0,0,0,0,53.5v163A53.561,53.561,0,0,0,53.5,270h1467a53.561,53.561,0,0,0,53.5-53.5V53.5A53.561,53.561,0,0,0,1520.5,0Z" fill="url(#linear-gradient-2)"/><path d="M166,172.167H60.667V50.5H166ZM328,187.5H60.667v40H328Zm261.333-137-198,121.667V227.5H498V159.167L682.667,50.5ZM381.667,158.167,453.333,115.5,366,50.5H224.333ZM803,131.5l-106-63v159H803Zm188.333-81V181.322L794.333,50.5H704l283.333,177h48.334V50.5Zm55,177h138l71-19.667-64.666-31Zm95-92.667L1337.667,227.5h156.666L1301,140.816l-40,15.351-75.667-37Zm-70-84.333L1261,141l44.667-16.5,80,36,40-14.333-204-95.667Zm242,24.667L1372,102.833,1520.333,50.5h-140Z" fill="#231f20"/><polygon points="1513.333 42.5 1365 94.833 1306.333 67.167 1373.333 42.5 1513.333 42.5" fill="#b42326"/><polygon points="1214.667 42.5 1064.333 42.5 1254 133 1298.667 116.5 1378.667 152.5 1418.667 138.167 1214.667 42.5" fill="#b42326"/><polygon points="1294 132.816 1254 148.167 1178.333 111.167 1134.333 126.833 1330.667 219.5 1487.333 219.5 1294 132.816" fill="#b42326"/><polygon points="1183.667 168.833 1039.333 219.5 1177.333 219.5 1248.333 199.833 1183.667 168.833" fill="#b42326"/><polygon points="690 60.5 690 219.5 796 219.5 796 123.5 690 60.5" fill="#b42326"/><polygon points="582.333 42.5 384.333 164.167 384.333 219.5 491 219.5 491 151.167 675.667 42.5 582.333 42.5" fill="#b42226"/><rect x="53.667" y="179.5" width="267.333" height="40" fill="#b42226"/><polygon points="53.667 42.5 53.198 164.167 158.531 164.167 158.531 42.5 53.667 42.5" fill="#b42125"/><polygon points="359 42.5 217.333 42.5 374.667 150.167 446.333 107.5 359 42.5" fill="#b42125"/><polygon points="60.667 212.5 60.667 186.5 314 186.5 321 179.5 53.667 179.5 53.667 219.5 60.667 212.5" fill="#edcacb"/><polygon points="314 212.5 314 186.5 321 179.5 321 219.5 314 212.5" fill="#8f1a1c"/><polygon points="53.667 164.167 60.667 157.166 60.667 49.5 152 49.5 159 42.5 53.667 42.5 53.667 164.167" fill="#edcacb"/><polygon points="239.957 49.5 217.333 42.5 359 42.5 356.681 49.5 239.957 49.5" fill="#edcacb"/><polygon points="374.929 141.864 374.667 150.167 446.333 107.5 433.738 106.852 374.929 141.864" fill="#8e191b"/><polygon points="391.333 212.5 384.333 219.5 384.333 164.167 582.333 42.5 675.667 42.5 650.86 49.5 584.449 49.5 391.333 168.081 391.333 212.5" fill="#edcacb"/><polygon points="484 147.237 491 151.167 491 219.5 484 212.5 484 147.237" fill="#8e191b"/><polygon points="789 127.482 789 212.5 796 219.5 796 123.5 789 127.482" fill="#8e191b"/><polygon points="690 60.5 697 72.803 697 212.5 690 219.5 690 60.5" fill="#edcacb"/><polygon points="697 42.5 721.417 49.5 785.221 49.5 787.333 42.5 697 42.5" fill="#edcacb"/><polygon points="984.333 42.5 984.333 173.321 787.333 42.5 697 42.5 980.333 219.5 1028.667 219.5 1028.667 42.5 984.333 42.5" fill="#b42326"/><polygon points="1021.666 49.5 1028.667 42.5 984.333 42.5 984.333 173.322 991.333 186.373 991.333 49.5 1021.666 49.5" fill="#edcacb"/><polygon points="982.34 212.5 980.333 219.5 1028.667 219.5 1021.666 212.5 982.34 212.5" fill="#8e191b"/><polygon points="1228.467 198.073 1248.333 199.833 1177.333 219.5 1176.382 212.5 1228.467 198.073" fill="#8e191b"/><polygon points="1183.252 176.398 1183.667 168.833 1039.333 219.5 1080.408 212.5 1183.252 176.398" fill="#edcacb"/><polygon points="1152.655 127.741 1134.333 126.833 1178.333 111.167 1177.906 118.75 1152.655 127.741" fill="#edcacb"/><polygon points="1253.663 155.793 1254 148.167 1294 132.816 1293.791 140.395 1253.663 155.793" fill="#edcacb"/><polygon points="1095.258 49.5 1064.333 42.5 1214.667 42.5 1213.107 49.5 1095.258 49.5" fill="#edcacb"/><polygon points="1324.432 67.963 1374.581 49.5 1472.453 49.5 1513.333 42.5 1373.333 42.5 1306.333 67.167 1324.432 67.963" fill="#edcacb"/><polygon points="1378.963 144.958 1378.667 152.5 1418.667 138.167 1400.333 137.3 1378.963 144.958" fill="#8e191b"/><polygon points="1254.347 125.41 1254 133 1298.667 116.5 1298.927 108.941 1254.347 125.41" fill="#8e191b"/><polygon points="1365.384 87.275 1365 94.833 1513.333 42.5 1472.453 49.5 1365.384 87.275" fill="#8e191b"/><polygon points="1332.236 212.5 1330.667 219.5 1487.333 219.5 1454.612 212.5 1332.236 212.5" fill="#8e191b"/><polygon points="1080.408 212.5 1183.252 176.398 1228.467 198.073 1176.382 212.5 1080.408 212.5" fill="#d12128"/><polygon points="1298.927 108.941 1254.347 125.41 1095.258 49.5 1213.107 49.5 1400.333 137.3 1378.963 144.958 1298.927 108.941" fill="#d12128"/><rect x="52.5" y="57.667" width="107.667" height="91.333" transform="translate(209.666 -3) rotate(90)" fill="url(#linear-gradient-3)"/><rect x="174.333" y="72.834" width="26" height="253.333" transform="translate(386.834 12.167) rotate(90)" fill="url(#linear-gradient-4)"/><polygon points="391.333 212.5 391.333 168.081 584.449 49.5 650.86 49.5 484 147.237 484 212.5 391.333 212.5" fill="url(#linear-gradient-5)"/><polygon points="239.957 49.5 356.681 49.5 433.738 106.852 374.929 141.864 239.957 49.5" fill="url(#linear-gradient-6)"/><polygon points="697 212.5 697 72.803 789 127.482 789 212.5 697 212.5" fill="url(#linear-gradient-7)"/><polygon points="982.34 212.5 721.417 49.5 785.221 49.5 991.333 186.373 991.333 49.5 1021.666 49.5 1021.666 212.5 982.34 212.5" fill="url(#linear-gradient-8)"/><polygon points="1332.236 212.5 1152.655 127.741 1177.906 118.75 1253.663 155.793 1293.791 140.395 1454.612 212.5 1332.236 212.5" fill="url(#linear-gradient-9)"/><polygon points="1324.432 67.963 1374.581 49.5 1472.453 49.5 1365.384 87.275 1324.432 67.963" fill="url(#linear-gradient-10)"/></svg>