<svg xmlns="http://www.w3.org/2000/svg" viewBox="0 0 100 100"><title>atari5200-2</title><path d="M47.071.922,46.936,5.17,31.245,5.025l-2.6,12.149a18.529,18.529,0,0,1,5.212-.8A12.889,12.889,0,0,1,43.67,20.54a14.208,14.208,0,0,1,3.581,10.491,16.835,16.835,0,0,1-2.271,8.053,14.575,14.575,0,0,1-5.626,5.579,16.028,16.028,0,0,1-8,1.883,12.789,12.789,0,0,1-8.96-3.407,13.3,13.3,0,0,1-4.14-8.645l4.532.042a9.946,9.946,0,0,0,1.592,4.2,8.57,8.57,0,0,0,3.16,2.625,9.446,9.446,0,0,0,4.22,1.025,10.132,10.132,0,0,0,7.578-3.262,11.99,11.99,0,0,0,3.389-8.3,9.715,9.715,0,0,0-2.588-7.358,9.98,9.98,0,0,0-7.443-2.892,25.144,25.144,0,0,0-9.537,2.309L27.95.742Z" fill="#3b6fc6"/><path d="M57.583,14.981l-4.235-.038a15.8,15.8,0,0,1,4.712-10.8A14.281,14.281,0,0,1,68.539,0a12.66,12.66,0,0,1,9.734,4.067,12.93,12.93,0,0,1,3.469,9.417,15.08,15.08,0,0,1-2.023,7.1,53.315,53.315,0,0,1-7.264,8.935L61.075,41.391l20.37.189-.139,4.31-29.987-.284L68.78,27.339a57.051,57.051,0,0,0,6.938-8.184,11.459,11.459,0,0,0,1.731-5.65A8.576,8.576,0,0,0,74.878,7a9.151,9.151,0,0,0-6.713-2.782A9.678,9.678,0,0,0,61.036,7,12.591,12.591,0,0,0,57.583,14.981Z" fill="#3b6fc6"/><path d="M23.747,52.611a22.492,22.492,0,0,1,22.8,23.646,23.317,23.317,0,0,1-7.274,16.569A22.759,22.759,0,0,1,22.609,99.5,21.976,21.976,0,0,1,6.247,92.546,21.985,21.985,0,0,1,.014,76.033,24.364,24.364,0,0,1,3.473,64.139a23.29,23.29,0,0,1,8.674-8.524A22.776,22.776,0,0,1,23.747,52.611Zm.062,4.341a18.406,18.406,0,0,0-9.376,2.494,19.119,19.119,0,0,0-7.076,6.889,19.863,19.863,0,0,0-2.78,9.727A17.93,17.93,0,0,0,9.6,89.552a17.491,17.491,0,0,0,12.984,5.6,19.035,19.035,0,0,0,9.593-2.433,18.575,18.575,0,0,0,7.05-6.831A19.892,19.892,0,0,0,41.988,76.2a18.823,18.823,0,0,0-2.141-9.636,17.846,17.846,0,0,0-6.686-6.943A18.2,18.2,0,0,0,23.809,56.952Z" fill="#3b6fc6"/><path d="M77.184,53.113a22.493,22.493,0,0,1,22.8,23.646,23.3,23.3,0,0,1-7.276,16.565A22.761,22.761,0,0,1,76.046,100a22.527,22.527,0,0,1-22.6-23.464,24.383,24.383,0,0,1,3.46-11.9,23.286,23.286,0,0,1,8.669-8.522A22.751,22.751,0,0,1,77.184,53.113Zm.056,4.341a18.38,18.38,0,0,0-9.376,2.494,19.136,19.136,0,0,0-7.077,6.889,19.88,19.88,0,0,0-2.777,9.727,17.934,17.934,0,0,0,5.03,13.49,17.5,17.5,0,0,0,12.978,5.6,19.055,19.055,0,0,0,9.6-2.432,18.549,18.549,0,0,0,7.043-6.831,19.824,19.824,0,0,0,2.76-9.693,18.767,18.767,0,0,0-2.143-9.634,17.8,17.8,0,0,0-6.68-6.943A18.22,18.22,0,0,0,77.24,57.454Z" fill="#3b6fc6"/></svg>