<svg id="Layer_2" data-name="Layer 2" xmlns="http://www.w3.org/2000/svg" xmlns:xlink="http://www.w3.org/1999/xlink" viewBox="0 0 930.031 930.031"><defs><linearGradient id="linear-gradient" x1="402.607" y1="973.265" x2="527.424" y2="-43.296" gradientTransform="matrix(1, 0, 0, -1, 0, 930)" gradientUnits="userSpaceOnUse"><stop offset="0.35" stop-color="#a7a9ac"/><stop offset="0.57" stop-color="#231f20"/></linearGradient><linearGradient id="linear-gradient-2" x1="465.016" y1="921.5" x2="465.016" y2="8.469" gradientTransform="matrix(1, 0, 0, -1, 0, 930)" gradientUnits="userSpaceOnUse"><stop offset="0" stop-color="#808285"/><stop offset="1" stop-color="#363436"/></linearGradient><linearGradient id="linear-gradient-3" x1="124.117" y1="800.213" x2="282.716" y2="667.131" gradientTransform="matrix(1, 0, 0, -1, 0, 930)" gradientUnits="userSpaceOnUse"><stop offset="0" stop-color="#feda00"/><stop offset="0.151" stop-color="#fdd601"/><stop offset="0.307" stop-color="#fcc904"/><stop offset="0.466" stop-color="#f9b509"/><stop offset="0.627" stop-color="#f69810"/><stop offset="0.788" stop-color="#f17219"/><stop offset="0.95" stop-color="#eb4524"/></linearGradient><linearGradient id="linear-gradient-4" x1="263.064" y1="605.214" x2="305.769" y2="481.192" gradientTransform="matrix(1, 0, 0, -1, 0, 930)" gradientUnits="userSpaceOnUse"><stop offset="0.299" stop-color="#feda00"/><stop offset="0.41" stop-color="#fdd601"/><stop offset="0.526" stop-color="#fcc904"/><stop offset="0.643" stop-color="#f9b509"/><stop offset="0.762" stop-color="#f69810"/><stop offset="0.881" stop-color="#f17219"/><stop offset="1" stop-color="#eb4524"/></linearGradient><linearGradient id="linear-gradient-5" x1="563.307" y1="754.4" x2="682.123" y2="590.865" xlink:href="#linear-gradient-3"/><linearGradient id="linear-gradient-6" x1="337.04" y1="748.826" x2="530.821" y2="748.826" gradientTransform="matrix(1, 0, 0, -1, 0, 930)" gradientUnits="userSpaceOnUse"><stop offset="0.216" stop-color="#feda00"/><stop offset="0.333" stop-color="#fdd601"/><stop offset="0.454" stop-color="#fcc904"/><stop offset="0.576" stop-color="#f9b509"/><stop offset="0.701" stop-color="#f69810"/><stop offset="0.825" stop-color="#f17219"/><stop offset="0.95" stop-color="#eb4524"/></linearGradient><linearGradient id="linear-gradient-7" x1="-7.923" y1="301.021" x2="182.307" y2="141.4" xlink:href="#linear-gradient-3"/><linearGradient id="linear-gradient-8" x1="121.062" y1="471.795" x2="456.224" y2="190.561" gradientTransform="matrix(1, 0, 0, -1, 0, 930)" gradientUnits="userSpaceOnUse"><stop offset="0.5" stop-color="#feda00"/><stop offset="0.579" stop-color="#fdd601"/><stop offset="0.662" stop-color="#fcc904"/><stop offset="0.745" stop-color="#f9b509"/><stop offset="0.83" stop-color="#f69810"/><stop offset="0.915" stop-color="#f17219"/><stop offset="1" stop-color="#eb4524"/></linearGradient><linearGradient id="linear-gradient-9" x1="534.607" y1="295.745" x2="794.466" y2="77.698" gradientTransform="matrix(1, 0, 0, -1, 0, 930)" gradientUnits="userSpaceOnUse"><stop offset="0" stop-color="#feda00"/><stop offset="0.159" stop-color="#fdd601"/><stop offset="0.323" stop-color="#fcc904"/><stop offset="0.491" stop-color="#f9b509"/><stop offset="0.66" stop-color="#f69810"/><stop offset="0.83" stop-color="#f17219"/><stop offset="1" stop-color="#eb4524"/></linearGradient><linearGradient id="linear-gradient-10" x1="726.255" y1="437.823" x2="795.113" y2="380.045" xlink:href="#linear-gradient-9"/></defs><title>atarilynx</title><path d="M876.531,0H53.5A53.562,53.562,0,0,0,0,53.5V876.531a53.562,53.562,0,0,0,53.5,53.5H876.531a53.562,53.562,0,0,0,53.5-53.5V53.5A53.562,53.562,0,0,0,876.531,0Z" fill="#231f20"/><path d="M876.531,0H53.5A53.562,53.562,0,0,0,0,53.5V876.531a53.562,53.562,0,0,0,53.5,53.5H876.531a53.562,53.562,0,0,0,53.5-53.5V53.5A53.562,53.562,0,0,0,876.531,0Z" fill="url(#linear-gradient)"/><rect x="8.5" y="8.5" width="913.031" height="913.031" rx="45" ry="45" fill="url(#linear-gradient-2)"/><rect x="157.75" y="91.686" width="105.333" height="240.974" fill="#231f20"/><rect x="157.75" y="363.029" width="267.333" height="79.224" fill="#231f20"/><polygon points="686.416 91.686 488.416 332.66 488.416 442.254 595.083 442.254 595.083 306.912 779.75 91.686 686.416 91.686" fill="#231f20"/><polygon points="478.75 304.932 550.416 220.425 463.083 91.686 321.416 91.686 478.75 304.932" fill="#231f20"/><polygon points="679.416 75.841 481.416 316.815 481.416 426.409 588.083 426.409 588.083 291.067 772.75 75.841 679.416 75.841" fill="#b42226"/><rect x="150.75" y="347.185" width="267.333" height="79.224" fill="#b42226"/><polygon points="150.75 75.841 150.281 316.815 255.614 316.815 255.614 75.841 150.75 75.841" fill="#b42125"/><polygon points="456.083 75.841 314.416 75.841 471.75 289.087 543.416 204.58 456.083 75.841" fill="#b42125"/><polygon points="157.75 412.545 157.75 361.05 411.083 361.05 418.083 347.185 150.75 347.185 150.75 426.409 157.75 412.545" fill="#edcacb"/><polygon points="411.083 412.545 411.083 361.05 418.083 347.185 418.083 426.409 411.083 412.545" fill="#8f1a1c"/><polygon points="150.75 316.815 157.75 302.95 157.75 89.705 249.083 89.705 256.083 75.841 150.75 75.841 150.75 316.815" fill="#edcacb"/><polygon points="337.04 89.705 314.416 75.841 456.083 75.841 453.764 89.705 337.04 89.705" fill="#edcacb"/><polygon points="472.012 272.642 471.75 289.087 543.416 204.58 530.821 203.297 472.012 272.642" fill="#8e191b"/><polygon points="488.416 412.545 481.416 426.409 481.416 316.815 679.416 75.841 772.75 75.841 747.943 89.705 681.532 89.705 488.416 324.569 488.416 412.545" fill="#edcacb"/><polygon points="581.083 283.283 588.083 291.067 588.083 426.409 581.083 412.545 581.083 283.283" fill="#8e191b"/><rect x="157.75" y="89.705" width="91.333" height="213.246" fill="url(#linear-gradient-3)"/><rect x="157.75" y="361.049" width="253.333" height="51.496" fill="url(#linear-gradient-4)"/><polygon points="488.416 412.545 488.416 324.569 681.532 89.705 747.943 89.705 581.083 283.283 581.083 412.545 488.416 412.545" fill="url(#linear-gradient-5)"/><polygon points="337.04 89.705 453.764 89.705 530.821 203.297 472.012 272.642 337.04 89.705" fill="url(#linear-gradient-6)"/><polygon points="166.198 664.051 60.198 539.273 60.198 854.19 166.198 854.19 166.198 664.051" fill="#231f20"/><polygon points="354.531 503.622 354.531 762.728 157.531 503.622 67.198 503.622 350.531 854.19 354.531 854.19 388.198 854.19 398.865 854.19 398.865 503.622 354.531 503.622" fill="#231f20"/><polygon points="409.531 854.19 547.531 854.19 618.531 815.238 553.865 753.839 409.531 854.19" fill="#231f20"/><polygon points="504.531 670.654 700.865 854.19 857.531 854.19 664.198 682.504 624.198 712.907 548.531 639.624 504.531 670.654" fill="#231f20"/><polygon points="434.531 503.622 624.198 682.867 668.865 650.187 748.865 721.489 788.865 693.1 584.865 503.622 434.531 503.622" fill="#231f20"/><polygon points="676.531 552.477 735.198 607.274 883.531 503.622 743.531 503.622 676.531 552.477" fill="#231f20"/><polygon points="876.531 487.777 728.198 591.429 669.531 536.632 736.531 487.777 876.531 487.777" fill="#b42326"/><polygon points="577.865 487.777 427.531 487.777 617.198 667.022 661.865 634.342 741.865 705.644 781.865 677.255 577.865 487.777" fill="#b42326"/><polygon points="657.198 666.659 617.198 697.062 541.531 623.779 497.531 654.809 693.865 838.345 850.531 838.345 657.198 666.659" fill="#b42326"/><polygon points="546.865 737.994 402.531 838.345 540.531 838.345 611.531 799.393 546.865 737.994" fill="#b42326"/><polygon points="53.198 523.428 53.198 838.345 159.198 838.345 159.198 648.206 53.198 523.428" fill="#b42326"/><polygon points="152.198 656.094 152.198 824.482 159.198 838.345 159.198 648.206 152.198 656.094" fill="#8e191b"/><polygon points="53.198 523.428 60.198 547.796 60.198 824.482 53.198 838.345 53.198 523.428" fill="#edcacb"/><polygon points="60.198 487.777 84.615 501.641 148.419 501.641 150.531 487.777 60.198 487.777" fill="#edcacb"/><polygon points="347.531 487.777 347.531 746.884 150.531 487.777 60.198 487.777 343.531 838.345 391.865 838.345 391.865 487.777 347.531 487.777" fill="#b42326"/><polygon points="384.864 501.641 391.865 487.777 347.531 487.777 347.531 746.884 354.531 772.734 354.531 501.641 384.864 501.641" fill="#edcacb"/><polygon points="345.538 824.482 343.531 838.345 391.865 838.345 384.864 824.482 345.538 824.482" fill="#8e191b"/><polygon points="591.665 795.906 611.531 799.393 540.531 838.345 539.58 824.482 591.665 795.906" fill="#8e191b"/><polygon points="546.45 752.977 546.865 737.994 402.531 838.345 443.606 824.482 546.45 752.977" fill="#edcacb"/><polygon points="515.853 656.605 497.531 654.809 541.531 623.779 541.104 638.798 515.853 656.605" fill="#edcacb"/><polygon points="616.862 712.167 617.198 697.062 657.198 666.659 656.989 681.669 616.862 712.167" fill="#edcacb"/><polygon points="458.456 501.641 427.531 487.777 577.865 487.777 576.305 501.641 458.456 501.641" fill="#edcacb"/><polygon points="687.63 538.209 737.779 501.641 835.652 501.641 876.531 487.777 736.531 487.777 669.531 536.632 687.63 538.209" fill="#edcacb"/><polygon points="742.161 690.707 741.865 705.644 781.865 677.255 763.531 675.539 742.161 690.707" fill="#8e191b"/><polygon points="617.545 651.99 617.198 667.023 661.865 634.342 662.125 619.371 617.545 651.99" fill="#8e191b"/><polygon points="728.582 576.459 728.198 591.429 876.531 487.777 835.652 501.641 728.582 576.459" fill="#8e191b"/><polygon points="695.434 824.482 693.865 838.345 850.531 838.345 817.81 824.482 695.434 824.482" fill="#8e191b"/><polygon points="443.606 824.482 546.45 752.977 591.665 795.906 539.58 824.482 443.606 824.482" fill="#d12128"/><polygon points="662.125 619.371 617.545 651.99 458.456 501.641 576.305 501.641 763.531 675.539 742.161 690.707 662.125 619.371" fill="#d12128"/><polygon points="60.198 824.482 60.198 547.796 152.199 656.094 152.199 824.482 60.198 824.482" fill="url(#linear-gradient-7)"/><polygon points="345.538 824.482 84.615 501.641 148.419 501.641 354.531 772.734 354.531 501.641 384.864 501.641 384.864 824.482 345.538 824.482" fill="url(#linear-gradient-8)"/><polygon points="695.434 824.482 515.853 656.605 541.104 638.798 616.862 712.167 656.989 681.669 817.81 824.482 695.434 824.482" fill="url(#linear-gradient-9)"/><polygon points="687.63 538.209 737.779 501.641 835.652 501.641 728.582 576.459 687.63 538.209" fill="url(#linear-gradient-10)"/></svg>