<svg id="Capa_1" data-name="Capa 1" xmlns="http://www.w3.org/2000/svg" viewBox="0 0 511.999 310.215"><title>bandcamp</title><path d="M169.527,292.364c29.337,0,43.093-26.6,43.093-61.735,0-20.476-2.14-59.9-43.7-59.9-38.818,0-43.091,41.874-43.091,67.846C125.828,281.047,152.416,292.364,169.527,292.364Z" fill="#639aa9"/><path d="M512,0H143.383L101.065,91.558h25.978v79.774h.615c11.608-16.806,27.5-24.448,46.147-24.756,42.487,0,66.625,34.85,66.625,79.774,0,30.752-10.322,69.8-42.726,83.865H300.66c-27.421-11.28-42.989-39.4-42.989-74.7,0-49.509,23.833-88.936,76.706-88.936,41.874,0,57.763,30.567,59.9,58.377H368.306c-3.353-21.394-15.289-34.226-37.9-34.226-33.3,0-44,31.774-44,60.2,0,27.508,6.729,61.436,43.711,61.436,18.025,0,33.6-13.455,38.193-37.9h25.975c-.014.105-.029.21-.039.32Z" fill="#639aa9"/><path d="M368.617,310.214l4.961-10.732a55.53,55.53,0,0,1-16.325,10.732Z" fill="#639aa9"/><polygon points="100.147 93.544 0 310.214 100.147 310.214 100.147 93.544" fill="#639aa9"/><path d="M125.522,310.214h20.263c-10.48-5.342-16.209-13.527-19.654-19.079h-.609Z" fill="#639aa9"/></svg>