<svg id="Capa_1" data-name="Capa 1" xmlns="http://www.w3.org/2000/svg" viewBox="0 0 497.4 511.999"><title>boardgame</title><path id="_Compound_Path_" data-name="&lt;Compound Path&gt;" d="M78.669,402.6A30.729,30.729,0,1,0,109.4,433.332,30.764,30.764,0,0,0,78.669,402.6Zm0,40.024a9.3,9.3,0,1,1,9.3-9.3A9.306,9.306,0,0,1,78.669,442.628ZM486.685,0h-82.55a10.716,10.716,0,0,0-10.717,10.717V49.935a78.632,78.632,0,0,0-49.565,27.45h-217a126.854,126.854,0,0,0,0,253.708H355.947a25.874,25.874,0,0,1,0,51.747h-217a78.668,78.668,0,1,0,0,100.981H355.947A125.986,125.986,0,0,0,445.578,446.6c2.905-2.906,9.868-10.845,10.328-11.646a126.884,126.884,0,0,0-99.96-204.842H245.3c-.092,0-.184,0-.274,0l-118.174,0a26.088,26.088,0,0,1-25.873-25.875,25.4,25.4,0,0,1,2.9-11.8q.212-.354.392-.72a26.463,26.463,0,0,1,4.35-5.713,25.666,25.666,0,0,1,18.235-7.641h217a78.667,78.667,0,0,0,136.3-70.794,10.716,10.716,0,1,0-20.71,5.519,57.241,57.241,0,1,1-66.022-41.444v56.229a10.717,10.717,0,1,0,21.433,0V78.462h71.834A10.715,10.715,0,0,0,497.4,67.746V10.717A10.713,10.713,0,0,0,486.685,0ZM78.667,490.567A57.235,57.235,0,1,1,135.9,433.332,57.3,57.3,0,0,1,78.667,490.567ZM234.45,462.388H151.777a78.69,78.69,0,0,0,0-58.115H234.45Zm94.483,0h-73.05V404.273h73.05Zm101.491-30.945a104.7,104.7,0,0,1-74.476,30.945h-5.582V404.273h5.582a46.945,46.945,0,0,0,33.386-13.915q.72-.72,1.4-1.463l41.1,41.1Q431.14,430.727,430.424,431.443Zm30.944-74.475a104.425,104.425,0,0,1-16.19,56.059l-43.6-43.6a47.271,47.271,0,0,0,.047-24.749l43.637-43.636A104.415,104.415,0,0,1,461.368,356.968Zm-111-105.424h5.582a104.688,104.688,0,0,1,74.475,30.946q.771.771,1.525,1.556l-41.106,41.105q-.733-.8-1.5-1.573a46.941,46.941,0,0,0-33.389-13.918h-5.582Zm-94.483,0h73.05V309.66h-73.05Zm-88.184,0H234.45V309.66H167.7ZM21.433,204.238a104.394,104.394,0,0,1,17.4-57.931l43.106,43.1a47.14,47.14,0,0,0,.366,30.719l-42.9,42.9A104.4,104.4,0,0,1,21.433,204.238Zm105.413,47.306h19.42V309.66H126.855A104.651,104.651,0,0,1,53.21,279.537L94.3,238.444A46.9,46.9,0,0,0,126.846,251.544Zm19.42-94.612H126.855a46.953,46.953,0,0,0-33.276,13.8L52.491,129.651a104.687,104.687,0,0,1,74.364-30.834h19.411Zm88.184,0H167.7V98.818H234.45Zm96.578,0H255.883V98.818h75.145a78.694,78.694,0,0,0,0,58.114Zm144.94-99.9H414.852v-35.6h61.116Z" fill="#fff"/></svg>