<svg id="Capa_1" data-name="Capa 1" xmlns="http://www.w3.org/2000/svg" viewBox="0 0 349.389 492.536"><title>bookmark</title><path d="M146.848,23.931A131.64,131.64,0,0,1,179.6,0H39.91A39.918,39.918,0,0,0,0,39.905V483.19a9.358,9.358,0,0,0,15.388,7.149l98.756-83.246a9.351,9.351,0,0,1,12.064,0l98.76,83.246a9.358,9.358,0,0,0,15.383-7.149V249.614a131.817,131.817,0,0,1-93.5-38.668C95.277,159.386,95.277,75.489,146.848,23.931Z" fill="#fff"/><path d="M317.483,40.3a109.1,109.1,0,1,0,0,154.283A109.207,109.207,0,0,0,317.483,40.3Zm-23.36,130.909a76.045,76.045,0,1,1,0-107.546A76.126,76.126,0,0,1,294.123,171.206Z" fill="#fff"/><path d="M260.178,97.6V72.8a19.826,19.826,0,1,0-39.652-.015v24.81H195.7a19.833,19.833,0,1,0,0,39.666h24.826v24.81a19.833,19.833,0,0,0,19.826,19.841,19.813,19.813,0,0,0,19.826-19.832v-24.8h24.793a19.838,19.838,0,1,0,0-39.676H260.178Z" fill="#fff"/></svg>