<svg id="Capa_1" data-name="Capa 1" xmlns="http://www.w3.org/2000/svg" viewBox="0 0 349.387 492.541"><title>bookmarked_light</title><circle cx="202.819" cy="146.569" r="136.089" fill="#62c746"/><path d="M202.839,316.137a169.288,169.288,0,0,1-119.98-49.613c-66.137-66.142-66.137-173.759,0-239.9A169,169,0,0,1,117.388,0H39.91A39.917,39.917,0,0,0,0,39.905V483.19a9.358,9.358,0,0,0,15.388,7.149l98.756-83.246a9.351,9.351,0,0,1,12.064,0l98.76,83.246a9.358,9.358,0,0,0,15.383-7.149V311.974A170.16,170.16,0,0,1,202.839,316.137Z" fill="#c4c4c4"/><path d="M306.5,42.891c-57.157-57.183-150.183-57.193-207.381,0-57.157,57.157-57.157,150.209,0,207.37,57.2,57.158,150.224,57.178,207.381,0C363.683,193.078,363.683,100.039,306.5,42.891ZM282.1,225.853a112.121,112.121,0,1,1,0-158.563l0,0a113.41,113.41,0,0,1,8.339,9.348l-87.615,87.615-49.351-36.62a23.492,23.492,0,0,0-28.2,37.578l65.652,48.836a23.486,23.486,0,0,0,30.7-2.184l90.413-90.413A112.174,112.174,0,0,1,282.1,225.853Z" fill="#c4c4c4"/></svg>