<svg id="Capa_1" data-name="Capa 1" xmlns="http://www.w3.org/2000/svg" viewBox="0 0 349.389 492.536"><title>bookmark_added_dark</title><path d="M228.921,263.966A142.658,142.658,0,0,1,127.4,221.984c-55.963-55.967-55.963-147.027,0-202.991A144.5,144.5,0,0,1,150.839,0H39.91A39.918,39.918,0,0,0,0,39.905V483.19a9.358,9.358,0,0,0,15.388,7.149l98.756-83.246a9.351,9.351,0,0,1,12.064,0l98.76,83.246a9.358,9.358,0,0,0,15.383-7.149V263.515Q234.677,263.958,228.921,263.966Z" fill="#333"/><circle cx="228.905" cy="120.483" r="111.869" fill="#62c746"/><path d="M314.137,35.257A120.539,120.539,0,0,0,143.665,205.721c47.018,46.984,123.487,47,170.472,0A120.664,120.664,0,0,0,314.137,35.257ZM288.327,179.9A84.021,84.021,0,1,1,286.516,59.35l-64.678,64.678-28.594-21.457a21.9,21.9,0,0,0-26.289,35.035l43.791,32.843a21.9,21.9,0,0,0,28.62-2.037L309.82,97.959A84.062,84.062,0,0,1,288.327,179.9Z" fill="#333"/></svg>