<svg id="Capa_1" data-name="Capa 1" xmlns="http://www.w3.org/2000/svg" viewBox="0 0 349.389 492.536"><title>bookmark_added_light</title><circle cx="240.341" cy="117.433" r="101.25" fill="#62c746"/><path d="M146.848,23.931A131.64,131.64,0,0,1,179.6,0H39.91A39.918,39.918,0,0,0,0,39.905V483.19a9.358,9.358,0,0,0,15.388,7.149l98.756-83.246a9.351,9.351,0,0,1,12.064,0l98.76,83.246a9.358,9.358,0,0,0,15.383-7.149V249.614a131.817,131.817,0,0,1-93.5-38.668C95.277,159.386,95.277,75.489,146.848,23.931Z" fill="#c4c4c4"/><path d="M317.483,40.3a109.1,109.1,0,1,0,0,154.283A109.207,109.207,0,0,0,317.483,40.3Zm-23.36,130.909a76.045,76.045,0,1,1-1.639-109.1l-58.539,58.538-25.879-19.42a19.822,19.822,0,0,0-23.8,31.709l39.635,29.726a19.817,19.817,0,0,0,25.9-1.843l63.766-63.766A76.083,76.083,0,0,1,294.123,171.206Z" fill="#c4c4c4"/></svg>