<svg id="Layer_1" data-name="Layer 1" xmlns="http://www.w3.org/2000/svg" viewBox="0 0 112 57.118"><title>casiopv-1000</title><path d="M27.275,23.423a3.717,3.717,0,0,0-5.093-.771H22.17a8.022,8.022,0,0,1-4.9,1.638,7.5,7.5,0,0,1-7.732-7.242,7.5,7.5,0,0,1,7.732-7.242,8.1,8.1,0,0,1,3.757.914v-.006c2.51,1.449,5.459,1.04,6.587-.915s.009-4.713-2.5-6.162c-.169-.1-.341-.186-.513-.267a16.294,16.294,0,0,0-7.569-1.856A15.683,15.683,0,0,0,1.088,16.92,15.683,15.683,0,0,0,17.035,32.326,16.224,16.224,0,0,0,26.7,29.17H25.87a3.538,3.538,0,0,0,.908-.522A3.713,3.713,0,0,0,27.275,23.423Z"/><path d="M53.243,25.723S44.669,8.3,43.185,5.3C40.908.618,37.043.9,34.817,5.3L26.589,23.356l-1.027,3.295c-1.612,5.476,5.032,6.878,6.952,3.4l1.655-3.028H44.593s.921,1.6,1.518,2.661C48.943,34.458,56.041,30.739,53.243,25.723ZM37.12,19.786l2.188-4.76,2.188,4.76Z"/><path d="M63.138,11.6a1.309,1.309,0,1,1-.086-2.61c1.587,0,1.382.767,3.191.767s4.248-.563,4.248-4.094-3.617-4.536-6.858-4.536H62.149v0c-9.315.014-13.168,15.038-1.536,17.688,5.681.716,4.3,5.067,1.74,5.067-2.15,0-2.832-3.583-6.04-3.583a3.919,3.919,0,0,0-3.719,5.8c1.365,3,1.092,1.74,1.092,1.74a10.847,10.847,0,0,0,8.428,3.924c5.562,0,10.714-4.572,10.714-10.2A9.854,9.854,0,0,0,63.138,11.6Z"/><path d="M72.487,5.182V27.4c0,5.63,8.394,6.074,8.394,0V5.182C80.881-.038,72.487.712,72.487,5.182Z"/><path d="M96.33,1.114A15.55,15.55,0,1,0,112,16.664,15.611,15.611,0,0,0,96.33,1.114Zm0,22.67a7.12,7.12,0,1,1,7.175-7.12A7.147,7.147,0,0,1,96.33,23.784Z"/><path d="M10.9,36.817H2.976A1.913,1.913,0,0,0,1.088,38.8V54.275c0,3.136,5.2,4.4,5.2,0V50.406c0-1.548,1.114-1.579,1.114-1.579h3.5C17.586,48.827,17.647,36.817,10.9,36.817ZM9.584,44.393H7.727a1.509,1.509,0,0,1,0-3.018H9.584a1.509,1.509,0,1,1,0,3.018Z"/><path d="M29.636,38.613c-2.879,5.525-4.989,9.462-4.989,9.462s-2.109-3.937-4.988-9.462c-2.182-3.808-5.653-.662-4.782,1.346l7.847,15.972a2.235,2.235,0,0,0,3.847,0l7.847-15.972C35.289,37.951,31.818,34.805,29.636,38.613Z"/><rect x="33.379" y="44.3" width="10.772" height="4.782" rx="2.391" ry="2.391"/><path d="M48.748,44.3v9.4c0,3.3,5.153,4.62,5.153,0V39.015c0-2.12-1.416-2.105-1.973-2.105H50.643c-.959,0-4.968,3-4.968,3C44.151,41.042,43.323,44.3,48.748,44.3Z"/><path d="M63.884,36.32A10.354,10.354,0,1,0,74.237,46.674,10.354,10.354,0,0,0,63.884,36.32Zm0,15.716a5.363,5.363,0,1,1,5.362-5.362A5.362,5.362,0,0,1,63.884,52.036Z"/><path d="M82.765,36.32A10.354,10.354,0,1,0,93.119,46.674,10.354,10.354,0,0,0,82.765,36.32Zm0,15.716a5.363,5.363,0,1,1,5.362-5.362A5.362,5.362,0,0,1,82.765,52.036Z"/><path d="M101.646,36.32A10.354,10.354,0,1,0,112,46.674,10.354,10.354,0,0,0,101.646,36.32Zm0,15.716a5.363,5.363,0,1,1,5.363-5.362A5.362,5.362,0,0,1,101.646,52.036Z"/><path d="M26.187,22.309a3.716,3.716,0,0,0-5.093-.771h-.011a8.027,8.027,0,0,1-4.9,1.638,7.5,7.5,0,0,1-7.732-7.242,7.5,7.5,0,0,1,7.732-7.243,8.1,8.1,0,0,1,3.756.915V9.6c2.51,1.449,5.459,1.039,6.588-.915s.008-4.714-2.5-6.163c-.17-.1-.341-.185-.514-.266A16.291,16.291,0,0,0,15.947.4,15.683,15.683,0,0,0,0,15.806,15.684,15.684,0,0,0,15.947,31.212a16.227,16.227,0,0,0,9.665-3.157h-.83a3.489,3.489,0,0,0,.908-.521A3.713,3.713,0,0,0,26.187,22.309Z" fill="#ffd836"/><path d="M52.155,24.609S43.582,7.181,42.1,4.187c-2.278-4.683-6.142-4.4-8.369,0L25.5,22.242l-1.027,3.294c-1.613,5.477,5.032,6.878,6.951,3.4l1.655-3.028H43.505s.921,1.6,1.519,2.661C47.856,33.344,54.953,29.625,52.155,24.609ZM36.032,18.672l2.189-4.76,2.188,4.76Z" fill="#ffd836"/><path d="M62.05,10.483a1.309,1.309,0,1,1-.085-2.611c1.587,0,1.382.768,3.19.768S69.4,8.077,69.4,4.546,65.787.009,62.545.009H61.062v0C51.746.025,47.894,15.05,59.525,17.7c5.681.717,4.3,5.067,1.74,5.067-2.149,0-2.832-3.582-6.039-3.582a3.918,3.918,0,0,0-3.719,5.8c1.364,3,1.092,1.741,1.092,1.741a10.847,10.847,0,0,0,8.428,3.924c5.561,0,10.714-4.573,10.714-10.2A9.854,9.854,0,0,0,62.05,10.483Z" fill="#ffd836"/><path d="M71.4,4.068V26.281c0,5.63,8.393,6.074,8.393,0V4.068C79.793-1.153,71.4-.4,71.4,4.068Z" fill="#ffd836"/><path d="M95.243,0a15.55,15.55,0,1,0,15.669,15.55A15.61,15.61,0,0,0,95.243,0Zm0,22.67a7.12,7.12,0,1,1,7.175-7.12A7.148,7.148,0,0,1,95.243,22.67Z" fill="#ffd836"/><path d="M9.812,35.7H1.888A1.913,1.913,0,0,0,0,37.684V53.16c0,3.136,5.2,4.4,5.2,0V49.291c0-1.547,1.114-1.578,1.114-1.578h3.5C16.5,47.713,16.56,35.7,9.812,35.7ZM8.5,43.279H6.639a1.509,1.509,0,0,1,0-3.018H8.5a1.509,1.509,0,0,1,0,3.018Z" fill="#ffd836"/><path d="M28.548,37.5c-2.879,5.525-4.988,9.463-4.988,9.463s-2.11-3.938-4.988-9.463c-2.182-3.807-5.654-.661-4.782,1.347l7.846,15.971a2.235,2.235,0,0,0,3.848,0L33.33,38.845C34.2,36.837,30.73,33.691,28.548,37.5Z" fill="#ffd836"/><rect x="32.292" y="43.186" width="10.772" height="4.782" rx="2.391" ry="2.391" fill="#ffd836"/><path d="M47.66,43.186v9.4c0,3.3,5.154,4.62,5.154,0V37.9c0-2.121-1.417-2.105-1.974-2.105H49.556c-.96,0-4.968,3-4.968,3C43.063,39.928,42.235,43.186,47.66,43.186Z" fill="#ffd836"/><path d="M62.8,35.206A10.354,10.354,0,1,0,73.15,45.56,10.354,10.354,0,0,0,62.8,35.206Zm0,15.716a5.363,5.363,0,1,1,5.363-5.362A5.363,5.363,0,0,1,62.8,50.922Z" fill="#ffd836"/><path d="M81.677,35.206A10.354,10.354,0,1,0,92.031,45.56,10.354,10.354,0,0,0,81.677,35.206Zm0,15.716A5.363,5.363,0,1,1,87.04,45.56,5.362,5.362,0,0,1,81.677,50.922Z" fill="#ffd836"/><path d="M100.559,35.206A10.354,10.354,0,1,0,110.912,45.56,10.353,10.353,0,0,0,100.559,35.206Zm0,15.716a5.363,5.363,0,1,1,5.362-5.362A5.363,5.363,0,0,1,100.559,50.922Z" fill="#ffd836"/></svg>