<svg id="Layer_1" data-name="Layer 1" xmlns="http://www.w3.org/2000/svg" viewBox="0 0 112 102.592"><title>casiopv-1000 -3</title><path d="M27.275,23.423a3.718,3.718,0,0,0-5.093-.771H22.17a8.015,8.015,0,0,1-4.9,1.638,7.5,7.5,0,0,1-7.732-7.242A7.5,7.5,0,0,1,17.27,9.806a8.118,8.118,0,0,1,3.757.914v-.006c2.51,1.449,5.459,1.04,6.587-.915s.009-4.713-2.5-6.162c-.169-.1-.341-.186-.513-.267a16.3,16.3,0,0,0-7.569-1.856A15.684,15.684,0,0,0,1.088,16.92,15.683,15.683,0,0,0,17.035,32.326,16.216,16.216,0,0,0,26.7,29.17h-.83a3.508,3.508,0,0,0,.908-.522A3.713,3.713,0,0,0,27.275,23.423Z"/><path d="M53.243,25.723S44.669,8.3,43.185,5.3C40.908.618,37.043.9,34.817,5.3L26.589,23.356l-1.027,3.295c-1.612,5.476,5.032,6.878,6.952,3.4l1.655-3.028H44.593s.921,1.6,1.518,2.661C48.943,34.458,56.041,30.739,53.243,25.723ZM37.12,19.786l2.188-4.76,2.188,4.76Z"/><path d="M63.138,11.6a1.309,1.309,0,1,1-.413-2.585c.047-.007.094-.012.142-.015a1.424,1.424,0,0,1,.185-.006c1.587,0,1.382.767,3.191.767s4.248-.563,4.248-4.094-3.617-4.536-6.858-4.536H62.149c-9.315.014-13.168,15.038-1.536,17.688,5.681.716,4.3,5.067,1.74,5.067-2.15,0-2.832-3.583-6.04-3.583a3.919,3.919,0,0,0-3.719,5.8c1.365,3,1.092,1.74,1.092,1.74a10.843,10.843,0,0,0,8.428,3.924c5.562,0,10.714-4.572,10.714-10.2A9.855,9.855,0,0,0,63.138,11.6Z"/><path d="M72.487,5.182V27.4c0,5.63,8.394,6.074,8.394,0V5.182C80.881-.038,72.487.712,72.487,5.182Z"/><path d="M96.33,1.114a15.611,15.611,0,1,0,.118,0Zm0,22.67a7.017,7.017,0,1,1,.053,0Z"/><path d="M26.187,22.309a3.717,3.717,0,0,0-5.093-.771h-.011a8.021,8.021,0,0,1-4.9,1.638,7.5,7.5,0,0,1-7.732-7.242,7.5,7.5,0,0,1,7.732-7.243,8.115,8.115,0,0,1,3.756.915V9.6c2.51,1.449,5.459,1.039,6.588-.915s.008-4.714-2.5-6.163c-.17-.1-.341-.185-.514-.266A16.3,16.3,0,0,0,15.947.4,15.684,15.684,0,0,0,0,15.806,15.683,15.683,0,0,0,15.947,31.212a16.217,16.217,0,0,0,9.665-3.157h-.83a3.477,3.477,0,0,0,.908-.521A3.713,3.713,0,0,0,26.187,22.309Z" fill="#ffd836"/><path d="M52.155,24.609S43.582,7.181,42.1,4.187c-2.278-4.683-6.142-4.4-8.369,0L25.5,22.242l-1.027,3.294c-1.613,5.477,5.032,6.878,6.951,3.4l1.655-3.028H43.505s.921,1.6,1.519,2.661C47.856,33.344,54.953,29.625,52.155,24.609ZM36.032,18.672l2.189-4.76,2.188,4.76Z" fill="#ffd836"/><path d="M62.05,10.483a1.309,1.309,0,1,1-.3-2.6l.048,0a1.222,1.222,0,0,1,.171-.006c1.587,0,1.382.768,3.19.768S69.4,8.077,69.4,4.546,65.787.009,62.545.009H61.062C51.746.025,47.894,15.05,59.525,17.7c5.681.717,4.3,5.067,1.74,5.067-2.149,0-2.832-3.582-6.039-3.582a3.918,3.918,0,0,0-3.719,5.8c1.364,3,1.092,1.741,1.092,1.741a10.843,10.843,0,0,0,8.428,3.924c5.561,0,10.714-4.573,10.714-10.2A9.854,9.854,0,0,0,62.05,10.483Z" fill="#ffd836"/><path d="M71.4,4.068V26.281c0,5.63,8.393,6.074,8.393,0V4.068C79.793-1.153,71.4-.4,71.4,4.068Z" fill="#ffd836"/><path d="M95.243,0a15.611,15.611,0,1,0,.117,0Zm0,22.67a7.017,7.017,0,1,1,.053,0Z" fill="#ffd836"/><path d="M45.834,36.8H33.875a2.887,2.887,0,0,0-2.851,2.923h0V63.15c0,4.732,7.847,6.64,7.847,0V57.31c0-2.336,1.682-2.383,1.682-2.383h5.282C55.924,54.927,56.016,36.8,45.834,36.8ZM43.848,48.236h-2.8a2.278,2.278,0,0,1,0-4.555h2.8a2.278,2.278,0,0,1,0,4.555Z"/><path d="M74.11,39.516c-4.345,8.339-7.529,14.28-7.529,14.28s-3.183-5.945-7.523-14.28c-3.293-5.747-8.532-1-7.217,2.032l11.838,24.1a3.372,3.372,0,0,0,5.8,0L81.327,41.544C82.642,38.516,77.4,33.765,74.11,39.516Z"/><path d="M44.734,35.7H32.775a2.888,2.888,0,0,0-2.851,2.923h0V62.051c0,4.733,7.847,6.64,7.847,0V56.212c0-2.335,1.682-2.382,1.682-2.382h5.282C54.827,53.83,54.918,35.7,44.734,35.7Zm-1.98,11.438H39.945a2.277,2.277,0,1,1,0-4.554h2.809a2.277,2.277,0,1,1,0,4.554Z" fill="#ffd836"/><path d="M73.01,38.417C68.665,46.755,65.482,52.7,65.482,52.7S62.3,46.755,57.954,38.417c-3.293-5.746-8.533-1-7.217,2.033l11.842,24.1a3.373,3.373,0,0,0,5.807,0l11.841-24.1C81.54,37.416,76.3,32.668,73.01,38.417Z" fill="#ffd836"/><path d="M12.819,83.736V97.664c0,4.888,7.634,6.844,7.634,0V75.907c0-3.141-2.1-3.119-2.923-3.119h-1.9c-1.421,0-7.36,4.445-7.36,4.445C6.009,78.909,4.782,83.736,12.819,83.736Z"/><path d="M35.244,71.914A15.339,15.339,0,1,0,50.579,87.257v0h0A15.34,15.34,0,0,0,35.244,71.914Zm0,23.282a7.945,7.945,0,1,1,7.943-7.947h0a7.943,7.943,0,0,1-7.94,7.946Z"/><path d="M63.213,71.914A15.339,15.339,0,1,0,78.552,87.253h0A15.34,15.34,0,0,0,63.213,71.914Zm0,23.282a7.945,7.945,0,1,1,7.943-7.947h0a7.943,7.943,0,0,1-7.94,7.946Z"/><path d="M91.184,71.914a15.339,15.339,0,1,0,15.339,15.339h0A15.34,15.34,0,0,0,91.184,71.914Zm0,23.282a7.945,7.945,0,1,1,7.945-7.945h0a7.943,7.943,0,0,1-7.943,7.943h0Z"/><path d="M11.719,82.638V96.563c0,4.889,7.635,6.844,7.635,0V74.807c0-3.142-2.1-3.119-2.924-3.119h-1.9c-1.422,0-7.36,4.445-7.36,4.445C4.909,77.816,3.682,82.638,11.719,82.638Z" fill="#ffd836"/><path d="M34.148,70.816A15.339,15.339,0,1,0,49.481,86.161v-.006A15.339,15.339,0,0,0,34.148,70.816Zm0,23.282a7.945,7.945,0,1,1,7.945-7.945h0A7.945,7.945,0,0,1,34.148,94.1Z" fill="#ffd836"/><path d="M62.113,70.816A15.339,15.339,0,1,0,77.456,86.155h0A15.338,15.338,0,0,0,62.119,70.816Zm0,23.282a7.945,7.945,0,1,1,7.943-7.947v0h0A7.943,7.943,0,0,1,62.113,94.1h0Z" fill="#ffd836"/><path d="M90.086,70.816a15.339,15.339,0,1,0,15.337,15.341h0a15.338,15.338,0,0,0-15.334-15.34h0Zm0,23.282a7.945,7.945,0,1,1,7.943-7.947h0A7.946,7.946,0,0,1,90.086,94.1Z" fill="#ffd836"/></svg>