<svg id="Layer_1" data-name="Layer 1" xmlns="http://www.w3.org/2000/svg" xmlns:xlink="http://www.w3.org/1999/xlink" viewBox="0 0 221.003 248"><defs><linearGradient id="linear-gradient" x1="13" y1="124" x2="208" y2="124" gradientTransform="matrix(1, 0, 0, -1, 0, 248)" gradientUnits="userSpaceOnUse"><stop offset="0" stop-color="#f090a7"/><stop offset="0.149" stop-color="#ef7b75"/><stop offset="0.256" stop-color="#ee6e5e"/><stop offset="0.589" stop-color="#fce72c"/><stop offset="0.813" stop-color="#acdee4"/><stop offset="1" stop-color="#a3ddf2"/></linearGradient></defs><title>colecovision</title><path d="M127,0H46A44.126,44.126,0,0,0,10.546,17.148C3.987,25.521.045,36.285,0,45.94V86c0,26.738,17.432,41.6,34.14,46.323a13,13,0,0,0,.694,1.334l64.382,108A13,13,0,0,0,110.383,248H144a13,13,0,0,0,11.184-6.373l63.85-107.747A13,13,0,0,0,208.005,114H174a13,13,0,0,0-10.793,5.753l-35.318,52.6L105.973,134H127a13,13,0,0,0,13-13V91a13,13,0,0,0-13-13H64.12A6.644,6.644,0,0,1,62,77.292V57a4.884,4.884,0,0,1,.044-.7A5.6,5.6,0,0,1,64,56h63a13,13,0,0,0,13-13V13A13,13,0,0,0,127,0Zm81,140h0Z" fill="#fff"/><path d="M127,4H46A40.2,40.2,0,0,0,13.7,19.614C7.755,27.2,4.04,37.292,4,45.959V86c0,25.623,17.385,39.344,33.224,43a8.979,8.979,0,0,0,1.045,2.612l64.383,108A9,9,0,0,0,110.383,244H144a9,9,0,0,0,7.743-4.412L215.63,131.779A9,9,0,0,0,208.005,118H174a9,9,0,0,0-7.472,3.983l-38.912,57.954L99.08,130H127a9,9,0,0,0,9-9V91a9,9,0,0,0-9-9H64c-.06,0-6-.747-6-4V57c0-1.5,0-5,6-5h63a9,9,0,0,0,9-9V13a9,9,0,0,0-9-9Zm81,132h0Z"/><path d="M46,127H87l40,70,47-70h34L144,235H110.383ZM127,13H46C22.7,13,13.053,34.437,13,46V86c0,25.941,21.34,35.152,33,35h81V91H64c-4.412,0-15-3.267-15-13V57c0-10,7.531-14,15-14h63Z" fill="url(#linear-gradient)"/></svg>