<svg id="Layer_2" data-name="Layer 2" xmlns="http://www.w3.org/2000/svg" viewBox="0 0 532.663 532.663"><title>commodorevic-20</title><path d="M285.2,306.964a41.7,41.7,0,0,0-12.371,29.7v154a42.047,42.047,0,0,0,42,42h42.25a41.7,41.7,0,0,0,29.7-12.371l13.31-13.312a41.691,41.691,0,0,0,12.372-29.7v-154a42.047,42.047,0,0,0-42-42h-42.25a41.722,41.722,0,0,0-29.73,12.4Zm63.879,35.949V480.032h-4.869a8.009,8.009,0,0,1-8-8V334.913h4.869A8.009,8.009,0,0,1,349.078,342.913Z"/><path d="M252.459,519.282v-42.5h-71.5v-15.75a10.118,10.118,0,0,1,.35-2.575c9.5-5.126,34.207-18.633,40.982-22.354a28.366,28.366,0,0,0,6.161-4.678l13.31-13.311c6.7-6.539,10.7-15.542,10.7-24.082v-73.75c0-22.234-17.018-39-39.586-39h-39.7A40.121,40.121,0,0,0,145.128,292.2l-13.262,13.26a38.455,38.455,0,0,0-11.663,28.2v48.75h45.225l2-.067,13.381-13.314V334.913h1.036a6.217,6.217,0,0,1,6.108,6.307v57.3c-1.907,1.084-4.023,2.29-6.247,3.559-7.612,4.339-16.241,9.258-22.267,12.576a53.7,53.7,0,0,0-12.191,9.441l-13.313,13.315c-5.129,5.224-13.732,16.006-13.732,29.5v65.75H237.078l2-.067Z"/><path d="M249.267,478.782H178.959v-1.309l-13.381,14.69h71.5Z" fill="#fff"/><path d="M133.246,306.911c-.473.452-.931.92-1.379,1.4h95.549l10.311-16.279a38.438,38.438,0,0,0-24.855-8.748h-39.7a38.151,38.151,0,0,0-26.61,10.314Z" fill="#fff"/><path d="M290.473,304.519l-.007.008-4.013,6.875H388.028l9.958-17.06a39.84,39.84,0,0,0-27.527-11.06h-42.25a39.872,39.872,0,0,0-28.282,11.784Z" fill="#fff"/><path d="M357.078,294.663h-42.25a42.047,42.047,0,0,0-42,42v154a42.047,42.047,0,0,0,42,42h42.25a42.047,42.047,0,0,0,42-42v-154a42.047,42.047,0,0,0-42-42Zm-26.25,198.75a8.009,8.009,0,0,1-8-8v-142.5a8.009,8.009,0,0,1,8-8h10.25a8.009,8.009,0,0,1,8,8v142.5a8.009,8.009,0,0,1-8,8ZM199.491,294.663h-39.7c-22.568,0-39.587,16.766-39.587,39v48.75h47.225V341.221a6.217,6.217,0,0,1,6.107-6.308h8.31a6.218,6.218,0,0,1,6.108,6.308v58.567c0,2.157-.966,5.249-5.567,7.726-2.25,1.212-7.72,4.33-14.054,7.941-7.615,4.342-16.247,9.264-22.273,12.581-10.394,5.722-25.856,20.8-25.856,38.877v65.75H239.078v-42.5h-71.5v-15.75c0-5.312,4.48-11.006,11.693-14.861,7.2-3.846,35.3-19.211,43.02-23.448,8.138-4.47,16.787-16.044,16.787-28.691v-73.75c0-22.234-17.019-39-39.587-39Z"/><path d="M199.491,296.663h-39.7c-20.673,0-37.587,15-37.587,37v46.75h43.225V341.221a8.233,8.233,0,0,1,8.107-8.308h8.31a8.233,8.233,0,0,1,8.108,8.308v58.567c0,3.25-1.744,6.862-6.619,9.487s-25.186,14.388-36.311,20.513-24.82,20.875-24.82,37.125v63.75H237.078v-38.5h-71.5v-17.75c0-6.5,5.5-12.75,12.75-16.625s35.375-19.25,43-23.437,15.75-15.063,15.75-26.938v-73.75C237.078,311.663,220.164,296.663,199.491,296.663Zm197.587,40v154a40.118,40.118,0,0,1-40,40h-42.25a40.118,40.118,0,0,1-40-40v-154a40.118,40.118,0,0,1,40-40h42.25A40.118,40.118,0,0,1,397.078,336.663Zm-46,6.25a10.029,10.029,0,0,0-10-10h-10.25a10.029,10.029,0,0,0-10,10v142.5a10.029,10.029,0,0,0,10,10h10.25a10.029,10.029,0,0,0,10-10Z" fill="#fff"/><polygon points="173.709 17.131 173.709 252.881 225.959 252.881 227.959 252.815 241.34 239.5 241.34 3.75 187.09 3.75 173.709 17.131"/><polygon points="13.387 3.817 15.69 3.75 69.702 3.75 85.203 125.935 96.659 17.131 110.047 3.75 164.351 3.75 135.46 239.5 122.095 252.815 120.309 252.881 33.977 252.881 0 17.131 13.387 3.817"/><path d="M532.663,177.25,486.215,127h-8.01l54.458-58.25H426.84V4.475l-1.489-.393a123.156,123.156,0,0,0-118.53,31.99l-13.3,13.3A123.035,123.035,0,0,0,411.969,255.3l1.69-.638L426.84,241.53v-50.9h87.869l4.517-.066ZM412.007,81.422l-.066.044v.064l-.066,0V81.6l-.067,0v.065l-.066,0v.063l-.067,0V81.8l-.067,0v.065l-.066,0v.064l-.067,0V82l-.066,0v.065l-.067,0v.064l-.133,0v50.25h8.122l-.067.011v.066H419.2v.065l-.067,0v.064l-.066,0v.065l-.067,0v.064l-.067,0v.065l-.066,0v.065l-.067,0v.064l-.066,0v.065l-.066,0v.064l-.068,0v.065l-.066,0v.065l-.067,0v.064l-.066,0v.065l-.066,0v.064l-.067,0v.065l-.067,0v.064l-.067,0v.065l-.066,0v.065l-.066,0v.064l-.067,0v.065l-.066,0v.064l-.068,0v.064l-.066,0v.066l-.066,0v.064l-.067,0v.065l-.066,0v.064l-.068,0v.064l-.066,0v.065l-.066,0v.065l-.067,0v.065l-.066,0v.064l-.067,0v.064l-.066,0v.065l-.067,0v.064l-.067,0v.066l-.066,0v.064l-.067,0v.064l-.066,0v.065l-.068,0v.064l-.066,0v.065l-.066,0v.065l-.067,0v.064l-.066,0v.065l-.067,0v.064l-.067,0v.065l-.066,0v.065l-.067,0v.064l-.066,0v.065l-.067,0v.064l-.066,0v.065l-.067,0v.064l-.067,0v.065l-.066,0v.065l-.067,0v.064l-.066,0v.065l-.066,0v.064l-.068,0v.064l-.066,0v.066l-.067,0v.064l-.066,0v.065l-.066,0v.064l-.067,0v.064l-.067,0v.065l-.067,0v.065l-.066,0v.065l-.066,0v.064l-.067,0v.064l-.066,0v.065l-.068,0v.064l-.066,0v.066l-.066,0v.064l-.067,0v.064l-.066,0v.065l-.068,0v.064l-.066,0v.065l-.066,0v.065l-.067,0v.064l-.066,0v.065l-.067,0v.064l-.067,0v.065l-.066,0v.065l-.067,0v.065h-.066v.065l-.067,0v.064l-.066,0v.065l-.067,0v.064l-.067,0v.065h-.066v.066l-.067,0v.064l-.066,0v.065l-.066,0v.064l-.068,0v.065h-.066v.066l-.067,0v.064l-.066,0v.065l-.066,0v.064l-.067,0v.065l-.067,0v.064l-.067,0v.065l-.066,0v.065l-.066,0v.064l-.067,0v.065l-.066,0v.064l-.068,0v.064l-.066,0v.066l-.066,0v.064l-.067,0v.065l-.066,0v.064l-.068,0v.064l-.066,0v.065l-.066,0v.065l-.067,0v.065l-.066,0v.064l-.067,0v.064l-.067,0v.065l-.066,0v.065l-.067,0v.065l-.066,0v.064l-.067,0v.064l-.133,0V183.92A63.347,63.347,0,0,1,342.863,85.4a62.794,62.794,0,0,1,37.6-12.362,63.433,63.433,0,0,1,30.049,7.571Z"/><path d="M175.709,19.131h50.25v231.75h-50.25ZM78.549,208.236l-23.99-189.1H2.309l33.4,231.75h84.6l28.4-231.75H98.459Zm180.91-71.855a121.078,121.078,0,0,0,152,116.985V193.909a65.34,65.34,0,1,1,0-115.056V19.4a121.078,121.078,0,0,0-152,116.985Zm153.75,6v46.25h101.5l-42.75-46.25Zm0-12h58.75l42.75-46.25h-101.5Z" fill="#fff"/><polygon points="175.776 19.131 225.959 19.131 238.068 5.75 189.09 5.75 175.776 19.131" fill="#fff"/><polygon points="2.385 19.131 54.459 19.131 66.568 5.75 15.69 5.75 2.385 19.131" fill="#fff"/><polygon points="111.84 5.75 160.818 5.75 148.709 19.131 98.519 19.131 111.84 5.75" fill="#fff"/><path d="M331.3,19.4h80.155L423.7,5.732A121.16,121.16,0,0,0,331.3,19.4Z" fill="#fff"/><polygon points="413.276 142.381 470.792 142.381 483.696 129 473.336 129 485.335 117 485.34 117 487.761 114.381 440.209 114.381 424.209 130.381 425.259 130.381 413.276 142.381" fill="#fff"/><polygon points="426.59 70.75 527.132 70.75 514.709 84.131 413.276 84.131 426.59 70.75" fill="#fff"/><path d="M294.933,50.789a121.018,121.018,0,0,0,54.526,202.577h62V185.919A65.341,65.341,0,0,1,341.433,83.974a65.376,65.376,0,0,1,70.026-5.121V13.381h-68.9a121.3,121.3,0,0,0-34.315,24.093Z" fill="#fff"/><path d="M380.459,13.381a123,123,0,0,0-86.974,209.974A123.165,123.165,0,0,0,411.97,255.3l1.489-.394V190.631H519.281l-46.447-50.25H411.509v50.25h1.811l-2.811,1.519a63.341,63.341,0,1,1,0-111.537l2.811,1.518h-1.811v50.25h61.325l46.447-50.25H413.459V17.856l-1.489-.393a123.387,123.387,0,0,0-31.511-4.082Zm-152.5,3.75h-54.25v235.75h54.25V17.131Zm-76.99,0H96.658L78.364,190.889,56.321,17.131H0l33.977,235.75h88.1l28.89-235.75Z"/><polygon points="54.559 19.131 2.309 19.131 22.911 162.08 66.715 114.955 54.559 19.131" fill="#3635a7"/><polygon points="148.709 19.131 98.459 19.131 91.136 88.683 147.634 27.903 148.709 19.131" fill="#3635a7"/><polygon points="35.709 250.881 43.087 250.881 132.035 155.19 148.709 19.131 145.969 19.131 92.39 76.771 78.549 208.236 65.536 105.661 21.593 152.935 35.709 250.881" fill="#fa2876"/><polygon points="78.765 206.181 78.549 208.236 78.346 206.633 37.215 250.881 74.059 250.881 83.959 250.881 120.309 250.881 132.927 147.914 78.765 206.181" fill="#ff771d"/><polygon points="225.959 54.147 225.959 19.131 175.709 19.131 175.709 108.206 225.959 54.147" fill="#fa2876"/><polygon points="175.709 224.335 225.959 170.276 225.959 47.83 175.709 101.889 175.709 224.335" fill="#ff771d"/><polygon points="175.709 215.565 175.709 250.881 225.959 250.881 225.959 161.506 175.709 215.565" fill="#ffee19"/><path d="M259.486,134.207,369.473,15.883A121,121,0,0,0,259.486,134.207Z" fill="#ff771d"/><path d="M315.119,136.381a65.355,65.355,0,0,1,96.34-57.528V19.4a121.7,121.7,0,0,0-51.248-2.319l-100.2,107.8c-.358,3.787-.548,7.623-.548,11.5A120.554,120.554,0,0,0,290.7,217.527l38.171-41.065A65.034,65.034,0,0,1,315.119,136.381Z" fill="#ffee19"/><path d="M361.675,255.928l49.784-53.557v-8.462a65.348,65.348,0,0,1-86.1-22.432l-38.571,41.5A120.869,120.869,0,0,0,361.675,255.928Z" fill="#7fbd25"/><path d="M380.459,257.381a121.171,121.171,0,0,0,31-4.015V193.909c-.4.215-.8.42-1.2.626L354.452,254.57A121.434,121.434,0,0,0,380.459,257.381Z" fill="#63793d"/><polygon points="413.509 142.381 413.509 188.631 514.709 188.631 471.959 142.381 413.509 142.381" fill="red"/><polygon points="413.509 130.381 471.959 130.381 514.709 84.131 413.509 84.131 413.509 130.381" fill="#1329ce"/></svg>