<svg id="Layer_1" data-name="Layer 1" xmlns="http://www.w3.org/2000/svg" xmlns:xlink="http://www.w3.org/1999/xlink" viewBox="0 0 19.298 16.848"><defs><linearGradient id="linear-gradient" y1="8.424" x2="19.298" y2="8.424" gradientUnits="userSpaceOnUse"><stop offset="0" stop-color="#fcb2b2"/><stop offset="1" stop-color="#d13e3e"/></linearGradient><linearGradient id="linear-gradient-2" x1="4.41" y1="17.975" x2="14.888" y2="7.497" gradientTransform="matrix(1, 0, 0, -1, 0, 19)" gradientUnits="userSpaceOnUse"><stop offset="0" stop-color="#ffaeae"/><stop offset="1" stop-color="#eb807c"/></linearGradient></defs><title>donor</title><path d="M13.555,0a6.963,6.963,0,0,0-3.9,1.254A6.969,6.969,0,0,0,5.743,0,5.637,5.637,0,0,0,.164,4.317C-.222,5.887-.731,11.4,8.953,16.482l.7.366.7-.366C20.03,11.4,19.52,5.886,19.134,4.316A5.638,5.638,0,0,0,13.555,0Z" fill="url(#linear-gradient)"/><path d="M13.555.75a6.381,6.381,0,0,0-3.9,1.428A6.386,6.386,0,0,0,5.743.75,4.9,4.9,0,0,0,.893,4.5C.539,5.932.1,10.993,9.3,15.818L9.65,16,10,15.818c9.2-4.825,8.761-9.886,8.407-11.322A4.9,4.9,0,0,0,13.555.75Z" fill="#fdc3bf"/><path d="M9.65,3.154c-6.25-5.625-14.719,4.281,0,12C24.368,7.435,15.9-2.471,9.65,3.154Z" fill="url(#linear-gradient-2)"/></svg>