<svg id="Layer_1" data-name="Layer 1" xmlns="http://www.w3.org/2000/svg" xmlns:xlink="http://www.w3.org/1999/xlink" viewBox="0 0 39.268 41.9"><defs><linearGradient id="linear-gradient" x1="19.634" y1="2.1" x2="19.634" y2="44" gradientTransform="translate(0 -2.1)" gradientUnits="userSpaceOnUse"><stop offset="0" stop-color="#570903"/><stop offset="1" stop-color="#cf405a"/></linearGradient><linearGradient id="linear-gradient-2" x1="19.637" y1="42" x2="19.637" y2="4.1" gradientTransform="translate(0 -2.1)" gradientUnits="userSpaceOnUse"><stop offset="0" stop-color="#fa86b8"/><stop offset="1" stop-color="#c41836"/></linearGradient></defs><title>downvote</title><path d="M30.827,35.456a9.025,9.025,0,0,0-2.736-6.93c-.758-.827-.993-1.116-.969-1.8a7.216,7.216,0,0,1,3.548-.59c.683,0,1.234.038,1.434.055a9.719,9.719,0,0,0,1.847.19c3.119,0,4.712-1.826,5.161-3.535a5.368,5.368,0,0,0-.978-4.581,4.488,4.488,0,0,0,.5-2.46,4.894,4.894,0,0,0-1.124-2.644,5.5,5.5,0,0,0,.017-3.22,5.826,5.826,0,0,0-1.8-2.7A6.785,6.785,0,0,0,29.685.972,10.323,10.323,0,0,0,28.532.92,68.007,68.007,0,0,0,14.648,2.669a1.953,1.953,0,0,0-.515-.434A17.159,17.159,0,0,0,8.017.013,2,2,0,0,0,6.244.729a28.479,28.479,0,0,0-6.2,19.384,2,2,0,0,0,1.041,1.561,11.366,11.366,0,0,0,5.4,1.093,18.76,18.76,0,0,0,2.12-.114,1.919,1.919,0,0,0,.346-.074c2.486,4.516,4.4,5.86,6.414,7.278a18.973,18.973,0,0,1,4.058,3.591c3.341,3.9,3.381,4.013,3.6,4.637.089.242.206.574.4,1.031A4.18,4.18,0,0,0,27.057,41.9C28.19,41.9,30.827,41.273,30.827,35.456Z" fill="url(#linear-gradient)"/><path d="M14.514,4.835C17.077,3.71,27.327,2.71,29.452,2.96q.082.007.165.018a4.729,4.729,0,0,1,4.085,5.3,3.748,3.748,0,0,1,.435.251,3.693,3.693,0,0,1,1,5.124s3.188,2.125.313,4.875c2.875,1.625,2.687,6.875-3.063,5.687,0,0-6.937-.687-7.25,2.188-.312,3.75,3.688,3.249,3.688,9.062s-2.684,4.937-3.563,2.875.126-1-4.312-6.185-6.563-3.5-10.625-11.25C9.952,14.835,12.3,9.312,14.514,4.835ZM2.035,19.919c2.292,1.25,6.333.75,6.333.748,0-5.292,2.042-11.834,4.75-16.709A15.107,15.107,0,0,0,7.785,2a26.621,26.621,0,0,0-5.75,17.921Z" fill="url(#linear-gradient-2)"/></svg>