<svg id="Layer_1" data-name="Layer 1" xmlns="http://www.w3.org/2000/svg" viewBox="0 0 300.444 272"><title>ebooks</title><path d="M300.444,0H192.314a50.149,50.149,0,0,0-50.093,50.091V272H300.444V0Z" fill="#404040"/><path d="M150.221,22.985A50.081,50.081,0,0,0,108.131,0H0V272H150.221Z" fill="gray"/><path d="M150.222,264H8V8H108.131a42.091,42.091,0,0,1,42.091,42.091Z" fill="#ccc"/><path d="M150.222,264H292.444V8H192.314a42.093,42.093,0,0,0-42.093,42.091V264Z" fill="#999"/><rect x="36.444" y="76.525" width="85.333" height="8.62" fill="#fff"/><rect x="36.444" y="104.97" width="85.333" height="8.62" fill="#fff"/><rect x="36.444" y="133.414" width="85.333" height="8.62" fill="#fff"/><rect x="36.444" y="161.859" width="85.333" height="8.62" fill="#fff"/><rect x="36.444" y="190.303" width="85.333" height="8.62" fill="#fff"/><rect x="178.666" y="76.525" width="85.333" height="8.62" fill="#fff"/><rect x="178.666" y="104.97" width="85.333" height="8.62" fill="#fff"/><rect x="178.666" y="133.414" width="85.333" height="8.62" fill="#fff"/><rect x="178.666" y="161.859" width="85.333" height="8.62" fill="#fff"/><rect x="178.666" y="190.303" width="85.333" height="8.62" fill="#fff"/></svg>