<svg id="Layer_1" data-name="Layer 1" xmlns="http://www.w3.org/2000/svg" viewBox="0 0 512 391.162"><title>ebook</title><path d="M78.321,0h-.043A18.057,18.057,0,0,0,65.441,5.32a18.244,18.244,0,0,0-5.392,13V293.055a18.383,18.383,0,0,0,18.344,18.316c42.646.1,114.1,8.99,163.386,60.572V84.429a17.561,17.561,0,0,0-2.519-9.279C198.805,10,121.063.1,78.321,0Z" fill="#fff"/><path d="M451.953,293.055V18.322a18.246,18.246,0,0,0-5.393-13A18.063,18.063,0,0,0,433.726,0h-.045C390.94.1,313.2,10,272.742,75.15a17.551,17.551,0,0,0-2.517,9.279V371.941c49.29-51.581,120.739-60.47,163.385-60.572A18.382,18.382,0,0,0,451.953,293.055Z" fill="#fff"/><path d="M493.682,63.359H480.4v229.7a46.874,46.874,0,0,1-46.719,46.761c-36.173.086-95.817,7.159-138.058,47.138,73.056-17.887,150.07-6.259,193.961,3.743A18.318,18.318,0,0,0,512,372.846V81.677A18.338,18.338,0,0,0,493.682,63.359Z" fill="#fff"/><path d="M31.6,293.055V63.359H18.318A18.341,18.341,0,0,0,0,81.677V372.841a18.318,18.318,0,0,0,22.419,17.851c43.891-10,120.907-21.63,193.959-3.743C174.139,346.972,114.5,339.9,78.322,339.814A46.872,46.872,0,0,1,31.6,293.055Z" fill="#fff"/></svg>