<svg id="Capa_1" data-name="Capa 1" xmlns="http://www.w3.org/2000/svg" viewBox="0 0 466.60855 466.49951"><title>edit</title><path d="M347.68,384.82751a8.39233,8.39233,0,0,1,2.58332-3.40781,188.53045,188.53045,0,0,0,31.26931-31.23229,8.46259,8.46259,0,0,1,8.549-2.99684l43.24523,10.02831a7.25027,7.25027,0,0,0,9.02344-3.8996L466.0336,296.1426a7.0493,7.0493,0,0,0-3.13985-8.84636l-38.14688-23.795a8.45018,8.45018,0,0,1-3.91789-8.16168,188.48051,188.48051,0,0,0-.03687-44.17167,8.43708,8.43708,0,0,1,3.9258-8.17264L462.393,179.4909c4.1077-2.24575,4.96577-5.91089,3.63692-9.13444l-23.68551-57.18188a6.98458,6.98458,0,0,0-8.49537-4.04953l-43.801,10.17116a8.46333,8.46333,0,0,1-8.56183-3.00583,186.411,186.411,0,0,0-31.21519-31.245,8.45782,8.45782,0,0,1-3.0017-8.55911l10.01528-43.25969c1.16964-3.93-.59275-7.65459-3.88384-9.0178L296.23255.52891a7.05745,7.05745,0,0,0-8.85408,3.13666L263.59123,41.81565a8.4692,8.4692,0,0,1-8.175,3.93049,186.30919,186.30919,0,0,0-44.1498.02783,8.46636,8.46636,0,0,1-8.18036-3.929L179.57185,4.1477c-1.98531-3.65212-5.78713-4.9978-9.12538-3.615l-57.19789,23.678a7.17842,7.17842,0,0,0-4.03251,8.47614l10.1696,43.82664a8.451,8.451,0,0,1-3.00263,8.55412,188.04255,188.04255,0,0,0-31.26048,31.2088,8.4535,8.4535,0,0,1-8.54929,2.99761L33.3256,109.25374c-4.01765-1.17879-7.66739.56029-9.053,3.90548L.58923,170.3359A6.9667,6.9667,0,0,0,3.7259,179.19l38.148,23.76828a8.44989,8.44989,0,0,1,3.926,8.16411,187.14589,187.14589,0,0,0,.04007,44.16394,8.46117,8.46117,0,0,1-3.929,8.18034l-37.704,23.53041C.1256,289.24467-.76247,292.91458.58548,296.1379L24.27132,353.319a6.95809,6.95809,0,0,0,8.47482,4.01386l43.82873-10.15062a8.46649,8.46649,0,0,1,8.56261,3.00615,187.92123,187.92123,0,0,0,31.20028,31.257,8.45218,8.45218,0,0,1,2.9976,8.54928L109.32284,433.2455c-1.18013,3.999.56215,7.641,3.91584,9.03014l57.16816,23.67983a6.94138,6.94138,0,0,0,8.83113-3.12717l23.79045-38.15782a8.4494,8.4494,0,0,1,8.17185-3.92274,188.54678,188.54678,0,0,0,44.1879-.03015,8.43535,8.43535,0,0,1,8.1649,3.92262l23.50518,37.67539c1.99115,3.68172,5.7887,5.03558,9.13863,3.64861L353.371,442.27549a7.13117,7.13117,0,0,0,4.03251-8.47615l-10.15382-43.821A8.52608,8.52608,0,0,1,347.68,384.82751ZM326.87705,271.98134a101.28648,101.28648,0,1,1-54.80811-132.334A101.39976,101.39976,0,0,1,326.87705,271.98134Z" fill="#fff"/></svg>