<svg id="Layer_1" data-name="Layer 1" xmlns="http://www.w3.org/2000/svg" viewBox="0 0 238.83 115"><title>entexadventurevision</title><polygon points="210.083 27.25 219.166 0 170.744 0 161.66 27.25 159.371 27.25 149.223 0 88.501 0 70.713 27.25 41.47 27.25 0 89.875 29.832 89.875 13.431 115 68.659 115 84.163 91.25 85.08 91.25 85.08 115 131.58 115 131.58 89.875 133.83 89.875 143.187 115 180.833 115 189.208 89.875 217.955 89.875 238.83 27.25 210.083 27.25" fill="#3e57b8"/><polygon points="204.533 31.25 213.617 4 173.627 4 164.544 31.25 156.593 31.25 146.444 4 90.667 4 72.878 31.25 43.619 31.25 7.446 85.875 37.22 85.875 20.819 111 66.494 111 81.997 87.25 89.08 87.25 89.08 111 127.58 111 127.58 85.875 136.609 85.875 145.966 111 177.95 111 186.325 85.875 215.288 85.875 233.497 31.25 204.533 31.25" fill="#fff"/><polygon points="228.163 35.25 198.984 35.25 208.067 8 176.51 8 167.427 35.25 153.814 35.25 143.665 8 92.832 8 75.044 35.25 45.768 35.25 14.893 81.875 44.608 81.875 28.207 107 64.328 107 79.831 83.25 93.08 83.25 93.08 107 123.58 107 123.58 81.875 139.387 81.875 148.745 107 175.067 107 183.442 81.875 212.622 81.875 228.163 35.25" fill="#ff1a11"/><path d="M97.705,17,44.83,98H59.455l15.5-23.75H102.08V98h12.5V17ZM83.159,61.688,102.08,32.7V61.688Z" fill="#fff"/><polygon points="182.997 17 161.468 81.588 137.413 17 124.83 17 154.997 98 168.58 98 195.58 17 182.997 17" fill="#fff"/></svg>