<svg id="Layer_3" data-name="Layer 3" xmlns="http://www.w3.org/2000/svg" viewBox="0 0 83 83"><title>epochsupercasettevision</title><path d="M71,0H12A12.035,12.035,0,0,0,0,12V41.5H83V12A12.035,12.035,0,0,0,71,0Z" fill="#f5efab"/><path d="M0,34.162V71A12.035,12.035,0,0,0,12,83H71A12.035,12.035,0,0,0,83,71V34.162Z" fill="#e29918"/><path d="M38.159,34.162V83H71A12.035,12.035,0,0,0,83,71V34.162Z" fill="#b194bf"/><path d="M72.747,46.186h6.544L81,39.437H72.348l0,.018c-5.591.184-8.3,2.441-11.124,7.153-2.953,4.92-12.163,18.911-13.147,20.528s-1.968,1.407-1.968.281V39.437H38.159V80h10.9S66.209,52.934,68.248,49.771,70.779,46.186,72.747,46.186Z"/><path d="M10.984,58.46c1.389-9.511,10.456-12.622,14.761-12.622s5.555.486,5.555.486l2.36-6.735C23.94,35.979,2,41.811,2,60.14,2,80.623,21.232,80,21.232,80L23.87,71.8a15.649,15.649,0,0,1-3.888-.763C18.324,70.488,9.616,67.829,10.984,58.46Z"/><path d="M54.008,5.263a4.8,4.8,0,0,0-.417-.551A5.3,5.3,0,0,0,49.451,3H39.122c-6.14,0-9.827,3.517-10.96,10.455a4.895,4.895,0,0,0,1.079,4.08l2.391,3.229a8.1,8.1,0,0,0,5.782,2.465h8.662c-.714,1.428-1.934,1.756-3.739,1.756H34.716l-1.638-2.231-.889-.293-3.777-1.245-.6-.2-.421.476a7.291,7.291,0,0,0-1.769,4.175,6.042,6.042,0,0,0,1.153,3.6l2.372,3.2a4.048,4.048,0,0,0,3.327,1.691H46.618c7.086,0,8.68-8.1,8.68-10.932a6.829,6.829,0,0,0-1.547-4.749l-2.372-3.2a4.707,4.707,0,0,0-.417-.368h6.185l.112-.837a8.076,8.076,0,0,0-.878-5.606Zm-15.2,8.308a1.485,1.485,0,0,1,1.013-.67h9.088l0,.012h.022l0,.025h.022l0,.025h.022l0,.025h.023l-.005.024h.023l0,.025h.022l0,.024h.022l0,.025h.023l0,.024h.022l0,.025H49.1l0,.025h.022l0,.024h.023l0,.025h.022l0,.025h.023l0,.024h.021l0,.025h.022l0,.024h.023l0,.026h.023l0,.025h.021l0,.024h.022l0,.024H49.3l0,.025h.023l0,.025h.021l0,.024h.022l0,.025h.023l0,.024h.023l0,.026h.021l0,.025h.022l0,.023h.023l0,.025h.023l0,.025h.022l0,.025H49.5l0,.024h.023l0,.025h.023l0,.024h.022l0,.025h.021l0,.024h.023l0,.025h.023l0,.025h.022l0,.025h.021l0,.024h.023l0,.025h.023l-.005.024H49.7l0,.025h.022l0,.024h.022l0,.026h.023l0,.025h.022l0,.024h.022l0,.025h.022l0,.024h.022l0,.025h.023l0,.024h.022l0,.016A6.519,6.519,0,0,0,47,13.571Zm11.07.624h0Z"/><path id="Super" d="M49.451,3.158H39.122c-6.051,0-9.686,3.473-10.8,10.323a4.741,4.741,0,0,0,1.043,3.952,7.93,7.93,0,0,0,5.662,2.41h9.123c1.009,0,2.091.061,2.464.516a1.705,1.705,0,0,1,.121,1.375c-.564,2.851-2.038,3.409-4.394,3.409H34.3a1.941,1.941,0,0,1-1.5-.478,1.421,1.421,0,0,1-.135-1.058l.223-.751-.744-.245-3.778-1.245-.5-.167-.353.4a7.128,7.128,0,0,0-1.73,4.071c0,2.476,1.509,5.108,4.3,5.108H44.227c6.957,0,8.523-7.979,8.523-10.775,0-3.986-2.1-6.273-5.751-6.273H36.429a1.492,1.492,0,0,1-1.212-.381,1.623,1.623,0,0,1,.113-1.366c.608-1.522,1.414-2.467,2.1-2.467H47.522c.459,0,.591.156.634.207a1.331,1.331,0,0,1,.177.868l-.15.935h6.435l.094-.7c.354-2.642-.064-4.664-1.24-6.008a5.148,5.148,0,0,0-4.021-1.658Z"/><path id="Super-2" data-name="Super" d="M53.912,10.717H49.129s.322-2.009-1.607-2.009H37.434c-1.125,0-2.13,1.165-2.853,2.973s0,2.854,1.848,2.854H47c3.739,0,4.944,2.532,4.944,5.466s-1.647,9.968-7.716,9.968H30.079c-2.452,0-3.5-2.493-3.5-4.3a6.337,6.337,0,0,1,1.528-3.536l3.777,1.245S31.124,25.95,34.3,25.95h8.038c2.493,0,4.5-.6,5.185-4.059.515-2.6-1.287-2.855-3.376-2.855H35.023c-2.251,0-6.552-1.486-5.908-5.425C29.77,9.6,31.646,3.965,39.122,3.965H49.451C52.1,3.965,54.6,5.613,53.912,10.717Z" fill="#fef80d"/></svg>