<svg id="Layer_3" data-name="Layer 3" xmlns="http://www.w3.org/2000/svg" viewBox="0 0 83 83"><title>epochsupercasettevision</title><path d="M71,0H12A12.035,12.035,0,0,0,0,12V41.5H83V12A12.035,12.035,0,0,0,71,0Z" fill="#f5efab"/><path d="M0,34.162V71A12.035,12.035,0,0,0,12,83H71A12.035,12.035,0,0,0,83,71V34.162Z" fill="#e29918"/><path d="M38.159,34.162V83H71A12.035,12.035,0,0,0,83,71V34.162Z" fill="#b194bf"/><path d="M72.747,46.186h6.544L81,39.437H72.348l0,.018c-5.591.184-8.3,2.441-11.124,7.153-2.953,4.92-12.163,18.911-13.147,20.528s-1.968,1.407-1.968.281V39.437H38.159V80h10.9S66.209,52.934,68.248,49.771,70.779,46.186,72.747,46.186Z"/><path d="M10.984,58.46c1.389-9.511,10.456-12.622,14.761-12.622s5.555.486,5.555.486l2.36-6.735C23.94,35.979,2,41.811,2,60.14,2,80.623,21.232,80,21.232,80L23.87,71.8a15.649,15.649,0,0,1-3.888-.763C18.324,70.488,9.616,67.829,10.984,58.46Z"/><path d="M53.98,18.481c-.007-.007-.012-.017-.018-.024s-.011-.017-.018-.025-.012-.018-.019-.025-.011-.017-.018-.024a.235.235,0,0,0-.019-.025c-.006-.008-.011-.017-.018-.025s-.011-.016-.018-.024-.011-.017-.018-.025a.215.215,0,0,1-.018-.024c-.007-.008-.012-.017-.019-.026s-.011-.016-.018-.024-.011-.017-.018-.024a.227.227,0,0,0-.018-.025c-.007-.007-.012-.017-.018-.024s-.012-.018-.019-.026-.011-.017-.018-.024-.012-.018-.018-.025-.012-.017-.018-.024-.012-.017-.018-.024-.012-.018-.019-.025-.011-.018-.018-.026-.011-.017-.019-.024-.011-.017-.018-.025-.011-.017-.018-.024-.011-.018-.018-.025-.012-.018-.019-.025-.011-.017-.018-.024-.022-.035-.036-.049-.011-.018-.018-.025-.012-.018-.019-.026a.2.2,0,0,1-.018-.023c-.007-.008-.011-.017-.018-.024s-.011-.018-.018-.025-.012-.018-.019-.026-.012-.017-.018-.024-.012-.018-.019-.025a.2.2,0,0,0-.017-.023c-.007-.009-.013-.019-.02-.027s-.011-.017-.018-.024-.01-.016-.017-.024-.011-.017-.018-.024-.011-.017-.018-.025-.013-.018-.02-.026-.011-.016-.017-.023-.012-.018-.019-.026-.023-.034-.036-.048-.011-.017-.018-.025-.012-.018-.019-.026l-.018-.024c-.007-.007-.012-.017-.018-.024s-.023-.035-.037-.05-.01-.017-.017-.024-.012-.018-.02-.025-.011-.018-.018-.025-.011-.017-.017-.024-.011-.017-.018-.024-.011-.017-.018-.025-.013-.018-.02-.026-.011-.016-.017-.023-.012-.018-.019-.026a.215.215,0,0,1-.018-.024c-.006-.007-.011-.017-.018-.025s-.012-.017-.019-.025-.011-.017-.018-.024-.012-.017-.018-.025-.012-.017-.019-.024-.011-.018-.018-.025-.011-.017-.018-.024-.011-.018-.018-.025a.227.227,0,0,1-.018-.025c-.007-.007-.011-.017-.018-.024s-.012-.017-.019-.025-.011-.017-.018-.025-.012-.017-.018-.024-.012-.018-.019-.026-.011-.016-.017-.023-.012-.018-.019-.026-.012-.017-.019-.024-.022-.035-.036-.049-.011-.018-.018-.025-.012-.017-.019-.025-.022-.034-.036-.049-.012-.017-.019-.025-.01-.016-.017-.024-.011-.017-.018-.024-.012-.018-.02-.027-.011-.016-.017-.023-.011-.017-.018-.024-.012-.018-.019-.026-.011-.017-.018-.024-.011-.017-.018-.025-.012-.017-.019-.025-.011-.016-.017-.024-.012-.017-.02-.025-.01-.017-.017-.024-.011-.017-.018-.024-.012-.018-.019-.027a.215.215,0,0,1-.018-.024c-.014-.015-.024-.035-.038-.05s-.022-.034-.035-.048-.011-.017-.018-.024S52,15.8,51.991,15.8s-.012-.017-.019-.025-.023-.035-.037-.05-.01-.016-.017-.023-.012-.018-.019-.026-.012-.017-.018-.024-.011-.017-.018-.024-.011-.017-.018-.025-.011-.017-.018-.025-.012-.018-.019-.025-.011-.017-.018-.025-.012-.017-.019-.025-.023-.034-.036-.049-.012-.017-.019-.024-.011-.017-.017-.024-.012-.018-.019-.025-.011-.017-.018-.025-.023-.035-.037-.049-.011-.017-.017-.024a4.854,4.854,0,0,0-.417-.368h6.185l.112-.837a8.076,8.076,0,0,0-.879-5.606c-.005-.009-.012-.016-.017-.024s-.014-.017-.019-.026l-.019-.023-.015-.022-.02-.027c-.006-.01-.014-.017-.019-.027L56.483,8.3c-.006-.01-.013-.018-.019-.027l-.019-.025-.018-.025c-.006-.008-.013-.015-.018-.023l-.018-.025-.019-.025c-.005-.009-.013-.017-.019-.026l-.015-.02-.021-.029c-.005-.008-.012-.015-.018-.024l-.017-.022A.24.24,0,0,0,56.264,8l-.019-.025-.019-.025c-.005-.009-.012-.016-.017-.024l-.02-.027-.019-.025-.015-.02-.019-.025a.261.261,0,0,0-.019-.027c0-.009-.012-.015-.017-.023s-.014-.018-.02-.027a.215.215,0,0,0-.018-.024l-.017-.023c-.011-.018-.025-.033-.037-.05l-.019-.026L55.971,7.6l-.02-.025-.014-.019-.02-.029L55.9,7.506a.261.261,0,0,1-.019-.027l-.016-.02c-.006-.01-.014-.018-.02-.027s-.013-.017-.018-.025a.215.215,0,0,1-.018-.024l-.019-.025-.016-.022-.021-.028c0-.008-.012-.014-.016-.022s-.014-.018-.021-.027-.01-.013-.014-.019l-.021-.03-.019-.026c-.006-.008-.013-.015-.018-.023l-.017-.023-.019-.026a.261.261,0,0,1-.019-.027l-.018-.023-.017-.023-.016-.021c-.007-.01-.015-.02-.021-.03s-.014-.017-.02-.025l-.015-.021-.021-.029-.01-.013-.008-.011-.018-.024c-.005-.008-.012-.014-.017-.023l-.017-.023c-.013-.019-.027-.035-.039-.054s-.013-.015-.018-.023l-.016-.022L55.3,6.692l-.018-.024-.017-.023-.018-.025c-.011-.017-.026-.033-.037-.05s-.012-.015-.018-.023-.013-.017-.019-.027-.024-.03-.035-.046-.014-.019-.021-.029-.013-.016-.018-.025-.012-.014-.017-.022l-.018-.024a.227.227,0,0,0-.018-.025.261.261,0,0,1-.019-.027c-.006-.008-.012-.014-.017-.022s-.013-.016-.018-.024-.014-.018-.02-.028-.013-.016-.019-.025l-.016-.02c-.006-.01-.014-.019-.02-.029s-.013-.016-.019-.024l-.015-.02c-.006-.01-.014-.02-.021-.03l-.017-.022c-.011-.018-.025-.033-.037-.05L54.785,6c-.011-.018-.025-.032-.037-.049l-.015-.021L54.711,5.9l-.017-.022-.018-.025c-.012-.017-.026-.032-.037-.049l-.018-.024c-.006-.01-.014-.018-.02-.027l-.016-.022c-.006-.01-.014-.018-.021-.028l-.016-.021-.017-.024c-.012-.018-.026-.033-.038-.051l-.019-.026c0-.008-.012-.016-.018-.024l-.017-.023L54.42,5.51c-.011-.017-.025-.031-.036-.048l-.019-.026c-.006-.009-.014-.017-.02-.027l-.014-.018c-.006-.011-.015-.02-.022-.031a.159.159,0,0,1-.015-.021.269.269,0,0,1-.02-.027c-.006-.009-.014-.016-.019-.025s-.012-.015-.018-.024a4.916,4.916,0,0,0-.417-.551A5.3,5.3,0,0,0,49.68,3H39.35c-6.139,0-9.827,3.517-10.959,10.455a4.891,4.891,0,0,0,1.079,4.08l0,0,.014.02,0,.005.014.02,0,0,.013.02,0,0,.014.02,0,0,.013.02,0,0,.014.02,0,0,.013.02,0,0,.014.02,0,0,.014.02.006.006.012.018,0,0c.006.007.009.014.015.021l0,.006.013.018,0,0c.006.007.009.014.015.021l.006.007.013.018,0,0c.006.007.009.015.015.022l0,0,.014.02,0,0,.013.019,0,0,.013.02.005,0,.014.02.006.007.012.018,0,0c.006.006.009.014.015.021l0,0,.013.02.005,0,.014.02,0,0,.013.02,0,0c.006.006.009.014.015.021l.007.008.011.016,0,0a.153.153,0,0,1,.014.021l.007.007.012.018,0,0c.006.006.008.014.014.021l.006.006.012.018,0,0c.006.006.009.014.015.021l.006.007.012.018,0,0c0,.006.008.015.014.022l0,0c.006.006.009.014.015.021l.006.007.012.018.007.006.012.018.005,0,.013.02,0,0,.013.02,0,0,.013.02,0,0c.006.007.009.015.015.022l.006.006.012.018.007.007.012.018,0,0c0,.007.009.015.015.023l.007.007.012.018,0,0,.013.02,0,.005.013.02,0,0,.013.02,0,0,.013.02.005,0c0,.007.008.014.014.021l.008.008.011.016,0,0,.014.02,0,0c.006.007.009.015.015.022l0,0,.013.02,0,0,.013.02.007.006.012.018,0,0c.006.007.008.015.014.022l.007.006.012.018,0,0c.006.006.009.014.015.021l.006.006.012.018,0,0,.014.02,0,0c.006.007.009.015.015.022l.005,0,.013.02.007.007.012.018.006.006.013.018v0c.006.007.01.016.016.023l.006.006.012.018.006.007.013.018,0,0c.006.007.009.016.016.023l.006.007.013.018,0,0c.006.006.009.015.015.021l.006.007.013.018.006.006.012.019,0,0c.006.007.009.015.015.022l0,0,.013.02.007.007.012.018,0,0c.006.007.009.014.015.021l.006.007.012.018,0,0c.006.007.009.014.015.021l0,.006.014.019.006.007.012.018,0,0,.013.019,0,0c.006.007.009.015.015.022l.008.008.011.016,0,0c.006.007.01.015.016.023l.007.007.011.016,0,0c.006.007.009.015.015.022l0,0c.006.007.009.015.015.022l.006.006.012.018,0,0,.013.02.006.006.012.018.006,0,.013.02,0,0c.006.007.008.015.014.022l0,0,.013.019,0,0,.014.02.007.007.012.018,0,0c.005.006.008.014.014.022l0,0c.006.007.009.015.015.022l.007.008.011.016,0,0c.006.007.009.015.014.022l.007.006L31.3,20l0,0c.006.007.009.015.015.022l.006.006.013.02,0,0,.013.02.007.006.012.018,0,0c.006.007.009.015.015.022l.006.006.012.018.006.005.013.02.005,0,.013.02.005,0,.013.02.006.006.013.019,0,0c.006.007.009.015.014.022l.008.008.011.016,0,0c.006.007.009.015.016.023l.006.006.012.019,0,.005.014.02.006,0,.012.019,0,0c0,.007.008.015.014.022l.007.006.012.018,0,0c.006.007.008.015.014.022l.007.007.013.018,0,0,.013.02,0,0,.014.02,0,0,.014.02,0,0c.006.006.009.015.015.021l.006.007.013.018,0,0,.014.019,0,0c.006.007.008.015.014.022l.007.007.013.018,0,0c.006.007.009.015.015.022l.008.007.011.017,0,0c.006.007.009.015.015.022a8.1,8.1,0,0,0,5.781,2.465h8.663c-.714,1.428-1.934,1.756-3.739,1.756H34.945l0-.013-.022-.008,0-.016-.022-.008.005-.017-.024-.007L34.9,24.9l-.023-.007,0-.017-.023-.008,0-.017-.023-.007.005-.017-.023-.008.005-.017-.024-.007,0-.018-.022-.007,0-.017-.023-.007.005-.017-.023-.008.005-.017-.024-.008.006-.017-.024-.008.005-.017-.023-.008.005-.017-.024-.008.006-.017-.024-.007,0-.018-.022-.007,0-.017-.023-.007.005-.017-.024-.008,0-.017-.023-.008.006-.017-.024-.007.005-.017-.023-.008.005-.017-.023-.007.005-.017-.024-.009.005-.016-.023-.008.006-.017-.024-.008.005-.017-.024-.007.006-.017-.024-.008.006-.017-.024-.007.005-.017L34.4,24.25l.005-.017-.023-.008.005-.017L34.36,24.2l.005-.017-.023-.008.005-.017-.023-.007.005-.017-.024-.008.005-.017-.023-.008.005-.017-.023-.007.005-.018-.023-.008,0-.016-.022-.008.005-.017L34.215,24l0-.016-.023-.008,0-.017-.022-.008.005-.017-.023-.007,0-.017-.023-.008.006-.017-.024-.008.005-.017-.023-.008,0-.017-.022-.007,0-.017-.023-.008,0-.017-.022-.007,0-.017-.024-.008.005-.017-.023-.007,0-.017L34,23.708l0-.017-.024-.008.005-.017-.023-.008,0-.016-.023-.008,0-.017-.024-.008.005-.017-.023-.008,0-.017-.024-.007.006-.017-.023-.008,0-.017-.024-.007.005-.017-.024-.008.006-.017-.023-.008,0-.017-.024-.007.005-.017-.023-.008,0-.017-.023-.007,0-.017-.024-.008.006-.017-.024-.007.006-.018-.024-.007,0-.017-.023-.008,0-.017-.023-.008,0-.016-.024-.008,0-.017-.023-.008,0-.018-.023-.007,0-.017-.023-.008,0-.017-.023-.007.005-.017-.024-.008,0-.017-.023-.007,0-.018-.023-.007.005-.017-.024-.008.006-.017-.024-.008,0-.016-.023-.008,0-.017-.024-.008.006-.016-.024-.008.006-.018-.024-.007.006-.017-.024-.008.005-.017-.024-.007.006-.017-.024-.008.006-.017-.024-.007.005-.018L33.32,22.8l.005-.017-.023-.008.005-.017-.889-.293L28.64,21.216l-.6-.2-.421.476a7.283,7.283,0,0,0-1.77,4.175A6.049,6.049,0,0,0,27,29.268l.018.024.018.024.02.026.018.025.017.023.019.025.018.025.018.024.02.027.016.021.02.028.017.022.019.026.018.024.019.026.017.023.02.026.018.025.015.022.02.026.018.025.02.026.018.024.018.024.018.025.017.023.018.026.02.026.017.022.019.026.018.025.018.023.019.027.019.025.018.023.017.024.018.024.019.025.019.027.015.02.021.03.019.024.016.023.02.025.018.025.018.024.019.025.017.024.018.024.019.027.017.022.02.027.019.026.016.021.019.026.019.025.016.022.021.028.016.022.02.027.018.023.018.026.018.024.019.025.018.024.019.026.017.023.019.026.018.024.018.024.019.026.019.025.015.021.021.028.017.023.018.025.019.026.019.025.018.024.017.023.018.025.019.026.019.025.017.024.018.024.02.026.018.024.017.024.019.025.017.024.02.026.017.023.02.027.015.021.023.029.015.021.018.026.02.026.018.024.018.024.017.024.02.027.016.021.022.03.014.019.021.028.018.024.017.023.02.027.017.023.019.025.018.025.018.024.016.023.022.029.017.022.018.025.019.025.017.024.019.025.018.024.018.026.018.023.018.026.019.025.018.024.019.025.017.023a.248.248,0,0,0,.019.026l.018.024A4.047,4.047,0,0,0,32.7,34.162H46.846c7.086,0,8.681-8.1,8.681-10.932A6.829,6.829,0,0,0,53.98,18.481Zm-14.939-4.91a1.484,1.484,0,0,1,1.012-.67h9.088v.012h.021l0,.025h.023l0,.025H49.2l0,.025h.022l0,.024h.023l0,.025h.022l0,.024h.022l0,.025h.023l0,.024h.021l0,.025h.023l0,.025h.022l0,.024h.023l0,.025h.022l0,.025H49.4l0,.024h.022l0,.025h.022l0,.024h.023l0,.026h.022l0,.025h.022l0,.024h.022l0,.024h.023l0,.025h.022l0,.025h.021l0,.024h.022l0,.025H49.6l0,.024h.022l0,.026h.022l0,.025h.021l0,.023h.023l0,.025h.022l0,.025h.022l0,.025h.022l0,.024h.023l0,.025h.022l0,.024h.022l0,.025H49.8l0,.024h.023l0,.025h.022l0,.025h.022l0,.025h.022l0,.024h.023l-.005.025h.023l0,.024h.022l0,.025h.022l0,.024h.023l-.005.026h.023l0,.025H50l0,.024h.022l0,.025h.022l0,.024h.023l0,.025h.023l0,.024h.023l0,.016a6.525,6.525,0,0,0-2.862-.615ZM50.11,14.2h0Z"/><g id="Super"><path d="M30.307,30.372c-2.533,0-3.9-2.424-3.9-4.7a6.687,6.687,0,0,1,1.629-3.8l.177-.2,4.4,1.449-.108.375a1.812,1.812,0,0,0,.2,1.42,2.179,2.179,0,0,0,1.823.636h8.039c2.5,0,4.174-.624,4.79-3.733a2.028,2.028,0,0,0-.2-1.71c-.479-.583-1.618-.663-2.777-.663H35.251A7.5,7.5,0,0,1,29.9,17.172a4.293,4.293,0,0,1-.952-3.626c1.081-6.625,4.582-9.985,10.405-9.985H49.68A4.766,4.766,0,0,1,53.4,5.081c1.095,1.254,1.48,3.168,1.142,5.69l-.047.349h-5.6l.071-.465a1.713,1.713,0,0,0-.27-1.2,1.162,1.162,0,0,0-.939-.346H37.662c-.884,0-1.787.992-2.478,2.72a2,2,0,0,0-.072,1.743,1.864,1.864,0,0,0,1.545.558H47.228c3.448,0,5.347,2.084,5.347,5.869,0,2.691-1.492,10.371-8.12,10.371Z" fill="#fef80d"/><path d="M49.68,3.965c2.652,0,5.144,1.648,4.461,6.752H49.358s.322-2.009-1.607-2.009H37.662c-1.125,0-2.129,1.165-2.853,2.973s0,2.854,1.848,2.854H47.228c3.738,0,4.944,2.532,4.944,5.466s-1.648,9.968-7.717,9.968H30.307c-2.451,0-3.5-2.493-3.5-4.3a6.339,6.339,0,0,1,1.527-3.536l3.778,1.245s-.764,2.573,2.411,2.573h8.039c2.492,0,4.5-.6,5.185-4.059.515-2.6-1.287-2.855-3.376-2.855H35.251c-2.251,0-6.551-1.486-5.908-5.425C30,9.6,31.875,3.965,39.35,3.965H49.68m0-.807H39.35c-6.05,0-9.685,3.473-10.8,10.323a4.737,4.737,0,0,0,1.043,3.952,7.926,7.926,0,0,0,5.661,2.41h9.124c1.009,0,2.091.061,2.464.516a1.706,1.706,0,0,1,.12,1.375c-.564,2.851-2.038,3.409-4.393,3.409H34.527a1.953,1.953,0,0,1-1.5-.472,1.429,1.429,0,0,1-.138-1.071l.2-.741-.727-.248-3.778-1.245-.505-.167-.352.4A7.121,7.121,0,0,0,26,25.668c0,2.476,1.508,5.108,4.3,5.108H44.455c6.958,0,8.524-7.979,8.524-10.775,0-3.986-2.1-6.273-5.751-6.273H36.657a1.489,1.489,0,0,1-1.211-.381,1.626,1.626,0,0,1,.112-1.366c.609-1.522,1.415-2.467,2.1-2.467H47.751c.458,0,.591.156.634.207a1.329,1.329,0,0,1,.176.868l-.149.935h6.435l.093-.7c.354-2.642-.063-4.664-1.239-6.008A5.15,5.15,0,0,0,49.68,3.158Z"/></g></svg>