<svg id="Layer_3" data-name="Layer 3" xmlns="http://www.w3.org/2000/svg" viewBox="0 0 83 83"><title>epochsupercasettevision</title><path d="M71,0H12A12.035,12.035,0,0,0,0,12V41.5H83V12A12.035,12.035,0,0,0,71,0Z" fill="#f5efab"/><path d="M0,34.162V71A12.035,12.035,0,0,0,12,83H71A12.035,12.035,0,0,0,83,71V34.162Z" fill="#e29918"/><path d="M38.159,34.162V83H71A12.035,12.035,0,0,0,83,71V34.162Z" fill="#b194bf"/><path d="M72.747,46.186h6.544L81,39.437H72.348l0,.018c-5.591.184-8.3,2.441-11.124,7.153-2.953,4.92-12.163,18.911-13.147,20.528s-1.968,1.407-1.968.281V39.437H38.159V80h10.9S66.209,52.934,68.248,49.771,70.779,46.186,72.747,46.186Z"/><path d="M10.984,58.46c1.389-9.511,10.456-12.622,14.761-12.622s5.555.486,5.555.486l2.36-6.735C23.94,35.979,2,41.811,2,60.14,2,80.623,21.232,80,21.232,80L23.87,71.8a15.649,15.649,0,0,1-3.888-.763C18.324,70.488,9.616,67.829,10.984,58.46Z"/><path d="M51.976,15.949l-.015-.019a.159.159,0,0,0-.015-.021c-.006-.007-.01-.016-.016-.022s-.009-.014-.015-.02-.009-.015-.015-.021l-.015-.02a.159.159,0,0,1-.015-.021c-.006-.006-.01-.014-.016-.021s-.009-.013-.015-.02-.009-.014-.016-.021-.009-.014-.014-.02-.01-.014-.016-.021l-.015-.021c-.006,0-.009-.014-.015-.02s-.01-.015-.015-.021-.01-.014-.016-.021l-.015-.021a.139.139,0,0,1-.015-.019c-.006-.006-.01-.015-.015-.021s-.01-.014-.016-.021-.009-.014-.015-.021a.149.149,0,0,1-.015-.02c-.006-.006-.01-.014-.016-.021s-.009-.014-.015-.02-.009-.015-.015-.021-.01-.015-.016-.021-.009-.014-.015-.02-.019-.029-.03-.041-.01-.015-.015-.021-.01-.015-.016-.021-.01-.014-.015-.02-.01-.014-.015-.02-.009-.015-.015-.021-.01-.015-.016-.022-.01-.014-.015-.02-.01-.014-.016-.021l-.014-.019-.017-.022-.015-.02c-.005-.006-.009-.014-.014-.02s-.01-.014-.016-.021-.009-.014-.015-.02l-.016-.022-.014-.02c-.006-.006-.01-.014-.016-.021s-.019-.029-.03-.041l-.015-.02c-.006-.007-.01-.015-.016-.022s-.01-.014-.015-.02-.01-.014-.015-.02-.019-.03-.031-.042a.243.243,0,0,1-.014-.02c-.007-.006-.011-.015-.017-.021s-.01-.015-.016-.021a.121.121,0,0,0-.014-.02c-.006-.006-.009-.014-.015-.02s-.009-.014-.015-.021-.01-.015-.017-.022a.231.231,0,0,0-.014-.019c-.006-.007-.01-.015-.016-.021a.149.149,0,0,0-.015-.02.159.159,0,0,0-.015-.021c-.006-.007-.009-.015-.015-.021s-.01-.015-.016-.021l-.015-.02c-.005-.006-.009-.014-.015-.021s-.01-.014-.016-.021-.009-.014-.014-.02-.01-.015-.016-.02a.159.159,0,0,0-.015-.021c-.006-.006-.009-.015-.015-.02s-.01-.015-.016-.022-.009-.014-.015-.02-.009-.015-.015-.02-.01-.016-.016-.022-.009-.014-.014-.019-.01-.016-.016-.022-.01-.015-.016-.02-.018-.029-.03-.041a.159.159,0,0,0-.015-.021c-.006-.007-.01-.015-.016-.021s-.018-.029-.03-.041-.01-.015-.016-.021-.009-.014-.014-.02-.009-.014-.015-.02a.184.184,0,0,0-.017-.022l-.014-.02c-.006-.006-.009-.014-.015-.02s-.01-.015-.016-.022-.009-.014-.015-.02-.009-.014-.015-.02-.01-.015-.016-.021-.009-.014-.015-.02a.153.153,0,0,0-.016-.022.243.243,0,0,0-.014-.02c-.005-.005-.009-.014-.015-.02l-.016-.022c-.006-.006-.01-.014-.015-.02s-.02-.03-.032-.042-.018-.028-.029-.041a.149.149,0,0,1-.015-.02l-.016-.021c0-.006-.009-.014-.015-.02s-.02-.029-.031-.042-.009-.014-.014-.02-.01-.015-.016-.021a.159.159,0,0,1-.015-.021.149.149,0,0,1-.015-.02l-.015-.02c-.006-.006-.01-.015-.016-.021s-.01-.015-.015-.021-.01-.014-.016-.021a.235.235,0,0,0-.016-.021c-.011-.012-.018-.028-.029-.041s-.01-.014-.016-.02-.009-.014-.015-.02-.009-.015-.015-.021a.159.159,0,0,1-.015-.021c-.012-.012-.02-.029-.032-.041a.243.243,0,0,0-.014-.02,4.232,4.232,0,0,0-.348-.308h5.173l.094-.7a6.757,6.757,0,0,0-.735-4.69l-.015-.02c-.005-.008-.011-.014-.016-.022l-.015-.019-.013-.018c0-.008-.012-.015-.016-.023l-.017-.022L54.07,7.43l-.016-.021-.015-.021-.016-.021-.015-.02-.015-.021-.016-.021c0-.007-.011-.014-.016-.021l-.012-.018-.017-.023c-.005-.007-.011-.013-.016-.021L53.9,7.2l-.015-.022-.016-.021-.016-.021-.014-.02L53.824,7.1l-.015-.021L53.8,7.06l-.015-.021-.016-.023L53.749,7l-.016-.022c0-.007-.01-.013-.015-.021L53.7,6.935l-.031-.041-.016-.022-.015-.021-.017-.021-.011-.016L53.6,6.79l-.016-.021c-.005-.007-.012-.014-.017-.022l-.013-.017c-.005-.009-.011-.015-.016-.023l-.016-.021c0-.006-.01-.012-.015-.02l-.015-.021-.014-.018L53.458,6.6c0-.007-.01-.011-.014-.018l-.017-.023-.012-.016c-.005-.009-.012-.016-.018-.025L53.382,6.5l-.015-.02-.015-.019-.015-.021-.017-.023L53.305,6.4l-.014-.019-.013-.018-.018-.025-.016-.021L53.231,6.3l-.018-.024-.007-.01-.008-.01-.014-.02-.015-.019-.014-.02c-.011-.015-.023-.029-.033-.044l-.015-.02-.013-.018-.018-.024-.015-.02-.014-.019-.015-.021c-.01-.015-.021-.027-.031-.041l-.015-.02-.016-.022c-.009-.014-.02-.026-.029-.039l-.018-.024a.159.159,0,0,0-.015-.021l-.014-.018-.015-.021-.015-.02-.016-.023-.015-.018a.159.159,0,0,0-.015-.021L52.8,5.717,52.786,5.7l-.013-.017-.017-.024-.016-.02-.012-.017c-.005-.008-.012-.016-.018-.025L52.7,5.575c-.01-.015-.021-.028-.031-.042l-.015-.02c-.009-.015-.021-.027-.031-.042l-.013-.017-.018-.026-.014-.019-.015-.021c-.01-.014-.022-.026-.031-.041l-.015-.02L52.5,5.305l-.014-.019-.017-.023-.013-.018-.015-.02c-.009-.015-.022-.028-.031-.043l-.016-.021-.016-.021-.014-.019L52.345,5.1c-.01-.014-.021-.026-.031-.041s-.011-.014-.016-.021l-.016-.023L52.27,5c-.005-.009-.012-.017-.018-.026l-.013-.017-.017-.023-.016-.021-.015-.02a4.042,4.042,0,0,0-.349-.461A4.436,4.436,0,0,0,48.379,3h-8.64c-5.135,0-8.22,2.942-9.167,8.745a4.092,4.092,0,0,0,.9,3.413l0,0,.012.017,0,0,.011.017,0,0,.011.017,0,0,.012.017,0,0,.011.017,0,0,.011.017,0,0,.011.017,0,0,.012.017,0,0,.011.017.005.005.01.015,0,0,.013.018,0,.005.011.015,0,0,.012.018.005,0,.01.016,0,0c.005.005.008.012.013.018l0,0,.012.017,0,.005.01.015,0,.005.011.016,0,0,.012.017,0,0,.01.015,0,0s.007.012.012.018l0,0,.011.017,0,0,.012.016,0,.005.011.016,0,0s.007.012.012.018l.006.006.01.014,0,0c.005.005.008.012.013.018l0,.005.01.015,0,0,.012.018,0,0,.011.015,0,0,.013.018,0,.006.01.015,0,0a.113.113,0,0,1,.012.018l0,0c0,.005.007.012.012.018l.005.006.011.015.005,0,.01.015,0,0,.012.017,0,0,.012.016,0,0,.011.017,0,0,.012.018.005,0L32.1,16l.005.006.01.015h0c0,.006.007.013.013.02l.005,0,.01.015,0,0,.012.017,0,0,.012.016,0,0,.011.017,0,0,.011.016,0,0,.013.018.006.006.009.014,0,0,.011.016,0,0,.013.018,0,0,.012.017,0,0,.011.016.005.006.01.015,0,0c.005.006.007.012.012.018l.005.006.011.015,0,0c.005.006.007.012.012.018l.005.005.01.015,0,0,.012.017,0,0s.007.012.012.018l0,0,.011.016.005.006.01.015.006,0,.01.015,0,0a.107.107,0,0,0,.013.019l.005,0,.01.015.005.006.011.015v0a.231.231,0,0,0,.014.019l.005.006.01.015,0,0c.005.006.007.013.012.018l.005.006.011.015.005,0,.01.015,0,0s.007.012.012.018l0,0,.011.016.006.006.01.015,0,0,.012.018.005,0,.01.015,0,0,.012.018,0,0,.012.017.005.005.01.015,0,0,.011.017,0,0c.005.006.007.013.012.018l.007.007.009.014,0,0,.013.019.006.006.009.014,0,0c.005.006.007.013.012.018l0,0,.013.018.005,0,.01.015,0,0,.011.017.005.005.011.015,0,0,.011.017,0,0,.012.018,0,0,.011.017,0,0,.011.017.006,0,.01.016,0,0c.005.006.007.013.012.019l0,0c.005,0,.007.012.012.018l.006.006.01.014,0,0s.007.012.012.018l.005,0,.01.016,0,0c.005,0,.007.012.012.018l.005.005.011.017,0,0,.011.017.005,0,.01.015,0,0,.012.018.005,0,.011.015,0,0,.011.017,0,0,.011.017,0,0,.012.017,0,0,.011.017,0,0,.012.018.006.006.01.014h0c.005.006.008.013.013.02l.006,0,.01.015,0,.005.011.016.005,0,.011.015,0,0c.005,0,.008.012.013.018l0,.006.01.015,0,0s.007.012.012.018l.006.006.01.015,0,0,.012.016,0,0,.011.016,0,0,.011.017,0,0c.005.005.008.012.013.018l0,0,.01.015,0,0,.011.017,0,0c0,.005.007.012.012.018l.006.006.01.015,0,0,.012.018.006.006.009.014,0,0,.013.018a6.771,6.771,0,0,0,4.835,2.062h7.247c-.6,1.194-1.619,1.469-3.128,1.469H36.054l0-.011-.019-.007,0-.013-.019-.007,0-.014-.02-.006,0-.015-.02-.006,0-.014-.02-.007.005-.014-.02-.006,0-.014-.02-.007,0-.014-.019-.006,0-.015-.019-.006,0-.014-.02-.006,0-.014-.019-.007,0-.014-.02-.007,0-.014-.02-.007,0-.014-.019-.006,0-.014-.02-.007,0-.014-.02-.007,0-.014-.018-.007,0-.013-.02-.007,0-.014L35.763,21l.005-.014-.02-.006.005-.014-.02-.007,0-.014-.019-.006,0-.014-.02-.007,0-.014-.02-.007,0-.014-.019-.006.005-.014-.02-.007,0-.014-.019-.006,0-.014-.02-.007.005-.014-.02-.006,0-.014-.019-.007,0-.014-.019-.007,0-.014-.02-.006,0-.014-.019-.007,0-.014-.019-.006,0-.014-.02-.007,0-.014-.019-.007,0-.014-.019-.006,0-.015-.019-.006,0-.014-.019-.007.005-.014-.02-.006,0-.014-.019-.007,0-.014-.019-.006,0-.015-.02-.006,0-.014-.019-.006.005-.015-.02-.006,0-.015-.019-.006,0-.015-.019-.006.005-.014-.02-.006,0-.015-.019-.006,0-.014-.019-.006,0-.015-.02-.006,0-.014-.019-.006.005-.015-.02-.006,0-.015-.02-.006.005-.014-.02-.006.005-.015-.02-.006,0-.015-.019-.006,0-.014-.02-.006,0-.015-.019-.006.005-.014-.02-.006,0-.015-.02-.006,0-.015-.019-.006.005-.014-.02-.006,0-.015-.019-.006,0-.014-.02-.006.005-.015-.02-.006,0-.014-.019-.006,0-.015-.019-.006,0-.015L35,19.971l.005-.014-.02-.006,0-.015-.019-.006,0-.014-.019-.007,0-.015-.02-.006,0-.014-.019-.007.005-.014-.02-.006,0-.014-.019-.007,0-.014-.019-.006.005-.015-.02-.006,0-.014-.019-.007,0-.014-.02-.006.005-.014-.02-.007,0-.014L34.8,19.7l0-.014-.019-.007,0-.014-.02-.007.005-.014-.02-.006,0-.014-.019-.007,0-.014-.019-.006,0-.014-.02-.007,0-.014-.019-.007.005-.014-.02-.006,0-.014-.744-.245-3.159-1.042-.5-.166-.352.4a6.091,6.091,0,0,0-1.48,3.492,5.057,5.057,0,0,0,.964,3.011l.015.02.015.02.017.022.015.021.014.02.015.02.016.021.015.021.017.022.013.018.017.023.014.018.016.022.015.02.016.022.014.019.016.022.016.021.013.018.016.022.015.021.017.021.015.02.015.021.015.02.015.02.015.021.016.022.015.019.015.022.015.02.015.02.017.022.015.021.015.02.014.019.016.021.015.021.016.022.013.017.018.025.015.02.014.019.016.021.015.021.016.02.015.021.015.02.015.02.016.022.014.019.017.023.016.021.013.018.016.022.016.021.013.018.017.024.014.018.017.022.014.02.016.021.015.021.015.02.015.02.016.022.015.019.016.022.015.02.015.02.016.022.015.021.013.017.018.024.014.019.015.021.016.022.016.021.015.02.014.019.015.021.016.022.016.02.014.02.016.021.016.021.015.021.014.02.016.02.014.02.017.022.014.02.017.022.013.018.018.024.013.018.016.021.016.022.015.02.015.021.014.019.017.023.013.018.019.024.012.017.017.023.015.02.015.02.016.022.014.019.016.021.015.021.015.02.014.019.018.024.014.019.015.021.016.021.015.02.015.021.016.02.015.021.015.02.015.021.016.021.015.021.016.021.014.019.016.021.015.021a3.385,3.385,0,0,0,2.782,1.414H46.009c5.927,0,7.261-6.772,7.261-9.144A5.715,5.715,0,0,0,51.976,15.949Zm-12.5-4.107a1.241,1.241,0,0,1,.847-.56h7.6v.01h.018l0,.021h.019l0,.02h.019l0,.021h.019l0,.021h.019l0,.02h.018l0,.021h.019l0,.02h.019l0,.021h.018l0,.02h.019l0,.021H48.1l0,.021h.019l0,.021h.018l0,.02h.019l0,.021h.018l0,.02h.019l0,.021h.019l0,.021h.019l0,.021h.018l0,.02h.018l0,.02h.019l0,.021h.019l0,.021h.017l0,.02H48.3l0,.021h.019l0,.02h.019l0,.022h.018l0,.02h.018l0,.02h.019l0,.021h.019l0,.021H48.4l0,.02h.018l0,.021h.02l0,.02h.019l0,.021h.018l0,.021h.017l0,.02H48.5l0,.021h.019l0,.021h.018l0,.02h.018l0,.021h.019l0,.021h.019l0,.02h.018l0,.021H48.6l0,.02h.019l0,.021h.019l0,.021h.018l0,.02h.019l0,.021h.019l0,.021h.019l0,.02h.019l0,.021h.019l0,.013a5.463,5.463,0,0,0-2.394-.515Zm9.26.522h0Z"/><g id="Super"><path d="M32.175,25.962c-2.161,0-3.328-2.062-3.328-4a5.662,5.662,0,0,1,1.379-3.225l.176-.2,3.784,1.247-.111.375a1.445,1.445,0,0,0,.159,1.129,1.764,1.764,0,0,0,1.471.5h6.724c2.058,0,3.435-.514,3.941-3.07a1.66,1.66,0,0,0-.157-1.376c-.384-.465-1.318-.53-2.271-.53H36.311a6.343,6.343,0,0,1-4.529-1.92,3.654,3.654,0,0,1-.811-3.087c.91-5.578,3.861-8.406,8.768-8.406h8.64A4.042,4.042,0,0,1,51.538,4.7c.931,1.063,1.258,2.682.972,4.81l-.047.35H47.642l.07-.465a1.345,1.345,0,0,0-.211-.95.912.912,0,0,0-.735-.266H38.327c-.711,0-1.444.815-2.011,2.234a1.61,1.61,0,0,0-.067,1.4,1.5,1.5,0,0,0,1.238.438h8.841c2.927,0,4.539,1.767,4.539,4.976,0,2.267-1.259,8.741-6.858,8.741Z" fill="#fef80d"/><path d="M48.379,3.807c2.219,0,4.3,1.378,3.732,5.648h-4s.269-1.681-1.344-1.681H38.327c-.941,0-1.781.975-2.386,2.488s0,2.387,1.546,2.387h8.842c3.127,0,4.135,2.117,4.135,4.572s-1.378,8.337-6.455,8.337H32.175c-2.051,0-2.925-2.085-2.925-3.6A5.3,5.3,0,0,1,30.528,19l3.16,1.042S33.049,22.2,35.705,22.2h6.724c2.085,0,3.765-.506,4.337-3.395.431-2.178-1.077-2.388-2.824-2.388H36.31c-1.882,0-5.479-1.244-4.941-4.539.548-3.359,2.117-8.068,8.37-8.068h8.64m0-.807h-8.64C34.6,3,31.52,5.942,30.572,11.745a4.1,4.1,0,0,0,.9,3.413,6.776,6.776,0,0,0,4.836,2.063h7.632c.492,0,1.644,0,1.959.383a1.422,1.422,0,0,1,.074,1.041c-.457,2.307-1.6,2.745-3.546,2.745H35.705a1.456,1.456,0,0,1-1.151-.347,1.067,1.067,0,0,1-.093-.769l.223-.75-.743-.246-3.16-1.041-.5-.166-.352.4a6.091,6.091,0,0,0-1.48,3.492c0,2.135,1.307,4.4,3.731,4.4H44.009c5.928,0,7.262-6.772,7.262-9.144,0-3.418-1.8-5.379-4.942-5.379H37.487a1.16,1.16,0,0,1-.9-.261,1.275,1.275,0,0,1,.107-1.02c.481-1.2,1.124-1.98,1.637-1.98h8.439a.562.562,0,0,1,.43.126.985.985,0,0,1,.118.62l-.15.935h5.653l.093-.7c.3-2.25-.058-3.975-1.068-5.13A4.436,4.436,0,0,0,48.379,3Z"/></g></svg>