<svg id="Layer_1" data-name="Layer 1" xmlns="http://www.w3.org/2000/svg" viewBox="0 0 162.75 114.262"><title>funtechsuperacan</title><path d="M53.935,83.5C29.414,65.544,3.872,80.419,3.872,95.669c0,16.209,21.709,24.125,45.9,11.875l-1.312-6.812c-15.875,5.937-22.938,2.187-22.938-5.479,0-6.5,11.438-11.875,24.729-8.021Z"/><path d="M50.063,80.958C25.542,63,0,77.875,0,93.125,0,109.333,21.708,117.25,45.9,105l-1.313-6.812c-15.875,5.937-22.937,2.187-22.937-5.48,0-6.5,11.437-11.875,24.729-8.02Z" fill="#f1001d"/><path d="M101.956,102.544l7.583-27.276h-16.4l-.635,2.4c-21.743-8.241-40.26,6.405-40.26,19.564.452,15.335,20.038,22.651,34.317,11.982,2.027,3.041,6.407,6.8,15.432,2.162l2-7.292C102.747,104.628,101.372,104.711,101.956,102.544Zm-15.675-1.333c-9.612,5.12-16.488,2.525-14.549-6.3C73.64,86.231,83.938,82.857,90.3,86.021Z"/><path d="M98.083,100l7.584-27.276h-16.4l-.635,2.4c-21.743-8.241-40.26,6.405-40.26,19.564.451,15.334,20.037,22.651,34.317,11.982,2.027,3.041,6.406,6.8,15.432,2.161l2-7.291C98.875,102.083,97.5,102.167,98.083,100ZM82.409,98.667c-9.613,5.12-16.489,2.525-14.549-6.3,1.908-8.682,12.206-12.055,18.567-8.891Z" fill="#f1001d"/><path d="M131.712,78.215l.806-2.947H116.456l-10.5,38.36h16.062l7.214-26.354c27.881-11.189,18.015,15.253,11.036,26.354h13.688C171.308,88.921,162.513,69.8,131.712,78.215Z"/><path d="M127.839,75.671l.807-2.947H112.583l-10.5,38.359h16.063L125.36,84.73c27.88-11.19,18.015,15.253,11.036,26.353h13.687C167.436,86.377,158.64,67.257,127.839,75.671Z" fill="#f1001d"/><path d="M53.43,69.368c33.875-59.687,89.562-62.812,68.25,0h-9.438c14.167-40.312-7.687-37.125-26.1,0Z"/><ellipse cx="103.727" cy="59.728" rx="9.547" ry="2.359"/><path d="M49.558,66.824c33.875-59.687,89.562-62.812,68.25,0H108.37c14.166-40.312-7.687-37.125-26.1,0Z" fill="#f1001d"/><ellipse cx="99.854" cy="57.184" rx="9.547" ry="2.359" fill="#f1001d"/><path d="M125.211,25.15c11.313-5,17.438,4.312,17.438,4.312s-5.57,1.22-10.907,8.156A20.383,20.383,0,0,0,125.211,25.15Z"/><path d="M121.339,22.605c11.312-5,17.437,4.313,17.437,4.313s-5.569,1.22-10.906,8.156A20.393,20.393,0,0,0,121.339,22.605Z" fill="#f1001d"/><path d="M37.378,0a1.376,1.376,0,0,0-.933.364C20.359,15.2,19.109,26.3,19.109,29.354c0,10.467,9.154,11.879,18.109,11.879,6.424,0,6.424.615,6.424,1.394,0,3.9-6.9,9.352-18.137,9.352a1.374,1.374,0,0,0-1.136,2.149l8.244,12.1a1.374,1.374,0,0,0,1.595.522C46.2,62.494,52.28,54.165,52.28,41.99c0-9.778-11.624-9.778-16.588-9.778-7.6-.184-7.921-1.146-7.921-3.3,0-4.267,9.112-10.9,14.856-14.075a1.375,1.375,0,0,0,.622-1.685L38.665.893A1.372,1.372,0,0,0,37.378,0Z" fill="#ffe600"/><path d="M37.377,1.375C22.465,15.126,20.484,25.486,20.484,29.354c0,8.737,7.122,10.5,16.734,10.5,6.923,0,7.8.716,7.8,2.769,0,4.87-7.7,10.727-19.512,10.727l8.244,12.1C48.3,60.293,50.905,49.82,50.905,41.99c0-7.193-7.146-8.4-15.213-8.4-7.259-.175-9.3-1.034-9.3-4.679,0-6.668,15.565-15.278,15.565-15.278Z" fill="#f1001d"/></svg>