<svg id="Layer_1" data-name="Layer 1" xmlns="http://www.w3.org/2000/svg" viewBox="0 0 162.75 147.437"><title>funtechsuperacan</title><path d="M53.935,116.678C29.414,98.72,3.872,113.6,3.872,128.845c0,16.208,21.709,24.125,45.9,11.875l-1.312-6.812c-15.875,5.937-22.938,2.187-22.938-5.48,0-6.5,11.438-11.875,24.729-8.02Z"/><path d="M50.063,114.134C25.542,96.176,0,111.051,0,126.3c0,16.208,21.708,24.125,45.9,11.875l-1.313-6.813c-15.875,5.938-22.937,2.188-22.937-5.479,0-6.5,11.437-11.875,24.729-8.021Z" fill="#f1001d"/><path d="M101.956,135.72l7.583-27.276h-16.4l-.635,2.4c-21.743-8.241-40.26,6.405-40.26,19.564.452,15.334,20.038,22.651,34.317,11.982,2.027,3.041,6.407,6.8,15.432,2.161l2-7.291C102.747,137.8,101.372,137.887,101.956,135.72Zm-15.675-1.333c-9.612,5.12-16.488,2.525-14.549-6.3,1.908-8.682,12.206-12.055,18.567-8.891Z"/><path d="M98.083,133.176l7.584-27.276h-16.4l-.635,2.4c-21.743-8.241-40.26,6.4-40.26,19.563.451,15.335,20.037,22.652,34.317,11.983,2.027,3.041,6.406,6.8,15.432,2.161l2-7.292C98.875,135.259,97.5,135.342,98.083,133.176Zm-15.674-1.333c-9.613,5.119-16.489,2.525-14.549-6.3,1.908-8.681,12.206-12.054,18.567-8.891Z" fill="#f1001d"/><path d="M131.712,111.391l.806-2.947H116.456l-10.5,38.359h16.062l7.214-26.353c27.881-11.189,18.015,15.253,11.036,26.353h13.688C171.308,122.1,162.513,102.977,131.712,111.391Z"/><path d="M127.839,108.847l.807-2.947H112.583l-10.5,38.359h16.063l7.214-26.353c27.88-11.19,18.015,15.253,11.036,26.353h13.687C167.436,119.552,158.64,100.433,127.839,108.847Z" fill="#f1001d"/><path d="M53.43,102.544c33.875-59.687,89.562-62.812,68.25,0h-9.438c14.167-40.312-7.687-37.125-26.1,0Z"/><ellipse cx="103.727" cy="92.904" rx="9.547" ry="2.359"/><path d="M49.558,100c33.875-59.687,89.562-62.812,68.25,0H108.37c14.166-40.312-7.687-37.125-26.1,0Z" fill="#f1001d"/><ellipse cx="99.854" cy="90.359" rx="9.547" ry="2.359" fill="#f1001d"/><path d="M125.211,58.325c11.313-5,17.438,4.313,17.438,4.313s-5.57,1.22-10.907,8.156A20.387,20.387,0,0,0,125.211,58.325Z"/><path d="M121.339,55.781c11.312-5,17.437,4.313,17.437,4.313s-5.569,1.219-10.906,8.156A20.393,20.393,0,0,0,121.339,55.781Z" fill="#f1001d"/><path d="M29.979,0a2.059,2.059,0,0,0-1.395.545C4.511,22.742,2.64,39.362,2.64,43.927c0,15.664,13.7,17.776,27.1,17.776,9.612,0,9.612.921,9.612,2.087,0,5.843-10.326,13.994-27.141,13.994A2.058,2.058,0,0,0,10.512,81L22.848,99.1a2.059,2.059,0,0,0,2.388.781C43.181,93.52,52.28,81.057,52.28,62.837,52.28,48.2,34.885,48.2,27.457,48.2,16.085,47.929,15.6,46.49,15.6,43.26c0-6.386,13.636-16.309,22.231-21.063a2.059,2.059,0,0,0,.931-2.522L31.906,1.337A2.057,2.057,0,0,0,29.979,0Z" fill="#ffe600"/><path d="M29.979,2.058C7.663,22.635,4.7,38.139,4.7,43.927,4.7,57,15.356,59.646,29.741,59.646c10.36,0,11.67,1.071,11.67,4.144,0,7.287-11.527,16.052-29.2,16.052l12.337,18.1c21.768-7.716,25.674-23.387,25.674-35.1,0-10.765-10.694-12.575-22.766-12.575-10.863-.262-13.911-1.548-13.911-7,0-9.979,23.292-22.864,23.292-22.864Z" fill="#f1001d"/></svg>