<svg id="svg2" xmlns="http://www.w3.org/2000/svg" viewBox="0 0 112 112"><title>Gameboy_Color_light_SVG</title><polygon points="110.88 7.538 112 0.188 92.701 0.188 88.111 33.267 107.3 33.267 108.33 25.907 96.691 25.907 97.401 20.197 107.51 20.197 108.53 12.848 98.53 12.848 99.24 7.538 110.88 7.538" fill="#c4c4c4"/><path d="M77,.188l-6.86,17.45L67.492.188h-7.86l-9,27.149L47.272.188h-9.8L26.553,27.647,28,16.978H14.7l-.91,6.529H19.6l-.4,2.25a10.846,10.846,0,0,1-4.29.71c-.92,0-7.759-.61-7.449-8s10.1-14.2,21.739-10.42l1.13-7c-7.76-2.7-28.139-1.22-30.229,17-1.22,10.719,8.58,15.829,15.109,15.719a21.544,21.544,0,0,0,9.6-2L24.3,33.3h7.76l3.78-9.8h6.939L44,33.257h12.56l5.82-18,2.86,18h6.639l7.35-19,1.22,19H87.8L85.761.188ZM38.593,16.978h0l2.559-6.84.85,6.84Z" fill="#c4c4c4"/><polygon points="86.741 39.477 80.621 48.866 76.531 39.477 68.262 39.477 75.921 56.016 73.671 72.556 81.331 72.556 83.271 58.056 95.211 39.477 86.741 39.477" fill="#c4c4c4"/><path d="M60,39.167c-5.31-.2-13,2.86-15.52,15.219s4.29,17.35,10.62,18.17,15.209-3.17,16.849-15S67.752,39.477,60,39.167Zm4.8,17.049c-1.12,8.58-6.43,9.6-8.37,9.39s-5.92-1.53-4.8-9.39,5.31-10.1,7.55-10,6.73,1.43,5.61,10Z" fill="#c4c4c4"/><path d="M36,39.477H21.913l-4.59,33.079h14.59c6.64,0,10.419-4.49,11.129-9.09s-1-7-2.75-8.57c1.12-.82,2.75-1.13,3.37-6.33S39.373,39.477,36,39.477Zm-.31,22.5a3.731,3.731,0,0,1-4,3.27h-5.8l.82-5.72h6.53A2.521,2.521,0,0,1,35.693,61.976Zm.21-12.7c-.11.82-.72,2.86-3.88,2.86h-4.29l.71-5.309h5A2.529,2.529,0,0,1,35.9,49.276Z" fill="#c4c4c4"/><polygon points="17.323 72.556 17.323 72.556 17.323 72.556 17.323 72.556"/><path id="path14" d="M39.942,101.146a6.217,6.217,0,0,1-5.879,2.87,5.7,5.7,0,0,1-5.31-4.66A6.44,6.44,0,0,1,31,93.576a8.535,8.535,0,0,1,6.05-2.11s2.08.2,3.149,3.63c1.37,4.37-.28,6-.28,6Zm7.17-8.65A11.457,11.457,0,0,0,45,89.017a12.993,12.993,0,0,0-7-4.12,11.089,11.089,0,0,0-7.1.92,15.3,15.3,0,0,0-5,3.49,17.371,17.371,0,0,0-4.37,8s-1.3,4.16.76,7.45l2.24,2.7a12.837,12.837,0,0,0,6.47,2.9,13.771,13.771,0,0,0,5.91-.21,14.47,14.47,0,0,0,4.8-1.94,13.126,13.126,0,0,0,5.87-7.74l-.51-8" fill="#4e4ba8"/><path id="path16" d="M79.231,102.086c-5.11,3.07-8.33-.29-8.33-.29s-1.43-.94-1.73-3.79c-.22-3.31,3.07-5,3.07-5a7.168,7.168,0,0,1,3.9-.91c2.17.17,2.85,0,4.6,1.32,1.66,1.48,1.56,2.6,1.56,2.6a6.4,6.4,0,0,1-3.07,6.09Zm8.65-10.55a13.27,13.27,0,0,0-8.73-5.939,13.756,13.756,0,0,0-5.56-.09A13.417,13.417,0,0,0,64,92.336a13,13,0,0,0-1.53,8.87l3.1,6.14c2.3,2.15,3.229,2.15,3.379,2.27a11.756,11.756,0,0,0,6.56.58,18.177,18.177,0,0,0,8.5-3.59,15.25,15.25,0,0,0,4.66-5.89l-.79-9.18" fill="#daac06"/><path id="path18" d="M95.541,92.7l-.35-4.679a35.832,35.832,0,0,1,4.679.16c2.71.41,2.56,1.17,2.56,1.17s-.09,1-2.14,1.9a19.539,19.539,0,0,1-4.749,1.48Zm-6.87,8s.11,2.89-.34,3.59a5.738,5.738,0,0,0-.52,2.6s-.42,3.9,4.1,4.55c3.1,0,3.48-2.6,3.53-3.7a46.117,46.117,0,0,0,.11-4.89l4,3.28,4.64,3.89a24.19,24.19,0,0,0,2.24,1.66s.38.45,1.75.29a3.482,3.482,0,0,0,2.12-1,4.563,4.563,0,0,0,1.6-2.58,2.8,2.8,0,0,0-1.11-2.91s-5.6-4.51-9.4-7.62a30.356,30.356,0,0,0,3.78-2.35s3.54-2.34,4.3-5.939c1-4-1.94-5.51-1.94-5.51a24.729,24.729,0,0,0-3.43-2,15.373,15.373,0,0,0-7.639-1.53,11,11,0,0,0-8.65,3.84,5.382,5.382,0,0,0-.59,4.72,17.392,17.392,0,0,1,.63,2.449,47.744,47.744,0,0,1,.79,9.18" fill="#00938a"/><path id="path20" d="M62.472,101.206a10.893,10.893,0,0,0-4,.28,31.462,31.462,0,0,1-3.92,1.23,46.855,46.855,0,0,1-.5-8,65.819,65.819,0,0,0-.26-7.119s-.16-3.77-2.18-6c-2.39-2.4-4-1.38-5-.8a4.122,4.122,0,0,0-1.22,4.57l1.19,3.38a10.148,10.148,0,0,1,.5,3.809l.51,8c0,1.06.87,8.23.87,8.23a3,3,0,0,0,2.33,2.75c2.29.38,4.55-.76,5.51-1.21a18.732,18.732,0,0,1,2.22-.85,17.144,17.144,0,0,1,2.09-.33,10.7,10.7,0,0,0,3.34-.67,2.6,2.6,0,0,0,1.59-1,4.171,4.171,0,0,0-3.1-6.14" fill="#6eb122"/><path id="path22" d="M22.263,104.736a8.783,8.783,0,0,0-3.47-.16s-5.23.51-8-.07c-4.229-.74-4.079-5.29-4.079-5.29s-.15-3,2.4-7.1c3.139-5,6.609-5.939,6.609-5.939a2.2,2.2,0,0,1,1.68.11,3.42,3.42,0,0,0,3.34,2.9s4.08.28,3.88-4.67c-.47-4.07-4.38-4.63-6-5a10.508,10.508,0,0,0-8.129,1.76s-3.3,1.78-7.26,8a16.393,16.393,0,0,0-3,6.889s-.33.73-.2,3.94a9.771,9.771,0,0,0,.87,4.34,10.728,10.728,0,0,0,5.94,6.08,20.938,20.938,0,0,0,6.749,1.12s3.89,0,6.87-.21a3,3,0,0,0,2.4-.73,3.8,3.8,0,0,0,1.64-3.27,3.559,3.559,0,0,0-2.24-2.71" fill="#b80a41"/></svg>