<svg id="svg2" xmlns="http://www.w3.org/2000/svg" xmlns:xlink="http://www.w3.org/1999/xlink" viewBox="0 0 119.442 119.442"><defs><linearGradient id="linear-gradient" x1="59.721" y1="9.412" x2="59.721" y2="110.03" gradientUnits="userSpaceOnUse"><stop offset="0" stop-color="#f6ea2f"/><stop offset="1" stop-color="#f7740b"/></linearGradient></defs><title>gamespot</title><circle cx="59.721" cy="59.721" r="59.721" fill="#fe0d08"/><circle cx="59.721" cy="59.721" r="50.309" fill="url(#linear-gradient)"/><path id="path53" d="M81.868,41l-.857,6.745a25.36,25.36,0,0,0-16-2.719A16.277,16.277,0,0,0,51.3,61.6c0,8.737,6.471,15.289,14.445,14.631a12.494,12.494,0,0,0,4.658-1.367V62.472H84.988v20.69c-11.9-1.323-10.921,1.563-23.964,1.669-14.343.106-25.491-10.094-25.491-23.476,0-16.682,14.321-24.849,28.527-24.867A34,34,0,0,1,81.868,41Z" fill="#fff"/><path id="path53-2" data-name="path53" d="M79.422,38.62l-.857,6.745a25.36,25.36,0,0,0-16-2.719A16.277,16.277,0,0,0,48.856,59.218c0,8.737,6.471,15.289,14.445,14.631a12.494,12.494,0,0,0,4.658-1.367V60.092H82.542v20.69c-11.9-1.323-10.921,1.563-23.964,1.669-14.343.106-25.491-10.094-25.491-23.476,0-16.682,14.321-24.849,28.527-24.867A34,34,0,0,1,79.422,38.62Z"/></svg>