<svg id="Layer_1" data-name="Layer 1" xmlns="http://www.w3.org/2000/svg" xmlns:xlink="http://www.w3.org/1999/xlink" viewBox="0 0 99.86 100.001"><defs><linearGradient id="linear-gradient" x1="-127.881" y1="171.88" x2="-41.481" y2="171.88" gradientTransform="matrix(1, 0, 0, -1, 135.492, 248.228)" gradientUnits="userSpaceOnUse"><stop offset="0.2"/><stop offset="0.9" stop-color="#fff"/></linearGradient><linearGradient id="linear-gradient-2" x1="-64.136" y1="246.737" x2="-137.413" y2="173.46" xlink:href="#linear-gradient"/><linearGradient id="linear-gradient-3" x1="-60.543" y1="174.466" x2="-60.543" y2="248.03" xlink:href="#linear-gradient"/><mask id="mask" x="7.611" y="52.497" width="86.4" height="47.702" maskUnits="userSpaceOnUse"><g id="mask-2" data-name="mask"><g id="mask-2-2" data-name="mask-2"><g id="mask-2-2-2" data-name="mask-2-2"><g id="_Group_" data-name=" Group "><rect id="_Path_" data-name=" Path " x="7.611" y="52.497" width="86.4" height="47.702" fill="url(#linear-gradient)"/></g></g></g></g></mask><mask id="mask-3" x="-0.244" y="-0.185" width="70.395" height="76.629" maskUnits="userSpaceOnUse"><g id="mask-3-2" data-name="mask-3"><g id="mask-3-2-2" data-name="mask-3-2"><g id="mask-2-2-2-2" data-name="mask-2-2-2"><g id="_Group_2" data-name=" Group 2"><rect id="_Path_2" data-name=" Path 2" x="-0.244" y="-0.185" width="69.924" height="76.629" fill="url(#linear-gradient-2)"/></g></g></g></g></mask><mask id="mask-4" x="49.374" y="0.161" width="51.15" height="73.601" maskUnits="userSpaceOnUse"><g id="mask-4-2" data-name="mask-4"><g id="mask-4-2-2" data-name="mask-4-2"><g id="mask-3-2-2-2" data-name="mask-3-2-2"><g id="_Group_3" data-name=" Group 3"><rect id="_Path_3" data-name=" Path 3" x="49.374" y="0.198" width="51.15" height="73.564" fill="url(#linear-gradient-3)"/></g></g></g></g></mask><radialGradient id="radial-gradient" cx="-140.962" cy="236.866" r="72.427" gradientTransform="matrix(0.849, 0, 0, -0.865, 153.34, 239.762)" gradientUnits="userSpaceOnUse"><stop offset="0.005" stop-color="#fff"/><stop offset="0.198" stop-color="#c3cce9"/><stop offset="0.353" stop-color="#7a8dc7"/><stop offset="0.492" stop-color="#4f5faf"/><stop offset="0.711" stop-color="#064ea3"/><stop offset="0.829" stop-color="#2a58a6"/><stop offset="0.936" stop-color="#6876a3"/></radialGradient></defs><title>gameparkgp32</title><g mask="url(#mask)"><path id="_Path_5" data-name=" Path 5" d="M25.874,93.771a50.093,50.093,0,0,0,68-19.609L43.818,52.689,8.012,77.2A49.836,49.836,0,0,0,25.874,93.771Z" fill="#022c7f"/></g><g mask="url(#mask-3)"><path id="_Path_6" data-name=" Path 6" d="M46.838,0A50.034,50.034,0,0,0,7.527,76.322l.024.046,62.6-38.851Z" fill="#46ab22"/></g><g mask="url(#mask-4)"><path id="_Path_7" data-name=" Path 7" d="M93.989,73.38A49.783,49.783,0,0,0,50.056.161V73.38Z" fill="#f60000"/></g><path id="_Path_8" data-name=" Path 8" d="M8.952,49.931A41.093,41.093,0,1,1,50.079,90.99h-.023a41.065,41.065,0,0,1-41.1-41.023Z"/><path d="M53.206,49.263V59.425H66.422a19.456,19.456,0,1,1,.509-19.468h18.85A36.618,36.618,0,1,0,87.09,49.7v-.437Z" fill="url(#radial-gradient)"/><path id="_Path_10" data-name=" Path 10" d="M30.149,37.242A8.471,8.471,0,1,1,38.633,45.7h-.025A8.469,8.469,0,0,1,30.149,37.242Z" fill="#fff" stroke="#fff" stroke-linecap="round" stroke-linejoin="round" stroke-width="0.48"/></svg>