<svg id="svg2" xmlns="http://www.w3.org/2000/svg" viewBox="0 0 88 112"><title>GBA_SVG</title><path d="M43,26.061H22.61L21.2,36.111h9l-.63,3.45c-1.57.94-5.18,1.1-6.6,1.1S11,39.721,11.46,28.421,27,6.6,44.9,12.4l1.73-10.83C34.7-2.509,3.36-.229.16,27.791-1.72,44.271,13.35,52.121,23.39,52a33.185,33.185,0,0,0,14.76-3.14l2-1Z" fill="#fff"/><path d="M76.13,1.131H54.47L47.4,52H69.87c10.2,0,16-6.9,17.11-14s-1.57-10.83-4.24-13.18c1.73-1.26,4.24-1.73,5.18-9.74S81.31,1.131,76.13,1.131Zm-.47,34.54a5.751,5.751,0,0,1-6.12,5h-9l1.33-8.77h10A3.881,3.881,0,0,1,75.66,35.671Zm.31-19.47c-.15,1.26-1.1,4.4-6,4.4h-6.6l1.1-8.17h7.69A3.881,3.881,0,0,1,75.97,16.2Z" fill="#fff"/><polygon points="37.275 60.011 6.395 112 43.175 112 43.175 100.44 28.205 100.44 43.175 73.56 64.865 112 81.604 112 50.365 60.011 37.275 60.011" fill="#fff"/></svg>