<svg id="Layer_1" data-name="Layer 1" xmlns="http://www.w3.org/2000/svg" viewBox="0 0 112 112"><title>GameGear_dark_SVG</title><path d="M13.22,61.742l-.91,5.86h5.78C17.13,70.792,15.34,73,12,73s-5.69-2.1-5.69-7.369,2.69-11.87,7.87-11.7c3.65.12,4.63,2,4.8,5.07h6.269c-.07-8.66-5.07-11.5-11.249-11.5-10.86.23-14,10.42-14,19.23s4.4,12.7,11.17,12.7c8.629-.26,13.439-8.889,13.449-17.689" fill="#333"/><path d="M32.879,48.342,20.689,78.891h6.1l2.15-6h7.69l.53,6H43l-3.49-30.549m-8.59,19.14,4.21-11.59,1,11.59Z" fill="#333"/><polyline points="48.729 48.322 43.519 78.891 49.279 78.891 52.429 56.192 54.659 78.891 59.128 78.891 67.908 57.202 64.258 78.891 69.768 78.891 74.878 48.342 71.218 48.352 66.978 48.342 58.268 69.162 56.419 48.342" fill="#333"/><polygon points="91.518 54.742 92.518 48.322 82.808 48.322 80.498 48.322 76.548 48.322 71.658 78.891 76.428 78.891 77.468 78.891 87.588 78.891 88.658 72.472 78.588 72.472 79.718 66.022 88.658 66.022 89.668 60.152 80.738 60.152 81.688 54.742 91.518 54.742" fill="#333"/><path d="M39.809,94.311l-.91,5.86h5.78c-1,3.2-2.76,5.42-6.08,5.42s-5.7-2.11-5.7-7.38,2.64-11.88,7.87-11.71c3.64.12,4.62,2,4.79,5.08h6.28c-.07-8.66-5.08-11.51-11.24-11.51-10.88.23-14,10.42-14,19.24S31,112,37.749,112c8.64-.26,13.44-8.889,13.46-17.689" fill="#333"/><polygon points="70.148 87.171 71.148 80.751 61.438 80.751 59.128 80.751 55.169 80.751 50.289 111.32 55.059 111.32 56.099 111.32 66.218 111.32 67.278 104.891 57.219 104.891 58.348 98.451 67.278 98.451 68.298 92.571 59.368 92.571 60.318 87.171 70.148 87.171" fill="#333"/><path d="M78.828,80.761,66.638,111.31h6.09l2.16-6h7.69l.52,6h5.81l-3.45-30.549M76.868,99.9l4.2-11.59,1,11.59Z" fill="#333"/><path d="M112,88.921c0-6.27-3.1-7.79-7.19-8.1v-.06H94.418l-5,30.559h5.94l1.879-11.559h2.55l4.56,11.559h6.75l-5-12.879A10.239,10.239,0,0,0,112,88.921Zm-10.35,5.37h-3.38l1.1-7.56h3.3c1.91,0,3.45.56,3.45,3.41a4.279,4.279,0,0,1-4.4,4.152Z" fill="#333"/><ellipse cx="19.181" cy="20.815" rx="26.15" ry="10.81" transform="translate(-9.12 21.29) rotate(-48.3)" fill="#fe0000"/><ellipse cx="56.394" cy="20.812" rx="26.15" ry="10.81" transform="translate(3.34 49.074) rotate(-48.3)" fill="#0c9"/><ellipse cx="92.819" cy="20.812" rx="26.15" ry="10.81" transform="translate(15.534 76.269) rotate(-48.3)" fill="#09f"/></svg>