<svg id="svg2" xmlns="http://www.w3.org/2000/svg" viewBox="0 0 119.442 119.442"><title>gamespot2</title><circle cx="59.721" cy="59.721" r="59.721" fill="#fd0"/><circle cx="59.721" cy="59.721" r="50.309" fill="#2b2d31"/><path id="path53" d="M81.328,40.061l-.857,6.745a25.36,25.36,0,0,0-16-2.719A16.277,16.277,0,0,0,50.762,60.659c0,8.737,6.471,15.289,14.445,14.631a12.494,12.494,0,0,0,4.658-1.367V61.533H84.448v20.69c-11.9-1.323-10.921,1.563-23.964,1.669C46.141,84,34.993,73.8,34.993,60.416c0-16.682,14.321-24.849,28.527-24.867a34,34,0,0,1,17.808,4.512Z" fill="#fd0"/></svg>