<svg id="Layer_1" data-name="Layer 1" xmlns="http://www.w3.org/2000/svg" xmlns:xlink="http://www.w3.org/1999/xlink" viewBox="0 0 138.277 138.677"><defs><linearGradient id="linear-gradient" x1="93.862" y1="115.003" x2="27.195" y2="19.003" gradientTransform="translate(53.937 -27.031) rotate(26.249)" gradientUnits="userSpaceOnUse"><stop offset="0" stop-color="#a4a3a9"/><stop offset="1" stop-color="#c9d1e6"/></linearGradient><linearGradient id="linear-gradient-2" x1="65.129" y1="134.956" x2="-1.537" y2="38.956" gradientTransform="translate(167.28 61.346) rotate(88.614)" xlink:href="#linear-gradient"/><linearGradient id="linear-gradient-3" x1="56.03" y1="141.275" x2="-10.637" y2="45.275" gradientTransform="matrix(0.656, 0.755, -0.755, 0.656, 81.978, 14.266)" xlink:href="#linear-gradient"/><linearGradient id="linear-gradient-4" x1="73.93" y1="128.845" x2="7.263" y2="32.845" gradientTransform="matrix(1, 0, 0, 1, 0, 0)" xlink:href="#linear-gradient"/><linearGradient id="linear-gradient-5" x1="77.744" y1="126.196" x2="11.077" y2="30.196" gradientTransform="matrix(1, 0, 0, 1, 0, 0)" xlink:href="#linear-gradient"/><linearGradient id="linear-gradient-6" x1="132.247" y1="88.346" x2="65.581" y2="-7.654" gradientTransform="matrix(1, 0, 0, 1, 0, 0)" xlink:href="#linear-gradient"/><linearGradient id="linear-gradient-7" x1="133.875" y1="87.216" x2="67.208" y2="-8.784" gradientTransform="matrix(1, 0, 0, 1, 0, 0)" xlink:href="#linear-gradient"/><linearGradient id="linear-gradient-8" x1="106.828" y1="105.999" x2="40.161" y2="9.999" gradientTransform="translate(12.593 -18.445) rotate(26.601)" xlink:href="#linear-gradient"/><linearGradient id="linear-gradient-9" x1="124.877" y1="93.465" x2="58.21" y2="-2.535" gradientTransform="translate(5.883 -20.734) rotate(18.968)" xlink:href="#linear-gradient"/><linearGradient id="linear-gradient-10" x1="138.959" y1="83.685" x2="72.292" y2="-12.315" gradientTransform="translate(2.53 -13.206) rotate(8.73)" xlink:href="#linear-gradient"/></defs><title>gizmondo</title><ellipse cx="52.218" cy="117.765" rx="20.915" ry="15.944" transform="translate(-66.774 167.12) rotate(-88.614)"/><ellipse cx="25.844" cy="98.02" rx="16.416" ry="12.444" transform="translate(-66.786 56.843) rotate(-51.263)"/><path d="M41.734,31.63c-3.316-3.943-10.45-3.4-15.934,1.211-9.6,8.136-3.06,15.3-4.268,19.8-1.583,5.291-11.5,7.041-15.5,16.3-3.612,7.9-1.962,16.4,3.683,18.982s13.151-1.737,16.762-9.641c5.052-11.372-2.031-16.727.469-22.727,1.333-3.083,7.764-5.837,10.859-8.44C43.292,42.508,45.05,35.573,41.734,31.63Z"/><path d="M34.165,19.648c-2.107-3.127-7.9-2.91-12.941.485-8.879,6.459-5.254,9.99-5.317,13.8S8.22,39.529,3.754,45.48C-.7,51.447-1.272,58.55,2.473,61.344s10.389.221,14.842-5.746c5.9-7.381,2.436-12.6,2.639-16.4s6.167-5.9,8.9-7.743C33.893,28.063,36.271,22.776,34.165,19.648Z"/><ellipse cx="45.537" cy="18.037" rx="10.643" ry="7.771" transform="translate(-3.256 22.299) rotate(-26.601)"/><ellipse cx="65.307" cy="8.207" rx="10.508" ry="7.796" transform="translate(1.481 24.288) rotate(-21.304)"/><ellipse cx="87.846" cy="10.993" rx="12.172" ry="9.268" transform="translate(-0.526 16.295) rotate(-10.566)"/><path d="M105.654,16.492C97.93,15.2,90.948,18.458,90.059,23.769c-1.214,6.51,7.661,10.541,7.5,13.76S83.907,42.342,81.671,50.806c-2.751,7.633,2.21,16.412,11.081,19.609s18.292-.4,21.043-8.032c4.05-11.1-9.169-19.166-8.95-22.979.093-3.031,12.125-4.187,13.185-10.955C118.919,23.138,113.378,17.784,105.654,16.492Z"/><path d="M137.23,52.945c3.136-6.026-1.009-14.392-9.259-18.687s-17.482-2.891-20.618,3.135c-5.2,9.626,10.3,19.5,9.637,24.042s-8.874,6.4-12.807,9.863c-7.3,6.423-7.048,18.63.553,27.265s19.679,10.428,26.975,4.006,6.821-18.04-.554-27.265c-2.2-2.894-6.219-8.681-6.156-11.962C124.949,59.769,134.74,58.227,137.23,52.945Z"/><ellipse cx="85.325" cy="103.596" rx="16.877" ry="19.619" transform="translate(-32.895 40.062) rotate(-22.27)"/><ellipse cx="84.935" cy="102.149" rx="14.967" ry="17.398" transform="translate(-36.419 48.099) rotate(-26.249)" fill="url(#linear-gradient)"/><ellipse cx="52.216" cy="116.361" rx="18.087" ry="14.318" transform="translate(-65.373 165.748) rotate(-88.614)" fill="url(#linear-gradient-2)"/><ellipse cx="25.337" cy="97.076" rx="14.644" ry="10.716" transform="translate(-64.55 52.509) rotate(-49)" fill="url(#linear-gradient-3)"/><path d="M41.121,32.243C37.805,28.3,31.407,29.6,26.563,33.435,17.74,41.1,25.032,46.6,22.907,52.6,21.324,57.894,10.78,59.685,6.782,68.946c-3.292,7.281-1,13.573,3.417,15.614,4.291,1.875,11-.875,14.375-7.833,5.552-12.1-2.292-15.917.375-22.5,2-4.833,8.75-6.958,11.066-8.9C42.886,40.06,43.178,35.081,41.121,32.243Z" fill="url(#linear-gradient-4)"/><path d="M32.74,19.685c-1.283-1.932-6.582-1.831-10.875,1.167-8.166,6.167-4.476,8.159-4.539,11.972-.322,5.57-8.74,7.348-13.2,13.3C-.332,52.09-.218,56.894,2.532,59.31c3.25,2.417,8.417.375,12.563-4.625,6.395-8.125,2.687-11.166,2.812-16.708.208-4.333,8.352-7.743,11.083-9.583C32.865,25.727,34.49,22.477,32.74,19.685Z" fill="url(#linear-gradient-5)"/><path d="M105.074,17.31c-7.042-1.1-12.542,1.125-13.417,5.334-.958,5.958,7.861,8.875,7.625,13.51-.413,5.313-13.969,6.184-16.167,12.948-2.75,7.633,2.625,14.833,9.334,17.333,7.5,2.66,16.721,1.124,19.471-6.509,3.57-10.407-9.263-16.03-9.263-22.116,0-4.916,12-4.75,13.167-10.75C116.49,23.185,112.8,18.6,105.074,17.31Z" fill="url(#linear-gradient-6)"/><path d="M136.115,50.31c2.417-6.062-2.721-12.112-8.75-15.333-6.989-3.51-14.989-2.573-17.666,2-4.948,9.365,10.646,16.865,9.666,23.25-.792,5.271-9.688,7.684-13.333,10.667-7.031,6.01-5.969,16.2.458,23.833,7.48,8.208,17.855,9.208,24.292,3.792,6.014-5.707,6.063-14.584-.469-23.646-2.2-2.894-6.968-9.063-6.864-13.188C123.407,56.5,134.1,55.092,136.115,50.31Z" fill="url(#linear-gradient-7)"/><ellipse cx="45.31" cy="17.414" rx="9.203" ry="6.128" transform="translate(-3.001 22.132) rotate(-26.601)" fill="url(#linear-gradient-8)"/><ellipse cx="64.999" cy="7.24" rx="9.305" ry="6.112" transform="translate(1.176 21.52) rotate(-18.968)" fill="url(#linear-gradient-9)"/><ellipse cx="87.768" cy="9.969" rx="10.961" ry="7.325" transform="translate(-0.496 13.437) rotate(-8.73)" fill="url(#linear-gradient-10)"/></svg>