<svg xmlns="http://www.w3.org/2000/svg" viewBox="0 0 32 32"><title>gold_plus</title><path d="M18.852,21.937v1.828h0c0,1.009-2.558,1.828-5.713,1.828h0L12,23.765l1.142-1.828Z" fill="#ffce2a"/><path d="M7.426,21.937v1.828h0c0,1.009,2.558,1.828,5.713,1.828h0V21.937Z" fill="#fdeb95"/><path d="M18.852,20.109v1.828h0c0,1.009-2.558,1.828-5.713,1.828h0L12,21.937l1.142-1.828Z" fill="#e68900"/><path d="M7.426,20.109v1.828h0c0,1.009,2.558,1.828,5.713,1.828h0V20.109Z" fill="#ffad00"/><path d="M18.852,18.281v1.828h0c0,1.009-2.558,1.828-5.713,1.828h0L12,20.109l1.142-1.828Z" fill="#ffce2a"/><path d="M7.426,18.281v1.828h0c0,1.009,2.558,1.828,5.713,1.828h0V18.281Z" fill="#fdeb95"/><path d="M18.852,16.452v1.829h0c0,1.009-2.558,1.828-5.713,1.828h0L12,18.281l1.142-1.829Z" fill="#e68900"/><path d="M7.426,16.452v1.829h0c0,1.009,2.558,1.828,5.713,1.828h0V16.452Z" fill="#ffad00"/><path d="M18.852,14.624v1.829h0c0,1.009-2.558,1.828-5.713,1.828h0L12,16.452l1.142-1.828Z" fill="#ffce2a"/><path d="M7.426,14.624v1.829h0c0,1.009,2.558,1.828,5.713,1.828h0V14.624Z" fill="#fdeb95"/><path d="M18.852,12.8v1.828h0c0,1.01-2.558,1.828-5.713,1.828h0L12,14.624,13.139,12.8Z" fill="#e68900"/><path d="M7.426,12.8v1.828h0c0,1.01,2.558,1.828,5.713,1.828h0V12.8Z" fill="#ffad00"/><path d="M18.852,10.968V12.8h0c0,1.01-2.558,1.828-5.713,1.828h0L12,12.8l1.142-1.828Z" fill="#ffce2a"/><path d="M7.426,10.968V12.8h0c0,1.01,2.558,1.828,5.713,1.828h0V10.968Z" fill="#fdeb95"/><path d="M18.852,9.14v1.828h0c0,1.01-2.558,1.828-5.713,1.828h0L12,10.968,13.139,9.14Z" fill="#e68900"/><path d="M7.426,9.14v1.828h0c0,1.01,2.558,1.828,5.713,1.828h0V9.14Z" fill="#ffad00"/><path d="M18.852,7.312V9.14h0c0,1.01-2.558,1.828-5.713,1.828h0L12,9.14l1.142-1.828Z" fill="#ffce2a"/><path d="M7.426,7.312V9.14h0c0,1.01,2.558,1.828,5.713,1.828h0V7.312Z" fill="#fdeb95"/><path d="M18.852,5.484V7.312h0c0,1.01-2.558,1.828-5.713,1.828h0L12,7.312l1.142-1.828Z" fill="#e68900"/><path d="M7.426,5.484V7.312h0c0,1.01,2.558,1.828,5.713,1.828h0V5.484Z" fill="#ffad00"/><path d="M18.852,3.656V5.484h0c0,1.01-2.558,1.828-5.713,1.828h0L12,5.484l1.142-1.828Z" fill="#ffce2a"/><path d="M7.426,3.656V5.484h0c0,1.01,2.558,1.828,5.713,1.828h0V3.656Z" fill="#fdeb95"/><path d="M18.852,1.828V3.656h0c0,1.01-2.558,1.828-5.713,1.828h0L12,3.656l1.142-1.828Z" fill="#e68900"/><path d="M7.426,1.828V3.656h0c0,1.01,2.558,1.828,5.713,1.828h0V1.828Z" fill="#ffad00"/><path d="M13.139,0h0L12,1.828l1.142,1.828h0c3.155,0,5.713-.818,5.713-1.828S16.294,0,13.139,0Z" fill="#ffad00"/><path d="M7.426,1.828c0,1.01,2.558,1.828,5.713,1.828V0C9.984,0,7.426.818,7.426,1.828Z" fill="#ffce2a"/><path d="M13.139.743h0L12,1.828l1.142,1.085h0c1.89,0,3.428-.486,3.428-1.085S15.029.743,13.139.743Z" fill="#ffce2a"/><path d="M9.712,1.828c0,.6,1.537,1.085,3.427,1.085V.743C11.249.743,9.712,1.23,9.712,1.828Z" fill="#fdeb95"/><path d="M11.425,26.507v1.828h0c0,1.009-2.557,1.828-5.712,1.828h0L4.57,28.335l1.143-1.828Z" fill="#e68900"/><path d="M0,26.507v1.828H0c0,1.009,2.558,1.828,5.713,1.828h0V26.507Z" fill="#ffad00"/><path d="M11.425,24.679v1.828h0c0,1.009-2.557,1.828-5.712,1.828h0L4.57,26.507l1.143-1.828Z" fill="#ffce2a"/><path d="M0,24.679v1.828H0c0,1.009,2.558,1.828,5.713,1.828h0V24.679Z" fill="#fdeb95"/><path d="M11.425,22.851v1.828h0c0,1.009-2.557,1.828-5.712,1.828h0L4.57,24.679l1.143-1.828Z" fill="#e68900"/><path d="M0,22.851v1.828H0c0,1.009,2.558,1.828,5.713,1.828h0V22.851Z" fill="#ffad00"/><path d="M11.425,21.023v1.828h0c0,1.009-2.557,1.828-5.712,1.828h0L4.57,22.851l1.143-1.828Z" fill="#ffce2a"/><path d="M0,21.023v1.828H0c0,1.009,2.558,1.828,5.713,1.828h0V21.023Z" fill="#fdeb95"/><path d="M11.425,19.2v1.828h0c0,1.009-2.557,1.828-5.712,1.828h0L4.57,21.023,5.713,19.2Z" fill="#e68900"/><path d="M0,19.2v1.828H0c0,1.009,2.558,1.828,5.713,1.828h0V19.2Z" fill="#ffad00"/><path d="M11.425,17.366V19.2h0c0,1.009-2.557,1.828-5.712,1.828h0L4.57,19.2l1.143-1.829Z" fill="#ffce2a"/><path d="M0,17.366V19.2H0c0,1.009,2.558,1.828,5.713,1.828h0V17.366Z" fill="#fdeb95"/><path d="M11.425,15.538v1.829h0c0,1.009-2.557,1.828-5.712,1.828h0L4.57,17.366l1.143-1.828Z" fill="#e68900"/><path d="M0,15.538v1.829H0C0,18.376,2.558,19.2,5.713,19.2h0V15.538Z" fill="#ffad00"/><path d="M5.713,13.71h0L4.57,15.538l1.143,1.828h0c3.155,0,5.712-.818,5.712-1.828S8.868,13.71,5.713,13.71Z" fill="#ffad00"/><path d="M0,15.538c0,1.01,2.558,1.828,5.713,1.828V13.71C2.558,13.71,0,14.529,0,15.538Z" fill="#ffce2a"/><path d="M5.713,14.453h0L4.57,15.538l1.143,1.086h0c1.89,0,3.427-.487,3.427-1.086S7.6,14.453,5.713,14.453Z" fill="#ffce2a"/><path d="M2.285,15.538c0,.6,1.538,1.086,3.428,1.086V14.453C3.823,14.453,2.285,14.94,2.285,15.538Z" fill="#fdeb95"/><path d="M26.543,23.384v1.828h0c0,1.01-2.557,1.828-5.712,1.828h0l-1.143-1.828,1.143-1.828Z" fill="#e68900"/><path d="M15.118,23.384v1.828h0c0,1.01,2.558,1.828,5.713,1.828h0V23.384Z" fill="#ffad00"/><path d="M26.543,21.556v1.828h0c0,1.01-2.557,1.828-5.712,1.828h0l-1.143-1.828,1.143-1.828Z" fill="#ffce2a"/><path d="M15.118,21.556v1.828h0c0,1.01,2.558,1.828,5.713,1.828h0V21.556Z" fill="#fdeb95"/><path d="M26.543,19.728v1.828h0c0,1.01-2.557,1.828-5.712,1.828h0l-1.143-1.828,1.143-1.828Z" fill="#e68900"/><path d="M15.118,19.728v1.828h0c0,1.01,2.558,1.828,5.713,1.828h0V19.728Z" fill="#ffad00"/><path d="M26.543,17.9v1.828h0c0,1.01-2.557,1.828-5.712,1.828h0l-1.143-1.828L20.831,17.9Z" fill="#ffce2a"/><path d="M15.118,17.9v1.828h0c0,1.01,2.558,1.828,5.713,1.828h0V17.9Z" fill="#fdeb95"/><path d="M26.543,16.072V17.9h0c0,1.01-2.557,1.828-5.712,1.828h0L19.688,17.9l1.143-1.828Z" fill="#e68900"/><path d="M15.118,16.072V17.9h0c0,1.01,2.558,1.828,5.713,1.828h0V16.072Z" fill="#ffad00"/><path d="M26.543,14.244v1.828h0c0,1.01-2.557,1.828-5.712,1.828h0l-1.143-1.828,1.143-1.828Z" fill="#ffce2a"/><path d="M15.118,14.244v1.828h0c0,1.01,2.558,1.828,5.713,1.828h0V14.244Z" fill="#fdeb95"/><path d="M26.543,12.416v1.828h0c0,1.01-2.557,1.828-5.712,1.828h0l-1.143-1.828,1.143-1.828Z" fill="#e68900"/><path d="M15.118,12.416v1.828h0c0,1.01,2.558,1.828,5.713,1.828h0V12.416Z" fill="#ffad00"/><path d="M20.831,10.588h0l-1.143,1.828,1.143,1.828h0c3.155,0,5.712-.818,5.712-1.828S23.986,10.588,20.831,10.588Z" fill="#ffad00"/><path d="M15.118,12.416c0,1.01,2.558,1.828,5.713,1.828V10.588C17.676,10.588,15.118,11.406,15.118,12.416Z" fill="#ffce2a"/><path d="M20.831,11.331h0l-1.143,1.085L20.831,13.5h0c1.89,0,3.427-.486,3.427-1.085S22.721,11.331,20.831,11.331Z" fill="#ffce2a"/><path d="M17.4,12.416c0,.6,1.538,1.085,3.428,1.085v-2.17C18.941,11.331,17.4,11.818,17.4,12.416Z" fill="#fdeb95"/><circle cx="24" cy="24" r="8" fill="#1d9100"/><circle cx="24" cy="24" r="6.5" fill="#3faf2a"/><polygon points="28.5 23 25 23 25 19.5 23 19.5 23 23 19.5 23 19.5 25 23 25 23 28.5 25 28.5 25 25 28.5 25 28.5 23" fill="#f5f5f5"/></svg>