<svg xmlns="http://www.w3.org/2000/svg" viewBox="0 0 88 100"><title>gold</title><path d="M62.5,72.727v6.061h0c0,3.347-8.48,6.06-18.939,6.06h0l-3.788-6.06,3.788-6.061Z" fill="#ffce2a"/><path d="M24.621,72.727v6.061h0c0,3.347,8.48,6.06,18.939,6.06h0V72.727Z" fill="#fdeb95"/><path d="M62.5,66.667v6.06h0c0,3.348-8.48,6.061-18.939,6.061h0l-3.788-6.061,3.788-6.06Z" fill="#e68900"/><path d="M24.621,66.667v6.06h0c0,3.348,8.48,6.061,18.939,6.061h0V66.667Z" fill="#ffad00"/><path d="M62.5,60.606v6.061h0c0,3.347-8.48,6.06-18.939,6.06h0l-3.788-6.06,3.788-6.061Z" fill="#ffce2a"/><path d="M24.621,60.606v6.061h0c0,3.347,8.48,6.06,18.939,6.06h0V60.606Z" fill="#fdeb95"/><path d="M62.5,54.545v6.061h0c0,3.347-8.48,6.061-18.939,6.061h0l-3.788-6.061,3.788-6.061Z" fill="#e68900"/><path d="M24.621,54.545v6.061h0c0,3.347,8.48,6.061,18.939,6.061h0V54.545Z" fill="#ffad00"/><path d="M62.5,48.485v6.061h0c0,3.347-8.48,6.06-18.939,6.06h0l-3.788-6.061,3.788-6.06Z" fill="#ffce2a"/><path d="M24.621,48.485v6.061h0c0,3.347,8.48,6.06,18.939,6.06h0V48.485Z" fill="#fdeb95"/><path d="M62.5,42.424v6.061h0c0,3.347-8.48,6.06-18.939,6.06h0l-3.788-6.06,3.788-6.061Z" fill="#e68900"/><path d="M24.621,42.424v6.061h0c0,3.347,8.48,6.06,18.939,6.06h0V42.424Z" fill="#ffad00"/><path d="M62.5,36.364v6.06h0c0,3.347-8.48,6.061-18.939,6.061h0l-3.788-6.061,3.788-6.06Z" fill="#ffce2a"/><path d="M24.621,36.364v6.06h0c0,3.347,8.48,6.061,18.939,6.061h0V36.364Z" fill="#fdeb95"/><path d="M62.5,30.3v6.061h0c0,3.347-8.48,6.06-18.939,6.06h0l-3.788-6.06L43.561,30.3Z" fill="#e68900"/><path d="M24.621,30.3v6.061h0c0,3.347,8.48,6.06,18.939,6.06h0V30.3Z" fill="#ffad00"/><path d="M62.5,24.242V30.3h0c0,3.347-8.48,6.061-18.939,6.061h0L39.773,30.3l3.788-6.061Z" fill="#ffce2a"/><path d="M24.621,24.242V30.3h0c0,3.347,8.48,6.061,18.939,6.061h0V24.242Z" fill="#fdeb95"/><path d="M62.5,18.182v6.061h0c0,3.347-8.48,6.06-18.939,6.06h0l-3.788-6.061,3.788-6.06Z" fill="#e68900"/><path d="M24.621,18.182v6.061h0c0,3.347,8.48,6.06,18.939,6.06h0V18.182Z" fill="#ffad00"/><path d="M62.5,12.121v6.061h0c0,3.347-8.48,6.06-18.939,6.06h0l-3.788-6.06,3.788-6.061Z" fill="#ffce2a"/><path d="M24.621,12.121v6.061h0c0,3.347,8.48,6.06,18.939,6.06h0V12.121Z" fill="#fdeb95"/><path d="M62.5,6.061v6.06h0c0,3.347-8.48,6.061-18.939,6.061h0l-3.788-6.061,3.788-6.06Z" fill="#e68900"/><path d="M24.621,6.061v6.06h0c0,3.347,8.48,6.061,18.939,6.061h0V6.061Z" fill="#ffad00"/><path d="M43.561,0h0L39.773,6.061l3.788,6.06h0c10.459,0,18.939-2.713,18.939-6.06S54.021,0,43.561,0Z" fill="#ffad00"/><path d="M24.621,6.061c0,3.347,8.48,6.06,18.94,6.06V0C33.1,0,24.621,2.713,24.621,6.061Z" fill="#ffce2a"/><path d="M43.561,2.462h0l-3.788,3.6,3.787,3.6h0c6.267,0,11.364-1.614,11.364-3.6S49.827,2.462,43.561,2.462Z" fill="#ffce2a"/><path d="M32.2,6.061c0,1.984,5.1,3.6,11.364,3.6v-7.2C37.3,2.462,32.2,4.076,32.2,6.061Z" fill="#fdeb95"/><path d="M37.879,87.879V93.94h0c0,3.347-8.48,6.06-18.939,6.06h0l-3.787-6.061,3.787-6.06Z" fill="#e68900"/><path d="M0,87.879V93.94H0C0,97.287,8.48,100,18.939,100h0V87.879Z" fill="#ffad00"/><path d="M37.879,81.818v6.061h0c0,3.347-8.48,6.06-18.939,6.06h0l-3.787-6.06,3.787-6.061Z" fill="#ffce2a"/><path d="M0,81.818v6.061H0c0,3.347,8.48,6.06,18.939,6.06h0V81.818Z" fill="#fdeb95"/><path d="M37.879,75.758v6.06h0c0,3.347-8.48,6.061-18.939,6.061h0l-3.787-6.061,3.787-6.06Z" fill="#e68900"/><path d="M0,75.758v6.06H0c0,3.347,8.48,6.061,18.939,6.061h0V75.758Z" fill="#ffad00"/><path d="M37.879,69.7v6.061h0c0,3.347-8.48,6.06-18.939,6.06h0l-3.787-6.06L18.939,69.7Z" fill="#ffce2a"/><path d="M0,69.7v6.061H0c0,3.347,8.48,6.06,18.939,6.06h0V69.7Z" fill="#fdeb95"/><path d="M37.879,63.636V69.7h0c0,3.347-8.48,6.061-18.939,6.061h0L15.152,69.7l3.787-6.061Z" fill="#e68900"/><path d="M0,63.636V69.7H0c0,3.347,8.48,6.061,18.939,6.061h0V63.636Z" fill="#ffad00"/><path d="M37.879,57.576v6.061h0c0,3.347-8.48,6.06-18.939,6.06h0l-3.787-6.061,3.787-6.06Z" fill="#ffce2a"/><path d="M0,57.576v6.061H0c0,3.347,8.48,6.06,18.939,6.06h0V57.576Z" fill="#fdeb95"/><path d="M37.879,51.515v6.061h0c0,3.347-8.48,6.06-18.939,6.06h0l-3.787-6.06,3.787-6.061Z" fill="#e68900"/><path d="M0,51.515v6.061H0c0,3.347,8.48,6.06,18.939,6.06h0V51.515Z" fill="#ffad00"/><path d="M18.939,45.455h0l-3.787,6.06,3.787,6.061h0c10.46,0,18.94-2.714,18.94-6.061S29.4,45.455,18.939,45.455Z" fill="#ffad00"/><path d="M0,51.515c0,3.347,8.479,6.061,18.939,6.061V45.455C8.479,45.455,0,48.168,0,51.515Z" fill="#ffce2a"/><path d="M18.939,47.917h0l-3.788,3.6,3.788,3.6h0c6.266,0,11.364-1.615,11.364-3.6S25.205,47.917,18.939,47.917Z" fill="#ffce2a"/><path d="M7.576,51.515c0,1.984,5.1,3.6,11.363,3.6v-7.2C12.673,47.917,7.576,49.531,7.576,51.515Z" fill="#fdeb95"/><path d="M88,77.527v6.061h0c0,3.347-8.48,6.06-18.939,6.06h0l-3.788-6.06,3.788-6.061Z" fill="#e68900"/><path d="M50.121,77.527v6.061h0c0,3.347,8.48,6.06,18.939,6.06h0V77.527Z" fill="#ffad00"/><path d="M88,71.466v6.061h0c0,3.347-8.48,6.061-18.939,6.061h0l-3.788-6.061,3.788-6.061Z" fill="#ffce2a"/><path d="M50.121,71.466v6.061h0c0,3.347,8.48,6.061,18.939,6.061h0V71.466Z" fill="#fdeb95"/><path d="M88,65.406v6.061h0c0,3.347-8.48,6.06-18.939,6.06h0l-3.788-6.061,3.788-6.06Z" fill="#e68900"/><path d="M50.121,65.406v6.061h0c0,3.347,8.48,6.06,18.939,6.06h0V65.406Z" fill="#ffad00"/><path d="M88,59.345v6.061h0c0,3.347-8.48,6.06-18.939,6.06h0l-3.788-6.06,3.788-6.061Z" fill="#ffce2a"/><path d="M50.121,59.345v6.061h0c0,3.347,8.48,6.06,18.939,6.06h0V59.345Z" fill="#fdeb95"/><path d="M88,53.285v6.06h0c0,3.347-8.48,6.061-18.939,6.061h0l-3.788-6.061,3.788-6.06Z" fill="#e68900"/><path d="M50.121,53.285v6.06h0c0,3.347,8.48,6.061,18.939,6.061h0V53.285Z" fill="#ffad00"/><path d="M88,47.224v6.061h0c0,3.347-8.48,6.06-18.939,6.06h0l-3.788-6.06,3.788-6.061Z" fill="#ffce2a"/><path d="M50.121,47.224v6.061h0c0,3.347,8.48,6.06,18.939,6.06h0V47.224Z" fill="#fdeb95"/><path d="M88,41.163v6.061h0c0,3.347-8.48,6.061-18.939,6.061h0l-3.788-6.061,3.788-6.061Z" fill="#e68900"/><path d="M50.121,41.163v6.061h0c0,3.347,8.48,6.061,18.939,6.061h0V41.163Z" fill="#ffad00"/><path d="M69.061,35.1h0l-3.788,6.06,3.788,6.061h0C79.52,47.224,88,44.511,88,41.163S79.521,35.1,69.061,35.1Z" fill="#ffad00"/><path d="M50.121,41.163c0,3.347,8.48,6.061,18.94,6.061V35.1C58.6,35.1,50.121,37.816,50.121,41.163Z" fill="#ffce2a"/><path d="M69.061,37.565h0l-3.788,3.6,3.787,3.6h0c6.266,0,11.364-1.614,11.364-3.6S75.327,37.565,69.061,37.565Z" fill="#ffce2a"/><path d="M57.7,41.163c0,1.984,5.1,3.6,11.364,3.6v-7.2C62.8,37.565,57.7,39.179,57.7,41.163Z" fill="#fdeb95"/></svg>