<svg id="svg2" xmlns="http://www.w3.org/2000/svg" viewBox="0 0 43.824 43.743"><title>ign</title><path id="path3481" d="M9.828,13.936a52.31,52.31,0,0,0-5.867.956,19.35,19.35,0,0,1,10.96-10.94,51.861,51.861,0,0,0-.958,5.857A14.578,14.578,0,0,0,9.828,13.936ZM29.852,9.762a53.029,53.029,0,0,0-.986-5.824,19.349,19.349,0,0,1,11,10.954A52.292,52.292,0,0,0,34,13.936a14.576,14.576,0,0,0-4.139-4.13C29.855,9.791,29.855,9.777,29.852,9.762ZM13.963,33.933a51.823,51.823,0,0,0,.958,5.857A19.349,19.349,0,0,1,3.948,28.817a54.109,54.109,0,0,0,5.831.979l.047.007A14.582,14.582,0,0,0,13.963,33.933ZM34.046,29.8a53.765,53.765,0,0,0,5.83-.976A19.34,19.34,0,0,1,28.866,39.8a52.968,52.968,0,0,0,.986-5.821c0-.016,0-.031.006-.047A14.556,14.556,0,0,0,34,29.8Zm9.778-11.5v7.111c-3.367,1.554-8.387,2.175-10.082,2.371a6.152,6.152,0,0,1-1.16.114l-5.4-6.021,5.4-6.021a5.871,5.871,0,0,1,1,.092C35.316,16.127,40.42,16.723,43.824,18.3ZM11.245,15.85l5.4,6.021-5.4,6.021a6.146,6.146,0,0,1-1.161-.114C8.39,27.581,3.369,26.961,0,25.405V18.3c3.405-1.574,8.509-2.17,10.243-2.355A5.922,5.922,0,0,1,11.245,15.85Zm4.636,16.672,6.032-5.387,6.032,5.387a6.219,6.219,0,0,1-.115,1.158c-.2,1.69-.821,6.7-2.378,10.063H18.331c-1.577-3.4-2.173-8.493-2.359-10.224A5.954,5.954,0,0,1,15.881,32.522ZM18.331,0h7.121c1.557,3.363,2.182,8.374,2.378,10.065a6.193,6.193,0,0,1,.115,1.157L21.913,16.61l-6.032-5.388a5.963,5.963,0,0,1,.091-1C16.158,8.493,16.754,3.4,18.331,0Z" fill="#bf1313"/></svg>