<svg id="Layer_1" data-name="Layer 1" xmlns="http://www.w3.org/2000/svg" xmlns:xlink="http://www.w3.org/1999/xlink" viewBox="0 0 578.125 688.419"><defs><radialGradient id="radial-gradient" cx="488.372" cy="-270.163" r="195.085" gradientTransform="matrix(1.482, 0, 0, -0.397, -434.619, 503.805)" gradientUnits="userSpaceOnUse"><stop offset="0" stop-color="#3f2600" stop-opacity="0.6"/><stop offset="1" stop-color="#3f2600" stop-opacity="0"/></radialGradient><linearGradient id="linear-gradient" x1="788.651" y1="46.38" x2="788.917" y2="111.831" gradientTransform="matrix(-0.965, -0.013, 0.037, -2.557, 1198.041, 680.396)" gradientUnits="userSpaceOnUse"><stop offset="0" stop-color="#ffeed7"/><stop offset="1" stop-color="#bdbfc2"/></linearGradient><linearGradient id="linear-gradient-2" x1="336.836" y1="325.286" x2="330.904" y2="233.123" gradientTransform="matrix(1.413, -0.08, 0.041, -1.071, -194.722, 385.244)" gradientUnits="userSpaceOnUse"><stop offset="0" stop-color="#fff" stop-opacity="0.8"/><stop offset="1" stop-color="#fff" stop-opacity="0"/></linearGradient><linearGradient id="linear-gradient-3" x1="382.818" y1="199.118" x2="384.153" y2="233.804" gradientTransform="matrix(1.065, -0.062, -0.094, -1.644, -147.334, 513.093)" xlink:href="#linear-gradient"/><linearGradient id="linear-gradient-4" x1="689.338" y1="175.91" x2="688.502" y2="207.722" gradientTransform="matrix(-1.479, 0.04, -0.039, -1.902, 1346.729, 470.301)" xlink:href="#linear-gradient"/><linearGradient id="linear-gradient-5" x1="1126.812" y1="478.263" x2="1124.512" y2="438.174" gradientTransform="matrix(-0.392, -0.03, 0.057, -0.582, 730.257, 433.154)" gradientUnits="userSpaceOnUse"><stop offset="0" stop-color="#fff" stop-opacity="0.65"/><stop offset="1" stop-color="#fff" stop-opacity="0"/></linearGradient><linearGradient id="linear-gradient-6" x1="-31.854" y1="629.915" x2="-34.42" y2="590.872" gradientTransform="matrix(0.291, -0.033, -0.051, -0.488, 279.846, 431.636)" xlink:href="#linear-gradient-5"/><linearGradient id="linear-gradient-7" x1="417.305" y1="-47.096" x2="417.305" y2="87.672" gradientTransform="matrix(1.016, 0, 0, -1.538, -128.136, 477.591)" xlink:href="#linear-gradient"/><linearGradient id="linear-gradient-8" x1="360.576" y1="31.145" x2="362.888" y2="126.892" gradientTransform="matrix(0.903, -0.072, -0.157, -2.004, -134.964, 641.429)" xlink:href="#linear-gradient"/><linearGradient id="linear-gradient-9" x1="354.186" y1="40.327" x2="354.757" y2="-76" gradientTransform="matrix(1.399, 0, 0, -1.14, -211.244, 365.282)" xlink:href="#linear-gradient-2"/><linearGradient id="linear-gradient-10" x1="341.681" y1="136.248" x2="342.45" y2="83.033" gradientTransform="matrix(1.278, 0, 0, -0.991, -149.246, 371.137)" xlink:href="#linear-gradient-5"/><linearGradient id="linear-gradient-11" x1="307.921" y1="190.602" x2="307.921" y2="102.097" gradientTransform="matrix(0.715, 0, 0, -2.186, -74.913, 685.366)" xlink:href="#linear-gradient-5"/><linearGradient id="linear-gradient-12" x1="756.279" y1="199" x2="756.268" y2="118.9" gradientTransform="matrix(0.716, 0, 0, -2.183, -75.125, 684.195)" xlink:href="#linear-gradient-5"/><linearGradient id="linear-gradient-13" x1="242.822" y1="-132.111" x2="219.078" y2="-212.412" gradientTransform="matrix(1.264, 0, 0, -1.236, -171.98, 381.91)" gradientUnits="userSpaceOnUse"><stop offset="0" stop-color="#ffa63f"/><stop offset="1" stop-color="#ff0"/></linearGradient><linearGradient id="linear-gradient-14" x1="151.318" y1="-104.781" x2="49.395" y2="164.284" gradientTransform="matrix(0.637, 0.286, 0.225, -0.579, 382.053, 429.793)" xlink:href="#linear-gradient"/><linearGradient id="linear-gradient-15" x1="473.301" y1="-68.423" x2="458.31" y2="-175.972" gradientTransform="matrix(-1.18, 0.427, -0.471, -1.153, 952.732, 233.859)" xlink:href="#linear-gradient-13"/><linearGradient id="linear-gradient-16" x1="431.234" y1="55.686" x2="495.589" y2="-61.809" gradientTransform="matrix(-0.952, 0.346, -0.421, -0.949, 882.625, 332.287)" xlink:href="#linear-gradient-5"/><linearGradient id="linear-gradient-17" x1="200.842" y1="-1.851" x2="208.276" y2="-142.41" gradientTransform="matrix(1.004, -0.052, 0.017, -1.046, -72.791, 469.687)" xlink:href="#linear-gradient-5"/><linearGradient id="linear-gradient-18" x1="-201.991" y1="276.963" x2="-147.322" y2="168.346" gradientTransform="matrix(0.374, 0.159, 0.121, -0.322, 485.653, 548.022)" xlink:href="#linear-gradient-5"/><linearGradient id="linear-gradient-19" x1="329.682" y1="152.475" x2="330.455" y2="77.239" gradientTransform="matrix(1.523, 0, 0, -1.026, -217.703, 314.853)" xlink:href="#linear-gradient-13"/><linearGradient id="linear-gradient-20" x1="199.554" y1="433.224" x2="199.107" y2="349.519" gradientTransform="matrix(0.767, 0, 0, -0.487, 122.711, 362.373)" xlink:href="#linear-gradient-5"/></defs><title>linux</title><g id="g1369"><path id="path175" d="M578.125,611.005c.022,42.749-129.377,77.408-289.022,77.414S.022,653.775,0,611.026v-.021C-.022,568.256,129.378,533.6,289.023,533.59s289.08,34.644,289.1,77.393Z" fill="url(#radial-gradient)"/><path id="path106" d="M130.8,527.747c-27.985-40.279-33.442-171.23,31.859-251.788,32.357-38.647,40.612-65.581,43.164-101.741,1.736-41.224-29.157-164.3,87.353-173.68,118.008-9.415,111.67,107.075,110.992,168.719-.564,52.05,38.217,81.551,64.745,122.118,49.1,74.538,44.946,202.875-9.249,272.34-68.646,86.96-127.441,49.248-166.488,52.413C220.058,620.13,217.641,659.117,130.8,527.747Z"/><path id="path113" d="M415.848,298.993c20.266,18.655,73.01,102.624-10.393,154.864-29.4,18.192,26.214,87.879,52.918,54.124,47.125-60.6,17.072-157.1-11.2-191.68C427.979,291.789,398.625,282.291,415.848,298.993Z" fill="url(#linear-gradient)"/><path id="path111" d="M410.117,287.542c33.408,27,94.238,122.038,5.516,183.772-29.139,19.248,25.822,79.94,56.684,48.895,107.3-107.911-2.8-231.995-40.7-274.654C397.743,208.457,367.739,254.32,410.117,287.542Z" stroke="#000" stroke-width="0.977"/><path id="path114" d="M362.041,59.364c-1.183,30.947-35.235,57.905-76.058,60.211s-72.957-20.912-71.774-51.86V67.7c1.183-30.948,35.235-57.9,76.058-60.211S363.225,28.4,362.042,59.344Z" fill="url(#linear-gradient-2)"/><path id="path115" d="M264.282,132.978c1.158,20.118-8.467,37.04-21.5,37.8s-24.533-14.936-25.69-35.053v-.011c-1.158-20.117,8.467-37.04,21.5-37.8s24.532,14.936,25.69,35.053Z" fill="url(#linear-gradient-3)"/><path id="path116" d="M287.933,134.519c.473,23.275,15.52,41.746,33.609,41.255s32.37-19.758,31.9-43.033v-.013c-.473-23.275-15.52-41.746-33.609-41.255s-32.37,19.758-31.9,43.033Z" fill="url(#linear-gradient-4)"/><path id="path117" d="M302.919,139.781c-.274,12.776,6.17,23.15,14.393,23.169s15.112-10.322,15.386-23.1v-.007c.275-12.777-6.169-23.15-14.392-23.169S303.194,127,302.92,139.774Z"/><path id="path118" d="M250.794,139.916c1.032,10.576-2.945,19.737-8.882,20.46s-11.587-7.263-12.619-17.839v-.006c-1.032-10.576,2.945-19.737,8.882-20.461s11.587,7.264,12.619,17.84Z"/><path id="path121" d="M306.342,132.475c-.7,7.126,2.618,13.2,7.416,13.565s9.257-5.116,9.959-12.243v0c.7-7.126-2.618-13.2-7.416-13.565s-9.257,5.116-9.959,12.243Z" fill="url(#linear-gradient-5)"/><path id="path122" d="M245.769,134.308c.62,5.972-1.768,11.144-5.334,11.553s-6.957-4.1-7.577-10.073v0c-.62-5.972,1.768-11.145,5.333-11.553s6.958,4.1,7.577,10.073Z" fill="url(#linear-gradient-6)"/><path id="path128" d="M174.642,356c16.045-36.379,50.142-100.283,50.869-149.7,0-39.3,117.723-48.688,127.171-9.447s33.426,98.1,48.687,126.445,59.762,118.369,12.355,196.932c-42.7,69.555-172.156,124.583-241.262-9.446C149.208,464.28,153.356,406.645,174.642,356Z" fill="url(#linear-gradient-7)"/><path id="path112" d="M160.135,329.007c-13.71,25.948-42.238,94.193,27.293,131.531,74.848,39.641,74.488,121.226-15.351,82.408-82.133-35.088-45.823-176.869-22.852-210.792C164.287,308.394,186.876,279.311,160.135,329.007Z" fill="url(#linear-gradient-8)"/><path id="path109" d="M171.906,299.6C150.074,335.232,97.684,419.363,167.8,463c94.461,57.944,67.716,115.889-18.5,63.718C27.911,453.888,134.516,307.2,183.211,251.3,238.766,188.545,193.9,262.654,171.906,299.6Z" stroke="#000" stroke-width="1.25"/><path id="path125" d="M384.658,369.811c0,39.713-38.114,91.3-103.552,90.838-67.485.557-96.288-51.125-96.288-90.838s44.764-71.943,99.921-71.943S384.658,330.1,384.658,369.811Z" fill="url(#linear-gradient-9)"/><path id="path127" d="M349.049,244.822c-.726,41.16-27.51,50.869-61.4,50.869s-58.5-6.076-61.406-50.869c0-28.079,27.51-44.328,61.406-44.328S349.049,216.743,349.049,244.822Z" fill="url(#linear-gradient-10)"/><path id="path129" d="M144.121,308.04c22.145-33.745,68.768-85.455,8.721,7.267-48.689,76.3-18,125.341-2.18,138.8,45.659,40.7,43.707,67.937,7.994,46.508C81.624,454.83,97.612,377.8,144.121,308.04Z" fill="url(#linear-gradient-11)"/><path id="path131" d="M464.592,321.847c-19.149-39.627-80.168-139.878,2.907-23.254,75.576,105.371,22.528,178.766,13.08,186.034s-41.421,21.8-31.974-3.634S505.148,407.277,464.592,321.847Z" fill="url(#linear-gradient-12)"/><path id="path132" d="M127.408,633.6c-50.552-26.77-124.065,5.155-97.377-67.583,5.345-16.547-7.969-41.26.726-57.407,10.174-19.623,31.975-15.261,45.056-28.343,12.9-13.613,21.074-37.061,45.055-33.427s39.931,33.076,56.68,69.036c12.354,25.8,56.176,62.08,53.313,90.948C227.491,651.2,177.077,659.559,127.408,633.6Z" stroke="#e68c3f" stroke-width="6.25" fill="url(#linear-gradient-13)"/><path id="path177" d="M495.88,462.889c-7.766,14.565-39.785,37.677-61.123,31.653-21.773-5.909-31.579-38.865-27.315-63.807,3.958-28.089,27.314-29.485,56.6-15.63C495.534,430.442,505.056,443.586,495.88,462.889Z" fill="url(#linear-gradient-14)"/><path id="path133" d="M478.207,621.119c37.079-44.965,119.39-35.741,63.879-97.393-11.745-13.217-8.239-41.872-22.507-53.975-16.971-14.841-35.692-2.67-52.895-10.431C449.452,451,431.44,434.827,410.4,446.331s-23.3,41.431-25.282,80.609c-1.739,28.221-27.455,75.412-13.8,101.342C391.343,668.491,442.854,663.167,478.207,621.119Z" stroke="#e68c3f" stroke-width="6.251" fill="url(#linear-gradient-15)"/><path id="path134" d="M462.082,561.014c57.394-84.721,14.618-84.1.289-90.512-14.37-6.866-29.611-20.172-46.51-10.8S398,493.6,397.533,525.714c-.589,23.128-19.951,61.57-8.305,83.034C403.2,633.768,437.1,597.429,462.082,561.014Z" fill="url(#linear-gradient-16)"/><path id="path135" d="M115.659,573.213c-85.9-55.609-45.718-74.489-32.678-83.224,15.639-11.2,15.76-33.034,34.977-31s30.4,25.695,43.36,55.079c9.566,21.065,42.394,48.9,40.047,73.212C198.266,615.77,152.872,596.994,115.659,573.213Z" fill="url(#linear-gradient-17)"/><path id="path136" d="M490.727,462.1c-6.695,11.673-34.29,30.2-52.682,25.368-18.766-4.735-27.217-31.148-23.542-51.139,3.412-22.512,23.542-23.63,48.785-12.526C490.428,436.093,498.635,446.628,490.727,462.1Z"/><path id="path137" d="M472.236,455.56c-4.265,8.105-22.452,20.966-34.923,17.614-12.721-3.288-18.944-21.628-16.879-35.508,1.836-15.631,15.355-16.407,32.564-8.7C471.505,437.5,477.241,444.818,472.236,455.56Z" fill="url(#linear-gradient-18)"/><path id="path119" d="M238.707,160.858c8.934-8.463,31.014-33.833,72.451-7.194,7.7,5.013,13.953,5.471,28.776,11.819,29.658,12.186,15.478,41.574-15.93,51.385-13.447,4.361-25.67,20.695-50.161,19.3-20.917-1.222-26.4-14.843-39.247-22.383-22.837-12.889-26.207-30.317-13.875-39.566S237.877,161.644,238.707,160.858Z" stroke="#e68c3f" stroke-width="3.75" fill="url(#linear-gradient-19)"/><path id="path120" d="M340.328,184.5c-12.354.726-39.241,27.614-67.582,27.614s-45.055-26.162-49.415-26.162" fill="none" stroke="#e68c3f" stroke-width="2.5"/><path id="path123" d="M252.792,158.538c4.487-4.032,18.642-15.1,37.414-3.769,3.955,2.243,8.04,4.685,14.114,8.02,12.031,7,6.072,17.082-8.342,23.463-6.542,2.678-17.326,8.587-25.537,8.173-9.125-.838-15.028-6.79-21.076-10.666-11.095-7.328-10.421-13.245-5.268-18.172C247.993,162.2,252.375,158.913,252.792,158.538Z" fill="url(#linear-gradient-20)"/></g></svg>