<svg id="Layer_1" data-name="Layer 1" xmlns="http://www.w3.org/2000/svg" viewBox="0 0 112 52.137"><title>Mac_SVG</title><g id="_000000ff" data-name=" 000000ff"><path d="M3.66,0h4.1Q13,14.18,18.2,28.35C20.3,34.2,22.37,40.06,24.15,46a10.654,10.654,0,0,0,1.05-3c1.69-5.63,3.88-11.1,5.95-16.6q5-13.189,9.93-26.32H45.4q1.729,25.64,3.44,51.26H45.28c-.77-12.92-1.69-25.84-2.36-38.79-.16-2.8-.06-5.63-.22-8.43-1.3,3.18-2.2,6.49-3.37,9.71-4.49,12.57-9.36,25-14.07,37.51H22.75C20.55,45.18,18.3,39.07,16.1,33c-3-8.11-6-16.19-8.5-24.46C7.13,7,6.84,5.47,6.24,4c-.32,5.89-.42,11.77-.77,17.66-.6,9.86-1.3,19.73-2,29.59H0Q1.82,25.61,3.66,0Z" fill="#fff"/><path d="M55.87,17a18.919,18.919,0,0,1,13.24-2.86A10.679,10.679,0,0,1,76.4,18.8c1.62,2.55,2,5.64,2.19,8.6.06,5.31,0,10.59,0,15.9a43.986,43.986,0,0,0,.51,8H75.79c-.19-1.75-.35-3.53-.57-5.28a13.878,13.878,0,0,1-8,5.69c-3.66.86-7.92.54-10.85-2.07-3.5-3-4-8.46-2.19-12.53,1.49-3.25,4.64-5.41,8-6.59A39.088,39.088,0,0,1,75,28.73c-.1-3.18-.19-6.78-2.52-9.23a8,8,0,0,0-6-2.51A16.577,16.577,0,0,0,57,19.7c-.35-.9-.74-1.79-1.12-2.68m7.64,16.2c-2.67,1-5.31,2.83-6.11,5.69A9,9,0,0,0,58.2,46a6.49,6.49,0,0,0,4.29,2.89,10.89,10.89,0,0,0,9.13-2.42,10.107,10.107,0,0,0,3.44-7V31.73c-3.91.06-7.89.06-11.55,1.49Z" fill="#fff"/><path d="M97.43,14.64A20.422,20.422,0,0,1,112,16.1c-.45,1-.86,2-1.3,3a16.777,16.777,0,0,0-8.82-2.1,13.582,13.582,0,0,0-11.61,6.69,20.436,20.436,0,0,0-1.91,14.12,13.921,13.921,0,0,0,7.57,9.8,15.9,15.9,0,0,0,8.43,1.15A25.142,25.142,0,0,0,110.82,47c.32,1,.61,1.94.93,2.9a23.838,23.838,0,0,1-14,1.88,15.452,15.452,0,0,1-11.24-8.31,23.36,23.36,0,0,1-1.17-17A17.671,17.671,0,0,1,97.43,14.64Z" fill="#fff"/></g></svg>