<svg xmlns="http://www.w3.org/2000/svg" viewBox="0 0 40.35881 15.80176"><path d="M15.84621,15.66005H13.62058V4.13452h-.075L8.822,15.54057H7.02146L2.28955,4.13452h-.0778V15.66005H0V0H2.80914L7.87726,12.3591h.08892L13.02318,0h2.823Z" fill="#ffffff"/><path d="M18.2608,12.41467c0-2.00613,1.531-3.15646,4.354-3.33151L25.64347,8.897V8.03008c0-1.26981-.83635-1.96445-2.32289-1.96445a2.133,2.133,0,0,0-2.30066,1.5949H18.82485c.06668-2.03114,1.97556-3.50378,4.55964-3.50378,2.77857,0,4.59021,1.45319,4.59021,3.71218v7.79112H25.72961V13.78173H25.674a3.99917,3.99917,0,0,1-3.58159,1.9978C19.83625,15.77953,18.2608,14.43192,18.2608,12.41467Zm7.38267-1.00862v-.88081l-2.70355.17505c-1.51988.09725-2.31178.6613-2.31178,1.6477,0,.95583.82524,1.57545,2.11728,1.57545A2.65212,2.65212,0,0,0,25.64347,11.40605Z" fill="#ffffff"/><path d="M38.1026,8.21347a2.50576,2.50576,0,0,0-2.67021-2.10616c-1.7894,0-2.98419,1.51154-2.98419,3.865,0,2.43125,1.20313,3.87611,2.99531,3.87611a2.46574,2.46574,0,0,0,2.67021-2.03948h2.24509c-.2473,2.40625-2.17007,3.99282-4.92642,3.99282-3.24537,0-5.37376-2.21453-5.37376-5.82945,0-3.526,2.12839-5.81556,5.35153-5.81556,2.92029,0,4.73192,1.83386,4.9292,4.05672Z" fill="#ffffff"/></svg>