<svg id="Слой_1" data-name="Слой 1" xmlns="http://www.w3.org/2000/svg" viewBox="0 0 349.823 271.659"><title>magnavox-phillipsodyssey</title><path d="M84.805,150.28V263.708c0,5.715,2.236,7.95,7.95,7.95H150a2.651,2.651,0,0,0,2.65-2.649v-2.65c0-2.924-4.5-5.3-7.421-5.3H120.953a8.591,8.591,0,0,1-8.586-8.586v-31.59a8.593,8.593,0,0,1,8.586-8.588H150a2.651,2.651,0,0,0,2.65-2.649v-5.3A2.651,2.651,0,0,0,150,201.7H106.61a8.77,8.77,0,0,1-9.085-9.085V164.136a8.77,8.77,0,0,1,9.085-9.085H150a2.651,2.651,0,0,0,2.65-2.65v-7.42a2.652,2.652,0,0,0-2.65-2.65H92.755C87.041,142.329,84.805,144.566,84.805,150.28Z" fill="red"/><path d="M165.37,147.63v46.982s1.028,3.563,2.333,4.559c1.567,1.219,3.646,3.445,6.169,5.565,6.614,5.544,14.692,13.092,14.819,17.014v45.626a4.285,4.285,0,0,0,4.283,4.282h16.878a4.283,4.283,0,0,0,4.28-4.282V221.75c.129-3.922,8.207-11.47,14.82-17.014,2.522-2.12,4.6-4.347,6.17-5.565,1.3-1,2.332-4.559,2.332-4.559V147.63a5.3,5.3,0,0,0-10.6,0v39.223c0,6.763-25.441,23.322-25.441,23.322s-25.442-16.559-25.442-23.322V147.63a5.3,5.3,0,0,0-10.6,0Z" fill="red"/><path d="M0,202.754c0,5.82,3.719,9.54,9.54,9.54H49.822a7.43,7.43,0,0,1,7.421,7.422v33.922a7.429,7.429,0,0,1-7.421,7.42H32.861a7.429,7.429,0,0,1-7.42-7.42v-15.9a6.366,6.366,0,0,0-6.36-6.361H6.359A6.365,6.365,0,0,0,0,237.737v25.972c0,5.714,2.235,7.95,7.949,7.95H64.133c5.715,0,7.951-2.236,7.951-7.95V208.056h-.042c-.425-5.207-4.039-8.482-9.5-8.482h-42.4a7.43,7.43,0,0,1-7.42-7.42v-31.8a7.429,7.429,0,0,1,7.42-7.42h31.8a7.429,7.429,0,0,1,7.421,7.42v15.9a6.36,6.36,0,1,0,12.72,0V150.28c0-5.714-2.236-7.951-7.951-7.951H7.949C2.235,142.329,0,144.566,0,150.28Zm72.084,5.3s-.01.349-.042,0Z" fill="red"/><path d="M95.406,7.951V121.379c0,5.715,2.237,7.95,7.951,7.95h49.325a27.533,27.533,0,0,0,27.53-27.53V27.531A27.534,27.534,0,0,0,152.682,0H103.357C97.643,0,95.406,2.237,95.406,7.951Zm27.562,10.071a7.428,7.428,0,0,1,7.42-7.42h21.976a15.129,15.129,0,0,1,15.127,15.127V103.6a15.128,15.128,0,0,1-15.127,15.126H130.388a7.427,7.427,0,0,1-7.42-7.419Z" fill="red"/><path d="M0,7.951V121.379c0,5.715,2.237,7.95,7.95,7.95H74.735c5.713,0,7.95-2.235,7.95-7.95V7.951C82.685,2.237,80.448,0,74.735,0H7.95C2.237,0,0,2.237,0,7.951ZM12.721,20.142c0-5.82,3.721-9.541,9.541-9.541H60.425c5.82,0,9.541,3.721,9.541,9.541V53.078c-11.491.838-14.841,8.312-14.841,12.647v45.582a7.43,7.43,0,0,1-7.421,7.421H22.261c-5.819,0-9.541-3.72-9.541-9.541V20.142Z" fill="red"/><path d="M192.933,5.3V52.283s1.029,3.563,2.332,4.559c1.569,1.219,3.647,3.445,6.17,5.565,6.615,5.544,14.692,13.092,14.82,17.014v45.626a4.285,4.285,0,0,0,4.283,4.282h16.876a4.285,4.285,0,0,0,4.283-4.282V79.421c.127-3.922,8.2-11.47,14.82-17.014,2.522-2.12,4.6-4.347,6.169-5.565,1.3-1,2.332-4.559,2.332-4.559V5.3a5.3,5.3,0,1,0-10.6,0V44.524c0,6.763-25.441,23.322-25.441,23.322s-25.442-16.559-25.442-23.322V5.3a5.3,5.3,0,0,0-10.6,0Z" fill="red"/><path d="M277.739,60.425c0,5.82,3.72,9.54,9.541,9.54h40.282a7.429,7.429,0,0,1,7.42,7.422v33.922a7.427,7.427,0,0,1-7.42,7.419H310.6a7.427,7.427,0,0,1-7.42-7.419v-15.9a6.366,6.366,0,0,0-6.362-6.361H284.1a6.365,6.365,0,0,0-6.36,6.361V121.38c0,5.714,2.236,7.95,7.95,7.95h56.184c5.715,0,7.95-2.236,7.95-7.95V65.727h-.042c-.424-5.207-4.039-8.482-9.5-8.482h-42.4a7.428,7.428,0,0,1-7.42-7.42v-31.8a7.428,7.428,0,0,1,7.42-7.42h31.8a7.43,7.43,0,0,1,7.421,7.42v15.9a6.36,6.36,0,1,0,12.719,0V7.951c0-5.714-2.234-7.951-7.949-7.951H285.689c-5.714,0-7.95,2.237-7.95,7.951V60.425Zm72.084,5.3s-.011.349-.042,0Z" fill="red"/></svg>