<svg id="Layer_1" data-name="Layer 1" xmlns="http://www.w3.org/2000/svg" viewBox="0 0 112 98"><title>Master_system_SVG</title><path d="M0,33.786H14.8a10.93,10.93,0,1,0,.662-21.849c-.221-.007-.441-.007-.662,0l-3.8-.01a.56.56,0,0,1,0-1.11H25.729V6.207H11a5.17,5.17,0,0,0,0,10.34l3.859.05a6.26,6.26,0,1,1,.5,12.509q-.25.01-.5,0H0v4.68" fill="#0060a8"/><path d="M0,28.016H14.819a5.17,5.17,0,1,0,0-10.339H10.96A6.275,6.275,0,0,1,11,5.127H25.739V.467H11a10.92,10.92,0,0,0,0,21.84h3.819a.54.54,0,1,1,.147,1.07.6.6,0,0,1-.147,0H0V28" fill="#0060a8"/><path d="M37.239,29.136a4.649,4.649,0,0,1-4.67-4.629V9.687a4.64,4.64,0,0,1,4.67-4.58H53V.467H37.239a9.28,9.28,0,0,0-9.3,9.26V24.476a9.289,9.289,0,0,0,9.3,9.28H53v-4.63H37.239" fill="#0060a8"/><path d="M33.7,9.737a3.54,3.54,0,0,1,3.54-3.54H53v4.65H39.428a1.079,1.079,0,0,0-1.109,1.05v.03H49.678v4.63h-16V9.737" fill="#0060a8"/><path d="M37.239,28.006a3.529,3.529,0,0,1-3.54-3.52V17.657h16V22.3H38.319a1.088,1.088,0,0,0,1.089,1.09H53V28H37.239" fill="#0060a8"/><path d="M64.108,29.116a4.649,4.649,0,0,1-4.65-4.64V9.737a4.63,4.63,0,0,1,4.63-4.63h15.3V.467H64.058a9.28,9.28,0,0,0-9.3,9.26V24.476a9.319,9.319,0,0,0,9.33,9.28h15.3V11.927H66.247v4.63h8.5V29.116H64.108" fill="#0060a8"/><path d="M60.548,24.476a3.559,3.559,0,0,0,3.54,3.56h9.559V17.647h-7.39V22.3H69v1.09h-2.72a1.1,1.1,0,0,1-1.09-1.09V11.927a1.1,1.1,0,0,1,1.09-1.11H79.4V6.187H64.088a3.54,3.54,0,0,0-3.54,3.54h0V24.476" fill="#0060a8"/><path d="M93.766,6.127a1.51,1.51,0,0,1,2.86,0l7.43,21.939H93.176V22.927h3.64l-1.64-4.86L89.857,33.756h-5.48L93.766,6.127" fill="#0060a8"/><path d="M105.546,29.116H93.2v4.64H112l-9.78-28.929a7.489,7.489,0,0,0-14,0L78.3,33.756h4.92L92.8,5.627a2.594,2.594,0,0,1,4.78-.01l8,23.5" fill="#0060a8"/><g id="flowRoot6696"><path id="path6717" d="M69.217,96.85H44.538v-2.8c.89,0,2-.12,3.44-.27a8.618,8.618,0,0,0,2.89-.67,5.071,5.071,0,0,0,1.8-1.72,4.682,4.682,0,0,0,.57-2.4V48.342h-.59L33.589,95.99h-2L13.469,47.352H13V80.7a32.713,32.713,0,0,0,.61,7.369,6.8,6.8,0,0,0,1.87,3.62A8.9,8.9,0,0,0,19,93.26a20.933,20.933,0,0,0,3.54.79v2.8H0v-2.8a27.985,27.985,0,0,0,3.72-.59,7.191,7.191,0,0,0,3-1.3,5.745,5.745,0,0,0,1.89-3.38,39.4,39.4,0,0,0,.52-7.639V52.552a11.615,11.615,0,0,0-.6-4.06,6.278,6.278,0,0,0-1.69-2.56,7.689,7.689,0,0,0-3-1.57,15.039,15.039,0,0,0-3.51-.59v-2.78H19.409l16,41.9,13.659-35a33.172,33.172,0,0,0,1.28-4,17.537,17.537,0,0,0,.56-2.9H69.147v2.8a19.247,19.247,0,0,0-2.82.35,18.938,18.938,0,0,0-2.5.59A2.877,2.877,0,0,0,62,46.292a5.886,5.886,0,0,0-.47,2.4v40.3A5.1,5.1,0,0,0,62,91.3a3.992,3.992,0,0,0,1.83,1.69,9.08,9.08,0,0,0,2.519.73,20.54,20.54,0,0,0,2.87.37Z" fill="red"/><path id="path6729" d="M108.526,71.211a12.86,12.86,0,0,1,2.62,4.32,15.882,15.882,0,0,1,.85,5.46,15.551,15.551,0,0,1-5.47,12.209,19.869,19.869,0,0,1-13.59,4.79,25.264,25.264,0,0,1-7.479-1.16A28.87,28.87,0,0,1,79,93.99l-1.69,2.9h-3.15l-.55-19.139H76.8a41.4,41.4,0,0,0,2.3,6.4,22.128,22.128,0,0,0,3.49,5.33,15.786,15.786,0,0,0,4.78,3.71,13.994,13.994,0,0,0,6.359,1.37,14.412,14.412,0,0,0,4.74-.7,8.4,8.4,0,0,0,3.29-2,8.2,8.2,0,0,0,1.87-3,12.207,12.207,0,0,0,.61-4,11.194,11.194,0,0,0-1.89-6.239,11.615,11.615,0,0,0-5.63-4.39c-1.7-.69-3.66-1.44-5.869-2.27s-4.1-1.6-5.71-2.34a18.537,18.537,0,0,1-7.34-5.63,14.524,14.524,0,0,1-2.62-9,13.8,13.8,0,0,1,1.3-6,15.629,15.629,0,0,1,3.7-4.93,17,17,0,0,1,5.4-3.21,18.507,18.507,0,0,1,6.5-1.16,19.24,19.24,0,0,1,6.92,1.2,33.217,33.217,0,0,1,5.57,2.76l1.6-2.66h3.15l.32,18.549h-3.19a60.6,60.6,0,0,0-2-6.1,21.16,21.16,0,0,0-2.82-5.28,12.823,12.823,0,0,0-4.13-3.64,12.108,12.108,0,0,0-6-1.36,9.15,9.15,0,0,0-6.379,2.4,7.659,7.659,0,0,0-2.63,5.87,10.1,10.1,0,0,0,1.69,6,12.364,12.364,0,0,0,4.92,3.919,60.9,60.9,0,0,0,5.649,2.38q2.771,1,5.38,2.15a40.4,40.4,0,0,1,4.54,2.32,17.126,17.126,0,0,1,3.8,3Z" fill="red"/></g></svg>