<svg id="Mega_Drive" data-name="Mega Drive" xmlns="http://www.w3.org/2000/svg" xmlns:xlink="http://www.w3.org/1999/xlink" viewBox="0 0 428 396.167"><defs><linearGradient id="linear-gradient" x1="213.071" y1="101.834" x2="213.071" y2="-74.856" gradientTransform="translate(0 280.333)" gradientUnits="userSpaceOnUse"><stop offset="0.42" stop-color="#f7f8fb"/><stop offset="0.567" stop-color="#f7f8fb"/><stop offset="0.8" stop-color="#81a4da"/><stop offset="1" stop-color="#334f9b"/></linearGradient><linearGradient id="linear-gradient-2" x1="255.402" y1="50.172" x2="261.164" y2="160.171" gradientTransform="translate(0 280.333)" gradientUnits="userSpaceOnUse"><stop offset="0" stop-color="#39290a"/><stop offset="0.3" stop-color="#74572a" stop-opacity="0.7"/><stop offset="0.5" stop-color="#a48e61" stop-opacity="0.5"/><stop offset="1" stop-color="#a48e61" stop-opacity="0"/></linearGradient><linearGradient id="linear-gradient-3" x1="201.44" y1="81.252" x2="199.858" y2="103.866" gradientTransform="translate(0 280.333)" gradientUnits="userSpaceOnUse"><stop offset="0" stop-color="#39290a"/><stop offset="0.3" stop-color="#74572a" stop-opacity="0.7"/><stop offset="0.5" stop-color="#a48e61" stop-opacity="0.5"/><stop offset="1" stop-color="#a48e61" stop-opacity="0.1"/></linearGradient><linearGradient id="linear-gradient-4" x1="308.34" y1="75.661" x2="312.443" y2="98.928" xlink:href="#linear-gradient-3"/><linearGradient id="linear-gradient-5" x1="97.5" y1="71.129" x2="99.235" y2="130.88" gradientTransform="translate(0 280.333)" gradientUnits="userSpaceOnUse"><stop offset="0" stop-color="#39290a"/><stop offset="0.2" stop-color="#74572a" stop-opacity="0.8"/><stop offset="0.4" stop-color="#a48e61" stop-opacity="0.6"/><stop offset="1" stop-color="#a48e61" stop-opacity="0"/></linearGradient><linearGradient id="linear-gradient-6" x1="97.067" y1="81.454" x2="101.901" y2="134.558" xlink:href="#linear-gradient-5"/><linearGradient id="linear-gradient-7" x1="131.485" y1="-20.311" x2="131.485" y2="101.834" gradientTransform="translate(0 280.333)" gradientUnits="userSpaceOnUse"><stop offset="0" stop-opacity="0"/><stop offset="1"/></linearGradient><linearGradient id="linear-gradient-8" x1="213.068" y1="-89.643" x2="213.068" y2="-266.333" xlink:href="#linear-gradient"/><linearGradient id="linear-gradient-9" x1="383.924" y1="-180.038" x2="376.235" y2="-99.461" xlink:href="#linear-gradient-5"/><linearGradient id="linear-gradient-10" x1="379.5" y1="-169.668" x2="379.5" y2="-89.949" xlink:href="#linear-gradient-5"/><linearGradient id="linear-gradient-11" x1="379.118" y1="-108.347" x2="379.874" y2="-94.219" gradientTransform="translate(0 280.333)" gradientUnits="userSpaceOnUse"><stop offset="0" stop-color="#74572a"/><stop offset="1" stop-color="#74572a" stop-opacity="0"/></linearGradient><linearGradient id="linear-gradient-12" x1="382.218" y1="-113.979" x2="381.569" y2="-124.9" xlink:href="#linear-gradient-11"/><linearGradient id="linear-gradient-13" x1="376.676" y1="-141.732" x2="377.24" y2="-136.601" xlink:href="#linear-gradient-11"/><linearGradient id="linear-gradient-14" x1="381.479" y1="-141.651" x2="381.055" y2="-148.728" xlink:href="#linear-gradient-11"/><linearGradient id="linear-gradient-15" x1="215.4" y1="-179.853" x2="215.4" y2="-108.6" xlink:href="#linear-gradient-5"/><linearGradient id="linear-gradient-16" x1="215.399" y1="-172.005" x2="215.399" y2="-89.95" xlink:href="#linear-gradient-5"/><linearGradient id="linear-gradient-17" x1="208.62" y1="-148.637" x2="209.928" y2="-154.035" xlink:href="#linear-gradient-11"/><linearGradient id="linear-gradient-18" x1="220.326" y1="-147.566" x2="219.365" y2="-142.528" xlink:href="#linear-gradient-11"/><linearGradient id="linear-gradient-19" x1="215.658" y1="-101.421" x2="214.446" y2="-90.317" xlink:href="#linear-gradient-11"/><linearGradient id="linear-gradient-20" x1="210.076" y1="-105.109" x2="211.163" y2="-115.549" xlink:href="#linear-gradient-11"/><radialGradient id="radial-gradient" cx="15.698" cy="-333.13" fx="-22.55724486596914" fy="-286.23143129566466" r="61.028" gradientTransform="translate(0 374.051) scale(1 0.543)" xlink:href="#linear-gradient-11"/><linearGradient id="linear-gradient-21" x1="63.394" y1="-190.975" x2="37.798" y2="-100.683" xlink:href="#linear-gradient-5"/><linearGradient id="linear-gradient-22" x1="61.468" y1="-176.954" x2="38.193" y2="-94.851" xlink:href="#linear-gradient-5"/><linearGradient id="linear-gradient-23" x1="56.069" y1="-145.91" x2="54.885" y2="-141.118" xlink:href="#linear-gradient-11"/><linearGradient id="linear-gradient-24" x1="43.141" y1="-147.731" x2="44.703" y2="-153.237" xlink:href="#linear-gradient-11"/><linearGradient id="linear-gradient-25" x1="42.008" y1="-129.91" x2="44.335" y2="-139.827" xlink:href="#linear-gradient-11"/><linearGradient id="linear-gradient-26" x1="53.859" y1="-126.634" x2="51.544" y2="-117.264" xlink:href="#linear-gradient-11"/><linearGradient id="linear-gradient-27" x1="250.364" y1="-211.788" x2="250.364" y2="-89.643" xlink:href="#linear-gradient-7"/><linearGradient id="linear-gradient-28" x1="413.068" y1="-211.788" x2="413.068" y2="-89.643" xlink:href="#linear-gradient-7"/><linearGradient id="linear-gradient-29" x1="83.931" y1="-211.788" x2="83.931" y2="-89.643" xlink:href="#linear-gradient-7"/></defs><title>megadrive-7</title><path d="M364.169,208.042a56.034,56.034,0,0,0-39.49-16.421h-.128l-277,.073V396.167h263.2c21.6,0,39.367-6.589,51.386-19.055,12.152-12.6,18.314-30.464,18.314-53.086V246.833A54.978,54.978,0,0,0,364.169,208.042ZM277.337,326.68l-130.92,0V260.9H279.26v63.6C279.26,326.68,278.853,326.68,277.337,326.68Z"/><path d="M61.554,382.167h69V260.022h-69Zm262.033-176.69H61.554v41.212H364.587c-.5-22.136-18.753-41.212-41-41.212ZM293.26,260.022v65.735a14.964,14.964,0,0,1-14.918,14.918H145v41.492H314.235a50.5,50.5,0,0,0,50.352-50.35v-66.2a50.864,50.864,0,0,0-.321-5.6Z" fill="url(#linear-gradient)"/><path d="M146.869,349.378c63.714-2.8,156.8,13.209,165.19-16.628,31.924,1.343,34.187-3.419,54.39-5.9,0,32.944-19.58,55.322-53.923,55.322H146.869Z" fill="url(#linear-gradient-2)"/><path d="M230.552,364.451c-26.107-2.548-24.942-9.089-83.683-6.06v23.776H254.794V365.186A180,180,0,0,1,230.552,364.451Z" fill="url(#linear-gradient-3)"/><path d="M364.416,344.184c-24.039,2.739-39.924,7.043-62.3,13.274a202.714,202.714,0,0,1-47.32,7.728v16.981h57.732C340.43,382.167,358.587,367.394,364.416,344.184Z" fill="url(#linear-gradient-4)"/><path d="M366.449,324.026l-.342.043a148.122,148.122,0,0,0-16.16,2.959c-9,2.043-16.784,3.81-37.77,2.926a2.79,2.79,0,0,0-2.812,2.038c-5.332,18.967-54.292,17.128-101.642,15.35-20.693-.776-42.088-1.58-60.855-.763v5.6h.122c18.566-.814,39.9-.017,60.522.759,14.245.535,28.267,1.062,41.255,1.062,32.747,0,58.892-3.353,65.244-18.37,20.221.7,28.464-1.163,37.176-3.141a144.706,144.706,0,0,1,15.262-2.819Z"/><path d="M364.964,341.775l-.813.093c-23.743,2.706-39.281,6.835-62.662,13.345-25.071,6.978-47.536,9.18-70.711,6.918a153.029,153.029,0,0,1-18.5-3.021c-12.539-2.656-24.382-5.168-65.414-3.053v4.667l.12-.006c40.512-2.08,52.084.359,64.327,2.952a157.218,157.218,0,0,0,19.01,3.1c5.981.583,11.914.878,17.852.878,17.66,0,35.373-2.6,54.56-7.945,22.849-6.363,38.142-10.423,61.009-13.091Q364.446,344.257,364.964,341.775Z"/><polygon points="63.419 382.167 63.419 352.913 132.417 349.533 132.417 382.167 63.419 382.167" fill="url(#linear-gradient-5)"/><polygon points="63.419 382.167 63.419 366.565 132.417 360.1 132.417 382.167 63.419 382.167" fill="url(#linear-gradient-6)"/><path d="M132.417,357.457h-.086c-5.414.2-17.211,1.559-30.871,3.131-12.737,1.467-27.155,3.127-38.041,4.006v4.679l.188-.015c10.985-.883,25.542-2.559,38.385-4.037,12.935-1.49,25.149-2.9,30.425-3.1Z"/><rect x="130.552" y="260.022" width="1.865" height="122.145" fill="url(#linear-gradient-7)"/><path d="M103.622,353.709c11.534-.732,21.507-1.359,28.709-1.148h.086v-5.594c-7.473-.224-17.518.418-29.15,1.158-12.386.787-26.4,1.634-39.839,1.639h-.009v5.594h.9C77.636,355.367,91.426,354.485,103.622,353.709Z"/><path d="M63.105,260.955V382.167h1V261.455h66.447v-1H63.605A.5.5,0,0,0,63.105,260.955Z" fill="#fff"/><path d="M64.105,246.689v-39.78H325.634a39.216,39.216,0,0,1,24.2,8.62,40.7,40.7,0,0,0-17.046-8.929,38.1,38.1,0,0,0-7.155-.691H63.605a.5.5,0,0,0-.5.5v40.28Z" fill="#fff"/><path d="M147.556,342.107H280.387a15.436,15.436,0,0,0,15.418-15.418V261.455h68.582c-.029-.333-.051-.668-.085-1H295.307a.5.5,0,0,0-.5.5v65.734a14.434,14.434,0,0,1-14.42,14.418H147.056a.5.5,0,0,0-.5.5v40.56h1Z" fill="#fff"/><path d="M411.722,16.421A56.032,56.032,0,0,0,372.233,0H0V204.69H98.862V69.212h64.774V204.69H265.3V69.212h63.84V204.69H428V55.212A54.972,54.972,0,0,0,411.722,16.421Z"/><path d="M14,68.545H83V190.69H14ZM177.636,190.69h71.8V68.545h-71.8Zm165.5,0h69V68.545h-69Zm28-176.69H14V55.212H412.135c-.5-22.136-18.75-41.212-41-41.212Z" fill="url(#linear-gradient-8)"/><path d="M407.939,109.726c-27.506,8.548.933-18.181-41.025-7.132,0,0-5.129,1.126-21.912-.016V190.69h69v-81.7A17.493,17.493,0,0,0,407.939,109.726Z" fill="url(#linear-gradient-9)"/><path d="M345,110.737V190.69h69V116.564C377.636,122.974,398.848,109.571,345,110.737Z" fill="url(#linear-gradient-10)"/><polygon points="345.002 172.741 345.002 190.69 414 190.69 414 167.613 345.002 172.741" fill="url(#linear-gradient-11)"/><polygon points="345.002 172.741 345.002 68.545 414 68.545 414 167.613 345.002 172.741" fill="url(#linear-gradient-12)"/><path d="M345,142.759c29.256-3.57,49.651-7.2,69-4.87v52.8H345Z" fill="url(#linear-gradient-13)"/><path d="M345,142.759V68.545h69v69.344C391.385,135.834,380.55,138.418,345,142.759Z" fill="url(#linear-gradient-14)"/><path d="M414,106.187a19.588,19.588,0,0,0-6.891.867c-9.717,3.022-10.232,1.448-11.163-1.407-2.645-8.119-8.167-11.439-29.609-5.79-.05.011-5.247,1.007-21.144-.069L345,99.775v5.6c16.543,1.116,21.95.069,22.624-.081,20.558-5.412,21.857-1.433,23,2.081,1.386,4.253,3.439,6.846,8.569,6.844a33.914,33.914,0,0,0,9.66-1.856,14.8,14.8,0,0,1,4.95-.59l.194.014Z"/><path d="M414,114.748l-.373.061c-20.215,3.279-23.327,1.353-27.267-1.088-3.287-2.034-7.378-4.567-19.291-5.332-13.97-.937-20.462-.264-22.067-.047v4.72l.4-.067c.058-.009,6.042-.98,21.367.045,10.756.692,14.148,2.792,17.141,4.646,3.307,2.047,6.226,3.531,13.04,3.531a111.818,111.818,0,0,0,17.055-1.75Z"/><path d="M414,136.951c-16.749-2.1-33.471.307-48.23,2.431-7.386,1.063-14.361,2.064-20.768,2.442v1.869h.055c6.5-.378,13.532-1.391,20.978-2.462,14.676-2.11,31.309-4.5,47.848-2.413l.117.015Z" fill="#39290a"/><path d="M345,167.735c35.9-2.764,44.445-6.882,69-3.753v9.011c-34.965-1.029-58.807,3.351-69,4.445Z" fill="#39290a"/><path d="M179.5,101.879V190.69h71.8V100.48C230.785,103.355,199.315,99.781,179.5,101.879Z" fill="url(#linear-gradient-15)"/><polygon points="179.501 109.605 179.501 190.69 251.296 190.69 251.296 108.328 179.501 109.605" fill="url(#linear-gradient-16)"/><polygon points="179.501 126.063 251.296 138.899 251.296 68.545 179.501 68.545 179.501 126.063" fill="url(#linear-gradient-17)"/><polygon points="179.501 126.51 179.501 190.69 251.296 190.69 251.296 138.899 179.501 126.51" fill="url(#linear-gradient-18)"/><polygon points="179.501 171.887 179.501 190.69 251.296 190.69 251.296 179.657 179.501 171.887" fill="url(#linear-gradient-19)"/><polygon points="179.501 171.887 179.501 68.545 251.296 68.545 251.296 179.657 179.501 171.887" fill="url(#linear-gradient-20)"/><path d="M251.3,97.868l-.022-.158c-10.842,1.506-25.018,1.2-38.732.907-12.165-.26-23.655-.5-33.041.425v5.615c9.141-.95,20.692-.7,32.922-.445,13.632.29,27.7.581,38.873-.876Z"/><path d="M251.3,105.763h-.068c-6.26.184-12.021.577-18.122.994-14.542.991-29.576,2.018-53.44.332l-.165-.012v4.674c9.289.652,17.252.9,24.37.9,11.341,0,20.542-.628,29.553-1.244,6.031-.411,11.73-.8,17.872-.984Z"/><path d="M179.5,125.109v1.907c2.1.441,22.528,4.663,71.643,12.8l.152.026v-1.89c-51.545-8.548-71.4-12.763-71.6-12.8Z" fill="#39290a"/><path d="M179.5,169.3c44.678,6.4,49.107,7.331,71.8,5.785v8.15c-27.584.234-37.762-.077-71.8-7.679Z" fill="#39290a"/><rect x="15.865" y="68.545" width="67.133" height="122.145" fill="url(#radial-gradient)"/><path d="M84.862,97.683c-55.244-4.9,14.453-12.354-69-17.716V190.69h69Z" fill="url(#linear-gradient-21)"/><path d="M84.862,108.056c-55.244-4.111-29.836-18.384-69-13.636v96.27h69Z" fill="url(#linear-gradient-22)"/><path d="M15.865,124.331s53.147,11.412,69,21.4V190.69h-69Z" fill="url(#linear-gradient-23)"/><path d="M15.865,124.331V68.545h69v77.189S60.737,133.381,15.865,124.331Z" fill="url(#linear-gradient-24)"/><polygon points="84.862 68.545 15.865 68.545 15.865 145.002 84.862 161.086 84.862 68.545" fill="url(#linear-gradient-25)"/><polygon points="15.865 145.002 15.865 190.69 84.862 190.69 84.862 161.086 15.865 145.002" fill="url(#linear-gradient-26)"/><path d="M84.862,94.873c-17.3-1.548-20.677-3.308-21.323-3.932.009-.155.044-.4.071-.588a5.947,5.947,0,0,0-1.089-4.939c-2.281-2.8-7.748-5.751-46.477-8.238l-.179-.012v5.607C50.5,85,57.249,87.6,58.142,88.838a4.556,4.556,0,0,1-.071.728,5.758,5.758,0,0,0,1.007,4.766c2.041,2.573,7.025,4.5,25.538,6.137l.246.022Z"/><path d="M84.862,105.833c-27.587-2.258-36.29-7.073-42.646-10.588-6.327-3.5-10.541-5.819-26.351-3.116v4.728l.4-.07c14.536-2.533,17.789-.734,23.7,2.535,6.741,3.731,15.974,8.841,44.715,11.174l.188.015Z"/><path d="M15.865,125.28c3.028.585,44.881,8.8,68.563,21.279l.434.229v-2.1C60.085,131.8,16.478,123.5,16.037,123.415l-.172-.032Z" fill="#39290a"/><path d="M15.865,142.006c49.941,9.174,30.594,8.532,69,16.157v6.261c-42.263-12.153-44.638-12.778-69-17.7Z" fill="#39290a"/><rect x="249.431" y="68.545" width="1.865" height="122.145" fill="url(#linear-gradient-27)"/><rect x="412.135" y="68.545" width="1.865" height="122.145" fill="url(#linear-gradient-28)"/><rect x="82.998" y="68.545" width="1.865" height="122.145" fill="url(#linear-gradient-29)"/><path d="M344.685,69.478V190.69h1V69.978h66.45v-1h-66.95A.5.5,0,0,0,344.685,69.478Z" fill="#fff"/><path d="M179.185,69.478V190.69h1V69.978h69.244v-1H179.685A.5.5,0,0,0,179.185,69.478Z" fill="#fff"/><path d="M16.551,55.212V15.433H373.185a39.228,39.228,0,0,1,24.207,8.624,40.708,40.708,0,0,0-17.043-8.931,38.192,38.192,0,0,0-7.164-.693H16.051a.5.5,0,0,0-.5.5V55.212Z" fill="#fff"/><path d="M15.551,69.478V190.69h1V69.978H83v-1H16.051A.5.5,0,0,0,15.551,69.478Z" fill="#fff"/></svg>