<svg id="Mega_Drive" data-name="Mega Drive" xmlns="http://www.w3.org/2000/svg" xmlns:xlink="http://www.w3.org/1999/xlink" viewBox="0 0 400.005 375"><defs><linearGradient id="linear-gradient" x1="199.069" y1="-1" x2="199.069" y2="175.69" gradientTransform="matrix(1, 0, 0, -1, 0, 374)" gradientUnits="userSpaceOnUse"><stop offset="0.42" stop-color="#f7f8fb"/><stop offset="0.567" stop-color="#f7f8fb"/><stop offset="0.8" stop-color="#81a4da"/><stop offset="1" stop-color="#334f9b"/></linearGradient><linearGradient id="linear-gradient-2" x1="241.4" y1="50.661" x2="247.162" y2="-59.338" gradientTransform="matrix(1, 0, 0, -1, 0, 374)" gradientUnits="userSpaceOnUse"><stop offset="0" stop-color="#39290a"/><stop offset="0.3" stop-color="#74572a" stop-opacity="0.7"/><stop offset="0.5" stop-color="#a48e61" stop-opacity="0.5"/><stop offset="1" stop-color="#a48e61" stop-opacity="0"/></linearGradient><linearGradient id="linear-gradient-3" x1="187.438" y1="19.581" x2="185.856" y2="-3.033" gradientTransform="matrix(1, 0, 0, -1, 0, 374)" gradientUnits="userSpaceOnUse"><stop offset="0" stop-color="#39290a"/><stop offset="0.3" stop-color="#74572a" stop-opacity="0.7"/><stop offset="0.5" stop-color="#a48e61" stop-opacity="0.5"/><stop offset="1" stop-color="#a48e61" stop-opacity="0.1"/></linearGradient><linearGradient id="linear-gradient-4" x1="294.338" y1="25.172" x2="298.441" y2="1.905" xlink:href="#linear-gradient-3"/><linearGradient id="linear-gradient-5" x1="83.498" y1="29.704" x2="85.233" y2="-30.047" gradientTransform="matrix(1, 0, 0, -1, 0, 374)" gradientUnits="userSpaceOnUse"><stop offset="0" stop-color="#39290a"/><stop offset="0.2" stop-color="#74572a" stop-opacity="0.8"/><stop offset="0.4" stop-color="#a48e61" stop-opacity="0.6"/><stop offset="1" stop-color="#a48e61" stop-opacity="0"/></linearGradient><linearGradient id="linear-gradient-6" x1="83.065" y1="19.379" x2="87.899" y2="-33.725" xlink:href="#linear-gradient-5"/><linearGradient id="linear-gradient-7" x1="117.482" y1="121.145" x2="117.482" y2="-1" gradientTransform="matrix(1, 0, 0, -1, 0, 374)" gradientUnits="userSpaceOnUse"><stop offset="0" stop-opacity="0"/><stop offset="1"/></linearGradient><linearGradient id="linear-gradient-8" x1="199.068" y1="197.31" x2="199.068" y2="374" xlink:href="#linear-gradient"/><linearGradient id="linear-gradient-9" x1="369.924" y1="287.705" x2="362.235" y2="207.128" xlink:href="#linear-gradient-5"/><linearGradient id="linear-gradient-10" x1="365.502" y1="277.335" x2="365.502" y2="197.616" xlink:href="#linear-gradient-5"/><linearGradient id="linear-gradient-11" x1="365.118" y1="216.014" x2="365.874" y2="201.886" gradientTransform="matrix(1, 0, 0, -1, 0, 374)" gradientUnits="userSpaceOnUse"><stop offset="0" stop-color="#74572a"/><stop offset="1" stop-color="#74572a" stop-opacity="0"/></linearGradient><linearGradient id="linear-gradient-12" x1="368.217" y1="221.646" x2="367.568" y2="232.567" xlink:href="#linear-gradient-11"/><linearGradient id="linear-gradient-13" x1="362.678" y1="249.399" x2="363.242" y2="244.268" xlink:href="#linear-gradient-11"/><linearGradient id="linear-gradient-14" x1="367.481" y1="249.318" x2="367.057" y2="256.395" xlink:href="#linear-gradient-11"/><linearGradient id="linear-gradient-15" x1="201.401" y1="287.52" x2="201.401" y2="216.267" xlink:href="#linear-gradient-5"/><linearGradient id="linear-gradient-16" x1="201.398" y1="279.672" x2="201.398" y2="197.617" xlink:href="#linear-gradient-5"/><linearGradient id="linear-gradient-17" x1="194.62" y1="256.303" x2="195.928" y2="261.701" xlink:href="#linear-gradient-11"/><linearGradient id="linear-gradient-18" x1="206.326" y1="255.233" x2="205.365" y2="250.195" xlink:href="#linear-gradient-11"/><linearGradient id="linear-gradient-19" x1="201.658" y1="209.088" x2="200.446" y2="197.984" xlink:href="#linear-gradient-11"/><linearGradient id="linear-gradient-20" x1="196.076" y1="212.776" x2="197.163" y2="223.216" xlink:href="#linear-gradient-11"/><radialGradient id="radial-gradient" cx="1.698" cy="325.355" fx="-36.55726374494702" fy="372.25358858622053" r="61.028" gradientTransform="matrix(1, 0, 0, -0.543, 0, 355.829)" xlink:href="#linear-gradient-11"/><linearGradient id="linear-gradient-21" x1="49.394" y1="298.641" x2="23.798" y2="208.349" xlink:href="#linear-gradient-5"/><linearGradient id="linear-gradient-22" x1="47.468" y1="284.62" x2="24.193" y2="202.517" xlink:href="#linear-gradient-5"/><linearGradient id="linear-gradient-23" x1="42.069" y1="253.577" x2="40.885" y2="248.785" xlink:href="#linear-gradient-11"/><linearGradient id="linear-gradient-24" x1="29.141" y1="255.398" x2="30.703" y2="260.904" xlink:href="#linear-gradient-11"/><linearGradient id="linear-gradient-25" x1="28.008" y1="237.577" x2="30.335" y2="247.494" xlink:href="#linear-gradient-11"/><linearGradient id="linear-gradient-26" x1="39.859" y1="234.301" x2="37.544" y2="224.931" xlink:href="#linear-gradient-11"/><linearGradient id="linear-gradient-27" x1="236.364" y1="319.455" x2="236.364" y2="197.31" xlink:href="#linear-gradient-7"/><linearGradient id="linear-gradient-28" x1="399.067" y1="319.455" x2="399.067" y2="197.31" xlink:href="#linear-gradient-7"/><linearGradient id="linear-gradient-29" x1="69.931" y1="319.455" x2="69.931" y2="197.31" xlink:href="#linear-gradient-7"/></defs><title>megadrive 1-2</title><path d="M47.552,375h69V252.855h-69ZM309.585,198.31H47.552v41.212H350.585C350.085,217.386,331.832,198.31,309.585,198.31Zm-30.327,54.545V318.59a14.962,14.962,0,0,1-14.918,14.918H131V375H300.233a50.5,50.5,0,0,0,50.352-50.35v-66.2a50.3,50.3,0,0,0-.321-5.595Z" fill="url(#linear-gradient)"/><path d="M132.867,342.211c63.714-2.8,156.8,13.209,165.19-16.628,31.924,1.343,34.188-3.419,54.39-5.905,0,32.944-19.58,55.322-53.923,55.322H132.867Z" fill="url(#linear-gradient-2)"/><path d="M216.55,357.284c-26.107-2.548-24.942-9.089-83.683-6.06V375H240.792V358.019A179.84,179.84,0,0,1,216.55,357.284Z" fill="url(#linear-gradient-3)"/><path d="M350.414,337.017c-24.039,2.739-39.924,7.043-62.3,13.274a202.6,202.6,0,0,1-47.32,7.728V375h57.732C326.428,375,344.585,360.227,350.414,337.017Z" fill="url(#linear-gradient-4)"/><path d="M352.447,316.859l-.342.043a148.362,148.362,0,0,0-16.16,2.959c-9,2.043-16.784,3.81-37.77,2.926a2.792,2.792,0,0,0-2.812,2.038c-5.332,18.967-54.292,17.128-101.642,15.35-20.693-.776-42.087-1.58-60.854-.763v5.6h.122c18.566-.814,39.9-.017,60.522.759,14.245.535,28.266,1.062,41.254,1.062,32.748,0,58.892-3.353,65.244-18.37,20.221.7,28.464-1.163,37.176-3.141a144.706,144.706,0,0,1,15.262-2.819Z"/><path d="M350.962,334.608l-.813.093c-23.743,2.706-39.281,6.835-62.662,13.345-25.071,6.978-47.536,9.18-70.711,6.918a153.029,153.029,0,0,1-18.5-3.021c-12.539-2.656-24.382-5.168-65.414-3.053v4.667l.12-.006c40.512-2.08,52.084.359,64.327,2.952a157.022,157.022,0,0,0,19.01,3.1c5.981.583,11.914.878,17.852.878,17.66,0,35.373-2.6,54.56-7.945,22.849-6.363,38.142-10.423,61.009-13.091Q350.444,337.09,350.962,334.608Z"/><polygon points="49.417 375 49.417 345.746 118.415 342.366 118.415 375 49.417 375" fill="url(#linear-gradient-5)"/><polygon points="49.417 375 49.417 359.398 118.415 352.933 118.415 375 49.417 375" fill="url(#linear-gradient-6)"/><path d="M118.415,350.29h-.086c-5.414.2-17.211,1.559-30.871,3.131-12.737,1.467-27.155,3.127-38.041,4.006v4.679l.188-.015c10.985-.883,25.542-2.559,38.385-4.037,12.935-1.49,25.149-2.9,30.425-3.1Z"/><rect x="116.55" y="252.855" width="1.865" height="122.145" fill="url(#linear-gradient-7)"/><path d="M89.62,346.542c11.534-.732,21.507-1.359,28.709-1.148h.086V339.8c-7.473-.224-17.518.418-29.15,1.158-12.386.787-26.4,1.634-39.839,1.639h-.009v5.594h.9C63.634,348.2,77.424,347.318,89.62,346.542Z"/><path d="M49.1,253.788V375h1V254.288H116.55v-1H49.6A.5.5,0,0,0,49.1,253.788Z" fill="#fff"/><path d="M50.1,239.522v-39.78H311.632a39.216,39.216,0,0,1,24.2,8.62,40.7,40.7,0,0,0-17.046-8.929,38.186,38.186,0,0,0-7.155-.691H49.6a.5.5,0,0,0-.5.5v40.28Z" fill="#fff"/><path d="M133.554,334.94H266.385A15.435,15.435,0,0,0,281.8,319.522V254.288h68.582c-.028-.333-.051-.668-.085-1H281.305a.5.5,0,0,0-.5.5v65.734a14.434,14.434,0,0,1-14.42,14.418H133.054a.5.5,0,0,0-.5.5V375h1Z" fill="#fff"/><path d="M0,54.545H69V176.69H0ZM163.636,176.69h71.8V54.545h-71.8Zm165.5,0h69V54.545h-69ZM357.136,0H0V41.212H398.135c-.5-22.136-18.75-41.212-41-41.212Z" fill="url(#linear-gradient-8)"/><path d="M393.939,95.726c-27.506,8.548.933-18.181-41.025-7.132,0,0-5.129,1.126-21.912-.016V176.69h69V94.99A17.493,17.493,0,0,0,393.939,95.726Z" fill="url(#linear-gradient-9)"/><path d="M331,96.737V176.69h69V102.564C363.636,108.974,384.848,95.571,331,96.737Z" fill="url(#linear-gradient-10)"/><polygon points="331.002 158.741 331.002 176.69 400 176.69 400 153.613 331.002 158.741" fill="url(#linear-gradient-11)"/><polygon points="331.002 158.741 331.002 54.545 400 54.545 400 153.613 331.002 158.741" fill="url(#linear-gradient-12)"/><path d="M331,128.759c29.256-3.57,49.651-7.2,69-4.87v52.8H331Z" fill="url(#linear-gradient-13)"/><path d="M331,128.759V54.545h69v69.344C377.385,121.834,366.55,124.418,331,128.759Z" fill="url(#linear-gradient-14)"/><path d="M400,92.187a19.588,19.588,0,0,0-6.891.867c-9.717,3.022-10.232,1.448-11.163-1.407-2.645-8.119-8.167-11.439-29.609-5.79-.05.011-5.247,1.007-21.144-.069L331,85.775v5.6c16.543,1.116,21.95.069,22.624-.081,20.558-5.412,21.857-1.433,23,2.081,1.386,4.253,3.439,6.846,8.569,6.844a33.914,33.914,0,0,0,9.66-1.856,14.793,14.793,0,0,1,4.95-.59l.194.014Z"/><path d="M400,100.748l-.373.061c-20.215,3.279-23.327,1.353-27.267-1.088-3.287-2.034-7.378-4.567-19.291-5.332-13.97-.937-20.462-.264-22.067-.047v4.72l.4-.067c.058-.009,6.042-.98,21.367.045,10.756.692,14.148,2.792,17.141,4.646,3.307,2.047,6.226,3.531,13.04,3.531a111.818,111.818,0,0,0,17.055-1.75Z"/><path d="M400,122.951c-16.749-2.1-33.471.307-48.23,2.431-7.386,1.063-14.361,2.064-20.768,2.442v1.869h.055c6.5-.378,13.532-1.391,20.978-2.462,14.676-2.11,31.309-4.5,47.848-2.413l.117.015Z" fill="#39290a"/><path d="M331,153.735c35.9-2.764,44.445-6.882,69-3.753v9.011c-34.965-1.029-58.807,3.351-69,4.445Z" fill="#39290a"/><path d="M165.5,87.879V176.69h71.8V86.48C216.785,89.355,185.315,85.781,165.5,87.879Z" fill="url(#linear-gradient-15)"/><polygon points="165.501 95.605 165.501 176.69 237.296 176.69 237.296 94.328 165.501 95.605" fill="url(#linear-gradient-16)"/><polygon points="165.501 112.063 237.296 124.899 237.296 54.545 165.501 54.545 165.501 112.063" fill="url(#linear-gradient-17)"/><polygon points="165.501 112.51 165.501 176.69 237.296 176.69 237.296 124.899 165.501 112.51" fill="url(#linear-gradient-18)"/><polygon points="165.501 157.887 165.501 176.69 237.296 176.69 237.296 165.657 165.501 157.887" fill="url(#linear-gradient-19)"/><polygon points="165.501 157.887 165.501 54.545 237.296 54.545 237.296 165.657 165.501 157.887" fill="url(#linear-gradient-20)"/><path d="M237.3,83.868l-.022-.158c-10.842,1.506-25.018,1.2-38.732.907-12.165-.26-23.655-.5-33.041.425v5.615c9.141-.95,20.692-.7,32.922-.445,13.632.29,27.7.581,38.873-.876Z"/><path d="M237.3,91.763h-.068c-6.26.184-12.021.577-18.122.994-14.542.991-29.576,2.018-53.44.332l-.165-.012v4.674c9.289.652,17.252.9,24.37.9,11.341,0,20.542-.628,29.553-1.244,6.031-.411,11.73-.8,17.872-.984Z"/><path d="M165.5,111.109v1.907c2.1.441,22.528,4.663,71.643,12.8l.152.026v-1.89c-51.545-8.548-71.4-12.763-71.6-12.8Z" fill="#39290a"/><path d="M165.5,155.3c44.678,6.4,49.107,7.331,71.8,5.785v8.15c-27.584.234-37.762-.077-71.8-7.679Z" fill="#39290a"/><rect x="1.865" y="54.545" width="67.133" height="122.145" fill="url(#radial-gradient)"/><path d="M70.862,83.683c-55.244-4.9,14.453-12.354-69-17.716V176.69h69Z" fill="url(#linear-gradient-21)"/><path d="M70.862,94.056c-55.244-4.111-29.836-18.384-69-13.636v96.27h69Z" fill="url(#linear-gradient-22)"/><path d="M1.865,110.331s53.147,11.412,69,21.4V176.69h-69Z" fill="url(#linear-gradient-23)"/><path d="M1.865,110.331V54.545h69v77.189S46.737,119.381,1.865,110.331Z" fill="url(#linear-gradient-24)"/><polygon points="70.862 54.545 1.865 54.545 1.865 131.002 70.862 147.086 70.862 54.545" fill="url(#linear-gradient-25)"/><polygon points="1.865 131.002 1.865 176.69 70.862 176.69 70.862 147.086 1.865 131.002" fill="url(#linear-gradient-26)"/><path d="M70.862,80.873c-17.3-1.548-20.677-3.308-21.323-3.932.009-.155.044-.4.071-.588a5.947,5.947,0,0,0-1.089-4.939c-2.281-2.8-7.748-5.751-46.477-8.238l-.179-.012v5.607C36.5,71,43.249,73.6,44.142,74.838a4.556,4.556,0,0,1-.071.728,5.759,5.759,0,0,0,1.007,4.766c2.041,2.573,7.025,4.5,25.538,6.137l.246.022Z"/><path d="M70.862,91.833c-27.587-2.258-36.29-7.073-42.646-10.588-6.327-3.5-10.541-5.819-26.351-3.116v4.728l.4-.07c14.536-2.533,17.789-.734,23.7,2.535C32.706,89.053,41.939,94.163,70.68,96.5l.188.015Z"/><path d="M1.865,111.28c3.028.585,44.881,8.8,68.563,21.279l.434.229v-2.1C46.085,117.8,2.478,109.5,2.037,109.415l-.172-.032Z" fill="#39290a"/><path d="M1.865,128.006c49.941,9.174,30.594,8.532,69,16.157v6.261c-42.263-12.153-44.638-12.778-69-17.7Z" fill="#39290a"/><rect x="235.431" y="54.545" width="1.865" height="122.145" fill="url(#linear-gradient-27)"/><rect x="398.135" y="54.545" width="1.865" height="122.145" fill="url(#linear-gradient-28)"/><rect x="68.998" y="54.545" width="1.865" height="122.145" fill="url(#linear-gradient-29)"/><path d="M330.685,55.478V176.69h1V55.978h66.45v-1h-66.95A.5.5,0,0,0,330.685,55.478Z" fill="#fff"/><path d="M165.185,55.478V176.69h1V55.978h69.244v-1H165.685A.5.5,0,0,0,165.185,55.478Z" fill="#fff"/><path d="M2.551,41.212V1.433H359.185a39.225,39.225,0,0,1,24.207,8.624,40.708,40.708,0,0,0-17.043-8.931,38.108,38.108,0,0,0-7.164-.693H2.051a.5.5,0,0,0-.5.5V41.212Z" fill="#fff"/><path d="M1.551,55.478V176.69h1V55.978H69v-1H2.051A.5.5,0,0,0,1.551,55.478Z" fill="#fff"/></svg>