<svg id="Mega_Drive" data-name="Mega Drive" xmlns="http://www.w3.org/2000/svg" xmlns:xlink="http://www.w3.org/1999/xlink" viewBox="0 0 440 281.524"><defs><linearGradient id="linear-gradient" x1="337.75" y1="18.476" x2="337.75" y2="113.226" gradientTransform="matrix(1, 0, 0, -1, 0, 282)" gradientUnits="userSpaceOnUse"><stop offset="0.42" stop-color="#f7f8fb"/><stop offset="0.567" stop-color="#f7f8fb"/><stop offset="0.8" stop-color="#81a4da"/><stop offset="1" stop-color="#334f9b"/></linearGradient><linearGradient id="linear-gradient-2" x1="360.451" y1="46.179" x2="363.54" y2="-12.808" gradientTransform="matrix(1, 0, 0, -1, 0, 282)" gradientUnits="userSpaceOnUse"><stop offset="0" stop-color="#39290a"/><stop offset="0.3" stop-color="#74572a" stop-opacity="0.7"/><stop offset="0.5" stop-color="#a48e61" stop-opacity="0.5"/><stop offset="1" stop-color="#a48e61" stop-opacity="0"/></linearGradient><linearGradient id="linear-gradient-3" x1="331.513" y1="29.513" x2="330.665" y2="17.386" gradientTransform="matrix(1, 0, 0, -1, 0, 282)" gradientUnits="userSpaceOnUse"><stop offset="0" stop-color="#39290a"/><stop offset="0.3" stop-color="#74572a" stop-opacity="0.7"/><stop offset="0.5" stop-color="#a48e61" stop-opacity="0.5"/><stop offset="1" stop-color="#a48e61" stop-opacity="0.1"/></linearGradient><linearGradient id="linear-gradient-4" x1="388.839" y1="32.511" x2="391.039" y2="20.034" xlink:href="#linear-gradient-3"/><linearGradient id="linear-gradient-5" x1="275.776" y1="34.941" x2="276.706" y2="2.9" gradientTransform="matrix(1, 0, 0, -1, 0, 282)" gradientUnits="userSpaceOnUse"><stop offset="0" stop-color="#39290a"/><stop offset="0.2" stop-color="#74572a" stop-opacity="0.8"/><stop offset="0.4" stop-color="#a48e61" stop-opacity="0.6"/><stop offset="1" stop-color="#a48e61" stop-opacity="0"/></linearGradient><linearGradient id="linear-gradient-6" x1="275.544" y1="29.404" x2="278.136" y2="0.927" xlink:href="#linear-gradient-5"/><linearGradient id="linear-gradient-7" x1="294" y1="83.976" x2="294" y2="18.476" gradientTransform="matrix(1, 0, 0, -1, 0, 282)" gradientUnits="userSpaceOnUse"><stop offset="0" stop-opacity="0"/><stop offset="1"/></linearGradient><linearGradient id="linear-gradient-8" x1="126.75" y1="18.476" x2="126.75" y2="113.226" xlink:href="#linear-gradient"/><linearGradient id="linear-gradient-9" x1="218.371" y1="66.951" x2="214.248" y2="23.741" xlink:href="#linear-gradient-5"/><linearGradient id="linear-gradient-10" x1="216" y1="61.39" x2="216" y2="18.641" xlink:href="#linear-gradient-5"/><linearGradient id="linear-gradient-11" x1="215.794" y1="28.506" x2="216.2" y2="20.93" gradientTransform="matrix(1, 0, 0, -1, 0, 282)" gradientUnits="userSpaceOnUse"><stop offset="0" stop-color="#74572a"/><stop offset="1" stop-color="#74572a" stop-opacity="0"/></linearGradient><linearGradient id="linear-gradient-12" x1="217.457" y1="31.526" x2="217.109" y2="37.382" xlink:href="#linear-gradient-11"/><linearGradient id="linear-gradient-13" x1="214.488" y1="46.408" x2="214.79" y2="43.657" xlink:href="#linear-gradient-11"/><linearGradient id="linear-gradient-14" x1="217.064" y1="46.365" x2="216.836" y2="50.16" xlink:href="#linear-gradient-11"/><linearGradient id="linear-gradient-15" x1="128" y1="66.851" x2="128" y2="28.642" xlink:href="#linear-gradient-5"/><linearGradient id="linear-gradient-16" x1="128" y1="62.643" x2="128" y2="18.641" xlink:href="#linear-gradient-5"/><linearGradient id="linear-gradient-17" x1="124.367" y1="50.111" x2="125.068" y2="53.006" xlink:href="#linear-gradient-11"/><linearGradient id="linear-gradient-18" x1="130.645" y1="49.537" x2="130.129" y2="46.835" xlink:href="#linear-gradient-11"/><linearGradient id="linear-gradient-19" x1="128.139" y1="24.792" x2="127.489" y2="18.837" xlink:href="#linear-gradient-11"/><linearGradient id="linear-gradient-20" x1="125.145" y1="26.77" x2="125.728" y2="32.368" xlink:href="#linear-gradient-11"/><radialGradient id="radial-gradient" cx="20.91" cy="93.774" fx="0.3962217489334279" fy="118.92311955299837" r="32.726" gradientTransform="matrix(1, 0, 0, -0.543, 0, 315.821)" xlink:href="#linear-gradient-11"/><linearGradient id="linear-gradient-21" x1="46.488" y1="72.815" x2="32.762" y2="24.396" xlink:href="#linear-gradient-5"/><linearGradient id="linear-gradient-22" x1="45.455" y1="65.296" x2="32.974" y2="21.268" xlink:href="#linear-gradient-5"/><linearGradient id="linear-gradient-23" x1="42.559" y1="48.65" x2="41.924" y2="46.08" xlink:href="#linear-gradient-11"/><linearGradient id="linear-gradient-24" x1="35.624" y1="49.627" x2="36.462" y2="52.579" xlink:href="#linear-gradient-11"/><linearGradient id="linear-gradient-25" x1="35.019" y1="40.069" x2="36.267" y2="45.387" xlink:href="#linear-gradient-11"/><linearGradient id="linear-gradient-26" x1="41.374" y1="38.313" x2="40.133" y2="33.288" xlink:href="#linear-gradient-11"/><linearGradient id="linear-gradient-27" x1="146.75" y1="83.976" x2="146.75" y2="18.476" xlink:href="#linear-gradient-7"/><linearGradient id="linear-gradient-28" x1="234" y1="83.976" x2="234" y2="18.476" xlink:href="#linear-gradient-7"/><linearGradient id="linear-gradient-29" x1="57.5" y1="83.976" x2="57.5" y2="18.476" xlink:href="#linear-gradient-7"/><linearGradient id="linear-gradient-30" x1="257.6" y1="50.976" x2="293.5" y2="50.976" gradientTransform="matrix(1, 0, 0, -1, 0, 282)" gradientUnits="userSpaceOnUse"><stop offset="0.42" stop-color="#f7f8fb" stop-opacity="0"/><stop offset="0.644" stop-color="#f7f8fb" stop-opacity="0"/></linearGradient><linearGradient id="linear-gradient-31" x1="302.35" y1="50.976" x2="419" y2="50.976" xlink:href="#linear-gradient-30"/><linearGradient id="linear-gradient-32" x1="257.6" y1="101.926" x2="419" y2="101.926" xlink:href="#linear-gradient-30"/><linearGradient id="linear-gradient-33" x1="197.6" y1="50.976" x2="233.5" y2="50.976" xlink:href="#linear-gradient-30"/><linearGradient id="linear-gradient-34" x1="108.85" y1="50.976" x2="146.25" y2="50.976" xlink:href="#linear-gradient-30"/><linearGradient id="linear-gradient-35" x1="21.1" y1="101.926" x2="233.5" y2="101.926" xlink:href="#linear-gradient-30"/><linearGradient id="linear-gradient-36" x1="21.1" y1="50.976" x2="57" y2="50.976" xlink:href="#linear-gradient-30"/></defs><title>megadrive -2</title><rect y="150.774" width="440" height="130.75" rx="16" ry="16"/><path d="M256.5,263.524h37v-65.5h-37Zm140.513-94.75H256.5v22.1H419c-.269-11.874-10.055-22.1-21.987-22.1Zm-16.263,29.25v35.25a8.024,8.024,0,0,1-8,8h-71.5v22.25H392a27.078,27.078,0,0,0,27-27v-35.5a27.1,27.1,0,0,0-.172-3Z" fill="url(#linear-gradient)"/><path d="M302.25,245.941c34.167-1.5,84.083,7.083,88.583-8.917,17.119.72,18.334-1.833,29.167-3.167,0,17.667-10.5,29.667-28.917,29.667H302.25Z" fill="url(#linear-gradient-2)"/><path d="M347.125,254.024c-14-1.366-13.375-4.874-44.875-3.25v12.75h57.875v-9.106A96.454,96.454,0,0,1,347.125,254.024Z" fill="url(#linear-gradient-3)"/><path d="M418.91,243.155c-12.892,1.469-21.409,3.777-33.41,7.119a108.632,108.632,0,0,1-25.375,4.144v9.106h30.958C406.047,263.524,415.784,255.6,418.91,243.155Z" fill="url(#linear-gradient-4)"/><path d="M420,232.346l-.184.023a79.334,79.334,0,0,0-8.666,1.587c-4.828,1.095-9,2.043-20.254,1.569a1.5,1.5,0,0,0-1.507,1.093c-2.86,10.171-29.115,9.184-54.506,8.231-11.1-.416-22.569-.847-32.633-.409v3h.065c9.956-.436,21.395-.009,32.456.407,7.638.287,15.157.57,22.122.57,17.561,0,31.581-1.8,34.987-9.851,10.844.377,15.264-.624,19.935-1.685A77.564,77.564,0,0,1,420,235.37Z"/><path d="M419.2,241.864l-.435.05c-12.733,1.451-21.065,3.665-33.6,7.156-13.444,3.742-25.491,4.923-37.919,3.71a82.115,82.115,0,0,1-9.918-1.62c-6.724-1.425-13.075-2.772-35.078-1.637v2.5h.064c21.725-1.115,27.93.192,34.5,1.583A84.115,84.115,0,0,0,347,255.268c3.207.313,6.389.471,9.573.471a107.664,107.664,0,0,0,29.258-4.261c12.252-3.412,20.454-5.589,32.716-7.02Q418.927,243.2,419.2,241.864Z"/><polygon points="257.5 263.524 257.5 247.837 294.5 246.024 294.5 263.524 257.5 263.524" fill="url(#linear-gradient-5)"/><polygon points="257.5 263.524 257.5 255.157 294.5 251.691 294.5 263.524 257.5 263.524" fill="url(#linear-gradient-6)"/><path d="M278.868,245.27c-6.641.422-14.154.876-21.363.879h0v3h.48c7.144,0,14.539-.471,21.079-.887,6.185-.392,11.533-.728,15.395-.615l1.5.046.091-3-1.5-.045C290.534,244.526,285.129,244.872,278.868,245.27Z"/><path d="M294.5,250.273h-.046c-2.9.107-9.229.836-16.555,1.679-6.83.786-14.562,1.677-20.4,2.148v2.509l.1-.008c5.89-.474,13.7-1.372,20.584-2.165,6.936-.8,13.486-1.553,16.315-1.663Z"/><rect x="293.5" y="198.024" width="1" height="65.5" fill="url(#linear-gradient-7)"/><path d="M20,198.024H57v65.5H20Zm87.75,65.5h38.5v-65.5h-38.5Zm88.75,0h37v-65.5h-37Zm15.013-94.75H20v22.1H233.5c-.269-11.874-10.055-22.1-21.987-22.1Z" fill="url(#linear-gradient-8)"/><path d="M231.25,220.107c-14.75,4.584.5-9.75-22-3.824,0,0-2.75.6-11.75-.009v47.25h37V219.712A9.382,9.382,0,0,0,231.25,220.107Z" fill="url(#linear-gradient-9)"/><path d="M197.5,220.649v42.875h37v-39.75C215,227.212,226.375,220.024,197.5,220.649Z" fill="url(#linear-gradient-10)"/><polygon points="197.5 253.899 197.5 263.524 234.5 263.524 234.5 251.149 197.5 253.899" fill="url(#linear-gradient-11)"/><polygon points="197.5 253.899 197.5 198.024 234.5 198.024 234.5 251.149 197.5 253.899" fill="url(#linear-gradient-12)"/><path d="M197.5,237.821c15.689-1.914,26.625-3.863,37-2.611v28.314h-37Z" fill="url(#linear-gradient-13)"/><path d="M197.5,237.821v-39.8h37V235.21C222.375,234.107,216.563,235.493,197.5,237.821Z" fill="url(#linear-gradient-14)"/><path d="M234.5,218.209a10.553,10.553,0,0,0-3.695.465c-5.211,1.621-5.487.777-5.986-.754-1.419-4.354-4.38-6.134-15.878-3.1-.027.006-2.814.54-11.339-.037l-.1-.007v3.006c8.871.6,11.771.037,12.132-.044,11.024-2.9,11.721-.769,12.334,1.116.743,2.28,1.845,3.671,4.6,3.67a18.138,18.138,0,0,0,5.18-1,7.937,7.937,0,0,1,2.654-.316l.1.007Z"/><path d="M234.5,222.8l-.2.033c-10.84,1.758-12.509.725-14.622-.583-1.762-1.091-3.956-2.45-10.345-2.86a63.812,63.812,0,0,0-11.833-.025V221.9l.212-.036c.031,0,3.24-.525,11.458.024,5.768.371,7.587,1.5,9.192,2.492a11.3,11.3,0,0,0,6.992,1.893,59.98,59.98,0,0,0,9.146-.938Z"/><path d="M234.5,234.707c-8.982-1.124-17.949.164-25.863,1.3-3.961.57-7.7,1.107-11.137,1.31v1h.029c3.486-.2,7.257-.746,11.25-1.32,7.87-1.132,16.789-2.415,25.659-1.294l.062.008Z" fill="#39290a"/><path d="M197.5,251.214c19.25-1.482,23.833-3.69,37-2.012v4.832c-18.75-.552-31.535,1.8-37,2.384Z" fill="#39290a"/><path d="M108.75,215.9v47.625h38.5V215.149C136.25,216.691,119.375,214.774,108.75,215.9Z" fill="url(#linear-gradient-15)"/><polygon points="108.75 220.042 108.75 263.524 147.25 263.524 147.25 219.357 108.75 220.042" fill="url(#linear-gradient-16)"/><polygon points="108.75 228.868 147.25 235.751 147.25 198.024 108.75 198.024 108.75 228.868" fill="url(#linear-gradient-17)"/><polygon points="108.75 229.107 108.75 263.524 147.25 263.524 147.25 235.751 108.75 229.107" fill="url(#linear-gradient-18)"/><polygon points="108.75 253.441 108.75 263.524 147.25 263.524 147.25 257.607 108.75 253.441" fill="url(#linear-gradient-19)"/><polygon points="108.75 253.441 108.75 198.024 147.25 198.024 147.25 257.607 108.75 253.441" fill="url(#linear-gradient-20)"/><path d="M147.25,213.748l-.012-.084c-5.814.807-13.416.645-20.77.486a159.65,159.65,0,0,0-17.718.228v3.011a154.049,154.049,0,0,1,17.654-.239c7.311.156,14.855.312,20.846-.469Z"/><path d="M147.25,217.982h-.037c-3.357.1-6.446.31-9.717.533a183.768,183.768,0,0,1-28.658.178l-.088-.006v2.506c4.981.35,9.251.483,13.068.483,6.082,0,11.016-.337,15.848-.667,3.234-.22,6.29-.429,9.584-.528Z"/><path d="M108.75,228.356v1.023c1.126.236,12.081,2.5,38.418,6.866l.082.013v-1.013c-27.641-4.584-38.291-6.844-38.4-6.866Z" fill="#39290a"/><path d="M108.75,252.051c23.958,3.431,26.333,3.931,38.5,3.1v4.371c-14.792.125-20.25-.042-38.5-4.118Z" fill="#39290a"/><rect x="21" y="198.024" width="36" height="65.5" fill="url(#radial-gradient)"/><path d="M58,213.649c-29.625-2.625,7.75-6.625-37-9.5v59.375H58Z" fill="url(#linear-gradient-21)"/><path d="M58,219.212c-29.625-2.2-16-9.859-37-7.313v51.625H58Z" fill="url(#linear-gradient-22)"/><path d="M21,227.939s28.5,6.12,37,11.477v24.108H21Z" fill="url(#linear-gradient-23)"/><path d="M21,227.939V198.024H58v41.392S45.063,232.792,21,227.939Z" fill="url(#linear-gradient-24)"/><polygon points="58 198.024 21 198.024 21 239.024 58 247.649 58 198.024" fill="url(#linear-gradient-25)"/><polygon points="21 239.024 21 263.524 58 263.524 58 247.649 21 239.024" fill="url(#linear-gradient-26)"/><path d="M58,212.142c-9.28-.83-11.088-1.774-11.435-2.108.005-.083.024-.214.039-.316a3.189,3.189,0,0,0-.584-2.648c-1.224-1.5-4.155-3.084-24.924-4.418l-.1-.006v3.006c18.571,1.2,22.192,2.591,22.671,3.254a2.43,2.43,0,0,1-.038.39,3.089,3.089,0,0,0,.54,2.556c1.1,1.38,3.767,2.411,13.7,3.291l.132.012Z"/><path d="M58,218.019c-14.794-1.21-19.461-3.792-22.869-5.678-3.393-1.878-5.653-3.12-14.131-1.67v2.535l.214-.037c7.8-1.359,9.539-.394,12.706,1.359,3.616,2,8.567,4.741,23.979,5.992l.1.008Z"/><path d="M21,228.448c1.624.313,24.067,4.721,36.767,11.411l.233.123v-1.126c-13.288-6.911-36.671-11.363-36.908-11.408L21,227.43Z" fill="#39290a"/><path d="M21,237.417c26.781,4.92,16.406,4.576,37,8.664v3.358c-22.664-6.517-23.937-6.852-37-9.492Z" fill="#39290a"/><rect x="146.25" y="198.024" width="1" height="65.5" fill="url(#linear-gradient-27)"/><rect x="233.5" y="198.024" width="1" height="65.5" fill="url(#linear-gradient-28)"/><rect x="57" y="198.024" width="1" height="65.5" fill="url(#linear-gradient-29)"/><rect x="257.6" y="198.524" width="35.9" height="65" fill="url(#linear-gradient-30)"/><rect x="257.6" y="198.524" width="35.9" height="65" fill="none" stroke="#fff" stroke-linecap="round" stroke-linejoin="round"/><path d="M419,236.524v-35.5c0-.844-.051-1.676-.129-2.5H381.85v35.25a8.024,8.024,0,0,1-8,8h-71.5v21.75H392A27.078,27.078,0,0,0,419,236.524Z" fill="url(#linear-gradient-31)"/><path d="M419,236.524v-35.5c0-.844-.051-1.676-.129-2.5H381.85v35.25a8.024,8.024,0,0,1-8,8h-71.5v21.75H392A27.078,27.078,0,0,0,419,236.524Z" fill="none" stroke="#fff" stroke-linecap="round" stroke-linejoin="round"/><path d="M257.6,190.874H419a23.024,23.024,0,0,0-12.743-19.934,20.854,20.854,0,0,0-8.144-1.666H257.6Z" fill="url(#linear-gradient-32)"/><path d="M257.6,190.874H419a23.024,23.024,0,0,0-12.743-19.934,20.854,20.854,0,0,0-8.144-1.666H257.6Z" fill="none" stroke="#fff" stroke-linecap="round" stroke-linejoin="round"/><rect x="197.6" y="198.524" width="35.9" height="65" fill="url(#linear-gradient-33)"/><rect x="197.6" y="198.524" width="35.9" height="65" fill="none" stroke="#fff" stroke-linecap="round" stroke-linejoin="round"/><rect x="108.85" y="198.524" width="37.4" height="65" fill="url(#linear-gradient-34)"/><rect x="108.85" y="198.524" width="37.4" height="65" fill="none" stroke="#fff" stroke-linecap="round" stroke-linejoin="round"/><path d="M21.1,190.874H233.5a23.024,23.024,0,0,0-12.743-19.934,20.854,20.854,0,0,0-8.144-1.666H21.1Z" fill="url(#linear-gradient-35)"/><path d="M21.1,190.874H233.5a23.024,23.024,0,0,0-12.743-19.934,20.854,20.854,0,0,0-8.144-1.666H21.1Z" fill="none" stroke="#fff" stroke-linecap="round" stroke-linejoin="round"/><rect x="21.1" y="198.524" width="35.9" height="65" fill="url(#linear-gradient-36)"/><rect x="21.1" y="198.524" width="35.9" height="65" fill="none" stroke="#fff" stroke-linecap="round" stroke-linejoin="round"/><path d="M0,132.739H58.143a42.939,42.939,0,1,0,3.627-85.8l-.217-.009c-.267-.011-.536-.02-.809-.025-.869-.027-1.733-.027-2.6,0l-14.929-.039a2.2,2.2,0,0,1,0-4.361h57.864V24.393H43.214a20.311,20.311,0,0,0,0,40.622l15.161.2a24.593,24.593,0,1,1,2.589,49.118c-.208.011-.417.019-.625.025q-.983.039-1.964,0H0v18.385" fill="#0060a8"/><path d="M0,110.072H58.218a20.311,20.311,0,0,0,.565-40.618H43.057a24.652,24.652,0,1,1-.451-49.3c.2,0,.405,0,.608,0h57.9V1.843h-57.9a42.9,42.9,0,0,0,0,85.8h15a2.122,2.122,0,0,1,.577,4.2,2.321,2.321,0,0,1-.577,0H0v18.162" fill="#0060a8"/><path d="M146.3,114.472A18.264,18.264,0,0,1,127.95,96.3V38.065A18.228,18.228,0,0,1,146.3,20.072h61.918V1.843H146.3a36.458,36.458,0,0,0-36.54,36.376v0h0V96.164a36.494,36.494,0,0,0,36.528,36.458h61.926v-18.19H146.3" fill="#0060a8"/><path d="M132.393,38.261A13.907,13.907,0,0,1,146.3,24.354h61.914V42.622H154.9a4.24,4.24,0,0,0-4.357,4.118v.125h44.625V65.054H132.306V38.261" fill="#0060a8"/><path d="M146.3,110.032a13.863,13.863,0,0,1-13.907-13.819h0V69.376H195.25v18.24H150.539a4.274,4.274,0,0,0,4.266,4.282h53.409v18.111H146.3" fill="#0060a8"/><path d="M251.853,114.393a18.264,18.264,0,0,1-18.268-18.229v-57.9a18.191,18.191,0,0,1,18.189-18.189h60.107V1.843H251.656a36.457,36.457,0,0,0-36.535,36.379h0V96.164a36.61,36.61,0,0,0,36.653,36.458h60.107V46.865H260.256V65.054h33.393v49.339h-41.8" fill="#0060a8"/><path d="M237.867,96.164a13.982,13.982,0,0,0,13.907,13.986h37.553V69.336H260.3v18.28h10.776V91.9h-10.69a4.321,4.321,0,0,1-4.282-4.282V46.865a4.321,4.321,0,0,1,4.281-4.361h51.544V24.315H251.774a13.907,13.907,0,0,0-13.907,13.907h0V96.164" fill="#0060a8"/><path d="M368.366,24.079a5.933,5.933,0,0,1,11.236,0l29.189,86.189H366.049V90.079h14.3l-6.443-19.093-20.9,61.636H331.481L368.366,24.079" fill="#0060a8"/><path d="M414.645,114.393h-48.5v18.229H440L401.579,18.972a29.421,29.421,0,0,0-55,0l-38.972,113.65h19.329L364.571,22.115a10.191,10.191,0,0,1,18.779-.039L414.779,114.4" fill="#0060a8"/></svg>