<svg id="Mega_Drive" data-name="Mega Drive" xmlns="http://www.w3.org/2000/svg" xmlns:xlink="http://www.w3.org/1999/xlink" viewBox="0 0 420.002 388.167"><defs><linearGradient id="linear-gradient" x1="209.07" y1="2.167" x2="209.07" y2="178.857" gradientTransform="matrix(1, 0, 0, -1, 0, 380.333)" gradientUnits="userSpaceOnUse"><stop offset="0.42" stop-color="#f7f8fb"/><stop offset="0.567" stop-color="#f7f8fb"/><stop offset="0.8" stop-color="#81a4da"/><stop offset="1" stop-color="#334f9b"/></linearGradient><linearGradient id="linear-gradient-2" x1="251.401" y1="53.828" x2="257.163" y2="-56.171" gradientTransform="matrix(1, 0, 0, -1, 0, 380.333)" gradientUnits="userSpaceOnUse"><stop offset="0" stop-color="#39290a"/><stop offset="0.3" stop-color="#74572a" stop-opacity="0.7"/><stop offset="0.5" stop-color="#a48e61" stop-opacity="0.5"/><stop offset="1" stop-color="#a48e61" stop-opacity="0"/></linearGradient><linearGradient id="linear-gradient-3" x1="197.439" y1="22.748" x2="195.857" y2="0.134" gradientTransform="matrix(1, 0, 0, -1, 0, 380.333)" gradientUnits="userSpaceOnUse"><stop offset="0" stop-color="#39290a"/><stop offset="0.3" stop-color="#74572a" stop-opacity="0.7"/><stop offset="0.5" stop-color="#a48e61" stop-opacity="0.5"/><stop offset="1" stop-color="#a48e61" stop-opacity="0.1"/></linearGradient><linearGradient id="linear-gradient-4" x1="304.339" y1="28.339" x2="308.442" y2="5.072" xlink:href="#linear-gradient-3"/><linearGradient id="linear-gradient-5" x1="93.5" y1="32.871" x2="95.235" y2="-26.88" gradientTransform="matrix(1, 0, 0, -1, 0, 380.333)" gradientUnits="userSpaceOnUse"><stop offset="0" stop-color="#39290a"/><stop offset="0.2" stop-color="#74572a" stop-opacity="0.8"/><stop offset="0.4" stop-color="#a48e61" stop-opacity="0.6"/><stop offset="1" stop-color="#a48e61" stop-opacity="0"/></linearGradient><linearGradient id="linear-gradient-6" x1="93.067" y1="22.546" x2="97.901" y2="-30.558" xlink:href="#linear-gradient-5"/><linearGradient id="linear-gradient-7" x1="127.484" y1="124.312" x2="127.484" y2="2.167" gradientTransform="matrix(1, 0, 0, -1, 0, 380.333)" gradientUnits="userSpaceOnUse"><stop offset="0" stop-opacity="0"/><stop offset="1"/></linearGradient><linearGradient id="linear-gradient-8" x1="209.068" y1="193.643" x2="209.068" y2="370.333" xlink:href="#linear-gradient"/><linearGradient id="linear-gradient-9" x1="379.924" y1="284.038" x2="372.235" y2="203.461" xlink:href="#linear-gradient-5"/><linearGradient id="linear-gradient-10" x1="375.502" y1="273.669" x2="375.502" y2="193.95" xlink:href="#linear-gradient-5"/><linearGradient id="linear-gradient-11" x1="375.118" y1="212.347" x2="375.874" y2="198.219" gradientTransform="matrix(1, 0, 0, -1, 0, 380.333)" gradientUnits="userSpaceOnUse"><stop offset="0" stop-color="#74572a"/><stop offset="1" stop-color="#74572a" stop-opacity="0"/></linearGradient><linearGradient id="linear-gradient-12" x1="378.217" y1="217.979" x2="377.568" y2="228.9" xlink:href="#linear-gradient-11"/><linearGradient id="linear-gradient-13" x1="372.678" y1="245.732" x2="373.242" y2="240.601" xlink:href="#linear-gradient-11"/><linearGradient id="linear-gradient-14" x1="377.481" y1="245.651" x2="377.057" y2="252.728" xlink:href="#linear-gradient-11"/><linearGradient id="linear-gradient-15" x1="211.401" y1="283.853" x2="211.401" y2="212.6" xlink:href="#linear-gradient-5"/><linearGradient id="linear-gradient-16" x1="211.399" y1="276.005" x2="211.399" y2="193.95" xlink:href="#linear-gradient-5"/><linearGradient id="linear-gradient-17" x1="204.62" y1="252.637" x2="205.928" y2="258.035" xlink:href="#linear-gradient-11"/><linearGradient id="linear-gradient-18" x1="216.326" y1="251.566" x2="215.365" y2="246.528" xlink:href="#linear-gradient-11"/><linearGradient id="linear-gradient-19" x1="211.658" y1="205.421" x2="210.446" y2="194.317" xlink:href="#linear-gradient-11"/><linearGradient id="linear-gradient-20" x1="206.076" y1="209.109" x2="207.163" y2="219.549" xlink:href="#linear-gradient-11"/><radialGradient id="radial-gradient" cx="11.698" cy="315.937" fx="-26.55724085676343" fy="362.83584724301613" r="61.028" gradientTransform="matrix(1, 0, 0, -0.543, 0, 360.715)" xlink:href="#linear-gradient-11"/><linearGradient id="linear-gradient-21" x1="59.394" y1="294.975" x2="33.798" y2="204.683" xlink:href="#linear-gradient-5"/><linearGradient id="linear-gradient-22" x1="57.468" y1="280.954" x2="34.193" y2="198.851" xlink:href="#linear-gradient-5"/><linearGradient id="linear-gradient-23" x1="52.069" y1="249.91" x2="50.885" y2="245.118" xlink:href="#linear-gradient-11"/><linearGradient id="linear-gradient-24" x1="39.141" y1="251.731" x2="40.703" y2="257.237" xlink:href="#linear-gradient-11"/><linearGradient id="linear-gradient-25" x1="38.008" y1="233.91" x2="40.335" y2="243.827" xlink:href="#linear-gradient-11"/><linearGradient id="linear-gradient-26" x1="49.859" y1="230.634" x2="47.544" y2="221.264" xlink:href="#linear-gradient-11"/><linearGradient id="linear-gradient-27" x1="246.364" y1="315.788" x2="246.364" y2="193.643" xlink:href="#linear-gradient-7"/><linearGradient id="linear-gradient-28" x1="409.068" y1="315.788" x2="409.068" y2="193.643" xlink:href="#linear-gradient-7"/><linearGradient id="linear-gradient-29" x1="79.931" y1="315.788" x2="79.931" y2="193.643" xlink:href="#linear-gradient-7"/></defs><title>megadrive 3</title><path d="M372.449,242.833a50.621,50.621,0,0,0-15.088-35.942,51.694,51.694,0,0,0-36.8-15.27l-273.012.072V388.167h259.2c41.751,0,65.7-24.837,65.7-68.141ZM138.417,326.675v-73.77H279.26v67.6c0,6.175-4.459,6.175-5.923,6.175Z"/><path d="M57.554,378.167h69V256.022h-69Zm262.033-176.69H57.554v41.212H360.587C360.087,220.553,341.834,201.477,319.587,201.477ZM289.26,256.022v65.735a14.964,14.964,0,0,1-14.918,14.918H141v41.492H310.235a50.5,50.5,0,0,0,50.352-50.35v-66.2a50.759,50.759,0,0,0-.321-5.6Z" fill="url(#linear-gradient)"/><path d="M142.869,345.378c63.714-2.8,156.8,13.209,165.19-16.628,31.924,1.343,34.187-3.419,54.39-5.9,0,32.944-19.58,55.322-53.923,55.322H142.869Z" fill="url(#linear-gradient-2)"/><path d="M226.552,360.451c-26.107-2.548-24.942-9.089-83.683-6.06v23.776H250.794V361.186A180,180,0,0,1,226.552,360.451Z" fill="url(#linear-gradient-3)"/><path d="M360.416,340.184c-24.039,2.739-39.924,7.043-62.3,13.274a202.714,202.714,0,0,1-47.32,7.728v16.981h57.732C336.43,378.167,354.587,363.394,360.416,340.184Z" fill="url(#linear-gradient-4)"/><path d="M362.449,320.026l-.342.043a148.034,148.034,0,0,0-16.16,2.959c-9,2.043-16.784,3.81-37.77,2.926a2.79,2.79,0,0,0-2.812,2.038c-5.332,18.967-54.292,17.128-101.642,15.35-20.693-.776-42.088-1.58-60.855-.763v5.6h.122c18.566-.814,39.9-.017,60.522.759,14.245.535,28.267,1.062,41.255,1.062,32.747,0,58.892-3.353,65.244-18.37,20.221.7,28.464-1.163,37.176-3.141a144.658,144.658,0,0,1,15.262-2.819Z"/><path d="M360.964,337.775l-.813.093c-23.743,2.706-39.281,6.835-62.662,13.345-25.071,6.978-47.536,9.18-70.711,6.918a153.226,153.226,0,0,1-18.5-3.021c-12.539-2.656-24.382-5.168-65.414-3.053v4.667l.12-.006c40.512-2.08,52.084.359,64.327,2.952a157.186,157.186,0,0,0,19.01,3.1c5.981.583,11.914.878,17.852.878,17.66,0,35.373-2.6,54.56-7.945,22.849-6.363,38.142-10.423,61.009-13.091Q360.446,340.257,360.964,337.775Z"/><polygon points="59.419 378.167 59.419 348.913 128.417 345.533 128.417 378.167 59.419 378.167" fill="url(#linear-gradient-5)"/><polygon points="59.419 378.167 59.419 362.565 128.417 356.1 128.417 378.167 59.419 378.167" fill="url(#linear-gradient-6)"/><path d="M128.417,353.457h-.086c-5.414.2-17.211,1.559-30.871,3.131-12.737,1.467-27.155,3.127-38.041,4.006v4.679l.188-.015c10.985-.883,25.542-2.559,38.385-4.037,12.935-1.49,25.149-2.9,30.425-3.1Z"/><rect x="126.552" y="256.022" width="1.865" height="122.145" fill="url(#linear-gradient-7)"/><path d="M99.622,349.709c11.534-.732,21.507-1.359,28.709-1.148h.086v-5.594c-7.473-.224-17.518.418-29.15,1.158-12.386.787-26.4,1.634-39.839,1.639h-.009v5.594h.9C73.636,351.367,87.426,350.485,99.622,349.709Z"/><path d="M59.105,256.955V378.167h1V257.455h66.447v-1H59.605A.5.5,0,0,0,59.105,256.955Z" fill="#fff"/><path d="M60.105,242.689v-39.78H321.634a39.22,39.22,0,0,1,24.2,8.62,40.7,40.7,0,0,0-17.046-8.929,38.1,38.1,0,0,0-7.155-.691H59.605a.5.5,0,0,0-.5.5v40.28Z" fill="#fff"/><path d="M143.556,338.107H276.387a15.436,15.436,0,0,0,15.418-15.418V257.455h68.582c-.029-.333-.051-.668-.085-1H291.307a.5.5,0,0,0-.5.5v65.734a14.435,14.435,0,0,1-14.42,14.418H143.056a.5.5,0,0,0-.5.5v40.56h1Z" fill="#fff"/><path d="M420,51.212A50.615,50.615,0,0,0,404.914,15.27,51.692,51.692,0,0,0,368.119,0H0V196.69H90.862V61.212h72.774V196.69H257.3V61.212h71.84V196.69H420Z"/><path d="M10,64.545H79V186.69H10ZM173.636,186.69h71.8V64.545h-71.8Zm165.5,0h69V64.545h-69Zm28-176.69H10V51.212H408.135c-.5-22.136-18.75-41.212-41-41.212Z" fill="url(#linear-gradient-8)"/><path d="M403.939,105.726c-27.506,8.548.933-18.181-41.025-7.132,0,0-5.129,1.126-21.912-.016V186.69h69v-81.7A17.5,17.5,0,0,0,403.939,105.726Z" fill="url(#linear-gradient-9)"/><path d="M341,106.737V186.69h69V112.564C373.636,118.974,394.848,105.571,341,106.737Z" fill="url(#linear-gradient-10)"/><polygon points="341.002 168.741 341.002 186.69 410 186.69 410 163.613 341.002 168.741" fill="url(#linear-gradient-11)"/><polygon points="341.002 168.741 341.002 64.545 410 64.545 410 163.613 341.002 168.741" fill="url(#linear-gradient-12)"/><path d="M341,138.759c29.256-3.57,49.651-7.2,69-4.87v52.8H341Z" fill="url(#linear-gradient-13)"/><path d="M341,138.759V64.545h69v69.344C387.385,131.834,376.55,134.418,341,138.759Z" fill="url(#linear-gradient-14)"/><path d="M410,102.187a19.588,19.588,0,0,0-6.891.867c-9.717,3.022-10.232,1.448-11.163-1.407-2.645-8.119-8.167-11.439-29.609-5.79-.05.011-5.247,1.007-21.144-.069L341,95.775v5.6c16.543,1.116,21.95.069,22.624-.081,20.558-5.412,21.857-1.433,23,2.081,1.386,4.253,3.439,6.846,8.569,6.844a33.914,33.914,0,0,0,9.66-1.856,14.8,14.8,0,0,1,4.95-.59l.194.014Z"/><path d="M410,110.748l-.373.061c-20.215,3.279-23.327,1.353-27.267-1.088-3.287-2.034-7.378-4.567-19.291-5.332-13.97-.937-20.462-.264-22.067-.047v4.72l.4-.067c.058-.009,6.042-.98,21.367.045,10.756.692,14.148,2.792,17.141,4.646,3.307,2.047,6.226,3.531,13.04,3.531a111.818,111.818,0,0,0,17.055-1.75Z"/><path d="M410,132.951c-16.749-2.1-33.471.307-48.23,2.431-7.386,1.063-14.361,2.064-20.768,2.442v1.869h.055c6.5-.378,13.532-1.391,20.978-2.462,14.676-2.11,31.309-4.5,47.848-2.413l.117.015Z" fill="#39290a"/><path d="M341,163.735c35.9-2.764,44.445-6.882,69-3.753v9.011c-34.965-1.029-58.807,3.351-69,4.445Z" fill="#39290a"/><path d="M175.5,97.879V186.69h71.8V96.48C226.785,99.355,195.315,95.781,175.5,97.879Z" fill="url(#linear-gradient-15)"/><polygon points="175.501 105.605 175.501 186.69 247.296 186.69 247.296 104.328 175.501 105.605" fill="url(#linear-gradient-16)"/><polygon points="175.501 122.063 247.296 134.899 247.296 64.545 175.501 64.545 175.501 122.063" fill="url(#linear-gradient-17)"/><polygon points="175.501 122.51 175.501 186.69 247.296 186.69 247.296 134.899 175.501 122.51" fill="url(#linear-gradient-18)"/><polygon points="175.501 167.887 175.501 186.69 247.296 186.69 247.296 175.657 175.501 167.887" fill="url(#linear-gradient-19)"/><polygon points="175.501 167.887 175.501 64.545 247.296 64.545 247.296 175.657 175.501 167.887" fill="url(#linear-gradient-20)"/><path d="M247.3,93.868l-.022-.158c-10.842,1.506-25.018,1.2-38.732.907-12.165-.26-23.655-.5-33.041.425v5.615c9.141-.95,20.692-.7,32.922-.445,13.632.29,27.7.581,38.873-.876Z"/><path d="M247.3,101.763h-.068c-6.26.184-12.021.577-18.122.994-14.542.991-29.576,2.018-53.44.332l-.165-.012v4.674c9.289.652,17.252.9,24.37.9,11.341,0,20.542-.628,29.553-1.244,6.031-.411,11.73-.8,17.872-.984Z"/><path d="M175.5,121.109v1.907c2.1.441,22.528,4.663,71.643,12.8l.152.026v-1.89c-51.545-8.548-71.4-12.763-71.6-12.8Z" fill="#39290a"/><path d="M175.5,165.3c44.678,6.4,49.107,7.331,71.8,5.785v8.15c-27.584.234-37.762-.077-71.8-7.679Z" fill="#39290a"/><rect x="11.865" y="64.545" width="67.133" height="122.145" fill="url(#radial-gradient)"/><path d="M80.862,93.683c-55.244-4.9,14.453-12.354-69-17.716V186.69h69Z" fill="url(#linear-gradient-21)"/><path d="M80.862,104.056c-55.244-4.111-29.836-18.384-69-13.636v96.27h69Z" fill="url(#linear-gradient-22)"/><path d="M11.865,120.331s53.147,11.412,69,21.4V186.69h-69Z" fill="url(#linear-gradient-23)"/><path d="M11.865,120.331V64.545h69v77.189S56.737,129.381,11.865,120.331Z" fill="url(#linear-gradient-24)"/><polygon points="80.862 64.545 11.865 64.545 11.865 141.002 80.862 157.086 80.862 64.545" fill="url(#linear-gradient-25)"/><polygon points="11.865 141.002 11.865 186.69 80.862 186.69 80.862 157.086 11.865 141.002" fill="url(#linear-gradient-26)"/><path d="M80.862,90.873c-17.3-1.548-20.677-3.308-21.323-3.932.009-.155.044-.4.071-.588a5.947,5.947,0,0,0-1.089-4.939c-2.281-2.8-7.748-5.751-46.477-8.238l-.179-.012v5.607C46.5,81,53.249,83.6,54.142,84.838a4.556,4.556,0,0,1-.071.728,5.759,5.759,0,0,0,1.007,4.766c2.041,2.573,7.025,4.5,25.538,6.137l.246.022Z"/><path d="M80.862,101.833c-27.587-2.258-36.29-7.073-42.646-10.588-6.327-3.5-10.541-5.819-26.351-3.116v4.728l.4-.07c14.536-2.533,17.789-.734,23.7,2.535,6.741,3.731,15.974,8.841,44.715,11.174l.188.015Z"/><path d="M11.865,121.28c3.028.585,44.881,8.8,68.563,21.279l.434.229v-2.1C56.085,127.8,12.478,119.5,12.037,119.415l-.172-.032Z" fill="#39290a"/><path d="M11.865,138.006c49.941,9.174,30.594,8.532,69,16.157v6.261c-42.263-12.153-44.638-12.778-69-17.7Z" fill="#39290a"/><rect x="245.431" y="64.545" width="1.865" height="122.145" fill="url(#linear-gradient-27)"/><rect x="408.135" y="64.545" width="1.865" height="122.145" fill="url(#linear-gradient-28)"/><rect x="78.998" y="64.545" width="1.865" height="122.145" fill="url(#linear-gradient-29)"/><path d="M340.685,65.478V186.69h1V65.978h66.45v-1h-66.95A.5.5,0,0,0,340.685,65.478Z" fill="#fff"/><path d="M175.185,65.478V186.69h1V65.978h69.244v-1H175.685A.5.5,0,0,0,175.185,65.478Z" fill="#fff"/><path d="M12.551,51.212V11.433H369.185a39.225,39.225,0,0,1,24.207,8.624,40.708,40.708,0,0,0-17.043-8.931,38.108,38.108,0,0,0-7.164-.693H12.051a.5.5,0,0,0-.5.5V51.212Z" fill="#fff"/><path d="M11.551,65.478V186.69h1V65.978H79v-1H12.051A.5.5,0,0,0,11.551,65.478Z" fill="#fff"/></svg>