<svg id="Mega_Drive" data-name="Mega Drive" xmlns="http://www.w3.org/2000/svg" xmlns:xlink="http://www.w3.org/1999/xlink" viewBox="0 0 442.83 410"><defs><linearGradient id="linear-gradient" x1="220.483" y1="393" x2="220.483" y2="216.31" gradientUnits="userSpaceOnUse"><stop offset="0.42" stop-color="#f7f8fb"/><stop offset="0.567" stop-color="#f7f8fb"/><stop offset="0.8" stop-color="#81a4da"/><stop offset="1" stop-color="#334f9b"/></linearGradient><linearGradient id="linear-gradient-2" x1="262.815" y1="341.339" x2="268.577" y2="451.338" gradientUnits="userSpaceOnUse"><stop offset="0" stop-color="#39290a"/><stop offset="0.3" stop-color="#74572a" stop-opacity="0.7"/><stop offset="0.5" stop-color="#a48e61" stop-opacity="0.5"/><stop offset="1" stop-color="#a48e61" stop-opacity="0"/></linearGradient><linearGradient id="linear-gradient-3" x1="208.853" y1="372.419" x2="207.271" y2="395.033" gradientUnits="userSpaceOnUse"><stop offset="0" stop-color="#39290a"/><stop offset="0.3" stop-color="#74572a" stop-opacity="0.7"/><stop offset="0.5" stop-color="#a48e61" stop-opacity="0.5"/><stop offset="1" stop-color="#a48e61" stop-opacity="0.1"/></linearGradient><linearGradient id="linear-gradient-4" x1="315.752" y1="366.828" x2="319.855" y2="390.095" xlink:href="#linear-gradient-3"/><linearGradient id="linear-gradient-5" x1="104.913" y1="362.296" x2="106.648" y2="422.047" gradientUnits="userSpaceOnUse"><stop offset="0" stop-color="#39290a"/><stop offset="0.2" stop-color="#74572a" stop-opacity="0.8"/><stop offset="0.4" stop-color="#a48e61" stop-opacity="0.6"/><stop offset="1" stop-color="#a48e61" stop-opacity="0"/></linearGradient><linearGradient id="linear-gradient-6" x1="104.48" y1="372.621" x2="109.314" y2="425.725" xlink:href="#linear-gradient-5"/><linearGradient id="linear-gradient-7" x1="138.897" y1="270.855" x2="138.897" y2="393" gradientUnits="userSpaceOnUse"><stop offset="0" stop-opacity="0"/><stop offset="1"/></linearGradient><linearGradient id="linear-gradient-8" x1="220.483" y1="194.69" x2="220.483" y2="18" xlink:href="#linear-gradient"/><linearGradient id="linear-gradient-9" x1="391.338" y1="104.295" x2="383.649" y2="184.872" xlink:href="#linear-gradient-5"/><linearGradient id="linear-gradient-10" x1="386.916" y1="114.664" x2="386.916" y2="194.383" xlink:href="#linear-gradient-5"/><linearGradient id="linear-gradient-11" x1="386.533" y1="175.986" x2="387.289" y2="190.114" gradientUnits="userSpaceOnUse"><stop offset="0" stop-color="#74572a"/><stop offset="1" stop-color="#74572a" stop-opacity="0"/></linearGradient><linearGradient id="linear-gradient-12" x1="389.633" y1="170.354" x2="388.984" y2="159.433" xlink:href="#linear-gradient-11"/><linearGradient id="linear-gradient-13" x1="384.093" y1="142.601" x2="384.657" y2="147.732" xlink:href="#linear-gradient-11"/><linearGradient id="linear-gradient-14" x1="388.896" y1="142.682" x2="388.472" y2="135.605" xlink:href="#linear-gradient-11"/><linearGradient id="linear-gradient-15" x1="222.814" y1="104.48" x2="222.814" y2="175.733" xlink:href="#linear-gradient-5"/><linearGradient id="linear-gradient-16" x1="222.814" y1="112.328" x2="222.814" y2="194.383" xlink:href="#linear-gradient-5"/><linearGradient id="linear-gradient-17" x1="216.036" y1="135.697" x2="217.344" y2="130.299" xlink:href="#linear-gradient-11"/><linearGradient id="linear-gradient-18" x1="227.74" y1="136.767" x2="226.779" y2="141.805" xlink:href="#linear-gradient-11"/><linearGradient id="linear-gradient-19" x1="223.073" y1="182.912" x2="221.861" y2="194.016" xlink:href="#linear-gradient-11"/><linearGradient id="linear-gradient-20" x1="217.49" y1="179.224" x2="218.577" y2="168.784" xlink:href="#linear-gradient-11"/><radialGradient id="radial-gradient" cx="23.113" cy="197.096" fx="-15.142258598064402" fy="243.9943760994981" r="61.028" gradientTransform="translate(0 90.138) scale(1 0.543)" xlink:href="#linear-gradient-11"/><linearGradient id="linear-gradient-21" x1="70.81" y1="93.359" x2="45.214" y2="183.651" xlink:href="#linear-gradient-5"/><linearGradient id="linear-gradient-22" x1="68.884" y1="107.38" x2="45.609" y2="189.483" xlink:href="#linear-gradient-5"/><linearGradient id="linear-gradient-23" x1="63.481" y1="138.422" x2="62.297" y2="143.214" xlink:href="#linear-gradient-11"/><linearGradient id="linear-gradient-24" x1="50.555" y1="136.602" x2="52.117" y2="131.096" xlink:href="#linear-gradient-11"/><linearGradient id="linear-gradient-25" x1="49.423" y1="154.423" x2="51.75" y2="144.506" xlink:href="#linear-gradient-11"/><linearGradient id="linear-gradient-26" x1="61.273" y1="157.699" x2="58.958" y2="167.069" xlink:href="#linear-gradient-11"/><linearGradient id="linear-gradient-27" x1="257.779" y1="72.545" x2="257.779" y2="194.69" xlink:href="#linear-gradient-7"/><linearGradient id="linear-gradient-28" x1="420.483" y1="72.545" x2="420.483" y2="194.69" xlink:href="#linear-gradient-7"/><linearGradient id="linear-gradient-29" x1="91.345" y1="72.545" x2="91.345" y2="194.69" xlink:href="#linear-gradient-7"/></defs><title>mmmd</title><rect width="442.83" height="410" rx="30" ry="30"/><path d="M68.967,393h69V270.855h-69ZM331,216.31H68.967v41.212H372C371.5,235.386,353.247,216.31,331,216.31Zm-30.327,54.545V336.59a14.962,14.962,0,0,1-14.918,14.918H152.417V393H321.648A50.5,50.5,0,0,0,372,342.65v-66.2a50.456,50.456,0,0,0-.321-5.595Z" fill="url(#linear-gradient)"/><path d="M154.282,360.211c63.714-2.8,156.8,13.209,165.19-16.628,31.924,1.343,34.188-3.419,54.39-5.905,0,32.944-19.58,55.322-53.923,55.322H154.282Z" fill="url(#linear-gradient-2)"/><path d="M237.965,375.284c-26.107-2.548-24.942-9.089-83.683-6.06V393H262.207V376.019A179.878,179.878,0,0,1,237.965,375.284Z" fill="url(#linear-gradient-3)"/><path d="M371.829,355.017c-24.039,2.739-39.924,7.043-62.3,13.274a202.627,202.627,0,0,1-47.32,7.728V393h57.732C347.843,393,366,378.227,371.829,355.017Z" fill="url(#linear-gradient-4)"/><path d="M373.862,334.859l-.342.043a148.232,148.232,0,0,0-16.16,2.959c-9,2.043-16.784,3.81-37.77,2.926a2.792,2.792,0,0,0-2.812,2.038c-5.332,18.967-54.292,17.128-101.642,15.35-20.693-.776-42.087-1.58-60.854-.763v5.6l.122,0c18.566-.814,39.9-.017,60.522.759,14.245.535,28.266,1.062,41.254,1.062,32.748,0,58.892-3.353,65.244-18.37,20.221.7,28.464-1.163,37.176-3.141a144.638,144.638,0,0,1,15.262-2.819Z"/><path d="M372.377,352.608l-.813.093c-23.743,2.706-39.281,6.835-62.662,13.345-25.071,6.978-47.536,9.18-70.711,6.918a153.1,153.1,0,0,1-18.5-3.021c-12.539-2.656-24.382-5.168-65.414-3.053v4.667l.12-.006c40.512-2.08,52.084.359,64.327,2.952a156.953,156.953,0,0,0,19.01,3.1c5.981.583,11.914.878,17.852.878,17.66,0,35.373-2.6,54.56-7.945,22.849-6.363,38.142-10.423,61.009-13.091Q371.859,355.09,372.377,352.608Z"/><polygon points="70.832 393 70.832 363.746 139.83 360.366 139.83 393 70.832 393" fill="url(#linear-gradient-5)"/><polygon points="70.832 393 70.832 377.398 139.83 370.933 139.83 393 70.832 393" fill="url(#linear-gradient-6)"/><path d="M139.83,368.29l-.086,0c-5.414.2-17.211,1.559-30.871,3.131-12.737,1.467-27.155,3.127-38.041,4.006v4.679l.188-.015c10.985-.883,25.542-2.559,38.385-4.037,12.935-1.49,25.149-2.9,30.425-3.1Z"/><rect x="137.965" y="270.855" width="1.865" height="122.145" fill="url(#linear-gradient-7)"/><path d="M111.035,364.542c11.534-.732,21.507-1.359,28.709-1.148l.086,0V357.8c-7.473-.224-17.518.418-29.15,1.158-12.386.787-26.4,1.634-39.839,1.639h-.009v5.594l.9,0C85.049,366.2,98.839,365.318,111.035,364.542Z"/><path d="M70.518,271.788V393h1V272.288h66.447v-1H71.018A.5.5,0,0,0,70.518,271.788Z" fill="#fff"/><path d="M71.518,257.522v-39.78H333.047a39.219,39.219,0,0,1,24.2,8.62,40.7,40.7,0,0,0-17.046-8.929,38.183,38.183,0,0,0-7.155-.691H71.018a.5.5,0,0,0-.5.5v40.28Z" fill="#fff"/><path d="M154.969,352.94H287.8a15.435,15.435,0,0,0,15.418-15.418V272.288H371.8c-.028-.333-.051-.668-.085-1H302.72a.5.5,0,0,0-.5.5v65.734A14.434,14.434,0,0,1,287.8,351.94H154.469a.5.5,0,0,0-.5.5V393h1Z" fill="#fff"/><path d="M21.415,72.545h69V194.69h-69ZM185.051,194.69h71.8V72.545h-71.8Zm165.5,0h69V72.545h-69Zm28-176.69H21.415V59.212H419.55C419.048,37.076,400.8,18,378.548,18Z" fill="url(#linear-gradient-8)"/><path d="M415.354,113.726c-27.506,8.548.933-18.181-41.025-7.132,0,0-5.129,1.126-21.912-.016V194.69h69v-81.7A17.5,17.5,0,0,0,415.354,113.726Z" fill="url(#linear-gradient-9)"/><path d="M352.417,114.737V194.69h69V120.564C385.051,126.974,406.263,113.571,352.417,114.737Z" fill="url(#linear-gradient-10)"/><polygon points="352.417 176.741 352.417 194.69 421.415 194.69 421.415 171.613 352.417 176.741" fill="url(#linear-gradient-11)"/><polygon points="352.417 176.741 352.417 72.545 421.415 72.545 421.415 171.613 352.417 176.741" fill="url(#linear-gradient-12)"/><path d="M352.417,146.759c29.256-3.57,49.651-7.2,69-4.87v52.8h-69Z" fill="url(#linear-gradient-13)"/><path d="M352.417,146.759V72.545h69v69.344C398.8,139.834,387.965,142.418,352.417,146.759Z" fill="url(#linear-gradient-14)"/><path d="M421.415,110.187a19.59,19.59,0,0,0-6.891.867c-9.717,3.022-10.232,1.448-11.163-1.407-2.645-8.119-8.167-11.439-29.609-5.79-.05.011-5.247,1.007-21.144-.069l-.191-.013v5.6c16.543,1.116,21.95.069,22.624-.081,20.558-5.412,21.857-1.433,23,2.081,1.386,4.253,3.439,6.846,8.569,6.844a33.906,33.906,0,0,0,9.66-1.856,14.8,14.8,0,0,1,4.95-.59l.194.014Z"/><path d="M421.415,118.748l-.373.061c-20.215,3.279-23.327,1.353-27.267-1.088-3.287-2.034-7.378-4.567-19.291-5.332-13.97-.937-20.462-.264-22.067-.047v4.72l.4-.067c.058-.009,6.042-.98,21.367.045,10.756.692,14.148,2.792,17.141,4.646,3.307,2.047,6.226,3.531,13.04,3.531a111.889,111.889,0,0,0,17.055-1.75Z"/><path d="M421.415,140.951c-16.749-2.1-33.471.307-48.23,2.431-7.386,1.063-14.361,2.064-20.768,2.442v1.869l.055,0c6.5-.378,13.532-1.391,20.978-2.462,14.676-2.11,31.309-4.5,47.848-2.413l.117.015Z" fill="#39290a"/><path d="M352.417,171.735c35.9-2.764,44.445-6.882,69-3.753v9.011c-34.965-1.029-58.807,3.351-69,4.445Z" fill="#39290a"/><path d="M186.916,105.879V194.69h71.8V104.48C238.2,107.355,206.73,103.781,186.916,105.879Z" fill="url(#linear-gradient-15)"/><polygon points="186.916 113.605 186.916 194.69 258.711 194.69 258.711 112.328 186.916 113.605" fill="url(#linear-gradient-16)"/><polygon points="186.916 130.063 258.711 142.899 258.711 72.545 186.916 72.545 186.916 130.063" fill="url(#linear-gradient-17)"/><polygon points="186.916 130.51 186.916 194.69 258.711 194.69 258.711 142.899 186.916 130.51" fill="url(#linear-gradient-18)"/><polygon points="186.916 175.887 186.916 194.69 258.711 194.69 258.711 183.657 186.916 175.887" fill="url(#linear-gradient-19)"/><polygon points="186.916 175.887 186.916 72.545 258.711 72.545 258.711 183.657 186.916 175.887" fill="url(#linear-gradient-20)"/><path d="M258.711,101.868l-.022-.158c-10.842,1.506-25.018,1.2-38.732.907-12.165-.26-23.655-.5-33.041.425v5.615c9.141-.95,20.692-.7,32.922-.445,13.632.29,27.7.581,38.873-.876Z"/><path d="M258.711,109.763l-.068,0c-6.26.184-12.021.577-18.122.994-14.542.991-29.576,2.018-53.44.332l-.165-.012v4.674c9.289.652,17.252.9,24.37.9,11.341,0,20.542-.628,29.553-1.244,6.031-.411,11.73-.8,17.872-.984Z"/><path d="M186.916,129.109v1.907c2.1.441,22.528,4.663,71.643,12.8l.152.026v-1.89c-51.545-8.548-71.4-12.763-71.6-12.8Z" fill="#39290a"/><path d="M186.916,173.3c44.678,6.4,49.107,7.331,71.8,5.785v8.15c-27.584.234-37.762-.077-71.8-7.679Z" fill="#39290a"/><rect x="23.28" y="72.545" width="67.133" height="122.145" fill="url(#radial-gradient)"/><path d="M92.277,101.683c-55.244-4.9,14.453-12.354-69-17.716V194.69h69Z" fill="url(#linear-gradient-21)"/><path d="M92.277,112.056c-55.244-4.111-29.836-18.384-69-13.636v96.27h69Z" fill="url(#linear-gradient-22)"/><path d="M23.28,128.331s53.147,11.412,69,21.4V194.69h-69Z" fill="url(#linear-gradient-23)"/><path d="M23.28,128.331V72.545h69v77.189S68.152,137.381,23.28,128.331Z" fill="url(#linear-gradient-24)"/><polygon points="92.277 72.545 23.28 72.545 23.28 149.002 92.277 165.086 92.277 72.545" fill="url(#linear-gradient-25)"/><polygon points="23.28 149.002 23.28 194.69 92.277 194.69 92.277 165.086 23.28 149.002" fill="url(#linear-gradient-26)"/><path d="M92.277,98.873C74.972,97.325,71.6,95.565,70.954,94.941c.009-.155.044-.4.071-.588a5.948,5.948,0,0,0-1.089-4.939c-2.281-2.8-7.748-5.751-46.477-8.238l-.179-.012v5.607C57.911,89,64.664,91.6,65.557,92.838a4.574,4.574,0,0,1-.071.728,5.761,5.761,0,0,0,1.007,4.766c2.041,2.573,7.025,4.5,25.538,6.137l.246.022Z"/><path d="M92.277,109.833c-27.587-2.258-36.29-7.073-42.646-10.588-6.327-3.5-10.541-5.819-26.351-3.116v4.728l.4-.07c14.536-2.533,17.789-.734,23.7,2.535,6.741,3.731,15.974,8.841,44.715,11.174l.188.015Z"/><path d="M23.28,129.28c3.028.585,44.881,8.8,68.563,21.279l.434.229v-2.1C67.5,135.8,23.893,127.5,23.452,127.415l-.172-.032Z" fill="#39290a"/><path d="M23.28,146.006c49.941,9.174,30.594,8.532,69,16.157v6.261c-42.263-12.153-44.638-12.778-69-17.7Z" fill="#39290a"/><rect x="256.846" y="72.545" width="1.865" height="122.145" fill="url(#linear-gradient-27)"/><rect x="419.55" y="72.545" width="1.865" height="122.145" fill="url(#linear-gradient-28)"/><rect x="90.413" y="72.545" width="1.865" height="122.145" fill="url(#linear-gradient-29)"/><path d="M352.1,73.478V194.69h1V73.978H419.55v-1H352.6A.5.5,0,0,0,352.1,73.478Z" fill="#fff"/><path d="M186.6,73.478V194.69h1V73.978h69.244v-1H187.1A.5.5,0,0,0,186.6,73.478Z" fill="#fff"/><path d="M23.966,59.212V19.433H380.6a39.221,39.221,0,0,1,24.207,8.624,40.708,40.708,0,0,0-17.043-8.931,38.113,38.113,0,0,0-7.164-.693H23.466a.5.5,0,0,0-.5.5V59.212Z" fill="#fff"/><path d="M22.966,73.478V194.69h1V73.978H90.413v-1H23.466A.5.5,0,0,0,22.966,73.478Z" fill="#fff"/></svg>