<svg id="Mega_Drive" data-name="Mega Drive" xmlns="http://www.w3.org/2000/svg" xmlns:xlink="http://www.w3.org/1999/xlink" viewBox="0 0 440 264.024"><defs><linearGradient id="linear-gradient" x1="349.525" y1="18.476" x2="349.525" y2="122.701" gradientTransform="matrix(1, 0, 0, -1, 0, 282)" gradientUnits="userSpaceOnUse"><stop offset="0.42" stop-color="#f7f8fb"/><stop offset="0.567" stop-color="#f7f8fb"/><stop offset="0.8" stop-color="#81a4da"/><stop offset="1" stop-color="#334f9b"/></linearGradient><linearGradient id="linear-gradient-2" x1="374.496" y1="48.95" x2="377.894" y2="-15.936" gradientTransform="matrix(1, 0, 0, -1, 0, 282)" gradientUnits="userSpaceOnUse"><stop offset="0" stop-color="#39290a"/><stop offset="0.3" stop-color="#74572a" stop-opacity="0.7"/><stop offset="0.5" stop-color="#a48e61" stop-opacity="0.5"/><stop offset="1" stop-color="#a48e61" stop-opacity="0"/></linearGradient><linearGradient id="linear-gradient-3" x1="342.665" y1="30.617" x2="341.732" y2="17.277" gradientTransform="matrix(1, 0, 0, -1, 0, 282)" gradientUnits="userSpaceOnUse"><stop offset="0" stop-color="#39290a"/><stop offset="0.3" stop-color="#74572a" stop-opacity="0.7"/><stop offset="0.5" stop-color="#a48e61" stop-opacity="0.5"/><stop offset="1" stop-color="#a48e61" stop-opacity="0.1"/></linearGradient><linearGradient id="linear-gradient-4" x1="405.722" y1="33.915" x2="408.142" y2="20.19" xlink:href="#linear-gradient-3"/><linearGradient id="linear-gradient-5" x1="281.354" y1="36.588" x2="282.377" y2="1.343" gradientTransform="matrix(1, 0, 0, -1, 0, 282)" gradientUnits="userSpaceOnUse"><stop offset="0" stop-color="#39290a"/><stop offset="0.2" stop-color="#74572a" stop-opacity="0.8"/><stop offset="0.4" stop-color="#a48e61" stop-opacity="0.6"/><stop offset="1" stop-color="#a48e61" stop-opacity="0"/></linearGradient><linearGradient id="linear-gradient-6" x1="281.098" y1="30.497" x2="283.949" y2="-0.828" xlink:href="#linear-gradient-5"/><linearGradient id="linear-gradient-7" x1="301.4" y1="90.526" x2="301.4" y2="18.476" gradientTransform="matrix(1, 0, 0, -1, 0, 282)" gradientUnits="userSpaceOnUse"><stop offset="0" stop-opacity="0"/><stop offset="1"/></linearGradient><linearGradient id="linear-gradient-8" x1="117.425" y1="18.476" x2="117.425" y2="122.701" xlink:href="#linear-gradient"/><linearGradient id="linear-gradient-9" x1="218.208" y1="71.799" x2="213.673" y2="24.268" xlink:href="#linear-gradient-5"/><linearGradient id="linear-gradient-10" x1="215.6" y1="65.681" x2="215.6" y2="18.657" xlink:href="#linear-gradient-5"/><linearGradient id="linear-gradient-11" x1="215.373" y1="29.509" x2="215.82" y2="21.176" gradientTransform="matrix(1, 0, 0, -1, 0, 282)" gradientUnits="userSpaceOnUse"><stop offset="0" stop-color="#74572a"/><stop offset="1" stop-color="#74572a" stop-opacity="0"/></linearGradient><linearGradient id="linear-gradient-12" x1="217.202" y1="32.831" x2="216.82" y2="39.273" xlink:href="#linear-gradient-11"/><linearGradient id="linear-gradient-13" x1="213.937" y1="49.202" x2="214.269" y2="46.176" xlink:href="#linear-gradient-11"/><linearGradient id="linear-gradient-14" x1="216.771" y1="49.154" x2="216.52" y2="53.329" xlink:href="#linear-gradient-11"/><linearGradient id="linear-gradient-15" x1="118.8" y1="71.689" x2="118.8" y2="29.659" xlink:href="#linear-gradient-5"/><linearGradient id="linear-gradient-16" x1="118.8" y1="67.06" x2="118.8" y2="18.658" xlink:href="#linear-gradient-5"/><linearGradient id="linear-gradient-17" x1="114.804" y1="53.274" x2="115.575" y2="56.459" xlink:href="#linear-gradient-11"/><linearGradient id="linear-gradient-18" x1="121.71" y1="52.643" x2="121.142" y2="49.67" xlink:href="#linear-gradient-11"/><linearGradient id="linear-gradient-19" x1="118.953" y1="25.424" x2="118.238" y2="18.873" xlink:href="#linear-gradient-11"/><linearGradient id="linear-gradient-20" x1="115.659" y1="27.6" x2="116.301" y2="33.757" xlink:href="#linear-gradient-11"/><radialGradient id="radial-gradient" cx="1.001" cy="93.52" fx="-21.564156076173447" fy="121.18447866706637" r="35.999" gradientTransform="matrix(1, 0, 0, -0.543, 0, 315.821)" xlink:href="#linear-gradient-11"/><linearGradient id="linear-gradient-21" x1="29.137" y1="78.249" x2="14.039" y2="24.988" xlink:href="#linear-gradient-5"/><linearGradient id="linear-gradient-22" x1="28.001" y1="69.978" x2="14.272" y2="21.547" xlink:href="#linear-gradient-5"/><linearGradient id="linear-gradient-23" x1="24.815" y1="51.667" x2="24.117" y2="48.84" xlink:href="#linear-gradient-11"/><linearGradient id="linear-gradient-24" x1="17.187" y1="52.742" x2="18.108" y2="55.989" xlink:href="#linear-gradient-11"/><linearGradient id="linear-gradient-25" x1="16.521" y1="42.229" x2="17.894" y2="48.078" xlink:href="#linear-gradient-11"/><linearGradient id="linear-gradient-26" x1="23.511" y1="40.297" x2="22.146" y2="34.769" xlink:href="#linear-gradient-11"/><linearGradient id="linear-gradient-27" x1="139.425" y1="90.526" x2="139.425" y2="18.476" xlink:href="#linear-gradient-7"/><linearGradient id="linear-gradient-28" x1="235.4" y1="90.526" x2="235.4" y2="18.476" xlink:href="#linear-gradient-7"/><linearGradient id="linear-gradient-29" x1="41.25" y1="90.526" x2="41.25" y2="18.476" xlink:href="#linear-gradient-7"/><linearGradient id="linear-gradient-30" x1="261.36" y1="54.226" x2="300.85" y2="54.226" gradientTransform="matrix(1, 0, 0, -1, 0, 282)" gradientUnits="userSpaceOnUse"><stop offset="0.42" stop-color="#f7f8fb" stop-opacity="0"/><stop offset="0.644" stop-color="#f7f8fb" stop-opacity="0"/></linearGradient><linearGradient id="linear-gradient-31" x1="310.585" y1="54.226" x2="438.9" y2="54.226" xlink:href="#linear-gradient-30"/><linearGradient id="linear-gradient-32" x1="261.36" y1="110.271" x2="438.9" y2="110.271" xlink:href="#linear-gradient-30"/><linearGradient id="linear-gradient-33" x1="195.36" y1="54.226" x2="234.85" y2="54.226" xlink:href="#linear-gradient-30"/><linearGradient id="linear-gradient-34" x1="97.735" y1="54.226" x2="138.875" y2="54.226" xlink:href="#linear-gradient-30"/><linearGradient id="linear-gradient-35" x1="1.21" y1="110.271" x2="234.85" y2="110.271" xlink:href="#linear-gradient-30"/><linearGradient id="linear-gradient-36" x1="1.21" y1="54.226" x2="40.7" y2="54.226" xlink:href="#linear-gradient-30"/></defs><title>megadrive -22</title><path d="M260.15,263.524h40.7v-72.05h-40.7ZM414.714,159.3H260.15v24.31H438.9c-.3-13.061-11.06-24.31-24.186-24.31Zm-17.889,32.175v38.775a8.827,8.827,0,0,1-8.8,8.8h-78.65v24.475H409.2a29.787,29.787,0,0,0,29.7-29.7v-39.05a29.826,29.826,0,0,0-.189-3.3Z" fill="url(#linear-gradient)"/><path d="M310.475,244.183c37.584-1.65,92.491,7.791,97.441-9.809,18.831.792,20.168-2.016,32.084-3.484,0,19.434-11.55,32.634-31.809,32.634H310.475Z" fill="url(#linear-gradient-2)"/><path d="M359.837,253.074c-15.4-1.5-14.712-5.361-49.362-3.575v14.025h63.663V253.507A106.03,106.03,0,0,1,359.837,253.074Z" fill="url(#linear-gradient-3)"/><path d="M438.8,241.118c-14.181,1.616-23.55,4.155-36.751,7.831a119.492,119.492,0,0,1-27.912,4.558v10.017h34.053C424.652,263.524,435.362,254.808,438.8,241.118Z" fill="url(#linear-gradient-4)"/><path d="M440,229.228l-.2.026A87.291,87.291,0,0,0,430.265,231c-5.311,1.205-9.9,2.248-22.279,1.726a1.651,1.651,0,0,0-1.658,1.2c-3.146,11.189-32.027,10.1-59.957,9.055-12.21-.458-24.826-.932-35.9-.45v3.3h.072c10.951-.48,23.534-.01,35.7.447,8.4.316,16.673.627,24.334.627,19.317,0,34.739-1.98,38.486-10.836,11.928.415,16.79-.686,21.929-1.853a85.1,85.1,0,0,1,9-1.662Z"/><path d="M439.12,239.7l-.478.055c-14.007,1.6-23.172,4.032-36.96,7.872-14.789,4.116-28.041,5.415-41.711,4.081a90.416,90.416,0,0,1-10.91-1.782c-7.4-1.568-14.383-3.05-38.586-1.8v2.75h.07c23.9-1.227,30.723.211,37.95,1.741a92.467,92.467,0,0,0,11.2,1.828c3.528.345,7.028.519,10.53.519a118.394,118.394,0,0,0,32.184-4.688c13.477-3.753,22.5-6.147,35.988-7.722Q438.819,241.168,439.12,239.7Z"/><polygon points="261.25 263.524 261.25 246.268 301.95 244.274 301.95 263.524 261.25 263.524" fill="url(#linear-gradient-5)"/><polygon points="261.25 263.524 261.25 254.32 301.95 250.508 301.95 263.524 261.25 263.524" fill="url(#linear-gradient-6)"/><path d="M284.755,243.445c-7.305.464-15.57.963-23.5.967h0v3.3h.528c7.858,0,15.992-.519,23.186-.976,6.8-.431,12.687-.8,16.935-.677l1.65.051.1-3.3-1.65-.05C297.587,242.626,291.642,243.007,284.755,243.445Z"/><path d="M301.95,248.948H301.9c-3.19.118-10.151.92-18.21,1.847-7.513.864-16.018,1.845-22.44,2.363v2.76l.11-.009c6.479-.522,15.07-1.509,22.642-2.382,7.63-.88,14.835-1.708,17.947-1.829Z"/><rect x="300.85" y="191.474" width="1.1" height="72.05" fill="url(#linear-gradient-7)"/><path d="M0,191.474H40.7v72.05H0Zm96.525,72.05h42.35v-72.05H96.525Zm97.625,0h40.7v-72.05h-40.7ZM210.664,159.3H0v24.31H234.85c-.3-13.061-11.06-24.31-24.186-24.31Z" fill="url(#linear-gradient-8)"/><path d="M232.375,215.765c-16.225,5.043.55-10.725-24.2-4.206,0,0-3.025.66-12.925-.01v51.975h40.7V215.331A10.321,10.321,0,0,0,232.375,215.765Z" fill="url(#linear-gradient-9)"/><path d="M195.25,216.362v47.162h40.7V219.8C214.5,223.581,227.013,215.674,195.25,216.362Z" fill="url(#linear-gradient-10)"/><polygon points="195.25 252.937 195.25 263.524 235.95 263.524 235.95 249.912 195.25 252.937" fill="url(#linear-gradient-11)"/><polygon points="195.25 252.937 195.25 191.474 235.95 191.474 235.95 249.912 195.25 252.937" fill="url(#linear-gradient-12)"/><path d="M195.25,235.251c17.258-2.106,29.288-4.25,40.7-2.872v31.145h-40.7Z" fill="url(#linear-gradient-13)"/><path d="M195.25,235.251v-43.78h40.7v40.908C222.612,231.165,216.219,232.69,195.25,235.251Z" fill="url(#linear-gradient-14)"/><path d="M235.95,213.678a11.587,11.587,0,0,0-4.065.511c-5.732,1.783-6.035.855-6.584-.829-1.561-4.79-4.818-6.748-17.466-3.41-.03.006-3.095.594-12.473-.041l-.11-.008v3.307c9.758.66,12.948.041,13.345-.049,12.127-3.19,12.893-.845,13.568,1.228.817,2.508,2.029,4.038,5.06,4.037a20,20,0,0,0,5.7-1.1,8.728,8.728,0,0,1,2.919-.348l.11.008Z"/><path d="M235.95,218.728l-.22.036c-11.924,1.934-13.76.8-16.084-.641-1.938-1.2-4.352-2.695-11.38-3.146a70.129,70.129,0,0,0-13.016-.028v2.789l.233-.04c.034,0,3.564-.577,12.6.026,6.345.409,8.346,1.65,10.111,2.742a12.431,12.431,0,0,0,7.691,2.082,65.956,65.956,0,0,0,10.061-1.032Z"/><path d="M235.95,231.825c-9.88-1.236-19.744.181-28.449,1.43-4.357.627-8.47,1.218-12.251,1.441v1.1h.032c3.835-.22,7.983-.82,12.375-1.452,8.657-1.245,18.468-2.656,28.225-1.423l.068.009Z" fill="#39290a"/><path d="M195.25,249.983c21.175-1.63,26.216-4.059,40.7-2.213v5.315c-20.625-.607-34.689,1.98-40.7,2.622Z" fill="#39290a"/><path d="M97.625,211.138v52.387h42.35V210.312C127.875,212.008,109.313,209.9,97.625,211.138Z" fill="url(#linear-gradient-15)"/><polygon points="97.625 215.694 97.625 263.524 139.975 263.524 139.975 214.94 97.625 215.694" fill="url(#linear-gradient-16)"/><polygon points="97.625 225.402 139.975 232.974 139.975 191.474 97.625 191.474 97.625 225.402" fill="url(#linear-gradient-17)"/><polygon points="97.625 225.665 97.625 263.524 139.975 263.524 139.975 232.974 97.625 225.665" fill="url(#linear-gradient-18)"/><polygon points="97.625 252.433 97.625 263.524 139.975 263.524 139.975 257.015 97.625 252.433" fill="url(#linear-gradient-19)"/><polygon points="97.625 252.433 97.625 191.474 139.975 191.474 139.975 257.015 97.625 252.433" fill="url(#linear-gradient-20)"/><path d="M139.975,208.77l-.013-.092c-6.4.888-14.758.71-22.847.535a175.525,175.525,0,0,0-19.49.25v3.313a169.336,169.336,0,0,1,19.419-.263c8.042.171,16.341.343,22.931-.516Z"/><path d="M139.975,213.428h-.041c-3.692.11-7.09.341-10.688.586a202.173,202.173,0,0,1-31.524.2l-.1-.007v2.757c5.479.385,10.176.531,14.375.531,6.69,0,12.117-.37,17.433-.733,3.557-.242,6.919-.472,10.542-.581Z"/><path d="M97.625,224.839v1.126c1.239.259,13.289,2.75,42.26,7.552l.09.014v-1.114c-30.4-5.042-42.12-7.528-42.24-7.552Z" fill="#39290a"/><path d="M97.625,250.9c26.354,3.774,28.966,4.324,42.35,3.41v4.808c-16.271.137-22.275-.046-42.35-4.53Z" fill="#39290a"/><rect x="1.1" y="191.474" width="39.6" height="72.05" fill="url(#radial-gradient)"/><path d="M41.8,208.662c-32.588-2.888,8.525-7.288-40.7-10.45v65.312H41.8Z" fill="url(#linear-gradient-21)"/><path d="M41.8,214.781c-32.588-2.42-17.6-10.845-40.7-8.044v56.787H41.8Z" fill="url(#linear-gradient-22)"/><path d="M1.1,224.381s31.35,6.732,40.7,12.624v26.519H1.1Z" fill="url(#linear-gradient-23)"/><path d="M1.1,224.381V191.474H41.8v45.531S27.569,229.719,1.1,224.381Z" fill="url(#linear-gradient-24)"/><polygon points="41.8 191.474 1.1 191.474 1.1 236.574 41.8 246.062 41.8 191.474" fill="url(#linear-gradient-25)"/><polygon points="1.1 236.574 1.1 263.524 41.8 263.524 41.8 246.062 1.1 236.574" fill="url(#linear-gradient-26)"/><path d="M41.8,207c-10.208-.913-12.2-1.952-12.579-2.319.006-.091.027-.235.043-.348a3.505,3.505,0,0,0-.642-2.912c-1.346-1.65-4.57-3.393-27.416-4.86l-.11-.007v3.307c20.428,1.32,24.411,2.85,24.938,3.579a2.566,2.566,0,0,1-.042.429,3.4,3.4,0,0,0,.594,2.812c1.2,1.518,4.144,2.652,15.07,3.62l.145.013Z"/><path d="M41.8,213.469c-16.273-1.331-21.407-4.172-25.156-6.246-3.732-2.066-6.218-3.432-15.544-1.837v2.788l.235-.04c8.58-1.495,10.493-.434,13.977,1.494,3.978,2.2,9.424,5.216,26.377,6.592l.11.008Z"/><path d="M1.1,224.94c1.786.345,26.474,5.194,40.444,12.553l.256.135v-1.239c-14.617-7.6-40.338-12.5-40.6-12.549l-.1-.019Z" fill="#39290a"/><path d="M1.1,234.806c29.459,5.412,18.047,5.034,40.7,9.531v3.694c-24.93-7.169-26.331-7.538-40.7-10.442Z" fill="#39290a"/><rect x="138.875" y="191.474" width="1.1" height="72.05" fill="url(#linear-gradient-27)"/><rect x="234.85" y="191.474" width="1.1" height="72.05" fill="url(#linear-gradient-28)"/><rect x="40.7" y="191.474" width="1.1" height="72.05" fill="url(#linear-gradient-29)"/><rect x="261.36" y="192.024" width="39.49" height="71.5" fill="url(#linear-gradient-30)"/><rect x="261.36" y="192.024" width="39.49" height="71.5" fill="none" stroke="#fff" stroke-linecap="round" stroke-linejoin="round"/><path d="M438.9,233.824v-39.05c0-.928-.056-1.844-.142-2.75H398.035V230.8a8.826,8.826,0,0,1-8.8,8.8h-78.65v23.925H409.2A29.787,29.787,0,0,0,438.9,233.824Z" fill="url(#linear-gradient-31)"/><path d="M438.9,233.824v-39.05c0-.928-.056-1.844-.142-2.75H398.035V230.8a8.826,8.826,0,0,1-8.8,8.8h-78.65v23.925H409.2A29.787,29.787,0,0,0,438.9,233.824Z" fill="none" stroke="#fff" stroke-linecap="round" stroke-linejoin="round"/><path d="M261.36,183.609H438.9a25.323,25.323,0,0,0-14.017-21.927,22.931,22.931,0,0,0-8.959-1.833H261.36Z" fill="url(#linear-gradient-32)"/><path d="M261.36,183.609H438.9a25.323,25.323,0,0,0-14.017-21.927,22.931,22.931,0,0,0-8.959-1.833H261.36Z" fill="none" stroke="#fff" stroke-linecap="round" stroke-linejoin="round"/><rect x="195.36" y="192.024" width="39.49" height="71.5" fill="url(#linear-gradient-33)"/><rect x="195.36" y="192.024" width="39.49" height="71.5" fill="none" stroke="#fff" stroke-linecap="round" stroke-linejoin="round"/><rect x="97.735" y="192.024" width="41.14" height="71.5" fill="url(#linear-gradient-34)"/><rect x="97.735" y="192.024" width="41.14" height="71.5" fill="none" stroke="#fff" stroke-linecap="round" stroke-linejoin="round"/><path d="M1.21,183.609H234.85a25.323,25.323,0,0,0-14.017-21.927,22.931,22.931,0,0,0-8.959-1.833H1.21Z" fill="url(#linear-gradient-35)"/><path d="M1.21,183.609H234.85a25.323,25.323,0,0,0-14.017-21.927,22.931,22.931,0,0,0-8.959-1.833H1.21Z" fill="none" stroke="#fff" stroke-linecap="round" stroke-linejoin="round"/><rect x="1.21" y="192.024" width="39.49" height="71.5" fill="url(#linear-gradient-36)"/><rect x="1.21" y="192.024" width="39.49" height="71.5" fill="none" stroke="#fff" stroke-linecap="round" stroke-linejoin="round"/><path d="M0,132.739H58.143a42.939,42.939,0,1,0,3.627-85.8l-.217-.009c-.267-.011-.536-.02-.809-.025-.869-.027-1.733-.027-2.6,0l-14.929-.039a2.2,2.2,0,0,1,0-4.361h57.864V24.393H43.214a20.311,20.311,0,0,0,0,40.622l15.161.2a24.593,24.593,0,1,1,2.589,49.118c-.208.011-.417.019-.625.025q-.983.039-1.964,0H0v18.385" fill="#0060a8"/><path d="M0,110.072H58.218a20.311,20.311,0,0,0,.565-40.618H43.057a24.652,24.652,0,1,1-.451-49.3c.2,0,.405,0,.608,0h57.9V1.843h-57.9a42.9,42.9,0,0,0,0,85.8h15a2.122,2.122,0,0,1,.577,4.2,2.321,2.321,0,0,1-.577,0H0v18.162" fill="#0060a8"/><path d="M146.3,114.472A18.264,18.264,0,0,1,127.95,96.3V38.065A18.228,18.228,0,0,1,146.3,20.072h61.918V1.843H146.3a36.458,36.458,0,0,0-36.54,36.376v0h0V96.164a36.494,36.494,0,0,0,36.528,36.458h61.926v-18.19H146.3" fill="#0060a8"/><path d="M132.393,38.261A13.907,13.907,0,0,1,146.3,24.354h61.914V42.622H154.9a4.24,4.24,0,0,0-4.357,4.118v.125h44.625V65.054H132.306V38.261" fill="#0060a8"/><path d="M146.3,110.032a13.863,13.863,0,0,1-13.907-13.819h0V69.376H195.25v18.24H150.539a4.274,4.274,0,0,0,4.266,4.282h53.409v18.111H146.3" fill="#0060a8"/><path d="M251.853,114.393a18.264,18.264,0,0,1-18.268-18.229v-57.9a18.191,18.191,0,0,1,18.189-18.189h60.107V1.843H251.656a36.457,36.457,0,0,0-36.535,36.379h0V96.164a36.61,36.61,0,0,0,36.653,36.458h60.107V46.865H260.256V65.054h33.393v49.339h-41.8" fill="#0060a8"/><path d="M237.867,96.164a13.982,13.982,0,0,0,13.907,13.986h37.553V69.336H260.3v18.28h10.776V91.9h-10.69a4.321,4.321,0,0,1-4.282-4.282V46.865a4.321,4.321,0,0,1,4.281-4.361h51.544V24.315H251.774a13.907,13.907,0,0,0-13.907,13.907h0V96.164" fill="#0060a8"/><path d="M368.366,24.079a5.933,5.933,0,0,1,11.236,0l29.189,86.189H366.049V90.079h14.3l-6.443-19.093-20.9,61.636H331.481L368.366,24.079" fill="#0060a8"/><path d="M414.645,114.393h-48.5v18.229H440L401.579,18.972a29.421,29.421,0,0,0-55,0l-38.972,113.65h19.329L364.571,22.115a10.191,10.191,0,0,1,18.779-.039L414.779,114.4" fill="#0060a8"/></svg>