<svg id="Mega_Drive" data-name="Mega Drive" xmlns="http://www.w3.org/2000/svg" xmlns:xlink="http://www.w3.org/1999/xlink" viewBox="0 0 440 281.741"><defs><linearGradient id="linear-gradient" x1="337.75" y1="263.741" x2="337.75" y2="168.991" gradientUnits="userSpaceOnUse"><stop offset="0.42" stop-color="#f7f8fb"/><stop offset="0.567" stop-color="#f7f8fb"/><stop offset="0.8" stop-color="#81a4da"/><stop offset="1" stop-color="#334f9b"/></linearGradient><linearGradient id="linear-gradient-2" x1="360.451" y1="236.037" x2="363.54" y2="295.024" gradientUnits="userSpaceOnUse"><stop offset="0" stop-color="#39290a"/><stop offset="0.3" stop-color="#74572a" stop-opacity="0.7"/><stop offset="0.5" stop-color="#a48e61" stop-opacity="0.5"/><stop offset="1" stop-color="#a48e61" stop-opacity="0"/></linearGradient><linearGradient id="linear-gradient-3" x1="331.513" y1="252.704" x2="330.665" y2="264.831" gradientUnits="userSpaceOnUse"><stop offset="0" stop-color="#39290a"/><stop offset="0.3" stop-color="#74572a" stop-opacity="0.7"/><stop offset="0.5" stop-color="#a48e61" stop-opacity="0.5"/><stop offset="1" stop-color="#a48e61" stop-opacity="0.1"/></linearGradient><linearGradient id="linear-gradient-4" x1="388.838" y1="249.706" x2="391.038" y2="262.183" xlink:href="#linear-gradient-3"/><linearGradient id="linear-gradient-5" x1="275.776" y1="247.276" x2="276.706" y2="279.317" gradientUnits="userSpaceOnUse"><stop offset="0" stop-color="#39290a"/><stop offset="0.2" stop-color="#74572a" stop-opacity="0.8"/><stop offset="0.4" stop-color="#a48e61" stop-opacity="0.6"/><stop offset="1" stop-color="#a48e61" stop-opacity="0"/></linearGradient><linearGradient id="linear-gradient-6" x1="275.544" y1="252.813" x2="278.136" y2="281.29" xlink:href="#linear-gradient-5"/><linearGradient id="linear-gradient-7" x1="294" y1="198.241" x2="294" y2="263.741" gradientUnits="userSpaceOnUse"><stop offset="0" stop-opacity="0"/><stop offset="1"/></linearGradient><linearGradient id="linear-gradient-8" x1="126.75" y1="263.741" x2="126.75" y2="168.991" xlink:href="#linear-gradient"/><linearGradient id="linear-gradient-9" x1="218.371" y1="215.266" x2="214.248" y2="258.476" xlink:href="#linear-gradient-5"/><linearGradient id="linear-gradient-10" x1="216" y1="220.827" x2="216" y2="263.576" xlink:href="#linear-gradient-5"/><linearGradient id="linear-gradient-11" x1="215.794" y1="253.711" x2="216.2" y2="261.287" gradientUnits="userSpaceOnUse"><stop offset="0" stop-color="#74572a"/><stop offset="1" stop-color="#74572a" stop-opacity="0"/></linearGradient><linearGradient id="linear-gradient-12" x1="217.457" y1="250.691" x2="217.109" y2="244.834" xlink:href="#linear-gradient-11"/><linearGradient id="linear-gradient-13" x1="214.486" y1="235.808" x2="214.788" y2="238.559" xlink:href="#linear-gradient-11"/><linearGradient id="linear-gradient-14" x1="217.062" y1="235.852" x2="216.834" y2="232.057" xlink:href="#linear-gradient-11"/><linearGradient id="linear-gradient-15" x1="128" y1="215.366" x2="128" y2="253.575" xlink:href="#linear-gradient-5"/><linearGradient id="linear-gradient-16" x1="128" y1="219.574" x2="128" y2="263.576" xlink:href="#linear-gradient-5"/><linearGradient id="linear-gradient-17" x1="124.366" y1="232.106" x2="125.067" y2="229.211" xlink:href="#linear-gradient-11"/><linearGradient id="linear-gradient-18" x1="130.642" y1="232.679" x2="130.126" y2="235.381" xlink:href="#linear-gradient-11"/><linearGradient id="linear-gradient-19" x1="128.139" y1="257.425" x2="127.489" y2="263.379" xlink:href="#linear-gradient-11"/><linearGradient id="linear-gradient-20" x1="125.145" y1="255.447" x2="125.728" y2="249.849" xlink:href="#linear-gradient-11"/><radialGradient id="radial-gradient" cx="20.91" cy="265.031" fx="0.39621949057565686" fy="290.1802157341951" r="32.726" gradientTransform="translate(0 121.207) scale(1 0.543)" xlink:href="#linear-gradient-11"/><linearGradient id="linear-gradient-21" x1="46.488" y1="209.402" x2="32.762" y2="257.821" xlink:href="#linear-gradient-5"/><linearGradient id="linear-gradient-22" x1="45.455" y1="216.921" x2="32.974" y2="260.948" xlink:href="#linear-gradient-5"/><linearGradient id="linear-gradient-23" x1="42.558" y1="233.567" x2="41.923" y2="236.137" xlink:href="#linear-gradient-11"/><linearGradient id="linear-gradient-24" x1="35.626" y1="232.591" x2="36.464" y2="229.639" xlink:href="#linear-gradient-11"/><linearGradient id="linear-gradient-25" x1="35.019" y1="242.148" x2="36.267" y2="236.829" xlink:href="#linear-gradient-11"/><linearGradient id="linear-gradient-26" x1="41.374" y1="243.904" x2="40.133" y2="248.929" xlink:href="#linear-gradient-11"/><linearGradient id="linear-gradient-27" x1="146.75" y1="198.241" x2="146.75" y2="263.741" xlink:href="#linear-gradient-7"/><linearGradient id="linear-gradient-28" x1="234" y1="198.241" x2="234" y2="263.741" xlink:href="#linear-gradient-7"/><linearGradient id="linear-gradient-29" x1="57.5" y1="198.241" x2="57.5" y2="263.741" xlink:href="#linear-gradient-7"/></defs><title>md2</title><rect y="150.991" width="440" height="130.75" rx="16" ry="16"/><path d="M256.5,263.741h37v-65.5h-37Zm140.513-94.75H256.5v22.1H419C418.731,179.22,408.945,168.991,397.013,168.991Zm-16.263,29.25v35.25a8.024,8.024,0,0,1-8,8h-71.5v22.25H392a27.079,27.079,0,0,0,27-27v-35.5a27.033,27.033,0,0,0-.172-3Z" fill="url(#linear-gradient)"/><path d="M302.25,246.157c34.167-1.5,84.083,7.084,88.583-8.916,17.119.72,18.334-1.834,29.167-3.167,0,17.667-10.5,29.667-28.917,29.667H302.25Z" fill="url(#linear-gradient-2)"/><path d="M347.125,254.241c-14-1.367-13.375-4.874-44.875-3.25v12.75h57.875v-9.106A96.653,96.653,0,0,1,347.125,254.241Z" fill="url(#linear-gradient-3)"/><path d="M418.91,243.372c-12.892,1.469-21.409,3.777-33.41,7.119a108.723,108.723,0,0,1-25.375,4.144v9.106h30.958C406.047,263.741,415.784,255.819,418.91,243.372Z" fill="url(#linear-gradient-4)"/><path d="M420,232.563l-.184.022a79.957,79.957,0,0,0-8.666,1.587c-4.828,1.1-9,2.043-20.254,1.57a1.5,1.5,0,0,0-1.507,1.092c-2.86,10.171-29.115,9.185-54.506,8.232-11.1-.416-22.569-.847-32.633-.409v3l.065,0c9.956-.437,21.395-.009,32.456.407,7.638.287,15.157.569,22.122.569,17.561,0,31.581-1.8,34.987-9.85,10.844.377,15.264-.624,19.935-1.685A77.831,77.831,0,0,1,420,235.586Z"/><path d="M419.2,242.081l-.435.049c-12.733,1.452-21.065,3.665-33.6,7.157-13.444,3.742-25.491,4.922-37.919,3.71a82.2,82.2,0,0,1-9.918-1.621c-6.724-1.424-13.075-2.771-35.078-1.636v2.5l.064,0c21.725-1.115,27.93.192,34.5,1.583A84.263,84.263,0,0,0,347,255.485c3.207.312,6.389.471,9.573.471a107.654,107.654,0,0,0,29.258-4.261c12.252-3.412,20.454-5.589,32.716-7.02Q418.926,243.41,419.2,242.081Z"/><polygon points="257.5 263.741 257.5 248.053 294.5 246.241 294.5 263.741 257.5 263.741" fill="url(#linear-gradient-5)"/><polygon points="257.5 263.741 257.5 255.374 294.5 251.907 294.5 263.741 257.5 263.741" fill="url(#linear-gradient-6)"/><path d="M278.868,245.487c-6.641.422-14.154.876-21.363.879h0v3h.48c7.144,0,14.539-.471,21.079-.887,6.185-.393,11.533-.729,15.395-.615l1.5.046.091-3-1.5-.045C290.534,244.743,285.129,245.088,278.868,245.487Z"/><path d="M294.5,250.49l-.046,0c-2.9.107-9.229.836-16.555,1.678-6.83.787-14.562,1.677-20.4,2.149v2.509l.1-.008c5.89-.474,13.7-1.372,20.584-2.165,6.936-.8,13.486-1.553,16.315-1.663Z"/><rect x="293.5" y="198.241" width="1" height="65.5" fill="url(#linear-gradient-7)"/><path d="M20,198.241H57v65.5H20Zm87.75,65.5h38.5v-65.5h-38.5Zm88.75,0h37v-65.5h-37Zm15.013-94.75H20v22.1H233.5C233.231,179.22,223.445,168.991,211.513,168.991Z" fill="url(#linear-gradient-8)"/><path d="M231.25,220.324c-14.75,4.583.5-9.75-22-3.825,0,0-2.75.6-11.75-.008v47.25h37V219.928A9.378,9.378,0,0,0,231.25,220.324Z" fill="url(#linear-gradient-9)"/><path d="M197.5,220.866v42.875h37v-39.75C215,227.428,226.375,220.241,197.5,220.866Z" fill="url(#linear-gradient-10)"/><polygon points="197.5 254.116 197.5 263.741 234.5 263.741 234.5 251.366 197.5 254.116" fill="url(#linear-gradient-11)"/><polygon points="197.5 254.116 197.5 198.241 234.5 198.241 234.5 251.366 197.5 254.116" fill="url(#linear-gradient-12)"/><path d="M197.5,238.038c15.689-1.914,26.625-3.863,37-2.612v28.315h-37Z" fill="url(#linear-gradient-13)"/><path d="M197.5,238.038v-39.8h37v37.185C222.375,234.324,216.563,235.71,197.5,238.038Z" fill="url(#linear-gradient-14)"/><path d="M234.5,218.426a10.491,10.491,0,0,0-3.695.465c-5.211,1.62-5.487.776-5.986-.755-1.419-4.353-4.38-6.134-15.878-3.1-.027.006-2.814.54-11.339-.037l-.1-.007v3c8.871.6,11.771.037,12.132-.043,11.024-2.9,11.721-.769,12.334,1.116.743,2.28,1.845,3.671,4.6,3.67a18.207,18.207,0,0,0,5.18-.995,7.914,7.914,0,0,1,2.654-.317l.1.008Z"/><path d="M234.5,223.017l-.2.032c-10.84,1.759-12.509.726-14.622-.583-1.762-1.091-3.956-2.449-10.345-2.859a63.677,63.677,0,0,0-11.833-.025v2.531l.212-.036c.031,0,3.24-.526,11.458.024,5.768.371,7.587,1.5,9.192,2.491a11.3,11.3,0,0,0,6.992,1.894,59.95,59.95,0,0,0,9.146-.939Z"/><path d="M234.5,234.923c-8.982-1.124-17.949.165-25.863,1.3-3.961.57-7.7,1.107-11.137,1.309v1h.029c3.486-.2,7.257-.746,11.25-1.321,7.87-1.132,16.789-2.415,25.659-1.294l.062.008Z" fill="#39290a"/><path d="M197.5,251.431c19.25-1.482,23.833-3.69,37-2.013v4.833c-18.75-.552-31.535,1.8-37,2.383Z" fill="#39290a"/><path d="M108.75,216.116v47.625h38.5V215.366C136.25,216.907,119.375,214.991,108.75,216.116Z" fill="url(#linear-gradient-15)"/><polygon points="108.75 220.259 108.75 263.741 147.25 263.741 147.25 219.574 108.75 220.259" fill="url(#linear-gradient-16)"/><polygon points="108.75 229.084 147.25 235.968 147.25 198.241 108.75 198.241 108.75 229.084" fill="url(#linear-gradient-17)"/><polygon points="108.75 229.324 108.75 263.741 147.25 263.741 147.25 235.968 108.75 229.324" fill="url(#linear-gradient-18)"/><polygon points="108.75 253.657 108.75 263.741 147.25 263.741 147.25 257.824 108.75 253.657" fill="url(#linear-gradient-19)"/><polygon points="108.75 253.657 108.75 198.241 147.25 198.241 147.25 257.824 108.75 253.657" fill="url(#linear-gradient-20)"/><path d="M147.25,213.965l-.012-.085c-5.814.808-13.416.646-20.77.487a159.515,159.515,0,0,0-17.718.227v3.012a153.912,153.912,0,0,1,17.654-.239c7.311.155,14.855.311,20.846-.47Z"/><path d="M147.25,218.2h-.037c-3.357.1-6.446.309-9.717.533a183.842,183.842,0,0,1-28.658.178l-.088-.007v2.507c4.981.349,9.251.483,13.068.483,6.082,0,11.016-.337,15.848-.667,3.234-.221,6.29-.43,9.584-.528Z"/><path d="M108.75,228.573V229.6c1.126.236,12.081,2.5,38.418,6.865l.082.014v-1.013c-27.641-4.584-38.291-6.844-38.4-6.867Z" fill="#39290a"/><path d="M108.75,252.268c23.958,3.431,26.333,3.931,38.5,3.1v4.37c-14.792.126-20.25-.041-38.5-4.118Z" fill="#39290a"/><rect x="21" y="198.241" width="36" height="65.5" fill="url(#radial-gradient)"/><path d="M58,213.866c-29.625-2.625,7.75-6.625-37-9.5v59.375H58Z" fill="url(#linear-gradient-21)"/><path d="M58,219.428c-29.625-2.2-16-9.858-37-7.312v51.625H58Z" fill="url(#linear-gradient-22)"/><path d="M21,228.156s28.5,6.12,37,11.477v24.108H21Z" fill="url(#linear-gradient-23)"/><path d="M21,228.156V198.241H58v41.392S45.063,233.009,21,228.156Z" fill="url(#linear-gradient-24)"/><polygon points="58 198.241 21 198.241 21 239.241 58 247.866 58 198.241" fill="url(#linear-gradient-25)"/><polygon points="21 239.241 21 263.741 58 263.741 58 247.866 21 239.241" fill="url(#linear-gradient-26)"/><path d="M58,212.359c-9.28-.83-11.088-1.774-11.435-2.109.005-.083.024-.213.039-.315a3.191,3.191,0,0,0-.584-2.648c-1.224-1.5-4.155-3.084-24.924-4.418l-.1-.007v3.007c18.571,1.2,22.192,2.591,22.671,3.254a2.376,2.376,0,0,1-.038.39,3.089,3.089,0,0,0,.54,2.556c1.095,1.38,3.767,2.411,13.7,3.291l.132.012Z"/><path d="M58,218.236c-14.794-1.211-19.461-3.793-22.869-5.678-3.393-1.878-5.653-3.12-14.131-1.67v2.535l.214-.038c7.8-1.358,9.539-.393,12.706,1.36,3.616,2,8.567,4.741,23.979,5.992l.1.008Z"/><path d="M21,228.665c1.624.313,24.067,4.72,36.767,11.411L58,240.2v-1.127c-13.288-6.91-36.671-11.363-36.908-11.407L21,227.647Z" fill="#39290a"/><path d="M21,237.634c26.781,4.919,16.406,4.575,37,8.664v3.357c-22.664-6.516-23.937-6.852-37-9.491Z" fill="#39290a"/><rect x="146.25" y="198.241" width="1" height="65.5" fill="url(#linear-gradient-27)"/><rect x="233.5" y="198.241" width="1" height="65.5" fill="url(#linear-gradient-28)"/><rect x="57" y="198.241" width="1" height="65.5" fill="url(#linear-gradient-29)"/><path d="M0,132.739H58.143a42.939,42.939,0,1,0,3.41-85.81q-.4-.017-.809-.025c-.869-.027-1.733-.027-2.6,0l-14.929-.039a2.2,2.2,0,0,1,0-4.361h57.864V24.393H43.214a20.311,20.311,0,0,0,0,40.622l15.161.2a24.593,24.593,0,0,1,2.589,49.118c-.208.011-.417.019-.625.025q-.983.039-1.964,0H0v18.385" fill="#0060a8"/><path d="M0,110.072H58.218a20.311,20.311,0,0,0,.565-40.618c-.189,0-.377,0-.565,0H43.057a24.652,24.652,0,1,1,.157-49.3h57.9V1.843h-57.9a42.9,42.9,0,0,0,0,85.8h15a2.122,2.122,0,0,1,.577,4.2,2.321,2.321,0,0,1-.577,0H0v18.162" fill="#0060a8"/><path d="M146.3,114.472A18.264,18.264,0,0,1,127.95,96.291V38.065A18.228,18.228,0,0,1,146.3,20.072h61.918V1.843H146.3A36.458,36.458,0,0,0,109.76,38.222h0V96.164a36.494,36.494,0,0,0,36.528,36.458h61.926v-18.19H146.3" fill="#0060a8"/><path d="M132.393,38.261A13.907,13.907,0,0,1,146.3,24.354h61.914V42.622H154.9a4.24,4.24,0,0,0-4.357,4.118v.125h44.625V65.054H132.306V38.261" fill="#0060a8"/><path d="M146.3,110.032a13.863,13.863,0,0,1-13.907-13.82V69.376h62.857v18.24H150.539a4.274,4.274,0,0,0,4.266,4.282h53.409v18.111H146.3" fill="#0060a8"/><path d="M251.853,114.393a18.264,18.264,0,0,1-18.268-18.229v-57.9a18.19,18.19,0,0,1,18.189-18.189h60.107V1.843H251.656a36.457,36.457,0,0,0-36.535,36.379h0V96.164a36.61,36.61,0,0,0,36.653,36.458h60.107V46.865H260.256V65.054h33.393v49.339h-41.8" fill="#0060a8"/><path d="M237.867,96.164a13.982,13.982,0,0,0,13.907,13.986h37.553V69.336H260.3v18.28h10.776V91.9H260.386a4.321,4.321,0,0,1-4.282-4.282V46.865a4.321,4.321,0,0,1,4.281-4.361h51.544V24.315H251.774a13.907,13.907,0,0,0-13.907,13.907h0V96.164" fill="#0060a8"/><path d="M368.366,24.079a5.933,5.933,0,0,1,11.236,0l29.189,86.189H366.049V90.079h14.3l-6.443-19.093-20.9,61.636H331.481L368.366,24.079" fill="#0060a8"/><path d="M414.645,114.393h-48.5v18.229H440L401.579,18.972a29.421,29.421,0,0,0-55,0l-38.972,113.65h19.329L364.571,22.115a10.191,10.191,0,0,1,18.779-.039L414.779,114.4" fill="#0060a8"/></svg>