<svg id="Mega_Drive" data-name="Mega Drive" xmlns="http://www.w3.org/2000/svg" xmlns:xlink="http://www.w3.org/1999/xlink" viewBox="0 0 440 268.979"><defs><linearGradient id="linear-gradient" x1="343.344" y1="19.023" x2="343.344" y2="123.554" gradientTransform="matrix(1, 0, 0, -1, 0, 282)" gradientUnits="userSpaceOnUse"><stop offset="0.42" stop-color="#f7f8fb"/><stop offset="0.567" stop-color="#f7f8fb"/><stop offset="0.8" stop-color="#81a4da"/><stop offset="1" stop-color="#334f9b"/></linearGradient><linearGradient id="linear-gradient-2" x1="368.387" y1="49.586" x2="371.796" y2="-15.491" gradientTransform="matrix(1, 0, 0, -1, 0, 282)" gradientUnits="userSpaceOnUse"><stop offset="0" stop-color="#39290a"/><stop offset="0.3" stop-color="#74572a" stop-opacity="0.7"/><stop offset="0.5" stop-color="#a48e61" stop-opacity="0.5"/><stop offset="1" stop-color="#a48e61" stop-opacity="0"/></linearGradient><linearGradient id="linear-gradient-3" x1="336.463" y1="31.199" x2="335.527" y2="17.82" gradientTransform="matrix(1, 0, 0, -1, 0, 282)" gradientUnits="userSpaceOnUse"><stop offset="0" stop-color="#39290a"/><stop offset="0.3" stop-color="#74572a" stop-opacity="0.7"/><stop offset="0.5" stop-color="#a48e61" stop-opacity="0.5"/><stop offset="1" stop-color="#a48e61" stop-opacity="0.1"/></linearGradient><linearGradient id="linear-gradient-4" x1="399.706" y1="34.506" x2="402.133" y2="20.741" xlink:href="#linear-gradient-3"/><linearGradient id="linear-gradient-5" x1="274.971" y1="37.187" x2="275.998" y2="1.838" gradientTransform="matrix(1, 0, 0, -1, 0, 282)" gradientUnits="userSpaceOnUse"><stop offset="0" stop-color="#39290a"/><stop offset="0.2" stop-color="#74572a" stop-opacity="0.8"/><stop offset="0.4" stop-color="#a48e61" stop-opacity="0.6"/><stop offset="1" stop-color="#a48e61" stop-opacity="0"/></linearGradient><linearGradient id="linear-gradient-6" x1="274.715" y1="31.079" x2="277.575" y2="-0.338" xlink:href="#linear-gradient-5"/><linearGradient id="linear-gradient-7" x1="295.077" y1="91.285" x2="295.077" y2="19.023" gradientTransform="matrix(1, 0, 0, -1, 0, 282)" gradientUnits="userSpaceOnUse"><stop offset="0" stop-opacity="0"/><stop offset="1"/></linearGradient><linearGradient id="linear-gradient-8" x1="123.687" y1="18.937" x2="123.687" y2="123.468" xlink:href="#linear-gradient"/><linearGradient id="linear-gradient-9" x1="224.766" y1="72.415" x2="220.218" y2="24.745" xlink:href="#linear-gradient-5"/><linearGradient id="linear-gradient-10" x1="222.15" y1="66.281" x2="222.15" y2="19.118" xlink:href="#linear-gradient-5"/><linearGradient id="linear-gradient-11" x1="221.923" y1="30.002" x2="222.37" y2="21.644" gradientTransform="matrix(1, 0, 0, -1, 0, 282)" gradientUnits="userSpaceOnUse"><stop offset="0" stop-color="#74572a"/><stop offset="1" stop-color="#74572a" stop-opacity="0"/></linearGradient><linearGradient id="linear-gradient-12" x1="223.757" y1="33.334" x2="223.373" y2="39.795" xlink:href="#linear-gradient-11"/><linearGradient id="linear-gradient-13" x1="220.48" y1="49.753" x2="220.814" y2="46.718" xlink:href="#linear-gradient-11"/><linearGradient id="linear-gradient-14" x1="223.321" y1="49.705" x2="223.07" y2="53.892" xlink:href="#linear-gradient-11"/><linearGradient id="linear-gradient-15" x1="125.067" y1="72.306" x2="125.067" y2="30.152" xlink:href="#linear-gradient-5"/><linearGradient id="linear-gradient-16" x1="125.065" y1="67.663" x2="125.065" y2="19.119" xlink:href="#linear-gradient-5"/><linearGradient id="linear-gradient-17" x1="121.055" y1="53.838" x2="121.829" y2="57.031" xlink:href="#linear-gradient-11"/><linearGradient id="linear-gradient-18" x1="127.981" y1="53.205" x2="127.412" y2="50.224" xlink:href="#linear-gradient-11"/><linearGradient id="linear-gradient-19" x1="125.219" y1="25.905" x2="124.502" y2="19.336" xlink:href="#linear-gradient-11"/><linearGradient id="linear-gradient-20" x1="121.916" y1="28.087" x2="122.559" y2="34.263" xlink:href="#linear-gradient-11"/><radialGradient id="radial-gradient" cx="6.921" cy="37.433" fx="-15.711509009270564" fy="65.1783089593325" r="36.105" gradientTransform="matrix(1, 0, 0, -0.543, 0, 284.851)" xlink:href="#linear-gradient-11"/><linearGradient id="linear-gradient-21" x1="35.138" y1="78.886" x2="19.995" y2="25.468" xlink:href="#linear-gradient-5"/><linearGradient id="linear-gradient-22" x1="33.998" y1="70.591" x2="20.229" y2="22.018" xlink:href="#linear-gradient-5"/><linearGradient id="linear-gradient-23" x1="30.805" y1="52.225" x2="30.104" y2="49.39" xlink:href="#linear-gradient-11"/><linearGradient id="linear-gradient-24" x1="23.156" y1="53.302" x2="24.081" y2="56.56" xlink:href="#linear-gradient-11"/><linearGradient id="linear-gradient-25" x1="22.486" y1="42.759" x2="23.863" y2="48.626" xlink:href="#linear-gradient-11"/><linearGradient id="linear-gradient-26" x1="29.497" y1="40.821" x2="28.127" y2="35.278" xlink:href="#linear-gradient-11"/><linearGradient id="linear-gradient-27" x1="145.751" y1="91.199" x2="145.751" y2="18.937" xlink:href="#linear-gradient-7"/><linearGradient id="linear-gradient-28" x1="242.008" y1="91.199" x2="242.008" y2="18.937" xlink:href="#linear-gradient-7"/><linearGradient id="linear-gradient-29" x1="47.288" y1="91.199" x2="47.288" y2="18.937" xlink:href="#linear-gradient-7"/></defs><title>megadrive -23</title><path d="M0,132.739H58.143a42.939,42.939,0,1,0,3.627-85.8l-.217-.009c-.267-.011-.536-.02-.809-.025-.869-.027-1.733-.027-2.6,0l-14.929-.039a2.2,2.2,0,0,1,0-4.361h57.864V24.393H43.214a20.311,20.311,0,0,0,0,40.622l15.161.2a24.593,24.593,0,1,1,2.589,49.118c-.208.011-.417.019-.625.025q-.983.039-1.964,0H0v18.385" fill="#0060a8"/><path d="M0,110.072H58.218a20.311,20.311,0,0,0,.565-40.618H43.057a24.652,24.652,0,1,1-.451-49.3c.2,0,.405,0,.608,0h57.9V1.843h-57.9a42.9,42.9,0,0,0,0,85.8h15a2.122,2.122,0,0,1,.577,4.2,2.321,2.321,0,0,1-.577,0H0v18.162" fill="#0060a8"/><path d="M146.3,114.472A18.264,18.264,0,0,1,127.95,96.3V38.065A18.228,18.228,0,0,1,146.3,20.072h61.918V1.843H146.3a36.458,36.458,0,0,0-36.54,36.376v0h0V96.164a36.494,36.494,0,0,0,36.528,36.458h61.926v-18.19H146.3" fill="#0060a8"/><path d="M132.393,38.261A13.907,13.907,0,0,1,146.3,24.354h61.914V42.622H154.9a4.24,4.24,0,0,0-4.357,4.118v.125h44.625V65.054H132.306V38.261" fill="#0060a8"/><path d="M146.3,110.032a13.863,13.863,0,0,1-13.907-13.819h0V69.376H195.25v18.24H150.539a4.274,4.274,0,0,0,4.266,4.282h53.409v18.111H146.3" fill="#0060a8"/><path d="M251.853,114.393a18.264,18.264,0,0,1-18.268-18.229v-57.9a18.191,18.191,0,0,1,18.189-18.189h60.107V1.843H251.656a36.457,36.457,0,0,0-36.535,36.379h0V96.164a36.61,36.61,0,0,0,36.653,36.458h60.107V46.865H260.256V65.054h33.393v49.339h-41.8" fill="#0060a8"/><path d="M237.867,96.164a13.982,13.982,0,0,0,13.907,13.986h37.553V69.336H260.3v18.28h10.776V91.9h-10.69a4.321,4.321,0,0,1-4.282-4.282V46.865a4.321,4.321,0,0,1,4.281-4.361h51.544V24.315H251.774a13.907,13.907,0,0,0-13.907,13.907h0V96.164" fill="#0060a8"/><path d="M368.366,24.079a5.933,5.933,0,0,1,11.236,0l29.189,86.189H366.049V90.079h14.3l-6.443-19.093-20.9,61.636H331.481L368.366,24.079" fill="#0060a8"/><path d="M414.645,114.393h-48.5v18.229H440L401.579,18.972a29.421,29.421,0,0,0-55,0l-38.972,113.65h19.329L364.571,22.115a10.191,10.191,0,0,1,18.779-.039L414.779,114.4" fill="#0060a8"/><path d="M440,182.913a29.948,29.948,0,0,0-8.926-21.264,30.586,30.586,0,0,0-21.769-9.033l-161.516.042V268.894H401.134c24.7,0,38.866-14.694,38.866-40.313Zm-138.456,49.6V188.871h83.325v39.99c0,3.653-2.638,3.653-3.505,3.653Z"/><path d="M253.705,262.978h40.821V190.716H253.705ZM408.726,158.446H253.705v24.382H432.982C432.686,169.732,421.888,158.446,408.726,158.446Zm-17.941,32.27v38.889a8.854,8.854,0,0,1-8.826,8.826H303.075v24.547H403.194a29.875,29.875,0,0,0,29.788-29.788V194.026a29.764,29.764,0,0,0-.19-3.31Z" fill="url(#linear-gradient)"/><path d="M304.178,243.579c37.694-1.656,92.765,7.815,97.728-9.837,18.887.8,20.226-2.023,32.178-3.493,0,19.49-11.584,32.729-31.9,32.729h-98Z" fill="url(#linear-gradient-2)"/><path d="M353.686,252.5c-15.445-1.508-14.756-5.377-49.508-3.585v14.066h63.85V252.932A106.634,106.634,0,0,1,353.686,252.5Z" fill="url(#linear-gradient-3)"/><path d="M432.881,240.507c-14.222,1.62-23.619,4.166-36.857,7.853a119.922,119.922,0,0,1-28,4.572v10.046h34.155C418.691,262.978,429.433,254.238,432.881,240.507Z" fill="url(#linear-gradient-4)"/><path d="M434.084,228.581l-.2.025a87.807,87.807,0,0,0-9.561,1.751c-5.324,1.209-9.929,2.254-22.345,1.731a1.653,1.653,0,0,0-1.664,1.206c-3.154,11.221-32.119,10.133-60.132,9.081-12.242-.459-24.9-.935-36-.452v3.313h.072c10.984-.481,23.606-.01,35.806.45,8.427.316,16.722.628,24.406.628,19.374,0,34.841-1.984,38.6-10.868,11.963.414,16.84-.688,21.994-1.858a85.553,85.553,0,0,1,9.029-1.668Z"/><path d="M433.205,239.081l-.481.055c-14.046,1.6-23.239,4.044-37.071,7.9-14.832,4.129-28.123,5.431-41.833,4.093a90.37,90.37,0,0,1-10.945-1.787c-7.418-1.571-14.425-3.058-38.7-1.806v2.761l.071,0c23.968-1.23,30.814.213,38.057,1.747a92.945,92.945,0,0,0,11.246,1.834c3.539.345,7.049.519,10.562.519a118.711,118.711,0,0,0,32.278-4.7c13.518-3.765,22.565-6.167,36.093-7.745Q432.9,240.55,433.205,239.081Z"/><polygon points="254.809 262.978 254.809 245.671 295.628 243.671 295.628 262.978 254.809 262.978" fill="url(#linear-gradient-5)"/><polygon points="254.809 262.978 254.809 253.747 295.628 249.923 295.628 262.978 254.809 262.978" fill="url(#linear-gradient-6)"/><path d="M295.628,248.359h-.05c-3.2.118-10.183.922-18.264,1.852-7.535.868-16.065,1.85-22.505,2.37v2.768l.111-.008c6.5-.523,15.111-1.514,22.709-2.389,7.652-.881,14.878-1.715,18-1.834Z"/><rect x="294.525" y="190.716" width="1.103" height="72.262" fill="url(#linear-gradient-7)"/><path d="M278.593,246.142c6.824-.433,12.724-.8,16.985-.68h.05v-3.309c-4.421-.133-10.363.247-17.245.685-7.328.466-15.619.967-23.569.97h0v3.309h.532C263.219,247.123,271.378,246.6,278.593,246.142Z"/><path d="M254.623,191.268v71.71h.591V191.563h39.311v-.591H254.919A.3.3,0,0,0,254.623,191.268Z" fill="#fff"/><path d="M255.214,182.828V159.293H409.937a23.2,23.2,0,0,1,14.317,5.1,24.069,24.069,0,0,0-10.084-5.282,22.614,22.614,0,0,0-4.233-.409H254.919a.3.3,0,0,0-.3.3v23.83Z" fill="#fff"/><path d="M304.585,239.278h78.584a9.131,9.131,0,0,0,9.121-9.122V191.563h40.574c-.017-.2-.03-.395-.05-.591H392a.3.3,0,0,0-.3.3v38.888a8.539,8.539,0,0,1-8.531,8.53h-78.88a.3.3,0,0,0-.3.3v24h.592Z" fill="#fff"/><path d="M248.477,182.913a29.948,29.948,0,0,0-8.926-21.264,30.584,30.584,0,0,0-21.769-9.033H0V268.979H53.755v-80.15H96.809v80.15h55.41v-80.15h42.5v80.15h53.757Z"/><path d="M5.916,190.8H46.737v72.262H5.916Zm96.809,72.262H145.2V190.8H102.725Zm97.911,0h40.821V190.8H200.636ZM217.2,158.532H5.916v24.381h235.54c-.3-13.1-11.092-24.381-24.257-24.381Z" fill="url(#linear-gradient-8)"/><path d="M238.974,215.164c-16.273,5.057.552-10.756-24.271-4.219,0,0-3.034.666-12.963-.01v52.128h40.821V214.729A10.366,10.366,0,0,0,238.974,215.164Z" fill="url(#linear-gradient-9)"/><path d="M201.74,215.762v47.3h40.821V219.21C221.047,223,233.6,215.072,201.74,215.762Z" fill="url(#linear-gradient-10)"/><polygon points="201.74 252.444 201.74 263.063 242.56 263.063 242.56 249.411 201.74 252.444" fill="url(#linear-gradient-11)"/><polygon points="201.74 252.444 201.74 190.801 242.56 190.801 242.56 249.411 201.74 252.444" fill="url(#linear-gradient-12)"/><path d="M201.74,234.707c17.308-2.112,29.374-4.26,40.821-2.881v31.237H201.74Z" fill="url(#linear-gradient-13)"/><path d="M201.74,234.707V190.8h40.821v41.025C229.181,230.61,222.77,232.139,201.74,234.707Z" fill="url(#linear-gradient-14)"/><path d="M242.56,213.07a11.606,11.606,0,0,0-4.077.513c-5.749,1.788-6.053.857-6.6-.832-1.565-4.8-4.832-6.767-17.517-3.425-.03.006-3.1.595-12.509-.041l-.113-.008v3.313c9.787.66,12.986.041,13.385-.048,12.162-3.2,12.93-.848,13.607,1.231.819,2.516,2.034,4.05,5.069,4.049a20.051,20.051,0,0,0,5.715-1.1,8.759,8.759,0,0,1,2.928-.349l.115.008Z"/><path d="M242.56,218.135l-.221.036c-11.959,1.94-13.8.8-16.131-.643-1.945-1.2-4.365-2.7-11.413-3.155-8.265-.554-12.106-.156-13.055-.028v2.793l.237-.04c.034-.005,3.574-.58,12.641.027,6.363.409,8.37,1.652,10.14,2.748a12.472,12.472,0,0,0,7.715,2.089,66.083,66.083,0,0,0,10.09-1.035Z"/><path d="M242.56,231.271c-9.909-1.243-19.8.181-28.534,1.438-4.369.629-8.5,1.221-12.286,1.445v1.1h.032c3.846-.223,8.006-.823,12.411-1.456,8.683-1.248,18.523-2.662,28.308-1.428l.069.009Z" fill="#39290a"/><path d="M201.74,249.483c21.239-1.635,26.294-4.072,40.821-2.22v5.331c-20.686-.609-34.791,1.982-40.821,2.629Z" fill="#39290a"/><path d="M103.828,210.522v52.541h42.478V209.694C134.168,211.4,115.55,209.281,103.828,210.522Z" fill="url(#linear-gradient-15)"/><polygon points="103.828 215.093 103.828 263.063 146.303 263.063 146.303 214.337 103.828 215.093" fill="url(#linear-gradient-16)"/><polygon points="103.828 224.829 146.303 232.423 146.303 190.801 103.828 190.801 103.828 224.829" fill="url(#linear-gradient-17)"/><polygon points="103.828 225.094 103.828 263.063 146.303 263.063 146.303 232.423 103.828 225.094" fill="url(#linear-gradient-18)"/><polygon points="103.828 251.939 103.828 263.063 146.303 263.063 146.303 256.536 103.828 251.939" fill="url(#linear-gradient-19)"/><polygon points="103.828 251.939 103.828 190.801 146.303 190.801 146.303 256.536 103.828 251.939" fill="url(#linear-gradient-20)"/><path d="M146.3,208.149l-.013-.094c-6.415.891-14.8.71-22.915.537a175.86,175.86,0,0,0-19.547.251v3.322c5.408-.562,12.242-.414,19.477-.263,8.065.172,16.388.344,23-.518Z"/><path d="M146.3,212.82h-.041c-3.7.109-7.111.341-10.721.588a202.7,202.7,0,0,1-31.615.2l-.1-.007v2.765c5.495.386,10.206.533,14.418.533,6.709,0,12.152-.372,17.483-.736,3.568-.243,6.94-.474,10.574-.582Z"/><path d="M103.828,224.265v1.128c1.242.261,13.328,2.759,42.385,7.573l.09.015v-1.118c-30.495-5.057-42.241-7.551-42.36-7.573Z" fill="#39290a"/><path d="M103.828,250.409c26.432,3.786,29.052,4.337,42.478,3.422v4.822c-16.319.138-22.341-.046-42.478-4.543Z" fill="#39290a"/><rect x="7.019" y="190.801" width="39.717" height="72.262" fill="url(#radial-gradient)"/><path d="M47.839,208.039c-32.683-2.9,8.55-7.308-40.821-10.481v65.505H47.839Z" fill="url(#linear-gradient-21)"/><path d="M47.839,214.176c-32.683-2.432-17.652-10.876-40.821-8.067v56.954H47.839Z" fill="url(#linear-gradient-22)"/><path d="M7.019,223.805s31.443,6.751,40.821,12.66v26.6H7.019Z" fill="url(#linear-gradient-23)"/><path d="M7.019,223.805v-33H47.84v45.666S33.566,229.159,7.019,223.805Z" fill="url(#linear-gradient-24)"/><polygon points="47.839 190.801 7.019 190.801 7.019 236.034 47.839 245.549 47.839 190.801" fill="url(#linear-gradient-25)"/><polygon points="7.019 236.034 7.019 263.063 47.839 263.063 47.839 245.549 7.019 236.034" fill="url(#linear-gradient-26)"/><path d="M47.839,206.377c-10.238-.916-12.233-1.957-12.615-2.326.005-.092.026-.237.042-.348a3.521,3.521,0,0,0-.644-2.922c-1.35-1.657-4.584-3.4-27.5-4.874l-.106-.007v3.317c20.488,1.319,24.484,2.857,25.012,3.59a2.821,2.821,0,0,1-.042.43,3.409,3.409,0,0,0,.6,2.82c1.207,1.522,4.156,2.662,15.108,3.631l.146.013Z"/><path d="M47.839,212.861c-16.321-1.336-21.47-4.184-25.23-6.264-3.743-2.071-6.236-3.442-15.59-1.843v2.8l.237-.042c8.6-1.5,10.524-.434,14.021,1.5,3.988,2.207,9.451,5.231,26.454,6.611l.111.009Z"/><path d="M7.019,224.366c1.792.346,26.552,5.206,40.563,12.589l.257.135v-1.242C33.18,228.223,7.382,223.313,7.121,223.263l-.1-.019Z" fill="#39290a"/><path d="M7.019,234.261c29.546,5.428,18.1,5.048,40.821,9.559v3.7c-25-7.19-26.408-7.56-40.821-10.471Z" fill="#39290a"/><rect x="145.199" y="190.801" width="1.103" height="72.262" fill="url(#linear-gradient-27)"/><rect x="241.456" y="190.801" width="1.103" height="72.262" fill="url(#linear-gradient-28)"/><rect x="46.736" y="190.801" width="1.103" height="72.262" fill="url(#linear-gradient-29)"/><path d="M201.552,191.353v71.71h.592V191.649h39.312v-.592H201.848A.3.3,0,0,0,201.552,191.353Z" fill="#fff"/><path d="M103.641,191.353v71.71h.592V191.649H145.2v-.592H103.937A.3.3,0,0,0,103.641,191.353Z" fill="#fff"/><path d="M7.425,182.913V159.38H218.413a23.2,23.2,0,0,1,14.321,5.1,24.077,24.077,0,0,0-10.082-5.284,22.587,22.587,0,0,0-4.239-.41H7.129a.3.3,0,0,0-.295.3v23.829Z" fill="#fff"/><path d="M6.834,191.353v71.71h.591V191.649H46.736v-.592H7.129A.3.3,0,0,0,6.834,191.353Z" fill="#fff"/></svg>