<svg id="Layer_1" data-name="Layer 1" xmlns="http://www.w3.org/2000/svg" viewBox="0 0 112 34.021"><title>memotechmtx</title><path d="M75.738,0V3.887H61.832V34.021h-3.9V3.887H44.083V0Z" fill="#fff"/><path d="M111.128,0,96.837,16.337,112,34.021h-4.753L96.3,20.965c-.821-1.006-1.464-1.77-1.924-2.3-.541.713-1.174,1.5-1.895,2.345L81.708,34.021H77.135L92.115,16.43,78.189,0H82.85l9.806,11.761,2.047,2.37c.28-.307.642-.738,1.083-1.3.462-.574.772-.964.931-1.159L106.585,0Z" fill="#fff"/><path d="M34.518,0,24.428,21.957q-.928,1.944-4.25,9.461-1.935-4.6-4.248-9.594L5.957,0H0V34.021H3.555V13.476l-.086-7.75c0-.685.009-1.344.029-1.97h.636Q6.186,8.7,8.3,13.26l9.567,20.761h4.423L32,13.26q3.209-7.27,4.077-9.5h.663l-.056,9.681V34.021h3.729V0Z" fill="#fff"/></svg>