<svg id="svg2" xmlns="http://www.w3.org/2000/svg" viewBox="0 0 131.32 131.32"><title>metacritic</title><path id="path3481" d="M122.026,63.559a57.384,57.384,0,1,1,0-.067"/><path id="path3402" d="M65.6,0A65.66,65.66,0,1,0,131.32,65.659v-.076A65.66,65.66,0,0,0,65.6,0Zm-.3,14.033A51.429,51.429,0,0,1,116.777,65.4v.059A51.429,51.429,0,1,1,65.3,14.033Z" fill="#ffce35"/><g id="text3351"><path id="path3345" d="M56.5,108.132l11.2-11.2L46.133,75.378a10.758,10.758,0,0,1-2.42-3.328c-1.211-2.572-1.74-6.581,1.21-9.531,3.631-3.631,8.472-2.118,13.162,2.572L78.811,85.817,90.006,74.622,68.372,52.988a13.584,13.584,0,0,1-2.5-3.4,7.957,7.957,0,0,1,1.286-9.3c3.706-3.707,8.548-2.345,13.918,3.026L101.2,63.427l11.2-11.195L90.611,30.446C79.567,19.4,69.2,19.781,62.094,26.891a18.877,18.877,0,0,0-5.22,8.85,22.046,22.046,0,0,0-.3,9.229l-.151.151c-5.447-2.269-11.649-.908-16.415,3.858A18.142,18.142,0,0,0,34.635,66l-.227.227-5.522-4.463L19.2,71.445c3.4,3.1,7.489,6.883,12.1,11.5L56.5,108.132Z" fill="#fff"/></g></svg>