<svg id="Capa_1" data-name="Capa 1" xmlns="http://www.w3.org/2000/svg" xmlns:xlink="http://www.w3.org/1999/xlink" viewBox="0 0 71.666 71.667"><defs><linearGradient id="linear-gradient" x1="10.496" y1="10.496" x2="61.169" y2="61.169" gradientUnits="userSpaceOnUse"><stop offset="0" stop-color="#f7907b"/><stop offset="1" stop-color="#ec7069"/></linearGradient></defs><title>missing</title><path d="M35.354,0A35.833,35.833,0,1,0,71.663,35.351,35.837,35.837,0,0,0,35.354,0Z" fill="url(#linear-gradient)"/><path d="M36.18,65.083l-.254,0a6.7,6.7,0,0,1,.158-13.39l.227,0a6.7,6.7,0,1,1-.131,13.39Z" fill="#b44a27"/><path d="M52.635,32.424a30.413,30.413,0,0,1-5.492,4.916l-2.807,1.938a7.632,7.632,0,0,0-2.82,3.434,7.108,7.108,0,0,0-.434,2.88l0,.451H30.36l.031-.907c.131-3.728.223-5.921,1.768-7.733,2.424-2.846,7.771-6.289,8-6.435a8.44,8.44,0,0,0,1.893-1.936,6.814,6.814,0,0,0,1.623-3.972A7.741,7.741,0,0,0,42.2,20.484c-.939-1.323-2.723-1.993-5.3-1.993-2.559,0-4.311.812-5.359,2.478a9.951,9.951,0,0,0-1.623,5.35v.457H18.866l.02-.477c.285-6.769,2.7-11.643,7.178-14.487a18.9,18.9,0,0,1,10.4-2.729c5.346,0,9.859,1.3,13.412,3.861,3.6,2.6,5.426,6.484,5.426,11.556A13.22,13.22,0,0,1,52.635,32.424Z" fill="#b44a27"/><path d="M34.93,63.833l-.254,0a6.7,6.7,0,0,1,.158-13.39l.227,0a6.7,6.7,0,1,1-.131,13.39Z" fill="#e6e6e6"/><path d="M51.385,31.174a30.413,30.413,0,0,1-5.492,4.916l-2.807,1.938a7.632,7.632,0,0,0-2.82,3.434,7.108,7.108,0,0,0-.434,2.88l0,.451H29.11l.031-.907c.131-3.728.223-5.921,1.768-7.733,2.424-2.846,7.771-6.289,8-6.435A8.44,8.44,0,0,0,40.8,27.782a6.814,6.814,0,0,0,1.623-3.972,7.741,7.741,0,0,0-1.471-4.576c-.939-1.323-2.723-1.993-5.3-1.993-2.559,0-4.311.812-5.359,2.478a9.951,9.951,0,0,0-1.623,5.35v.457H17.616l.02-.477c.285-6.769,2.7-11.643,7.178-14.487a18.9,18.9,0,0,1,10.4-2.729c5.346,0,9.859,1.3,13.412,3.861,3.6,2.6,5.426,6.484,5.426,11.556A13.22,13.22,0,0,1,51.385,31.174Z" fill="#e6e6e6"/></svg>