<svg id="Layer_1" data-name="Layer 1" xmlns="http://www.w3.org/2000/svg" viewBox="0 0 93.364 110.587"><title>music</title><path d="M29.364,19.8V82.31A23.559,23.559,0,0,0,18.59,79.667C8.34,79.667.628,86.589.031,95.08c-.607,8.634,7.787,16.454,18.559,15.414,8.728-.843,16.878-7.78,18.559-15.414a16.563,16.563,0,0,0,.214-1.85V34.323l48-14.848V64.729a21.482,21.482,0,0,0-10.052-2.5c-9.922,0-17.386,6.9-17.965,15.367C56.76,86.2,64.836,93.2,75.312,92.963,84.268,92.764,92.2,85.9,93.276,77.6a10.642,10.642,0,0,0,.078-1.408L93.364,0Z" fill="#fff"/></svg>