<svg id="Layer_1" data-name="Layer 1" xmlns="http://www.w3.org/2000/svg" viewBox="0 0 143.786 85.188"><title>necsupergrafx</title><polygon points="10.938 0 0 12.438 0 37.182 11.249 48.806 20.449 48.806 20.449 33.313 16.828 33.313 16.828 16.188 28.9 16.188 28.9 26.629 44.347 26.629 44.347 11.924 33.676 0 10.938 0" fill="#2ba7ed"/><polygon points="24.865 33.313 24.865 48.806 27.625 48.806 27.625 68.891 15.563 68.891 15.563 58.406 0 58.406 0 73.094 10.734 85.188 33.297 85.188 44.406 72.656 44.406 44.953 33.156 33.313 24.865 33.313" fill="#2ba7ed"/><path d="M143.786,15.988V0H67.16A17.56,17.56,0,0,0,49.6,17.56V67.627A17.56,17.56,0,0,0,67.16,85.188h76.626V34.61H89.869v16h33.8v18.58H69.817V15.988Z" fill="#2ba7ed"/></svg>