<svg id="Layer_1" data-name="Layer 1" xmlns="http://www.w3.org/2000/svg" viewBox="0 0 112 112"><title>necturbografx-16</title><path d="M79.743,43.6H32.257C17.66,43.6,0,57.664,0,77.525,0,98.4,16.579,112,32.257,112H79.743C95.421,112,112,98.5,112,77.623,112,57.761,94.34,43.6,79.743,43.6Zm1.772,62.455v.045H30.455v.046c-7.929,0-24.989-8.772-24.989-28.625,0-17.158,15.378-27.612,24.989-27.612h51.06c9.61,0,25.108,10.319,25.108,27.477C106.623,97.243,89.444,106.059,81.515,106.059Z" fill="#fff"/><polygon points="23.466 57.844 34.1 57.844 34.1 92.451 39.057 92.451 39.057 98.038 23.376 98.038 23.376 92.541 28.422 92.541 28.422 63.522 23.466 63.522 23.466 57.844" fill="#fff"/><path d="M88.624,68.388v-7.3L85.56,58.024h-35.6l-3.335,3.335V94.253l3.6,3.605H85.019l3.6-3.605V78.3L85.74,75.418H51.764V63.341H83.578v5.047ZM52.035,80.735H83.217V92.361H52.035Z" fill="#fff"/><path d="M67.221,16.931v5.128h2.832V38.428H63.509V5.641h6.4v6.775h5.628V5.433A5.809,5.809,0,0,0,70.1,0H63.68a5.849,5.849,0,0,0-5.494,5.494V38.379c0,3.15,3.1,5.225,5.616,5.225h11.77V16.931Z" fill="#fff"/><polygon points="36.428 0 36.428 5.277 42.096 5.277 42.096 43.604 47.765 43.604 47.765 5.082 52.456 5.082 52.456 0 36.428 0" fill="#fff"/></svg>