<svg id="Layer_1" data-name="Layer 1" xmlns="http://www.w3.org/2000/svg" viewBox="0 0 112 111.851"><title>N64_SVG</title><path d="M68.391,34.977l3.274-3.721V6.1L56.037,12.13h0L43.088,35.2l12.949-4.986Z" fill="#0222a9"/><path d="M96.149,70.028V27.609L112,21.507V88.26l-15.851,6.7h0L72.856,64.521v40.26l-16.819,7.07V43.088l16.819-6.4Z" fill="#011da9"/><path d="M30.809,88.335,15.926,59.46v35.5h0Z" fill="#0222a9"/><path d="M31.777,21.507h0l7.442,15.181L43.088,35.2,56.037,12.13l-15.628-6.1Z" fill="#069330"/><path d="M68.391,34.977h0L80.3,21.507l15.851,6.1V70.028L72.856,36.688Z" fill="#069330"/><path d="M56.037,111.851V43.088l-16.818-6.4v34.9L15.851,27.609h0L0,21.507V88.26l15.851,6.7V59.46l23.368,45.321Z" fill="#069330"/><path d="M15.926,27.609l15.851-6.1,7.442,15.181h0v34.9Z" fill="#fe2015"/><path d="M72.856,81.116l4.763,6.7,18.53,7.144h0L72.856,64.521Z" fill="#fe2015"/><path d="M39.293,36.688l16.819-6.4,16.818,6.4h0l-16.818,6.4Z" fill="#ffc001"/><path d="M96.149,15.405,112,21.507l-15.851,6.1L80.3,21.507h0Z" fill="#ffc001"/><path d="M15.926,15.405l15.851,6.1-15.851,6.1L.074,21.507h0Z" fill="#ffc001"/><path d="M56.037,0,40.409,6.028l15.628,6.1L71.665,6.1h0Z" fill="#ffc001"/></svg>