<svg xmlns="http://www.w3.org/2000/svg" viewBox="0 0 100 100"><path d="M38.60864,84.535c-.03641,3.28049-1.44195,5.29939-4.6868,5.29939-3.20805,0-4.46984-2.41547-4.46984-5.47938V74.4773l-4.54227-.036V84.75121c0,5.26335,2.956,9.19266,7.96635,9.19266,3.07023,0,4.93012-.89939,6.224-2.32333l.08471,1.89072h3.96553V74.47711H38.60864Z" fill="#fff"/><path d="M15.699,77.39726h-.01783c-.93746-1.87457-3.38915-3.35275-6.45252-3.35275C3.605,74.04451,0,78.69508,0,83.99429s3.60519,9.9494,9.22869,9.9494a7.15308,7.15308,0,0,0,6.23612-3.03289V100h4.5421V74.47711H15.78912ZM9.94919,89.97853c-3.35219,0-5.44315-2.59565-5.44315-5.98425C4.506,80.6055,6.597,78.01,9.94919,78.01a6.00415,6.00415,0,0,1,0,11.96849Z" fill="#fff"/><path d="M56.66871,74.04451a9.8702,9.8702,0,0,0-9.94958,9.91374c0,5.65956,3.74988,9.98563,9.986,9.98563,4.18194,0,7.06566-1.83854,8.68762-4.79453l-3.64047-2.163A5.06582,5.06582,0,0,1,56.777,90.12285a5.19588,5.19588,0,0,1-5.40748-4.75849H66.18607V83.99447C66.18607,78.51472,62.32865,74.04451,56.66871,74.04451ZM56.597,77.794a5.03016,5.03016,0,0,1,5.1012,4.07327H51.498A5.21887,5.21887,0,0,1,56.597,77.794Z" fill="#fff"/><path d="M79.01939,81.97558l-2.27151-.50486c-1.54952-.36036-2.41473-.865-2.41473-2.01872,0-1.04557,1.225-1.76646,3.02732-1.76646A8.09248,8.09248,0,0,1,82.011,79.09165l2.27151-3.06428a11.08913,11.08913,0,0,0-6.99378-1.98286c-4.18137,0-7.24585,2.16322-7.24585,5.732,0,3.13635,2.16286,4.54209,5.91181,5.44334l1.94682.46865c2.12737.50467,3.06427,1.18971,3.06427,2.34339,0,1.29745-1.44195,2.16267-3.53236,2.16267a9.19073,9.19073,0,0,1-6.05688-2.307L68.96168,91.096c2.2353,2.09078,5.1545,2.91977,8.61535,2.91977,4.47076,0,7.60694-2.487,7.60694-6.38044C85.184,84.82346,83.12906,82.87682,79.01939,81.97558Z" fill="#fff"/><path d="M100,78.1904V74.47711H95.20547l.03642-5.227H90.627l.036,5.227H87.238V78.1904h3.425v9.15645c0,4.39777,1.80213,6.59684,5.80388,6.59684a8.86309,8.86309,0,0,0,3.2805-.54053V89.762a5.63737,5.63737,0,0,1-2.0906.39657c-1.73062,0-2.45132-.72107-2.45132-2.55961V78.19022H100Z" fill="#fff"/><path d="M88.78239,6.84109A30.36617,30.36617,0,0,0,76.861,1.00583,38.77036,38.77036,0,0,0,69.26526.05018C67.35362,0,65.44231,0,63.531,0H36.46868c-1.91131,0-3.82295,0-5.73426.05018a38.77674,38.77674,0,0,0-7.59571.95565A30.3663,30.3663,0,0,0,11.21729,6.84109a29.89041,29.89041,0,0,0,0,46.67981,30.36986,30.36986,0,0,0,11.92142,5.83493,38.74928,38.74928,0,0,0,7.59571.95566c1.91164.05018,3.82328.05018,5.73426.05018H63.531c1.91163,0,3.82294,0,5.73425-.05018a38.7698,38.7698,0,0,0,7.59571-.95566A30.36986,30.36986,0,0,0,88.78239,53.5209a29.88988,29.88988,0,0,0,0-46.67981ZM75.60328,38.27962a10.84435,10.84435,0,0,1-4.42637,1.71028,30.38779,30.38779,0,0,1-4.7786.201H33.60141a30.42916,30.42916,0,0,1-4.7786-.201,10.84434,10.84434,0,0,1-4.42638-1.71028,9.90466,9.90466,0,0,1-4.27552-8.09878,9.77065,9.77065,0,0,1,4.27552-8.09879,10.84544,10.84544,0,0,1,4.42638-1.70994,30.35155,30.35155,0,0,1,4.7786-.20137h32.7969a30.34845,30.34845,0,0,1,4.77861.20137,10.84379,10.84379,0,0,1,4.42637,1.70994,9.90544,9.90544,0,0,1,4.27584,8.09879A9.7697,9.7697,0,0,1,75.60328,38.27962Z" fill="#fff"/></svg>