<?xml version="1.0" encoding="UTF-8" standalone="no"?>
<svg
   xmlns:dc="http://purl.org/dc/elements/1.1/"
   xmlns:cc="http://creativecommons.org/ns#"
   xmlns:rdf="http://www.w3.org/1999/02/22-rdf-syntax-ns#"
   xmlns:svg="http://www.w3.org/2000/svg"
   xmlns="http://www.w3.org/2000/svg"
   viewBox="0 0 61.25 61.25"
   height="61.25"
   width="61.25"
   xml:space="preserve"
   version="1.1"
   id="svg2"><metadata
     id="metadata8"><rdf:RDF><cc:Work
         rdf:about=""><dc:format>image/svg+xml</dc:format><dc:type
           rdf:resource="http://purl.org/dc/dcmitype/StillImage" /></cc:Work></rdf:RDF></metadata><defs
     id="defs6" /><g
     transform="matrix(1.25,0,0,-1.25,0,61.25)"
     id="g10"><g
       transform="scale(0.1,0.1)"
       id="g12"><path
         id="path14"
         style="fill:#ef3620;fill-opacity:1;fill-rule:nonzero;stroke:none"
         d="m 371.035,309.559 c -9.148,0 -16.594,-7.43 -16.594,-16.594 l 0,-54.781 c 0,-60.313 -49.089,-109.434 -109.461,-109.434 -60.332,0 -109.429,49.121 -109.429,109.434 l 0,54.781 c 0,9.164 -7.449,16.594 -16.59,16.594 -9.148,0 -16.59,-7.43 -16.59,-16.594 l 0,-54.781 c 0,-78.606 63.984,-142.6098 142.609,-142.6098 78.633,0 142.625,64.0038 142.625,142.6098 l 0,54.781 c 0,9.164 -7.429,16.594 -16.57,16.594" /><path
         id="path16"
         style="fill:#ef3620;fill-opacity:1;fill-rule:nonzero;stroke:none"
         d="M 244.98,489.98 C 109.895,489.98 0,380.086 0,244.98 0,109.902 109.895,0 244.98,0 380.078,0 490,109.902 490,244.98 c 0,135.106 -109.922,245 -245.02,245 m 0,-456.2691 c -116.5,0 -211.2534,94.7931 -211.2534,211.2691 0,116.52 94.7534,211.274 211.2534,211.274 116.497,0 211.297,-94.754 211.297,-211.274 0,-116.476 -94.8,-211.2691 -211.297,-211.2691" /></g></g></svg>