<svg xmlns="http://www.w3.org/2000/svg" x="0px" y="0px" viewBox="0 0 240 92.7"><path fill="#cdcdcd" d="M117.6,75.5V18.4h30.2c16.7,0,30.2,12.8,30.2,28.6s-13.6,28.6-30.2,28.6H117.6 M148.5,5.5h-42.9v83h42.9 c23.7,0,42.9-18.6,42.9-41.5S172.1,5.5,148.5,5.5"/><polyline fill="#FF0000" points="196.8,36.4 196.8,59.6 223,48 196.8,36.4 "/><polyline fill="#cdcdcd" points="240,33.9 229.4,33.9 229.4,88.3 240,88.3 240,33.9 "/><polyline fill="#cdcdcd" points="240,5.7 229.4,5.7 229.4,25.1 240,25.1 240,5.7 "/><path fill="#cdcdcd" d="M52,54.5c-5.2,0-9.5-3.7-9.5-8.2c0-4.5,4.3-8.2,9.5-8.2s9.5,3.7,9.5,8.2C61.5,50.9,57.2,54.5,52,54.5 M52,33.8c-7.1,0-12.8,5.6-12.8,12.5c0,6.9,5.7,12.5,12.8,12.5c7.1,0,12.8-5.6,12.8-12.5C64.8,39.4,59,33.8,52,33.8"/><path fill="#cdcdcd" d="M52,0C23.3,0,0,20.7,0,46.3s23.3,46.3,52,46.3c25.3,0,46.4-16.1,51-37.5H88.5C84,68.9,69.3,79.1,52,79.1 c-20.9,0-38-14.7-38-32.7s17-32.7,38-32.7c17.4,0,32,10.1,36.5,23.9H103C98.3,16.1,77.3,0,52,0"/></svg>