<svg xmlns="http://www.w3.org/2000/svg" viewBox="0 0 240.00299 92.67451"><path d="M51.966,0C23.265,0,0,20.744,0,46.33726S23.265,92.67451,51.966,92.67451c25.29,0,46.359-16.12775,50.994-37.47609H88.497c-4.5,13.74681-19.17,23.86034-36.531,23.86034-20.934,0-37.962-14.67881-37.962-32.7215s17.028-32.7215,37.962-32.7215c17.361,0,32.031,10.11352,36.531,23.86033H102.96C98.325,16.12047,77.256,0,51.966,0" fill="#323232"/><path d="M51.966,54.52041c-5.238,0-9.504-3.6697-9.504-8.184s4.266-8.184,9.504-8.184,9.495,3.6697,9.495,8.184-4.257,8.184-9.495,8.184m0-20.71488A12.53089,12.53089,0,1,0,64.8,46.3364,12.68488,12.68488,0,0,0,51.966,33.80553" fill="#323232"/><path d="M117.594,75.53294V18.41958h30.249c16.677,0,30.24,12.80754,30.24,28.55668s-13.563,28.55668-30.24,28.55668H117.594M148.455,5.45912H105.597V88.49339h42.858c23.67,0,42.858-18.58878,42.858-41.51713S172.125,5.45912,148.455,5.45912" fill="#323232"/><polyline points="196.785 36.426 196.785 59.587 222.975 48.01 196.785 36.426" fill="red"/><polyline points="240.003 5.708 229.428 5.708 229.428 25.091 240.003 25.091 240.003 5.708" fill="#323232"/><polyline points="240.003 33.908 229.428 33.908 229.428 88.262 240.003 88.262 240.003 33.908" fill="#323232"/></svg>