<svg id="Layer_1" data-name="Layer 1" xmlns="http://www.w3.org/2000/svg" viewBox="0 0 232.728 337.093"><title>phonepda</title><path d="M202.249,0H30.479A30.513,30.513,0,0,0,0,30.477V306.614a30.514,30.514,0,0,0,30.479,30.479h171.77a30.513,30.513,0,0,0,30.479-30.477V30.478A30.513,30.513,0,0,0,202.249,0ZM98.475,8.228h35.778c3.593,0,6.505,2.315,6.505,5.172s-2.912,5.172-6.505,5.172H98.475c-3.593,0-6.5-2.315-6.5-5.172S94.887,8.228,98.475,8.228ZM25.861,42.646c0-8.737,6.607-15.846,14.725-15.846H192.145c8.119,0,14.724,7.11,14.724,15.848V236.8H25.861ZM59.486,315.94H31.031A5.172,5.172,0,1,1,31.02,305.6H59.475a5.172,5.172,0,1,1,.011,10.344Zm0-28.44H31.031a5.172,5.172,0,0,1,0-10.344H59.475a5.172,5.172,0,1,1,.011,10.344Zm0-28.449H31.031a5.172,5.172,0,1,1-.011-10.344H59.475a5.172,5.172,0,1,1,.011,10.344ZM130.6,315.94H102.142a5.172,5.172,0,0,1,0-10.344h28.444a5.172,5.172,0,1,1,.011,10.344ZM96.976,282.322a5.171,5.171,0,0,1,5.166-5.166h28.444a5.172,5.172,0,0,1,0,10.344H102.142A5.171,5.171,0,0,1,96.976,282.322ZM130.6,259.051H102.142a5.172,5.172,0,1,1-.011-10.344h28.455a5.172,5.172,0,1,1,.011,10.344Zm71.114,56.889H173.253a5.172,5.172,0,0,1,0-10.344H201.7a5.172,5.172,0,1,1,.011,10.344Zm-33.624-33.618a5.171,5.171,0,0,1,5.166-5.166H201.7a5.172,5.172,0,0,1,0,10.344H173.253A5.171,5.171,0,0,1,168.087,282.322Zm33.624-23.271H173.253a5.172,5.172,0,0,1-.011-10.344H201.7a5.172,5.172,0,1,1,.011,10.344Z" transform="translate(0 0)" fill="#fff"/></svg>