<svg id="Layer_1" data-name="Layer 1" xmlns="http://www.w3.org/2000/svg" viewBox="0 0 232.728 337.093"><title>phonepda</title><rect x="15.697" y="18.572" width="201.333" height="230.135" fill="#ededed"/><path d="M202.249,0H30.479A30.513,30.513,0,0,0,0,30.477V306.614a30.513,30.513,0,0,0,30.479,30.479h171.77a30.513,30.513,0,0,0,30.479-30.477V30.478A30.513,30.513,0,0,0,202.249,0ZM40.586,26.8H192.145c8.119,0,14.724,7.11,14.724,15.848l0,194.152H25.861l0-194.154C25.862,33.909,32.468,26.8,40.586,26.8Z" fill="#fff"/><path d="M59.475,259.051H31.031a5.172,5.172,0,1,1,0-10.344H59.475a5.172,5.172,0,1,1,0,10.344Z" fill="#c4c4c4"/><path d="M201.7,259.051H173.253a5.172,5.172,0,1,1,0-10.344H201.7a5.172,5.172,0,1,1,0,10.344Z" fill="#c4c4c4"/><path d="M130.586,259.051H102.142a5.172,5.172,0,1,1,0-10.344h28.444a5.172,5.172,0,1,1,0,10.344Z" fill="#c4c4c4"/><path d="M59.475,287.5H31.031a5.172,5.172,0,0,1,0-10.344H59.475a5.172,5.172,0,1,1,0,10.344Z" fill="#c4c4c4"/><path d="M201.7,287.5H173.253a5.172,5.172,0,0,1,0-10.344H201.7a5.172,5.172,0,0,1,0,10.344Z" fill="#c4c4c4"/><path d="M130.586,287.5H102.142a5.172,5.172,0,0,1,0-10.344h28.444a5.172,5.172,0,0,1,0,10.344Z" fill="#c4c4c4"/><path d="M59.475,315.94H31.031a5.172,5.172,0,1,1,0-10.344H59.475a5.172,5.172,0,1,1,0,10.344Z" fill="#c4c4c4"/><path d="M201.7,315.94H173.253a5.172,5.172,0,0,1,0-10.344H201.7a5.172,5.172,0,1,1,0,10.344Z" fill="#c4c4c4"/><path d="M130.586,315.94H102.142a5.172,5.172,0,0,1,0-10.344h28.444a5.172,5.172,0,1,1,0,10.344Z" fill="#c4c4c4"/><path d="M134.253,18.572H98.475c-3.593,0-6.5-2.315-6.5-5.172s2.912-5.172,6.5-5.172h35.778c3.593,0,6.505,2.315,6.505,5.172S137.846,18.572,134.253,18.572Z" fill="#c4c4c4"/></svg>