<svg id="Layer_1" data-name="Layer 1" xmlns="http://www.w3.org/2000/svg" viewBox="0 0 232.728 337.093"><title>phonepda</title><path d="M6.9,30.477l0,276.137A23.584,23.584,0,0,0,30.479,330.2h171.77a23.58,23.58,0,0,0,23.581-23.581l0-276.137A23.584,23.584,0,0,0,202.249,6.9H30.479A23.582,23.582,0,0,0,6.9,30.477Z" fill="#fff"/><path d="M202.249,6.9H114.64V330.2h87.607a23.582,23.582,0,0,0,23.581-23.581l0-276.137A23.581,23.581,0,0,0,202.249,6.9Z" fill="#d8d8d8"/><path d="M202.249,0H30.479A30.513,30.513,0,0,0,0,30.477V306.614a30.513,30.513,0,0,0,30.479,30.479h171.77a30.513,30.513,0,0,0,30.479-30.477V30.478A30.513,30.513,0,0,0,202.249,0ZM30.481,13.791h171.77a16.707,16.707,0,0,1,16.687,16.687l0,204.438H13.792l0-204.44A16.7,16.7,0,0,1,30.481,13.791Z" fill="#6e6e6e"/><path d="M202.249,0H114.64V13.791h87.609a16.707,16.707,0,0,1,16.687,16.687l0,204.438H114.64V337.092h87.607a30.513,30.513,0,0,0,30.479-30.477l0-276.137A30.513,30.513,0,0,0,202.249,0Z" fill="#4a4a4a"/><path d="M59.475,259.051H31.031a5.172,5.172,0,1,1,0-10.344H59.475a5.172,5.172,0,1,1,0,10.344Z" fill="#b2b2b2"/><path d="M201.7,259.051H173.253a5.172,5.172,0,1,1,0-10.344H201.7a5.172,5.172,0,1,1,0,10.344Z" fill="#b2b2b2"/><path d="M130.586,259.051H102.142a5.172,5.172,0,1,1,0-10.344h28.444a5.172,5.172,0,1,1,0,10.344Z" fill="#b2b2b2"/><path d="M59.475,287.5H31.031a5.172,5.172,0,0,1,0-10.344H59.475a5.172,5.172,0,1,1,0,10.344Z" fill="#b2b2b2"/><path d="M201.7,287.5H173.253a5.172,5.172,0,0,1,0-10.344H201.7a5.172,5.172,0,0,1,0,10.344Z" fill="#b2b2b2"/><path d="M130.586,287.5H102.142a5.172,5.172,0,0,1,0-10.344h28.444a5.172,5.172,0,0,1,0,10.344Z" fill="#b2b2b2"/><path d="M59.475,315.94H31.031a5.172,5.172,0,1,1,0-10.344H59.475a5.172,5.172,0,1,1,0,10.344Z" fill="#b2b2b2"/><path d="M201.7,315.94H173.253a5.172,5.172,0,0,1,0-10.344H201.7a5.172,5.172,0,1,1,0,10.344Z" fill="#b2b2b2"/><path d="M130.586,315.94H102.142a5.172,5.172,0,0,1,0-10.344h28.444a5.172,5.172,0,1,1,0,10.344Z" fill="#b2b2b2"/></svg>