<svg id="svg4237" xmlns="http://www.w3.org/2000/svg" viewBox="0 0 112 36.37"><title>PlayStation_Portable_SVG</title><g id="layer1"><polyline points="0 0 0 2.6 2.6 2.6 32.85 2.6 32.85 16.89 2.6 16.89 0 16.89 0 36.37 2.6 36.37 2.6 19.48 32.85 19.48 34.15 19.48 35.45 19.48 35.45 0" fill="#fff"/><polyline points="76.55 0 76.55 2.6 79.15 2.6 109.4 2.6 109.4 16.89 79.15 16.89 76.55 16.89 76.55 36.37 79.15 36.37 79.15 19.48 109.4 19.48 110.7 19.48 112 19.48 112 0" fill="#fff"/><polyline points="52.2 0 52.2 33.77 35.45 33.77 35.45 36.37 52.2 36.37 53.57 36.37 54.94 36.37 54.94 2.6 71.69 2.6 71.69 0" fill="#fff"/></g></svg>