<svg xmlns="http://www.w3.org/2000/svg" x="0px" y="0px" viewBox="0 0 112 89.5"><style type="text/css">.st0{fill:#ffffff;}</style><path class="st0" d="M0,6.2V0h41.5c2.2,0,4.3,0.4,6.4,1c4.6,1.5,7.8,5.7,8.1,10.5c0.3,2.4,0.2,4.7-0.3,7.1c-1,5-5.2,8.8-10.3,9.3 c-1.4,0.2-2.7,0.3-4.1,0.3H17.2c-3.2-0.3-6,2-6.4,5.1c0,0,0,0,0,0v0.7c-0.2,2.6,0,5.3-0.2,8.1s0,5.7,0,8.6v0.3H0.2v-0.7 c0-5-0.2-9.8,0-14.8c0-1.9,0.3-3.9,1-5.7c1.5-5.1,6.3-8.6,11.7-8.4h24.6c1.3,0,2.7-0.2,4-0.5c2-0.5,3.6-2.2,3.8-4.3 c0.5-1.9,0.4-3.8-0.2-5.7c-0.8-2.9-3.5-4.9-6.5-4.6H0.7L0,6.2z"/><path class="st0" d="M112,0v6.4h-1c-6,0-12,0.2-18.1,0c-5.2-0.2-6.5,2.9-6.9,6.5c-0.1,1.5-0.1,3,0,4.5V37c0,2.1-0.3,4.2-0.9,6.2 c-1.4,4.6-4.8,6.9-9.5,7.6c-1.4,0.2-2.7,0.3-4.1,0.3H48.7v-6.4h18.9c4.8,0,7.6-2.6,7.6-7.6V12.6c-0.1-3.2,1-6.3,3.1-8.8 c2-2.3,4.9-3.6,7.9-3.8H112z"/><path class="st0" d="M112,89.5h-6.5c-0.3,0-0.5-0.1-0.6-0.4c-1-1.8-2-3.7-3-5.5c-0.1-0.3-0.4-0.5-0.7-0.4c0,0,0,0,0,0H83.1 c-0.3,0-0.6,0.1-0.7,0.4c-0.9,1.8-1.9,3.6-2.8,5.4c-0.1,0.4-0.5,0.6-0.9,0.5c0,0,0,0,0,0H75c0.1-0.2,0.1-0.3,0.2-0.4 c4.5-8.6,9.1-17.1,13.7-25.7c0.5-1,1.1-1.8,1.9-2.6c1.4-1.5,3.7-1.7,5.2-0.3c0.1,0,0.1,0.1,0.2,0.1l0.4,0.4c0.4,0.5,0.7,1,1,1.5 c4.7,8.8,9.4,17.7,14.1,26.5C111.8,89.1,111.9,89.3,112,89.5z M99.7,79.5c-0.1-0.2-0.2-0.3-0.3-0.5c-1.9-3.6-3.9-7.2-5.8-10.8 c-0.3-0.6-0.7-1.2-1.5-1.2s-1.1,0.6-1.4,1.2L85,79c-0.1,0.1-0.1,0.3-0.2,0.5H99.7z"/><path class="st0" d="M36.9,59.6l-0.4,0.8c-4.4,8.3-8.9,16.7-13.3,25c-0.6,1-1.3,2-2.1,2.9c-1.4,1.5-3.8,1.6-5.3,0.2l-0.3-0.3 c-0.5-0.5-0.9-1.1-1.2-1.7L0.2,60.1C0.1,60,0.1,59.9,0,59.7h6.4c0.3,0,0.7,0.2,0.8,0.5c3.7,6.9,7.4,13.8,11.2,20.7l0.1,0.1 c0.2,0.6,0.8,1,1.4,1.1c0.7,0,1.1-0.5,1.4-1.1L29,66.4c1.1-2.1,2.3-4.3,3.4-6.4c0.1-0.3,0.4-0.5,0.7-0.4c0,0,0,0,0,0L36.9,59.6z"/><path class="st0" d="M63,63.2H51.3v-3.6H81v3.6H69.2v26H63V63.2z"/><path class="st0" d="M47.1,89.4h-6.2V59.8h6.2L47.1,89.4z"/></svg>