<svg id="a" xmlns="http://www.w3.org/2000/svg" viewBox="0 0 112 84"><defs><style>.b{fill:#fff;stroke-width:0px;}</style></defs><path class="b" d="m81.89804,46.31375H28.23137v14.54833s-.16333,5.6175,6.78417,5.6175h32.80374c1.28685-.01053,2.56163.24879,3.74209.76125,1.83168.81667,3.89084,2.47917,3.89084,5.83333,0,3.01-1.45833,4.71916-2.90209,5.67583-1.19527.77217-2.59038,1.17772-4.01334,1.16667H28.23137v4.08333h44.94292s10.20833-.41417,10.20833-10.90542c0-5.33458-3.115-7.97708-5.91791-9.27208-1.81115-.83195-3.78193-1.25895-5.77501-1.25125h-32.51207c-.5418.00714-1.07693-.12013-1.55751-.37042-.69417-.37625-1.45833-1.12292-1.45833-2.59292v-9.26625h45.73625v-4.02792Z"/><path class="b" d="m52.59334,33.58834v4.08333h22.77916c2.72268.02882,5.36406-.92725,7.4375-2.69208,2.16598-1.83828,3.38577-4.55654,3.31917-7.39667V10.22583c-.02375-1.92315.83633-3.75083,2.33333-4.95833,1.04855-.82089,2.3464-1.25831,3.67793-1.23958h19.85957V0h-23.65124s-10.20833.16333-10.20833,10.96083v16.20791c.018,1.32742-.33995,2.63284-1.03249,3.76542-1.02028,1.70557-2.88436,2.72467-4.87084,2.66292l-19.64376-.00875Z"/><path class="b" d="m0,0v4.02792h40.59999c1.1293-.00964,2.24677.23039,3.2725.70292,1.61.75542,3.41833,2.31,3.41833,5.46292,0,3.0625-1.80834,4.59375-3.41833,5.35208-1.04262.47852-2.17785.7215-3.325.71167H10.43584c-1.78241-.01665-3.54411.38283-5.145,1.16667-2.50542,1.25708-5.29084,4.2175-5.29084,9.1v11.08333h7.81375v-11.03375c-.00519-.71774.12441-1.43008.38208-2.1.64458-1.65375,2.275-4.30792,6.08708-4.30792h30.3625c1.02114.00552,2.03809-.13092,3.02166-.40542,2.78833-.79333,7.4375-3.08583,7.4375-9.56667C55.10458.1225,45.08,0,45.08,0H0Z"/></svg>