<svg id="svg9591" xmlns="http://www.w3.org/2000/svg" viewBox="0 0 112 89.594"><title>PlayStation_SVG</title><g id="layer1"><g id="g9659"><path id="path9593" d="M102.569,58.866A53.653,53.653,0,0,0,82.86,56.177a63.444,63.444,0,0,0-18,3.139l-2.16.78,16.359,5.11,4.4-1.58a25.845,25.845,0,0,1,4.18-1,16.616,16.616,0,0,1,5.54.3c1.549.37,2.379.74,2.689,1.48.28.9-.76,1.65-3,2.4l-4,1.52,15.579,4.869c5.37-2.149,7.809-4.439,7.529-7.289s-3.449-5.06-9.409-7Z" fill="#326db3"/><path id="path9595" d="M50.4,56.257V47.6L36.743,52Z" fill="#1565c0"/><path id="path9597" d="M41.223,67.736l-3.83,1.36-3.49,1.26-3.74,1.48a33.257,33.257,0,0,1-6.269,1.209,19.536,19.536,0,0,1-6-.759c-1.25-.46-1.5-1.48-.74-2.23a19.059,19.059,0,0,1,3-1.51l4-1.47,7.169-2.42L15.2,59.6l-3,1.06-3.69,1.49c-5.66,2.39-8.66,4.93-8.51,7.17.3,3.269,4,5.679,10.76,7.469A64.258,64.258,0,0,0,37.4,78.245a178.633,178.633,0,0,0,19.869-5.49Z" fill="#f3c202"/><path id="path9599" d="M68.091,76.135,60.5,79v10.6l14.9-5.8,8-2.86Z" fill="#f3c202"/><path id="path9601" d="M50.4,56.257,36.743,52l-2.84.92L15.2,59.606l16.159,5,19-6.42Z" fill="#00aa9e"/><path id="path9603" d="M79.05,65.216,62.691,60.1l-21.468,7.64,16.059,5c2.34-.749,4.86-1.6,7.569-2.569,3-1,12.33-4.31,12.33-4.31Z" fill="#00aa9e"/><path id="path9605" d="M88.87,68.286l-1.53.58L68.091,76.135l15.339,4.8,17.2-6.1,3-1.33c.3-.11.56-.23.84-.34Z" fill="#00aa9e"/><path id="path9607" d="M84.57,17.709C81.42,13.459,75.911,10,67.731,7.16A261.325,261.325,0,0,0,42,0V83.925l18.5,5.669V19.759c0-1.89.15-3.16.94-4a1.929,1.929,0,0,1,2.609-.8c.024.012.047.026.07.039,2.67.77,3.92,3.15,3.92,7.07V50.757c6,2.83,11.349,3.14,15.269.16,4.09-2.84,6.29-7.87,6.29-15.419C89.6,27.628,88,21.659,84.57,17.709Z" fill="#de0029"/></g></g></svg>