<svg id="VARG" xmlns="http://www.w3.org/2000/svg" viewBox="0 0 143.996 126.413"><title>rcastudioii_dark</title><polygon points="94.045 41.484 113.666 41.484 120.908 24.338 120.908 7.502 125.799 7.502 125.799 41.484 143.996 41.484 143.996 0.817 111.068 0.817 94.045 41.484" fill="#de4243"/><path d="M0,41.484H18.445V7.44H23.4v17.7l7.18,16.341h19.25l-9.16-17.765c2.724-2.538,3.59-4.581,3.59-8.914,0-11.327-3.4-13.989-13.494-13.989H0Z" fill="#de4243"/><path d="M70.423,7h5.138V18.57H94.749c.063-1.114,0-2.1,0-2.6C94.749,2.414,90.664,0,73.333,0c-19.25,0-22.1,3.59-22.1,18.012,0,21.6.929,24.45,22.1,24.45,18.879,0,21.169-3.342,21.416-18.755H75.561V35.653H70.423Z" fill="#de4243"/><path d="M69.592,59.955c0-3.419-5.7-12.368-24.109-12.368s-28.9,13.964-28.9,23.483c0,20.005,38.073,16.813,38.073,33.855,0,9.887-11.456,18.125-20.461,18.125-18.41,0-20.652-14.99-30.037-14.99A3.878,3.878,0,0,0,0,112.278c0,2.565,4.769,14.135,28.954,14.135,21.431,0,32.032-16.244,32.032-27.871,0-19.8-37.048-16.453-37.048-33.514,0-8.7,9.12-12.767,14.762-12.767,16.871,0,18.98,11.912,26.048,11.912C70.561,64.173,69.592,59.955,69.592,59.955Z" fill="#333"/><path d="M70.036,126.413v-2c10.105,0,10.83-5.3,11.678-8.906,0,0,11.383-48.452,13.123-55.854s1.383-10.056-8.11-10.056l.2-2H113.17l-.2,2c-8.959,0-9.64,6.526-10.587,10.882L90.4,115.627c-.955,3.731-.137,8.073,3.048,8.073h4.6v2.713Z" fill="#333"/><path d="M100.863,126.413v-2c10.105,0,10.829-5.3,11.677-8.906,0,0,11.383-48.452,13.123-55.854s1.384-10.056-8.109-10.056l.2-2H144l-.2,2c-8.959,0-9.64,6.526-10.586,10.882l-11.984,55.153c-.955,3.731-.137,8.073,3.048,8.073h4.6v2.713Z" fill="#333"/></svg>