<svg id="Capa_1" data-name="Capa 1" xmlns="http://www.w3.org/2000/svg" viewBox="0 0 349.387 492.541"><title>removebookmark_dark</title><path d="M202.839,316.137a169.288,169.288,0,0,1-119.98-49.613c-66.137-66.142-66.137-173.759,0-239.9A169,169,0,0,1,117.388,0H39.91A39.917,39.917,0,0,0,0,39.905V483.19a9.358,9.358,0,0,0,15.388,7.149l98.756-83.246a9.351,9.351,0,0,1,12.064,0l98.76,83.246a9.358,9.358,0,0,0,15.383-7.149V311.974A170.16,170.16,0,0,1,202.839,316.137Z" fill="#333"/><circle cx="202.819" cy="146.569" r="136.089" fill="#c00"/><path d="M139.645,123.107a23.452,23.452,0,0,0-.289,46.9l126.676.021a23.458,23.458,0,0,0,.288-46.916Z" fill="#333"/><path d="M306.5,42.891c-57.157-57.183-150.183-57.193-207.381,0-57.157,57.157-57.157,150.209,0,207.37,57.2,57.158,150.224,57.178,207.381,0C363.683,193.078,363.683,100.039,306.5,42.891ZM282.1,225.853a112.121,112.121,0,1,1,0-158.563l0,0A112.26,112.26,0,0,1,282.1,225.853Z" fill="#333"/></svg>