<svg xmlns="http://www.w3.org/2000/svg" viewBox="0 0 428.029 429.494"><path d="M68.49,372.457c72.261,67.4,183.08,76.065,264.927,20.66,107.054-72.4,125.09-219.308,44.738-315.2L421.887,40.43c2.43-2.083,1.118-6.226-2.158-6.974L276.413.093a3.651,3.651,0,0,0-4.479,3.84l11.054,146.732c.239,3.351,4.209,5.217,6.562,3.2l43.657-37.421c56.143,67.649,45.167,169.78-26.614,223.407-61.706,46.174-149.888,39.179-203.655-16.018-56.988-58.495-57.9-148.987-7.508-208.514a29.541,29.541,0,0,0-.25-38.244C83.53,63.483,62.347,63.2,50.731,76.846-21.235,161.45-17.8,291.923,68.49,372.457Z" fill="rgb(0, 0, 0)"/></svg>