<svg id="a" xmlns="http://www.w3.org/2000/svg" viewBox="0 0 112 112"><defs><style>.b{fill:#fc0c18;}</style></defs><path class="b" d="m37.91564,0c-2.70018,0-5.32491,2.21953-5.8071,4.97048l-1.91928,9.54724c-.05077,1.2029.11653,2.84507.49213,3.1496.47707,2.64942,9.30889,14.91371,9.05511,16.7815-.23854,1.87288-1.27952,7.38188-1.27952,7.38188-.31975,1.85765-1.58723,3.34646-3.44489,3.34646-1.85763,0-3.12485-1.48374-2.80513-3.34646l1.67324-9.15353h-6.59448l-2.21458,12.69684c-.4517,2.57839,1.29422,4.62598,3.88781,4.62598h9.39961c2.60375,0,5.08394-2.0476,5.56101-4.62598,0,0,2.42158-11.85938,2.41142-12.69684-.01012-.84254-.24605-.93505-.24605-.93505,0-.96435-7.85949-13.9371-8.6614-14.41928-.34516-.20303-.62964-1.48723-.6398-2.26378-.01521-.77149,1.03347-5.95472,1.03347-5.95472.31975-1.85765,2.07936-3.34646,3.93702-3.34646s2.63275,1.48881,2.313,3.34646l-1.42719,8.2185h6.64369l2.313-12.35236c.5228-2.75095-1.23681-4.97048-3.93702-4.97048h-9.74408Z"/><polygon class="b" points="65.2972 0 55.79917 50 63.03343 50 68.88972 21.01378 71.20271 50 77.50193 50 86.99996 0 79.76571 0 74.84445 26.1319 71.59642 0 65.2972 0"/><path class="b" d="m0,54v58h112v-58H0Zm49.2117,10.20074h-6.98816l-3.05115,15.50201h6.98816l-.98425,5.21649h-6.98816l-2.90357,16.87994h6.98816l-.98425,6.20081h-14.17323l9.84253-50h13.23823l-.98431,6.20074Zm35.58107-1.23029l-2.31299,12.35236h-6.64368l1.42719-8.21851c.31976-1.85767-.45538-3.34644-2.31299-3.34644s-3.61725,1.48877-3.93701,3.34644c0,0-1.04871,5.18323-1.03351,5.95471.01019.77655.29468,2.06079.63983,2.26379.80188.48218,8.66138,13.45496,8.66138,14.41931,0,0,.2359.09247.24603.93506.01019.83746-2.41138,12.69684-2.41138,12.69684-.47711,2.57837-2.95728,4.62598-5.56104,4.62598h-9.3996c-2.59363,0-4.33954-2.04761-3.88782-4.62598l2.21454-12.69684h6.59455l-1.67328,9.1535c-.3197,1.86273.94751,3.3465,2.80512,3.34644,1.85767,0,3.12518-1.48877,3.44495-3.34644,0,0,1.04096-5.50897,1.27948-7.3819.25378-1.8678-8.57801-14.13208-9.05512-16.78149-.37561-.3045-.54291-1.94672-.49213-3.1496l1.91931-9.54724c.48218-2.75092,3.10687-4.97046,5.80707-4.97046h9.74408c2.7002,0,4.45984,2.21954,3.93701,4.97046Z"/></svg>