<svg id="Layer_1" data-name="Layer 1" xmlns="http://www.w3.org/2000/svg" viewBox="0 0 155.683 126.966"><title>snkneogeo</title><path d="M3.513.812H18.792a10.74,10.74,0,0,1,2.177,0c.244.067.571.664.826,1.015,7.885,10.991,15.823,22.3,23.65,33.184V15.08c0-3.436.18-6.878-.677-9.312S41.539,2.3,38.275,2.313V.812H54.6v1.5c-2.273.3-4.32.761-5.33,2.366s-1.126,3.887-1.126,6.572v46.1h-1.2C35.738,42.1,24.668,26.715,13.5,11.439v31.8a35.7,35.7,0,0,0,.225,6.117c.68,3.587,3.09,5.415,7.473,5.219v1.538H3.4V54.57C5.72,54.537,7.5,54.13,8.733,53.1,11.2,51.051,10.8,46.181,10.8,41.58V9.3a11.155,11.155,0,0,0,0-1.688,3.546,3.546,0,0,0-.6-.979C8.676,4.509,7.122,2.181,3.478,2.313V.924C3.475.874,3.471.819,3.513.812Z" fill="#fff" fill-rule="evenodd"/><path d="M56.445.812H97.511V17.218a8.511,8.511,0,0,1-1.276-.037C95.273,10.935,93.083,6.2,87.413,4.642c-3.43-.942-7.859-.453-12.2-.6V26.678c8.239.532,9.65-6.088,10.434-13.139h1.237V42.783H85.648a22,22,0,0,0-2.516-9.2c-1.477-2.54-3.746-3.859-7.918-3.753v16.1c0,1.987-.161,4.43.6,5.742.915,1.578,2.623,1.726,5.22,1.726a37.634,37.634,0,0,0,4.581-.188c8.46-1.072,12.232-7.045,14.076-14.416h1.349c-.738,5.905-1.5,11.795-2.216,17.721H56.48a5.819,5.819,0,0,1-.074-1.5c2.457.1,4.568-.152,5.706-1.351,1.189-1.255,1.238-3.381,1.238-5.78V9.186a21.517,21.517,0,0,0-.112-3.381C62.75,2.96,59.9,2.122,56.406,2.313V.924C56.4.874,56.4.819,56.445.812Z" fill="#fff" fill-rule="evenodd"/><path d="M155.618,25.966a30.407,30.407,0,0,0-2.663-11.073,26.344,26.344,0,0,0-5.632-8.147,22.783,22.783,0,0,0-8.445-5.331A33.61,33.61,0,0,0,126.452.061,25.573,25.573,0,0,0,123.3.4a23.155,23.155,0,0,0-14.639,9.46c-3.826,5.1-6.478,12.276-5.67,21.621.715,8.261,3.856,14.481,8.446,19.071,4.444,4.444,11.43,7.468,20.61,6.718A23.269,23.269,0,0,0,149.689,47.4C153.579,42.082,156.128,35.147,155.618,25.966ZM140.154,45.3c-1.795,4.7-4.542,8.766-10.473,8.969-6.293.219-9.191-3.958-11-8.483-1.777-4.446-2.588-10.613-2.588-16.854,0-6.457.615-12.524,2.329-17.156,1.252-3.383,3.292-6.482,6.528-8.07a10.313,10.313,0,0,1,3.941-.975c6.234-.334,9.387,3.939,11.149,8.335a30.3,30.3,0,0,1,1.913,7.805,75.786,75.786,0,0,1,.493,9.233C142.446,34.617,141.948,40.6,140.154,45.3Z" fill="#fff" fill-rule="evenodd"/><path d="M47.4,68.272h1.238V88.015H47.4a27.645,27.645,0,0,0-5.518-10.473,16.984,16.984,0,0,0-10.172-5.816A13.315,13.315,0,0,0,19.73,75.363c-2.739,2.742-4.325,6.4-5.256,10.738-1.881,8.782-1.748,20.8,1.2,28.3a14.1,14.1,0,0,0,7.7,8.3,15.23,15.23,0,0,0,6.905,1.014,21.135,21.135,0,0,0,6.381-1.611V109.861a10.13,10.13,0,0,0-.446-3.828c-.9-1.805-3.027-2.6-5.935-2.44v-1.538H54.452v1.538c-2.828.158-4.906.874-5.553,3.192a14.525,14.525,0,0,0-.265,3.641v11.637a42.487,42.487,0,0,1-13.025,4.278,42.209,42.209,0,0,1-15.765-.375,25.431,25.431,0,0,1-11-6.268,26.4,26.4,0,0,1-6.983-10.285,34.758,34.758,0,0,1-1.65-15.2A30.4,30.4,0,0,1,4.6,81.334a28.968,28.968,0,0,1,8.406-8.858,25.445,25.445,0,0,1,13.213-4.2,28.284,28.284,0,0,1,9.761,1.049c1.925.625,3.833,1.567,5.782,2.328a4.558,4.558,0,0,0,2.7.564C46.179,71.8,46.833,69.957,47.4,68.272Z" fill="#fff" fill-rule="evenodd"/><path d="M55.243,69.885H96.685V86.178a8.524,8.524,0,0,1-1.238-.039c-1.036-6.188-3.245-10.957-8.973-12.464-3.438-.9-7.9-.414-12.275-.563-.088,7.407-.012,14.979-.037,22.449,8.308.575,9.757-6.032,10.585-13.065h1.238v29.055H84.747a21.819,21.819,0,0,0-2.59-9.158c-1.533-2.531-3.765-3.8-7.995-3.716v15.841a23.714,23.714,0,0,0,.261,4.991c.375,1.594,1.747,2.43,3.678,2.554a46.448,46.448,0,0,0,4.994-.037c9.652-.514,13.715-6.449,15.807-14.454h1.349c-.71,5.9-1.513,11.7-2.217,17.607H55.2v-1.5c2.852.12,5.265-.233,6.269-2.026.97-1.73.752-4.769.752-7.546,0-12.425.093-24.867-.037-37.277a6.13,6.13,0,0,0-.715-3.413c-1.112-1.682-3.351-2.184-6.269-1.993V70C55.2,69.946,55.2,69.891,55.243,69.885Z" fill="#fff" fill-rule="evenodd"/><path d="M155.4,95.146c-.4-8.43-3.612-14.985-8.073-19.443a21.836,21.836,0,0,0-13.811-6.832,45.23,45.23,0,0,0-6.72-.112,21.859,21.859,0,0,0-17.607,9.983c-3.787,5.28-6.182,12.378-5.556,21.735a31.784,31.784,0,0,0,5.1,15.5,22.839,22.839,0,0,0,11.338,9.346,28.944,28.944,0,0,0,12.086,1.541,22.675,22.675,0,0,0,17.419-10.1C153.4,111.326,155.834,104.46,155.4,95.146Zm-15.2,19.524c-1.691,4.679-4.536,9.121-10.433,9.121-6.311,0-9.015-4.1-10.772-8.786-2.551-6.784-3.082-17.56-1.955-26.352.748-5.839,2.167-10.68,5.4-14.152a9.735,9.735,0,0,1,2.818-2.065,10.222,10.222,0,0,1,3.977-.974c6.1-.291,9.258,4.216,10.924,8.633,1.714,4.544,2.292,11.009,2.292,17.268C142.446,103.975,141.912,109.9,140.191,114.67Z" fill="#fff" fill-rule="evenodd"/><rect x="72.151" y="4.933" width="1.69" height="1.267" fill="#fff"/></svg>