<svg id="Layer_1" data-name="Layer 1" xmlns="http://www.w3.org/2000/svg" viewBox="0 0 66.991 86.186"><title>neogeopocket</title><path d="M20.283,25.527C19.938,25.739,0,35.182,0,35.182l25,51,6.291-2.742L8.827,38.747l14.1-7.206S36.4,24.3,41.215,37.67c3.341,9.279-7.185,16.411-7.185,16.411l-9.319-6.61L26.5,41.059h8.989l-.066-6.808-13.764.122L16.647,48.462,32.708,61.748C47.861,55.94,51.563,43.115,46.8,32.934A18.544,18.544,0,0,0,20.283,25.527Z" fill="red"/><polygon points="31.07 17.465 35.534 18.38 41.868 1.194 33.703 0 31.07 17.465" fill="red"/><polygon points="42.057 20.288 50.975 5.088 57.181 9.379 46.013 22.738 42.057 20.288" fill="lime"/><polygon points="49.859 26.771 62.669 15.42 66.991 22.423 52.815 31.213 49.859 26.771" fill="#09f"/></svg>