<svg xmlns="http://www.w3.org/2000/svg" viewBox="0 0 897.917 372"><title>tangerineoric_dark</title><g id="Layer_3" data-name="Layer 3"><rect x="592.5" y="3.5" width="57" height="298.5" fill="#333"/><path d="M487.1,3.5H395.6V302h57V181h16.329L515.6,302h63L529.912,175.773A91.729,91.729,0,0,0,578.6,95h0C578.6,44.675,537.425,3.5,487.1,3.5Zm-34.5,63h34.5a31.5,31.5,0,0,1,0,63H452.6Z" fill="#333"/><path d="M226,0C142.053,0,74,68.612,74,153.25S142.053,306.5,226,306.5s152-68.612,152-153.25S309.947,0,226,0Zm0,242.5c-48.811,0-88.522-40.037-88.522-89.25S177.189,64,226,64s88.522,40.037,88.522,89.25S274.811,242.5,226,242.5Z" fill="#333"/><path d="M810.5,240c-46.593,0-84.5-39.14-84.5-87.25S763.907,65.5,810.5,65.5a82.1,82.1,0,0,1,45.886,14.02l41.531-46.545A144.084,144.084,0,0,0,810.5,3.5C729.59,3.5,664,70.322,664,152.75S729.59,302,810.5,302a143.874,143.874,0,0,0,79.459-23.846L848.636,230.6A81.841,81.841,0,0,1,810.5,240Z" fill="#333"/></g><g id="Layer_2" data-name="Layer 2"><polygon points="90 372 0 372 306 3.5 396 3.5 90 372" fill="#ea442b"/><rect x="63.5" y="314.5" width="828.5" height="57.5" fill="#ea442b"/></g></svg>