<svg id="Layer_1" data-name="Layer 1" xmlns="http://www.w3.org/2000/svg" viewBox="0 0 242.417 167.135"><title>thomsonmo5</title><path d="M0,1.113H41.971l22.6,49.319L87.17,1.113h41.748V77.1H106.1l.556-56.889h-3.785L74.2,77.1H55L26.329,20.206H22.266L22.822,77.1H0Z" fill="#fff"/><path d="M190.2,0q24.6,0,33.844,1.225,13.3,1.782,16.309,12.635,2.058,7.461,2.06,25.216,0,17.814-2.06,25.272-3,10.854-16.309,12.635-9.24,1.224-33.621,1.225-24.828,0-34.067-1.225-13.305-1.78-16.309-12.635-2.059-7.459-2.06-25.717,0-17.367,2.06-24.771Q143.057,3.006,156.36,1.225,165.545,0,190.2,0Zm.056,19.761q-18.424,0-22.155.946a7.521,7.521,0,0,0-5.622,4.981q-1.335,3.872-1.336,15.392a49.53,49.53,0,0,0,.724,10.075q1.391,5.791,8.405,6.624,5.178.669,20.1.668,13.972,0,18.592-.5t6.847-2.226a7.9,7.9,0,0,0,2.727-4.592,47.853,47.853,0,0,0,.724-9.937,92.923,92.923,0,0,0-.557-12.023,12.842,12.842,0,0,0-2-5.789q-1.836-2.45-6.067-3.034T190.26,19.761Z" fill="#fff"/><path d="M78.625,90.208h84.554v16.365H113.694q-12.414.056-14.751-.557v8.127q0,3.619-.167,5.678a17.038,17.038,0,0,1,7.014-4.231q5.731-1.5,22.6-1.5,24.1,0,30.894,4.4a14.323,14.323,0,0,1,5.705,7.376q1.755,4.815,1.754,13.164,0,10.967-2.338,16.643a14.453,14.453,0,0,1-7.849,8.072,35.121,35.121,0,0,1-10.632,2.727q-6.068.669-19.371.668-17.367,0-25.16-.445a83.716,83.716,0,0,1-13.471-1.726q-6.626-1.5-9.435-5.927t-2.811-13.332q0-.836.056-3.006H97.774q.167,4.341,1.392,5.566,1.28,1.169,5.984,1.643t15.224.472q12.189,0,15.585-.167a17.184,17.184,0,0,0,5.233-.89,4.209,4.209,0,0,0,2.449-2.783,24.364,24.364,0,0,0,.668-6.791q0-4.287-1-6.012a5.277,5.277,0,0,0-3.785-2.282q-6.178-1.115-24.1-1.114-10.131,0-13.332.975t-3.2,3.979c0,.187.019.5.056.947H78.625Z" fill="#fff"/></svg>