<svg id="Layer_1" data-name="Layer 1" xmlns="http://www.w3.org/2000/svg" xmlns:xlink="http://www.w3.org/1999/xlink" viewBox="0 0 60 60"><defs><linearGradient id="linear-gradient" x1="30" x2="30" y2="60" gradientUnits="userSpaceOnUse"><stop offset="0" stop-color="#ee3e41"/><stop offset="1" stop-color="#8e2426"/></linearGradient><linearGradient id="linear-gradient-2" x1="30" y1="1.5" x2="30" y2="58.5" gradientUnits="userSpaceOnUse"><stop offset="0" stop-color="#ee3e41"/><stop offset="1" stop-color="#cc3e3f"/></linearGradient></defs><title>thumbsdown</title><circle cx="30" cy="30" r="30" fill="url(#linear-gradient)"/><circle cx="30" cy="30" r="28.5" fill="url(#linear-gradient-2)"/><path d="M41,32.746C36.938,40.5,34.813,38.809,30.375,44s-3.437,4.125-4.312,6.188S22.5,53.121,22.5,47.309s4-5.313,3.688-9.063c-.313-2.875-7.25-2.187-7.25-2.187C13.188,37.246,13,32,15.875,30.371c-2.875-2.75.313-4.875.313-4.875a3.692,3.692,0,0,1,1.437-5.375,4.728,4.728,0,0,1,4.25-5.312c2.125-.25,12.375.75,14.938,1.875C39.025,21.161,41.375,26.684,41,32.746Z" fill="#fff"/><path d="M42.958,32.517c0-5.292-2.041-11.833-4.75-16.708a15.119,15.119,0,0,1,5.334-1.959,26.617,26.617,0,0,1,5.75,17.917C47,33.017,42.958,32.517,42.958,32.517Z" fill="#fff"/></svg>