<svg id="Layer_1" data-name="Layer 1" xmlns="http://www.w3.org/2000/svg" xmlns:xlink="http://www.w3.org/1999/xlink" viewBox="0 0 60 60"><defs><linearGradient id="linear-gradient" x1="30" x2="30" y2="60" gradientUnits="userSpaceOnUse"><stop offset="0" stop-color="#cae64f"/><stop offset="1" stop-color="#62991e"/></linearGradient><linearGradient id="linear-gradient-2" x1="30" y1="1.5" x2="30" y2="58.5" gradientUnits="userSpaceOnUse"><stop offset="0" stop-color="#cae64f"/><stop offset="1" stop-color="#97cb3a"/></linearGradient></defs><title>thumbsup</title><circle cx="30" cy="30" r="30" fill="url(#linear-gradient)"/><circle cx="30" cy="30" r="28.5" fill="url(#linear-gradient-2)"/><path d="M41,28.063c-4.062-7.75-6.187-6.063-10.625-11.25s-3.437-4.125-4.312-6.188S22.5,7.688,22.5,13.5s4,5.313,3.688,9.063c-.313,2.875-7.25,2.187-7.25,2.187-5.75-1.187-5.938,4.063-3.063,5.688-2.875,2.75.313,4.875.313,4.875a3.692,3.692,0,0,0,1.437,5.375A4.728,4.728,0,0,0,21.875,46c2.125.25,12.375-.75,14.938-1.875C39.025,39.648,41.375,34.125,41,28.063Z" fill="#fff"/><path d="M42.958,28.292c0,5.291-2.041,11.833-4.75,16.708a15.1,15.1,0,0,0,5.334,1.958,26.615,26.615,0,0,0,5.75-17.916C47,27.792,42.958,28.292,42.958,28.292Z" fill="#fff"/></svg>