<svg xmlns="http://www.w3.org/2000/svg" viewBox="0 0 28 28"><title>toolbar-dark</title><path d="M.768,23.524a2.623,2.623,0,0,0,3.71,3.708l8.609-8.612L9.378,14.914Z" fill="#333"/><polygon points="22.286 7.565 26.035 5.626 27.998 1.831 26.168 0 22.375 1.965 20.433 5.712 15.872 10.279 17.721 12.132 22.286 7.565" fill="#333"/><path d="M23.107,17.519l-.353-.035a5.2,5.2,0,0,0-1.813.341L10.178,7.058a5.2,5.2,0,0,0,.341-1.813l-.035-.353A5.191,5.191,0,0,0,3.027.525L6.511,4.009a1.721,1.721,0,0,1,.393.629A1.746,1.746,0,0,1,4.039,6.479L.555,3a5.193,5.193,0,0,0,4.367,7.458l.353.035a5.245,5.245,0,0,0,1.813-.339L17.849,20.916a5.286,5.286,0,0,0-.338,1.813l.037.353a5.225,5.225,0,0,0,5.208,4.892A5.129,5.129,0,0,0,25,27.449L21.52,23.965a1.774,1.774,0,0,1-.4-.628,1.744,1.744,0,0,1,1.633-2.357,1.721,1.721,0,0,1,.608.119,1.675,1.675,0,0,1,.628.394l3.484,3.484A5.177,5.177,0,0,0,28,22.729,5.232,5.232,0,0,0,23.107,17.519Z" fill="#333"/></svg>