<svg id="Layer_1" data-name="Layer 1" xmlns="http://www.w3.org/2000/svg" viewBox="0 0 112 89.144"><title>vsmile_light</title><path d="M44.972,57.54a32.872,32.872,0,0,1-6.407,17.127" fill="none" stroke="#c4c4c4" stroke-miterlimit="10" stroke-width="3"/><path d="M62.469,59.019a23.849,23.849,0,0,0,4.312,17.989" fill="none" stroke="#c4c4c4" stroke-miterlimit="10" stroke-width="3"/><path d="M86.125,39.921a18.112,18.112,0,0,0,15.032-8.871" fill="none" stroke="#c4c4c4" stroke-miterlimit="10" stroke-width="2.5"/><path d="M29.078,29.078a45.741,45.741,0,0,1-8.255-3.2,45.786,45.786,0,0,1-7.886-5.052" fill="none" stroke="#c4c4c4" stroke-miterlimit="10" stroke-width="2.5"/><path d="M39.551,0c-10.1,0-8.871,11.336-8.871,11.336s0,0,0,4.312-3.322,7.393-3.322,14.169.123,8.995-1.478,13.307-2.218,5.052-2.218,10.35,4.805,7.146,9.487,7.146,5.545-1.232,8.379-1.232,5.791,2.465,14.046,2.588,13.8-.123,17.989,1.971,12.2,1.109,12.2-4.066-.739-8.378-.739-10.1,3.2-5.3,3.2-12.2,1.109-8.625,4.066-12.2S93.641,12.814,80.95,12.814,70.022,6.653,58.606,6.653,49.655,0,39.551,0Z" fill="#ef8935"/><path d="M47.93,11.828c-8.132,0-17.25,4.313-17.25,22.671S34.253,52.8,50.7,55.446s25.936-2.4,28.154-15.71,1.786-20.576-16.449-25.5C53.721,11.459,47.93,11.828,47.93,11.828Z" fill="#fff"/><path d="M107.893,30.557S112,27.517,112,22.835s-2.136-8.132-6.9-8.132-7.31,4.354-7.31,7.927S97.707,39.017,107.893,30.557Z" fill="#8b6aa1"/><path d="M0,12.4C0,22.1,22.671,31.214,15.237,16.018S0,8.337,0,12.4Z" fill="#8b6aa1"/><path d="M25.012,79.9c0,5.606,8.071,13.246,13.923,5.3S40.6,70.046,34.253,73.188,25.012,74.3,25.012,79.9Z" fill="#8b6aa1"/><path d="M79.226,80.827c0,7.147-4.621,8.317-7.886,8.317s-7.454-1.971-7.454-8.009,4.651-6.592,6.16-6.592S79.226,74.79,79.226,80.827Z" fill="#8b6aa1"/><path d="M56.267,20.7c-.95,2.745-3.072,5.669-4.182,5.285s-1.74-2.419-.79-5.164,3.122-5.162,4.231-4.778S57.217,17.954,56.267,20.7Z" fill="#333"/><path d="M55.352,20c-.543,1.568-1.754,3.237-2.388,3.018s-.993-1.381-.451-2.948S54.3,17.12,54.929,17.34,55.894,18.431,55.352,20Z" fill="#fff"/><path d="M63.454,22.24c-.457,2.715-2.436,5.489-3.35,5.335s-2.066-1.542-1.609-4.257,2.351-5.729,3.265-5.575S63.912,19.525,63.454,22.24Z" fill="#333"/><path d="M62.478,21.667c-.255,1.513-1.357,3.058-1.866,2.972s-1.151-.859-.9-2.371,1.309-3.191,1.819-3.105S62.733,20.155,62.478,21.667Z" fill="#fff"/><path d="M45.26,26.121a14.574,14.574,0,0,0,1.9,8.32c1.361,2.427,3.483,4.527,6.026,4.864a11.427,11.427,0,0,0,7.734-2.049,14.272,14.272,0,0,0,5.347-6.617,11.75,11.75,0,0,1-4.4,7.884,12.825,12.825,0,0,1-4.148,2.3,11.158,11.158,0,0,1-4.828.448,8.3,8.3,0,0,1-4.42-2.232,11.948,11.948,0,0,1-2.689-3.922,13.909,13.909,0,0,1-1.129-4.5A10.116,10.116,0,0,1,45.26,26.121Z" fill="#d99a47"/><circle cx="45.26" cy="26.901" r="1.766" fill="#e5cc72"/><circle cx="66.268" cy="31.399" r="1.704" fill="#e5cc72"/></svg>