<svg id="Layer_1" data-name="Layer 1" xmlns="http://www.w3.org/2000/svg" viewBox="0 0 99.952 103.272"><title>watarasupervision_light</title><polygon id="_Path_" data-name="&lt;Path&gt;" points="50.4 33.576 86.856 103.272 13.952 103.272 50.4 33.576" fill="#03f2e5"/><path id="_Path_2" data-name="&lt;Path&gt;" d="M0,54.4A57.193,57.193,0,0,0,11.264,88.808l12.7-24.272A36.523,36.523,0,0,1,22.024,52.7c0-17.832,12.512-32.3,27.952-32.3S77.928,34.864,77.928,52.7A36.609,36.609,0,0,1,76.32,63.528L89.192,88.136A57.3,57.3,0,0,0,99.952,54.4C99.952,24.352,77.576,0,49.976,0S0,24.352,0,54.4Z" fill="#c4c4c4"/></svg>