<svg id="Layer_1" data-name="Layer 1" xmlns="http://www.w3.org/2000/svg" xmlns:xlink="http://www.w3.org/1999/xlink" viewBox="0 0 157.054 126.085"><defs><radialGradient id="radial-gradient" cx="80.226" cy="63.007" r="108.137" gradientTransform="matrix(1, 0, 0, -1.013, 0, 128.965)" gradientUnits="userSpaceOnUse"><stop offset="0"/><stop offset="0.52" stop-color="#fff" stop-opacity="0"/></radialGradient><radialGradient id="radial-gradient-2" cx="81.161" cy="64.837" r="108.146" gradientTransform="matrix(1.081, 0, 0, -1, -8.641, 126)" xlink:href="#radial-gradient"/><linearGradient id="linear-gradient" x1="31.677" y1="65.304" x2="61.992" y2="102.739" gradientTransform="matrix(1, 0, 0, -1, 0, 126)" gradientUnits="userSpaceOnUse"><stop offset="0" stop-color="#ff0"/><stop offset="0.084" stop-color="#f8ff00"/><stop offset="0.206" stop-color="#e5ff00"/><stop offset="0.351" stop-color="#c5ff00"/><stop offset="0.5" stop-color="#9dff00"/><stop offset="0.616" stop-color="#8ce90c"/><stop offset="0.854" stop-color="#61b12c"/><stop offset="1" stop-color="#458c41"/></linearGradient><linearGradient id="linear-gradient-2" x1="27.896" y1="135.296" x2="65.028" y2="80.246" gradientTransform="matrix(1, 0, 0, -1, 0, 126)" gradientUnits="userSpaceOnUse"><stop offset="0" stop-color="#4a7d62"/><stop offset="0.144" stop-color="#45745b" stop-opacity="0.927"/><stop offset="0.379" stop-color="#365b48" stop-opacity="0.731"/><stop offset="0.677" stop-color="#1e3328" stop-opacity="0.41"/><stop offset="1" stop-opacity="0"/></linearGradient><linearGradient id="linear-gradient-3" x1="6.939" y1="19.814" x2="66.287" y2="59.846" gradientTransform="matrix(1, 0, 0, -1, 0, 126)" gradientUnits="userSpaceOnUse"><stop offset="0.006" stop-color="#ff0"/><stop offset="0.421" stop-color="#9dff00"/><stop offset="0.465" stop-color="#97f108"/><stop offset="0.725" stop-color="#78a135"/><stop offset="0.909" stop-color="#646f51"/><stop offset="1" stop-color="#5c5c5c"/></linearGradient><linearGradient id="linear-gradient-4" x1="6.906" y1="-4.07" x2="54.959" y2="79.159" gradientTransform="matrix(1, 0, 0, -1, 0, 126)" gradientUnits="userSpaceOnUse"><stop offset="0" stop-color="#4a7d62"/><stop offset="0.16" stop-color="#487a5f" stop-opacity="0.962"/><stop offset="0.345" stop-color="#437058" stop-opacity="0.85"/><stop offset="0.541" stop-color="#39614c" stop-opacity="0.666"/><stop offset="0.746" stop-color="#2c4b3b" stop-opacity="0.408"/><stop offset="0.955" stop-color="#1c3025" stop-opacity="0.079"/><stop offset="1" stop-color="#182920" stop-opacity="0"/></linearGradient><linearGradient id="linear-gradient-5" x1="124.717" y1="70.818" x2="91.556" y2="102.842" gradientTransform="matrix(1, 0, 0, -1, 0, 126)" gradientUnits="userSpaceOnUse"><stop offset="0" stop-color="#ff0"/><stop offset="0.088" stop-color="#faff00"/><stop offset="0.189" stop-color="#ecff00"/><stop offset="0.296" stop-color="#d5ff00"/><stop offset="0.407" stop-color="#b5ff00"/><stop offset="0.478" stop-color="#9dff00"/><stop offset="0.48" stop-color="#9dfe00"/><stop offset="0.668" stop-color="#7ab220"/><stop offset="0.823" stop-color="#607a37"/><stop offset="0.938" stop-color="#505745"/><stop offset="1" stop-color="#4a4a4a"/></linearGradient><linearGradient id="linear-gradient-6" x1="108.609" y1="85.656" x2="113.898" y2="128.731" gradientTransform="matrix(1, 0, 0, -1, 0, 126)" gradientUnits="userSpaceOnUse"><stop offset="0" stop-opacity="0"/><stop offset="0.187" stop-color="#121f19" stop-opacity="0.268"/><stop offset="0.496" stop-color="#2e4e3d" stop-opacity="0.663"/><stop offset="0.734" stop-color="#3f6a54" stop-opacity="0.908"/><stop offset="0.871" stop-color="#45755c"/></linearGradient><linearGradient id="linear-gradient-7" x1="112.737" y1="23.31" x2="128.145" y2="56.35" gradientTransform="matrix(1, 0, 0, -1, 0, 126)" gradientUnits="userSpaceOnUse"><stop offset="0" stop-color="#ff0"/><stop offset="0.416" stop-color="#aeff00"/><stop offset="0.613" stop-color="#90c51e"/><stop offset="1" stop-color="#575757"/></linearGradient><linearGradient id="linear-gradient-8" x1="134.408" y1="-4.078" x2="119.486" y2="80.55" gradientTransform="matrix(1, 0, 0, -1, 0, 126)" gradientUnits="userSpaceOnUse"><stop offset="0.006" stop-color="#4a7d62"/><stop offset="0.123" stop-color="#45755b" stop-opacity="0.932"/><stop offset="0.311" stop-color="#375d49" stop-opacity="0.747"/><stop offset="0.544" stop-color="#21382c" stop-opacity="0.446"/><stop offset="0.813" stop-color="#020403" stop-opacity="0.031"/><stop offset="0.831" stop-opacity="0"/></linearGradient></defs><title>xbox</title><path d="M115.026,80.068A284.791,284.791,0,0,0,145.071,113.4L143.377,1.774c-24.113,26.775-41.1,42.741-48.725,50C102.511,63.327,110.019,73.511,115.026,80.068Z" fill="url(#radial-gradient)"/><path d="M116.12,22.377c11.5-5.393,18.828-10.631,22.159-15.484L75.518,0,16.4,4.813c5.165,6.548,14.245,12.865,27.242,18.8,4.914,2.311,10.746,4.7,17.66,7.241,2.75,1,8.665,3.159,17.5,6.318C95.127,31.391,107.54,26.538,116.12,22.377Z" fill="url(#radial-gradient-2)"/><path d="M78.526,65.733c-6.266,5.96-12.833,11.736-19.389,17.2V49.253C45.374,37.809,30.229,21.333,21.069,10.905c22.237,14,57.457,25.745,57.457,25.745Z" fill="url(#linear-gradient)"/><path d="M78.526,32.771V36.65S43.306,24.909,21.069,10.905C15.874,4.991,12.6,1.021,12.6,1.021,32.719,17.5,78.526,32.771,78.526,32.771Z" fill="url(#linear-gradient-2)"/><path d="M59.137,82.936c-16.89,14.086-33.694,26.1-45.048,33.85C36.136,90.463,59.137,55.554,59.137,55.554Z" fill="url(#linear-gradient-3)"/><path d="M59.137,49.253v6.3s-23,34.909-45.048,61.232C5.479,122.662,0,126.083,0,126.083,24.964,101.118,59.137,49.253,59.137,49.253Z" fill="url(#linear-gradient-4)"/><path d="M78.526,65.733c6.268,5.96,12.834,11.736,19.391,17.2V49.253c13.763-11.444,28.908-27.92,38.068-38.348-22.237,14-57.459,25.745-57.459,25.745Z" fill="url(#linear-gradient-5)"/><path d="M78.526,32.771V36.65s35.222-11.741,57.459-25.745c5.195-5.914,8.466-9.884,8.466-9.884C124.334,17.5,78.526,32.771,78.526,32.771Z" fill="url(#linear-gradient-6)"/><path d="M97.917,82.936c16.891,14.086,33.693,26.1,45.048,33.85C120.919,90.463,97.917,55.554,97.917,55.554Z" fill="url(#linear-gradient-7)"/><path d="M97.917,49.253v6.3s23,34.909,45.048,61.232c8.61,5.876,14.089,9.3,14.089,9.3C132.09,101.118,97.917,49.253,97.917,49.253Z" fill="url(#linear-gradient-8)"/></svg>