<svg id="Layer_1" data-name="Layer 1" xmlns="http://www.w3.org/2000/svg" xmlns:xlink="http://www.w3.org/1999/xlink" viewBox="0 0 123.499 110.165"><defs><clipPath id="clip-path" transform="translate(1.421)"><path d="M58.489,62.462a416.323,416.323,0,0,0,47.07,35.747q5.508,3.561,11.772,7.395a279.547,279.547,0,0,1-25.3-28.334c-5.008-6.471-11.4-15.408-19.26-26.81q8.9-8.361,32.778-34.285a88.182,88.182,0,0,1-12.546,7.553c-7.934,4.161-19.413,9.014-34.513,14.791C50.327,35.361,44.857,33.2,42.314,32.2c-6.394-2.542-11.787-4.93-16.332-7.242a97.14,97.14,0,0,1-15.657-9.433q3.674,4.442,7.6,8.663c3.313,3.7,7.55,7.936,12.558,12.943l13.867,13.4A385.1,385.1,0,0,1,15.918,89.443,173.431,173.431,0,0,1,0,106.292q6.371-3.637,11.88-7.082A266.3,266.3,0,0,0,58.489,62.462Z" fill="none"/></clipPath><linearGradient id="linear-gradient" x1="11.149" y1="77.956" x2="53.352" y2="35.753" gradientUnits="userSpaceOnUse"><stop offset="0.169" stop-color="#d4cd2c"/><stop offset="0.438" stop-color="#d1cc2d"/><stop offset="0.611" stop-color="#c9c930"/><stop offset="0.757" stop-color="#bac434"/><stop offset="0.887" stop-color="#a5bc3b"/><stop offset="1" stop-color="#8cb343"/></linearGradient><linearGradient id="linear-gradient-2" x1="63.521" y1="35.867" x2="105.542" y2="77.888" gradientUnits="userSpaceOnUse"><stop offset="0" stop-color="#648130"/><stop offset="0.018" stop-color="#698732"/><stop offset="0.13" stop-color="#82a73e"/><stop offset="0.192" stop-color="#8cb343"/><stop offset="0.21" stop-color="#99b83f"/><stop offset="0.248" stop-color="#afc038"/><stop offset="0.293" stop-color="#c0c633"/><stop offset="0.349" stop-color="#cbca2f"/><stop offset="0.427" stop-color="#d2cc2d"/><stop offset="0.644" stop-color="#d4cd2c"/></linearGradient><linearGradient id="linear-gradient-3" x1="59.948" y1="66.879" x2="103.46" y2="110.391" gradientUnits="userSpaceOnUse"><stop offset="0" stop-color="#678431"/><stop offset="0.226" stop-color="#8cb343"/><stop offset="0.321" stop-color="#a0ba3d"/><stop offset="0.46" stop-color="#b7c335"/><stop offset="0.61" stop-color="#c7c830"/><stop offset="0.778" stop-color="#d1cc2d"/><stop offset="1" stop-color="#d4cd2c"/></linearGradient><linearGradient id="linear-gradient-4" x1="57.283" y1="67.16" x2="13.77" y2="110.672" gradientUnits="userSpaceOnUse"><stop offset="0" stop-color="#58732a"/><stop offset="0.271" stop-color="#8cb343"/><stop offset="0.365" stop-color="#a5bc3b"/><stop offset="0.474" stop-color="#bac334"/><stop offset="0.596" stop-color="#c9c930"/><stop offset="0.74" stop-color="#d1cc2d"/><stop offset="0.96" stop-color="#d4cd2c"/></linearGradient><linearGradient id="linear-gradient-5" x1="9.072" y1="27.965" x2="42.143" y2="27.965" gradientUnits="userSpaceOnUse"><stop offset="0" stop-color="#1d1d1b"/><stop offset="0" stop-color="#8c9a63"/><stop offset="0.088" stop-color="#99a675"/><stop offset="0.401" stop-color="#c5ccb0"/><stop offset="0.669" stop-color="#e4e8db"/><stop offset="0.877" stop-color="#f8f9f5"/><stop offset="1" stop-color="#fff"/></linearGradient><linearGradient id="linear-gradient-6" x1="58.606" y1="28.967" x2="100.764" y2="28.967" gradientUnits="userSpaceOnUse"><stop offset="0" stop-color="#e6ede9"/><stop offset="1" stop-color="#808e5b"/></linearGradient><linearGradient id="linear-gradient-7" x1="72.788" y1="78.993" x2="121.091" y2="78.993" gradientUnits="userSpaceOnUse"><stop offset="0" stop-color="#fff"/><stop offset="0.128" stop-color="#f7f8f4"/><stop offset="0.355" stop-color="#e0e4d5"/><stop offset="0.656" stop-color="#bcc4a4"/><stop offset="1" stop-color="#8c9a63"/></linearGradient><linearGradient id="linear-gradient-8" x1="-11.079" y1="79.466" x2="34.873" y2="79.466" gradientUnits="userSpaceOnUse"><stop offset="0" stop-color="#749437"/><stop offset="1" stop-color="#e6ede9"/></linearGradient><radialGradient id="radial-gradient" cx="58.665" cy="62.552" r="106.59" gradientUnits="userSpaceOnUse"><stop offset="0" stop-color="#1d1d1b"/><stop offset="0.145" stop-color="#979796" stop-opacity="0.46"/><stop offset="0.313" stop-color="#e6e6e6" stop-opacity="0.112"/><stop offset="0.52" stop-color="#fff" stop-opacity="0"/></radialGradient><radialGradient id="radial-gradient-2" cx="58.791" cy="62.513" r="108.146" gradientUnits="userSpaceOnUse"><stop offset="0" stop-color="#1d1d1b"/><stop offset="0.253" stop-color="#b7b7b7" stop-opacity="0.317"/><stop offset="0.441" stop-color="#fff" stop-opacity="0"/></radialGradient></defs><title>xbox</title><g clip-path="url(#clip-path)"><path d="M58.521,41.986,16,22.11V81.739l42.526-.155Z" transform="translate(1.421)" fill="url(#linear-gradient)"/><path d="M100.661,22.11,58.5,41.986V81.739h42.164Z" transform="translate(1.421)" fill="url(#linear-gradient-2)"/><path d="M107.92,104.835V99.6L72.944,54.914v49.921Z" transform="translate(1.421)" fill="url(#linear-gradient-3)"/><path d="M44.271,105.132V55.211L9.3,99.894v5.238Z" transform="translate(1.421)" fill="url(#linear-gradient-4)"/><path d="M6.519,13.944l7.165,6.625C24.007,28.12,38.953,35.207,58.521,41.986v-3.7Z" transform="translate(1.421)" fill="url(#linear-gradient-5)"/><path d="M100.661,22.11l5.084-6.163L58.485,38.281l.01,3.7Q89.464,29.275,100.661,22.11Z" transform="translate(1.421)" fill="url(#linear-gradient-6)"/><path d="M72.788,50.45l.154,4.854a573.09,573.09,0,0,0,36.131,46.531l12.018,5.7Z" transform="translate(1.421)" fill="url(#linear-gradient-7)"/><path d="M44.263,55.545l.076-5.007-45.76,57.856,8.551-5.162Q22.846,88.325,44.263,55.545Z" transform="translate(1.421)" fill="url(#linear-gradient-8)"/></g><path d="M92.033,77.27a282.2,282.2,0,0,0,30.045,32.9L120.383,0Q84.214,39.636,72.773,50.46C80.631,61.862,87.025,70.8,92.033,77.27Z" transform="translate(1.421)" fill="url(#radial-gradient)"/><path d="M93.005,23.728C103.637,18.335,110.416,13.1,113.5,8.244L55.458,1.351.791,6.163c4.776,6.548,13.173,12.866,25.191,18.8,4.545,2.312,9.938,4.7,16.332,7.242,2.543,1,8.013,3.159,16.178,6.317C73.592,32.742,85.071,27.889,93.005,23.728Z" transform="translate(1.421)" fill="url(#radial-gradient-2)"/></svg>