<svg id="Layer_1" data-name="Layer 1" xmlns="http://www.w3.org/2000/svg" xmlns:xlink="http://www.w3.org/1999/xlink" viewBox="0 0 485.125 485.125"><defs><clipPath id="clip-path"><path d="M92.875,61.271l37.7,139.667,117.721,23.25V61.438s-4.034,17.085-5.667,18.25C174.772,34.021,126.859,30.122,104.955,42.8,96.042,48.6,92.875,54.354,92.875,61.271Z" fill="none"/></clipPath><radialGradient id="radial-gradient" cx="307.506" cy="221.985" r="234.304" gradientTransform="matrix(0.005, 1.059, -0.408, 0.002, 347.558, -92.004)" gradientUnits="userSpaceOnUse"><stop offset="0.371" stop-color="#f9ffdd"/><stop offset="0.426" stop-color="#edf890"/><stop offset="0.7" stop-color="#489718"/><stop offset="0.9" stop-color="#055f00"/><stop offset="1" stop-color="#074b00"/></radialGradient><clipPath id="clip-path-2"><path d="M380.083,42.744c-34.208-26.89-137.458,35.194-137.458,35.194V184.313L272.958,218.6l84.356-16.416,35.124-141.25C391.938,52.25,387.625,48.4,380.083,42.744Z" fill="none"/></clipPath><radialGradient id="radial-gradient-2" cx="319.986" cy="218.608" r="235.079" gradientTransform="matrix(1.04, 0.014, -0.005, 0.447, -97.654, 131.104)" xlink:href="#radial-gradient"/><clipPath id="clip-path-3"><path d="M433.932,391.621c7.193-104.517-95.807-224.683-135.994-258.913l-.98-.1L271.75,210.938c75.56,72.491,128.307,135.442,149.509,195.633C421.259,406.571,429.656,397.438,433.932,391.621Z" fill="none"/></clipPath><radialGradient id="radial-gradient-3" cx="307.506" cy="221.985" r="234.304" gradientTransform="matrix(0.006, 1.062, -0.433, 0.002, 347.967, -89.548)" gradientUnits="userSpaceOnUse"><stop offset="0.371" stop-color="#f9ffdd"/><stop offset="0.426" stop-color="#edf890"/><stop offset="0.761" stop-color="#489718"/><stop offset="1" stop-color="#055f00"/></radialGradient><clipPath id="clip-path-4"><path d="M62.619,405.2c15.395-56.238,153.256-182.265,153.256-182.265l-27.75-89.667-7.663-.671c-30.537,30.467-145.6,174.206-128.13,260.449C52.332,393.049,56.54,398.329,62.619,405.2Z" fill="none"/></clipPath><radialGradient id="radial-gradient-4" cx="319.986" cy="218.608" r="234.304" gradientTransform="matrix(1.058, -0.005, 0.002, 0.373, -115.166, 140.941)" gradientUnits="userSpaceOnUse"><stop offset="0.3" stop-color="#f9ffdd"/><stop offset="0.4" stop-color="#edf890"/><stop offset="0.761" stop-color="#489718"/><stop offset="1" stop-color="#055f00"/></radialGradient><radialGradient id="radial-gradient-5" cx="271.3" cy="206.831" r="141.53" gradientTransform="translate(95.976 83.997) scale(0.541 0.541)" gradientUnits="userSpaceOnUse"><stop offset="0" stop-color="#f9ffdd" stop-opacity="0.5"/><stop offset="0.75" stop-color="#f9ffdd" stop-opacity="0"/></radialGradient><radialGradient id="radial-gradient-6" cx="219.896" cy="208.563" fx="169.97582581404944" fy="122.70086797761095" r="198.077" gradientUnits="userSpaceOnUse"><stop offset="0" stop-color="#fff"/><stop offset="1" stop-color="#5b5b5b"/></radialGradient><radialGradient id="radial-gradient-7" cx="242.563" cy="242.563" r="241.949" gradientUnits="userSpaceOnUse"><stop offset="0.82" stop-color="#a5a5a5" stop-opacity="0"/><stop offset="0.93" stop-color="#a5a5a5" stop-opacity="0.3"/><stop offset="1" stop-color="#a5a5a5" stop-opacity="0.95"/></radialGradient></defs><title>xbox360</title><g clip-path="url(#clip-path)"><ellipse cx="258.665" cy="234.007" rx="98.307" ry="248.781" transform="translate(-90.032 225.216) rotate(-40.69)" fill="url(#radial-gradient)"/></g><g clip-path="url(#clip-path-2)"><ellipse cx="234.011" cy="233.331" rx="244.459" ry="104.711" transform="translate(-95.55 257.703) rotate(-49.146)" fill="url(#radial-gradient-2)"/></g><g clip-path="url(#clip-path-3)"><ellipse cx="253.516" cy="237.446" rx="104.454" ry="249.531" transform="translate(-93.519 222.689) rotate(-40.69)" fill="url(#radial-gradient-3)"/></g><g clip-path="url(#clip-path-4)"><ellipse cx="223.713" cy="220.835" rx="248.534" ry="89.816" transform="translate(-89.263 250.186) rotate(-49.987)" fill="url(#radial-gradient-4)"/></g><circle cx="242.625" cy="195.797" r="68.5" fill="url(#radial-gradient-5)"/><path d="M104.955,42.8a242.594,242.594,0,0,1,275.128-.06C345.731,20.731,266.332,69.094,242.625,86,174.772,40.334,126.859,30.122,104.955,42.8Zm192,89.8c31.328,31.671,141.665,149,136.543,259.568A242.568,242.568,0,0,0,402.072,59.833C389.062,54.15,341.429,88.466,296.958,132.6Zm-54.333,47.334C188.127,228.6,80.634,337.262,62.171,404.706a242.531,242.531,0,0,0,360.873-.1C399.117,336.679,334.12,264.433,242.625,179.938Zm-54.5-46.667S114.792,58.022,83.8,59.171A242.556,242.556,0,0,0,52.91,393.776C34.653,303.656,164.961,154.435,188.125,133.271Z" fill="url(#radial-gradient-6)"/><path d="M402.072,59.833A242.568,242.568,0,0,1,433.5,392.172c5.122-110.57-105.215-227.9-136.543-259.568C341.429,88.466,389.062,54.15,402.072,59.833ZM242.625,86c23.707-16.906,103.106-65.269,137.458-43.256a242.594,242.594,0,0,0-275.128.06C126.859,30.122,174.772,40.334,242.625,86Zm0,93.938C188.127,228.6,80.634,337.262,62.171,404.706a242.531,242.531,0,0,0,360.873-.1C399.117,336.679,334.12,264.433,242.625,179.938Zm-54.5-46.667S114.792,58.022,83.8,59.171A242.556,242.556,0,0,0,52.91,393.776C34.653,303.656,164.961,154.435,188.125,133.271Z" fill="url(#radial-gradient-7)"/></svg>